<svg width="415" height="252" viewBox="0 0 415 252" fill="none" xmlns="http://www.w3.org/2000/svg">
<path d="M118.16 20.05C118.16 21.52 119.045 22.48 120.725 22.885L122.54 23.335C123.695 23.605 124.235 24.235 124.235 25.195C124.235 26.425 123.23 27.19 121.655 27.19C120.185 27.19 119.195 26.455 119.135 25.33H118.025C118.16 27.085 119.57 28.18 121.655 28.18C123.875 28.18 125.315 26.995 125.315 25.135C125.315 23.68 124.445 22.72 122.765 22.315L120.92 21.865C119.795 21.58 119.24 20.98 119.24 20.035C119.24 18.82 120.23 18.04 121.745 18.04C123.095 18.04 123.92 18.73 124.04 19.945H125.135C124.97 18.145 123.695 17.065 121.76 17.065C119.6 17.065 118.16 18.25 118.16 20.05ZM131.352 24.055C133.407 24.055 134.727 22.585 134.727 20.635C134.727 18.61 133.422 17.26 131.352 17.26H127.257V28H128.337V24.055H131.352ZM131.202 18.235C132.687 18.235 133.602 19.135 133.602 20.62C133.602 22.09 132.702 23.08 131.142 23.08H128.337V18.235H131.202ZM136.032 28L137.082 25.15H142.032L143.082 28H144.207L140.217 17.26H138.882L134.937 28H136.032ZM139.407 18.775C139.467 18.625 139.527 18.43 139.542 18.34C139.557 18.445 139.632 18.625 139.677 18.775L141.687 24.205H137.412L139.407 18.775ZM149.655 28.165C151.965 28.165 153.84 26.8 154.335 24.775H153.18C152.715 26.215 151.365 27.13 149.67 27.13C147.315 27.13 145.74 25.33 145.74 22.63C145.74 19.915 147.315 18.115 149.67 18.115C151.35 18.115 152.67 19.06 153.12 20.605H154.275C153.84 18.475 152.025 17.08 149.715 17.08C146.685 17.08 144.615 19.33 144.615 22.63C144.615 25.93 146.655 28.165 149.655 28.165ZM162.637 28V27.01H157.282V23.095H162.127V22.12H157.282V18.25H162.622V17.26H156.202V28H162.637Z" fill="#4D546A"/>
<line x1="174" y1="32" x2="174" y2="12" stroke="#D6D9E1"/>
<path d="M184.923 25.045C184.923 26.905 186.033 28.18 187.968 28.18C189.783 28.18 191.043 27.01 191.043 25.06V17.26H189.963V25.03C189.963 26.305 189.333 27.16 187.968 27.16C186.663 27.16 185.973 26.32 185.973 25.045V24.625H184.923V25.045ZM195.435 28.18C196.665 28.18 197.655 27.64 198.105 26.725L198.24 28H199.11V23.305C199.11 21.385 197.88 20.545 196.2 20.545C194.415 20.545 193.215 21.49 193.215 22.96H194.16C194.16 21.985 194.91 21.415 196.17 21.415C197.235 21.415 198.09 21.865 198.09 23.29V23.53L195.69 23.725C193.995 23.86 192.975 24.7 192.975 26.035C192.975 27.31 193.89 28.18 195.435 28.18ZM195.675 27.34C194.685 27.34 194.025 26.89 194.025 26.005C194.025 25.195 194.58 24.595 195.945 24.475L198.09 24.31V24.7C198.09 26.275 197.205 27.34 195.675 27.34ZM202.918 28H203.953L206.968 20.74H205.903L203.998 25.42C203.788 25.945 203.593 26.425 203.458 26.92C203.323 26.44 203.128 25.945 202.933 25.42L201.058 20.74H199.948L202.918 28ZM208.698 18.745C209.118 18.745 209.478 18.4 209.478 17.98C209.478 17.56 209.118 17.2 208.698 17.2C208.278 17.2 207.933 17.56 207.933 17.98C207.933 18.4 208.278 18.745 208.698 18.745ZM208.188 28H209.223V20.74H208.188V28ZM214.427 28.18C216.137 28.18 217.262 27.355 217.652 25.825H216.662C216.392 26.785 215.627 27.295 214.442 27.295C212.882 27.295 211.952 26.275 211.877 24.505H217.652V23.995C217.652 21.94 216.317 20.545 214.352 20.545C212.282 20.545 210.872 22.105 210.872 24.37C210.872 26.65 212.297 28.18 214.427 28.18ZM214.352 21.43C215.717 21.43 216.617 22.36 216.617 23.755H211.907C212.087 22.33 212.987 21.43 214.352 21.43ZM223.102 20.65C222.847 20.59 222.652 20.575 222.427 20.575C221.407 20.575 220.642 21.085 220.357 21.865L220.282 20.74H219.307V28H220.342V23.86C220.342 22.48 221.197 21.58 222.532 21.58H223.102V20.65ZM228.218 20.05C228.218 21.52 229.103 22.48 230.783 22.885L232.598 23.335C233.753 23.605 234.293 24.235 234.293 25.195C234.293 26.425 233.288 27.19 231.713 27.19C230.243 27.19 229.253 26.455 229.193 25.33H228.083C228.218 27.085 229.628 28.18 231.713 28.18C233.933 28.18 235.373 26.995 235.373 25.135C235.373 23.68 234.503 22.72 232.823 22.315L230.978 21.865C229.853 21.58 229.298 20.98 229.298 20.035C229.298 18.82 230.288 18.04 231.803 18.04C233.153 18.04 233.978 18.73 234.098 19.945H235.193C235.028 18.145 233.753 17.065 231.818 17.065C229.658 17.065 228.218 18.25 228.218 20.05ZM239.175 28.18C240.405 28.18 241.395 27.64 241.845 26.725L241.98 28H242.85V23.305C242.85 21.385 241.62 20.545 239.94 20.545C238.155 20.545 236.955 21.49 236.955 22.96H237.9C237.9 21.985 238.65 21.415 239.91 21.415C240.975 21.415 241.83 21.865 241.83 23.29V23.53L239.43 23.725C237.735 23.86 236.715 24.7 236.715 26.035C236.715 27.31 237.63 28.18 239.175 28.18ZM239.415 27.34C238.425 27.34 237.765 26.89 237.765 26.005C237.765 25.195 238.32 24.595 239.685 24.475L241.83 24.31V24.7C241.83 26.275 240.945 27.34 239.415 27.34ZM245.962 28V24.205C245.962 22.57 246.802 21.49 248.287 21.49C249.487 21.49 250.252 22.09 250.252 23.785V28H251.287V23.56C251.287 21.73 250.462 20.545 248.467 20.545C247.417 20.545 246.457 21.07 245.977 22L245.827 20.74H244.927V28H245.962ZM255.015 28V21.61H256.47V20.74H255.015V18.445H253.995V20.74H252.54V21.61H253.995V28H255.015ZM259.785 28.18C261.015 28.18 262.005 27.64 262.455 26.725L262.59 28H263.46V23.305C263.46 21.385 262.23 20.545 260.55 20.545C258.765 20.545 257.565 21.49 257.565 22.96H258.51C258.51 21.985 259.26 21.415 260.52 21.415C261.585 21.415 262.44 21.865 262.44 23.29V23.53L260.04 23.725C258.345 23.86 257.325 24.7 257.325 26.035C257.325 27.31 258.24 28.18 259.785 28.18ZM260.025 27.34C259.035 27.34 258.375 26.89 258.375 26.005C258.375 25.195 258.93 24.595 260.295 24.475L262.44 24.31V24.7C262.44 26.275 261.555 27.34 260.025 27.34ZM265.027 24.37C265.027 26.575 266.587 28.18 268.717 28.18C270.847 28.18 272.407 26.575 272.407 24.37C272.407 22.15 270.847 20.545 268.717 20.545C266.587 20.545 265.027 22.15 265.027 24.37ZM266.077 24.355C266.077 22.675 267.157 21.475 268.717 21.475C270.262 21.475 271.357 22.675 271.357 24.355C271.357 26.065 270.262 27.25 268.717 27.25C267.157 27.25 266.077 26.065 266.077 24.355ZM275.142 28V17.065H274.107V28H275.142ZM279.429 28.18C280.659 28.18 281.649 27.64 282.099 26.725L282.234 28H283.104V23.305C283.104 21.385 281.874 20.545 280.194 20.545C278.409 20.545 277.209 21.49 277.209 22.96H278.154C278.154 21.985 278.904 21.415 280.164 21.415C281.229 21.415 282.084 21.865 282.084 23.29V23.53L279.684 23.725C277.989 23.86 276.969 24.7 276.969 26.035C276.969 27.31 277.884 28.18 279.429 28.18ZM279.669 27.34C278.679 27.34 278.019 26.89 278.019 26.005C278.019 25.195 278.574 24.595 279.939 24.475L282.084 24.31V24.7C282.084 26.275 281.199 27.34 279.669 27.34ZM286.261 28V17.065H285.226V28H286.261ZM289.542 28V17.065H288.507V28H289.542ZM293.828 28.18C295.058 28.18 296.048 27.64 296.498 26.725L296.633 28H297.503V23.305C297.503 21.385 296.273 20.545 294.593 20.545C292.808 20.545 291.608 21.49 291.608 22.96H292.553C292.553 21.985 293.303 21.415 294.563 21.415C295.628 21.415 296.483 21.865 296.483 23.29V23.53L294.083 23.725C292.388 23.86 291.368 24.7 291.368 26.035C291.368 27.31 292.283 28.18 293.828 28.18ZM294.068 27.34C293.078 27.34 292.418 26.89 292.418 26.005C292.418 25.195 292.973 24.595 294.338 24.475L296.483 24.31V24.7C296.483 26.275 295.598 27.34 294.068 27.34Z" fill="#4D546A"/>
<path d="M42.6417 71.29C48.4707 71.29 51.7767 68.216 51.7767 62.938V51.57H48.6447V62.735C48.6447 66.65 46.9047 68.274 42.6417 68.274C38.3787 68.274 36.6387 66.65 36.6387 62.735V51.57H33.5357V62.938C33.5357 68.216 36.8417 71.29 42.6417 71.29ZM57.6841 71V63.866C57.6841 60.734 59.1051 59.11 62.2661 59.11C65.2531 59.11 66.4711 60.473 66.4711 63.17V71H69.6031V62.329C69.6031 58.994 67.6311 56.297 63.6291 56.297C59.9751 56.297 58.0611 58.617 57.6261 61.053H57.4231V56.587H54.5521V71H57.6841ZM76.6278 71.29C79.9048 71.29 82.1958 69.84 82.9498 67.404H83.1528V71H86.0238V62.242C86.0238 58.791 83.9648 56.297 79.3828 56.297C74.8008 56.297 72.0748 58.762 72.0748 62.039V62.155H75.1778V62.039C75.1778 59.922 76.4828 59.052 79.1508 59.052C81.9058 59.052 82.9498 59.893 82.9498 62.271V63.112L76.3958 63.808C73.5538 64.127 71.7558 65.287 71.7558 67.52C71.7558 69.898 73.6408 71.29 76.6278 71.29ZM74.8878 67.317C74.8878 66.186 75.6708 65.809 77.2948 65.606L82.9498 64.968C82.9498 67.81 80.7458 69.028 77.4688 69.028C75.6708 69.028 74.8878 68.477 74.8878 67.317ZM101.055 71.29C105.376 71.29 108.537 68.854 108.537 65.258V64.939H105.434V65.142C105.434 67.375 103.81 68.477 100.997 68.477C97.7487 68.477 96.2987 66.911 96.2987 63.808C96.2987 60.647 97.7487 59.11 100.997 59.11C103.81 59.11 105.434 60.212 105.434 62.445V62.619H108.537V62.329C108.537 58.733 105.376 56.297 101.055 56.297C96.2987 56.297 93.1957 59.313 93.1957 63.808C93.1957 68.245 96.2987 71.29 101.055 71.29ZM118.219 71.29C123.033 71.29 126.252 68.245 126.252 63.808C126.252 59.313 123.033 56.297 118.219 56.297C113.434 56.297 110.215 59.313 110.215 63.808C110.215 68.245 113.434 71.29 118.219 71.29ZM118.219 68.506C114.739 68.506 113.289 66.853 113.289 63.808C113.289 60.734 114.739 59.052 118.219 59.052C121.728 59.052 123.178 60.734 123.178 63.808C123.178 66.853 121.728 68.506 118.219 68.506ZM131.657 71V63.866C131.657 60.734 133.078 59.11 136.239 59.11C139.226 59.11 140.444 60.473 140.444 63.17V71H143.576V62.329C143.576 58.994 141.604 56.297 137.602 56.297C133.948 56.297 132.034 58.617 131.599 61.053H131.396V56.587H128.525V71H131.657ZM153.617 71.29C157.909 71.29 160.925 69.173 160.925 66.099V65.838H157.793V66.07C157.793 67.781 156.546 68.767 153.53 68.767C150.195 68.767 148.832 67.288 148.716 64.504H160.954C161.041 64.069 161.07 63.663 161.07 63.141C161.07 58.762 158.025 56.297 153.559 56.297C148.861 56.297 145.787 59.313 145.787 63.808C145.787 68.622 148.89 71.29 153.617 71.29ZM153.501 58.762C156.575 58.762 158.112 60.038 158.112 62.706V62.764H148.745C148.919 60.183 150.311 58.762 153.501 58.762ZM165.793 71L170.52 65.49H170.723L175.508 71H179.307L173.101 63.808V63.634L179.307 56.587H175.537L170.81 62.039H170.636L165.851 56.587H162.052L168.258 63.692V63.866L162.052 71H165.793ZM183.964 54.905V51.57H180.832V54.905H183.964ZM183.964 71V56.587H180.832V71H183.964ZM195.884 54.76L200.669 50.99H196.29L192.578 54.76H195.884ZM194.231 71.29C199.045 71.29 202.264 68.245 202.264 63.808C202.264 59.313 199.045 56.297 194.231 56.297C189.446 56.297 186.227 59.313 186.227 63.808C186.227 68.245 189.446 71.29 194.231 71.29ZM194.231 68.506C190.751 68.506 189.301 66.853 189.301 63.808C189.301 60.734 190.751 59.052 194.231 59.052C197.74 59.052 199.19 60.734 199.19 63.808C199.19 66.853 197.74 68.506 194.231 68.506ZM207.668 71V63.866C207.668 60.734 209.089 59.11 212.25 59.11C215.237 59.11 216.455 60.473 216.455 63.17V71H219.587V62.329C219.587 58.994 217.615 56.297 213.613 56.297C209.959 56.297 208.045 58.617 207.61 61.053H207.407V56.587H204.536V71H207.668ZM230.466 54.905V51.57H227.334V54.905H230.466ZM230.466 71V56.587H227.334V71H230.466ZM236.499 71V63.866C236.499 60.734 237.92 59.11 241.081 59.11C244.068 59.11 245.286 60.473 245.286 63.17V71H248.418V62.329C248.418 58.994 246.446 56.297 242.444 56.297C238.79 56.297 236.876 58.617 236.441 61.053H236.238V56.587H233.367V71H236.499ZM258.458 71.29C262.75 71.29 265.766 69.173 265.766 66.099V65.838H262.634V66.07C262.634 67.781 261.387 68.767 258.371 68.767C255.036 68.767 253.673 67.288 253.557 64.504H265.795C265.882 64.069 265.911 63.663 265.911 63.141C265.911 58.762 262.866 56.297 258.4 56.297C253.702 56.297 250.628 59.313 250.628 63.808C250.628 68.622 253.731 71.29 258.458 71.29ZM258.342 58.762C261.416 58.762 262.953 60.038 262.953 62.706V62.764H253.586C253.76 60.183 255.152 58.762 258.342 58.762ZM275.072 71.29C279.132 71.29 281.8 69.695 281.8 66.998C281.8 64.62 280.234 63.46 276.812 63.025L273.477 62.561C271.302 62.271 270.722 61.865 270.722 60.734C270.722 59.371 271.65 58.791 274.289 58.791C277.479 58.791 278.349 59.69 278.349 61.401V61.575H281.452V61.488C281.452 58.066 278.784 56.297 274.376 56.297C269.939 56.297 267.648 58.095 267.648 60.618C267.648 63.025 269.301 64.185 272.027 64.533L275.971 65.055C278.03 65.345 278.726 65.722 278.726 66.911C278.726 68.187 277.885 68.767 275.072 68.767C272.056 68.767 270.925 68.158 270.925 66.273V66.041H267.793V66.128C267.793 69.463 270.432 71.29 275.072 71.29ZM287.192 75.93V66.94H287.308C287.888 69.579 289.976 71.29 293.224 71.29C297.719 71.29 300.184 68.274 300.184 63.808C300.184 59.342 297.661 56.297 293.195 56.297C289.802 56.297 287.772 57.921 287.192 60.589H286.931V56.587H284.06V75.93H287.192ZM287.192 64.04V63.779C287.192 60.676 288.99 59.168 292.209 59.168C295.225 59.168 297.052 60.328 297.052 63.808C297.052 67.259 295.254 68.448 292.151 68.448C289.077 68.448 287.192 66.998 287.192 64.04ZM309.605 71.29C313.897 71.29 316.913 69.173 316.913 66.099V65.838H313.781V66.07C313.781 67.781 312.534 68.767 309.518 68.767C306.183 68.767 304.82 67.288 304.704 64.504H316.942C317.029 64.069 317.058 63.663 317.058 63.141C317.058 58.762 314.013 56.297 309.547 56.297C304.849 56.297 301.775 59.313 301.775 63.808C301.775 68.622 304.878 71.29 309.605 71.29ZM309.489 58.762C312.563 58.762 314.1 60.038 314.1 62.706V62.764H304.733C304.907 60.183 306.299 58.762 309.489 58.762ZM322.536 71V62.909C322.536 60.328 323.551 58.965 326.016 58.965C328.162 58.965 329.032 59.922 329.032 61.981V63.257H332.135V61.372C332.135 58.646 330.714 56.297 327.437 56.297C324.479 56.297 322.913 58.153 322.478 60.473H322.275V56.587H319.404V71H322.536ZM338.336 71.29C341.613 71.29 343.904 69.84 344.658 67.404H344.861V71H347.732V62.242C347.732 58.791 345.673 56.297 341.091 56.297C336.509 56.297 333.783 58.762 333.783 62.039V62.155H336.886V62.039C336.886 59.922 338.191 59.052 340.859 59.052C343.614 59.052 344.658 59.893 344.658 62.271V63.112L338.104 63.808C335.262 64.127 333.464 65.287 333.464 67.52C333.464 69.898 335.349 71.29 338.336 71.29ZM336.596 67.317C336.596 66.186 337.379 65.809 339.003 65.606L344.658 64.968C344.658 67.81 342.454 69.028 339.177 69.028C337.379 69.028 336.596 68.477 336.596 67.317ZM356.879 71.29C360.127 71.29 362.244 69.724 362.853 66.853H363.056V71H365.927V51.57H362.795V60.502H362.621C362.041 58.066 360.098 56.297 356.676 56.297C352.297 56.297 349.803 59.313 349.803 63.808C349.803 68.245 352.326 71.29 356.879 71.29ZM352.964 63.808C352.964 60.328 354.762 59.139 357.778 59.139C360.997 59.139 362.795 60.647 362.795 63.721V63.953C362.795 66.969 360.91 68.419 357.836 68.419C354.733 68.419 352.964 67.259 352.964 63.808ZM373.057 71.29C376.334 71.29 378.625 69.84 379.379 67.404H379.582V71H382.453V62.242C382.453 58.791 380.394 56.297 375.812 56.297C371.23 56.297 368.504 58.762 368.504 62.039V62.155H371.607V62.039C371.607 59.922 372.912 59.052 375.58 59.052C378.335 59.052 379.379 59.893 379.379 62.271V63.112L372.825 63.808C369.983 64.127 368.185 65.287 368.185 67.52C368.185 69.898 370.07 71.29 373.057 71.29ZM371.317 67.317C371.317 66.186 372.1 65.809 373.724 65.606L379.379 64.968C379.379 67.81 377.175 69.028 373.898 69.028C372.1 69.028 371.317 68.477 371.317 67.317ZM32.3772 107.29C36.6692 107.29 39.6852 105.173 39.6852 102.099V101.838H36.5532V102.07C36.5532 103.781 35.3062 104.767 32.2902 104.767C28.9552 104.767 27.5922 103.288 27.4762 100.504H39.7142C39.8012 100.069 39.8302 99.663 39.8302 99.141C39.8302 94.762 36.7852 92.297 32.3192 92.297C27.6212 92.297 24.5472 95.313 24.5472 99.808C24.5472 104.622 27.6502 107.29 32.3772 107.29ZM32.2612 94.762C35.3352 94.762 36.8722 96.038 36.8722 98.706V98.764H27.5052C27.6792 96.183 29.0712 94.762 32.2612 94.762ZM45.3081 107V99.866C45.3081 96.734 46.7291 95.11 49.8901 95.11C52.8771 95.11 54.0951 96.473 54.0951 99.17V107H57.2271V98.329C57.2271 94.994 55.2551 92.297 51.2531 92.297C47.5991 92.297 45.6851 94.617 45.2501 97.053H45.0471V92.587H42.1761V107H45.3081ZM69.4719 107V104.187H66.8619C65.0639 104.187 64.2519 103.723 64.2519 101.954V95.197H69.4719V92.587H64.2519V89.426H61.1489V92.587H58.7129V95.197H61.1489V102.128C61.1489 105.637 63.0629 107 66.1659 107H69.4719ZM74.563 107V98.909C74.563 96.328 75.578 94.965 78.043 94.965C80.189 94.965 81.059 95.922 81.059 97.981V99.257H84.162V97.372C84.162 94.646 82.741 92.297 79.464 92.297C76.506 92.297 74.94 94.153 74.505 96.473H74.302V92.587H71.431V107H74.563ZM93.3792 107.29C97.6712 107.29 100.687 105.173 100.687 102.099V101.838H97.5552V102.07C97.5552 103.781 96.3082 104.767 93.2922 104.767C89.9572 104.767 88.5942 103.288 88.4782 100.504H100.716C100.803 100.069 100.832 99.663 100.832 99.141C100.832 94.762 97.7872 92.297 93.3212 92.297C88.6232 92.297 85.5492 95.313 85.5492 99.808C85.5492 104.622 88.6522 107.29 93.3792 107.29ZM93.2632 94.762C96.3372 94.762 97.8742 96.038 97.8742 98.706V98.764H88.5072C88.6812 96.183 90.0732 94.762 93.2632 94.762ZM111.266 107V87.57H108.134V107H111.266ZM118.4 107.29C121.677 107.29 123.968 105.84 124.722 103.404H124.925V107H127.796V98.242C127.796 94.791 125.737 92.297 121.155 92.297C116.573 92.297 113.847 94.762 113.847 98.039V98.155H116.95V98.039C116.95 95.922 118.255 95.052 120.923 95.052C123.678 95.052 124.722 95.893 124.722 98.271V99.112L118.168 99.808C115.326 100.127 113.528 101.287 113.528 103.52C113.528 105.898 115.413 107.29 118.4 107.29ZM116.66 103.317C116.66 102.186 117.443 101.809 119.067 101.606L124.722 100.968C124.722 103.81 122.518 105.028 119.241 105.028C117.443 105.028 116.66 104.477 116.66 103.317ZM139.782 107V95.197H144.944V92.587H139.724C139.55 90.499 140.739 89.89 143.03 89.89H144.944V87.57H143.523C139.434 87.57 137.027 89.426 136.679 92.587H134.475V95.197H136.65V107H139.782ZM149.955 90.76L154.769 86.99H150.39L146.678 90.76H149.955ZM149.868 107V92.5H146.765V107H149.868ZM159.667 107.29C163.727 107.29 166.395 105.695 166.395 102.998C166.395 100.62 164.829 99.46 161.407 99.025L158.072 98.561C155.897 98.271 155.317 97.865 155.317 96.734C155.317 95.371 156.245 94.791 158.884 94.791C162.074 94.791 162.944 95.69 162.944 97.401V97.575H166.047V97.488C166.047 94.066 163.379 92.297 158.971 92.297C154.534 92.297 152.243 94.095 152.243 96.618C152.243 99.025 153.896 100.185 156.622 100.533L160.566 101.055C162.625 101.345 163.321 101.722 163.321 102.911C163.321 104.187 162.48 104.767 159.667 104.767C156.651 104.767 155.52 104.158 155.52 102.273V102.041H152.388V102.128C152.388 105.463 155.027 107.29 159.667 107.29ZM171.787 90.905V87.57H168.655V90.905H171.787ZM171.787 107V92.587H168.655V107H171.787ZM181.966 107.29C186.287 107.29 189.448 104.854 189.448 101.258V100.939H186.345V101.142C186.345 103.375 184.721 104.477 181.908 104.477C178.66 104.477 177.21 102.911 177.21 99.808C177.21 96.647 178.66 95.11 181.908 95.11C184.721 95.11 186.345 96.212 186.345 98.445V98.619H189.448V98.329C189.448 94.733 186.287 92.297 181.966 92.297C177.21 92.297 174.107 95.313 174.107 99.808C174.107 104.245 177.21 107.29 181.966 107.29ZM195.998 107.29C199.275 107.29 201.566 105.84 202.32 103.404H202.523V107H205.394V98.242C205.394 94.791 203.335 92.297 198.753 92.297C194.171 92.297 191.445 94.762 191.445 98.039V98.155H194.548V98.039C194.548 95.922 195.853 95.052 198.521 95.052C201.276 95.052 202.32 95.893 202.32 98.271V99.112L195.766 99.808C192.924 100.127 191.126 101.287 191.126 103.52C191.126 105.898 193.011 107.29 195.998 107.29ZM194.258 103.317C194.258 102.186 195.041 101.809 196.665 101.606L202.32 100.968C202.32 103.81 200.116 105.028 196.839 105.028C195.041 105.028 194.258 104.477 194.258 103.317ZM219.497 107.29C222.745 107.29 224.862 105.724 225.471 102.853H225.674V107H228.545V87.57H225.413V96.502H225.239C224.659 94.066 222.716 92.297 219.294 92.297C214.915 92.297 212.421 95.313 212.421 99.808C212.421 104.245 214.944 107.29 219.497 107.29ZM215.582 99.808C215.582 96.328 217.38 95.139 220.396 95.139C223.615 95.139 225.413 96.647 225.413 99.721V99.953C225.413 102.969 223.528 104.419 220.454 104.419C217.351 104.419 215.582 103.259 215.582 99.808ZM238.691 107.29C242.983 107.29 245.999 105.173 245.999 102.099V101.838H242.867V102.07C242.867 103.781 241.62 104.767 238.604 104.767C235.269 104.767 233.906 103.288 233.79 100.504H246.028C246.115 100.069 246.144 99.663 246.144 99.141C246.144 94.762 243.099 92.297 238.633 92.297C233.935 92.297 230.861 95.313 230.861 99.808C230.861 104.622 233.964 107.29 238.691 107.29ZM238.575 94.762C241.649 94.762 243.186 96.038 243.186 98.706V98.764H233.819C233.993 96.183 235.385 94.762 238.575 94.762ZM256.578 111.93V102.94H256.694C257.274 105.579 259.362 107.29 262.61 107.29C267.105 107.29 269.57 104.274 269.57 99.808C269.57 95.342 267.047 92.297 262.581 92.297C259.188 92.297 257.158 93.921 256.578 96.589H256.317V92.587H253.446V111.93H256.578ZM256.578 100.04V99.779C256.578 96.676 258.376 95.168 261.595 95.168C264.611 95.168 266.438 96.328 266.438 99.808C266.438 103.259 264.64 104.448 261.537 104.448C258.463 104.448 256.578 102.998 256.578 100.04ZM275.975 107.29C279.252 107.29 281.543 105.84 282.297 103.404H282.5V107H285.371V98.242C285.371 94.791 283.312 92.297 278.73 92.297C274.148 92.297 271.422 94.762 271.422 98.039V98.155H274.525V98.039C274.525 95.922 275.83 95.052 278.498 95.052C281.253 95.052 282.297 95.893 282.297 98.271V99.112L275.743 99.808C272.901 100.127 271.103 101.287 271.103 103.52C271.103 105.898 272.988 107.29 275.975 107.29ZM274.235 103.317C274.235 102.186 275.018 101.809 276.642 101.606L282.297 100.968C282.297 103.81 280.093 105.028 276.816 105.028C275.018 105.028 274.235 104.477 274.235 103.317ZM291.298 107V98.909C291.298 96.328 292.313 94.965 294.778 94.965C296.924 94.965 297.794 95.922 297.794 97.981V99.257H300.897V97.372C300.897 94.646 299.476 92.297 296.199 92.297C293.241 92.297 291.675 94.153 291.24 96.473H291.037V92.587H288.166V107H291.298ZM312.319 107V104.187H309.709C307.911 104.187 307.099 103.723 307.099 101.954V95.197H312.319V92.587H307.099V89.426H303.996V92.587H301.56V95.197H303.996V102.128C303.996 105.637 305.91 107 309.013 107H312.319ZM317.555 90.76L322.369 86.99H317.99L314.278 90.76H317.555ZM317.468 107V92.5H314.365V107H317.468ZM327.73 107.29C332.051 107.29 335.212 104.854 335.212 101.258V100.939H332.109V101.142C332.109 103.375 330.485 104.477 327.672 104.477C324.424 104.477 322.974 102.911 322.974 99.808C322.974 96.647 324.424 95.11 327.672 95.11C330.485 95.11 332.109 96.212 332.109 98.445V98.619H335.212V98.329C335.212 94.733 332.051 92.297 327.73 92.297C322.974 92.297 319.871 95.313 319.871 99.808C319.871 104.245 322.974 107.29 327.73 107.29ZM343.532 107.29C347.244 107.29 349.158 104.97 349.622 102.534H349.796V107H352.667V92.587H349.564V99.721C349.564 102.853 348.085 104.477 344.895 104.477C341.85 104.477 340.603 103.114 340.603 100.417V92.587H337.5V101.258C337.5 104.593 339.472 107.29 343.532 107.29ZM358.644 107V87.57H355.512V107H358.644ZM365.778 107.29C369.055 107.29 371.346 105.84 372.1 103.404H372.303V107H375.174V98.242C375.174 94.791 373.115 92.297 368.533 92.297C363.951 92.297 361.225 94.762 361.225 98.039V98.155H364.328V98.039C364.328 95.922 365.633 95.052 368.301 95.052C371.056 95.052 372.1 95.893 372.1 98.271V99.112L365.546 99.808C362.704 100.127 360.906 101.287 360.906 103.52C360.906 105.898 362.791 107.29 365.778 107.29ZM364.038 103.317C364.038 102.186 364.821 101.809 366.445 101.606L372.1 100.968C372.1 103.81 369.896 105.028 366.619 105.028C364.821 105.028 364.038 104.477 364.038 103.317ZM384.785 107.29C388.845 107.29 391.513 105.695 391.513 102.998C391.513 100.62 389.947 99.46 386.525 99.025L383.19 98.561C381.015 98.271 380.435 97.865 380.435 96.734C380.435 95.371 381.363 94.791 384.002 94.791C387.192 94.791 388.062 95.69 388.062 97.401V97.575H391.165V97.488C391.165 94.066 388.497 92.297 384.089 92.297C379.652 92.297 377.361 94.095 377.361 96.618C377.361 99.025 379.014 100.185 381.74 100.533L385.684 101.055C387.743 101.345 388.439 101.722 388.439 102.911C388.439 104.187 387.598 104.767 384.785 104.767C381.769 104.767 380.638 104.158 380.638 102.273V102.041H377.506V102.128C377.506 105.463 380.145 107.29 384.785 107.29ZM50.3725 147.93C53.3305 147.93 54.9545 147.147 56.1435 144.566L63.6545 128.587H60.2035L56.8105 136.214L55.4475 139.694H55.2155L53.7945 136.243L50.1115 128.587H46.6025L53.7075 143L53.3595 143.754C52.9245 144.74 52.4025 145.088 51.1265 145.088H48.3135V147.93H50.3725ZM73.2744 143V123.57H70.1424V143H73.2744ZM80.4086 143.29C83.6856 143.29 85.9766 141.84 86.7306 139.404H86.9336V143H89.8046V134.242C89.8046 130.791 87.7456 128.297 83.1636 128.297C78.5816 128.297 75.8556 130.762 75.8556 134.039V134.155H78.9586V134.039C78.9586 131.922 80.2636 131.052 82.9316 131.052C85.6866 131.052 86.7306 131.893 86.7306 134.271V135.112L80.1766 135.808C77.3346 136.127 75.5366 137.287 75.5366 139.52C75.5366 141.898 77.4216 143.29 80.4086 143.29ZM78.6686 139.317C78.6686 138.186 79.4516 137.809 81.0756 137.606L86.7306 136.968C86.7306 139.81 84.5266 141.028 81.2496 141.028C79.4516 141.028 78.6686 140.477 78.6686 139.317ZM100.688 126.905V123.57H97.5564V126.905H100.688ZM100.688 143V128.587H97.5564V143H100.688ZM106.721 143V135.866C106.721 132.734 108.142 131.11 111.303 131.11C114.29 131.11 115.508 132.473 115.508 135.17V143H118.64V134.329C118.64 130.994 116.668 128.297 112.666 128.297C109.012 128.297 107.098 130.617 106.663 133.053H106.46V128.587H103.589V143H106.721ZM130.884 143V140.187H128.274C126.476 140.187 125.664 139.723 125.664 137.954V131.197H130.884V128.587H125.664V125.426H122.561V128.587H120.125V131.197H122.561V138.128C122.561 141.637 124.475 143 127.578 143H130.884ZM140.094 143.29C144.386 143.29 147.402 141.173 147.402 138.099V137.838H144.27V138.07C144.27 139.781 143.023 140.767 140.007 140.767C136.672 140.767 135.309 139.288 135.193 136.504H147.431C147.518 136.069 147.547 135.663 147.547 135.141C147.547 130.762 144.502 128.297 140.036 128.297C135.338 128.297 132.264 131.313 132.264 135.808C132.264 140.622 135.367 143.29 140.094 143.29ZM139.978 130.762C143.052 130.762 144.589 132.038 144.589 134.706V134.764H135.222C135.396 132.183 136.788 130.762 139.978 130.762ZM153.024 143V123.57H149.892V143H153.024ZM159.057 126.905V123.57H155.925V126.905H159.057ZM159.057 143V128.587H155.925V143H159.057ZM168.221 141.695C171.498 141.695 173.441 140.129 173.963 137.954H174.166V141.492C174.166 144.711 172.977 145.61 169.7 145.61C166.626 145.61 165.408 144.827 165.408 142.739H162.305C162.305 146.219 165.263 148.22 169.526 148.22C174.253 148.22 177.269 146.161 177.269 141.318V128.587H174.398V132.183H174.224C173.702 129.66 171.44 128.297 168.424 128.297C164.045 128.297 161.377 130.994 161.377 134.996C161.377 138.998 163.929 141.695 168.221 141.695ZM164.538 134.996C164.538 132.038 166.307 131.023 169.323 131.023C172.368 131.023 174.166 132.27 174.166 134.706V135.112C174.166 137.664 172.426 138.998 169.236 138.998C166.278 138.998 164.538 137.954 164.538 134.996ZM187.417 143.29C191.709 143.29 194.725 141.173 194.725 138.099V137.838H191.593V138.07C191.593 139.781 190.346 140.767 187.33 140.767C183.995 140.767 182.632 139.288 182.516 136.504H194.754C194.841 136.069 194.87 135.663 194.87 135.141C194.87 130.762 191.825 128.297 187.359 128.297C182.661 128.297 179.587 131.313 179.587 135.808C179.587 140.622 182.69 143.29 187.417 143.29ZM187.301 130.762C190.375 130.762 191.912 132.038 191.912 134.706V134.764H182.545C182.719 132.183 184.111 130.762 187.301 130.762ZM200.348 143V135.866C200.348 132.734 201.769 131.11 204.93 131.11C207.917 131.11 209.135 132.473 209.135 135.17V143H212.267V134.329C212.267 130.994 210.295 128.297 206.293 128.297C202.639 128.297 200.725 130.617 200.29 133.053H200.087V128.587H197.216V143H200.348ZM222.336 143.29C226.657 143.29 229.818 140.854 229.818 137.258V136.939H226.715V137.142C226.715 139.375 225.091 140.477 222.278 140.477C219.03 140.477 217.58 138.911 217.58 135.808C217.58 132.647 219.03 131.11 222.278 131.11C225.091 131.11 226.715 132.212 226.715 134.445V134.619H229.818V134.329C229.818 130.733 226.657 128.297 222.336 128.297C217.58 128.297 214.477 131.313 214.477 135.808C214.477 140.245 217.58 143.29 222.336 143.29ZM235.267 126.905V123.57H232.135V126.905H235.267ZM235.267 143V128.587H232.135V143H235.267ZM242.401 143.29C245.678 143.29 247.969 141.84 248.723 139.404H248.926V143H251.797V134.242C251.797 130.791 249.738 128.297 245.156 128.297C240.574 128.297 237.848 130.762 237.848 134.039V134.155H240.951V134.039C240.951 131.922 242.256 131.052 244.924 131.052C247.679 131.052 248.723 131.893 248.723 134.271V135.112L242.169 135.808C239.327 136.127 237.529 137.287 237.529 139.52C237.529 141.898 239.414 143.29 242.401 143.29ZM240.661 139.317C240.661 138.186 241.444 137.809 243.068 137.606L248.723 136.968C248.723 139.81 246.519 141.028 243.242 141.028C241.444 141.028 240.661 140.477 240.661 139.317ZM263.783 143.29C267.06 143.29 269.351 141.84 270.105 139.404H270.308V143H273.179V134.242C273.179 130.791 271.12 128.297 266.538 128.297C261.956 128.297 259.23 130.762 259.23 134.039V134.155H262.333V134.039C262.333 131.922 263.638 131.052 266.306 131.052C269.061 131.052 270.105 131.893 270.105 134.271V135.112L263.551 135.808C260.709 136.127 258.911 137.287 258.911 139.52C258.911 141.898 260.796 143.29 263.783 143.29ZM262.043 139.317C262.043 138.186 262.826 137.809 264.45 137.606L270.105 136.968C270.105 139.81 267.901 141.028 264.624 141.028C262.826 141.028 262.043 140.477 262.043 139.317ZM279.106 143V134.909C279.106 132.328 280.121 130.965 282.586 130.965C284.732 130.965 285.602 131.922 285.602 133.981V135.257H288.705V133.372C288.705 130.646 287.284 128.297 284.007 128.297C281.049 128.297 279.483 130.153 279.048 132.473H278.845V128.587H275.974V143H279.106ZM300.127 143V140.187H297.517C295.719 140.187 294.907 139.723 294.907 137.954V131.197H300.127V128.587H294.907V125.426H291.804V128.587H289.368V131.197H291.804V138.128C291.804 141.637 293.718 143 296.821 143H300.127ZM305.218 126.905V123.57H302.086V126.905H305.218ZM305.218 143V128.587H302.086V143H305.218ZM312.352 143V131.197H317.514V128.587H312.294C312.12 126.499 313.309 125.89 315.6 125.89H317.514V123.57H316.093C312.004 123.57 309.597 125.426 309.249 128.587H307.045V131.197H309.22V143H312.352ZM322.386 126.905V123.57H319.254V126.905H322.386ZM322.386 143V128.587H319.254V143H322.386ZM332.559 143.29C336.88 143.29 340.041 140.854 340.041 137.258V136.939H336.938V137.142C336.938 139.375 335.314 140.477 332.501 140.477C329.253 140.477 327.803 138.911 327.803 135.808C327.803 132.647 329.253 131.11 332.501 131.11C335.314 131.11 336.938 132.212 336.938 134.445V134.619H340.041V134.329C340.041 130.733 336.88 128.297 332.559 128.297C327.803 128.297 324.7 131.313 324.7 135.808C324.7 140.245 327.803 143.29 332.559 143.29ZM345.489 126.905V123.57H342.357V126.905H345.489ZM345.489 143V128.587H342.357V143H345.489ZM352.623 143.29C355.9 143.29 358.191 141.84 358.945 139.404H359.148V143H362.019V134.242C362.019 130.791 359.96 128.297 355.378 128.297C350.796 128.297 348.07 130.762 348.07 134.039V134.155H351.173V134.039C351.173 131.922 352.478 131.052 355.146 131.052C357.901 131.052 358.945 131.893 358.945 134.271V135.112L352.391 135.808C349.549 136.127 347.751 137.287 347.751 139.52C347.751 141.898 349.636 143.29 352.623 143.29ZM350.883 139.317C350.883 138.186 351.666 137.809 353.29 137.606L358.945 136.968C358.945 139.81 356.741 141.028 353.464 141.028C351.666 141.028 350.883 140.477 350.883 139.317ZM367.947 143V123.57H364.815V143H367.947Z" fill="#121419"/>
<path d="M15.9167 210.16C17.1967 210.16 17.8967 210.77 17.8967 211.75C17.8967 212.79 17.2067 213.47 16.1367 213.47C15.1267 213.47 14.4867 212.85 14.4867 211.82H13.7767C13.7767 213.25 14.7267 214.12 16.1367 214.12C17.5867 214.12 18.6267 213.19 18.6267 211.77C18.6267 210.47 17.6667 209.62 16.3267 209.55L18.4667 207.42V206.84H14.1267V207.48H17.5567L15.3467 209.66V210.16H15.9167ZM20.7827 207.49V214H21.4727V206.84H19.3227V207.49H20.7827ZM23.1878 214L25.9978 206.84H25.2978L22.5078 214H23.1878ZM26.3977 210.42C26.3977 212.65 27.4677 214.13 29.2677 214.13C31.0577 214.13 32.1277 212.65 32.1277 210.42C32.1277 208.2 31.0377 206.7 29.2677 206.7C27.4877 206.7 26.3977 208.2 26.3977 210.42ZM27.1077 210.42C27.1077 208.55 27.8977 207.36 29.2677 207.36C30.6377 207.36 31.4277 208.55 31.4277 210.42C31.4277 212.28 30.6377 213.48 29.2677 213.48C27.8977 213.48 27.1077 212.28 27.1077 210.42ZM34.4838 207.49V214H35.1738V206.84H33.0238V207.49H34.4838ZM36.889 214L39.699 206.84H38.999L36.209 214H36.889ZM44.7188 214V213.33H41.1088L42.7788 211.87C44.2088 210.62 44.6788 209.93 44.6788 208.89C44.6788 207.58 43.7788 206.71 42.4288 206.71C41.0188 206.71 40.0688 207.7 40.0288 209.2H40.7488C40.7788 208.09 41.4288 207.37 42.4188 207.37C43.3688 207.37 43.9488 207.96 43.9488 208.93C43.9488 209.78 43.6088 210.28 42.2888 211.43L39.9988 213.43V214H44.7188ZM45.7141 210.42C45.7141 212.65 46.7841 214.13 48.5841 214.13C50.3741 214.13 51.4441 212.65 51.4441 210.42C51.4441 208.2 50.3541 206.7 48.5841 206.7C46.8041 206.7 45.7141 208.2 45.7141 210.42ZM46.4241 210.42C46.4241 208.55 47.2141 207.36 48.5841 207.36C49.9541 207.36 50.7441 208.55 50.7441 210.42C50.7441 212.28 49.9541 213.48 48.5841 213.48C47.2141 213.48 46.4241 212.28 46.4241 210.42ZM57.1602 214V213.33H53.5502L55.2202 211.87C56.6502 210.62 57.1202 209.93 57.1202 208.89C57.1202 207.58 56.2202 206.71 54.8702 206.71C53.4602 206.71 52.5102 207.7 52.4702 209.2H53.1902C53.2202 208.09 53.8702 207.37 54.8602 207.37C55.8102 207.37 56.3902 207.96 56.3902 208.93C56.3902 209.78 56.0502 210.28 54.7302 211.43L52.4402 213.43V214H57.1602ZM62.795 214V213.33H59.185L60.855 211.87C62.285 210.62 62.755 209.93 62.755 208.89C62.755 207.58 61.855 206.71 60.505 206.71C59.095 206.71 58.145 207.7 58.105 209.2H58.825C58.855 208.09 59.505 207.37 60.495 207.37C61.445 207.37 62.025 207.96 62.025 208.93C62.025 209.78 61.685 210.28 60.365 211.43L58.075 213.43V214H62.795Z" fill="#232630"/>
<path d="M71.5437 213.99V212.8H68.5037L69.8237 211.67C70.9337 210.72 71.4937 209.95 71.4937 208.93C71.4937 207.45 70.5237 206.56 68.9637 206.56C67.4137 206.56 66.3937 207.6 66.3837 209.2H67.6537C67.6637 208.26 68.1637 207.7 68.9637 207.7C69.7337 207.7 70.1837 208.17 70.1837 209C70.1837 209.7 69.8537 210.18 68.8637 211.02L66.4737 213.04V214L71.5437 213.99ZM77.5007 213.99V212.8H74.4607L75.7807 211.67C76.8907 210.72 77.4507 209.95 77.4507 208.93C77.4507 207.45 76.4807 206.56 74.9207 206.56C73.3707 206.56 72.3507 207.6 72.3407 209.2H73.6107C73.6207 208.26 74.1207 207.7 74.9207 207.7C75.6907 207.7 76.1407 208.17 76.1407 209C76.1407 209.7 75.8107 210.18 74.8207 211.02L72.4307 213.04V214L77.5007 213.99ZM79.4094 210.48C79.8494 210.48 80.2194 210.12 80.2194 209.69C80.2194 209.25 79.8494 208.89 79.4094 208.89C78.9694 208.89 78.5994 209.25 78.5994 209.69C78.5994 210.12 78.9694 210.48 79.4094 210.48ZM79.4094 214.12C79.8494 214.12 80.2194 213.76 80.2194 213.33C80.2194 212.89 79.8494 212.53 79.4094 212.53C78.9694 212.53 78.5994 212.89 78.5994 213.33C78.5994 213.76 78.9694 214.12 79.4094 214.12ZM82.9048 207.84V214H84.1348V206.69H81.3048V207.84H82.9048ZM85.3792 210.36C85.3792 212.62 86.5292 214.13 88.4692 214.13C90.4092 214.13 91.5692 212.62 91.5692 210.36C91.5692 208.09 90.3392 206.55 88.4692 206.55C86.5992 206.55 85.3792 208.09 85.3792 210.36ZM86.6392 210.36C86.6392 208.63 87.3192 207.68 88.4692 207.68C89.6292 207.68 90.3092 208.63 90.3092 210.36C90.3092 212.05 89.6292 213 88.4692 213C87.3192 213 86.6392 212.05 86.6392 210.36Z" fill="#E73A02"/>
<path d="M404 199.114C404 186.356 397.355 182 386.348 182C375.341 182 369 186.356 369 199.114C369 211.753 375.234 216 386.556 216C397.878 216 404 211.737 404 199.114Z" fill="#D6D9E1"/>
<path d="M387.544 197.456C386.725 196.637 385.614 196.177 384.456 196.177C383.298 196.177 382.187 196.637 381.368 197.456L378.279 200.544C377.46 201.363 377 202.474 377 203.632C377 204.791 377.46 205.902 378.279 206.721C379.098 207.54 380.209 208 381.368 208C382.526 208 383.637 207.54 384.456 206.721L386 205.177" stroke="black" stroke-width="2" stroke-linecap="round" stroke-linejoin="round"/>
<path d="M384.456 200.544C385.275 201.363 386.386 201.823 387.544 201.823C388.702 201.823 389.813 201.363 390.632 200.544L393.721 197.456C394.54 196.637 395 195.526 395 194.367C395 193.209 394.54 192.098 393.721 191.279C392.902 190.46 391.791 190 390.633 190C389.474 190 388.363 190.46 387.544 191.279L386 192.823" stroke="black" stroke-width="2" stroke-linecap="round" stroke-linejoin="round"/>
<path d="M310 199.114C310 186.356 303.355 182 292.348 182C281.341 182 275 186.356 275 199.114C275 211.753 281.234 216 292.556 216C303.878 216 310 211.737 310 199.114Z" fill="#D6D9E1"/>
<rect x="290.5" y="182" width="44" height="34" fill="#D6D9E1"/>
<path d="M351 199.114C351 186.356 344.355 182 333.348 182C322.341 182 316 186.356 316 199.114C316 211.753 322.234 216 333.556 216C344.878 216 351 211.737 351 199.114Z" fill="#D6D9E1"/>
<path d="M285.25 205C284.388 205 283.561 204.658 282.952 204.048C282.342 203.439 282 202.612 282 201.75V193.25C282 192.388 282.342 191.561 282.952 190.952C283.561 190.342 284.388 190 285.25 190H298.75C299.177 190 299.599 190.084 299.994 190.247C300.388 190.411 300.746 190.65 301.048 190.952C301.35 191.254 301.589 191.612 301.753 192.006C301.916 192.401 302 192.823 302 193.25V201.75C302 202.177 301.916 202.599 301.753 202.994C301.589 203.388 301.35 203.746 301.048 204.048C300.746 204.35 300.388 204.589 299.994 204.753C299.599 204.916 299.177 205 298.75 205H293.012L288 208.75C287.814 208.889 287.594 208.974 287.363 208.994C287.131 209.015 286.899 208.971 286.692 208.867C286.484 208.763 286.31 208.604 286.188 208.407C286.066 208.209 286.001 207.982 286.001 207.75V205H285.251H285.25ZM292.514 203.5H298.75C299.214 203.5 299.659 203.316 299.987 202.987C300.316 202.659 300.5 202.214 300.5 201.75V193.25C300.5 192.786 300.316 192.341 299.987 192.013C299.659 191.684 299.214 191.5 298.75 191.5H285.25C284.786 191.5 284.341 191.684 284.013 192.013C283.684 192.341 283.5 192.786 283.5 193.25V201.75C283.5 202.716 284.284 203.5 285.25 203.5H287.499V207.25L292.514 203.5Z" fill="black"/>
<path d="M317.244 196.38V204H318.372V195.324H315.42V196.38H317.244ZM325.779 203.988V202.896H321.771L323.571 201.336C325.107 200.004 325.719 199.128 325.719 197.892C325.719 196.224 324.603 195.168 322.863 195.168C321.099 195.168 319.923 196.38 319.887 198.24H321.063C321.087 197.004 321.783 196.224 322.851 196.224C323.895 196.224 324.519 196.872 324.519 197.964C324.519 198.888 324.123 199.476 322.719 200.688L319.923 203.1V204L325.779 203.988ZM329.392 199.512C330.772 199.512 331.492 200.208 331.492 201.252C331.492 202.368 330.76 203.088 329.632 203.088C328.54 203.088 327.844 202.428 327.844 201.3H326.68C326.68 203.1 327.904 204.144 329.608 204.144C331.372 204.144 332.692 203.028 332.692 201.276C332.692 199.716 331.576 198.72 330.1 198.54L332.476 196.272V195.324H327.088V196.368H330.988L328.528 198.732V199.512H329.392Z" fill="black"/>
<line x1="13" y1="227.5" x2="403" y2="227.5" stroke="#D6D9E1"/>
</svg>
