<svg width="35" height="30" viewBox="0 0 35 30" fill="none" xmlns="http://www.w3.org/2000/svg">
<path fill-rule="evenodd" clip-rule="evenodd" d="M33.343 19.0208C33.8953 19.0208 34.343 19.4685 34.343 20.0208V28.0595C34.343 28.6118 33.8953 29.0595 33.343 29.0595H1C0.447715 29.0595 0 28.6118 0 28.0595V20.0208C0 19.4685 0.447715 19.0208 1 19.0208H1.37759C1.92988 19.0208 2.37759 19.4685 2.37759 20.0208V25.6819C2.37759 26.2342 2.82531 26.6819 3.37759 26.6819H30.9654C31.5177 26.6819 31.9654 26.2342 31.9654 25.6819V20.0208C31.9654 19.4685 32.4131 19.0208 32.9654 19.0208H33.343Z" fill="#121419"/>
<path fill-rule="evenodd" clip-rule="evenodd" d="M23.8122 13.8533C24.2474 14.1933 24.3245 14.8218 23.9845 15.2569L17.8461 23.1133C17.4456 23.6258 16.6703 23.6257 16.27 23.1132L10.1337 15.2569C9.79383 14.8217 9.871 14.1934 10.3061 13.8534L10.6032 13.6212C11.0385 13.2812 11.667 13.3583 12.007 13.7936L14.0626 16.4252C14.648 17.1747 15.8506 16.7607 15.8506 15.8096V1C15.8506 0.447716 16.2983 0 16.8506 0H17.2282C17.7805 0 18.2282 0.447715 18.2282 1V15.8584C18.2282 16.8094 19.4305 17.2235 20.0161 16.4742L22.1114 13.7933C22.4515 13.3581 23.0799 13.2811 23.5151 13.6211L23.8122 13.8533Z" fill="#121419"/>
</svg>
