<svg width="87" height="87" viewBox="0 0 87 87" fill="none" xmlns="http://www.w3.org/2000/svg">
<path d="M81.7273 43.7389C81.7273 15.0685 67.2164 5.27273 43.165 5.27273C19.1136 5.27273 5.27273 15.0685 5.27273 43.7389C5.27273 72.1704 18.8867 81.7273 43.6188 81.7273C68.3509 81.7273 81.7273 72.1704 81.7273 43.7389Z" fill="#121419"/>
<path fill-rule="evenodd" clip-rule="evenodd" d="M75.0128 9.8534C83.155 17.2575 87 28.5801 87 43.7389C87 58.6729 83.4921 69.9109 75.5248 77.2686C67.6454 84.545 56.4906 87 43.6188 87C30.7453 87 19.5453 84.5443 11.6118 77.2849C3.57978 69.9354 0 58.6975 0 43.7389C0 28.6477 3.64209 17.3255 11.6028 9.89891C19.491 2.54002 30.5729 0 43.165 0C55.7604 0 66.9717 2.54122 75.0128 9.8534ZM43.165 5.27273C67.2164 5.27273 81.7273 15.0685 81.7273 43.7389C81.7273 72.1704 68.3509 81.7273 43.6188 81.7273C18.8867 81.7273 5.27273 72.1704 5.27273 43.7389C5.27273 15.0685 19.1136 5.27273 43.165 5.27273Z" fill="#F9F5EC"/>
</svg>
