<svg width="310" height="100" viewBox="0 0 310 100" fill="none" xmlns="http://www.w3.org/2000/svg">
<path d="M33.3194 81.0098C52.1727 81.0098 64.7416 71.9895 64.7416 59.0524V57.7468H46.9555V58.9337C46.9555 64.0373 43.2796 66.7672 32.7265 66.7672C21.2248 66.7672 16.9561 62.8505 16.4818 53.7114H64.8602C65.0973 51.6937 65.3345 50.1508 65.3345 48.0144C65.3345 29.3802 52.4099 19.173 32.9637 19.173C13.3989 19.173 0 31.1605 0 50.1507C0 71.2773 13.5175 81.0098 33.3194 81.0098ZM32.608 33.0596C43.0425 33.0596 47.7855 36.5015 48.2598 44.335H16.719C17.549 36.6202 22.0548 33.0596 32.608 33.0596Z" fill="#232630"/>
<path d="M102.876 81.0098C121.255 81.0098 132.283 73.6511 132.283 62.4944C132.283 52.6432 126.354 47.3022 110.465 45.5219L97.7775 43.9789C89.9516 43.0294 88.2916 41.7238 88.2916 38.6379C88.2916 34.8399 90.5445 33.2969 99.4376 33.2969C110.346 33.2969 112.718 35.7894 112.718 40.6556V41.3678H130.504V41.0117C130.504 26.5317 119.477 19.173 100.03 19.173C79.6357 19.173 70.7426 27.4812 70.7426 37.9258C70.7426 47.8957 77.3828 53.2367 89.2402 54.5422L105.959 56.5599C112.955 57.5095 114.734 58.459 114.734 61.7822C114.734 65.3429 112.481 66.8859 102.995 66.8859C92.916 66.8859 89.5959 65.4616 89.5959 60.1206V59.0524H71.8097V59.4085C71.8097 73.1763 82.8372 81.0098 102.876 81.0098Z" fill="#232630"/>
<path d="M157.245 100V63.7999H158.075C160.091 74.2446 167.68 81.0098 181.435 81.0098C199.339 81.0098 209.299 69.0223 209.299 50.1507C209.299 31.2792 199.102 19.173 180.842 19.173C166.85 19.173 159.261 25.2261 157.127 36.6202H155.941V20.3598H139.459V100H157.245ZM157.245 50.9816V50.0321C157.245 39.4688 163.174 35.552 174.676 35.552C185.94 35.552 191.276 39.2314 191.276 50.1507C191.276 60.9514 185.94 64.7495 174.557 64.7495C163.411 64.7495 157.245 61.1888 157.245 50.9816Z" fill="#232630"/>
<path d="M234.481 79.8229V20.3598H216.695V79.8229H234.481Z" fill="#232630"/>
<path d="M261.577 79.8229V49.7947C261.577 39.7061 265.608 35.196 276.873 35.196C287.782 35.196 291.695 39.2314 291.695 48.7265V79.8229H309.481V42.792C309.481 29.6176 301.774 19.173 285.529 19.173C269.996 19.173 262.881 28.6681 261.34 38.6379H260.273V20.3598H243.791V79.8229H261.577Z" fill="#232630"/>
<path d="M259.006 14.0053C259.006 14.0053 294.171 1.44241 309.481 1.44241V0L215.428 5.4607e-06V14.0053H259.006Z" fill="#DD5203"/>
<path d="M259.006 14.0053C259.006 14.0053 294.171 1.44241 309.481 1.44241V0L215.428 5.4607e-06V14.0053H259.006Z" fill="url(#paint0_linear_19_123)" fill-opacity="0.3"/>
<path d="M259.006 14.0053C259.006 14.0053 294.171 1.44241 309.481 1.44241V0L215.428 5.4607e-06V14.0053H259.006Z" fill="url(#paint1_linear_19_123)" fill-opacity="0.4"/>
<defs>
<linearGradient id="paint0_linear_19_123" x1="293.7" y1="4.6087" x2="237.138" y2="13.9657" gradientUnits="userSpaceOnUse">
<stop stop-color="#FF0000"/>
<stop offset="1" stop-color="#FF0000" stop-opacity="0"/>
</linearGradient>
<linearGradient id="paint1_linear_19_123" x1="218.564" y1="13.9657" x2="253.199" y2="6.98288" gradientUnits="userSpaceOnUse">
<stop stop-color="#FFA800"/>
<stop offset="1" stop-color="#FFA800" stop-opacity="0"/>
</linearGradient>
</defs>
</svg>
