<svg width="154" height="50" viewBox="0 0 154 50" fill="none" xmlns="http://www.w3.org/2000/svg">
<path d="M16.58 40.5049C25.9615 40.5049 32.2159 35.9947 32.2159 29.5262V28.8734H23.3654V29.4669C23.3654 32.0187 21.5363 33.3836 16.285 33.3836C10.5616 33.3836 8.4375 31.4252 8.20148 26.8557H32.2749C32.3929 25.8469 32.5109 25.0754 32.5109 24.0072C32.5109 14.6901 26.0795 9.58648 16.403 9.58648C6.66739 9.58648 0 15.5803 0 25.0754C0 35.6387 6.7264 40.5049 16.58 40.5049ZM16.226 16.5298C21.4183 16.5298 23.7784 18.2508 24.0144 22.1675H8.31949C8.73252 18.3101 10.9746 16.5298 16.226 16.5298Z" fill="#232630"/>
<path d="M51.192 40.5049C60.3375 40.5049 65.8248 36.8256 65.8248 31.2472C65.8248 26.3216 62.8747 23.6511 54.9682 22.7609L48.6548 21.9895C44.7606 21.5147 43.9345 20.8619 43.9345 19.319C43.9345 17.4199 45.0556 16.6485 49.4809 16.6485C54.9092 16.6485 56.0893 17.8947 56.0893 20.3278V20.6839H64.9398V20.5059C64.9398 13.2658 59.4525 9.58648 49.7759 9.58648C39.6273 9.58648 35.202 13.7406 35.202 18.9629C35.202 23.9478 38.5062 26.6183 44.4066 27.2711L52.7261 28.28C56.2073 28.7547 57.0923 29.2295 57.0923 30.8911C57.0923 32.6715 55.9713 33.4429 51.251 33.4429C46.2357 33.4429 44.5836 32.7308 44.5836 30.0603V29.5262H35.7331V29.7042C35.7331 36.5882 41.2204 40.5049 51.192 40.5049Z" fill="#232630"/>
<path d="M78.2465 50V31.9H78.6595C79.6625 37.1223 83.4388 40.5049 90.2832 40.5049C99.1927 40.5049 104.149 34.5111 104.149 25.0754C104.149 15.6396 99.0747 9.58648 89.9881 9.58648C83.0257 9.58648 79.2495 12.6131 78.1874 18.3101H77.5974V10.1799H69.3959V50H78.2465ZM78.2465 25.4908V25.016C78.2465 19.7344 81.1966 17.776 86.92 17.776C92.5253 17.776 95.1804 19.6157 95.1804 25.0754C95.1804 30.4757 92.5253 32.3747 86.861 32.3747C81.3146 32.3747 78.2465 30.5944 78.2465 25.4908Z" fill="#232630"/>
<path d="M116.679 39.9115V10.1799H107.829V39.9115H116.679Z" fill="#232630"/>
<path d="M130.163 39.9115V24.8973C130.163 19.8531 132.169 17.598 137.774 17.598C143.202 17.598 145.149 19.6157 145.149 24.3632V39.9115H154V21.396C154 14.8088 150.165 9.58648 142.081 9.58648C134.352 9.58648 130.812 14.334 130.045 19.319H129.514V10.1799H121.312V39.9115H130.163Z" fill="#232630"/>
<path d="M128.883 7.00265C128.883 7.00265 146.382 0.721203 154 0.721203V0L107.198 2.73035e-06V7.00265H128.883Z" fill="#232630"/>
</svg>
