<svg width="460" height="962" viewBox="0 0 460 962" fill="none" xmlns="http://www.w3.org/2000/svg">
<rect width="460" height="962" rx="6" fill="#121419"/>
<path d="M22.18 19.25H25.48V29H26.56V19.25H29.875V18.26H22.18V19.25ZM33.0684 29.18C34.7784 29.18 35.9034 28.355 36.2934 26.825H35.3034C35.0334 27.785 34.2684 28.295 33.0834 28.295C31.5234 28.295 30.5934 27.275 30.5184 25.505H36.2934V24.995C36.2934 22.94 34.9584 21.545 32.9934 21.545C30.9234 21.545 29.5134 23.105 29.5134 25.37C29.5134 27.65 30.9384 29.18 33.0684 29.18ZM32.9934 22.43C34.3584 22.43 35.2584 23.36 35.2584 24.755H30.5484C30.7284 23.33 31.6284 22.43 32.9934 22.43ZM37.9841 29L40.0091 26.09L42.0491 29H43.2791L40.7141 25.385L43.2941 21.74H42.0941L40.0541 24.65L37.9991 21.74H36.7841L39.3641 25.37L36.7691 29H37.9841ZM46.4833 29V22.61H47.9383V21.74H46.4833V19.445H45.4633V21.74H44.0083V22.61H45.4633V29H46.4833ZM53.9562 19.745C54.3762 19.745 54.7362 19.4 54.7362 18.98C54.7362 18.56 54.3762 18.2 53.9562 18.2C53.5362 18.2 53.1912 18.56 53.1912 18.98C53.1912 19.4 53.5362 19.745 53.9562 19.745ZM53.4462 29H54.4812V21.74H53.4462V29ZM57.6746 29V25.205C57.6746 23.57 58.5146 22.49 59.9996 22.49C61.1996 22.49 61.9646 23.09 61.9646 24.785V29H62.9996V24.56C62.9996 22.73 62.1746 21.545 60.1796 21.545C59.1296 21.545 58.1696 22.07 57.6896 23L57.5396 21.74H56.6396V29H57.6746ZM65.0624 32.165H66.0974V27.605C66.6074 28.655 67.5824 29.18 68.8124 29.18C70.9574 29.18 72.1724 27.53 72.1724 25.34C72.1724 23.15 70.9124 21.545 68.8124 21.545C67.5974 21.545 66.5774 22.085 66.0674 23.21L65.9624 21.74H65.0624V32.165ZM66.1124 25.37C66.1124 23.69 67.0424 22.49 68.6324 22.49C70.2074 22.49 71.1224 23.69 71.1224 25.37C71.1224 27.035 70.2074 28.25 68.6324 28.25C67.0424 28.25 66.1124 27.035 66.1124 25.37ZM78.7464 21.74V25.595C78.7464 27.32 77.9214 28.25 76.5264 28.25C75.3714 28.25 74.6064 27.635 74.6064 25.91V21.725H73.5564V26.24C73.5564 28.01 74.4864 29.18 76.1964 29.18C77.3364 29.18 78.3414 28.61 78.7464 27.77L78.8814 29H79.7814V21.74H78.7464ZM83.6024 29V22.61H85.0574V21.74H83.6024V19.445H82.5824V21.74H81.1274V22.61H82.5824V29H83.6024Z" fill="#FCFBF7"/>
<rect x="22.5" y="39.5" width="413" height="47" rx="2.5" fill="#232630" stroke="#B8BDCB"/>
<path d="M39.4 65.055C41.455 65.055 42.775 63.585 42.775 61.635C42.775 59.61 41.47 58.26 39.4 58.26H35.305V69H36.385V65.055H39.4ZM39.25 59.235C40.735 59.235 41.65 60.135 41.65 61.62C41.65 63.09 40.75 64.08 39.19 64.08H36.385V59.235H39.25ZM45.3739 69V58.065H44.3389V69H45.3739ZM49.6601 69.18C50.8901 69.18 51.8801 68.64 52.3301 67.725L52.4651 69H53.3351V64.305C53.3351 62.385 52.1051 61.545 50.4251 61.545C48.6401 61.545 47.4401 62.49 47.4401 63.96H48.3851C48.3851 62.985 49.1351 62.415 50.3951 62.415C51.4601 62.415 52.3151 62.865 52.3151 64.29V64.53L49.9151 64.725C48.2201 64.86 47.2001 65.7 47.2001 67.035C47.2001 68.31 48.1151 69.18 49.6601 69.18ZM49.9001 68.34C48.9101 68.34 48.2501 67.89 48.2501 67.005C48.2501 66.195 48.8051 65.595 50.1701 65.475L52.3151 65.31V65.7C52.3151 67.275 51.4301 68.34 49.9001 68.34ZM54.902 65.385C54.902 67.665 56.297 69.18 58.352 69.18C60.002 69.18 61.292 68.205 61.637 66.72H60.587C60.302 67.65 59.432 68.25 58.352 68.25C56.882 68.25 55.922 67.095 55.922 65.37C55.922 63.585 56.957 62.46 58.427 62.46C59.432 62.46 60.302 63.015 60.572 64.02H61.607C61.322 62.52 60.092 61.545 58.412 61.545C56.297 61.545 54.902 63.105 54.902 65.385ZM66.25 69.18C67.96 69.18 69.085 68.355 69.475 66.825H68.485C68.215 67.785 67.45 68.295 66.265 68.295C64.705 68.295 63.775 67.275 63.7 65.505H69.475V64.995C69.475 62.94 68.14 61.545 66.175 61.545C64.105 61.545 62.695 63.105 62.695 65.37C62.695 67.65 64.12 69.18 66.25 69.18ZM66.175 62.43C67.54 62.43 68.44 63.36 68.44 64.755H63.73C63.91 63.33 64.81 62.43 66.175 62.43ZM72.1648 68.985V65.04C72.1648 63.645 72.9748 62.49 74.5348 62.49C75.6598 62.49 76.4548 63.09 76.4548 64.785V69H77.4898V64.56C77.4898 62.73 76.6348 61.545 74.7298 61.545C73.5148 61.545 72.6298 62.13 72.1648 63V58.065H71.1298V68.985H72.1648ZM79.0427 65.37C79.0427 67.575 80.6027 69.18 82.7327 69.18C84.8627 69.18 86.4227 67.575 86.4227 65.37C86.4227 63.15 84.8627 61.545 82.7327 61.545C80.6027 61.545 79.0427 63.15 79.0427 65.37ZM80.0927 65.355C80.0927 63.675 81.1727 62.475 82.7327 62.475C84.2777 62.475 85.3727 63.675 85.3727 65.355C85.3727 67.065 84.2777 68.25 82.7327 68.25C81.1727 68.25 80.0927 67.065 80.0927 65.355ZM89.158 69V58.065H88.123V69H89.158ZM94.2093 69.18C95.4243 69.18 96.4443 68.64 96.9543 67.515L97.0593 69H97.9593V58.065H96.9243V63.12C96.4143 62.07 95.4543 61.545 94.2543 61.545C92.0943 61.545 90.8493 63.195 90.8493 65.385C90.8493 67.56 92.0943 69.18 94.2093 69.18ZM94.3893 68.235C92.8143 68.235 91.8993 67.035 91.8993 65.355C91.8993 63.69 92.8143 62.475 94.3893 62.475C95.9793 62.475 96.9093 63.69 96.9093 65.355C96.9093 67.035 95.9793 68.235 94.3893 68.235ZM103.164 69.18C104.874 69.18 105.999 68.355 106.389 66.825H105.399C105.129 67.785 104.364 68.295 103.179 68.295C101.619 68.295 100.689 67.275 100.614 65.505H106.389V64.995C106.389 62.94 105.054 61.545 103.089 61.545C101.019 61.545 99.6091 63.105 99.6091 65.37C99.6091 67.65 101.034 69.18 103.164 69.18ZM103.089 62.43C104.454 62.43 105.354 63.36 105.354 64.755H100.644C100.824 63.33 101.724 62.43 103.089 62.43ZM111.839 61.65C111.584 61.59 111.389 61.575 111.164 61.575C110.144 61.575 109.379 62.085 109.094 62.865L109.019 61.74H108.044V69H109.079V64.86C109.079 63.48 109.934 62.58 111.269 62.58H111.839V61.65Z" fill="#B8BDCB"/>
<path d="M22.18 251.25H25.48V261H26.56V251.25H29.875V250.26H22.18V251.25ZM33.0684 261.18C34.7784 261.18 35.9034 260.355 36.2934 258.825H35.3034C35.0334 259.785 34.2684 260.295 33.0834 260.295C31.5234 260.295 30.5934 259.275 30.5184 257.505H36.2934V256.995C36.2934 254.94 34.9584 253.545 32.9934 253.545C30.9234 253.545 29.5134 255.105 29.5134 257.37C29.5134 259.65 30.9384 261.18 33.0684 261.18ZM32.9934 254.43C34.3584 254.43 35.2584 255.36 35.2584 256.755H30.5484C30.7284 255.33 31.6284 254.43 32.9934 254.43ZM37.9841 261L40.0091 258.09L42.0491 261H43.2791L40.7141 257.385L43.2941 253.74H42.0941L40.0541 256.65L37.9991 253.74H36.7841L39.3641 257.37L36.7691 261H37.9841ZM46.4833 261V254.61H47.9383V253.74H46.4833V251.445H45.4633V253.74H44.0083V254.61H45.4633V261H46.4833ZM53.9562 251.745C54.3762 251.745 54.7362 251.4 54.7362 250.98C54.7362 250.56 54.3762 250.2 53.9562 250.2C53.5362 250.2 53.1912 250.56 53.1912 250.98C53.1912 251.4 53.5362 251.745 53.9562 251.745ZM53.4462 261H54.4812V253.74H53.4462V261ZM57.6746 261V257.205C57.6746 255.57 58.5146 254.49 59.9996 254.49C61.1996 254.49 61.9646 255.09 61.9646 256.785V261H62.9996V256.56C62.9996 254.73 62.1746 253.545 60.1796 253.545C59.1296 253.545 58.1696 254.07 57.6896 255L57.5396 253.74H56.6396V261H57.6746ZM65.0624 264.165H66.0974V259.605C66.6074 260.655 67.5824 261.18 68.8124 261.18C70.9574 261.18 72.1724 259.53 72.1724 257.34C72.1724 255.15 70.9124 253.545 68.8124 253.545C67.5974 253.545 66.5774 254.085 66.0674 255.21L65.9624 253.74H65.0624V264.165ZM66.1124 257.37C66.1124 255.69 67.0424 254.49 68.6324 254.49C70.2074 254.49 71.1224 255.69 71.1224 257.37C71.1224 259.035 70.2074 260.25 68.6324 260.25C67.0424 260.25 66.1124 259.035 66.1124 257.37ZM78.7464 253.74V257.595C78.7464 259.32 77.9214 260.25 76.5264 260.25C75.3714 260.25 74.6064 259.635 74.6064 257.91V253.725H73.5564V258.24C73.5564 260.01 74.4864 261.18 76.1964 261.18C77.3364 261.18 78.3414 260.61 78.7464 259.77L78.8814 261H79.7814V253.74H78.7464ZM83.6024 261V254.61H85.0574V253.74H83.6024V251.445H82.5824V253.74H81.1274V254.61H82.5824V261H83.6024Z" fill="#FCFBF7"/>
<rect x="22.5" y="271.5" width="413" height="47" rx="2.5" fill="#232630" stroke="#B8BDCB"/>
<path d="M39.4 297.055C41.455 297.055 42.775 295.585 42.775 293.635C42.775 291.61 41.47 290.26 39.4 290.26H35.305V301H36.385V297.055H39.4ZM39.25 291.235C40.735 291.235 41.65 292.135 41.65 293.62C41.65 295.09 40.75 296.08 39.19 296.08H36.385V291.235H39.25ZM45.3739 301V290.065H44.3389V301H45.3739ZM49.6601 301.18C50.8901 301.18 51.8801 300.64 52.3301 299.725L52.4651 301H53.3351V296.305C53.3351 294.385 52.1051 293.545 50.4251 293.545C48.6401 293.545 47.4401 294.49 47.4401 295.96H48.3851C48.3851 294.985 49.1351 294.415 50.3951 294.415C51.4601 294.415 52.3151 294.865 52.3151 296.29V296.53L49.9151 296.725C48.2201 296.86 47.2001 297.7 47.2001 299.035C47.2001 300.31 48.1151 301.18 49.6601 301.18ZM49.9001 300.34C48.9101 300.34 48.2501 299.89 48.2501 299.005C48.2501 298.195 48.8051 297.595 50.1701 297.475L52.3151 297.31V297.7C52.3151 299.275 51.4301 300.34 49.9001 300.34ZM54.902 297.385C54.902 299.665 56.297 301.18 58.352 301.18C60.002 301.18 61.292 300.205 61.637 298.72H60.587C60.302 299.65 59.432 300.25 58.352 300.25C56.882 300.25 55.922 299.095 55.922 297.37C55.922 295.585 56.957 294.46 58.427 294.46C59.432 294.46 60.302 295.015 60.572 296.02H61.607C61.322 294.52 60.092 293.545 58.412 293.545C56.297 293.545 54.902 295.105 54.902 297.385ZM66.25 301.18C67.96 301.18 69.085 300.355 69.475 298.825H68.485C68.215 299.785 67.45 300.295 66.265 300.295C64.705 300.295 63.775 299.275 63.7 297.505H69.475V296.995C69.475 294.94 68.14 293.545 66.175 293.545C64.105 293.545 62.695 295.105 62.695 297.37C62.695 299.65 64.12 301.18 66.25 301.18ZM66.175 294.43C67.54 294.43 68.44 295.36 68.44 296.755H63.73C63.91 295.33 64.81 294.43 66.175 294.43ZM72.1648 300.985V297.04C72.1648 295.645 72.9748 294.49 74.5348 294.49C75.6598 294.49 76.4548 295.09 76.4548 296.785V301H77.4898V296.56C77.4898 294.73 76.6348 293.545 74.7298 293.545C73.5148 293.545 72.6298 294.13 72.1648 295V290.065H71.1298V300.985H72.1648ZM79.0427 297.37C79.0427 299.575 80.6027 301.18 82.7327 301.18C84.8627 301.18 86.4227 299.575 86.4227 297.37C86.4227 295.15 84.8627 293.545 82.7327 293.545C80.6027 293.545 79.0427 295.15 79.0427 297.37ZM80.0927 297.355C80.0927 295.675 81.1727 294.475 82.7327 294.475C84.2777 294.475 85.3727 295.675 85.3727 297.355C85.3727 299.065 84.2777 300.25 82.7327 300.25C81.1727 300.25 80.0927 299.065 80.0927 297.355ZM89.158 301V290.065H88.123V301H89.158ZM94.2093 301.18C95.4243 301.18 96.4443 300.64 96.9543 299.515L97.0593 301H97.9593V290.065H96.9243V295.12C96.4143 294.07 95.4543 293.545 94.2543 293.545C92.0943 293.545 90.8493 295.195 90.8493 297.385C90.8493 299.56 92.0943 301.18 94.2093 301.18ZM94.3893 300.235C92.8143 300.235 91.8993 299.035 91.8993 297.355C91.8993 295.69 92.8143 294.475 94.3893 294.475C95.9793 294.475 96.9093 295.69 96.9093 297.355C96.9093 299.035 95.9793 300.235 94.3893 300.235ZM103.164 301.18C104.874 301.18 105.999 300.355 106.389 298.825H105.399C105.129 299.785 104.364 300.295 103.179 300.295C101.619 300.295 100.689 299.275 100.614 297.505H106.389V296.995C106.389 294.94 105.054 293.545 103.089 293.545C101.019 293.545 99.6091 295.105 99.6091 297.37C99.6091 299.65 101.034 301.18 103.164 301.18ZM103.089 294.43C104.454 294.43 105.354 295.36 105.354 296.755H100.644C100.824 295.33 101.724 294.43 103.089 294.43ZM111.839 293.65C111.584 293.59 111.389 293.575 111.164 293.575C110.144 293.575 109.379 294.085 109.094 294.865L109.019 293.74H108.044V301H109.079V296.86C109.079 295.48 109.934 294.58 111.269 294.58H111.839V293.65Z" fill="#B8BDCB"/>
<path fill-rule="evenodd" clip-rule="evenodd" d="M411.051 304L398 287.177L399.475 286L411.051 300.919L422.625 286L424.1 287.177L411.051 304Z" fill="#B8BDCB"/>
<line x1="387.5" y1="272" x2="387.5" y2="318" stroke="#636D87"/>
<path d="M22.18 113.25H25.48V123H26.56V113.25H29.875V112.26H22.18V113.25ZM33.0684 123.18C34.7784 123.18 35.9034 122.355 36.2934 120.825H35.3034C35.0334 121.785 34.2684 122.295 33.0834 122.295C31.5234 122.295 30.5934 121.275 30.5184 119.505H36.2934V118.995C36.2934 116.94 34.9584 115.545 32.9934 115.545C30.9234 115.545 29.5134 117.105 29.5134 119.37C29.5134 121.65 30.9384 123.18 33.0684 123.18ZM32.9934 116.43C34.3584 116.43 35.2584 117.36 35.2584 118.755H30.5484C30.7284 117.33 31.6284 116.43 32.9934 116.43ZM37.9841 123L40.0091 120.09L42.0491 123H43.2791L40.7141 119.385L43.2941 115.74H42.0941L40.0541 118.65L37.9991 115.74H36.7841L39.3641 119.37L36.7691 123H37.9841ZM46.4833 123V116.61H47.9383V115.74H46.4833V113.445H45.4633V115.74H44.0083V116.61H45.4633V123H46.4833ZM53.9562 113.745C54.3762 113.745 54.7362 113.4 54.7362 112.98C54.7362 112.56 54.3762 112.2 53.9562 112.2C53.5362 112.2 53.1912 112.56 53.1912 112.98C53.1912 113.4 53.5362 113.745 53.9562 113.745ZM53.4462 123H54.4812V115.74H53.4462V123ZM57.6746 123V119.205C57.6746 117.57 58.5146 116.49 59.9996 116.49C61.1996 116.49 61.9646 117.09 61.9646 118.785V123H62.9996V118.56C62.9996 116.73 62.1746 115.545 60.1796 115.545C59.1296 115.545 58.1696 116.07 57.6896 117L57.5396 115.74H56.6396V123H57.6746ZM65.0624 126.165H66.0974V121.605C66.6074 122.655 67.5824 123.18 68.8124 123.18C70.9574 123.18 72.1724 121.53 72.1724 119.34C72.1724 117.15 70.9124 115.545 68.8124 115.545C67.5974 115.545 66.5774 116.085 66.0674 117.21L65.9624 115.74H65.0624V126.165ZM66.1124 119.37C66.1124 117.69 67.0424 116.49 68.6324 116.49C70.2074 116.49 71.1224 117.69 71.1224 119.37C71.1224 121.035 70.2074 122.25 68.6324 122.25C67.0424 122.25 66.1124 121.035 66.1124 119.37ZM78.7464 115.74V119.595C78.7464 121.32 77.9214 122.25 76.5264 122.25C75.3714 122.25 74.6064 121.635 74.6064 119.91V115.725H73.5564V120.24C73.5564 122.01 74.4864 123.18 76.1964 123.18C77.3364 123.18 78.3414 122.61 78.7464 121.77L78.8814 123H79.7814V115.74H78.7464ZM83.6024 123V116.61H85.0574V115.74H83.6024V113.445H82.5824V115.74H81.1274V116.61H82.5824V123H83.6024Z" fill="#FCFBF7"/>
<rect x="22.5" y="133.5" width="413" height="47" rx="2.5" fill="#232630" stroke="#FE450A"/>
<path d="M39.4 159.055C41.455 159.055 42.775 157.585 42.775 155.635C42.775 153.61 41.47 152.26 39.4 152.26H35.305V163H36.385V159.055H39.4ZM39.25 153.235C40.735 153.235 41.65 154.135 41.65 155.62C41.65 157.09 40.75 158.08 39.19 158.08H36.385V153.235H39.25ZM45.3739 163V152.065H44.3389V163H45.3739ZM49.6601 163.18C50.8901 163.18 51.8801 162.64 52.3301 161.725L52.4651 163H53.3351V158.305C53.3351 156.385 52.1051 155.545 50.4251 155.545C48.6401 155.545 47.4401 156.49 47.4401 157.96H48.3851C48.3851 156.985 49.1351 156.415 50.3951 156.415C51.4601 156.415 52.3151 156.865 52.3151 158.29V158.53L49.9151 158.725C48.2201 158.86 47.2001 159.7 47.2001 161.035C47.2001 162.31 48.1151 163.18 49.6601 163.18ZM49.9001 162.34C48.9101 162.34 48.2501 161.89 48.2501 161.005C48.2501 160.195 48.8051 159.595 50.1701 159.475L52.3151 159.31V159.7C52.3151 161.275 51.4301 162.34 49.9001 162.34ZM54.902 159.385C54.902 161.665 56.297 163.18 58.352 163.18C60.002 163.18 61.292 162.205 61.637 160.72H60.587C60.302 161.65 59.432 162.25 58.352 162.25C56.882 162.25 55.922 161.095 55.922 159.37C55.922 157.585 56.957 156.46 58.427 156.46C59.432 156.46 60.302 157.015 60.572 158.02H61.607C61.322 156.52 60.092 155.545 58.412 155.545C56.297 155.545 54.902 157.105 54.902 159.385ZM66.25 163.18C67.96 163.18 69.085 162.355 69.475 160.825H68.485C68.215 161.785 67.45 162.295 66.265 162.295C64.705 162.295 63.775 161.275 63.7 159.505H69.475V158.995C69.475 156.94 68.14 155.545 66.175 155.545C64.105 155.545 62.695 157.105 62.695 159.37C62.695 161.65 64.12 163.18 66.25 163.18ZM66.175 156.43C67.54 156.43 68.44 157.36 68.44 158.755H63.73C63.91 157.33 64.81 156.43 66.175 156.43ZM72.1648 162.985V159.04C72.1648 157.645 72.9748 156.49 74.5348 156.49C75.6598 156.49 76.4548 157.09 76.4548 158.785V163H77.4898V158.56C77.4898 156.73 76.6348 155.545 74.7298 155.545C73.5148 155.545 72.6298 156.13 72.1648 157V152.065H71.1298V162.985H72.1648ZM79.0427 159.37C79.0427 161.575 80.6027 163.18 82.7327 163.18C84.8627 163.18 86.4227 161.575 86.4227 159.37C86.4227 157.15 84.8627 155.545 82.7327 155.545C80.6027 155.545 79.0427 157.15 79.0427 159.37ZM80.0927 159.355C80.0927 157.675 81.1727 156.475 82.7327 156.475C84.2777 156.475 85.3727 157.675 85.3727 159.355C85.3727 161.065 84.2777 162.25 82.7327 162.25C81.1727 162.25 80.0927 161.065 80.0927 159.355ZM89.158 163V152.065H88.123V163H89.158ZM94.2093 163.18C95.4243 163.18 96.4443 162.64 96.9543 161.515L97.0593 163H97.9593V152.065H96.9243V157.12C96.4143 156.07 95.4543 155.545 94.2543 155.545C92.0943 155.545 90.8493 157.195 90.8493 159.385C90.8493 161.56 92.0943 163.18 94.2093 163.18ZM94.3893 162.235C92.8143 162.235 91.8993 161.035 91.8993 159.355C91.8993 157.69 92.8143 156.475 94.3893 156.475C95.9793 156.475 96.9093 157.69 96.9093 159.355C96.9093 161.035 95.9793 162.235 94.3893 162.235ZM103.164 163.18C104.874 163.18 105.999 162.355 106.389 160.825H105.399C105.129 161.785 104.364 162.295 103.179 162.295C101.619 162.295 100.689 161.275 100.614 159.505H106.389V158.995C106.389 156.94 105.054 155.545 103.089 155.545C101.019 155.545 99.6091 157.105 99.6091 159.37C99.6091 161.65 101.034 163.18 103.164 163.18ZM103.089 156.43C104.454 156.43 105.354 157.36 105.354 158.755H100.644C100.824 157.33 101.724 156.43 103.089 156.43ZM111.839 155.65C111.584 155.59 111.389 155.575 111.164 155.575C110.144 155.575 109.379 156.085 109.094 156.865L109.019 155.74H108.044V163H109.079V158.86C109.079 157.48 109.934 156.58 111.269 156.58H111.839V155.65Z" fill="#B8BDCB"/>
<path fill-rule="evenodd" clip-rule="evenodd" d="M403.643 164.856C405.278 166.289 407.842 167.037 411.557 167.037C415.272 167.037 417.769 166.295 419.345 164.877C420.873 163.499 421.925 161.126 421.925 156.927C421.925 152.761 420.892 150.438 419.367 149.092C417.788 147.698 415.257 146.97 411.409 146.97C407.561 146.97 405.055 147.692 403.497 149.081C401.988 150.423 400.971 152.746 400.971 156.92C400.971 161.095 402.063 163.477 403.643 164.856ZM411.557 169C403.73 168.993 399.007 165.918 399.007 156.92C399.007 147.99 403.372 145 411.409 145C419.445 145 423.889 147.99 423.889 156.92C423.889 165.918 419.384 168.993 411.557 168.993V169Z" fill="#FE450A"/>
<path d="M413.12 158.678C413.12 157.37 413.631 152.804 413.631 151.31V149.954H408.829V151.31C408.829 152.804 409.34 157.37 409.34 158.678H413.12ZM413.194 163.041V159.551H409.047V163.041H413.194Z" fill="#FE450A"/>
<path d="M34.18 199.25H37.48V209H38.56V199.25H41.875V198.26H34.18V199.25ZM44.1716 208.985V205.04C44.1716 203.645 44.9816 202.49 46.5416 202.49C47.6666 202.49 48.4616 203.09 48.4616 204.785V209H49.4966V204.56C49.4966 202.73 48.6416 201.545 46.7366 201.545C45.5216 201.545 44.6366 202.13 44.1716 203V198.065H43.1366V208.985H44.1716ZM52.0695 199.745C52.4895 199.745 52.8495 199.4 52.8495 198.98C52.8495 198.56 52.4895 198.2 52.0695 198.2C51.6495 198.2 51.3045 198.56 51.3045 198.98C51.3045 199.4 51.6495 199.745 52.0695 199.745ZM51.5595 209H52.5945V201.74H51.5595V209ZM54.1379 206.96C54.1379 208.31 55.1579 209.18 56.7929 209.18C58.4429 209.18 59.5529 208.325 59.5529 207.02C59.5529 205.97 58.9829 205.385 57.7229 205.07L56.4779 204.755C55.6829 204.56 55.2929 204.17 55.2929 203.615C55.2929 202.835 55.8629 202.4 56.8829 202.4C57.8579 202.4 58.4429 202.895 58.4729 203.735H59.4779C59.4329 202.385 58.4429 201.545 56.9129 201.545C55.3529 201.545 54.2879 202.355 54.2879 203.63C54.2879 204.62 54.9029 205.28 56.1629 205.595L57.4079 205.91C58.2629 206.12 58.5629 206.465 58.5629 207.065C58.5629 207.845 57.9029 208.325 56.7779 208.325C55.7579 208.325 55.1279 207.8 55.1279 206.96H54.1379ZM65.9269 199.745C66.3469 199.745 66.7069 199.4 66.7069 198.98C66.7069 198.56 66.3469 198.2 65.9269 198.2C65.5069 198.2 65.1619 198.56 65.1619 198.98C65.1619 199.4 65.5069 199.745 65.9269 199.745ZM65.4169 209H66.4519V201.74H65.4169V209ZM67.9953 206.96C67.9953 208.31 69.0153 209.18 70.6503 209.18C72.3003 209.18 73.4103 208.325 73.4103 207.02C73.4103 205.97 72.8403 205.385 71.5803 205.07L70.3353 204.755C69.5403 204.56 69.1503 204.17 69.1503 203.615C69.1503 202.835 69.7203 202.4 70.7403 202.4C71.7153 202.4 72.3003 202.895 72.3303 203.735H73.3353C73.2903 202.385 72.3003 201.545 70.7703 201.545C69.2103 201.545 68.1453 202.355 68.1453 203.63C68.1453 204.62 68.7603 205.28 70.0203 205.595L71.2653 205.91C72.1203 206.12 72.4203 206.465 72.4203 207.065C72.4203 207.845 71.7603 208.325 70.6353 208.325C69.6153 208.325 68.9853 207.8 68.9853 206.96H67.9953ZM81.3593 209.18C82.5893 209.18 83.5793 208.64 84.0293 207.725L84.1643 209H85.0343V204.305C85.0343 202.385 83.8043 201.545 82.1243 201.545C80.3393 201.545 79.1393 202.49 79.1393 203.96H80.0843C80.0843 202.985 80.8343 202.415 82.0943 202.415C83.1593 202.415 84.0143 202.865 84.0143 204.29V204.53L81.6143 204.725C79.9193 204.86 78.8993 205.7 78.8993 207.035C78.8993 208.31 79.8143 209.18 81.3593 209.18ZM81.5993 208.34C80.6093 208.34 79.9493 207.89 79.9493 207.005C79.9493 206.195 80.5043 205.595 81.8693 205.475L84.0143 205.31V205.7C84.0143 207.275 83.1293 208.34 81.5993 208.34ZM88.1463 209V205.205C88.1463 203.57 88.9863 202.49 90.4713 202.49C91.6713 202.49 92.4363 203.09 92.4363 204.785V209H93.4713V204.56C93.4713 202.73 92.6463 201.545 90.6513 201.545C89.6013 201.545 88.6413 202.07 88.1613 203L88.0112 201.74H87.1113V209H88.1463ZM102.739 209.18C104.449 209.18 105.574 208.355 105.964 206.825H104.974C104.704 207.785 103.939 208.295 102.754 208.295C101.194 208.295 100.264 207.275 100.189 205.505H105.964V204.995C105.964 202.94 104.629 201.545 102.664 201.545C100.594 201.545 99.1843 203.105 99.1843 205.37C99.1843 207.65 100.609 209.18 102.739 209.18ZM102.664 202.43C104.029 202.43 104.929 203.36 104.929 204.755H100.219C100.399 203.33 101.299 202.43 102.664 202.43ZM111.414 201.65C111.159 201.59 110.964 201.575 110.739 201.575C109.719 201.575 108.954 202.085 108.669 202.865L108.594 201.74H107.619V209H108.654V204.86C108.654 203.48 109.509 202.58 110.844 202.58H111.414V201.65ZM116.585 201.65C116.33 201.59 116.135 201.575 115.91 201.575C114.89 201.575 114.125 202.085 113.84 202.865L113.765 201.74H112.79V209H113.825V204.86C113.825 203.48 114.68 202.58 116.015 202.58H116.585V201.65ZM117.173 205.37C117.173 207.575 118.733 209.18 120.863 209.18C122.993 209.18 124.553 207.575 124.553 205.37C124.553 203.15 122.993 201.545 120.863 201.545C118.733 201.545 117.173 203.15 117.173 205.37ZM118.223 205.355C118.223 203.675 119.303 202.475 120.863 202.475C122.408 202.475 123.503 203.675 123.503 205.355C123.503 207.065 122.408 208.25 120.863 208.25C119.303 208.25 118.223 207.065 118.223 205.355ZM130.003 201.65C129.748 201.59 129.553 201.575 129.328 201.575C128.308 201.575 127.543 202.085 127.258 202.865L127.183 201.74H126.208V209H127.243V204.86C127.243 203.48 128.098 202.58 129.433 202.58H130.003V201.65ZM136.574 209V204.5C136.574 203.39 137.309 202.49 138.524 202.49C139.619 202.49 140.324 203.21 140.324 204.44V209H141.344V204.515C141.344 203.39 142.064 202.475 143.279 202.475C144.389 202.475 145.079 203.21 145.079 204.455V209H146.084V204.245C146.084 202.565 145.049 201.545 143.474 201.545C142.304 201.545 141.419 202.145 141.089 203.09C140.744 202.145 139.889 201.545 138.749 201.545C137.729 201.545 136.919 202.01 136.559 202.775L136.439 201.74H135.539V209H136.574ZM151.211 209.18C152.921 209.18 154.046 208.355 154.436 206.825H153.446C153.176 207.785 152.411 208.295 151.226 208.295C149.666 208.295 148.736 207.275 148.661 205.505H154.436V204.995C154.436 202.94 153.101 201.545 151.136 201.545C149.066 201.545 147.656 203.105 147.656 205.37C147.656 207.65 149.081 209.18 151.211 209.18ZM151.136 202.43C152.501 202.43 153.401 203.36 153.401 204.755H148.691C148.871 203.33 149.771 202.43 151.136 202.43ZM155.476 206.96C155.476 208.31 156.496 209.18 158.131 209.18C159.781 209.18 160.891 208.325 160.891 207.02C160.891 205.97 160.321 205.385 159.061 205.07L157.816 204.755C157.021 204.56 156.631 204.17 156.631 203.615C156.631 202.835 157.201 202.4 158.221 202.4C159.196 202.4 159.781 202.895 159.811 203.735H160.816C160.771 202.385 159.781 201.545 158.251 201.545C156.691 201.545 155.626 202.355 155.626 203.63C155.626 204.62 156.241 205.28 157.501 205.595L158.746 205.91C159.601 206.12 159.901 206.465 159.901 207.065C159.901 207.845 159.241 208.325 158.116 208.325C157.096 208.325 156.466 207.8 156.466 206.96H155.476ZM161.98 206.96C161.98 208.31 163 209.18 164.635 209.18C166.285 209.18 167.395 208.325 167.395 207.02C167.395 205.97 166.825 205.385 165.565 205.07L164.32 204.755C163.525 204.56 163.135 204.17 163.135 203.615C163.135 202.835 163.705 202.4 164.725 202.4C165.7 202.4 166.285 202.895 166.315 203.735H167.32C167.275 202.385 166.285 201.545 164.755 201.545C163.195 201.545 162.13 202.355 162.13 203.63C162.13 204.62 162.745 205.28 164.005 205.595L165.25 205.91C166.105 206.12 166.405 206.465 166.405 207.065C166.405 207.845 165.745 208.325 164.62 208.325C163.6 208.325 162.97 207.8 162.97 206.96H161.98ZM171.184 209.18C172.414 209.18 173.404 208.64 173.854 207.725L173.989 209H174.859V204.305C174.859 202.385 173.629 201.545 171.949 201.545C170.164 201.545 168.964 202.49 168.964 203.96H169.909C169.909 202.985 170.659 202.415 171.919 202.415C172.984 202.415 173.839 202.865 173.839 204.29V204.53L171.439 204.725C169.744 204.86 168.724 205.7 168.724 207.035C168.724 208.31 169.639 209.18 171.184 209.18ZM171.424 208.34C170.434 208.34 169.774 207.89 169.774 207.005C169.774 206.195 170.329 205.595 171.694 205.475L173.839 205.31V205.7C173.839 207.275 172.954 208.34 171.424 208.34ZM176.44 205.16C176.44 207.14 177.7 208.775 179.77 208.775C181.015 208.775 182.02 208.175 182.515 207.155V208.88C182.515 210.395 181.525 211.4 180.04 211.4C178.735 211.4 177.835 210.71 177.61 209.54H176.575C176.86 211.295 178.165 212.345 180.025 212.345C182.155 212.345 183.535 210.935 183.535 208.775V201.74H182.635L182.53 203.195C182.065 202.13 181.105 201.545 179.845 201.545C177.715 201.545 176.44 203.18 176.44 205.16ZM177.475 205.145C177.475 203.675 178.375 202.46 179.935 202.46C181.525 202.46 182.425 203.6 182.425 205.145C182.425 206.705 181.495 207.845 179.92 207.845C178.39 207.845 177.475 206.63 177.475 205.145ZM188.74 209.18C190.45 209.18 191.575 208.355 191.965 206.825H190.975C190.705 207.785 189.94 208.295 188.755 208.295C187.195 208.295 186.265 207.275 186.19 205.505H191.965V204.995C191.965 202.94 190.63 201.545 188.665 201.545C186.595 201.545 185.185 203.105 185.185 205.37C185.185 207.65 186.61 209.18 188.74 209.18ZM188.665 202.43C190.03 202.43 190.93 203.36 190.93 204.755H186.22C186.4 203.33 187.3 202.43 188.665 202.43ZM194.051 209.165C194.561 209.165 194.996 208.745 194.996 208.25C194.996 207.74 194.561 207.305 194.051 207.305C193.541 207.305 193.106 207.74 193.106 208.25C193.106 208.745 193.541 209.165 194.051 209.165Z" fill="#FE450A"/>
<line x1="387.5" y1="134" x2="387.5" y2="180" stroke="#636D87"/>
<rect x="22.5" y="339.5" width="412.885" height="47" rx="2.5" fill="#232630" stroke="#B8BDCB"/>
<path d="M39.4 365.055C41.455 365.055 42.775 363.585 42.775 361.635C42.775 359.61 41.47 358.26 39.4 358.26H35.305V369H36.385V365.055H39.4ZM39.25 359.235C40.735 359.235 41.65 360.135 41.65 361.62C41.65 363.09 40.75 364.08 39.19 364.08H36.385V359.235H39.25ZM45.3739 369V358.065H44.3389V369H45.3739ZM49.6601 369.18C50.8901 369.18 51.8801 368.64 52.3301 367.725L52.4651 369H53.3351V364.305C53.3351 362.385 52.1051 361.545 50.4251 361.545C48.6401 361.545 47.4401 362.49 47.4401 363.96H48.3851C48.3851 362.985 49.1351 362.415 50.3951 362.415C51.4601 362.415 52.3151 362.865 52.3151 364.29V364.53L49.9151 364.725C48.2201 364.86 47.2001 365.7 47.2001 367.035C47.2001 368.31 48.1151 369.18 49.6601 369.18ZM49.9001 368.34C48.9101 368.34 48.2501 367.89 48.2501 367.005C48.2501 366.195 48.8051 365.595 50.1701 365.475L52.3151 365.31V365.7C52.3151 367.275 51.4301 368.34 49.9001 368.34ZM54.902 365.385C54.902 367.665 56.297 369.18 58.352 369.18C60.002 369.18 61.292 368.205 61.637 366.72H60.587C60.302 367.65 59.432 368.25 58.352 368.25C56.882 368.25 55.922 367.095 55.922 365.37C55.922 363.585 56.957 362.46 58.427 362.46C59.432 362.46 60.302 363.015 60.572 364.02H61.607C61.322 362.52 60.092 361.545 58.412 361.545C56.297 361.545 54.902 363.105 54.902 365.385ZM66.25 369.18C67.96 369.18 69.085 368.355 69.475 366.825H68.485C68.215 367.785 67.45 368.295 66.265 368.295C64.705 368.295 63.775 367.275 63.7 365.505H69.475V364.995C69.475 362.94 68.14 361.545 66.175 361.545C64.105 361.545 62.695 363.105 62.695 365.37C62.695 367.65 64.12 369.18 66.25 369.18ZM66.175 362.43C67.54 362.43 68.44 363.36 68.44 364.755H63.73C63.91 363.33 64.81 362.43 66.175 362.43ZM72.1648 368.985V365.04C72.1648 363.645 72.9748 362.49 74.5348 362.49C75.6598 362.49 76.4548 363.09 76.4548 364.785V369H77.4898V364.56C77.4898 362.73 76.6348 361.545 74.7298 361.545C73.5148 361.545 72.6298 362.13 72.1648 363V358.065H71.1298V368.985H72.1648ZM79.0427 365.37C79.0427 367.575 80.6027 369.18 82.7327 369.18C84.8627 369.18 86.4227 367.575 86.4227 365.37C86.4227 363.15 84.8627 361.545 82.7327 361.545C80.6027 361.545 79.0427 363.15 79.0427 365.37ZM80.0927 365.355C80.0927 363.675 81.1727 362.475 82.7327 362.475C84.2777 362.475 85.3727 363.675 85.3727 365.355C85.3727 367.065 84.2777 368.25 82.7327 368.25C81.1727 368.25 80.0927 367.065 80.0927 365.355ZM89.158 369V358.065H88.123V369H89.158ZM94.2093 369.18C95.4243 369.18 96.4443 368.64 96.9543 367.515L97.0593 369H97.9593V358.065H96.9243V363.12C96.4143 362.07 95.4543 361.545 94.2543 361.545C92.0943 361.545 90.8493 363.195 90.8493 365.385C90.8493 367.56 92.0943 369.18 94.2093 369.18ZM94.3893 368.235C92.8143 368.235 91.8993 367.035 91.8993 365.355C91.8993 363.69 92.8143 362.475 94.3893 362.475C95.9793 362.475 96.9093 363.69 96.9093 365.355C96.9093 367.035 95.9793 368.235 94.3893 368.235ZM103.164 369.18C104.874 369.18 105.999 368.355 106.389 366.825H105.399C105.129 367.785 104.364 368.295 103.179 368.295C101.619 368.295 100.689 367.275 100.614 365.505H106.389V364.995C106.389 362.94 105.054 361.545 103.089 361.545C101.019 361.545 99.6091 363.105 99.6091 365.37C99.6091 367.65 101.034 369.18 103.164 369.18ZM103.089 362.43C104.454 362.43 105.354 363.36 105.354 364.755H100.644C100.824 363.33 101.724 362.43 103.089 362.43ZM111.839 361.65C111.584 361.59 111.389 361.575 111.164 361.575C110.144 361.575 109.379 362.085 109.094 362.865L109.019 361.74H108.044V369H109.079V364.86C109.079 363.48 109.934 362.58 111.269 362.58H111.839V361.65Z" fill="#B8BDCB"/>
<path fill-rule="evenodd" clip-rule="evenodd" d="M418.66 366.673C419.812 365.208 420.426 363.106 420.426 360.214C420.426 353.318 416.967 351 410.682 351C404.397 351 401 353.318 401 360.214C401 367.168 404.687 369.543 410.799 369.543C413.448 369.543 415.603 369.102 417.201 368.026L422.499 375L424.079 373.799L418.66 366.673ZM404.909 365.985C403.812 365.033 402.987 363.362 402.987 360.214C402.987 357.066 403.762 355.426 404.799 354.512C405.892 353.547 407.715 352.987 410.682 352.987C413.649 352.987 415.494 353.547 416.605 354.517C417.656 355.435 418.439 357.071 418.439 360.214C418.439 363.358 417.642 365.06 416.583 366.011C415.479 366.998 413.658 367.556 410.799 367.556C407.94 367.556 406.077 366.989 404.909 365.985Z" fill="#B8BDCB"/>
<line x1="387.5" y1="340" x2="387.5" y2="386" stroke="#636D87"/>
<rect x="22.5" y="407.5" width="412.885" height="47" rx="2.5" fill="#232630" stroke="#B8BDCB"/>
<path d="M39.685 437.165C41.995 437.165 43.87 435.8 44.365 433.775H43.21C42.745 435.215 41.395 436.13 39.7 436.13C37.345 436.13 35.77 434.33 35.77 431.63C35.77 428.915 37.345 427.115 39.7 427.115C41.38 427.115 42.7 428.06 43.15 429.605H44.305C43.87 427.475 42.055 426.08 39.745 426.08C36.715 426.08 34.645 428.33 34.645 431.63C34.645 434.93 36.685 437.165 39.685 437.165ZM46.9695 436.985V433.04C46.9695 431.645 47.7795 430.49 49.3395 430.49C50.4645 430.49 51.2595 431.09 51.2595 432.785V437H52.2945V432.56C52.2945 430.73 51.4395 429.545 49.5345 429.545C48.3195 429.545 47.4345 430.13 46.9695 431V426.065H45.9345V436.985H46.9695ZM56.4423 437.18C57.6723 437.18 58.6623 436.64 59.1123 435.725L59.2473 437H60.1173V432.305C60.1173 430.385 58.8873 429.545 57.2073 429.545C55.4223 429.545 54.2223 430.49 54.2223 431.96H55.1673C55.1673 430.985 55.9173 430.415 57.1773 430.415C58.2423 430.415 59.0973 430.865 59.0973 432.29V432.53L56.6973 432.725C55.0023 432.86 53.9823 433.7 53.9823 435.035C53.9823 436.31 54.8973 437.18 56.4423 437.18ZM56.6823 436.34C55.6923 436.34 55.0323 435.89 55.0323 435.005C55.0323 434.195 55.5873 433.595 56.9523 433.475L59.0973 433.31V433.7C59.0973 435.275 58.2123 436.34 56.6823 436.34ZM63.7274 437V430.61H65.1824V429.74H63.7274V427.445H62.7074V429.74H61.2524V430.61H62.7074V437H63.7274ZM69.502 437.18C71.212 437.18 72.337 436.355 72.727 434.825H71.737C71.467 435.785 70.702 436.295 69.517 436.295C67.957 436.295 67.027 435.275 66.952 433.505H72.727V432.995C72.727 430.94 71.392 429.545 69.427 429.545C67.357 429.545 65.947 431.105 65.947 433.37C65.947 435.65 67.372 437.18 69.502 437.18ZM69.427 430.43C70.792 430.43 71.692 431.36 71.692 432.755H66.982C67.162 431.33 68.062 430.43 69.427 430.43ZM76.3935 437.18C77.6235 437.18 78.6135 436.64 79.0635 435.725L79.1985 437H80.0685V432.305C80.0685 430.385 78.8385 429.545 77.1585 429.545C75.3735 429.545 74.1735 430.49 74.1735 431.96H75.1185C75.1185 430.985 75.8685 430.415 77.1285 430.415C78.1935 430.415 79.0485 430.865 79.0485 432.29V432.53L76.6485 432.725C74.9535 432.86 73.9335 433.7 73.9335 435.035C73.9335 436.31 74.8485 437.18 76.3935 437.18ZM76.6335 436.34C75.6435 436.34 74.9835 435.89 74.9835 435.005C74.9835 434.195 75.5385 433.595 76.9035 433.475L79.0485 433.31V433.7C79.0485 435.275 78.1635 436.34 76.6335 436.34Z" fill="#B8BDCB"/>
<path d="M405.33 437C404.468 437 403.641 436.658 403.031 436.048C402.422 435.439 402.08 434.612 402.08 433.75V425.25C402.08 424.388 402.422 423.561 403.031 422.952C403.641 422.342 404.468 422 405.33 422H418.83C419.256 422 419.679 422.084 420.073 422.247C420.468 422.411 420.826 422.65 421.128 422.952C421.429 423.254 421.669 423.612 421.832 424.006C421.996 424.401 422.08 424.823 422.08 425.25V433.75C422.08 434.177 421.996 434.599 421.832 434.994C421.669 435.388 421.429 435.746 421.128 436.048C420.826 436.35 420.468 436.589 420.073 436.753C419.679 436.916 419.256 437 418.83 437H413.092L408.08 440.75C407.894 440.889 407.673 440.974 407.442 440.994C407.211 441.015 406.979 440.971 406.771 440.867C406.564 440.763 406.389 440.604 406.267 440.407C406.145 440.209 406.081 439.982 406.081 439.75V437H405.331H405.33ZM412.594 435.5H418.83C419.294 435.5 419.739 435.316 420.067 434.987C420.395 434.659 420.58 434.214 420.58 433.75V425.25C420.58 424.786 420.395 424.341 420.067 424.013C419.739 423.684 419.294 423.5 418.83 423.5H405.33C404.865 423.5 404.42 423.684 404.092 424.013C403.764 424.341 403.58 424.786 403.58 425.25V433.75C403.58 434.716 404.364 435.5 405.33 435.5H407.579V439.25L412.594 435.5Z" fill="#B8BDCB"/>
<line x1="387.5" y1="408" x2="387.5" y2="454" stroke="#B8BDCB"/>
<rect x="23.5" y="707.5" width="412.885" height="47" rx="2.5" fill="#232630" stroke="#B8BDCB"/>
<path d="M40.685 737.165C42.995 737.165 44.87 735.8 45.365 733.775H44.21C43.745 735.215 42.395 736.13 40.7 736.13C38.345 736.13 36.77 734.33 36.77 731.63C36.77 728.915 38.345 727.115 40.7 727.115C42.38 727.115 43.7 728.06 44.15 729.605H45.305C44.87 727.475 43.055 726.08 40.745 726.08C37.715 726.08 35.645 728.33 35.645 731.63C35.645 734.93 37.685 737.165 40.685 737.165ZM46.4977 733.37C46.4977 735.575 48.0577 737.18 50.1877 737.18C52.3177 737.18 53.8777 735.575 53.8777 733.37C53.8777 731.15 52.3177 729.545 50.1877 729.545C48.0577 729.545 46.4977 731.15 46.4977 733.37ZM47.5477 733.355C47.5477 731.675 48.6277 730.475 50.1877 730.475C51.7327 730.475 52.8277 731.675 52.8277 733.355C52.8277 735.065 51.7327 736.25 50.1877 736.25C48.6277 736.25 47.5477 735.065 47.5477 733.355ZM56.5681 737V732.5C56.5681 731.39 57.3031 730.49 58.5181 730.49C59.6131 730.49 60.3181 731.21 60.3181 732.44V737H61.3381V732.515C61.3381 731.39 62.0581 730.475 63.2731 730.475C64.3831 730.475 65.0731 731.21 65.0731 732.455V737H66.0781V732.245C66.0781 730.565 65.0431 729.545 63.4681 729.545C62.2981 729.545 61.4131 730.145 61.0831 731.09C60.7381 730.145 59.8831 729.545 58.7431 729.545C57.7231 729.545 56.9131 730.01 56.5531 730.775L56.4331 729.74H55.5331V737H56.5681ZM71.2051 737.18C72.9151 737.18 74.0401 736.355 74.4301 734.825H73.4401C73.1701 735.785 72.4051 736.295 71.2201 736.295C69.6601 736.295 68.7301 735.275 68.6551 733.505H74.4301V732.995C74.4301 730.94 73.0951 729.545 71.1301 729.545C69.0601 729.545 67.6501 731.105 67.6501 733.37C67.6501 735.65 69.0751 737.18 71.2051 737.18ZM71.1301 730.43C72.4951 730.43 73.3951 731.36 73.3951 732.755H68.6851C68.8651 731.33 69.7651 730.43 71.1301 730.43ZM77.1199 737V733.205C77.1199 731.57 77.9599 730.49 79.4449 730.49C80.6449 730.49 81.4099 731.09 81.4099 732.785V737H82.4449V732.56C82.4449 730.73 81.6199 729.545 79.6249 729.545C78.5749 729.545 77.6149 730.07 77.1349 731L76.9849 729.74H76.0849V737H77.1199ZM86.1727 737V730.61H87.6277V729.74H86.1727V727.445H85.1527V729.74H83.6977V730.61H85.1527V737H86.1727ZM90.9433 737.18C92.1733 737.18 93.1633 736.64 93.6133 735.725L93.7483 737H94.6183V732.305C94.6183 730.385 93.3883 729.545 91.7083 729.545C89.9233 729.545 88.7233 730.49 88.7233 731.96H89.6683C89.6683 730.985 90.4183 730.415 91.6783 730.415C92.7433 730.415 93.5983 730.865 93.5983 732.29V732.53L91.1983 732.725C89.5033 732.86 88.4833 733.7 88.4833 735.035C88.4833 736.31 89.3983 737.18 90.9433 737.18ZM91.1833 736.34C90.1933 736.34 89.5333 735.89 89.5333 735.005C89.5333 734.195 90.0883 733.595 91.4533 733.475L93.5983 733.31V733.7C93.5983 735.275 92.7133 736.34 91.1833 736.34Z" fill="#B8BDCB"/>
<path d="M406.33 737C405.468 737 404.641 736.658 404.031 736.048C403.422 735.439 403.08 734.612 403.08 733.75V725.25C403.08 724.388 403.422 723.561 404.031 722.952C404.641 722.342 405.468 722 406.33 722H419.83C420.256 722 420.679 722.084 421.073 722.247C421.468 722.411 421.826 722.65 422.128 722.952C422.429 723.254 422.669 723.612 422.832 724.006C422.996 724.401 423.08 724.823 423.08 725.25V733.75C423.08 734.177 422.996 734.599 422.832 734.994C422.669 735.388 422.429 735.746 422.128 736.048C421.826 736.35 421.468 736.589 421.073 736.753C420.679 736.916 420.256 737 419.83 737H414.092L409.08 740.75C408.894 740.889 408.673 740.974 408.442 740.994C408.211 741.015 407.979 740.971 407.771 740.867C407.564 740.763 407.389 740.604 407.267 740.407C407.145 740.209 407.081 739.982 407.081 739.75V737H406.331H406.33ZM413.594 735.5H419.83C420.294 735.5 420.739 735.316 421.067 734.987C421.395 734.659 421.58 734.214 421.58 733.75V725.25C421.58 724.786 421.395 724.341 421.067 724.013C420.739 723.684 420.294 723.5 419.83 723.5H406.33C405.865 723.5 405.42 723.684 405.092 724.013C404.764 724.341 404.58 724.786 404.58 725.25V733.75C404.58 734.716 405.364 735.5 406.33 735.5H408.579V739.25L413.594 735.5Z" fill="#B8BDCB"/>
<line x1="388.5" y1="708" x2="388.5" y2="754" stroke="#B8BDCB"/>
<rect x="22.5" y="475.5" width="412.885" height="47" rx="2.5" fill="#232630" stroke="#B8BDCB"/>
<path d="M38.575 505C41.8 505 43.945 502.84 43.945 499.63C43.945 496.42 41.785 494.26 38.545 494.26H35.305V505H38.575ZM38.5 495.25C41.155 495.25 42.835 496.945 42.835 499.63C42.835 502.3 41.155 504.01 38.53 504.01H36.385V495.25H38.5ZM47.8008 495.115H46.7058L45.8058 496.9H46.6458L47.8008 495.115ZM45.6708 505H46.7058V497.74H45.6708V505ZM48.2492 502.96C48.2492 504.31 49.2692 505.18 50.9042 505.18C52.5542 505.18 53.6642 504.325 53.6642 503.02C53.6642 501.97 53.0942 501.385 51.8342 501.07L50.5892 500.755C49.7942 500.56 49.4042 500.17 49.4042 499.615C49.4042 498.835 49.9742 498.4 50.9942 498.4C51.9692 498.4 52.5542 498.895 52.5842 499.735H53.5892C53.5442 498.385 52.5542 497.545 51.0242 497.545C49.4642 497.545 48.3992 498.355 48.3992 499.63C48.3992 500.62 49.0142 501.28 50.2742 501.595L51.5192 501.91C52.3742 502.12 52.6742 502.465 52.6742 503.065C52.6742 503.845 52.0142 504.325 50.8892 504.325C49.8692 504.325 49.2392 503.8 49.2392 502.96H48.2492ZM58.4131 505.18C60.1231 505.18 61.2481 504.355 61.6381 502.825H60.6481C60.3781 503.785 59.6131 504.295 58.4281 504.295C56.8681 504.295 55.9381 503.275 55.8631 501.505H61.6381V500.995C61.6381 498.94 60.3031 497.545 58.3381 497.545C56.2681 497.545 54.8581 499.105 54.8581 501.37C54.8581 503.65 56.2831 505.18 58.4131 505.18ZM58.3381 498.43C59.7031 498.43 60.6031 499.36 60.6031 500.755H55.8931C56.0731 499.33 56.9731 498.43 58.3381 498.43ZM64.3729 505V494.065H63.3379V505H64.3729ZM66.0641 501.37C66.0641 503.575 67.6241 505.18 69.7541 505.18C71.8841 505.18 73.4441 503.575 73.4441 501.37C73.4441 499.15 71.8841 497.545 69.7541 497.545C67.6241 497.545 66.0641 499.15 66.0641 501.37ZM67.1141 501.355C67.1141 499.675 68.1941 498.475 69.7541 498.475C71.2991 498.475 72.3941 499.675 72.3941 501.355C72.3941 503.065 71.2991 504.25 69.7541 504.25C68.1941 504.25 67.1141 503.065 67.1141 501.355ZM76.4195 501.775C76.5395 500.71 76.6145 498.745 76.6145 496.795V494.26H75.4895V496.795C75.4895 498.73 75.5495 500.71 75.6695 501.775H76.4195ZM76.0595 505.21C76.5545 505.21 76.9895 504.775 76.9895 504.265C76.9895 503.755 76.5545 503.335 76.0595 503.335C75.5345 503.335 75.1145 503.755 75.1145 504.265C75.1145 504.775 75.5345 505.21 76.0595 505.21Z" fill="#FCFBF7"/>
<path d="M388.58 475.5H433.08C434.46 475.5 435.58 476.619 435.58 478V520C435.58 521.381 434.46 522.5 433.08 522.5H388.58V475.5Z" fill="#232630"/>
<path d="M405.33 505C404.468 505 403.641 504.658 403.031 504.048C402.422 503.439 402.08 502.612 402.08 501.75V493.25C402.08 492.388 402.422 491.561 403.031 490.952C403.641 490.342 404.468 490 405.33 490H418.83C419.256 490 419.679 490.084 420.073 490.247C420.468 490.411 420.826 490.65 421.128 490.952C421.429 491.254 421.669 491.612 421.832 492.006C421.996 492.401 422.08 492.823 422.08 493.25V501.75C422.08 502.177 421.996 502.599 421.832 502.994C421.669 503.388 421.429 503.746 421.128 504.048C420.826 504.35 420.468 504.589 420.073 504.753C419.679 504.916 419.256 505 418.83 505H413.092L408.08 508.75C407.894 508.889 407.673 508.974 407.442 508.994C407.211 509.015 406.979 508.971 406.771 508.867C406.564 508.763 406.389 508.604 406.267 508.407C406.145 508.209 406.081 507.982 406.081 507.75V505H405.331H405.33ZM412.594 503.5H418.83C419.294 503.5 419.739 503.316 420.067 502.987C420.395 502.659 420.58 502.214 420.58 501.75V493.25C420.58 492.786 420.395 492.341 420.067 492.013C419.739 491.684 419.294 491.5 418.83 491.5H405.33C404.865 491.5 404.42 491.684 404.092 492.013C403.764 492.341 403.58 492.786 403.58 493.25V501.75C403.58 502.716 404.364 503.5 405.33 503.5H407.579V507.25L412.594 503.5Z" fill="#54FEF1"/>
<path d="M388.58 475.5H433.08C434.46 475.5 435.58 476.619 435.58 478V520C435.58 521.381 434.46 522.5 433.08 522.5H388.58V475.5Z" stroke="#B8BDCB"/>
<rect x="22.5" y="775.5" width="412.885" height="47" rx="2.5" fill="#232630" stroke="#B8BDCB"/>
<path d="M39.4 801.055C41.455 801.055 42.775 799.585 42.775 797.635C42.775 795.61 41.47 794.26 39.4 794.26H35.305V805H36.385V801.055H39.4ZM39.25 795.235C40.735 795.235 41.65 796.135 41.65 797.62C41.65 799.09 40.75 800.08 39.19 800.08H36.385V795.235H39.25ZM47.0166 805.18C48.7266 805.18 49.8516 804.355 50.2416 802.825H49.2516C48.9816 803.785 48.2166 804.295 47.0316 804.295C45.4716 804.295 44.5416 803.275 44.4666 801.505H50.2416V800.995C50.2416 798.94 48.9066 797.545 46.9416 797.545C44.8716 797.545 43.4616 799.105 43.4616 801.37C43.4616 803.65 44.8866 805.18 47.0166 805.18ZM46.9416 798.43C48.3066 798.43 49.2066 799.36 49.2066 800.755H44.4966C44.6766 799.33 45.5766 798.43 46.9416 798.43ZM55.6914 797.65C55.4364 797.59 55.2414 797.575 55.0164 797.575C53.9964 797.575 53.2314 798.085 52.9464 798.865L52.8714 797.74H51.8964V805H52.9314V800.86C52.9314 799.48 53.7864 798.58 55.1214 798.58H55.6914V797.65ZM60.8623 797.65C60.6073 797.59 60.4123 797.575 60.1873 797.575C59.1673 797.575 58.4023 798.085 58.1173 798.865L58.0423 797.74H57.0673V805H58.1023V800.86C58.1023 799.48 58.9573 798.58 60.2923 798.58H60.8623V797.65ZM61.4499 801.37C61.4499 803.575 63.0099 805.18 65.1399 805.18C67.2699 805.18 68.8299 803.575 68.8299 801.37C68.8299 799.15 67.2699 797.545 65.1399 797.545C63.0099 797.545 61.4499 799.15 61.4499 801.37ZM62.4999 801.355C62.4999 799.675 63.5799 798.475 65.1399 798.475C66.6849 798.475 67.7799 799.675 67.7799 801.355C67.7799 803.065 66.6849 804.25 65.1399 804.25C63.5799 804.25 62.4999 803.065 62.4999 801.355ZM77.6904 805.18C79.4004 805.18 80.5254 804.355 80.9154 802.825H79.9254C79.6554 803.785 78.8904 804.295 77.7054 804.295C76.1454 804.295 75.2154 803.275 75.1404 801.505H80.9154V800.995C80.9154 798.94 79.5804 797.545 77.6154 797.545C75.5454 797.545 74.1354 799.105 74.1354 801.37C74.1354 803.65 75.5604 805.18 77.6904 805.18ZM77.6154 798.43C78.9804 798.43 79.8804 799.36 79.8804 800.755H75.1704C75.3504 799.33 76.2504 798.43 77.6154 798.43ZM81.9552 802.96C81.9552 804.31 82.9752 805.18 84.6102 805.18C86.2602 805.18 87.3702 804.325 87.3702 803.02C87.3702 801.97 86.8002 801.385 85.5402 801.07L84.2952 800.755C83.5002 800.56 83.1102 800.17 83.1102 799.615C83.1102 798.835 83.6802 798.4 84.7002 798.4C85.6752 798.4 86.2602 798.895 86.2902 799.735H87.2952C87.2502 798.385 86.2602 797.545 84.7302 797.545C83.1702 797.545 82.1052 798.355 82.1052 799.63C82.1052 800.62 82.7202 801.28 83.9802 801.595L85.2252 801.91C86.0802 802.12 86.3802 802.465 86.3802 803.065C86.3802 803.845 85.7202 804.325 84.5952 804.325C83.5752 804.325 82.9452 803.8 82.9452 802.96H81.9552ZM89.0741 808.165H90.1091V803.605C90.6191 804.655 91.5941 805.18 92.8241 805.18C94.9691 805.18 96.1841 803.53 96.1841 801.34C96.1841 799.15 94.9241 797.545 92.8241 797.545C91.6091 797.545 90.5891 798.085 90.0791 799.21L89.9741 797.74H89.0741V808.165ZM90.1241 801.37C90.1241 799.69 91.0541 798.49 92.6441 798.49C94.2191 798.49 95.1341 799.69 95.1341 801.37C95.1341 803.035 94.2191 804.25 92.6441 804.25C91.0541 804.25 90.1241 803.035 90.1241 801.37ZM99.9189 805.18C101.149 805.18 102.139 804.64 102.589 803.725L102.724 805H103.594V800.305C103.594 798.385 102.364 797.545 100.684 797.545C98.8989 797.545 97.6989 798.49 97.6989 799.96H98.6439C98.6439 798.985 99.3939 798.415 100.654 798.415C101.719 798.415 102.574 798.865 102.574 800.29V800.53L100.174 800.725C98.4789 800.86 97.4589 801.7 97.4589 803.035C97.4589 804.31 98.3739 805.18 99.9189 805.18ZM100.159 804.34C99.1689 804.34 98.5089 803.89 98.5089 803.005C98.5089 802.195 99.0639 801.595 100.429 801.475L102.574 801.31V801.7C102.574 803.275 101.689 804.34 100.159 804.34ZM105.161 801.385C105.161 803.665 106.556 805.18 108.611 805.18C110.261 805.18 111.551 804.205 111.896 802.72H110.846C110.561 803.65 109.691 804.25 108.611 804.25C107.141 804.25 106.181 803.095 106.181 801.37C106.181 799.585 107.216 798.46 108.686 798.46C109.691 798.46 110.561 799.015 110.831 800.02H111.866C111.581 798.52 110.351 797.545 108.671 797.545C106.556 797.545 105.161 799.105 105.161 801.385ZM113.974 795.745C114.394 795.745 114.754 795.4 114.754 794.98C114.754 794.56 114.394 794.2 113.974 794.2C113.554 794.2 113.209 794.56 113.209 794.98C113.209 795.4 113.554 795.745 113.974 795.745ZM113.464 805H114.499V797.74H113.464V805ZM118.742 805.18C119.972 805.18 120.962 804.64 121.412 803.725L121.547 805H122.417V800.305C122.417 798.385 121.187 797.545 119.507 797.545C117.722 797.545 116.522 798.49 116.522 799.96H117.467C117.467 798.985 118.217 798.415 119.477 798.415C120.542 798.415 121.397 798.865 121.397 800.29V800.53L118.997 800.725C117.302 800.86 116.282 801.7 116.282 803.035C116.282 804.31 117.197 805.18 118.742 805.18ZM118.982 804.34C117.992 804.34 117.332 803.89 117.332 803.005C117.332 802.195 117.887 801.595 119.252 801.475L121.397 801.31V801.7C121.397 803.275 120.512 804.34 118.982 804.34ZM125.574 805V794.065H124.539V805H125.574Z" fill="#FCFBF7"/>
<path d="M388.58 775.5H433.08C434.46 775.5 435.58 776.619 435.58 778V820C435.58 821.381 434.46 822.5 433.08 822.5H388.58V775.5Z" fill="#232630"/>
<path d="M405.33 805C404.468 805 403.641 804.658 403.031 804.048C402.422 803.439 402.08 802.612 402.08 801.75V793.25C402.08 792.388 402.422 791.561 403.031 790.952C403.641 790.342 404.468 790 405.33 790H418.83C419.256 790 419.679 790.084 420.073 790.247C420.468 790.411 420.826 790.65 421.128 790.952C421.429 791.254 421.669 791.612 421.832 792.006C421.996 792.401 422.08 792.823 422.08 793.25V801.75C422.08 802.177 421.996 802.599 421.832 802.994C421.669 803.388 421.429 803.746 421.128 804.048C420.826 804.35 420.468 804.589 420.073 804.753C419.679 804.916 419.256 805 418.83 805H413.092L408.08 808.75C407.894 808.889 407.673 808.974 407.442 808.994C407.211 809.015 406.979 808.971 406.771 808.867C406.564 808.763 406.389 808.604 406.267 808.407C406.145 808.209 406.081 807.982 406.081 807.75V805H405.331H405.33ZM412.594 803.5H418.83C419.294 803.5 419.739 803.316 420.067 802.987C420.395 802.659 420.58 802.214 420.58 801.75V793.25C420.58 792.786 420.395 792.341 420.067 792.013C419.739 791.684 419.294 791.5 418.83 791.5H405.33C404.865 791.5 404.42 791.684 404.092 792.013C403.764 792.341 403.58 792.786 403.58 793.25V801.75C403.58 802.716 404.364 803.5 405.33 803.5H407.579V807.25L412.594 803.5Z" fill="#54FEF1"/>
<path d="M388.58 775.5H433.08C434.46 775.5 435.58 776.619 435.58 778V820C435.58 821.381 434.46 822.5 433.08 822.5H388.58V775.5Z" stroke="#B8BDCB"/>
<rect x="23.5" y="639.5" width="413" height="47" rx="2.5" fill="#232630" stroke="#B8BDCB"/>
<path d="M40.685 669.165C42.995 669.165 44.87 667.8 45.365 665.775H44.21C43.745 667.215 42.395 668.13 40.7 668.13C38.345 668.13 36.77 666.33 36.77 663.63C36.77 660.915 38.345 659.115 40.7 659.115C42.38 659.115 43.7 660.06 44.15 661.605H45.305C44.87 659.475 43.055 658.08 40.745 658.08C37.715 658.08 35.645 660.33 35.645 663.63C35.645 666.93 37.685 669.165 40.685 669.165ZM47.9695 668.985V665.04C47.9695 663.645 48.7795 662.49 50.3395 662.49C51.4645 662.49 52.2595 663.09 52.2595 664.785V669H53.2945V664.56C53.2945 662.73 52.4395 661.545 50.5345 661.545C49.3195 661.545 48.4345 662.13 47.9695 663V658.065H46.9345V668.985H47.9695ZM57.4423 669.18C58.6723 669.18 59.6623 668.64 60.1123 667.725L60.2473 669H61.1173V664.305C61.1173 662.385 59.8873 661.545 58.2073 661.545C56.4223 661.545 55.2223 662.49 55.2223 663.96H56.1673C56.1673 662.985 56.9173 662.415 58.1773 662.415C59.2423 662.415 60.0973 662.865 60.0973 664.29V664.53L57.6973 664.725C56.0023 664.86 54.9823 665.7 54.9823 667.035C54.9823 668.31 55.8973 669.18 57.4423 669.18ZM57.6823 668.34C56.6923 668.34 56.0323 667.89 56.0323 667.005C56.0323 666.195 56.5873 665.595 57.9523 665.475L60.0973 665.31V665.7C60.0973 667.275 59.2123 668.34 57.6823 668.34ZM64.7274 669V662.61H66.1824V661.74H64.7274V659.445H63.7074V661.74H62.2524V662.61H63.7074V669H64.7274ZM70.502 669.18C72.212 669.18 73.337 668.355 73.727 666.825H72.737C72.467 667.785 71.702 668.295 70.517 668.295C68.957 668.295 68.027 667.275 67.952 665.505H73.727V664.995C73.727 662.94 72.392 661.545 70.427 661.545C68.357 661.545 66.947 663.105 66.947 665.37C66.947 667.65 68.372 669.18 70.502 669.18ZM70.427 662.43C71.792 662.43 72.692 663.36 72.692 664.755H67.982C68.162 663.33 69.062 662.43 70.427 662.43ZM77.3935 669.18C78.6235 669.18 79.6135 668.64 80.0635 667.725L80.1985 669H81.0685V664.305C81.0685 662.385 79.8385 661.545 78.1585 661.545C76.3735 661.545 75.1735 662.49 75.1735 663.96H76.1185C76.1185 662.985 76.8685 662.415 78.1285 662.415C79.1935 662.415 80.0485 662.865 80.0485 664.29V664.53L77.6485 664.725C75.9535 664.86 74.9335 665.7 74.9335 667.035C74.9335 668.31 75.8485 669.18 77.3935 669.18ZM77.6335 668.34C76.6435 668.34 75.9835 667.89 75.9835 667.005C75.9835 666.195 76.5385 665.595 77.9035 665.475L80.0485 665.31V665.7C80.0485 667.275 79.1635 668.34 77.6335 668.34Z" fill="#B8BDCB"/>
<path d="M406.25 669C405.388 669 404.561 668.658 403.952 668.048C403.342 667.439 403 666.612 403 665.75V657.25C403 656.388 403.342 655.561 403.952 654.952C404.561 654.342 405.388 654 406.25 654H419.75C420.177 654 420.599 654.084 420.994 654.247C421.388 654.411 421.746 654.65 422.048 654.952C422.35 655.254 422.589 655.612 422.753 656.006C422.916 656.401 423 656.823 423 657.25V665.75C423 666.177 422.916 666.599 422.753 666.994C422.589 667.388 422.35 667.746 422.048 668.048C421.746 668.35 421.388 668.589 420.994 668.753C420.599 668.916 420.177 669 419.75 669H414.012L409 672.75C408.814 672.889 408.594 672.974 408.363 672.994C408.131 673.015 407.899 672.971 407.692 672.867C407.484 672.763 407.31 672.604 407.188 672.407C407.066 672.209 407.001 671.982 407.001 671.75V669H406.251H406.25ZM413.514 667.5H419.75C420.214 667.5 420.659 667.316 420.987 666.987C421.316 666.659 421.5 666.214 421.5 665.75V657.25C421.5 656.786 421.316 656.341 420.987 656.013C420.659 655.684 420.214 655.5 419.75 655.5H406.25C405.786 655.5 405.341 655.684 405.013 656.013C404.684 656.341 404.5 656.786 404.5 657.25V665.75C404.5 666.716 405.284 667.5 406.25 667.5H408.499V671.25L413.514 667.5Z" fill="#B8BDCB"/>
<line x1="388.5" y1="640" x2="388.5" y2="686" stroke="#B8BDCB"/>
<path d="M173 598C173 596.343 174.343 595 176 595H284C285.657 595 287 596.343 287 598V624C287 625.657 285.657 627 284 627H176C174.343 627 173 625.657 173 624V598Z" fill="#B8BDCB"/>
<path d="M190.811 617.165C193.256 617.165 195.191 615.725 195.656 613.565H194.096C193.691 614.9 192.431 615.755 190.841 615.755C188.651 615.755 187.211 614.105 187.211 611.57C187.211 609.035 188.651 607.385 190.841 607.385C192.416 607.385 193.631 608.24 194.036 609.65H195.611C195.206 607.43 193.331 605.975 190.886 605.975C187.781 605.975 185.666 608.24 185.666 611.585C185.666 614.945 187.721 617.165 190.811 617.165ZM198.555 616.985V612.995C198.555 611.735 199.29 610.745 200.655 610.745C201.705 610.745 202.41 611.345 202.41 612.83V617H203.82V612.515C203.82 610.64 202.92 609.455 201.045 609.455C199.905 609.455 199.02 609.995 198.555 610.79V605.96H197.145V616.985H198.555ZM207.918 617.18C209.103 617.18 210.108 616.655 210.483 615.815L210.633 617H211.833V612.395C211.833 610.415 210.603 609.455 208.788 609.455C206.898 609.455 205.638 610.46 205.638 611.99H206.868C206.868 611.105 207.543 610.58 208.728 610.58C209.718 610.58 210.453 611.015 210.453 612.245V612.455L208.143 612.635C206.418 612.77 205.413 613.61 205.413 614.96C205.413 616.295 206.343 617.18 207.918 617.18ZM208.323 616.085C207.408 616.085 206.838 615.695 206.838 614.915C206.838 614.195 207.348 613.715 208.593 613.595L210.468 613.445V613.835C210.468 615.215 209.658 616.085 208.323 616.085ZM215.739 617V610.85H217.179V609.665H215.739V607.37H214.329V609.665H212.889V610.85H214.329V617H215.739ZM225.711 617.18C227.526 617.18 228.756 616.295 229.116 614.72H227.796C227.556 615.56 226.836 616.01 225.741 616.01C224.346 616.01 223.536 615.155 223.431 613.61L229.101 613.595V613.07C229.101 610.895 227.736 609.455 225.651 609.455C223.521 609.455 222.066 611.045 222.066 613.34C222.066 615.62 223.551 617.18 225.711 617.18ZM225.651 610.64C226.896 610.64 227.691 611.45 227.691 612.665H223.461C223.641 611.375 224.421 610.64 225.651 610.64ZM232.086 617V613.115C232.086 611.69 232.851 610.745 234.171 610.745C235.251 610.745 235.941 611.345 235.941 612.83V617H237.351V612.515C237.351 610.64 236.466 609.455 234.531 609.455C233.496 609.455 232.566 609.95 232.101 610.79L231.951 609.665H230.676V617H232.086ZM241.212 617H242.607L245.667 609.665H244.197L242.562 613.76C242.307 614.405 242.067 615.035 241.947 615.515C241.827 615.065 241.617 614.45 241.362 613.76L239.757 609.665H238.257L241.212 617ZM247.479 607.925C247.989 607.925 248.409 607.505 248.409 606.995C248.409 606.47 247.989 606.065 247.479 606.065C246.969 606.065 246.549 606.47 246.549 606.995C246.549 607.505 246.969 607.925 247.479 607.925ZM246.789 617H248.199V609.665H246.789V617ZM252.391 617.18C253.576 617.18 254.581 616.655 254.956 615.815L255.106 617H256.306V612.395C256.306 610.415 255.076 609.455 253.261 609.455C251.371 609.455 250.111 610.46 250.111 611.99H251.341C251.341 611.105 252.016 610.58 253.201 610.58C254.191 610.58 254.926 611.015 254.926 612.245V612.455L252.616 612.635C250.891 612.77 249.886 613.61 249.886 614.96C249.886 616.295 250.816 617.18 252.391 617.18ZM252.796 616.085C251.881 616.085 251.311 615.695 251.311 614.915C251.311 614.195 251.821 613.715 253.066 613.595L254.941 613.445V613.835C254.941 615.215 254.131 616.085 252.796 616.085ZM261.199 617.18C262.369 617.18 263.359 616.67 263.839 615.665L263.959 617H265.219V605.96H263.824V610.85C263.329 609.95 262.384 609.455 261.259 609.455C259.084 609.455 257.779 611.105 257.779 613.355C257.779 615.59 259.069 617.18 261.199 617.18ZM261.484 615.905C260.044 615.905 259.204 614.825 259.204 613.31C259.204 611.81 260.044 610.73 261.484 610.73C262.924 610.73 263.809 611.81 263.809 613.31C263.809 614.84 262.924 615.905 261.484 615.905ZM266.773 613.325C266.773 615.59 268.393 617.18 270.598 617.18C272.788 617.18 274.408 615.59 274.408 613.325C274.408 611.06 272.788 609.47 270.598 609.47C268.393 609.47 266.773 611.06 266.773 613.325ZM268.198 613.325C268.198 611.795 269.173 610.73 270.598 610.73C272.008 610.73 272.998 611.795 272.998 613.325C272.998 614.855 272.008 615.92 270.598 615.92C269.173 615.92 268.198 614.855 268.198 613.325Z" fill="#121419"/>
<rect x="23.5" y="887.5" width="413" height="47" rx="2.5" fill="#232630" stroke="#B8BDCB"/>
<path d="M40.685 917.165C42.995 917.165 44.87 915.8 45.365 913.775H44.21C43.745 915.215 42.395 916.13 40.7 916.13C38.345 916.13 36.77 914.33 36.77 911.63C36.77 908.915 38.345 907.115 40.7 907.115C42.38 907.115 43.7 908.06 44.15 909.605H45.305C44.87 907.475 43.055 906.08 40.745 906.08C37.715 906.08 35.645 908.33 35.645 911.63C35.645 914.93 37.685 917.165 40.685 917.165ZM46.4977 913.37C46.4977 915.575 48.0577 917.18 50.1877 917.18C52.3177 917.18 53.8777 915.575 53.8777 913.37C53.8777 911.15 52.3177 909.545 50.1877 909.545C48.0577 909.545 46.4977 911.15 46.4977 913.37ZM47.5477 913.355C47.5477 911.675 48.6277 910.475 50.1877 910.475C51.7327 910.475 52.8277 911.675 52.8277 913.355C52.8277 915.065 51.7327 916.25 50.1877 916.25C48.6277 916.25 47.5477 915.065 47.5477 913.355ZM56.5681 917V912.5C56.5681 911.39 57.3031 910.49 58.5181 910.49C59.6131 910.49 60.3181 911.21 60.3181 912.44V917H61.3381V912.515C61.3381 911.39 62.0581 910.475 63.2731 910.475C64.3831 910.475 65.0731 911.21 65.0731 912.455V917H66.0781V912.245C66.0781 910.565 65.0431 909.545 63.4681 909.545C62.2981 909.545 61.4131 910.145 61.0831 911.09C60.7381 910.145 59.8831 909.545 58.7431 909.545C57.7231 909.545 56.9131 910.01 56.5531 910.775L56.4331 909.74H55.5331V917H56.5681ZM71.2051 917.18C72.9151 917.18 74.0401 916.355 74.4301 914.825H73.4401C73.1701 915.785 72.4051 916.295 71.2201 916.295C69.6601 916.295 68.7301 915.275 68.6551 913.505H74.4301V912.995C74.4301 910.94 73.0951 909.545 71.1301 909.545C69.0601 909.545 67.6501 911.105 67.6501 913.37C67.6501 915.65 69.0751 917.18 71.2051 917.18ZM71.1301 910.43C72.4951 910.43 73.3951 911.36 73.3951 912.755H68.6851C68.8651 911.33 69.7651 910.43 71.1301 910.43ZM77.1199 917V913.205C77.1199 911.57 77.9599 910.49 79.4449 910.49C80.6449 910.49 81.4099 911.09 81.4099 912.785V917H82.4449V912.56C82.4449 910.73 81.6199 909.545 79.6249 909.545C78.5749 909.545 77.6149 910.07 77.1349 911L76.9849 909.74H76.0849V917H77.1199ZM86.1727 917V910.61H87.6277V909.74H86.1727V907.445H85.1527V909.74H83.6977V910.61H85.1527V917H86.1727ZM90.9433 917.18C92.1733 917.18 93.1633 916.64 93.6133 915.725L93.7483 917H94.6183V912.305C94.6183 910.385 93.3883 909.545 91.7083 909.545C89.9233 909.545 88.7233 910.49 88.7233 911.96H89.6683C89.6683 910.985 90.4183 910.415 91.6783 910.415C92.7433 910.415 93.5983 910.865 93.5983 912.29V912.53L91.1983 912.725C89.5033 912.86 88.4833 913.7 88.4833 915.035C88.4833 916.31 89.3983 917.18 90.9433 917.18ZM91.1833 916.34C90.1933 916.34 89.5333 915.89 89.5333 915.005C89.5333 914.195 90.0883 913.595 91.4533 913.475L93.5983 913.31V913.7C93.5983 915.275 92.7133 916.34 91.1833 916.34Z" fill="#B8BDCB"/>
<path d="M406.25 917C405.388 917 404.561 916.658 403.952 916.048C403.342 915.439 403 914.612 403 913.75V905.25C403 904.388 403.342 903.561 403.952 902.952C404.561 902.342 405.388 902 406.25 902H419.75C420.177 902 420.599 902.084 420.994 902.247C421.388 902.411 421.746 902.65 422.048 902.952C422.35 903.254 422.589 903.612 422.753 904.006C422.916 904.401 423 904.823 423 905.25V913.75C423 914.177 422.916 914.599 422.753 914.994C422.589 915.388 422.35 915.746 422.048 916.048C421.746 916.35 421.388 916.589 420.994 916.753C420.599 916.916 420.177 917 419.75 917H414.012L409 920.75C408.814 920.889 408.594 920.974 408.363 920.994C408.131 921.015 407.899 920.971 407.692 920.867C407.484 920.763 407.31 920.604 407.188 920.407C407.066 920.209 407.001 919.982 407.001 919.75V917H406.251H406.25ZM413.514 915.5H419.75C420.214 915.5 420.659 915.316 420.987 914.987C421.316 914.659 421.5 914.214 421.5 913.75V905.25C421.5 904.786 421.316 904.341 420.987 904.013C420.659 903.684 420.214 903.5 419.75 903.5H406.25C405.786 903.5 405.341 903.684 405.013 904.013C404.684 904.341 404.5 904.786 404.5 905.25V913.75C404.5 914.716 405.284 915.5 406.25 915.5H408.499V919.25L413.514 915.5Z" fill="#B8BDCB"/>
<line x1="388.5" y1="888" x2="388.5" y2="934" stroke="#B8BDCB"/>
<path d="M142 846C142 844.343 143.343 843 145 843H315C316.657 843 318 844.343 318 846V872C318 873.657 316.657 875 315 875H145C143.343 875 142 873.657 142 872V846Z" fill="#B8BDCB"/>
<path d="M160.218 865.165C162.663 865.165 164.598 863.725 165.063 861.565H163.503C163.098 862.9 161.838 863.755 160.248 863.755C158.058 863.755 156.618 862.105 156.618 859.57C156.618 857.035 158.058 855.385 160.248 855.385C161.823 855.385 163.038 856.24 163.443 857.65H165.018C164.613 855.43 162.738 853.975 160.293 853.975C157.188 853.975 155.073 856.24 155.073 859.585C155.073 862.945 157.128 865.165 160.218 865.165ZM166.145 861.325C166.145 863.59 167.765 865.18 169.97 865.18C172.16 865.18 173.78 863.59 173.78 861.325C173.78 859.06 172.16 857.47 169.97 857.47C167.765 857.47 166.145 859.06 166.145 861.325ZM167.57 861.325C167.57 859.795 168.545 858.73 169.97 858.73C171.38 858.73 172.37 859.795 172.37 861.325C172.37 862.855 171.38 863.92 169.97 863.92C168.545 863.92 167.57 862.855 167.57 861.325ZM176.751 865V860.65C176.751 859.48 177.456 858.745 178.521 858.745C179.511 858.745 180.141 859.375 180.141 860.53V865H181.536V860.65C181.536 859.48 182.241 858.73 183.306 858.73C184.296 858.73 184.941 859.39 184.941 860.545V865H186.321V860.2C186.321 858.505 185.301 857.455 183.621 857.455C182.481 857.455 181.596 858.025 181.251 858.94C180.876 858.025 180.066 857.455 178.926 857.455C177.891 857.455 177.111 857.935 176.736 858.625L176.601 857.665H175.341V865H176.751ZM191.441 865.18C193.256 865.18 194.486 864.295 194.846 862.72H193.526C193.286 863.56 192.566 864.01 191.471 864.01C190.076 864.01 189.266 863.155 189.161 861.61L194.831 861.595V861.07C194.831 858.895 193.466 857.455 191.381 857.455C189.251 857.455 187.796 859.045 187.796 861.34C187.796 863.62 189.281 865.18 191.441 865.18ZM191.381 858.64C192.626 858.64 193.421 859.45 193.421 860.665H189.191C189.371 859.375 190.151 858.64 191.381 858.64ZM197.816 865V861.115C197.816 859.69 198.581 858.745 199.901 858.745C200.981 858.745 201.671 859.345 201.671 860.83V865H203.081V860.515C203.081 858.64 202.196 857.455 200.261 857.455C199.226 857.455 198.296 857.95 197.831 858.79L197.681 857.665H196.406V865H197.816ZM207.104 865V858.85H208.544V857.665H207.104V855.37H205.694V857.665H204.254V858.85H205.694V865H207.104ZM211.866 865.18C213.051 865.18 214.056 864.655 214.431 863.815L214.581 865H215.781V860.395C215.781 858.415 214.551 857.455 212.736 857.455C210.846 857.455 209.586 858.46 209.586 859.99H210.816C210.816 859.105 211.491 858.58 212.676 858.58C213.666 858.58 214.401 859.015 214.401 860.245V860.455L212.091 860.635C210.366 860.77 209.361 861.61 209.361 862.96C209.361 864.295 210.291 865.18 211.866 865.18ZM212.271 864.085C211.356 864.085 210.786 863.695 210.786 862.915C210.786 862.195 211.296 861.715 212.541 861.595L214.416 861.445V861.835C214.416 863.215 213.606 864.085 212.271 864.085ZM221.934 857.605C221.649 857.545 221.439 857.515 221.184 857.515C220.179 857.515 219.444 858.025 219.144 858.79L219.054 857.68H217.734V865H219.144V861.115C219.144 859.705 219.969 858.895 221.304 858.895H221.934V857.605ZM223.946 855.925C224.456 855.925 224.876 855.505 224.876 854.995C224.876 854.47 224.456 854.065 223.946 854.065C223.436 854.065 223.016 854.47 223.016 854.995C223.016 855.505 223.436 855.925 223.946 855.925ZM223.256 865H224.666V857.665H223.256V865ZM226.233 861.325C226.233 863.59 227.853 865.18 230.058 865.18C232.248 865.18 233.868 863.59 233.868 861.325C233.868 859.06 232.248 857.47 230.058 857.47C227.853 857.47 226.233 859.06 226.233 861.325ZM227.658 861.325C227.658 859.795 228.633 858.73 230.058 858.73C231.468 858.73 232.458 859.795 232.458 861.325C232.458 862.855 231.468 863.92 230.058 863.92C228.633 863.92 227.658 862.855 227.658 861.325ZM239.531 868.285H240.941V863.8C241.421 864.7 242.396 865.195 243.566 865.195C245.741 865.195 246.971 863.515 246.971 861.28C246.971 859.03 245.666 857.455 243.566 857.455C242.396 857.455 241.406 857.98 240.911 858.985L240.806 857.665H239.531V868.285ZM240.956 861.34C240.956 859.81 241.826 858.745 243.266 858.745C244.706 858.745 245.561 859.825 245.561 861.34C245.561 862.84 244.706 863.92 243.266 863.92C241.826 863.92 240.956 862.84 240.956 861.34ZM253.419 857.665V861.535C253.419 863.11 252.714 863.935 251.424 863.935C250.344 863.935 249.669 863.335 249.669 861.76V857.665H248.259V862.225C248.259 864.025 249.219 865.18 250.929 865.18C252.009 865.18 252.984 864.655 253.404 863.89L253.554 865H254.814V857.665H253.419ZM258.135 865L258.24 863.665C258.72 864.67 259.695 865.18 260.85 865.18C262.98 865.18 264.3 863.59 264.3 861.37C264.3 859.105 263.04 857.455 260.94 857.455C259.74 857.455 258.75 857.965 258.27 858.925V853.96H256.86V865H258.135ZM258.285 861.31C258.285 859.81 259.155 858.73 260.595 858.73C262.035 858.73 262.89 859.81 262.89 861.31C262.89 862.825 262.035 863.905 260.595 863.905C259.155 863.905 258.285 862.84 258.285 861.31ZM267.294 865V853.96H265.884V865H267.294ZM270.06 855.925C270.57 855.925 270.99 855.505 270.99 854.995C270.99 854.47 270.57 854.065 270.06 854.065C269.55 854.065 269.13 854.47 269.13 854.995C269.13 855.505 269.55 855.925 270.06 855.925ZM269.37 865H270.78V857.665H269.37V865ZM272.347 861.34C272.347 863.65 273.772 865.18 275.932 865.18C277.702 865.18 279.067 864.115 279.352 862.525H277.942C277.687 863.395 276.937 863.92 275.932 863.92C274.597 863.92 273.742 862.9 273.742 861.325C273.742 859.735 274.657 858.715 275.992 858.715C276.937 858.715 277.687 859.21 277.927 860.14H279.337C279.082 858.505 277.792 857.455 275.947 857.455C273.802 857.455 272.347 859.045 272.347 861.34ZM282.984 865.18C284.169 865.18 285.174 864.655 285.549 863.815L285.699 865H286.899V860.395C286.899 858.415 285.669 857.455 283.854 857.455C281.964 857.455 280.704 858.46 280.704 859.99H281.934C281.934 859.105 282.609 858.58 283.794 858.58C284.784 858.58 285.519 859.015 285.519 860.245V860.455L283.209 860.635C281.484 860.77 280.479 861.61 280.479 862.96C280.479 864.295 281.409 865.18 282.984 865.18ZM283.389 864.085C282.474 864.085 281.904 863.695 281.904 862.915C281.904 862.195 282.414 861.715 283.659 861.595L285.534 861.445V861.835C285.534 863.215 284.724 864.085 283.389 864.085ZM291.792 865.18C292.962 865.18 293.952 864.67 294.432 863.665L294.552 865H295.812V853.96H294.417V858.85C293.922 857.95 292.977 857.455 291.852 857.455C289.677 857.455 288.372 859.105 288.372 861.355C288.372 863.59 289.662 865.18 291.792 865.18ZM292.077 863.905C290.637 863.905 289.797 862.825 289.797 861.31C289.797 859.81 290.637 858.73 292.077 858.73C293.517 858.73 294.402 859.81 294.402 861.31C294.402 862.84 293.517 863.905 292.077 863.905ZM297.366 861.325C297.366 863.59 298.986 865.18 301.191 865.18C303.381 865.18 305.001 863.59 305.001 861.325C305.001 859.06 303.381 857.47 301.191 857.47C298.986 857.47 297.366 859.06 297.366 861.325ZM298.791 861.325C298.791 859.795 299.766 858.73 301.191 858.73C302.601 858.73 303.591 859.795 303.591 861.325C303.591 862.855 302.601 863.92 301.191 863.92C299.766 863.92 298.791 862.855 298.791 861.325Z" fill="#121419"/>
</svg>
