<svg width="147" height="45" viewBox="0 0 147 45" fill="none" xmlns="http://www.w3.org/2000/svg">
<path d="M25.5045 13.0001L26.7645 10.2421H31.9165L33.1765 13.0001H34.2965L30.0405 3.62012H28.6545L24.4125 13.0001H25.5045ZM28.7805 5.79012L29.2845 4.57212H29.3685L29.8865 5.79012L31.5105 9.34612H27.1705L28.7805 5.79012Z" fill="#121419"/>
<line x1="22.3425" y1="1.50012" x2="36.3425" y2="1.50012" stroke="#121419"/>
<line x1="22.3425" y1="15.5001" x2="36.3425" y2="15.5001" stroke="#121419"/>
<path d="M44.3425 15.5001L52.3425 9.00012L44.3425 2.50012" stroke="#121419"/>
<path d="M65.3225 14.1501C68.0675 14.1501 69.7325 13.1001 69.7325 11.1951C69.7325 9.80012 68.8625 8.99012 67.4075 8.73512V8.61512C68.6975 8.40512 69.3725 7.59512 69.3725 6.45512C69.3725 4.74512 67.9175 3.80012 65.3525 3.80012C62.2325 3.80012 60.7925 5.27012 60.7925 7.23512V7.37012H62.5025V7.26512C62.5025 5.94512 63.1625 5.33012 65.2175 5.33012C67.1675 5.33012 67.7675 5.79512 67.7675 6.77012C67.7675 7.67012 67.1375 8.12012 65.9225 8.12012H63.3425V9.47012H66.1475C67.4075 9.47012 68.0975 9.93512 68.0975 10.9551C68.0975 12.1401 67.3475 12.6201 65.2625 12.6201C63.0425 12.6201 62.5025 12.0051 62.5025 10.6851V10.4751H60.7925V10.7151C60.7925 12.7551 62.1725 14.1501 65.3225 14.1501ZM72.483 14.0001V9.81512C72.483 8.48012 73.008 7.77512 74.283 7.77512C75.393 7.77512 75.843 8.27012 75.843 9.33512V9.99512H77.448V9.02012C77.448 7.61012 76.713 6.39512 75.018 6.39512C73.488 6.39512 72.678 7.35512 72.453 8.55512H72.348V6.54512H70.863V14.0001H72.483ZM82.2156 14.1501C84.4356 14.1501 85.9956 13.0551 85.9956 11.4651V11.3301H84.3756V11.4501C84.3756 12.3351 83.7306 12.8451 82.1706 12.8451C80.4456 12.8451 79.7406 12.0801 79.6806 10.6401H86.0106C86.0556 10.4151 86.0706 10.2051 86.0706 9.93512C86.0706 7.67012 84.4956 6.39512 82.1856 6.39512C79.7556 6.39512 78.1656 7.95512 78.1656 10.2801C78.1656 12.7701 79.7706 14.1501 82.2156 14.1501ZM82.1556 7.67012C83.7456 7.67012 84.5406 8.33012 84.5406 9.71012V9.74012H79.6956C79.7856 8.40512 80.5056 7.67012 82.1556 7.67012ZM88.9039 14.0001V10.3101C88.9039 8.66012 89.4589 7.85012 91.0639 7.85012C92.5039 7.85012 93.0739 8.48012 93.0739 9.95012V14.0001H94.6789V10.3101C94.6789 8.66012 95.2489 7.85012 96.8389 7.85012C98.2789 7.85012 98.8639 8.48012 98.8639 9.95012V14.0001H100.469V9.51512C100.469 7.71512 99.4939 6.39512 97.5589 6.39512C95.6689 6.39512 94.8289 7.58012 94.6339 8.85512H94.5439C94.3339 7.43012 93.4189 6.39512 91.7239 6.39512C89.8639 6.39512 89.0539 7.55012 88.8589 8.79512H88.7689V6.54512H87.2839V14.0001H88.9039ZM102.593 14.3001L107.993 3.65012H106.268L100.868 14.3001H102.593ZM112.608 14.1501C115.353 14.1501 117.018 13.1001 117.018 11.1951C117.018 9.80012 116.148 8.99012 114.693 8.73512V8.61512C115.983 8.40512 116.658 7.59512 116.658 6.45512C116.658 4.74512 115.203 3.80012 112.638 3.80012C109.518 3.80012 108.078 5.27012 108.078 7.23512V7.37012H109.788V7.26512C109.788 5.94512 110.448 5.33012 112.503 5.33012C114.453 5.33012 115.053 5.79512 115.053 6.77012C115.053 7.67012 114.423 8.12012 113.208 8.12012H110.628V9.47012H113.433C114.693 9.47012 115.383 9.93512 115.383 10.9551C115.383 12.1401 114.633 12.6201 112.548 12.6201C110.328 12.6201 109.788 12.0051 109.788 10.6851V10.4751H108.078V10.7151C108.078 12.7551 109.458 14.1501 112.608 14.1501ZM122.798 14.1501C125.603 14.1501 127.163 12.8751 127.163 10.8951C127.163 8.90012 125.753 7.77512 123.278 7.77512C121.373 7.77512 120.128 8.54012 119.768 9.51512H119.633V8.72012C119.633 6.33512 120.458 5.33012 122.678 5.33012C124.463 5.33012 125.123 6.02012 125.123 7.08512V7.20512H126.908V7.08512C126.908 5.04512 125.183 3.80012 122.678 3.80012C119.618 3.80012 117.908 5.69012 117.908 8.93012C117.908 12.5901 119.363 14.1501 122.798 14.1501ZM122.708 12.6051C120.728 12.6051 119.828 11.9751 119.828 10.7151C119.828 9.57512 120.758 8.93012 122.723 8.93012C124.718 8.93012 125.483 9.53012 125.483 10.7751C125.483 12.0051 124.703 12.6051 122.708 12.6051ZM130.095 16.5501V11.9001H130.155C130.455 13.2651 131.535 14.1501 133.215 14.1501C135.54 14.1501 136.815 12.5901 136.815 10.2801C136.815 7.97012 135.51 6.39512 133.2 6.39512C131.445 6.39512 130.395 7.23512 130.095 8.61512H129.96V6.54512H128.475V16.5501H130.095ZM130.095 10.4001V10.2651C130.095 8.66012 131.025 7.88012 132.69 7.88012C134.25 7.88012 135.195 8.48012 135.195 10.2801C135.195 12.0651 134.265 12.6801 132.66 12.6801C131.07 12.6801 130.095 11.9301 130.095 10.4001ZM139.168 14.0001L141.613 11.1501H141.718L144.193 14.0001H146.158L142.948 10.2801V10.1901L146.158 6.54512H144.208L141.763 9.36512H141.673L139.198 6.54512H137.233L140.443 10.2201V10.3101L137.233 14.0001H139.168Z" fill="#121419"/>
<path d="M11.94 39.2001C14.24 39.2001 15.98 38.1601 16.56 36.3401H16.66V39.0001H17.94V32.8201C17.94 30.6401 16.66 28.9201 13.66 28.9201C10.62 28.9201 8.9 30.6201 8.9 32.7001V32.7801H10.32V32.7001C10.32 30.9601 11.44 30.2001 13.56 30.2001C15.72 30.2001 16.56 30.9601 16.56 32.8801V33.6401L11.86 34.1601C10.02 34.3601 8.68 35.0601 8.68 36.6801C8.68 38.2801 10 39.2001 11.94 39.2001ZM10.1 36.5801C10.1 35.5601 10.82 35.2001 12.3 35.0601L16.56 34.5801V34.6601C16.56 37.0401 14.66 38.1001 12.26 38.1001C10.76 38.1001 10.1 37.5801 10.1 36.5801Z" fill="#121419"/>
<path d="M1.97 39.1001C3.12 39.1001 3.99 38.5801 4.28 37.6701H4.33V39.0001H4.97V35.9101C4.97 34.8201 4.33 33.9601 2.83 33.9601C1.31 33.9601 0.45 34.8101 0.45 35.8501V35.8901H1.16V35.8501C1.16 34.9801 1.72 34.6001 2.78 34.6001C3.86 34.6001 4.28 34.9801 4.28 35.9401V36.3201L1.93 36.5801C1.01 36.6801 0.34 37.0301 0.34 37.8401C0.34 38.6401 1 39.1001 1.97 39.1001ZM1.05 37.7901C1.05 37.2801 1.41 37.1001 2.15 37.0301L4.28 36.7901V36.8301C4.28 38.0201 3.33 38.5501 2.13 38.5501C1.38 38.5501 1.05 38.2901 1.05 37.7901Z" fill="#121419"/>
<path d="M28 41.0001L36 34.5001L28 28.0001" stroke="#121419"/>
<path d="M52.925 39.5001V38.0451H48.62L46.19 38.2101C46.19 37.0701 46.655 36.5901 48.005 36.1251L50.12 35.4801C51.89 34.9401 52.955 34.0701 52.955 32.4201C52.955 30.6501 51.755 29.3001 48.905 29.3001C45.77 29.3001 44.495 30.9801 44.495 32.8401V32.9901H46.085V32.8101C46.085 31.4901 46.835 30.7851 48.845 30.7851C50.645 30.7851 51.335 31.3251 51.335 32.3901C51.335 33.2751 50.915 33.6801 49.715 34.1151L47.315 34.9401C45.245 35.6451 44.51 36.5751 44.51 38.4351V39.5001H52.925ZM55.8943 39.5001V37.1751H53.8543V39.5001H55.8943ZM64.6736 39.5001V37.4601H66.3986V36.0051H64.6736V29.4501H62.7986L56.6486 36.3351V37.4601H63.0686V39.5001H64.6736ZM58.8836 36.0051V35.8851L62.9486 31.3401H63.0686V36.0051H58.8836ZM69.0751 39.5001V35.3151C69.0751 33.9801 69.6001 33.2751 70.8751 33.2751C71.9851 33.2751 72.4351 33.7701 72.4351 34.8351V35.4951H74.0401V34.5201C74.0401 33.1101 73.3051 31.8951 71.6101 31.8951C70.0801 31.8951 69.2701 32.8551 69.0451 34.0551H68.9401V32.0451H67.4551V39.5001H69.0751ZM78.8076 39.6501C81.0276 39.6501 82.5876 38.5551 82.5876 36.9651V36.8301H80.9676V36.9501C80.9676 37.8351 80.3226 38.3451 78.7626 38.3451C77.0376 38.3451 76.3326 37.5801 76.2726 36.1401H82.6026C82.6476 35.9151 82.6626 35.7051 82.6626 35.4351C82.6626 33.1701 81.0876 31.8951 78.7776 31.8951C76.3476 31.8951 74.7576 33.4551 74.7576 35.7801C74.7576 38.2701 76.3626 39.6501 78.8076 39.6501ZM78.7476 33.1701C80.3376 33.1701 81.1326 33.8301 81.1326 35.2101V35.2401H76.2876C76.3776 33.9051 77.0976 33.1701 78.7476 33.1701ZM85.496 39.5001V35.8101C85.496 34.1601 86.051 33.3501 87.656 33.3501C89.096 33.3501 89.666 33.9801 89.666 35.4501V39.5001H91.271V35.8101C91.271 34.1601 91.841 33.3501 93.431 33.3501C94.871 33.3501 95.456 33.9801 95.456 35.4501V39.5001H97.061V35.0151C97.061 33.2151 96.086 31.8951 94.151 31.8951C92.261 31.8951 91.421 33.0801 91.226 34.3551H91.136C90.926 32.9301 90.011 31.8951 88.316 31.8951C86.456 31.8951 85.646 33.0501 85.451 34.2951H85.361V32.0451H83.876V39.5001H85.496ZM99.1848 39.8001L104.585 29.1501H102.86L97.4598 39.8001H99.1848ZM113.145 39.5001V38.0451H108.84L106.41 38.2101C106.41 37.0701 106.875 36.5901 108.225 36.1251L110.34 35.4801C112.11 34.9401 113.175 34.0701 113.175 32.4201C113.175 30.6501 111.975 29.3001 109.125 29.3001C105.99 29.3001 104.715 30.9801 104.715 32.8401V32.9901H106.305V32.8101C106.305 31.4901 107.055 30.7851 109.065 30.7851C110.865 30.7851 111.555 31.3251 111.555 32.3901C111.555 33.2751 111.135 33.6801 109.935 34.1151L107.535 34.9401C105.465 35.6451 104.73 36.5751 104.73 38.4351V39.5001H113.145ZM118.679 39.6501C121.709 39.6501 123.389 37.7151 123.389 34.4451C123.389 30.8301 121.949 29.3001 118.514 29.3001C115.694 29.3001 114.134 30.5751 114.134 32.5551C114.134 34.5501 115.544 35.6751 118.019 35.6751C119.924 35.6751 121.169 34.8801 121.544 33.8601H121.679V34.6551C121.679 37.0701 120.869 38.1201 118.679 38.1201C116.894 38.1201 116.219 37.4301 116.219 36.3651V36.2451H114.449V36.3651C114.449 38.4051 116.174 39.6501 118.679 39.6501ZM118.574 34.5201C116.579 34.5201 115.829 33.9201 115.829 32.6751C115.829 31.4451 116.594 30.8451 118.589 30.8451C120.584 30.8451 121.484 31.4601 121.484 32.6601C121.484 33.8451 120.539 34.5201 118.574 34.5201ZM126.321 42.0501V37.4001H126.381C126.681 38.7651 127.761 39.6501 129.441 39.6501C131.766 39.6501 133.041 38.0901 133.041 35.7801C133.041 33.4701 131.736 31.8951 129.426 31.8951C127.671 31.8951 126.621 32.7351 126.321 34.1151H126.186V32.0451H124.701V42.0501H126.321ZM126.321 35.9001V35.7651C126.321 34.1601 127.251 33.3801 128.916 33.3801C130.476 33.3801 131.421 33.9801 131.421 35.7801C131.421 37.5651 130.491 38.1801 128.886 38.1801C127.296 38.1801 126.321 37.4301 126.321 35.9001ZM135.394 39.5001L137.839 36.6501H137.944L140.419 39.5001H142.384L139.174 35.7801V35.6901L142.384 32.0451H140.434L137.989 34.8651H137.899L135.424 32.0451H133.459L136.669 35.7201V35.8101L133.459 39.5001H135.394Z" fill="#121419"/>
</svg>
