<svg width="139" height="45" viewBox="0 0 139 45" fill="none" xmlns="http://www.w3.org/2000/svg">
<path d="M4.22596 13L5.48596 10.242H10.638L11.898 13H13.018L8.76196 3.62H7.37597L3.13396 13H4.22596ZM7.50196 5.79L8.00597 4.572H8.08997L8.60797 5.79L10.232 9.346H5.89196L7.50196 5.79Z" fill="#121419"/>
<line x1="1.06396" y1="1.5" x2="15.064" y2="1.5" stroke="#121419"/>
<line x1="1.06396" y1="15.5" x2="15.064" y2="15.5" stroke="#121419"/>
<path d="M23.064 15.5L31.064 9L23.064 2.5" stroke="#121419"/>
<path d="M47.989 14V12.545H43.684L41.254 12.71C41.254 11.57 41.719 11.09 43.069 10.625L45.184 9.98C46.954 9.44 48.019 8.57 48.019 6.92C48.019 5.15 46.819 3.8 43.969 3.8C40.834 3.8 39.559 5.48 39.559 7.34V7.49H41.149V7.31C41.149 5.99 41.899 5.285 43.909 5.285C45.709 5.285 46.399 5.825 46.399 6.89C46.399 7.775 45.979 8.18 44.779 8.615L42.379 9.44C40.309 10.145 39.574 11.075 39.574 12.935V14H47.989ZM50.9583 14V11.675H48.9183V14H50.9583ZM56.4676 14.15C59.3026 14.15 60.8176 12.815 60.8176 10.73C60.8176 8.66 59.4376 7.535 57.0976 7.535C55.4326 7.535 54.2626 8.15 53.7526 8.705L53.6326 8.69L53.9926 5.405H60.3376V3.95H52.5826L52.0426 9.47L53.5426 9.575V9.545L53.6476 9.575C54.2176 9.065 55.0576 8.825 56.4976 8.825C58.3276 8.825 59.1226 9.35 59.1226 10.73C59.1226 12.14 58.2976 12.68 56.4976 12.68C54.4876 12.68 53.5876 12.155 53.5876 10.97V10.805H51.9376V10.97C51.9376 12.995 53.5276 14.15 56.4676 14.15ZM63.7142 14V9.815C63.7142 8.48 64.2392 7.775 65.5142 7.775C66.6242 7.775 67.0742 8.27 67.0742 9.335V9.995H68.6792V9.02C68.6792 7.61 67.9442 6.395 66.2492 6.395C64.7192 6.395 63.9092 7.355 63.6842 8.555H63.5792V6.545H62.0942V14H63.7142ZM73.4468 14.15C75.6668 14.15 77.2268 13.055 77.2268 11.465V11.33H75.6068V11.45C75.6068 12.335 74.9618 12.845 73.4018 12.845C71.6768 12.845 70.9718 12.08 70.9118 10.64H77.2418C77.2868 10.415 77.3018 10.205 77.3018 9.935C77.3018 7.67 75.7268 6.395 73.4168 6.395C70.9868 6.395 69.3968 7.955 69.3968 10.28C69.3968 12.77 71.0018 14.15 73.4468 14.15ZM73.3868 7.67C74.9768 7.67 75.7718 8.33 75.7718 9.71V9.74H70.9268C71.0168 8.405 71.7368 7.67 73.3868 7.67ZM80.1351 14V10.31C80.1351 8.66 80.6901 7.85 82.2951 7.85C83.7351 7.85 84.3051 8.48 84.3051 9.95V14H85.9101V10.31C85.9101 8.66 86.4801 7.85 88.0701 7.85C89.5101 7.85 90.0951 8.48 90.0951 9.95V14H91.7001V9.515C91.7001 7.715 90.7251 6.395 88.7901 6.395C86.9001 6.395 86.0601 7.58 85.8651 8.855H85.7751C85.5651 7.43 84.6501 6.395 82.9551 6.395C81.0951 6.395 80.2851 7.55 80.0901 8.795H80.0001V6.545H78.5151V14H80.1351ZM93.8239 14.3L99.2239 3.65H97.4989L92.0989 14.3H93.8239ZM103.839 14.15C106.584 14.15 108.249 13.1 108.249 11.195C108.249 9.8 107.379 8.99 105.924 8.735V8.615C107.214 8.405 107.889 7.595 107.889 6.455C107.889 4.745 106.434 3.8 103.869 3.8C100.749 3.8 99.3089 5.27 99.3089 7.235V7.37H101.019V7.265C101.019 5.945 101.679 5.33 103.734 5.33C105.684 5.33 106.284 5.795 106.284 6.77C106.284 7.67 105.654 8.12 104.439 8.12H101.859V9.47H104.664C105.924 9.47 106.614 9.935 106.614 10.955C106.614 12.14 105.864 12.62 103.779 12.62C101.559 12.62 101.019 12.005 101.019 10.685V10.475H99.3089V10.715C99.3089 12.755 100.689 14.15 103.839 14.15ZM113.909 14.15C116.939 14.15 118.739 12.17 118.739 8.975C118.739 5.795 116.939 3.8 113.909 3.8C110.879 3.8 109.079 5.795 109.079 8.975C109.079 12.17 110.879 14.15 113.909 14.15ZM113.909 12.59C111.764 12.59 110.789 11.48 110.789 8.975C110.789 6.47 111.764 5.36 113.909 5.36C116.054 5.36 117.014 6.47 117.014 8.975C117.014 11.48 116.054 12.59 113.909 12.59ZM121.561 16.55V11.9H121.621C121.921 13.265 123.001 14.15 124.681 14.15C127.006 14.15 128.281 12.59 128.281 10.28C128.281 7.97 126.976 6.395 124.666 6.395C122.911 6.395 121.861 7.235 121.561 8.615H121.426V6.545H119.941V16.55H121.561ZM121.561 10.4V10.265C121.561 8.66 122.491 7.88 124.156 7.88C125.716 7.88 126.661 8.48 126.661 10.28C126.661 12.065 125.731 12.68 124.126 12.68C122.536 12.68 121.561 11.93 121.561 10.4ZM130.634 14L133.079 11.15H133.184L135.659 14H137.624L134.414 10.28V10.19L137.624 6.545H135.674L133.229 9.365H133.139L130.664 6.545H128.699L131.909 10.22V10.31L128.699 14H130.634Z" fill="#121419"/>
<path d="M11.94 39.2C14.24 39.2 15.98 38.16 16.56 36.34H16.66V39H17.94V32.82C17.94 30.64 16.66 28.92 13.66 28.92C10.62 28.92 8.9 30.62 8.9 32.7V32.78H10.32V32.7C10.32 30.96 11.44 30.2 13.56 30.2C15.72 30.2 16.56 30.96 16.56 32.88V33.64L11.86 34.16C10.02 34.36 8.68 35.06 8.68 36.68C8.68 38.28 10 39.2 11.94 39.2ZM10.1 36.58C10.1 35.56 10.82 35.2 12.3 35.06L16.56 34.58V34.66C16.56 37.04 14.66 38.1 12.26 38.1C10.76 38.1 10.1 37.58 10.1 36.58Z" fill="#121419"/>
<path d="M1.97 39.1C3.12 39.1 3.99 38.58 4.28 37.67H4.33V39H4.97V35.91C4.97 34.82 4.33 33.96 2.83 33.96C1.31 33.96 0.45 34.81 0.45 35.85V35.89H1.16V35.85C1.16 34.98 1.72 34.6 2.78 34.6C3.86 34.6 4.28 34.98 4.28 35.94V36.32L1.93 36.58C1.01 36.68 0.34 37.03 0.34 37.84C0.34 38.64 1 39.1 1.97 39.1ZM1.05 37.79C1.05 37.28 1.41 37.1 2.15 37.03L4.28 36.79V36.83C4.28 38.02 3.33 38.55 2.13 38.55C1.38 38.55 1.05 38.29 1.05 37.79Z" fill="#121419"/>
<path d="M28 41L36 34.5L28 28" stroke="#121419"/>
<path d="M48.23 39.5V29.45H46.805C46.37 30.41 45.74 30.695 44.63 30.695H44.15V31.85H46.61V39.5H48.23ZM51.4705 39.5V37.175H49.4305V39.5H51.4705ZM56.9798 39.65C60.0098 39.65 61.6898 37.715 61.6898 34.445C61.6898 30.83 60.2498 29.3 56.8148 29.3C53.9948 29.3 52.4348 30.575 52.4348 32.555C52.4348 34.55 53.8448 35.675 56.3198 35.675C58.2248 35.675 59.4698 34.88 59.8448 33.86H59.9798V34.655C59.9798 37.07 59.1698 38.12 56.9798 38.12C55.1948 38.12 54.5198 37.43 54.5198 36.365V36.245H52.7498V36.365C52.7498 38.405 54.4748 39.65 56.9798 39.65ZM56.8748 34.52C54.8798 34.52 54.1298 33.92 54.1298 32.675C54.1298 31.445 54.8948 30.845 56.8898 30.845C58.8848 30.845 59.7848 31.46 59.7848 32.66C59.7848 33.845 58.8398 34.52 56.8748 34.52ZM64.622 39.5V35.315C64.622 33.98 65.147 33.275 66.422 33.275C67.532 33.275 67.982 33.77 67.982 34.835V35.495H69.587V34.52C69.587 33.11 68.852 31.895 67.157 31.895C65.627 31.895 64.817 32.855 64.592 34.055H64.487V32.045H63.002V39.5H64.622ZM74.3545 39.65C76.5745 39.65 78.1345 38.555 78.1345 36.965V36.83H76.5145V36.95C76.5145 37.835 75.8695 38.345 74.3095 38.345C72.5845 38.345 71.8795 37.58 71.8195 36.14H78.1495C78.1945 35.915 78.2095 35.705 78.2095 35.435C78.2095 33.17 76.6345 31.895 74.3245 31.895C71.8945 31.895 70.3045 33.455 70.3045 35.78C70.3045 38.27 71.9095 39.65 74.3545 39.65ZM74.2945 33.17C75.8845 33.17 76.6795 33.83 76.6795 35.21V35.24H71.8345C71.9245 33.905 72.6445 33.17 74.2945 33.17ZM81.0429 39.5V35.81C81.0429 34.16 81.5979 33.35 83.2029 33.35C84.6429 33.35 85.2129 33.98 85.2129 35.45V39.5H86.8179V35.81C86.8179 34.16 87.3879 33.35 88.9779 33.35C90.4179 33.35 91.0029 33.98 91.0029 35.45V39.5H92.6079V35.015C92.6079 33.215 91.6329 31.895 89.6979 31.895C87.8079 31.895 86.9679 33.08 86.7729 34.355H86.6829C86.4729 32.93 85.5579 31.895 83.8629 31.895C82.0029 31.895 81.1929 33.05 80.9979 34.295H80.9079V32.045H79.4229V39.5H81.0429ZM94.7316 39.8L100.132 29.15H98.4066L93.0066 39.8H94.7316ZM108.692 39.5V38.045H104.387L101.957 38.21C101.957 37.07 102.422 36.59 103.772 36.125L105.887 35.48C107.657 34.94 108.722 34.07 108.722 32.42C108.722 30.65 107.522 29.3 104.672 29.3C101.537 29.3 100.262 30.98 100.262 32.84V32.99H101.852V32.81C101.852 31.49 102.602 30.785 104.612 30.785C106.412 30.785 107.102 31.325 107.102 32.39C107.102 33.275 106.682 33.68 105.482 34.115L103.082 34.94C101.012 35.645 100.277 36.575 100.277 38.435V39.5H108.692ZM114.151 39.65C116.896 39.65 118.561 38.6 118.561 36.695C118.561 35.3 117.691 34.49 116.236 34.235V34.115C117.526 33.905 118.201 33.095 118.201 31.955C118.201 30.245 116.746 29.3 114.181 29.3C111.061 29.3 109.621 30.77 109.621 32.735V32.87H111.331V32.765C111.331 31.445 111.991 30.83 114.046 30.83C115.996 30.83 116.596 31.295 116.596 32.27C116.596 33.17 115.966 33.62 114.751 33.62H112.171V34.97H114.976C116.236 34.97 116.926 35.435 116.926 36.455C116.926 37.64 116.176 38.12 114.091 38.12C111.871 38.12 111.331 37.505 111.331 36.185V35.975H109.621V36.215C109.621 38.255 111.001 39.65 114.151 39.65ZM121.311 42.05V37.4H121.371C121.671 38.765 122.751 39.65 124.431 39.65C126.756 39.65 128.031 38.09 128.031 35.78C128.031 33.47 126.726 31.895 124.416 31.895C122.661 31.895 121.611 32.735 121.311 34.115H121.176V32.045H119.691V42.05H121.311ZM121.311 35.9V35.765C121.311 34.16 122.241 33.38 123.906 33.38C125.466 33.38 126.411 33.98 126.411 35.78C126.411 37.565 125.481 38.18 123.876 38.18C122.286 38.18 121.311 37.43 121.311 35.9ZM130.384 39.5L132.829 36.65H132.934L135.409 39.5H137.374L134.164 35.78V35.69L137.374 32.045H135.424L132.979 34.865H132.889L130.414 32.045H128.449L131.659 35.72V35.81L128.449 39.5H130.384Z" fill="#121419"/>
</svg>
