<svg width="134" height="45" viewBox="0 0 134 45" fill="none" xmlns="http://www.w3.org/2000/svg">
<path d="M12.8507 13L14.1107 10.242H19.2627L20.5227 13H21.6427L17.3867 3.62H16.0007L11.7587 13H12.8507ZM16.1267 5.79L16.6307 4.572H16.7147L17.2327 5.79L18.8567 9.346H14.5167L16.1267 5.79Z" fill="#121419"/>
<line x1="9.68872" y1="1.5" x2="23.6887" y2="1.5" stroke="#121419"/>
<line x1="9.68872" y1="15.5" x2="23.6887" y2="15.5" stroke="#121419"/>
<path d="M31.6887 15.5L39.6887 9L31.6887 2.5" stroke="#121419"/>
<path d="M57.4624 14V12.545H53.1574L50.7274 12.71C50.7274 11.57 51.1924 11.09 52.5424 10.625L54.6574 9.98C56.4274 9.44 57.4924 8.57 57.4924 6.92C57.4924 5.15 56.2924 3.8 53.4424 3.8C50.3074 3.8 49.0324 5.48 49.0324 7.34V7.49H50.6224V7.31C50.6224 5.99 51.3724 5.285 53.3824 5.285C55.1824 5.285 55.8724 5.825 55.8724 6.89C55.8724 7.775 55.4524 8.18 54.2524 8.615L51.8524 9.44C49.7824 10.145 49.0474 11.075 49.0474 12.935V14H57.4624ZM60.3117 14V9.815C60.3117 8.48 60.8367 7.775 62.1117 7.775C63.2217 7.775 63.6717 8.27 63.6717 9.335V9.995H65.2767V9.02C65.2767 7.61 64.5417 6.395 62.8467 6.395C61.3167 6.395 60.5067 7.355 60.2817 8.555H60.1767V6.545H58.6917V14H60.3117ZM70.0442 14.15C72.2642 14.15 73.8242 13.055 73.8242 11.465V11.33H72.2042V11.45C72.2042 12.335 71.5592 12.845 69.9992 12.845C68.2742 12.845 67.5692 12.08 67.5092 10.64H73.8392C73.8842 10.415 73.8992 10.205 73.8992 9.935C73.8992 7.67 72.3242 6.395 70.0142 6.395C67.5842 6.395 65.9942 7.955 65.9942 10.28C65.9942 12.77 67.5992 14.15 70.0442 14.15ZM69.9842 7.67C71.5742 7.67 72.3692 8.33 72.3692 9.71V9.74H67.5242C67.6142 8.405 68.3342 7.67 69.9842 7.67ZM76.7325 14V10.31C76.7325 8.66 77.2875 7.85 78.8925 7.85C80.3325 7.85 80.9025 8.48 80.9025 9.95V14H82.5075V10.31C82.5075 8.66 83.0775 7.85 84.6675 7.85C86.1075 7.85 86.6925 8.48 86.6925 9.95V14H88.2975V9.515C88.2975 7.715 87.3225 6.395 85.3875 6.395C83.4975 6.395 82.6575 7.58 82.4625 8.855H82.3725C82.1625 7.43 81.2475 6.395 79.5525 6.395C77.6925 6.395 76.8825 7.55 76.6875 8.795H76.5975V6.545H75.1125V14H76.7325ZM90.4213 14.3L95.8213 3.65H94.0963L88.6963 14.3H90.4213ZM104.381 14V12.545H100.076L97.6463 12.71C97.6463 11.57 98.1113 11.09 99.4613 10.625L101.576 9.98C103.346 9.44 104.411 8.57 104.411 6.92C104.411 5.15 103.211 3.8 100.361 3.8C97.2263 3.8 95.9513 5.48 95.9513 7.34V7.49H97.5413V7.31C97.5413 5.99 98.2913 5.285 100.301 5.285C102.101 5.285 102.791 5.825 102.791 6.89C102.791 7.775 102.371 8.18 101.171 8.615L98.7713 9.44C96.7013 10.145 95.9663 11.075 95.9663 12.935V14H104.381ZM113.186 14V11.96H114.911V10.505H113.186V3.95H111.311L105.161 10.835V11.96H111.581V14H113.186ZM107.396 10.505V10.385L111.461 5.84H111.581V10.505H107.396ZM117.587 16.55V11.9H117.647C117.947 13.265 119.027 14.15 120.707 14.15C123.032 14.15 124.307 12.59 124.307 10.28C124.307 7.97 123.002 6.395 120.692 6.395C118.937 6.395 117.887 7.235 117.587 8.615H117.452V6.545H115.967V16.55H117.587ZM117.587 10.4V10.265C117.587 8.66 118.517 7.88 120.182 7.88C121.742 7.88 122.687 8.48 122.687 10.28C122.687 12.065 121.757 12.68 120.152 12.68C118.562 12.68 117.587 11.93 117.587 10.4ZM126.66 14L129.105 11.15H129.21L131.685 14H133.65L130.44 10.28V10.19L133.65 6.545H131.7L129.255 9.365H129.165L126.69 6.545H124.725L127.935 10.22V10.31L124.725 14H126.66Z" fill="#121419"/>
<path d="M11.94 39.2C14.24 39.2 15.98 38.16 16.56 36.34H16.66V39H17.94V32.82C17.94 30.64 16.66 28.92 13.66 28.92C10.62 28.92 8.9 30.62 8.9 32.7V32.78H10.32V32.7C10.32 30.96 11.44 30.2 13.56 30.2C15.72 30.2 16.56 30.96 16.56 32.88V33.64L11.86 34.16C10.02 34.36 8.68 35.06 8.68 36.68C8.68 38.28 10 39.2 11.94 39.2ZM10.1 36.58C10.1 35.56 10.82 35.2 12.3 35.06L16.56 34.58V34.66C16.56 37.04 14.66 38.1 12.26 38.1C10.76 38.1 10.1 37.58 10.1 36.58Z" fill="#121419"/>
<path d="M1.97 39.1C3.12 39.1 3.99 38.58 4.28 37.67H4.33V39H4.97V35.91C4.97 34.82 4.33 33.96 2.83 33.96C1.31 33.96 0.45 34.81 0.45 35.85V35.89H1.16V35.85C1.16 34.98 1.72 34.6 2.78 34.6C3.86 34.6 4.28 34.98 4.28 35.94V36.32L1.93 36.58C1.01 36.68 0.34 37.03 0.34 37.84C0.34 38.64 1 39.1 1.97 39.1ZM1.05 37.79C1.05 37.28 1.41 37.1 2.15 37.03L4.28 36.79V36.83C4.28 38.02 3.33 38.55 2.13 38.55C1.38 38.55 1.05 38.29 1.05 37.79Z" fill="#121419"/>
<path d="M28 41L36 34.5L28 28" stroke="#121419"/>
<path d="M48.23 39.5V29.45H46.805C46.37 30.41 45.74 30.695 44.63 30.695H44.15V31.85H46.61V39.5H48.23ZM51.4705 39.5V37.175H49.4305V39.5H51.4705ZM56.9798 39.65C59.8148 39.65 61.3298 38.315 61.3298 36.23C61.3298 34.16 59.9498 33.035 57.6098 33.035C55.9448 33.035 54.7748 33.65 54.2648 34.205L54.1448 34.19L54.5048 30.905H60.8498V29.45H53.0948L52.5548 34.97L54.0548 35.075V35.045L54.1598 35.075C54.7298 34.565 55.5698 34.325 57.0098 34.325C58.8398 34.325 59.6348 34.85 59.6348 36.23C59.6348 37.64 58.8098 38.18 57.0098 38.18C54.9998 38.18 54.0998 37.655 54.0998 36.47V36.305H52.4498V36.47C52.4498 38.495 54.0398 39.65 56.9798 39.65ZM64.2264 39.5V35.315C64.2264 33.98 64.7514 33.275 66.0264 33.275C67.1364 33.275 67.5864 33.77 67.5864 34.835V35.495H69.1914V34.52C69.1914 33.11 68.4564 31.895 66.7614 31.895C65.2314 31.895 64.4214 32.855 64.1964 34.055H64.0914V32.045H62.6064V39.5H64.2264ZM73.959 39.65C76.179 39.65 77.739 38.555 77.739 36.965V36.83H76.119V36.95C76.119 37.835 75.474 38.345 73.914 38.345C72.189 38.345 71.484 37.58 71.424 36.14H77.754C77.799 35.915 77.814 35.705 77.814 35.435C77.814 33.17 76.239 31.895 73.929 31.895C71.499 31.895 69.909 33.455 69.909 35.78C69.909 38.27 71.514 39.65 73.959 39.65ZM73.899 33.17C75.489 33.17 76.284 33.83 76.284 35.21V35.24H71.439C71.529 33.905 72.249 33.17 73.899 33.17ZM80.6473 39.5V35.81C80.6473 34.16 81.2023 33.35 82.8073 33.35C84.2473 33.35 84.8173 33.98 84.8173 35.45V39.5H86.4223V35.81C86.4223 34.16 86.9923 33.35 88.5823 33.35C90.0223 33.35 90.6073 33.98 90.6073 35.45V39.5H92.2123V35.015C92.2123 33.215 91.2373 31.895 89.3023 31.895C87.4123 31.895 86.5723 33.08 86.3773 34.355H86.2873C86.0773 32.93 85.1623 31.895 83.4673 31.895C81.6073 31.895 80.7973 33.05 80.6023 34.295H80.5123V32.045H79.0273V39.5H80.6473ZM94.3361 39.8L99.7361 29.15H98.0111L92.6111 39.8H94.3361ZM103.601 39.5V29.45H102.176C101.741 30.41 101.111 30.695 100.001 30.695H99.5211V31.85H101.981V39.5H103.601ZM109.302 39.65C112.107 39.65 113.907 38.705 113.907 36.755C113.907 35.375 113.007 34.55 111.447 34.235V34.115C112.857 33.905 113.622 33.08 113.622 31.925C113.622 30.35 112.152 29.3 109.302 29.3C106.452 29.3 104.982 30.35 104.982 31.925C104.982 33.08 105.762 33.905 107.142 34.115V34.235C105.657 34.55 104.697 35.375 104.697 36.755C104.697 38.705 106.467 39.65 109.302 39.65ZM109.302 33.725C107.367 33.725 106.602 33.26 106.602 32.285C106.602 31.355 107.217 30.83 109.302 30.83C111.402 30.83 112.017 31.355 112.017 32.285C112.017 33.26 111.252 33.725 109.302 33.725ZM109.302 38.12C107.112 38.12 106.332 37.625 106.332 36.455C106.332 35.36 107.127 34.835 109.302 34.835C111.477 34.835 112.272 35.36 112.272 36.455C112.272 37.625 111.477 38.12 109.302 38.12ZM116.609 42.05V37.4H116.669C116.969 38.765 118.049 39.65 119.729 39.65C122.054 39.65 123.329 38.09 123.329 35.78C123.329 33.47 122.024 31.895 119.714 31.895C117.959 31.895 116.909 32.735 116.609 34.115H116.474V32.045H114.989V42.05H116.609ZM116.609 35.9V35.765C116.609 34.16 117.539 33.38 119.204 33.38C120.764 33.38 121.709 33.98 121.709 35.78C121.709 37.565 120.779 38.18 119.174 38.18C117.584 38.18 116.609 37.43 116.609 35.9ZM125.682 39.5L128.127 36.65H128.232L130.707 39.5H132.672L129.462 35.78V35.69L132.672 32.045H130.722L128.277 34.865H128.187L125.712 32.045H123.747L126.957 35.72V35.81L123.747 39.5H125.682Z" fill="#121419"/>
</svg>
