<svg width="145" height="45" viewBox="0 0 145 45" fill="none" xmlns="http://www.w3.org/2000/svg">
<path d="M14.49 13L15.75 10.242H20.902L22.162 13H23.282L19.026 3.62H17.64L13.398 13H14.49ZM17.766 5.79L18.27 4.572H18.354L18.872 5.79L20.496 9.346H16.156L17.766 5.79Z" fill="#121419"/>
<line x1="11.328" y1="1.5" x2="25.328" y2="1.5" stroke="#121419"/>
<line x1="11.328" y1="15.5" x2="25.328" y2="15.5" stroke="#121419"/>
<path d="M33.328 15.5L41.328 9L33.328 2.5" stroke="#121419"/>
<path d="M53.558 14V3.95H52.133C51.698 4.91 51.068 5.195 49.958 5.195H49.478V6.35H51.938V14H53.558ZM56.7985 14V11.675H54.7585V14H56.7985ZM62.6528 14.15C65.4578 14.15 67.0178 12.875 67.0178 10.895C67.0178 8.9 65.6078 7.775 63.1328 7.775C61.2278 7.775 59.9828 8.54 59.6228 9.515H59.4878V8.72C59.4878 6.335 60.3128 5.33 62.5328 5.33C64.3178 5.33 64.9778 6.02 64.9778 7.085V7.205H66.7628V7.085C66.7628 5.045 65.0378 3.8 62.5328 3.8C59.4728 3.8 57.7628 5.69 57.7628 8.93C57.7628 12.59 59.2178 14.15 62.6528 14.15ZM62.5628 12.605C60.5828 12.605 59.6828 11.975 59.6828 10.715C59.6828 9.575 60.6128 8.93 62.5778 8.93C64.5728 8.93 65.3378 9.53 65.3378 10.775C65.3378 12.005 64.5578 12.605 62.5628 12.605ZM69.95 14V9.815C69.95 8.48 70.475 7.775 71.75 7.775C72.86 7.775 73.31 8.27 73.31 9.335V9.995H74.915V9.02C74.915 7.61 74.18 6.395 72.485 6.395C70.955 6.395 70.145 7.355 69.92 8.555H69.815V6.545H68.33V14H69.95ZM79.6825 14.15C81.9025 14.15 83.4625 13.055 83.4625 11.465V11.33H81.8425V11.45C81.8425 12.335 81.1975 12.845 79.6375 12.845C77.9125 12.845 77.2075 12.08 77.1475 10.64H83.4775C83.5225 10.415 83.5375 10.205 83.5375 9.935C83.5375 7.67 81.9625 6.395 79.6525 6.395C77.2225 6.395 75.6325 7.955 75.6325 10.28C75.6325 12.77 77.2375 14.15 79.6825 14.15ZM79.6225 7.67C81.2125 7.67 82.0075 8.33 82.0075 9.71V9.74H77.1625C77.2525 8.405 77.9725 7.67 79.6225 7.67ZM86.3709 14V10.31C86.3709 8.66 86.9259 7.85 88.5309 7.85C89.9709 7.85 90.5409 8.48 90.5409 9.95V14H92.1459V10.31C92.1459 8.66 92.7159 7.85 94.3059 7.85C95.7459 7.85 96.3309 8.48 96.3309 9.95V14H97.9359V9.515C97.9359 7.715 96.9609 6.395 95.0259 6.395C93.1359 6.395 92.2959 7.58 92.1009 8.855H92.0109C91.8009 7.43 90.8859 6.395 89.1909 6.395C87.3309 6.395 86.5209 7.55 86.3259 8.795H86.2359V6.545H84.7509V14H86.3709ZM100.06 14.3L105.46 3.65H103.735L98.3346 14.3H100.06ZM114.02 14V12.545H109.715L107.285 12.71C107.285 11.57 107.75 11.09 109.1 10.625L111.215 9.98C112.985 9.44 114.05 8.57 114.05 6.92C114.05 5.15 112.85 3.8 110 3.8C106.865 3.8 105.59 5.48 105.59 7.34V7.49H107.18V7.31C107.18 5.99 107.93 5.285 109.94 5.285C111.74 5.285 112.43 5.825 112.43 6.89C112.43 7.775 112.01 8.18 110.81 8.615L108.41 9.44C106.34 10.145 105.605 11.075 105.605 12.935V14H114.02ZM119.779 14.15C122.809 14.15 124.609 12.17 124.609 8.975C124.609 5.795 122.809 3.8 119.779 3.8C116.749 3.8 114.949 5.795 114.949 8.975C114.949 12.17 116.749 14.15 119.779 14.15ZM119.779 12.59C117.634 12.59 116.659 11.48 116.659 8.975C116.659 6.47 117.634 5.36 119.779 5.36C121.924 5.36 122.884 6.47 122.884 8.975C122.884 11.48 121.924 12.59 119.779 12.59ZM127.43 16.55V11.9H127.49C127.79 13.265 128.87 14.15 130.55 14.15C132.875 14.15 134.15 12.59 134.15 10.28C134.15 7.97 132.845 6.395 130.535 6.395C128.78 6.395 127.73 7.235 127.43 8.615H127.295V6.545H125.81V16.55H127.43ZM127.43 10.4V10.265C127.43 8.66 128.36 7.88 130.025 7.88C131.585 7.88 132.53 8.48 132.53 10.28C132.53 12.065 131.6 12.68 129.995 12.68C128.405 12.68 127.43 11.93 127.43 10.4ZM136.503 14L138.948 11.15H139.053L141.528 14H143.493L140.283 10.28V10.19L143.493 6.545H141.543L139.098 9.365H139.008L136.533 6.545H134.568L137.778 10.22V10.31L134.568 14H136.503Z" fill="#121419"/>
<path d="M11.94 39.2C14.24 39.2 15.98 38.16 16.56 36.34H16.66V39H17.94V32.82C17.94 30.64 16.66 28.92 13.66 28.92C10.62 28.92 8.9 30.62 8.9 32.7V32.78H10.32V32.7C10.32 30.96 11.44 30.2 13.56 30.2C15.72 30.2 16.56 30.96 16.56 32.88V33.64L11.86 34.16C10.02 34.36 8.68 35.06 8.68 36.68C8.68 38.28 10 39.2 11.94 39.2ZM10.1 36.58C10.1 35.56 10.82 35.2 12.3 35.06L16.56 34.58V34.66C16.56 37.04 14.66 38.1 12.26 38.1C10.76 38.1 10.1 37.58 10.1 36.58Z" fill="#121419"/>
<path d="M1.97 39.1C3.12 39.1 3.99 38.58 4.28 37.67H4.33V39H4.97V35.91C4.97 34.82 4.33 33.96 2.83 33.96C1.31 33.96 0.45 34.81 0.45 35.85V35.89H1.16V35.85C1.16 34.98 1.72 34.6 2.78 34.6C3.86 34.6 4.28 34.98 4.28 35.94V36.32L1.93 36.58C1.01 36.68 0.34 37.03 0.34 37.84C0.34 38.64 1 39.1 1.97 39.1ZM1.05 37.79C1.05 37.28 1.41 37.1 2.15 37.03L4.28 36.79V36.83C4.28 38.02 3.33 38.55 2.13 38.55C1.38 38.55 1.05 38.29 1.05 37.79Z" fill="#121419"/>
<path d="M28 41L36 34.5L28 28" stroke="#121419"/>
<path d="M49.0708 39.5V29.45H47.6458C47.2108 30.41 46.5808 30.695 45.4708 30.695H44.9908V31.85H47.4508V39.5H49.0708ZM52.3113 39.5V37.175H50.2713V39.5H52.3113ZM61.6906 39.5V38.045H57.3856L54.9556 38.21C54.9556 37.07 55.4206 36.59 56.7706 36.125L58.8856 35.48C60.6556 34.94 61.7206 34.07 61.7206 32.42C61.7206 30.65 60.5206 29.3 57.6706 29.3C54.5356 29.3 53.2606 30.98 53.2606 32.84V32.99H54.8506V32.81C54.8506 31.49 55.6006 30.785 57.6106 30.785C59.4106 30.785 60.1006 31.325 60.1006 32.39C60.1006 33.275 59.6806 33.68 58.4806 34.115L56.0806 34.94C54.0106 35.645 53.2756 36.575 53.2756 38.435V39.5H61.6906ZM67.2249 39.65C70.0599 39.65 71.5749 38.315 71.5749 36.23C71.5749 34.16 70.1949 33.035 67.8549 33.035C66.1899 33.035 65.0199 33.65 64.5099 34.205L64.3899 34.19L64.7499 30.905H71.0949V29.45H63.3399L62.7999 34.97L64.2999 35.075V35.045L64.4049 35.075C64.9749 34.565 65.8149 34.325 67.2549 34.325C69.0849 34.325 69.8799 34.85 69.8799 36.23C69.8799 37.64 69.0549 38.18 67.2549 38.18C65.2449 38.18 64.3449 37.655 64.3449 36.47V36.305H62.6949V36.47C62.6949 38.495 64.2849 39.65 67.2249 39.65ZM74.4716 39.5V35.315C74.4716 33.98 74.9966 33.275 76.2716 33.275C77.3816 33.275 77.8316 33.77 77.8316 34.835V35.495H79.4366V34.52C79.4366 33.11 78.7016 31.895 77.0066 31.895C75.4766 31.895 74.6666 32.855 74.4416 34.055H74.3366V32.045H72.8516V39.5H74.4716ZM84.2041 39.65C86.4241 39.65 87.9841 38.555 87.9841 36.965V36.83H86.3641V36.95C86.3641 37.835 85.7191 38.345 84.1591 38.345C82.4341 38.345 81.7291 37.58 81.6691 36.14H87.9991C88.0441 35.915 88.0591 35.705 88.0591 35.435C88.0591 33.17 86.4841 31.895 84.1741 31.895C81.7441 31.895 80.1541 33.455 80.1541 35.78C80.1541 38.27 81.7591 39.65 84.2041 39.65ZM84.1441 33.17C85.7341 33.17 86.5291 33.83 86.5291 35.21V35.24H81.6841C81.7741 33.905 82.4941 33.17 84.1441 33.17ZM90.8925 39.5V35.81C90.8925 34.16 91.4475 33.35 93.0525 33.35C94.4925 33.35 95.0625 33.98 95.0625 35.45V39.5H96.6675V35.81C96.6675 34.16 97.2375 33.35 98.8275 33.35C100.267 33.35 100.852 33.98 100.852 35.45V39.5H102.457V35.015C102.457 33.215 101.482 31.895 99.5475 31.895C97.6575 31.895 96.8175 33.08 96.6225 34.355H96.5325C96.3225 32.93 95.4075 31.895 93.7125 31.895C91.8525 31.895 91.0425 33.05 90.8475 34.295H90.7575V32.045H89.2725V39.5H90.8925ZM104.581 39.8L109.981 29.15H108.256L102.856 39.8H104.581ZM113.846 39.5V29.45H112.421C111.986 30.41 111.356 30.695 110.246 30.695H109.766V31.85H112.226V39.5H113.846ZM119.652 39.65C122.487 39.65 124.002 38.315 124.002 36.23C124.002 34.16 122.622 33.035 120.282 33.035C118.617 33.035 117.447 33.65 116.937 34.205L116.817 34.19L117.177 30.905H123.522V29.45H115.767L115.227 34.97L116.727 35.075V35.045L116.832 35.075C117.402 34.565 118.242 34.325 119.682 34.325C121.512 34.325 122.307 34.85 122.307 36.23C122.307 37.64 121.482 38.18 119.682 38.18C117.672 38.18 116.772 37.655 116.772 36.47V36.305H115.122V36.47C115.122 38.495 116.712 39.65 119.652 39.65ZM126.898 42.05V37.4H126.958C127.258 38.765 128.338 39.65 130.018 39.65C132.343 39.65 133.618 38.09 133.618 35.78C133.618 33.47 132.313 31.895 130.003 31.895C128.248 31.895 127.198 32.735 126.898 34.115H126.763V32.045H125.278V42.05H126.898ZM126.898 35.9V35.765C126.898 34.16 127.828 33.38 129.493 33.38C131.053 33.38 131.998 33.98 131.998 35.78C131.998 37.565 131.068 38.18 129.463 38.18C127.873 38.18 126.898 37.43 126.898 35.9ZM135.971 39.5L138.416 36.65H138.521L140.996 39.5H142.961L139.751 35.78V35.69L142.961 32.045H141.011L138.566 34.865H138.476L136.001 32.045H134.036L137.246 35.72V35.81L134.036 39.5H135.971Z" fill="#121419"/>
</svg>
