<svg width="128" height="45" viewBox="0 0 128 45" fill="none" xmlns="http://www.w3.org/2000/svg">
<path d="M3.162 13L4.422 10.242H9.574L10.834 13H11.954L7.698 3.62H6.312L2.07 13H3.162ZM6.438 5.79L6.942 4.572H7.026L7.544 5.79L9.168 9.346H4.828L6.438 5.79Z" fill="#121419"/>
<line y1="1.5" x2="14" y2="1.5" stroke="#121419"/>
<line y1="15.5" x2="14" y2="15.5" stroke="#121419"/>
<path d="M22 15.5L30 9L22 2.5" stroke="#121419"/>
<path d="M42.23 14V3.95H40.805C40.37 4.91 39.74 5.195 38.63 5.195H38.15V6.35H40.61V14H42.23ZM45.4705 14V11.675H43.4305V14H45.4705ZM50.9048 14.15C53.6498 14.15 55.3148 13.1 55.3148 11.195C55.3148 9.8 54.4448 8.99 52.9898 8.735V8.615C54.2798 8.405 54.9548 7.595 54.9548 6.455C54.9548 4.745 53.4998 3.8 50.9348 3.8C47.8148 3.8 46.3748 5.27 46.3748 7.235V7.37H48.0848V7.265C48.0848 5.945 48.7448 5.33 50.7998 5.33C52.7498 5.33 53.3498 5.795 53.3498 6.77C53.3498 7.67 52.7198 8.12 51.5048 8.12H48.9248V9.47H51.7298C52.9898 9.47 53.6798 9.935 53.6798 10.955C53.6798 12.14 52.9298 12.62 50.8448 12.62C48.6248 12.62 48.0848 12.005 48.0848 10.685V10.475H46.3748V10.715C46.3748 12.755 47.7548 14.15 50.9048 14.15ZM58.0653 14V9.815C58.0653 8.48 58.5903 7.775 59.8653 7.775C60.9753 7.775 61.4253 8.27 61.4253 9.335V9.995H63.0303V9.02C63.0303 7.61 62.2953 6.395 60.6003 6.395C59.0703 6.395 58.2603 7.355 58.0353 8.555H57.9303V6.545H56.4453V14H58.0653ZM67.7979 14.15C70.0179 14.15 71.5779 13.055 71.5779 11.465V11.33H69.9579V11.45C69.9579 12.335 69.3129 12.845 67.7529 12.845C66.0279 12.845 65.3229 12.08 65.2629 10.64H71.5929C71.6379 10.415 71.6529 10.205 71.6529 9.935C71.6529 7.67 70.0779 6.395 67.7679 6.395C65.3379 6.395 63.7479 7.955 63.7479 10.28C63.7479 12.77 65.3529 14.15 67.7979 14.15ZM67.7379 7.67C69.3279 7.67 70.1229 8.33 70.1229 9.71V9.74H65.2779C65.3679 8.405 66.0879 7.67 67.7379 7.67ZM74.4862 14V10.31C74.4862 8.66 75.0412 7.85 76.6462 7.85C78.0862 7.85 78.6562 8.48 78.6562 9.95V14H80.2612V10.31C80.2612 8.66 80.8312 7.85 82.4212 7.85C83.8612 7.85 84.4462 8.48 84.4462 9.95V14H86.0512V9.515C86.0512 7.715 85.0762 6.395 83.1412 6.395C81.2512 6.395 80.4112 7.58 80.2162 8.855H80.1262C79.9162 7.43 79.0012 6.395 77.3062 6.395C75.4462 6.395 74.6362 7.55 74.4412 8.795H74.3512V6.545H72.8662V14H74.4862ZM88.175 14.3L93.575 3.65H91.85L86.45 14.3H88.175ZM97.44 14V3.95H96.015C95.58 4.91 94.95 5.195 93.84 5.195H93.36V6.35H95.82V14H97.44ZM103.59 14.15C106.395 14.15 107.955 12.875 107.955 10.895C107.955 8.9 106.545 7.775 104.07 7.775C102.165 7.775 100.92 8.54 100.56 9.515H100.425V8.72C100.425 6.335 101.25 5.33 103.47 5.33C105.255 5.33 105.915 6.02 105.915 7.085V7.205H107.7V7.085C107.7 5.045 105.975 3.8 103.47 3.8C100.41 3.8 98.7004 5.69 98.7004 8.93C98.7004 12.59 100.155 14.15 103.59 14.15ZM103.5 12.605C101.52 12.605 100.62 11.975 100.62 10.715C100.62 9.575 101.55 8.93 103.515 8.93C105.51 8.93 106.275 9.53 106.275 10.775C106.275 12.005 105.495 12.605 103.5 12.605ZM110.888 16.55V11.9H110.948C111.248 13.265 112.328 14.15 114.008 14.15C116.333 14.15 117.608 12.59 117.608 10.28C117.608 7.97 116.303 6.395 113.993 6.395C112.238 6.395 111.188 7.235 110.888 8.615H110.753V6.545H109.268V16.55H110.888ZM110.888 10.4V10.265C110.888 8.66 111.818 7.88 113.483 7.88C115.043 7.88 115.988 8.48 115.988 10.28C115.988 12.065 115.058 12.68 113.453 12.68C111.863 12.68 110.888 11.93 110.888 10.4ZM119.96 14L122.405 11.15H122.51L124.985 14H126.95L123.74 10.28V10.19L126.95 6.545H125L122.555 9.365H122.465L119.99 6.545H118.025L121.235 10.22V10.31L118.025 14H119.96Z" fill="#121419"/>
<path d="M19.3875 39.2C21.6875 39.2 23.4275 38.16 24.0075 36.34H24.1075V39H25.3875V32.82C25.3875 30.64 24.1075 28.92 21.1075 28.92C18.0675 28.92 16.3475 30.62 16.3475 32.7V32.78H17.7675V32.7C17.7675 30.96 18.8875 30.2 21.0075 30.2C23.1675 30.2 24.0075 30.96 24.0075 32.88V33.64L19.3075 34.16C17.4675 34.36 16.1275 35.06 16.1275 36.68C16.1275 38.28 17.4475 39.2 19.3875 39.2ZM17.5475 36.58C17.5475 35.56 18.2675 35.2 19.7475 35.06L24.0075 34.58V34.66C24.0075 37.04 22.1075 38.1 19.7075 38.1C18.2075 38.1 17.5475 37.58 17.5475 36.58Z" fill="#121419"/>
<path d="M9.41751 39.1C10.5675 39.1 11.4375 38.58 11.7275 37.67H11.7775V39H12.4175V35.91C12.4175 34.82 11.7775 33.96 10.2775 33.96C8.75751 33.96 7.89751 34.81 7.89751 35.85V35.89H8.60751V35.85C8.60751 34.98 9.16751 34.6 10.2275 34.6C11.3075 34.6 11.7275 34.98 11.7275 35.94V36.32L9.37751 36.58C8.45751 36.68 7.78751 37.03 7.78751 37.84C7.78751 38.64 8.44751 39.1 9.41751 39.1ZM8.49751 37.79C8.49751 37.28 8.85751 37.1 9.59751 37.03L11.7275 36.79V36.83C11.7275 38.02 10.7775 38.55 9.57751 38.55C8.82751 38.55 8.49751 38.29 8.49751 37.79Z" fill="#121419"/>
<path d="M35.4475 41L43.4475 34.5L35.4475 28" stroke="#121419"/>
<path d="M55.6775 39.5V29.45H54.2525C53.8175 30.41 53.1875 30.695 52.0775 30.695H51.5975V31.85H54.0575V39.5H55.6775ZM58.798 39.5V35.315C58.798 33.98 59.323 33.275 60.598 33.275C61.708 33.275 62.158 33.77 62.158 34.835V35.495H63.763V34.52C63.763 33.11 63.028 31.895 61.333 31.895C59.803 31.895 58.993 32.855 58.768 34.055H58.663V32.045H57.178V39.5H58.798ZM68.5305 39.65C70.7505 39.65 72.3105 38.555 72.3105 36.965V36.83H70.6905V36.95C70.6905 37.835 70.0455 38.345 68.4855 38.345C66.7605 38.345 66.0555 37.58 65.9955 36.14H72.3255C72.3705 35.915 72.3855 35.705 72.3855 35.435C72.3855 33.17 70.8105 31.895 68.5005 31.895C66.0705 31.895 64.4805 33.455 64.4805 35.78C64.4805 38.27 66.0855 39.65 68.5305 39.65ZM68.4705 33.17C70.0605 33.17 70.8555 33.83 70.8555 35.21V35.24H66.0105C66.1005 33.905 66.8205 33.17 68.4705 33.17ZM75.2189 39.5V35.81C75.2189 34.16 75.7739 33.35 77.3789 33.35C78.8189 33.35 79.3889 33.98 79.3889 35.45V39.5H80.9939V35.81C80.9939 34.16 81.5639 33.35 83.1539 33.35C84.5939 33.35 85.1789 33.98 85.1789 35.45V39.5H86.7839V35.015C86.7839 33.215 85.8089 31.895 83.8739 31.895C81.9839 31.895 81.1439 33.08 80.9489 34.355H80.8589C80.6489 32.93 79.7339 31.895 78.0389 31.895C76.1789 31.895 75.3689 33.05 75.1739 34.295H75.0839V32.045H73.5989V39.5H75.2189ZM88.9077 39.8L94.3077 29.15H92.5827L87.1827 39.8H88.9077ZM98.1726 39.5V29.45H96.7476C96.3126 30.41 95.6826 30.695 94.5726 30.695H94.0926V31.85H96.5526V39.5H98.1726ZM107.848 39.5V38.045H103.543L101.113 38.21C101.113 37.07 101.578 36.59 102.928 36.125L105.043 35.48C106.813 34.94 107.878 34.07 107.878 32.42C107.878 30.65 106.678 29.3 103.828 29.3C100.693 29.3 99.4181 30.98 99.4181 32.84V32.99H101.008V32.81C101.008 31.49 101.758 30.785 103.768 30.785C105.568 30.785 106.258 31.325 106.258 32.39C106.258 33.275 105.838 33.68 104.638 34.115L102.238 34.94C100.168 35.645 99.4331 36.575 99.4331 38.435V39.5H107.848ZM110.697 42.05V37.4H110.757C111.057 38.765 112.137 39.65 113.817 39.65C116.142 39.65 117.417 38.09 117.417 35.78C117.417 33.47 116.112 31.895 113.802 31.895C112.047 31.895 110.997 32.735 110.697 34.115H110.562V32.045H109.077V42.05H110.697ZM110.697 35.9V35.765C110.697 34.16 111.627 33.38 113.292 33.38C114.852 33.38 115.797 33.98 115.797 35.78C115.797 37.565 114.867 38.18 113.262 38.18C111.672 38.18 110.697 37.43 110.697 35.9ZM119.77 39.5L122.215 36.65H122.32L124.795 39.5H126.76L123.55 35.78V35.69L126.76 32.045H124.81L122.365 34.865H122.275L119.8 32.045H117.835L121.045 35.72V35.81L117.835 39.5H119.77Z" fill="#121419"/>
</svg>
