<svg width="144" height="45" viewBox="0 0 144 45" fill="none" xmlns="http://www.w3.org/2000/svg">
<path d="M32.952 13L34.212 10.242H39.364L40.624 13H41.744L37.488 3.62H36.102L31.86 13H32.952ZM36.228 5.79L36.732 4.572H36.816L37.334 5.79L38.958 9.346H34.618L36.228 5.79Z" fill="#121419"/>
<line x1="29.79" y1="1.5" x2="43.79" y2="1.5" stroke="#121419"/>
<line x1="29.79" y1="15.5" x2="43.79" y2="15.5" stroke="#121419"/>
<path d="M51.79 15.5L59.79 9L51.79 2.5" stroke="#121419"/>
<path d="M72.02 14V3.95H70.595C70.16 4.91 69.53 5.195 68.42 5.195H67.94V6.35H70.4V14H72.02ZM75.1405 14V9.815C75.1405 8.48 75.6655 7.775 76.9405 7.775C78.0505 7.775 78.5005 8.27 78.5005 9.335V9.995H80.1055V9.02C80.1055 7.61 79.3705 6.395 77.6755 6.395C76.1455 6.395 75.3355 7.355 75.1105 8.555H75.0055V6.545H73.5205V14H75.1405ZM84.873 14.15C87.093 14.15 88.653 13.055 88.653 11.465V11.33H87.033V11.45C87.033 12.335 86.388 12.845 84.828 12.845C83.103 12.845 82.398 12.08 82.338 10.64H88.668C88.713 10.415 88.728 10.205 88.728 9.935C88.728 7.67 87.153 6.395 84.843 6.395C82.413 6.395 80.823 7.955 80.823 10.28C80.823 12.77 82.428 14.15 84.873 14.15ZM84.813 7.67C86.403 7.67 87.198 8.33 87.198 9.71V9.74H82.353C82.443 8.405 83.163 7.67 84.813 7.67ZM91.5614 14V10.31C91.5614 8.66 92.1164 7.85 93.7214 7.85C95.1614 7.85 95.7314 8.48 95.7314 9.95V14H97.3364V10.31C97.3364 8.66 97.9064 7.85 99.4964 7.85C100.936 7.85 101.521 8.48 101.521 9.95V14H103.126V9.515C103.126 7.715 102.151 6.395 100.216 6.395C98.3264 6.395 97.4864 7.58 97.2914 8.855H97.2014C96.9914 7.43 96.0764 6.395 94.3814 6.395C92.5214 6.395 91.7114 7.55 91.5164 8.795H91.4264V6.545H89.9414V14H91.5614ZM105.25 14.3L110.65 3.65H108.925L103.525 14.3H105.25ZM114.515 14V3.95H113.09C112.655 4.91 112.025 5.195 110.915 5.195H110.435V6.35H112.895V14H114.515ZM124.191 14V12.545H119.886L117.456 12.71C117.456 11.57 117.921 11.09 119.271 10.625L121.386 9.98C123.156 9.44 124.221 8.57 124.221 6.92C124.221 5.15 123.021 3.8 120.171 3.8C117.036 3.8 115.761 5.48 115.761 7.34V7.49H117.351V7.31C117.351 5.99 118.101 5.285 120.111 5.285C121.911 5.285 122.601 5.825 122.601 6.89C122.601 7.775 122.181 8.18 120.981 8.615L118.581 9.44C116.511 10.145 115.776 11.075 115.776 12.935V14H124.191ZM127.04 16.55V11.9H127.1C127.4 13.265 128.48 14.15 130.16 14.15C132.485 14.15 133.76 12.59 133.76 10.28C133.76 7.97 132.455 6.395 130.145 6.395C128.39 6.395 127.34 7.235 127.04 8.615H126.905V6.545H125.42V16.55H127.04ZM127.04 10.4V10.265C127.04 8.66 127.97 7.88 129.635 7.88C131.195 7.88 132.14 8.48 132.14 10.28C132.14 12.065 131.21 12.68 129.605 12.68C128.015 12.68 127.04 11.93 127.04 10.4ZM136.113 14L138.558 11.15H138.663L141.138 14H143.103L139.893 10.28V10.19L143.103 6.545H141.153L138.708 9.365H138.618L136.143 6.545H134.178L137.388 10.22V10.31L134.178 14H136.113Z" fill="#121419"/>
<path d="M11.94 39.2C14.24 39.2 15.98 38.16 16.56 36.34H16.66V39H17.94V32.82C17.94 30.64 16.66 28.92 13.66 28.92C10.62 28.92 8.9 30.62 8.9 32.7V32.78H10.32V32.7C10.32 30.96 11.44 30.2 13.56 30.2C15.72 30.2 16.56 30.96 16.56 32.88V33.64L11.86 34.16C10.02 34.36 8.68 35.06 8.68 36.68C8.68 38.28 10 39.2 11.94 39.2ZM10.1 36.58C10.1 35.56 10.82 35.2 12.3 35.06L16.56 34.58V34.66C16.56 37.04 14.66 38.1 12.26 38.1C10.76 38.1 10.1 37.58 10.1 36.58Z" fill="#121419"/>
<path d="M1.97 39.1C3.12 39.1 3.99 38.58 4.28 37.67H4.33V39H4.97V35.91C4.97 34.82 4.33 33.96 2.83 33.96C1.31 33.96 0.45 34.81 0.45 35.85V35.89H1.16V35.85C1.16 34.98 1.72 34.6 2.78 34.6C3.86 34.6 4.28 34.98 4.28 35.94V36.32L1.93 36.58C1.01 36.68 0.34 37.03 0.34 37.84C0.34 38.64 1 39.1 1.97 39.1ZM1.05 37.79C1.05 37.28 1.41 37.1 2.15 37.03L4.28 36.79V36.83C4.28 38.02 3.33 38.55 2.13 38.55C1.38 38.55 1.05 38.29 1.05 37.79Z" fill="#121419"/>
<path d="M28 41L36 34.5L28 28" stroke="#121419"/>
<path d="M49.28 39.65C52.31 39.65 54.11 37.67 54.11 34.475C54.11 31.295 52.31 29.3 49.28 29.3C46.25 29.3 44.45 31.295 44.45 34.475C44.45 37.67 46.25 39.65 49.28 39.65ZM49.28 38.09C47.135 38.09 46.16 36.98 46.16 34.475C46.16 31.97 47.135 30.86 49.28 30.86C51.425 30.86 52.385 31.97 52.385 34.475C52.385 36.98 51.425 38.09 49.28 38.09ZM57.0515 39.5V37.175H55.0115V39.5H57.0515ZM62.4559 39.65C65.2609 39.65 67.0609 38.705 67.0609 36.755C67.0609 35.375 66.1609 34.55 64.6009 34.235V34.115C66.0109 33.905 66.7759 33.08 66.7759 31.925C66.7759 30.35 65.3059 29.3 62.4559 29.3C59.6059 29.3 58.1359 30.35 58.1359 31.925C58.1359 33.08 58.9159 33.905 60.2959 34.115V34.235C58.8109 34.55 57.8509 35.375 57.8509 36.755C57.8509 38.705 59.6209 39.65 62.4559 39.65ZM62.4559 33.725C60.5209 33.725 59.7559 33.26 59.7559 32.285C59.7559 31.355 60.3709 30.83 62.4559 30.83C64.5559 30.83 65.1709 31.355 65.1709 32.285C65.1709 33.26 64.4059 33.725 62.4559 33.725ZM62.4559 38.12C60.2659 38.12 59.4859 37.625 59.4859 36.455C59.4859 35.36 60.2809 34.835 62.4559 34.835C64.6309 34.835 65.4259 35.36 65.4259 36.455C65.4259 37.625 64.6309 38.12 62.4559 38.12ZM69.7636 39.5V35.315C69.7636 33.98 70.2886 33.275 71.5636 33.275C72.6736 33.275 73.1236 33.77 73.1236 34.835V35.495H74.7286V34.52C74.7286 33.11 73.9936 31.895 72.2986 31.895C70.7686 31.895 69.9586 32.855 69.7336 34.055H69.6286V32.045H68.1436V39.5H69.7636ZM79.4961 39.65C81.7161 39.65 83.2761 38.555 83.2761 36.965V36.83H81.6561V36.95C81.6561 37.835 81.0111 38.345 79.4511 38.345C77.7261 38.345 77.0211 37.58 76.9611 36.14H83.2911C83.3361 35.915 83.3511 35.705 83.3511 35.435C83.3511 33.17 81.7761 31.895 79.4661 31.895C77.0361 31.895 75.4461 33.455 75.4461 35.78C75.4461 38.27 77.0511 39.65 79.4961 39.65ZM79.4361 33.17C81.0261 33.17 81.8211 33.83 81.8211 35.21V35.24H76.9761C77.0661 33.905 77.7861 33.17 79.4361 33.17ZM86.1845 39.5V35.81C86.1845 34.16 86.7395 33.35 88.3445 33.35C89.7845 33.35 90.3545 33.98 90.3545 35.45V39.5H91.9595V35.81C91.9595 34.16 92.5295 33.35 94.1195 33.35C95.5595 33.35 96.1445 33.98 96.1445 35.45V39.5H97.7495V35.015C97.7495 33.215 96.7745 31.895 94.8395 31.895C92.9495 31.895 92.1095 33.08 91.9145 34.355H91.8245C91.6145 32.93 90.6995 31.895 89.0045 31.895C87.1445 31.895 86.3345 33.05 86.1395 34.295H86.0495V32.045H84.5645V39.5H86.1845ZM99.8732 39.8L105.273 29.15H103.548L98.1482 39.8H99.8732ZM109.138 39.5V29.45H107.713C107.278 30.41 106.648 30.695 105.538 30.695H105.058V31.85H107.518V39.5H109.138ZM115.169 39.65C118.199 39.65 119.999 37.67 119.999 34.475C119.999 31.295 118.199 29.3 115.169 29.3C112.139 29.3 110.339 31.295 110.339 34.475C110.339 37.67 112.139 39.65 115.169 39.65ZM115.169 38.09C113.024 38.09 112.049 36.98 112.049 34.475C112.049 31.97 113.024 30.86 115.169 30.86C117.314 30.86 118.274 31.97 118.274 34.475C118.274 36.98 117.314 38.09 115.169 38.09ZM122.82 42.05V37.4H122.88C123.18 38.765 124.26 39.65 125.94 39.65C128.265 39.65 129.54 38.09 129.54 35.78C129.54 33.47 128.235 31.895 125.925 31.895C124.17 31.895 123.12 32.735 122.82 34.115H122.685V32.045H121.2V42.05H122.82ZM122.82 35.9V35.765C122.82 34.16 123.75 33.38 125.415 33.38C126.975 33.38 127.92 33.98 127.92 35.78C127.92 37.565 126.99 38.18 125.385 38.18C123.795 38.18 122.82 37.43 122.82 35.9ZM131.893 39.5L134.338 36.65H134.443L136.918 39.5H138.883L135.673 35.78V35.69L138.883 32.045H136.933L134.488 34.865H134.398L131.923 32.045H129.958L133.168 35.72V35.81L129.958 39.5H131.893Z" fill="#121419"/>
</svg>
