<svg width="207" height="32" viewBox="0 0 207 32" fill="none" xmlns="http://www.w3.org/2000/svg">
<path d="M0 3C0 1.34315 1.34315 0 3 0H204C205.657 0 207 1.34315 207 3V29C207 30.6569 205.657 32 204 32H3C1.34315 32 0 30.6569 0 29V3Z" fill="#B11515"/>
<path d="M14.8018 22V13.615L20.3518 22H21.8218V11.155H20.3518V19.54L14.8018 11.155H13.3318V22H14.8018ZM23.6274 18.325C23.6274 20.59 25.2474 22.18 27.4524 22.18C29.6424 22.18 31.2624 20.59 31.2624 18.325C31.2624 16.06 29.6424 14.47 27.4524 14.47C25.2474 14.47 23.6274 16.06 23.6274 18.325ZM25.0524 18.325C25.0524 16.795 26.0274 15.73 27.4524 15.73C28.8624 15.73 29.8524 16.795 29.8524 18.325C29.8524 19.855 28.8624 20.92 27.4524 20.92C26.0274 20.92 25.0524 19.855 25.0524 18.325ZM36.3248 19.87C36.3248 21.265 37.4198 22.18 39.1448 22.18C40.8848 22.18 42.0848 21.295 42.0848 19.9C42.0848 18.805 41.4698 18.235 40.2248 17.935L38.9348 17.62C38.2148 17.44 37.8548 17.11 37.8548 16.615C37.8548 15.94 38.3498 15.55 39.2348 15.55C40.0898 15.55 40.5848 16.015 40.6148 16.75H41.9648C41.9348 15.355 40.8848 14.455 39.2798 14.455C37.6598 14.455 36.5198 15.31 36.5198 16.66C36.5198 17.74 37.1348 18.385 38.4398 18.7L39.7298 19C40.4948 19.195 40.7348 19.495 40.7348 19.99C40.7348 20.665 40.1648 21.07 39.1748 21.07C38.2448 21.07 37.6748 20.62 37.6748 19.87H36.3248ZM46.8134 22.18C48.6284 22.18 49.8584 21.295 50.2184 19.72H48.8984C48.6584 20.56 47.9384 21.01 46.8434 21.01C45.4484 21.01 44.6384 20.155 44.5334 18.61L50.2034 18.595V18.07C50.2034 15.895 48.8384 14.455 46.7534 14.455C44.6234 14.455 43.1684 16.045 43.1684 18.34C43.1684 20.62 44.6534 22.18 46.8134 22.18ZM46.7534 15.64C47.9984 15.64 48.7934 16.45 48.7934 17.665H44.5634C44.7434 16.375 45.5234 15.64 46.7534 15.64ZM55.8799 25.285H57.2899V20.8C57.7699 21.7 58.7449 22.195 59.9149 22.195C62.0899 22.195 63.3199 20.515 63.3199 18.28C63.3199 16.03 62.0149 14.455 59.9149 14.455C58.7449 14.455 57.7549 14.98 57.2599 15.985L57.1549 14.665H55.8799V25.285ZM57.3049 18.34C57.3049 16.81 58.1749 15.745 59.6149 15.745C61.0549 15.745 61.9099 16.825 61.9099 18.34C61.9099 19.84 61.0549 20.92 59.6149 20.92C58.1749 20.92 57.3049 19.84 57.3049 18.34ZM69.7682 14.665V18.535C69.7682 20.11 69.0632 20.935 67.7732 20.935C66.6932 20.935 66.0182 20.335 66.0182 18.76V14.665H64.6082V19.225C64.6082 21.025 65.5682 22.18 67.2782 22.18C68.3582 22.18 69.3332 21.655 69.7532 20.89L69.9032 22H71.1632V14.665H69.7682ZM76.2275 22.18C78.0425 22.18 79.2725 21.295 79.6325 19.72H78.3125C78.0725 20.56 77.3525 21.01 76.2575 21.01C74.8625 21.01 74.0525 20.155 73.9475 18.61L79.6175 18.595V18.07C79.6175 15.895 78.2525 14.455 76.1675 14.455C74.0375 14.455 72.5825 16.045 72.5825 18.34C72.5825 20.62 74.0675 22.18 76.2275 22.18ZM76.1675 15.64C77.4125 15.64 78.2075 16.45 78.2075 17.665H73.9775C74.1575 16.375 74.9375 15.64 76.1675 15.64ZM84.1324 22.18C85.3024 22.18 86.2924 21.67 86.7724 20.665L86.8924 22H88.1524V10.96H86.7574V15.85C86.2624 14.95 85.3174 14.455 84.1924 14.455C82.0174 14.455 80.7124 16.105 80.7124 18.355C80.7124 20.59 82.0024 22.18 84.1324 22.18ZM84.4174 20.905C82.9774 20.905 82.1374 19.825 82.1374 18.31C82.1374 16.81 82.9774 15.73 84.4174 15.73C85.8574 15.73 86.7424 16.81 86.7424 18.31C86.7424 19.84 85.8574 20.905 84.4174 20.905ZM93.3515 22.18C95.1665 22.18 96.3965 21.295 96.7565 19.72H95.4365C95.1965 20.56 94.4765 21.01 93.3815 21.01C91.9865 21.01 91.1765 20.155 91.0715 18.61L96.7415 18.595V18.07C96.7415 15.895 95.3765 14.455 93.2915 14.455C91.1615 14.455 89.7065 16.045 89.7065 18.34C89.7065 20.62 91.1915 22.18 93.3515 22.18ZM93.2915 15.64C94.5365 15.64 95.3315 16.45 95.3315 17.665H91.1015C91.2815 16.375 92.0615 15.64 93.2915 15.64ZM101.938 18.34C101.938 20.65 103.363 22.18 105.523 22.18C107.293 22.18 108.658 21.115 108.943 19.525H107.533C107.278 20.395 106.528 20.92 105.523 20.92C104.188 20.92 103.333 19.9 103.333 18.325C103.333 16.735 104.248 15.715 105.583 15.715C106.528 15.715 107.278 16.21 107.518 17.14H108.928C108.673 15.505 107.383 14.455 105.538 14.455C103.393 14.455 101.938 16.045 101.938 18.34ZM112.576 22.18C113.761 22.18 114.766 21.655 115.141 20.815L115.291 22H116.491V17.395C116.491 15.415 115.261 14.455 113.446 14.455C111.556 14.455 110.296 15.46 110.296 16.99H111.526C111.526 16.105 112.201 15.58 113.386 15.58C114.376 15.58 115.111 16.015 115.111 17.245V17.455L112.801 17.635C111.076 17.77 110.071 18.61 110.071 19.96C110.071 21.295 111.001 22.18 112.576 22.18ZM112.981 21.085C112.066 21.085 111.496 20.695 111.496 19.915C111.496 19.195 112.006 18.715 113.251 18.595L115.126 18.445V18.835C115.126 20.215 114.316 21.085 112.981 21.085ZM122.643 14.605C122.358 14.545 122.148 14.515 121.893 14.515C120.888 14.515 120.153 15.025 119.853 15.79L119.763 14.68H118.443V22H119.853V18.115C119.853 16.705 120.678 15.895 122.013 15.895H122.643V14.605ZM123.34 18.145C123.34 20.2 124.66 21.805 126.745 21.805C127.9 21.805 128.86 21.295 129.34 20.44V21.91C129.34 23.305 128.44 24.205 127.06 24.205C125.83 24.205 125.02 23.575 124.84 22.495H123.43C123.7 24.355 125.065 25.48 127.06 25.48C129.31 25.48 130.735 24.01 130.735 21.7V14.665H129.475L129.37 15.91C128.905 14.995 127.99 14.455 126.805 14.455C124.675 14.455 123.34 16.075 123.34 18.145ZM124.75 18.115C124.75 16.765 125.59 15.685 127 15.685C128.44 15.685 129.28 16.705 129.28 18.115C129.28 19.555 128.41 20.575 126.985 20.575C125.605 20.575 124.75 19.495 124.75 18.115ZM134.915 22.18C136.1 22.18 137.105 21.655 137.48 20.815L137.63 22H138.83V17.395C138.83 15.415 137.6 14.455 135.785 14.455C133.895 14.455 132.635 15.46 132.635 16.99H133.865C133.865 16.105 134.54 15.58 135.725 15.58C136.715 15.58 137.45 16.015 137.45 17.245V17.455L135.14 17.635C133.415 17.77 132.41 18.61 132.41 19.96C132.41 21.295 133.34 22.18 134.915 22.18ZM135.32 21.085C134.405 21.085 133.835 20.695 133.835 19.915C133.835 19.195 134.345 18.715 135.59 18.595L137.465 18.445V18.835C137.465 20.215 136.655 21.085 135.32 21.085ZM144.982 14.605C144.697 14.545 144.487 14.515 144.232 14.515C143.227 14.515 142.492 15.025 142.192 15.79L142.102 14.68H140.782V22H142.192V18.115C142.192 16.705 143.017 15.895 144.352 15.895H144.982V14.605ZM153.571 22.18C155.386 22.18 156.616 21.295 156.976 19.72H155.656C155.416 20.56 154.696 21.01 153.601 21.01C152.206 21.01 151.396 20.155 151.291 18.61L156.961 18.595V18.07C156.961 15.895 155.596 14.455 153.511 14.455C151.381 14.455 149.926 16.045 149.926 18.34C149.926 20.62 151.411 22.18 153.571 22.18ZM153.511 15.64C154.756 15.64 155.551 16.45 155.551 17.665H151.321C151.501 16.375 152.281 15.64 153.511 15.64ZM159.976 22V10.96H158.566V22H159.976ZM165.373 14.665V15.85H166.453V22H167.863V15.85H169.603V14.665H167.863V13.495C167.863 12.7 168.103 12.235 169.018 12.235H169.648V11.02C169.363 10.975 169.048 10.96 168.778 10.96C167.443 10.96 166.453 11.695 166.453 13.495V14.665H165.373ZM173.859 22.18C175.674 22.18 176.904 21.295 177.264 19.72H175.944C175.704 20.56 174.984 21.01 173.889 21.01C172.494 21.01 171.684 20.155 171.579 18.61L177.249 18.595V18.07C177.249 15.895 175.884 14.455 173.799 14.455C171.669 14.455 170.214 16.045 170.214 18.34C170.214 20.62 171.699 22.18 173.859 22.18ZM173.799 15.64C175.044 15.64 175.839 16.45 175.839 17.665H171.609C171.789 16.375 172.569 15.64 173.799 15.64ZM181.989 22.18C183.804 22.18 185.034 21.295 185.394 19.72H184.074C183.834 20.56 183.114 21.01 182.019 21.01C180.624 21.01 179.814 20.155 179.709 18.61L185.379 18.595V18.07C185.379 15.895 184.014 14.455 181.929 14.455C179.799 14.455 178.344 16.045 178.344 18.34C178.344 20.62 179.829 22.18 181.989 22.18ZM181.929 15.64C183.174 15.64 183.969 16.45 183.969 17.665H179.739C179.919 16.375 180.699 15.64 181.929 15.64ZM189.894 22.18C191.064 22.18 192.054 21.67 192.534 20.665L192.654 22H193.914V10.96H192.519V15.85C192.024 14.95 191.079 14.455 189.954 14.455C187.779 14.455 186.474 16.105 186.474 18.355C186.474 20.59 187.764 22.18 189.894 22.18ZM190.179 20.905C188.739 20.905 187.899 19.825 187.899 18.31C187.899 16.81 188.739 15.73 190.179 15.73C191.619 15.73 192.504 16.81 192.504 18.31C192.504 19.84 191.619 20.905 190.179 20.905Z" fill="#FCFBF7"/>
</svg>
