<svg width="279" height="32" viewBox="0 0 279 32" fill="none" xmlns="http://www.w3.org/2000/svg">
<path d="M0 3C0 1.34315 1.34315 0 3 0H276C277.657 0 279 1.34315 279 3V29C279 30.6569 277.657 32 276 32H3C1.34314 32 0 30.6569 0 29V3Z" fill="#B8BDCB"/>
<path d="M14.8765 11.155H13.4065V22H19.6465V20.635H14.8765V11.155ZM20.3769 18.325C20.3769 20.59 21.9969 22.18 24.2019 22.18C26.3919 22.18 28.0119 20.59 28.0119 18.325C28.0119 16.06 26.3919 14.47 24.2019 14.47C21.9969 14.47 20.3769 16.06 20.3769 18.325ZM21.8019 18.325C21.8019 16.795 22.7769 15.73 24.2019 15.73C25.6119 15.73 26.6019 16.795 26.6019 18.325C26.6019 19.855 25.6119 20.92 24.2019 20.92C22.7769 20.92 21.8019 19.855 21.8019 18.325ZM29.1077 18.145C29.1077 20.2 30.4277 21.805 32.5127 21.805C33.6677 21.805 34.6277 21.295 35.1077 20.44V21.91C35.1077 23.305 34.2077 24.205 32.8277 24.205C31.5977 24.205 30.7877 23.575 30.6077 22.495H29.1977C29.4677 24.355 30.8327 25.48 32.8277 25.48C35.0777 25.48 36.5027 24.01 36.5027 21.7V14.665H35.2427L35.1377 15.91C34.6727 14.995 33.7577 14.455 32.5727 14.455C30.4427 14.455 29.1077 16.075 29.1077 18.145ZM30.5177 18.115C30.5177 16.765 31.3577 15.685 32.7677 15.685C34.2077 15.685 35.0477 16.705 35.0477 18.115C35.0477 19.555 34.1777 20.575 32.7527 20.575C31.3727 20.575 30.5177 19.495 30.5177 18.115ZM38.0726 18.145C38.0726 20.2 39.3926 21.805 41.4776 21.805C42.6326 21.805 43.5926 21.295 44.0726 20.44V21.91C44.0726 23.305 43.1726 24.205 41.7926 24.205C40.5626 24.205 39.7526 23.575 39.5726 22.495H38.1626C38.4326 24.355 39.7976 25.48 41.7926 25.48C44.0426 25.48 45.4676 24.01 45.4676 21.7V14.665H44.2076L44.1026 15.91C43.6376 14.995 42.7226 14.455 41.5376 14.455C39.4076 14.455 38.0726 16.075 38.0726 18.145ZM39.4826 18.115C39.4826 16.765 40.3226 15.685 41.7326 15.685C43.1726 15.685 44.0126 16.705 44.0126 18.115C44.0126 19.555 43.1426 20.575 41.7176 20.575C40.3376 20.575 39.4826 19.495 39.4826 18.115ZM50.6674 22.18C52.4824 22.18 53.7124 21.295 54.0724 19.72H52.7524C52.5124 20.56 51.7924 21.01 50.6974 21.01C49.3024 21.01 48.4924 20.155 48.3874 18.61L54.0574 18.595V18.07C54.0574 15.895 52.6924 14.455 50.6074 14.455C48.4774 14.455 47.0224 16.045 47.0224 18.34C47.0224 20.62 48.5074 22.18 50.6674 22.18ZM50.6074 15.64C51.8524 15.64 52.6474 16.45 52.6474 17.665H48.4174C48.5974 16.375 49.3774 15.64 50.6074 15.64ZM58.5723 22.18C59.7423 22.18 60.7323 21.67 61.2123 20.665L61.3323 22H62.5923V10.96H61.1973V15.85C60.7023 14.95 59.7573 14.455 58.6323 14.455C56.4573 14.455 55.1523 16.105 55.1523 18.355C55.1523 20.59 56.4423 22.18 58.5723 22.18ZM58.8573 20.905C57.4173 20.905 56.5773 19.825 56.5773 18.31C56.5773 16.81 57.4173 15.73 58.8573 15.73C60.2973 15.73 61.1823 16.81 61.1823 18.31C61.1823 19.84 60.2973 20.905 58.8573 20.905ZM69.418 12.925C69.928 12.925 70.348 12.505 70.348 11.995C70.348 11.47 69.928 11.065 69.418 11.065C68.908 11.065 68.488 11.47 68.488 11.995C68.488 12.505 68.908 12.925 69.418 12.925ZM68.728 22H70.138V14.665H68.728V22ZM73.595 22V18.115C73.595 16.69 74.36 15.745 75.68 15.745C76.76 15.745 77.45 16.345 77.45 17.83V22H78.86V17.515C78.86 15.64 77.975 14.455 76.04 14.455C75.005 14.455 74.075 14.95 73.61 15.79L73.46 14.665H72.185V22H73.595ZM84.4345 18.34C84.4345 20.65 85.8595 22.18 88.0195 22.18C89.7895 22.18 91.1545 21.115 91.4395 19.525H90.0295C89.7745 20.395 89.0245 20.92 88.0195 20.92C86.6845 20.92 85.8295 19.9 85.8295 18.325C85.8295 16.735 86.7445 15.715 88.0795 15.715C89.0245 15.715 89.7745 16.21 90.0145 17.14H91.4245C91.1695 15.505 89.8795 14.455 88.0345 14.455C85.8895 14.455 84.4345 16.045 84.4345 18.34ZM92.4472 18.325C92.4472 20.59 94.0672 22.18 96.2722 22.18C98.4622 22.18 100.082 20.59 100.082 18.325C100.082 16.06 98.4622 14.47 96.2722 14.47C94.0672 14.47 92.4472 16.06 92.4472 18.325ZM93.8722 18.325C93.8722 16.795 94.8472 15.73 96.2722 15.73C97.6822 15.73 98.6722 16.795 98.6722 18.325C98.6722 19.855 97.6822 20.92 96.2722 20.92C94.8472 20.92 93.8722 19.855 93.8722 18.325ZM103.053 22V17.65C103.053 16.48 103.758 15.745 104.823 15.745C105.813 15.745 106.443 16.375 106.443 17.53V22H107.838V17.65C107.838 16.48 108.543 15.73 109.608 15.73C110.598 15.73 111.243 16.39 111.243 17.545V22H112.623V17.2C112.623 15.505 111.603 14.455 109.923 14.455C108.783 14.455 107.898 15.025 107.553 15.94C107.178 15.025 106.368 14.455 105.228 14.455C104.193 14.455 103.413 14.935 103.038 15.625L102.903 14.665H101.643V22H103.053ZM114.098 18.325C114.098 20.59 115.718 22.18 117.923 22.18C120.113 22.18 121.733 20.59 121.733 18.325C121.733 16.06 120.113 14.47 117.923 14.47C115.718 14.47 114.098 16.06 114.098 18.325ZM115.523 18.325C115.523 16.795 116.498 15.73 117.923 15.73C119.333 15.73 120.323 16.795 120.323 18.325C120.323 19.855 119.333 20.92 117.923 20.92C116.498 20.92 115.523 19.855 115.523 18.325ZM129.375 13.375C129.375 12.79 129 12.46 128.535 12.46C128.355 12.46 128.22 12.505 128.115 12.565C128.115 12.085 128.535 11.695 129.12 11.575V10.945C128.07 11.095 127.305 11.965 127.305 13.06C127.305 13.87 127.785 14.365 128.385 14.365C128.985 14.365 129.375 13.945 129.375 13.375ZM132.731 22V17.65C132.731 16.48 133.436 15.745 134.501 15.745C135.491 15.745 136.121 16.375 136.121 17.53V22H137.516V17.65C137.516 16.48 138.221 15.73 139.286 15.73C140.276 15.73 140.921 16.39 140.921 17.545V22H142.301V17.2C142.301 15.505 141.281 14.455 139.601 14.455C138.461 14.455 137.576 15.025 137.231 15.94C136.856 15.025 136.046 14.455 134.906 14.455C133.871 14.455 133.091 14.935 132.716 15.625L132.581 14.665H131.321V22H132.731ZM146.4 22.18C147.585 22.18 148.59 21.655 148.965 20.815L149.115 22H150.315V17.395C150.315 15.415 149.085 14.455 147.27 14.455C145.38 14.455 144.12 15.46 144.12 16.99H145.35C145.35 16.105 146.025 15.58 147.21 15.58C148.2 15.58 148.935 16.015 148.935 17.245V17.455L146.625 17.635C144.9 17.77 143.895 18.61 143.895 19.96C143.895 21.295 144.825 22.18 146.4 22.18ZM146.805 21.085C145.89 21.085 145.32 20.695 145.32 19.915C145.32 19.195 145.83 18.715 147.075 18.595L148.95 18.445V18.835C148.95 20.215 148.14 21.085 146.805 21.085ZM156.468 14.605C156.183 14.545 155.973 14.515 155.718 14.515C154.713 14.515 153.978 15.025 153.678 15.79L153.588 14.68H152.268V22H153.678V18.115C153.678 16.705 154.503 15.895 155.838 15.895H156.468V14.605ZM157.047 18.34C157.047 20.65 158.472 22.18 160.632 22.18C162.402 22.18 163.767 21.115 164.052 19.525H162.642C162.387 20.395 161.637 20.92 160.632 20.92C159.297 20.92 158.442 19.9 158.442 18.325C158.442 16.735 159.357 15.715 160.692 15.715C161.637 15.715 162.387 16.21 162.627 17.14H164.037C163.782 15.505 162.492 14.455 160.647 14.455C158.502 14.455 157.047 16.045 157.047 18.34ZM165.06 18.325C165.06 20.59 166.68 22.18 168.885 22.18C171.075 22.18 172.695 20.59 172.695 18.325C172.695 16.06 171.075 14.47 168.885 14.47C166.68 14.47 165.06 16.06 165.06 18.325ZM166.485 18.325C166.485 16.795 167.46 15.73 168.885 15.73C170.295 15.73 171.285 16.795 171.285 18.325C171.285 19.855 170.295 20.92 168.885 20.92C167.46 20.92 166.485 19.855 166.485 18.325ZM173.655 19.87C173.655 21.265 174.75 22.18 176.475 22.18C178.215 22.18 179.415 21.295 179.415 19.9C179.415 18.805 178.8 18.235 177.555 17.935L176.265 17.62C175.545 17.44 175.185 17.11 175.185 16.615C175.185 15.94 175.68 15.55 176.565 15.55C177.42 15.55 177.915 16.015 177.945 16.75H179.295C179.265 15.355 178.215 14.455 176.61 14.455C174.99 14.455 173.85 15.31 173.85 16.66C173.85 17.74 174.465 18.385 175.77 18.7L177.06 19C177.825 19.195 178.065 19.495 178.065 19.99C178.065 20.665 177.495 21.07 176.505 21.07C175.575 21.07 175.005 20.62 175.005 19.87H173.655ZM183.844 18.67C183.844 19.915 184.744 20.695 186.199 20.695C187.324 20.695 188.269 20.185 188.629 19.375C188.779 20.23 189.424 20.695 190.459 20.695C192.064 20.695 193.159 19.18 193.159 16.975C193.159 13.48 190.549 10.96 186.919 10.96C183.349 10.96 180.619 13.675 180.619 17.245C180.619 20.86 183.334 23.575 186.919 23.575C188.314 23.575 189.604 23.155 190.669 22.345L190.189 21.535C189.244 22.255 188.104 22.645 186.919 22.645C183.904 22.645 181.624 20.32 181.624 17.245C181.624 14.215 183.919 11.89 186.919 11.89C189.979 11.89 192.154 14.005 192.154 16.975C192.154 18.655 191.524 19.795 190.609 19.795C190.039 19.795 189.754 19.51 189.754 18.925V16.315C189.754 14.605 188.719 13.63 186.934 13.63C185.194 13.63 184.054 14.545 184.054 15.94H185.194C185.194 15.13 185.809 14.665 186.889 14.665C187.939 14.665 188.479 15.175 188.479 16.18V16.375L186.364 16.54C184.744 16.66 183.844 17.47 183.844 18.67ZM185.149 18.625C185.149 17.92 185.659 17.53 186.769 17.44L188.494 17.29V17.635C188.494 18.91 187.744 19.675 186.514 19.675C185.629 19.675 185.149 19.315 185.149 18.625ZM198.001 22.18C199.816 22.18 201.046 21.295 201.406 19.72H200.086C199.846 20.56 199.126 21.01 198.031 21.01C196.636 21.01 195.826 20.155 195.721 18.61L201.391 18.595V18.07C201.391 15.895 200.026 14.455 197.941 14.455C195.811 14.455 194.356 16.045 194.356 18.34C194.356 20.62 195.841 22.18 198.001 22.18ZM197.941 15.64C199.186 15.64 199.981 16.45 199.981 17.665H195.751C195.931 16.375 196.711 15.64 197.941 15.64ZM204.376 22V17.65C204.376 16.48 205.081 15.745 206.146 15.745C207.136 15.745 207.766 16.375 207.766 17.53V22H209.161V17.65C209.161 16.48 209.866 15.73 210.931 15.73C211.921 15.73 212.566 16.39 212.566 17.545V22H213.946V17.2C213.946 15.505 212.926 14.455 211.246 14.455C210.106 14.455 209.221 15.025 208.876 15.94C208.501 15.025 207.691 14.455 206.551 14.455C205.516 14.455 204.736 14.935 204.361 15.625L204.226 14.665H202.966V22H204.376ZM218.046 22.18C219.231 22.18 220.236 21.655 220.611 20.815L220.761 22H221.961V17.395C221.961 15.415 220.731 14.455 218.916 14.455C217.026 14.455 215.766 15.46 215.766 16.99H216.996C216.996 16.105 217.671 15.58 218.856 15.58C219.846 15.58 220.581 16.015 220.581 17.245V17.455L218.271 17.635C216.546 17.77 215.541 18.61 215.541 19.96C215.541 21.295 216.471 22.18 218.046 22.18ZM218.451 21.085C217.536 21.085 216.966 20.695 216.966 19.915C216.966 19.195 217.476 18.715 218.721 18.595L220.596 18.445V18.835C220.596 20.215 219.786 21.085 218.451 21.085ZM224.604 12.925C225.114 12.925 225.534 12.505 225.534 11.995C225.534 11.47 225.114 11.065 224.604 11.065C224.094 11.065 223.674 11.47 223.674 11.995C223.674 12.505 224.094 12.925 224.604 12.925ZM223.914 22H225.324V14.665H223.914V22ZM228.811 22V10.96H227.401V22H228.811ZM231.936 22.18C232.506 22.18 233.001 21.7 233.001 21.13C233.001 20.545 232.506 20.065 231.936 20.065C231.351 20.065 230.856 20.545 230.856 21.13C230.856 21.7 231.351 22.18 231.936 22.18ZM234.098 18.34C234.098 20.65 235.523 22.18 237.683 22.18C239.453 22.18 240.818 21.115 241.103 19.525H239.693C239.438 20.395 238.688 20.92 237.683 20.92C236.348 20.92 235.493 19.9 235.493 18.325C235.493 16.735 236.408 15.715 237.743 15.715C238.688 15.715 239.438 16.21 239.678 17.14H241.088C240.833 15.505 239.543 14.455 237.698 14.455C235.553 14.455 234.098 16.045 234.098 18.34ZM242.11 18.325C242.11 20.59 243.73 22.18 245.935 22.18C248.125 22.18 249.745 20.59 249.745 18.325C249.745 16.06 248.125 14.47 245.935 14.47C243.73 14.47 242.11 16.06 242.11 18.325ZM243.535 18.325C243.535 16.795 244.51 15.73 245.935 15.73C247.345 15.73 248.335 16.795 248.335 18.325C248.335 19.855 247.345 20.92 245.935 20.92C244.51 20.92 243.535 19.855 243.535 18.325ZM252.716 22V17.65C252.716 16.48 253.421 15.745 254.486 15.745C255.476 15.745 256.106 16.375 256.106 17.53V22H257.501V17.65C257.501 16.48 258.206 15.73 259.271 15.73C260.261 15.73 260.906 16.39 260.906 17.545V22H262.286V17.2C262.286 15.505 261.266 14.455 259.586 14.455C258.446 14.455 257.561 15.025 257.216 15.94C256.841 15.025 256.031 14.455 254.891 14.455C253.856 14.455 253.076 14.935 252.701 15.625L252.566 14.665H251.306V22H252.716ZM265.928 12.25C265.928 11.44 265.448 10.945 264.848 10.945C264.248 10.945 263.858 11.365 263.858 11.935C263.858 12.52 264.248 12.85 264.698 12.85C264.878 12.85 265.013 12.82 265.118 12.76C265.118 13.24 264.698 13.63 264.113 13.735V14.365C265.163 14.23 265.928 13.345 265.928 12.25Z" fill="#121419"/>
</svg>
