<svg width="154" height="32" viewBox="0 0 154 32" fill="none" xmlns="http://www.w3.org/2000/svg">
<path d="M0 3C0 1.34315 1.34315 0 3 0H151C152.657 0 154 1.34315 154 3V29C154 30.6569 152.657 32 151 32H3C1.34315 32 0 30.6569 0 29V3Z" fill="#028426"/>
<path d="M12.691 12.505H15.961V22H17.431V12.505H20.686V11.155H12.691V12.505ZM23.9023 22.18C25.7173 22.18 26.9473 21.295 27.3073 19.72H25.9873C25.7473 20.56 25.0273 21.01 23.9323 21.01C22.5373 21.01 21.7273 20.155 21.6223 18.61L27.2923 18.595V18.07C27.2923 15.895 25.9273 14.455 23.8423 14.455C21.7123 14.455 20.2573 16.045 20.2573 18.34C20.2573 20.62 21.7423 22.18 23.9023 22.18ZM23.8423 15.64C25.0873 15.64 25.8823 16.45 25.8823 17.665H21.6523C21.8323 16.375 22.6123 15.64 23.8423 15.64ZM32.5037 18.145C32.5037 20.2 33.8237 21.805 35.9087 21.805C37.0637 21.805 38.0237 21.295 38.5037 20.44V21.91C38.5037 23.305 37.6037 24.205 36.2237 24.205C34.9937 24.205 34.1837 23.575 34.0037 22.495H32.5937C32.8637 24.355 34.2287 25.48 36.2237 25.48C38.4737 25.48 39.8987 24.01 39.8987 21.7V14.665H38.6387L38.5337 15.91C38.0687 14.995 37.1537 14.455 35.9687 14.455C33.8387 14.455 32.5037 16.075 32.5037 18.145ZM33.9137 18.115C33.9137 16.765 34.7537 15.685 36.1637 15.685C37.6037 15.685 38.4437 16.705 38.4437 18.115C38.4437 19.555 37.5737 20.575 36.1487 20.575C34.7687 20.575 33.9137 19.495 33.9137 18.115ZM47.0036 14.665V18.535C47.0036 20.11 46.2986 20.935 45.0086 20.935C43.9286 20.935 43.2536 20.335 43.2536 18.76V14.665H41.8436V19.225C41.8436 21.025 42.8036 22.18 44.5136 22.18C45.5936 22.18 46.5686 21.655 46.9886 20.89L47.1386 22H48.3986V14.665H47.0036ZM49.6978 19.87C49.6978 21.265 50.7928 22.18 52.5178 22.18C54.2578 22.18 55.4578 21.295 55.4578 19.9C55.4578 18.805 54.8428 18.235 53.5978 17.935L52.3078 17.62C51.5878 17.44 51.2278 17.11 51.2278 16.615C51.2278 15.94 51.7228 15.55 52.6078 15.55C53.4628 15.55 53.9578 16.015 53.9878 16.75H55.3378C55.3078 15.355 54.2578 14.455 52.6528 14.455C51.0328 14.455 49.8928 15.31 49.8928 16.66C49.8928 17.74 50.5078 18.385 51.8128 18.7L53.1028 19C53.8678 19.195 54.1078 19.495 54.1078 19.99C54.1078 20.665 53.5378 21.07 52.5478 21.07C51.6178 21.07 51.0478 20.62 51.0478 19.87H49.6978ZM59.0915 22V15.85H60.5315V14.665H59.0915V12.37H57.6815V14.665H56.2415V15.85H57.6815V22H59.0915ZM63.854 22.18C65.039 22.18 66.044 21.655 66.419 20.815L66.569 22H67.769V17.395C67.769 15.415 66.539 14.455 64.724 14.455C62.834 14.455 61.574 15.46 61.574 16.99H62.804C62.804 16.105 63.479 15.58 64.664 15.58C65.654 15.58 66.389 16.015 66.389 17.245V17.455L64.079 17.635C62.354 17.77 61.349 18.61 61.349 19.96C61.349 21.295 62.279 22.18 63.854 22.18ZM64.259 21.085C63.344 21.085 62.774 20.695 62.774 19.915C62.774 19.195 63.284 18.715 64.529 18.595L66.404 18.445V18.835C66.404 20.215 65.594 21.085 64.259 21.085ZM76.9882 22.18C78.8032 22.18 80.0332 21.295 80.3932 19.72H79.0732C78.8332 20.56 78.1132 21.01 77.0182 21.01C75.6232 21.01 74.8132 20.155 74.7082 18.61L80.3782 18.595V18.07C80.3782 15.895 79.0132 14.455 76.9282 14.455C74.7982 14.455 73.3432 16.045 73.3432 18.34C73.3432 20.62 74.8282 22.18 76.9882 22.18ZM76.9282 15.64C78.1732 15.64 78.9682 16.45 78.9682 17.665H74.7382C74.9182 16.375 75.6982 15.64 76.9282 15.64ZM81.3531 19.87C81.3531 21.265 82.4481 22.18 84.1731 22.18C85.9131 22.18 87.1131 21.295 87.1131 19.9C87.1131 18.805 86.4981 18.235 85.2531 17.935L83.9631 17.62C83.2431 17.44 82.8831 17.11 82.8831 16.615C82.8831 15.94 83.3781 15.55 84.2631 15.55C85.1181 15.55 85.6131 16.015 85.6431 16.75H86.9931C86.9631 15.355 85.9131 14.455 84.3081 14.455C82.6881 14.455 81.5481 15.31 81.5481 16.66C81.5481 17.74 82.1631 18.385 83.4681 18.7L84.7581 19C85.5231 19.195 85.7631 19.495 85.7631 19.99C85.7631 20.665 85.1931 21.07 84.2031 21.07C83.2731 21.07 82.7031 20.62 82.7031 19.87H81.3531ZM90.7467 22V15.85H92.1867V14.665H90.7467V12.37H89.3367V14.665H87.8967V15.85H89.3367V22H90.7467ZM96.5439 22.18C98.3589 22.18 99.5889 21.295 99.9489 19.72H98.6289C98.3889 20.56 97.6689 21.01 96.5739 21.01C95.1789 21.01 94.3689 20.155 94.2639 18.61L99.9339 18.595V18.07C99.9339 15.895 98.5689 14.455 96.4839 14.455C94.3539 14.455 92.8989 16.045 92.8989 18.34C92.8989 20.62 94.3839 22.18 96.5439 22.18ZM96.4839 15.64C97.7289 15.64 98.5239 16.45 98.5239 17.665H94.2939C94.4739 16.375 95.2539 15.64 96.4839 15.64ZM107.665 22H109.06L112.12 14.665H110.65L109.015 18.76C108.76 19.405 108.52 20.035 108.4 20.515C108.28 20.065 108.07 19.45 107.815 18.76L106.21 14.665H104.71L107.665 22ZM115.807 11.815H114.442L113.437 13.81H114.517L115.807 11.815ZM113.242 22H114.652V14.665H113.242V22ZM119.639 22.18C120.809 22.18 121.799 21.67 122.279 20.665L122.399 22H123.659V10.96H122.264V15.85C121.769 14.95 120.824 14.455 119.699 14.455C117.524 14.455 116.219 16.105 116.219 18.355C116.219 20.59 117.509 22.18 119.639 22.18ZM119.924 20.905C118.484 20.905 117.644 19.825 117.644 18.31C117.644 16.81 118.484 15.73 119.924 15.73C121.364 15.73 122.249 16.81 122.249 18.31C122.249 19.84 121.364 20.905 119.924 20.905ZM128.858 22.18C130.673 22.18 131.903 21.295 132.263 19.72H130.943C130.703 20.56 129.983 21.01 128.888 21.01C127.493 21.01 126.683 20.155 126.578 18.61L132.248 18.595V18.07C132.248 15.895 130.883 14.455 128.798 14.455C126.668 14.455 125.213 16.045 125.213 18.34C125.213 20.62 126.698 22.18 128.858 22.18ZM128.798 15.64C130.043 15.64 130.838 16.45 130.838 17.665H126.608C126.788 16.375 127.568 15.64 128.798 15.64ZM133.343 18.325C133.343 20.59 134.963 22.18 137.168 22.18C139.358 22.18 140.978 20.59 140.978 18.325C140.978 16.06 139.358 14.47 137.168 14.47C134.963 14.47 133.343 16.06 133.343 18.325ZM134.768 18.325C134.768 16.795 135.743 15.73 137.168 15.73C138.578 15.73 139.568 16.795 139.568 18.325C139.568 19.855 138.578 20.92 137.168 20.92C135.743 20.92 134.768 19.855 134.768 18.325Z" fill="#FCFBF7"/>
</svg>
