<svg width="139" height="45" viewBox="0 0 139 45" fill="none" xmlns="http://www.w3.org/2000/svg">
<path d="M3.162 13L4.422 10.242H9.574L10.834 13H11.954L7.698 3.62H6.312L2.07 13H3.162ZM6.438 5.79L6.942 4.572H7.026L7.544 5.79L9.168 9.346H4.828L6.438 5.79Z" fill="#121419"/>
<line y1="1.5" x2="14" y2="1.5" stroke="#121419"/>
<line y1="15.5" x2="14" y2="15.5" stroke="#121419"/>
<path d="M22 15.5L30 9L22 2.5" stroke="#121419"/>
<path d="M42.98 14.15C45.725 14.15 47.39 13.1 47.39 11.195C47.39 9.8 46.52 8.99 45.065 8.735V8.615C46.355 8.405 47.03 7.595 47.03 6.455C47.03 4.745 45.575 3.8 43.01 3.8C39.89 3.8 38.45 5.27 38.45 7.235V7.37H40.16V7.265C40.16 5.945 40.82 5.33 42.875 5.33C44.825 5.33 45.425 5.795 45.425 6.77C45.425 7.67 44.795 8.12 43.58 8.12H41V9.47H43.805C45.065 9.47 45.755 9.935 45.755 10.955C45.755 12.14 45.005 12.62 42.92 12.62C40.7 12.62 40.16 12.005 40.16 10.685V10.475H38.45V10.715C38.45 12.755 39.83 14.15 42.98 14.15ZM50.2605 14V11.675H48.2205V14H50.2605ZM55.6948 14.15C58.4398 14.15 60.1048 13.1 60.1048 11.195C60.1048 9.8 59.2348 8.99 57.7798 8.735V8.615C59.0698 8.405 59.7448 7.595 59.7448 6.455C59.7448 4.745 58.2898 3.8 55.7248 3.8C52.6048 3.8 51.1648 5.27 51.1648 7.235V7.37H52.8748V7.265C52.8748 5.945 53.5348 5.33 55.5898 5.33C57.5398 5.33 58.1398 5.795 58.1398 6.77C58.1398 7.67 57.5098 8.12 56.2948 8.12H53.7148V9.47H56.5198C57.7798 9.47 58.4698 9.935 58.4698 10.955C58.4698 12.14 57.7198 12.62 55.6348 12.62C53.4148 12.62 52.8748 12.005 52.8748 10.685V10.475H51.1648V10.715C51.1648 12.755 52.5448 14.15 55.6948 14.15ZM62.8554 14V9.815C62.8554 8.48 63.3804 7.775 64.6554 7.775C65.7654 7.775 66.2154 8.27 66.2154 9.335V9.995H67.8204V9.02C67.8204 7.61 67.0854 6.395 65.3904 6.395C63.8604 6.395 63.0504 7.355 62.8254 8.555H62.7204V6.545H61.2354V14H62.8554ZM72.5879 14.15C74.8079 14.15 76.3679 13.055 76.3679 11.465V11.33H74.7479V11.45C74.7479 12.335 74.1029 12.845 72.5429 12.845C70.8179 12.845 70.1129 12.08 70.0529 10.64H76.3829C76.4279 10.415 76.4429 10.205 76.4429 9.935C76.4429 7.67 74.8679 6.395 72.5579 6.395C70.1279 6.395 68.5379 7.955 68.5379 10.28C68.5379 12.77 70.1429 14.15 72.5879 14.15ZM72.5279 7.67C74.1179 7.67 74.9129 8.33 74.9129 9.71V9.74H70.0679C70.1579 8.405 70.8779 7.67 72.5279 7.67ZM79.2763 14V10.31C79.2763 8.66 79.8313 7.85 81.4363 7.85C82.8763 7.85 83.4463 8.48 83.4463 9.95V14H85.0513V10.31C85.0513 8.66 85.6213 7.85 87.2113 7.85C88.6513 7.85 89.2363 8.48 89.2363 9.95V14H90.8413V9.515C90.8413 7.715 89.8663 6.395 87.9313 6.395C86.0413 6.395 85.2013 7.58 85.0063 8.855H84.9163C84.7063 7.43 83.7913 6.395 82.0963 6.395C80.2363 6.395 79.4263 7.55 79.2313 8.795H79.1413V6.545H77.6563V14H79.2763ZM92.965 14.3L98.365 3.65H96.64L91.24 14.3H92.965ZM106.325 14V11.96H108.05V10.505H106.325V3.95H104.45L98.3 10.835V11.96H104.72V14H106.325ZM100.535 10.505V10.385L104.6 5.84H104.72V10.505H100.535ZM113.636 14.15C116.666 14.15 118.466 12.17 118.466 8.975C118.466 5.795 116.666 3.8 113.636 3.8C110.606 3.8 108.806 5.795 108.806 8.975C108.806 12.17 110.606 14.15 113.636 14.15ZM113.636 12.59C111.491 12.59 110.516 11.48 110.516 8.975C110.516 6.47 111.491 5.36 113.636 5.36C115.781 5.36 116.741 6.47 116.741 8.975C116.741 11.48 115.781 12.59 113.636 12.59ZM121.288 16.55V11.9H121.348C121.648 13.265 122.728 14.15 124.408 14.15C126.733 14.15 128.008 12.59 128.008 10.28C128.008 7.97 126.703 6.395 124.393 6.395C122.638 6.395 121.588 7.235 121.288 8.615H121.153V6.545H119.668V16.55H121.288ZM121.288 10.4V10.265C121.288 8.66 122.218 7.88 123.883 7.88C125.443 7.88 126.388 8.48 126.388 10.28C126.388 12.065 125.458 12.68 123.853 12.68C122.263 12.68 121.288 11.93 121.288 10.4ZM130.361 14L132.806 11.15H132.911L135.386 14H137.351L134.141 10.28V10.19L137.351 6.545H135.401L132.956 9.365H132.866L130.391 6.545H128.426L131.636 10.22V10.31L128.426 14H130.361Z" fill="#121419"/>
<path d="M20.4515 39.2C22.7515 39.2 24.4915 38.16 25.0715 36.34H25.1715V39H26.4515V32.82C26.4515 30.64 25.1715 28.92 22.1715 28.92C19.1315 28.92 17.4115 30.62 17.4115 32.7V32.78H18.8315V32.7C18.8315 30.96 19.9515 30.2 22.0715 30.2C24.2315 30.2 25.0715 30.96 25.0715 32.88V33.64L20.3715 34.16C18.5315 34.36 17.1915 35.06 17.1915 36.68C17.1915 38.28 18.5115 39.2 20.4515 39.2ZM18.6115 36.58C18.6115 35.56 19.3315 35.2 20.8115 35.06L25.0715 34.58V34.66C25.0715 37.04 23.1715 38.1 20.7715 38.1C19.2715 38.1 18.6115 37.58 18.6115 36.58Z" fill="#121419"/>
<path d="M10.4815 39.1C11.6315 39.1 12.5015 38.58 12.7915 37.67H12.8415V39H13.4815V35.91C13.4815 34.82 12.8415 33.96 11.3415 33.96C9.82147 33.96 8.96147 34.81 8.96147 35.85V35.89H9.67147V35.85C9.67147 34.98 10.2315 34.6 11.2915 34.6C12.3715 34.6 12.7915 34.98 12.7915 35.94V36.32L10.4415 36.58C9.52147 36.68 8.85147 37.03 8.85147 37.84C8.85147 38.64 9.51147 39.1 10.4815 39.1ZM9.56147 37.79C9.56147 37.28 9.92147 37.1 10.6615 37.03L12.7915 36.79V36.83C12.7915 38.02 11.8415 38.55 10.6415 38.55C9.89147 38.55 9.56147 38.29 9.56147 37.79Z" fill="#121419"/>
<path d="M36.5115 41L44.5115 34.5L36.5115 28" stroke="#121419"/>
<path d="M57.4915 39.65C60.2365 39.65 61.9015 38.6 61.9015 36.695C61.9015 35.3 61.0315 34.49 59.5765 34.235V34.115C60.8665 33.905 61.5415 33.095 61.5415 31.955C61.5415 30.245 60.0865 29.3 57.5215 29.3C54.4015 29.3 52.9615 30.77 52.9615 32.735V32.87H54.6715V32.765C54.6715 31.445 55.3315 30.83 57.3865 30.83C59.3365 30.83 59.9365 31.295 59.9365 32.27C59.9365 33.17 59.3065 33.62 58.0915 33.62H55.5115V34.97H58.3165C59.5765 34.97 60.2665 35.435 60.2665 36.455C60.2665 37.64 59.5165 38.12 57.4315 38.12C55.2115 38.12 54.6715 37.505 54.6715 36.185V35.975H52.9615V36.215C52.9615 38.255 54.3415 39.65 57.4915 39.65ZM64.652 39.5V35.315C64.652 33.98 65.177 33.275 66.452 33.275C67.562 33.275 68.012 33.77 68.012 34.835V35.495H69.617V34.52C69.617 33.11 68.882 31.895 67.187 31.895C65.657 31.895 64.847 32.855 64.622 34.055H64.517V32.045H63.032V39.5H64.652ZM74.3845 39.65C76.6045 39.65 78.1645 38.555 78.1645 36.965V36.83H76.5445V36.95C76.5445 37.835 75.8995 38.345 74.3395 38.345C72.6145 38.345 71.9095 37.58 71.8495 36.14H78.1795C78.2245 35.915 78.2395 35.705 78.2395 35.435C78.2395 33.17 76.6645 31.895 74.3545 31.895C71.9245 31.895 70.3345 33.455 70.3345 35.78C70.3345 38.27 71.9395 39.65 74.3845 39.65ZM74.3245 33.17C75.9145 33.17 76.7095 33.83 76.7095 35.21V35.24H71.8645C71.9545 33.905 72.6745 33.17 74.3245 33.17ZM81.0729 39.5V35.81C81.0729 34.16 81.6279 33.35 83.2329 33.35C84.6729 33.35 85.2429 33.98 85.2429 35.45V39.5H86.8479V35.81C86.8479 34.16 87.4179 33.35 89.0079 33.35C90.4479 33.35 91.0329 33.98 91.0329 35.45V39.5H92.6379V35.015C92.6379 33.215 91.6629 31.895 89.7279 31.895C87.8379 31.895 86.9979 33.08 86.8029 34.355H86.7129C86.5029 32.93 85.5879 31.895 83.8929 31.895C82.0329 31.895 81.2229 33.05 81.0279 34.295H80.9379V32.045H79.4529V39.5H81.0729ZM94.7617 39.8L100.162 29.15H98.4367L93.0367 39.8H94.7617ZM104.777 39.65C107.522 39.65 109.187 38.6 109.187 36.695C109.187 35.3 108.317 34.49 106.862 34.235V34.115C108.152 33.905 108.827 33.095 108.827 31.955C108.827 30.245 107.372 29.3 104.807 29.3C101.687 29.3 100.247 30.77 100.247 32.735V32.87H101.957V32.765C101.957 31.445 102.617 30.83 104.672 30.83C106.622 30.83 107.222 31.295 107.222 32.27C107.222 33.17 106.592 33.62 105.377 33.62H102.797V34.97H105.602C106.862 34.97 107.552 35.435 107.552 36.455C107.552 37.64 106.802 38.12 104.717 38.12C102.497 38.12 101.957 37.505 101.957 36.185V35.975H100.247V36.215C100.247 38.255 101.627 39.65 104.777 39.65ZM114.967 39.65C117.772 39.65 119.332 38.375 119.332 36.395C119.332 34.4 117.922 33.275 115.447 33.275C113.542 33.275 112.297 34.04 111.937 35.015H111.802V34.22C111.802 31.835 112.627 30.83 114.847 30.83C116.632 30.83 117.292 31.52 117.292 32.585V32.705H119.077V32.585C119.077 30.545 117.352 29.3 114.847 29.3C111.787 29.3 110.077 31.19 110.077 34.43C110.077 38.09 111.532 39.65 114.967 39.65ZM114.877 38.105C112.897 38.105 111.997 37.475 111.997 36.215C111.997 35.075 112.927 34.43 114.892 34.43C116.887 34.43 117.652 35.03 117.652 36.275C117.652 37.505 116.872 38.105 114.877 38.105ZM122.264 42.05V37.4H122.324C122.624 38.765 123.704 39.65 125.384 39.65C127.709 39.65 128.984 38.09 128.984 35.78C128.984 33.47 127.679 31.895 125.369 31.895C123.614 31.895 122.564 32.735 122.264 34.115H122.129V32.045H120.644V42.05H122.264ZM122.264 35.9V35.765C122.264 34.16 123.194 33.38 124.859 33.38C126.419 33.38 127.364 33.98 127.364 35.78C127.364 37.565 126.434 38.18 124.829 38.18C123.239 38.18 122.264 37.43 122.264 35.9ZM131.337 39.5L133.782 36.65H133.887L136.362 39.5H138.327L135.117 35.78V35.69L138.327 32.045H136.377L133.932 34.865H133.842L131.367 32.045H129.402L132.612 35.72V35.81L129.402 39.5H131.337Z" fill="#121419"/>
</svg>
