<svg width="176" height="45" viewBox="0 0 176 45" fill="none" xmlns="http://www.w3.org/2000/svg">
<path d="M54.162 13L55.422 10.242H60.574L61.834 13H62.954L58.698 3.62H57.312L53.07 13H54.162ZM57.438 5.79L57.942 4.572H58.026L58.544 5.79L60.168 9.346H55.828L57.438 5.79Z" fill="#232630"/>
<line x1="51" y1="1.5" x2="65" y2="1.5" stroke="#232630"/>
<line x1="51" y1="15.5" x2="65" y2="15.5" stroke="#232630"/>
<path d="M73 15.5L81 9L73 2.5" stroke="#232630"/>
<path d="M97.325 14V11.96H99.05V10.505H97.325V3.95H95.45L89.3 10.835V11.96H95.72V14H97.325ZM91.535 10.505V10.385L95.6 5.84H95.72V10.505H91.535ZM101.726 14V9.815C101.726 8.48 102.251 7.775 103.526 7.775C104.636 7.775 105.086 8.27 105.086 9.335V9.995H106.691V9.02C106.691 7.61 105.956 6.395 104.261 6.395C102.731 6.395 101.921 7.355 101.696 8.555H101.591V6.545H100.106V14H101.726ZM111.459 14.15C113.679 14.15 115.239 13.055 115.239 11.465V11.33H113.619V11.45C113.619 12.335 112.974 12.845 111.414 12.845C109.689 12.845 108.984 12.08 108.924 10.64H115.254C115.299 10.415 115.314 10.205 115.314 9.935C115.314 7.67 113.739 6.395 111.429 6.395C108.999 6.395 107.409 7.955 107.409 10.28C107.409 12.77 109.014 14.15 111.459 14.15ZM111.399 7.67C112.989 7.67 113.784 8.33 113.784 9.71V9.74H108.939C109.029 8.405 109.749 7.67 111.399 7.67ZM118.147 14V10.31C118.147 8.66 118.702 7.85 120.307 7.85C121.747 7.85 122.317 8.48 122.317 9.95V14H123.922V10.31C123.922 8.66 124.492 7.85 126.082 7.85C127.522 7.85 128.107 8.48 128.107 9.95V14H129.712V9.515C129.712 7.715 128.737 6.395 126.802 6.395C124.912 6.395 124.072 7.58 123.877 8.855H123.787C123.577 7.43 122.662 6.395 120.967 6.395C119.107 6.395 118.297 7.55 118.102 8.795H118.012V6.545H116.527V14H118.147ZM131.836 14.3L137.236 3.65H135.511L130.111 14.3H131.836ZM145.196 14V11.96H146.921V10.505H145.196V3.95H143.321L137.171 10.835V11.96H143.591V14H145.196ZM139.406 10.505V10.385L143.471 5.84H143.591V10.505H139.406ZM152.178 14.15C154.983 14.15 156.783 13.205 156.783 11.255C156.783 9.875 155.883 9.05 154.323 8.735V8.615C155.733 8.405 156.498 7.58 156.498 6.425C156.498 4.85 155.028 3.8 152.178 3.8C149.328 3.8 147.858 4.85 147.858 6.425C147.858 7.58 148.638 8.405 150.018 8.615V8.735C148.533 9.05 147.573 9.875 147.573 11.255C147.573 13.205 149.343 14.15 152.178 14.15ZM152.178 8.225C150.243 8.225 149.478 7.76 149.478 6.785C149.478 5.855 150.093 5.33 152.178 5.33C154.278 5.33 154.893 5.855 154.893 6.785C154.893 7.76 154.128 8.225 152.178 8.225ZM152.178 12.62C149.988 12.62 149.208 12.125 149.208 10.955C149.208 9.86 150.003 9.335 152.178 9.335C154.353 9.335 155.148 9.86 155.148 10.955C155.148 12.125 154.353 12.62 152.178 12.62ZM159.485 16.55V11.9H159.545C159.845 13.265 160.925 14.15 162.605 14.15C164.93 14.15 166.205 12.59 166.205 10.28C166.205 7.97 164.9 6.395 162.59 6.395C160.835 6.395 159.785 7.235 159.485 8.615H159.35V6.545H157.865V16.55H159.485ZM159.485 10.4V10.265C159.485 8.66 160.415 7.88 162.08 7.88C163.64 7.88 164.585 8.48 164.585 10.28C164.585 12.065 163.655 12.68 162.05 12.68C160.46 12.68 159.485 11.93 159.485 10.4ZM168.558 14L171.003 11.15H171.108L173.583 14H175.548L172.338 10.28V10.19L175.548 6.545H173.598L171.153 9.365H171.063L168.588 6.545H166.623L169.833 10.22V10.31L166.623 14H168.558Z" fill="#232630"/>
<path d="M22.94 39.2C25.24 39.2 26.98 38.16 27.56 36.34H27.66V39H28.94V32.82C28.94 30.64 27.66 28.92 24.66 28.92C21.62 28.92 19.9 30.62 19.9 32.7V32.78H21.32V32.7C21.32 30.96 22.44 30.2 24.56 30.2C26.72 30.2 27.56 30.96 27.56 32.88V33.64L22.86 34.16C21.02 34.36 19.68 35.06 19.68 36.68C19.68 38.28 21 39.2 22.94 39.2ZM21.1 36.58C21.1 35.56 21.82 35.2 23.3 35.06L27.56 34.58V34.66C27.56 37.04 25.66 38.1 23.26 38.1C21.76 38.1 21.1 37.58 21.1 36.58Z" fill="#232630"/>
<path d="M12.97 39.1C14.12 39.1 14.99 38.58 15.28 37.67H15.33V39H15.97V35.91C15.97 34.82 15.33 33.96 13.83 33.96C12.31 33.96 11.45 34.81 11.45 35.85V35.89H12.16V35.85C12.16 34.98 12.72 34.6 13.78 34.6C14.86 34.6 15.28 34.98 15.28 35.94V36.32L12.93 36.58C12.01 36.68 11.34 37.03 11.34 37.84C11.34 38.64 12 39.1 12.97 39.1ZM12.05 37.79C12.05 37.28 12.41 37.1 13.15 37.03L15.28 36.79V36.83C15.28 38.02 14.33 38.55 13.13 38.55C12.38 38.55 12.05 38.29 12.05 37.79Z" fill="#232630"/>
<path d="M39 41L47 34.5L39 28" stroke="#232630"/>
<path d="M59.98 39.65C62.725 39.65 64.39 38.6 64.39 36.695C64.39 35.3 63.52 34.49 62.065 34.235V34.115C63.355 33.905 64.03 33.095 64.03 31.955C64.03 30.245 62.575 29.3 60.01 29.3C56.89 29.3 55.45 30.77 55.45 32.735V32.87H57.16V32.765C57.16 31.445 57.82 30.83 59.875 30.83C61.825 30.83 62.425 31.295 62.425 32.27C62.425 33.17 61.795 33.62 60.58 33.62H58V34.97H60.805C62.065 34.97 62.755 35.435 62.755 36.455C62.755 37.64 62.005 38.12 59.92 38.12C57.7 38.12 57.16 37.505 57.16 36.185V35.975H55.45V36.215C55.45 38.255 56.83 39.65 59.98 39.65ZM67.2605 39.5V37.175H65.2205V39.5H67.2605ZM72.6648 39.65C75.4698 39.65 77.2698 38.705 77.2698 36.755C77.2698 35.375 76.3698 34.55 74.8098 34.235V34.115C76.2198 33.905 76.9848 33.08 76.9848 31.925C76.9848 30.35 75.5148 29.3 72.6648 29.3C69.8148 29.3 68.3448 30.35 68.3448 31.925C68.3448 33.08 69.1248 33.905 70.5048 34.115V34.235C69.0198 34.55 68.0598 35.375 68.0598 36.755C68.0598 38.705 69.8298 39.65 72.6648 39.65ZM72.6648 33.725C70.7298 33.725 69.9648 33.26 69.9648 32.285C69.9648 31.355 70.5798 30.83 72.6648 30.83C74.7648 30.83 75.3798 31.355 75.3798 32.285C75.3798 33.26 74.6148 33.725 72.6648 33.725ZM72.6648 38.12C70.4748 38.12 69.6948 37.625 69.6948 36.455C69.6948 35.36 70.4898 34.835 72.6648 34.835C74.8398 34.835 75.6348 35.36 75.6348 36.455C75.6348 37.625 74.8398 38.12 72.6648 38.12ZM79.9725 39.5V35.315C79.9725 33.98 80.4975 33.275 81.7725 33.275C82.8825 33.275 83.3325 33.77 83.3325 34.835V35.495H84.9375V34.52C84.9375 33.11 84.2025 31.895 82.5075 31.895C80.9775 31.895 80.1675 32.855 79.9425 34.055H79.8375V32.045H78.3525V39.5H79.9725ZM89.7051 39.65C91.9251 39.65 93.4851 38.555 93.4851 36.965V36.83H91.8651V36.95C91.8651 37.835 91.2201 38.345 89.6601 38.345C87.9351 38.345 87.2301 37.58 87.1701 36.14H93.5001C93.5451 35.915 93.5601 35.705 93.5601 35.435C93.5601 33.17 91.9851 31.895 89.6751 31.895C87.2451 31.895 85.6551 33.455 85.6551 35.78C85.6551 38.27 87.2601 39.65 89.7051 39.65ZM89.6451 33.17C91.2351 33.17 92.0301 33.83 92.0301 35.21V35.24H87.1851C87.2751 33.905 87.9951 33.17 89.6451 33.17ZM96.3934 39.5V35.81C96.3934 34.16 96.9484 33.35 98.5534 33.35C99.9934 33.35 100.563 33.98 100.563 35.45V39.5H102.168V35.81C102.168 34.16 102.738 33.35 104.328 33.35C105.768 33.35 106.353 33.98 106.353 35.45V39.5H107.958V35.015C107.958 33.215 106.983 31.895 105.048 31.895C103.158 31.895 102.318 33.08 102.123 34.355H102.033C101.823 32.93 100.908 31.895 99.2134 31.895C97.3534 31.895 96.5434 33.05 96.3484 34.295H96.2584V32.045H94.7734V39.5H96.3934ZM110.082 39.8L115.482 29.15H113.757L108.357 39.8H110.082ZM123.442 39.5V37.46H125.167V36.005H123.442V29.45H121.567L115.417 36.335V37.46H121.837V39.5H123.442ZM117.652 36.005V35.885L121.717 31.34H121.837V36.005H117.652ZM130.529 39.65C133.364 39.65 134.879 38.315 134.879 36.23C134.879 34.16 133.499 33.035 131.159 33.035C129.494 33.035 128.324 33.65 127.814 34.205L127.694 34.19L128.054 30.905H134.399V29.45H126.644L126.104 34.97L127.604 35.075V35.045L127.709 35.075C128.279 34.565 129.119 34.325 130.559 34.325C132.389 34.325 133.184 34.85 133.184 36.23C133.184 37.64 132.359 38.18 130.559 38.18C128.549 38.18 127.649 37.655 127.649 36.47V36.305H125.999V36.47C125.999 38.495 127.589 39.65 130.529 39.65ZM137.895 39.5V37.175H135.855V39.5H137.895ZM142.505 39.515C142.505 35.54 143.915 33.38 146.81 30.755V29.45H138.5V30.905H145.085V31.025C143.03 32.615 140.675 34.85 140.675 39.515H142.505ZM151.84 39.65C154.645 39.65 156.445 38.705 156.445 36.755C156.445 35.375 155.545 34.55 153.985 34.235V34.115C155.395 33.905 156.16 33.08 156.16 31.925C156.16 30.35 154.69 29.3 151.84 29.3C148.99 29.3 147.52 30.35 147.52 31.925C147.52 33.08 148.3 33.905 149.68 34.115V34.235C148.195 34.55 147.235 35.375 147.235 36.755C147.235 38.705 149.005 39.65 151.84 39.65ZM151.84 33.725C149.905 33.725 149.14 33.26 149.14 32.285C149.14 31.355 149.755 30.83 151.84 30.83C153.94 30.83 154.555 31.355 154.555 32.285C154.555 33.26 153.79 33.725 151.84 33.725ZM151.84 38.12C149.65 38.12 148.87 37.625 148.87 36.455C148.87 35.36 149.665 34.835 151.84 34.835C154.015 34.835 154.81 35.36 154.81 36.455C154.81 37.625 154.015 38.12 151.84 38.12ZM159.147 42.05V37.4H159.207C159.507 38.765 160.587 39.65 162.267 39.65C164.592 39.65 165.867 38.09 165.867 35.78C165.867 33.47 164.562 31.895 162.252 31.895C160.497 31.895 159.447 32.735 159.147 34.115H159.012V32.045H157.527V42.05H159.147ZM159.147 35.9V35.765C159.147 34.16 160.077 33.38 161.742 33.38C163.302 33.38 164.247 33.98 164.247 35.78C164.247 37.565 163.317 38.18 161.712 38.18C160.122 38.18 159.147 37.43 159.147 35.9ZM168.22 39.5L170.665 36.65H170.77L173.245 39.5H175.21L172 35.78V35.69L175.21 32.045H173.26L170.815 34.865H170.725L168.25 32.045H166.285L169.495 35.72V35.81L166.285 39.5H168.22Z" fill="#232630"/>
</svg>
