<svg width="150" height="45" viewBox="0 0 150 45" fill="none" xmlns="http://www.w3.org/2000/svg">
<path d="M21.162 13L22.422 10.242H27.574L28.834 13H29.954L25.698 3.62H24.312L20.07 13H21.162ZM24.438 5.79L24.942 4.572H25.026L25.544 5.79L27.168 9.346H22.828L24.438 5.79Z" fill="#232630"/>
<line x1="18" y1="1.5" x2="32" y2="1.5" stroke="#232630"/>
<line x1="18" y1="15.5" x2="32" y2="15.5" stroke="#232630"/>
<path d="M40 15.5L48 9L40 2.5" stroke="#232630"/>
<path d="M61.055 14.15C63.89 14.15 65.405 12.815 65.405 10.73C65.405 8.66 64.025 7.535 61.685 7.535C60.02 7.535 58.85 8.15 58.34 8.705L58.22 8.69L58.58 5.405H64.925V3.95H57.17L56.63 9.47L58.13 9.575V9.545L58.235 9.575C58.805 9.065 59.645 8.825 61.085 8.825C62.915 8.825 63.71 9.35 63.71 10.73C63.71 12.14 62.885 12.68 61.085 12.68C59.075 12.68 58.175 12.155 58.175 10.97V10.805H56.525V10.97C56.525 12.995 58.115 14.15 61.055 14.15ZM68.4216 14V11.675H66.3816V14H68.4216ZM73.106 14V3.95H71.681C71.246 4.91 70.616 5.195 69.506 5.195H69.026V6.35H71.486V14H73.106ZM76.2264 14V9.815C76.2264 8.48 76.7514 7.775 78.0264 7.775C79.1364 7.775 79.5864 8.27 79.5864 9.335V9.995H81.1914V9.02C81.1914 7.61 80.4564 6.395 78.7614 6.395C77.2314 6.395 76.4214 7.355 76.1964 8.555H76.0914V6.545H74.6064V14H76.2264ZM85.959 14.15C88.179 14.15 89.739 13.055 89.739 11.465V11.33H88.119V11.45C88.119 12.335 87.474 12.845 85.914 12.845C84.189 12.845 83.484 12.08 83.424 10.64H89.754C89.799 10.415 89.814 10.205 89.814 9.935C89.814 7.67 88.239 6.395 85.929 6.395C83.499 6.395 81.909 7.955 81.909 10.28C81.909 12.77 83.514 14.15 85.959 14.15ZM85.899 7.67C87.489 7.67 88.284 8.33 88.284 9.71V9.74H83.439C83.529 8.405 84.249 7.67 85.899 7.67ZM92.6473 14V10.31C92.6473 8.66 93.2023 7.85 94.8073 7.85C96.2473 7.85 96.8173 8.48 96.8173 9.95V14H98.4223V10.31C98.4223 8.66 98.9923 7.85 100.582 7.85C102.022 7.85 102.607 8.48 102.607 9.95V14H104.212V9.515C104.212 7.715 103.237 6.395 101.302 6.395C99.4123 6.395 98.5723 7.58 98.3773 8.855H98.2873C98.0773 7.43 97.1623 6.395 95.4673 6.395C93.6073 6.395 92.7973 7.55 92.6023 8.795H92.5123V6.545H91.0273V14H92.6473ZM106.336 14.3L111.736 3.65H110.011L104.611 14.3H106.336ZM116.771 14.15C119.576 14.15 121.136 12.875 121.136 10.895C121.136 8.9 119.726 7.775 117.251 7.775C115.346 7.775 114.101 8.54 113.741 9.515H113.606V8.72C113.606 6.335 114.431 5.33 116.651 5.33C118.436 5.33 119.096 6.02 119.096 7.085V7.205H120.881V7.085C120.881 5.045 119.156 3.8 116.651 3.8C113.591 3.8 111.881 5.69 111.881 8.93C111.881 12.59 113.336 14.15 116.771 14.15ZM116.681 12.605C114.701 12.605 113.801 11.975 113.801 10.715C113.801 9.575 114.731 8.93 116.696 8.93C118.691 8.93 119.456 9.53 119.456 10.775C119.456 12.005 118.676 12.605 116.681 12.605ZM130.623 14V12.545H126.318L123.888 12.71C123.888 11.57 124.353 11.09 125.703 10.625L127.818 9.98C129.588 9.44 130.653 8.57 130.653 6.92C130.653 5.15 129.453 3.8 126.603 3.8C123.468 3.8 122.193 5.48 122.193 7.34V7.49H123.783V7.31C123.783 5.99 124.533 5.285 126.543 5.285C128.343 5.285 129.033 5.825 129.033 6.89C129.033 7.775 128.613 8.18 127.413 8.615L125.013 9.44C122.943 10.145 122.208 11.075 122.208 12.935V14H130.623ZM133.473 16.55V11.9H133.533C133.833 13.265 134.913 14.15 136.593 14.15C138.918 14.15 140.193 12.59 140.193 10.28C140.193 7.97 138.888 6.395 136.578 6.395C134.823 6.395 133.773 7.235 133.473 8.615H133.338V6.545H131.853V16.55H133.473ZM133.473 10.4V10.265C133.473 8.66 134.403 7.88 136.068 7.88C137.628 7.88 138.573 8.48 138.573 10.28C138.573 12.065 137.643 12.68 136.038 12.68C134.448 12.68 133.473 11.93 133.473 10.4ZM142.545 14L144.99 11.15H145.095L147.57 14H149.535L146.325 10.28V10.19L149.535 6.545H147.585L145.14 9.365H145.05L142.575 6.545H140.61L143.82 10.22V10.31L140.61 14H142.545Z" fill="#232630"/>
<path d="M20.94 39.2C23.24 39.2 24.98 38.16 25.56 36.34H25.66V39H26.94V32.82C26.94 30.64 25.66 28.92 22.66 28.92C19.62 28.92 17.9 30.62 17.9 32.7V32.78H19.32V32.7C19.32 30.96 20.44 30.2 22.56 30.2C24.72 30.2 25.56 30.96 25.56 32.88V33.64L20.86 34.16C19.02 34.36 17.68 35.06 17.68 36.68C17.68 38.28 19 39.2 20.94 39.2ZM19.1 36.58C19.1 35.56 19.82 35.2 21.3 35.06L25.56 34.58V34.66C25.56 37.04 23.66 38.1 21.26 38.1C19.76 38.1 19.1 37.58 19.1 36.58Z" fill="#232630"/>
<path d="M10.97 39.1C12.12 39.1 12.99 38.58 13.28 37.67H13.33V39H13.97V35.91C13.97 34.82 13.33 33.96 11.83 33.96C10.31 33.96 9.45 34.81 9.45 35.85V35.89H10.16V35.85C10.16 34.98 10.72 34.6 11.78 34.6C12.86 34.6 13.28 34.98 13.28 35.94V36.32L10.93 36.58C10.01 36.68 9.34 37.03 9.34 37.84C9.34 38.64 10 39.1 10.97 39.1ZM10.05 37.79C10.05 37.28 10.41 37.1 11.15 37.03L13.28 36.79V36.83C13.28 38.02 12.33 38.55 11.13 38.55C10.38 38.55 10.05 38.29 10.05 37.79Z" fill="#232630"/>
<path d="M37 41L45 34.5L37 28" stroke="#232630"/>
<path d="M61.325 39.5V37.46H63.05V36.005H61.325V29.45H59.45L53.3 36.335V37.46H59.72V39.5H61.325ZM55.535 36.005V35.885L59.6 31.34H59.72V36.005H55.535ZM65.8464 39.5V37.175H63.8064V39.5H65.8464ZM70.4558 39.515C70.4558 35.54 71.8658 33.38 74.7608 30.755V29.45H66.4508V30.905H73.0358V31.025C70.9808 32.615 68.6258 34.85 68.6258 39.515H70.4558ZM77.2108 39.5V35.315C77.2108 33.98 77.7358 33.275 79.0108 33.275C80.1208 33.275 80.5708 33.77 80.5708 34.835V35.495H82.1758V34.52C82.1758 33.11 81.4408 31.895 79.7458 31.895C78.2158 31.895 77.4058 32.855 77.1808 34.055H77.0758V32.045H75.5908V39.5H77.2108ZM86.9434 39.65C89.1634 39.65 90.7234 38.555 90.7234 36.965V36.83H89.1034V36.95C89.1034 37.835 88.4584 38.345 86.8984 38.345C85.1734 38.345 84.4684 37.58 84.4084 36.14H90.7384C90.7834 35.915 90.7984 35.705 90.7984 35.435C90.7984 33.17 89.2234 31.895 86.9134 31.895C84.4834 31.895 82.8934 33.455 82.8934 35.78C82.8934 38.27 84.4984 39.65 86.9434 39.65ZM86.8834 33.17C88.4734 33.17 89.2684 33.83 89.2684 35.21V35.24H84.4234C84.5134 33.905 85.2334 33.17 86.8834 33.17ZM93.6317 39.5V35.81C93.6317 34.16 94.1867 33.35 95.7917 33.35C97.2317 33.35 97.8017 33.98 97.8017 35.45V39.5H99.4067V35.81C99.4067 34.16 99.9767 33.35 101.567 33.35C103.007 33.35 103.592 33.98 103.592 35.45V39.5H105.197V35.015C105.197 33.215 104.222 31.895 102.287 31.895C100.397 31.895 99.5567 33.08 99.3617 34.355H99.2717C99.0617 32.93 98.1467 31.895 96.4517 31.895C94.5917 31.895 93.7817 33.05 93.5867 34.295H93.4967V32.045H92.0117V39.5H93.6317ZM107.321 39.8L112.721 29.15H110.996L105.596 39.8H107.321ZM117.41 39.65C120.245 39.65 121.76 38.315 121.76 36.23C121.76 34.16 120.38 33.035 118.04 33.035C116.375 33.035 115.205 33.65 114.695 34.205L114.575 34.19L114.935 30.905H121.28V29.45H113.525L112.985 34.97L114.485 35.075V35.045L114.59 35.075C115.16 34.565 116 34.325 117.44 34.325C119.27 34.325 120.065 34.85 120.065 36.23C120.065 37.64 119.24 38.18 117.44 38.18C115.43 38.18 114.53 37.655 114.53 36.47V36.305H112.88V36.47C112.88 38.495 114.47 39.65 117.41 39.65ZM126.442 39.515C126.442 35.54 127.852 33.38 130.747 30.755V29.45H122.437V30.905H129.022V31.025C126.967 32.615 124.612 34.85 124.612 39.515H126.442ZM133.197 42.05V37.4H133.257C133.557 38.765 134.637 39.65 136.317 39.65C138.642 39.65 139.917 38.09 139.917 35.78C139.917 33.47 138.612 31.895 136.302 31.895C134.547 31.895 133.497 32.735 133.197 34.115H133.062V32.045H131.577V42.05H133.197ZM133.197 35.9V35.765C133.197 34.16 134.127 33.38 135.792 33.38C137.352 33.38 138.297 33.98 138.297 35.78C138.297 37.565 137.367 38.18 135.762 38.18C134.172 38.18 133.197 37.43 133.197 35.9ZM142.27 39.5L144.715 36.65H144.82L147.295 39.5H149.26L146.05 35.78V35.69L149.26 32.045H147.31L144.865 34.865H144.775L142.3 32.045H140.335L143.545 35.72V35.81L140.335 39.5H142.27Z" fill="#232630"/>
</svg>
