<svg width="414" height="42" viewBox="0 0 414 42" fill="none" xmlns="http://www.w3.org/2000/svg">
<rect width="414" height="42" fill="#121419"/>
<path d="M72.5434 8.00001C69.5675 8.00001 66.8376 9.0477 64.6956 10.7938C62.4787 8.98272 59.7064 7.99578 56.8478 8.00001C53.8719 8.00001 51.1419 9.0477 49 10.7938C46.7831 8.98272 44.0108 7.99578 41.1522 8.00001C38.1763 8.00001 35.4463 9.0477 33.3044 10.7938C31.4768 9.3055 29.2664 8.36725 26.9293 8.0878C24.5922 7.80836 22.2241 8.19915 20.0992 9.21491C17.9743 10.2307 16.1797 11.8298 14.9233 13.8271C13.6668 15.8244 13 18.138 13 20.5C13 22.862 13.6668 25.1756 14.9233 27.1729C16.1797 29.1702 17.9743 30.7693 20.0992 31.7851C22.2241 32.8009 24.5922 33.1916 26.9293 32.9122C29.2664 32.6328 31.4768 31.6945 33.3044 30.2062C35.4463 31.9523 38.1763 33 41.1522 33C44.1281 33 46.858 31.9523 49 30.2062C51.1419 31.9523 53.8719 33 56.8478 33C59.8237 33 62.5537 31.9523 64.6956 30.2062C66.2438 31.467 68.0709 32.3364 70.0234 32.7413C71.976 33.1463 73.9968 33.0749 75.9162 32.5333C77.8355 31.9916 79.5972 30.9955 81.0532 29.6286C82.5093 28.2617 83.6171 26.5641 84.2835 24.6783C84.95 22.7925 85.1556 20.7737 84.8831 18.7916C84.6106 16.8095 83.868 14.9221 82.7176 13.2878C81.5673 11.6536 80.0428 10.3204 78.2723 9.40021C76.5019 8.48007 74.5372 7.99988 72.5434 8.00001V8.00001ZM64.6956 26.1178C63.5266 24.4797 62.8992 22.5148 62.9017 20.5C62.9017 18.4046 63.5677 16.4658 64.6956 14.8822C65.8236 16.4658 66.4896 18.4046 66.4896 20.5C66.4896 22.5954 65.8236 24.5342 64.6956 26.1178ZM49 26.1178C47.831 24.4797 47.2036 22.5148 47.206 20.5C47.206 18.4046 47.872 16.4658 49 14.8822C50.128 16.4658 50.794 18.4046 50.794 20.5C50.794 22.5954 50.128 24.5342 49 26.1178ZM33.3044 26.1178C32.1354 24.4797 31.5079 22.5148 31.5104 20.5C31.5104 18.4046 32.1764 16.4658 33.3044 14.8822C34.4323 16.4658 35.0983 18.4046 35.0983 20.5C35.0983 22.5954 34.4323 24.5342 33.3044 26.1178ZM15.8148 20.5C15.8155 18.6945 16.3195 16.9252 17.27 15.3922C18.2204 13.8592 19.5792 12.6237 21.1929 11.8253C22.8065 11.0268 24.6105 10.6974 26.401 10.8743C28.1914 11.0511 29.8969 11.7272 31.3244 12.826C29.6188 15.0175 28.6936 17.7192 28.6965 20.5C28.6965 23.3932 29.6805 26.0576 31.3244 28.174C29.8969 29.2728 28.1914 29.9489 26.401 30.1257C24.6105 30.3026 22.8065 29.9732 21.1929 29.1748C19.5792 28.3763 18.2204 27.1408 17.27 25.6078C16.3195 24.0748 15.8155 22.3055 15.8148 20.5V20.5ZM35.2843 28.174C36.99 25.9825 37.9152 23.2808 37.9123 20.5C37.9123 17.6068 36.9283 14.9424 35.2843 12.826C36.9662 11.5265 39.0296 10.8226 41.1522 10.824C43.3601 10.824 45.3941 11.5706 47.02 12.826C45.3136 15.0171 44.3883 17.7191 44.3921 20.5C44.3921 23.3932 45.3761 26.0576 47.02 28.174C45.3381 29.4735 43.2748 30.1774 41.1522 30.1761C39.0293 30.179 36.9655 29.4749 35.2843 28.174V28.174ZM50.98 28.174C52.6864 25.9829 53.6117 23.281 53.6079 20.5C53.6079 17.6068 52.6239 14.9424 50.98 12.823C52.6059 11.5706 54.6399 10.8209 56.8478 10.8209C59.0558 10.8209 61.0897 11.5676 62.7157 12.823C61.0092 15.0141 60.0839 17.716 60.0877 20.497C60.0877 23.3902 61.0717 26.0546 62.7157 28.171C61.0338 29.4704 58.9704 30.1744 56.8478 30.173C54.7251 30.1783 52.6608 29.475 50.98 28.174V28.174ZM72.5434 30.1761C70.4206 30.179 68.3567 29.4749 66.6756 28.174C68.3808 25.9822 69.3059 23.2807 69.3035 20.5C69.3035 17.6068 68.3195 14.9424 66.6756 12.826C67.8911 11.8892 69.3116 11.2566 70.8194 10.9808C72.3272 10.705 73.8788 10.7939 75.3455 11.2401C76.8122 11.6863 78.1518 12.4769 79.2532 13.5465C80.3546 14.616 81.186 15.9337 81.6786 17.3901C82.1712 18.8466 82.3107 20.3999 82.0856 21.9213C81.8605 23.4427 81.2772 24.8883 80.3841 26.1383C79.491 27.3882 78.3139 28.4065 76.9504 29.1088C75.5868 29.811 74.0761 30.1768 72.5434 30.1761V30.1761Z" fill="#FCFBF7"/>
<path d="M104.16 26.5L105.546 23.368H111.918L113.304 26.5H115.5L110.118 14.44H107.382L102 26.5H104.16ZM107.958 17.95L108.66 16.24H108.804L109.506 17.95L111.144 21.622H106.32L107.958 17.95ZM120.126 26.68C122.43 26.68 123.618 25.24 123.906 23.728H124.014V26.5H125.796V17.554H123.87V21.982C123.87 23.926 122.952 24.934 120.972 24.934C119.082 24.934 118.308 24.088 118.308 22.414V17.554H116.382V22.936C116.382 25.006 117.606 26.68 120.126 26.68ZM131.504 26.68C133.52 26.68 134.834 25.708 135.212 23.926H135.338V26.5H137.12V14.44H135.176V19.984H135.068C134.708 18.472 133.502 17.374 131.378 17.374C128.66 17.374 127.112 19.246 127.112 22.036C127.112 24.79 128.678 26.68 131.504 26.68ZM129.074 22.036C129.074 19.876 130.19 19.138 132.062 19.138C134.06 19.138 135.176 20.074 135.176 21.982V22.126C135.176 23.998 134.006 24.898 132.098 24.898C130.172 24.898 129.074 24.178 129.074 22.036ZM140.862 16.51V14.44H138.918V16.51H140.862ZM140.862 26.5V17.554H138.918V26.5H140.862ZM150.502 21.802V20.668H145.606V21.802H150.502ZM159.658 26.68C162.142 26.68 163.978 25.402 163.978 23.548V23.422H162.7V23.548C162.7 24.844 161.728 25.618 159.64 25.618C157.282 25.618 156.256 24.412 156.184 22.414H164.014C164.068 22.18 164.104 21.91 164.104 21.586C164.104 18.94 162.25 17.428 159.64 17.428C156.778 17.428 154.978 19.354 154.978 22.054C154.978 24.88 156.796 26.68 159.658 26.68ZM159.622 18.49C161.71 18.49 162.898 19.48 162.898 21.352C162.898 21.442 162.898 21.532 162.898 21.622H156.184C156.274 19.678 157.318 18.49 159.622 18.49ZM167.077 26.5V14.44H165.799V26.5H167.077ZM173.809 26.5V22.198C173.809 19.912 174.943 18.598 177.103 18.598C179.137 18.598 180.019 19.66 180.019 21.496V26.5H181.297V21.316C181.297 19.21 180.055 17.428 177.553 17.428C175.339 17.428 174.079 18.886 173.773 20.398H173.683V17.608H172.531V26.5H173.809ZM187.103 26.68C189.317 26.68 190.595 25.24 190.901 23.728H190.991V26.5H192.143V17.608H190.865V21.928C190.865 24.214 189.731 25.528 187.553 25.528C185.501 25.528 184.601 24.466 184.601 22.612V17.608H183.323V22.81C183.323 24.916 184.565 26.68 187.103 26.68ZM198.523 26.68C201.007 26.68 202.843 25.402 202.843 23.548V23.422H201.565V23.548C201.565 24.844 200.593 25.618 198.505 25.618C196.147 25.618 195.121 24.412 195.049 22.414H202.879C202.933 22.18 202.969 21.91 202.969 21.586C202.969 18.94 201.115 17.428 198.505 17.428C195.643 17.428 193.843 19.354 193.843 22.054C193.843 24.88 195.661 26.68 198.523 26.68ZM198.487 18.49C200.575 18.49 201.763 19.48 201.763 21.352C201.763 21.442 201.763 21.532 201.763 21.622H195.049C195.139 19.678 196.183 18.49 198.487 18.49ZM209.578 26.5L213.826 17.608H212.44L208.858 25.24H208.75L205.15 17.608H203.764L208.012 26.5H209.578ZM219.444 26.68C222.36 26.68 224.286 24.754 224.286 22.054C224.286 19.354 222.36 17.428 219.444 17.428C216.546 17.428 214.62 19.354 214.62 22.054C214.62 24.754 216.546 26.68 219.444 26.68ZM219.444 25.528C216.996 25.528 215.88 24.214 215.88 22.054C215.88 19.912 216.996 18.58 219.444 18.58C221.892 18.58 223.026 19.912 223.026 22.054C223.026 24.214 221.892 25.528 219.444 25.528ZM230.569 26.5V21.568H233.161C234.763 21.568 235.393 22 236.005 23.008L238.147 26.5H239.623L237.355 22.81C236.941 22.108 236.491 21.586 235.699 21.37V21.28C237.931 21.226 239.425 19.966 239.425 17.932C239.425 15.718 237.715 14.44 235.195 14.44H229.291V26.5H230.569ZM230.569 15.61H235.177C237.085 15.61 238.093 16.366 238.093 18.076C238.093 19.786 237.085 20.542 235.177 20.542H230.569V15.61ZM245.819 26.68C249.095 26.68 251.147 25.528 251.147 23.224C251.147 21.73 250.139 20.578 248.123 20.182V20.056C249.869 19.822 250.823 18.76 250.823 17.392C250.823 15.538 249.131 14.26 245.819 14.26C242.525 14.26 240.815 15.538 240.815 17.392C240.815 18.76 241.769 19.822 243.515 20.056V20.182C241.535 20.578 240.491 21.73 240.491 23.224C240.491 25.528 242.525 26.68 245.819 26.68ZM245.819 19.75C243.263 19.75 242.093 19.048 242.093 17.626C242.093 16.294 243.011 15.484 245.819 15.484C248.645 15.484 249.545 16.294 249.545 17.626C249.545 19.048 248.375 19.75 245.819 19.75ZM245.819 25.456C242.939 25.456 241.787 24.736 241.787 23.026C241.787 21.46 242.993 20.668 245.819 20.668C248.645 20.668 249.851 21.46 249.851 23.026C249.851 24.736 248.681 25.456 245.819 25.456Z" fill="white"/>
<path d="M313 15C313 13.3431 314.343 12 316 12H398C399.657 12 401 13.3431 401 15V27C401 28.6569 399.657 30 398 30H316C314.343 30 313 28.6569 313 27V15Z" fill="#E73A02"/>
<path d="M355.375 16.324H354.199V25H355.375V16.324ZM360.567 19.084C360.339 19.036 360.171 19.012 359.967 19.012C359.163 19.012 358.575 19.42 358.335 20.032L358.263 19.144H357.207V25H358.335V21.892C358.335 20.764 358.995 20.116 360.063 20.116H360.567V19.084Z" fill="#FCFBF7"/>
</svg>
