<svg width="473" height="794" viewBox="0 0 473 794" fill="none" xmlns="http://www.w3.org/2000/svg">
<rect width="473" height="794" fill="#FCFBF7"/>
<path d="M29.2354 182.235C29.2354 177.622 32.9751 173.882 37.5883 173.882H426C430.613 173.882 434.353 177.622 434.353 182.235V229.569C434.353 234.182 430.613 237.922 426 237.922H37.5883C32.9751 237.922 29.2354 234.182 29.2354 229.569V182.235Z" fill="#121419"/>
<path d="M201.489 213.588C204.948 213.588 206.877 211.834 206.877 208.952C206.877 206.747 205.474 205.194 202.617 204.868V204.692C205.173 204.392 206.276 202.913 206.276 200.934C206.276 198.277 204.346 196.799 201.139 196.799H191.742V213.588H201.489ZM194.423 199.23H200.838C202.717 199.23 203.594 199.956 203.594 201.535C203.594 203.114 202.642 203.84 200.763 203.84H194.423V199.23ZM194.423 206.071H201.189C203.168 206.071 204.171 206.822 204.171 208.576C204.171 210.406 203.193 211.158 201.189 211.158H194.423V206.071ZM213.817 213.839C217.024 213.839 218.678 211.834 219.079 209.729H219.23V213.588H221.71V201.134H219.029V207.298C219.029 210.005 217.751 211.408 214.995 211.408C212.364 211.408 211.286 210.23 211.286 207.9V201.134H208.605V208.627C208.605 211.508 210.309 213.839 213.817 213.839ZM232.338 213.588V211.158H230.083C228.529 211.158 227.828 210.757 227.828 209.228V203.389H232.338V201.134H227.828V198.403H225.146V201.134H223.042V203.389H225.146V209.378C225.146 212.41 226.8 213.588 229.482 213.588H232.338ZM242.2 213.588V211.158H239.945C238.391 211.158 237.69 210.757 237.69 209.228V203.389H242.2V201.134H237.69V198.403H235.008V201.134H232.904V203.389H235.008V209.378C235.008 212.41 236.662 213.588 239.344 213.588H242.2ZM250.258 213.839C254.418 213.839 257.199 211.208 257.199 207.374C257.199 203.49 254.418 200.883 250.258 200.883C246.123 200.883 243.342 203.49 243.342 207.374C243.342 211.208 246.123 213.839 250.258 213.839ZM250.258 211.433C247.251 211.433 245.998 210.005 245.998 207.374C245.998 204.717 247.251 203.264 250.258 203.264C253.29 203.264 254.543 204.717 254.543 207.374C254.543 210.005 253.29 211.433 250.258 211.433ZM261.87 213.588V207.424C261.87 204.717 263.098 203.314 265.829 203.314C268.41 203.314 269.463 204.492 269.463 206.822V213.588H272.169V206.096C272.169 203.214 270.465 200.883 267.007 200.883C263.849 200.883 262.196 202.888 261.82 204.993H261.644V201.134H259.163V213.588H261.87Z" fill="#FCFBF7"/>
<g opacity="0.6">
<path d="M29.2354 603.235C29.2354 598.622 32.9751 594.882 37.5883 594.882H426C430.613 594.882 434.353 598.622 434.353 603.235V650.569C434.353 655.182 430.613 658.922 426 658.922H37.5883C32.9751 658.922 29.2354 655.182 29.2354 650.569V603.235Z" fill="#121419"/>
<path d="M201.489 634.588C204.948 634.588 206.877 632.834 206.877 629.952C206.877 627.747 205.474 626.193 202.617 625.868V625.692C205.173 625.392 206.276 623.913 206.276 621.933C206.276 619.277 204.346 617.799 201.139 617.799H191.742V634.588H201.489ZM194.423 620.229H200.838C202.717 620.229 203.594 620.956 203.594 622.535C203.594 624.114 202.642 624.84 200.763 624.84H194.423V620.229ZM194.423 627.071H201.189C203.168 627.071 204.171 627.822 204.171 629.576C204.171 631.406 203.193 632.157 201.189 632.157H194.423V627.071ZM213.817 634.839C217.024 634.839 218.678 632.834 219.079 630.729H219.23V634.588H221.71V622.134H219.029V628.298C219.029 631.005 217.751 632.408 214.995 632.408C212.364 632.408 211.286 631.23 211.286 628.9V622.134H208.605V629.627C208.605 632.508 210.309 634.839 213.817 634.839ZM232.338 634.588V632.157H230.083C228.529 632.157 227.828 631.757 227.828 630.228V624.389H232.338V622.134H227.828V619.403H225.146V622.134H223.042V624.389H225.146V630.378C225.146 633.41 226.8 634.588 229.482 634.588H232.338ZM242.2 634.588V632.157H239.945C238.391 632.157 237.69 631.757 237.69 630.228V624.389H242.2V622.134H237.69V619.403H235.008V622.134H232.904V624.389H235.008V630.378C235.008 633.41 236.662 634.588 239.344 634.588H242.2ZM250.258 634.839C254.418 634.839 257.199 632.208 257.199 628.374C257.199 624.489 254.418 621.883 250.258 621.883C246.123 621.883 243.342 624.489 243.342 628.374C243.342 632.208 246.123 634.839 250.258 634.839ZM250.258 632.433C247.251 632.433 245.998 631.005 245.998 628.374C245.998 625.717 247.251 624.264 250.258 624.264C253.29 624.264 254.543 625.717 254.543 628.374C254.543 631.005 253.29 632.433 250.258 632.433ZM261.87 634.588V628.424C261.87 625.717 263.098 624.314 265.829 624.314C268.41 624.314 269.463 625.492 269.463 627.822V634.588H272.169V627.096C272.169 624.214 270.465 621.883 267.007 621.883C263.849 621.883 262.196 623.888 261.82 625.993H261.644V622.134H259.163V634.588H261.87Z" fill="#FCFBF7"/>
</g>
<path d="M29.2354 90.3529C29.2354 85.7397 32.9751 82 37.5883 82H426C430.613 82 434.353 85.7397 434.353 90.3529V137.686C434.353 142.299 430.613 146.039 426 146.039H37.5883C32.9751 146.039 29.2354 142.299 29.2354 137.686V90.3529Z" fill="#E73A02"/>
<path d="M201.489 121.706C204.948 121.706 206.877 119.952 206.877 117.07C206.877 114.865 205.474 113.311 202.617 112.985V112.81C205.173 112.509 206.276 111.031 206.276 109.051C206.276 106.395 204.346 104.917 201.139 104.917H191.742V121.706H201.489ZM194.423 107.347H200.838C202.717 107.347 203.594 108.074 203.594 109.653C203.594 111.231 202.642 111.958 200.763 111.958H194.423V107.347ZM194.423 114.188H201.189C203.168 114.188 204.171 114.94 204.171 116.694C204.171 118.523 203.193 119.275 201.189 119.275H194.423V114.188ZM213.817 121.957C217.024 121.957 218.678 119.952 219.079 117.847H219.23V121.706H221.71V109.252H219.029V115.416C219.029 118.123 217.751 119.526 214.995 119.526C212.364 119.526 211.286 118.348 211.286 116.018V109.252H208.605V116.744C208.605 119.626 210.309 121.957 213.817 121.957ZM232.338 121.706V119.275H230.083C228.529 119.275 227.828 118.874 227.828 117.346V111.507H232.338V109.252H227.828V106.52H225.146V109.252H223.042V111.507H225.146V117.496C225.146 120.528 226.8 121.706 229.482 121.706H232.338ZM242.2 121.706V119.275H239.945C238.391 119.275 237.69 118.874 237.69 117.346V111.507H242.2V109.252H237.69V106.52H235.008V109.252H232.904V111.507H235.008V117.496C235.008 120.528 236.662 121.706 239.344 121.706H242.2ZM250.258 121.957C254.418 121.957 257.199 119.325 257.199 115.491C257.199 111.607 254.418 109.001 250.258 109.001C246.123 109.001 243.342 111.607 243.342 115.491C243.342 119.325 246.123 121.957 250.258 121.957ZM250.258 119.551C247.251 119.551 245.998 118.123 245.998 115.491C245.998 112.835 247.251 111.382 250.258 111.382C253.29 111.382 254.543 112.835 254.543 115.491C254.543 118.123 253.29 119.551 250.258 119.551ZM261.87 121.706V115.541C261.87 112.835 263.098 111.432 265.829 111.432C268.41 111.432 269.463 112.61 269.463 114.94V121.706H272.169V114.213C272.169 111.332 270.465 109.001 267.007 109.001C263.849 109.001 262.196 111.006 261.82 113.111H261.644V109.252H259.163V121.706H261.87Z" fill="#FCFBF7"/>
<g opacity="0.6">
<path d="M29.2354 511.353C29.2354 506.74 32.9751 503 37.5883 503H426C430.613 503 434.353 506.74 434.353 511.353V558.686C434.353 563.299 430.613 567.039 426 567.039H37.5883C32.9751 567.039 29.2354 563.299 29.2354 558.686V511.353Z" fill="#E73A02"/>
<path d="M201.489 542.706C204.948 542.706 206.877 540.952 206.877 538.07C206.877 535.865 205.474 534.311 202.617 533.985V533.81C205.173 533.509 206.276 532.031 206.276 530.051C206.276 527.395 204.346 525.917 201.139 525.917H191.742V542.706H201.489ZM194.423 528.347H200.838C202.717 528.347 203.594 529.074 203.594 530.653C203.594 532.231 202.642 532.958 200.763 532.958H194.423V528.347ZM194.423 535.188H201.189C203.168 535.188 204.171 535.94 204.171 537.694C204.171 539.523 203.193 540.275 201.189 540.275H194.423V535.188ZM213.817 542.957C217.024 542.957 218.678 540.952 219.079 538.847H219.23V542.706H221.71V530.252H219.029V536.416C219.029 539.123 217.751 540.526 214.995 540.526C212.364 540.526 211.286 539.348 211.286 537.018V530.252H208.605V537.744C208.605 540.626 210.309 542.957 213.817 542.957ZM232.338 542.706V540.275H230.083C228.529 540.275 227.828 539.874 227.828 538.346V532.507H232.338V530.252H227.828V527.52H225.146V530.252H223.042V532.507H225.146V538.496C225.146 541.528 226.8 542.706 229.482 542.706H232.338ZM242.2 542.706V540.275H239.945C238.391 540.275 237.69 539.874 237.69 538.346V532.507H242.2V530.252H237.69V527.52H235.008V530.252H232.904V532.507H235.008V538.496C235.008 541.528 236.662 542.706 239.344 542.706H242.2ZM250.258 542.957C254.418 542.957 257.199 540.325 257.199 536.491C257.199 532.607 254.418 530.001 250.258 530.001C246.123 530.001 243.342 532.607 243.342 536.491C243.342 540.325 246.123 542.957 250.258 542.957ZM250.258 540.551C247.251 540.551 245.998 539.123 245.998 536.491C245.998 533.835 247.251 532.382 250.258 532.382C253.29 532.382 254.543 533.835 254.543 536.491C254.543 539.123 253.29 540.551 250.258 540.551ZM261.87 542.706V536.541C261.87 533.835 263.098 532.432 265.829 532.432C268.41 532.432 269.463 533.61 269.463 535.94V542.706H272.169V535.213C272.169 532.332 270.465 530.001 267.007 530.001C263.849 530.001 262.196 532.006 261.82 534.111H261.644V530.252H259.163V542.706H261.87Z" fill="#FCFBF7"/>
</g>
<path d="M29.2354 274.118C29.2354 269.504 32.9751 265.765 37.5883 265.765H426C430.613 265.765 434.353 269.504 434.353 274.118V321.451C434.353 326.064 430.613 329.804 426 329.804H37.5883C32.9751 329.804 29.2354 326.064 29.2354 321.451V274.118Z" fill="#D6D9E1"/>
<path d="M201.489 305.471C204.948 305.471 206.877 303.716 206.877 300.835C206.877 298.63 205.474 297.076 202.617 296.75V296.575C205.173 296.274 206.276 294.796 206.276 292.816C206.276 290.16 204.346 288.681 201.139 288.681H191.742V305.471H201.489ZM194.423 291.112H200.838C202.717 291.112 203.594 291.839 203.594 293.417C203.594 294.996 202.642 295.723 200.763 295.723H194.423V291.112ZM194.423 297.953H201.189C203.168 297.953 204.171 298.705 204.171 300.459C204.171 302.288 203.193 303.04 201.189 303.04H194.423V297.953ZM213.817 305.721C217.024 305.721 218.678 303.716 219.079 301.612H219.23V305.471H221.71V293.016H219.029V299.181C219.029 301.887 217.751 303.29 214.995 303.29C212.364 303.29 211.286 302.113 211.286 299.782V293.016H208.605V300.509C208.605 303.391 210.309 305.721 213.817 305.721ZM232.338 305.471V303.04H230.083C228.529 303.04 227.828 302.639 227.828 301.11V295.272H232.338V293.016H227.828V290.285H225.146V293.016H223.042V295.272H225.146V301.261C225.146 304.293 226.8 305.471 229.482 305.471H232.338ZM242.2 305.471V303.04H239.945C238.391 303.04 237.69 302.639 237.69 301.11V295.272H242.2V293.016H237.69V290.285H235.008V293.016H232.904V295.272H235.008V301.261C235.008 304.293 236.662 305.471 239.344 305.471H242.2ZM250.258 305.721C254.418 305.721 257.199 303.09 257.199 299.256C257.199 295.372 254.418 292.766 250.258 292.766C246.123 292.766 243.342 295.372 243.342 299.256C243.342 303.09 246.123 305.721 250.258 305.721ZM250.258 303.316C247.251 303.316 245.998 301.887 245.998 299.256C245.998 296.6 247.251 295.146 250.258 295.146C253.29 295.146 254.543 296.6 254.543 299.256C254.543 301.887 253.29 303.316 250.258 303.316ZM261.87 305.471V299.306C261.87 296.6 263.098 295.196 265.829 295.196C268.41 295.196 269.463 296.374 269.463 298.705V305.471H272.169V297.978C272.169 295.096 270.465 292.766 267.007 292.766C263.849 292.766 262.196 294.77 261.82 296.875H261.644V293.016H259.163V305.471H261.87Z" fill="#232630"/>
<g opacity="0.6">
<path d="M29.2354 695.118C29.2354 690.504 32.9751 686.765 37.5883 686.765H426C430.613 686.765 434.353 690.504 434.353 695.118V742.451C434.353 747.064 430.613 750.804 426 750.804H37.5883C32.9751 750.804 29.2354 747.064 29.2354 742.451V695.118Z" fill="#D6D9E1"/>
<path d="M201.489 726.471C204.948 726.471 206.877 724.716 206.877 721.835C206.877 719.629 205.474 718.076 202.617 717.75V717.575C205.173 717.274 206.276 715.795 206.276 713.816C206.276 711.16 204.346 709.681 201.139 709.681H191.742V726.471H201.489ZM194.423 712.112H200.838C202.717 712.112 203.594 712.839 203.594 714.417C203.594 715.996 202.642 716.723 200.763 716.723H194.423V712.112ZM194.423 718.953H201.189C203.168 718.953 204.171 719.705 204.171 721.459C204.171 723.288 203.193 724.04 201.189 724.04H194.423V718.953ZM213.817 726.721C217.024 726.721 218.678 724.716 219.079 722.611H219.23V726.471H221.71V714.016H219.029V720.181C219.029 722.887 217.751 724.29 214.995 724.29C212.364 724.29 211.286 723.113 211.286 720.782V714.016H208.605V721.509C208.605 724.391 210.309 726.721 213.817 726.721ZM232.338 726.471V724.04H230.083C228.529 724.04 227.828 723.639 227.828 722.11V716.272H232.338V714.016H227.828V711.285H225.146V714.016H223.042V716.272H225.146V722.261C225.146 725.293 226.8 726.471 229.482 726.471H232.338ZM242.2 726.471V724.04H239.945C238.391 724.04 237.69 723.639 237.69 722.11V716.272H242.2V714.016H237.69V711.285H235.008V714.016H232.904V716.272H235.008V722.261C235.008 725.293 236.662 726.471 239.344 726.471H242.2ZM250.258 726.721C254.418 726.721 257.199 724.09 257.199 720.256C257.199 716.372 254.418 713.766 250.258 713.766C246.123 713.766 243.342 716.372 243.342 720.256C243.342 724.09 246.123 726.721 250.258 726.721ZM250.258 724.315C247.251 724.315 245.998 722.887 245.998 720.256C245.998 717.6 247.251 716.146 250.258 716.146C253.29 716.146 254.543 717.6 254.543 720.256C254.543 722.887 253.29 724.315 250.258 724.315ZM261.87 726.471V720.306C261.87 717.6 263.098 716.196 265.829 716.196C268.41 716.196 269.463 717.374 269.463 719.705V726.471H272.169V718.978C272.169 716.096 270.465 713.766 267.007 713.766C263.849 713.766 262.196 715.77 261.82 717.875H261.644V714.016H259.163V726.471H261.87Z" fill="#232630"/>
</g>
<path d="M126.618 382.647V381.018H115.968V365.858H114.189V382.647H126.618ZM134.691 382.898C138.751 382.898 141.432 380.216 141.432 376.458C141.432 372.699 138.751 370.017 134.691 370.017C130.657 370.017 127.975 372.699 127.975 376.458C127.975 380.216 130.657 382.898 134.691 382.898ZM134.691 381.294C131.283 381.294 129.73 379.465 129.73 376.458C129.73 373.476 131.283 371.621 134.691 371.621C138.099 371.621 139.678 373.476 139.678 376.458C139.678 379.465 138.099 381.294 134.691 381.294ZM148.711 382.647L151.969 374.553L152.946 371.797H153.071L154.048 374.553L157.256 382.647H159.486L163.496 370.268H161.666L159.01 378.462L158.409 381.068H158.258L157.406 378.312L154.174 370.268H151.893L148.636 378.312L147.784 381.093H147.633L147.007 378.462L144.376 370.268H142.546L146.506 382.647H148.711ZM171.616 382.647V376.833C171.616 373.751 172.894 371.646 176.202 371.646C178.984 371.646 180.312 372.849 180.312 375.681V382.647H182.091V375.455C182.091 372.323 180.362 370.017 176.904 370.017C173.746 370.017 172.142 371.972 171.742 374.052H171.616V365.858H169.837V382.647H171.616ZM186.813 368.689V365.858H185.034V368.689H186.813ZM186.813 382.647V370.268H185.034V382.647H186.813ZM195.695 382.898C199.153 382.898 201.709 381.119 201.709 378.537V378.362H199.93V378.537C199.93 380.342 198.576 381.419 195.67 381.419C192.387 381.419 190.958 379.74 190.858 376.959H201.759C201.834 376.633 201.884 376.257 201.884 375.806C201.884 372.122 199.303 370.017 195.67 370.017C191.685 370.017 189.179 372.699 189.179 376.458C189.179 380.392 191.71 382.898 195.695 382.898ZM195.644 371.496C198.551 371.496 200.205 372.874 200.205 375.48C200.205 375.606 200.205 375.731 200.205 375.856H190.858C190.984 373.15 192.437 371.496 195.644 371.496ZM206.023 382.647V375.931C206.023 373.15 207.126 371.571 209.632 371.571C211.787 371.571 212.664 372.599 212.664 374.703V375.656H214.443V374.428C214.443 372.122 213.19 370.017 210.333 370.017C207.752 370.017 206.349 371.671 205.973 373.651H205.848V370.268H204.244V382.647H206.023ZM219.937 382.898C222.819 382.898 224.999 381.595 225.726 379.314H225.851V382.647H227.455V374.904C227.455 372.173 225.851 370.017 222.092 370.017C218.283 370.017 216.128 372.147 216.128 374.754V374.854H217.907V374.754C217.907 372.573 219.311 371.621 221.967 371.621C224.673 371.621 225.726 372.573 225.726 374.979V375.931L219.837 376.583C217.532 376.833 215.853 377.711 215.853 379.74C215.853 381.745 217.507 382.898 219.937 382.898ZM217.632 379.615C217.632 378.337 218.534 377.886 220.388 377.711L225.726 377.109V377.209C225.726 380.191 223.345 381.519 220.338 381.519C218.459 381.519 217.632 380.868 217.632 379.615ZM232.159 382.647V375.931C232.159 373.15 233.261 371.571 235.767 371.571C237.922 371.571 238.799 372.599 238.799 374.703V375.656H240.578V374.428C240.578 372.122 239.326 370.017 236.469 370.017C233.888 370.017 232.484 371.671 232.109 373.651H231.983V370.268H230.38V382.647H232.159ZM248.554 382.898C252.012 382.898 254.718 380.843 254.718 377.861V377.66H252.964V377.811C252.964 380.016 251.36 381.269 248.529 381.269C245.221 381.269 243.792 379.49 243.792 376.458C243.792 373.425 245.221 371.646 248.529 371.646C251.36 371.646 252.964 372.899 252.964 375.104V375.255H254.718V375.054C254.718 372.072 252.012 370.017 248.554 370.017C244.594 370.017 242.013 372.699 242.013 376.458C242.013 380.216 244.594 382.898 248.554 382.898ZM258.882 382.647V376.833C258.882 373.751 260.16 371.646 263.467 371.646C266.249 371.646 267.577 372.849 267.577 375.681V382.647H269.356V375.455C269.356 372.323 267.627 370.017 264.169 370.017C261.012 370.017 259.408 371.972 259.007 374.052H258.882V365.858H257.102V382.647H258.882ZM273.928 386.907C275.983 386.907 277.136 386.281 278.038 384.376L284.753 370.268H282.799L279.366 377.61L278.038 380.667H277.887L276.509 377.635L272.876 370.268H270.921L277.06 382.622L276.459 383.875C275.983 384.902 275.507 385.278 274.254 385.278H272.374V386.907H273.928ZM292.848 368.689V365.858H291.069V368.689H292.848ZM292.848 382.647V370.268H291.069V382.647H292.848ZM297.62 382.647V376.658C297.62 373.476 299.199 371.646 302.206 371.646C305.037 371.646 306.265 373.125 306.265 375.681V382.647H308.044V375.43C308.044 372.498 306.315 370.017 302.832 370.017C299.75 370.017 297.996 372.047 297.57 374.152H297.445V370.268H295.841V382.647H297.62ZM312.719 386.907V379.014H312.744C313.32 381.394 315.3 382.898 318.031 382.898C321.966 382.898 324.146 380.216 324.146 376.458C324.146 372.699 321.941 370.017 318.082 370.017C315.15 370.017 313.295 371.521 312.744 373.751H312.544V370.268H310.94V386.907H312.719ZM312.719 376.683V376.458C312.719 373.4 314.523 371.671 317.605 371.671C320.412 371.671 322.342 372.874 322.342 376.458C322.342 380.041 320.437 381.269 317.555 381.269C314.648 381.269 312.719 379.615 312.719 376.683ZM331.52 382.898C334.602 382.898 336.381 380.893 336.807 378.788H336.932V382.647H338.536V370.268H336.757V376.282C336.757 379.465 335.178 381.294 332.146 381.294C329.289 381.294 328.036 379.815 328.036 377.234V370.268H326.257V377.51C326.257 380.442 327.986 382.898 331.52 382.898ZM349.122 382.647V381.018H346.867C345.062 381.018 344.21 380.542 344.21 378.813V371.797H349.122V370.268H344.21V367.311H342.406V370.268H340.201V371.797H342.406V378.713C342.406 381.62 343.985 382.647 346.441 382.647H349.122Z" fill="#232630"/>
<path d="M112.685 385.779H349.573V387.032H112.685V385.779Z" fill="#232630"/>
<path d="M32.2058 46L34.1353 41.6398H43.0062L44.9357 46H47.9929L40.5003 29.2106H36.6913L29.1988 46H32.2058ZM37.4932 34.0971L38.4705 31.7165H38.671L39.6483 34.0971L41.9286 39.2091H35.2129L37.4932 34.0971ZM55.5356 46.2506C59.2693 46.2506 62.0008 44.1456 62.0008 41.0384V40.7627H59.3195V40.9381C59.3195 42.8676 57.9162 43.8199 55.4855 43.8199C52.6789 43.8199 51.4259 42.4667 51.4259 39.7854C51.4259 37.054 52.6789 35.7259 55.4855 35.7259C57.9162 35.7259 59.3195 36.6781 59.3195 38.6076V38.758H62.0008V38.5074C62.0008 35.4001 59.2693 33.2952 55.5356 33.2952C51.4259 33.2952 48.7446 35.9013 48.7446 39.7854C48.7446 43.6194 51.4259 46.2506 55.5356 46.2506ZM72.1713 46V43.5693H69.916C68.3624 43.5693 67.6607 43.1684 67.6607 41.6398V35.8011H72.1713V33.5458H67.6607V30.8144H64.9794V33.5458H62.8745V35.8011H64.9794V41.7901C64.9794 44.8222 66.6333 46 69.3146 46H72.1713ZM76.5705 32.0924V29.2106H73.8642V32.0924H76.5705ZM76.5705 46V33.5458H73.8642V46H76.5705ZM87.0703 46L92.9341 33.5458H90.0022L85.5668 43.3688H85.3663L80.9309 33.5458H77.9489L83.7626 46H87.0703ZM100.587 46.2506C104.296 46.2506 106.902 44.4213 106.902 41.7651V41.5395H104.196V41.74C104.196 43.2185 103.118 44.0705 100.512 44.0705C97.6301 44.0705 96.4523 42.7925 96.3521 40.3868H106.927C107.002 40.0109 107.027 39.6601 107.027 39.2091C107.027 35.4252 104.396 33.2952 100.537 33.2952C96.4774 33.2952 93.8212 35.9013 93.8212 39.7854C93.8212 43.9452 96.5025 46.2506 100.587 46.2506ZM100.487 35.4252C103.143 35.4252 104.471 36.5278 104.471 38.8332V38.8833H96.3772C96.5275 36.6531 97.7303 35.4252 100.487 35.4252Z" fill="#232630"/>
<line x1="29" y1="61.5" x2="434" y2="61.5" stroke="#B8BDCB"/>
<rect x="35.6575" y="59" width="162" height="3" fill="#B8BDCB"/>
<rect x="29" y="59" width="162" height="3" fill="#232630"/>
<path d="M43.3789 466V463.569H33.0296V449.211H30.3233V466H43.3789ZM51.4935 466.251C55.6532 466.251 58.4348 463.619 58.4348 459.785C58.4348 455.901 55.6532 453.295 51.4935 453.295C47.3588 453.295 44.5772 455.901 44.5772 459.785C44.5772 463.619 47.3588 466.251 51.4935 466.251ZM51.4935 463.845C48.4864 463.845 47.2335 462.417 47.2335 459.785C47.2335 457.129 48.4864 455.676 51.4935 455.676C54.5256 455.676 55.7785 457.129 55.7785 459.785C55.7785 462.417 54.5256 463.845 51.4935 463.845ZM66.6885 466.251C70.4223 466.251 73.1537 464.146 73.1537 461.038V460.763H70.4724V460.938C70.4724 462.868 69.0691 463.82 66.6384 463.82C63.8318 463.82 62.5789 462.467 62.5789 459.785C62.5789 457.054 63.8318 455.726 66.6384 455.726C69.0691 455.726 70.4724 456.678 70.4724 458.608V458.758H73.1537V458.507C73.1537 455.4 70.4223 453.295 66.6885 453.295C62.5789 453.295 59.8976 455.901 59.8976 459.785C59.8976 463.619 62.5789 466.251 66.6885 466.251ZM77.8614 466V460.913H81.4198L85.1034 466H88.2859L83.6249 459.535L88.3109 453.546H85.1535L81.4198 458.482H77.8614V449.211H75.1551V466H77.8614ZM95.9069 466.251C99.6156 466.251 102.222 464.421 102.222 461.765V461.54H99.5154V461.74C99.5154 463.218 98.4378 464.07 95.8317 464.07C92.95 464.07 91.7722 462.792 91.672 460.387H102.247C102.322 460.011 102.347 459.66 102.347 459.209C102.347 455.425 99.7158 453.295 95.8568 453.295C91.7972 453.295 89.141 455.901 89.141 459.785C89.141 463.945 91.8223 466.251 95.9069 466.251ZM95.8067 455.425C98.4629 455.425 99.791 456.528 99.791 458.833V458.883H91.697C91.8474 456.653 93.0502 455.425 95.8067 455.425ZM109.862 466.251C112.669 466.251 114.498 464.897 115.024 462.417H115.199V466H117.68V449.211H114.974V456.929H114.824C114.322 454.824 112.643 453.295 109.687 453.295C105.903 453.295 103.748 455.901 103.748 459.785C103.748 463.619 105.928 466.251 109.862 466.251ZM106.479 459.785C106.479 456.778 108.033 455.751 110.639 455.751C113.42 455.751 114.974 457.054 114.974 459.71V459.911C114.974 462.517 113.345 463.77 110.689 463.77C108.008 463.77 106.479 462.767 106.479 459.785Z" fill="#232630"/>
<line x1="29" y1="481.5" x2="434" y2="481.5" stroke="#B8BDCB"/>
<rect x="35.6575" y="479" width="162" height="3" fill="#B8BDCB"/>
<rect x="29" y="479" width="162" height="3" fill="#232630"/>
</svg>
