<svg width="473" height="794" viewBox="0 0 473 794" fill="none" xmlns="http://www.w3.org/2000/svg">
<rect width="473" height="794" fill="#121419"/>
<path d="M32.2058 46L34.1353 41.6398H43.0062L44.9357 46H47.9929L40.5003 29.2106H36.6913L29.1988 46H32.2058ZM37.4932 34.0971L38.4705 31.7165H38.671L39.6483 34.0971L41.9286 39.2091H35.2129L37.4932 34.0971ZM55.5356 46.2506C59.2693 46.2506 62.0008 44.1456 62.0008 41.0384V40.7627H59.3195V40.9381C59.3195 42.8676 57.9162 43.8199 55.4855 43.8199C52.6789 43.8199 51.4259 42.4667 51.4259 39.7854C51.4259 37.054 52.6789 35.7259 55.4855 35.7259C57.9162 35.7259 59.3195 36.6781 59.3195 38.6076V38.758H62.0008V38.5074C62.0008 35.4001 59.2693 33.2952 55.5356 33.2952C51.4259 33.2952 48.7446 35.9013 48.7446 39.7854C48.7446 43.6194 51.4259 46.2506 55.5356 46.2506ZM72.1713 46V43.5693H69.916C68.3624 43.5693 67.6607 43.1684 67.6607 41.6398V35.8011H72.1713V33.5458H67.6607V30.8144H64.9794V33.5458H62.8745V35.8011H64.9794V41.7901C64.9794 44.8222 66.6333 46 69.3146 46H72.1713ZM76.5705 32.0924V29.2106H73.8642V32.0924H76.5705ZM76.5705 46V33.5458H73.8642V46H76.5705ZM87.0703 46L92.9341 33.5458H90.0022L85.5668 43.3688H85.3663L80.9309 33.5458H77.9489L83.7626 46H87.0703ZM100.587 46.2506C104.296 46.2506 106.902 44.4213 106.902 41.7651V41.5395H104.196V41.74C104.196 43.2185 103.118 44.0705 100.512 44.0705C97.6301 44.0705 96.4523 42.7925 96.3521 40.3868H106.927C107.002 40.0109 107.027 39.6601 107.027 39.2091C107.027 35.4252 104.396 33.2952 100.537 33.2952C96.4774 33.2952 93.8212 35.9013 93.8212 39.7854C93.8212 43.9452 96.5025 46.2506 100.587 46.2506ZM100.487 35.4252C103.143 35.4252 104.471 36.5278 104.471 38.8332V38.8833H96.3772C96.5275 36.6531 97.7303 35.4252 100.487 35.4252Z" fill="#FCFBF7"/>
<line x1="29" y1="61.5" x2="434" y2="61.5" stroke="#B8BDCB"/>
<rect x="35.6575" y="59" width="162" height="3" fill="#B8BDCB"/>
<rect x="29" y="59" width="162" height="3" fill="#FCFBF7"/>
<path d="M43.3789 466V463.569H33.0296V449.211H30.3233V466H43.3789ZM51.4935 466.251C55.6532 466.251 58.4348 463.619 58.4348 459.785C58.4348 455.901 55.6532 453.295 51.4935 453.295C47.3588 453.295 44.5772 455.901 44.5772 459.785C44.5772 463.619 47.3588 466.251 51.4935 466.251ZM51.4935 463.845C48.4864 463.845 47.2335 462.417 47.2335 459.785C47.2335 457.129 48.4864 455.676 51.4935 455.676C54.5256 455.676 55.7785 457.129 55.7785 459.785C55.7785 462.417 54.5256 463.845 51.4935 463.845ZM66.6885 466.251C70.4223 466.251 73.1537 464.146 73.1537 461.038V460.763H70.4724V460.938C70.4724 462.868 69.0691 463.82 66.6384 463.82C63.8318 463.82 62.5789 462.467 62.5789 459.785C62.5789 457.054 63.8318 455.726 66.6384 455.726C69.0691 455.726 70.4724 456.678 70.4724 458.608V458.758H73.1537V458.507C73.1537 455.4 70.4223 453.295 66.6885 453.295C62.5789 453.295 59.8976 455.901 59.8976 459.785C59.8976 463.619 62.5789 466.251 66.6885 466.251ZM77.8614 466V460.913H81.4198L85.1034 466H88.2859L83.6249 459.535L88.3109 453.546H85.1535L81.4198 458.482H77.8614V449.211H75.1551V466H77.8614ZM95.9069 466.251C99.6156 466.251 102.222 464.421 102.222 461.765V461.54H99.5154V461.74C99.5154 463.218 98.4378 464.07 95.8317 464.07C92.95 464.07 91.7722 462.792 91.672 460.387H102.247C102.322 460.011 102.347 459.66 102.347 459.209C102.347 455.425 99.7158 453.295 95.8568 453.295C91.7972 453.295 89.141 455.901 89.141 459.785C89.141 463.945 91.8223 466.251 95.9069 466.251ZM95.8067 455.425C98.4629 455.425 99.791 456.528 99.791 458.833V458.883H91.697C91.8474 456.653 93.0502 455.425 95.8067 455.425ZM109.862 466.251C112.669 466.251 114.498 464.897 115.024 462.417H115.199V466H117.68V449.211H114.974V456.929H114.824C114.322 454.824 112.643 453.295 109.687 453.295C105.903 453.295 103.748 455.901 103.748 459.785C103.748 463.619 105.928 466.251 109.862 466.251ZM106.479 459.785C106.479 456.778 108.033 455.751 110.639 455.751C113.42 455.751 114.974 457.054 114.974 459.71V459.911C114.974 462.517 113.345 463.77 110.689 463.77C108.008 463.77 106.479 462.767 106.479 459.785Z" fill="#FCFBF7"/>
<line x1="29" y1="481.5" x2="434" y2="481.5" stroke="#B8BDCB"/>
<rect x="35.6575" y="479" width="162" height="3" fill="#B8BDCB"/>
<rect x="29" y="479" width="162" height="3" fill="#FCFBF7"/>
<path d="M29 97.7113C29 93.0995 32.7387 89.3608 37.3505 89.3608H425.65C430.261 89.3608 434 93.0995 434 97.7113V145.031C434 149.643 430.261 153.381 425.65 153.381H37.3505C32.7387 153.381 29 149.643 29 145.031V97.7113Z" fill="#FCFBF7"/>
<path d="M201.275 129.062C204.732 129.062 206.661 127.308 206.661 124.427C206.661 122.223 205.258 120.67 202.402 120.344V120.169C204.957 119.868 206.06 118.39 206.06 116.411C206.06 113.755 204.131 112.277 200.924 112.277H191.53V129.062H201.275ZM194.21 114.707H200.624C202.502 114.707 203.379 115.434 203.379 117.012C203.379 118.59 202.427 119.317 200.548 119.317H194.21V114.707ZM194.21 121.546H200.974C202.953 121.546 203.955 122.298 203.955 124.052C203.955 125.88 202.978 126.632 200.974 126.632H194.21V121.546ZM213.599 129.312C216.805 129.312 218.459 127.308 218.86 125.204H219.01V129.062H221.49V116.611H218.81V122.774C218.81 125.479 217.532 126.882 214.776 126.882C212.146 126.882 211.069 125.705 211.069 123.375V116.611H208.388V124.102C208.388 126.983 210.092 129.312 213.599 129.312ZM232.115 129.062V126.632H229.86C228.307 126.632 227.606 126.231 227.606 124.703V118.866H232.115V116.611H227.606V113.881H224.925V116.611H222.821V118.866H224.925V124.853C224.925 127.884 226.578 129.062 229.259 129.062H232.115ZM241.974 129.062V126.632H239.719C238.166 126.632 237.465 126.231 237.465 124.703V118.866H241.974V116.611H237.465V113.881H234.784V116.611H232.68V118.866H234.784V124.853C234.784 127.884 236.438 129.062 239.118 129.062H241.974ZM250.029 129.312C254.188 129.312 256.969 126.682 256.969 122.849C256.969 118.966 254.188 116.361 250.029 116.361C245.896 116.361 243.115 118.966 243.115 122.849C243.115 126.682 245.896 129.312 250.029 129.312ZM250.029 126.907C247.023 126.907 245.771 125.479 245.771 122.849C245.771 120.194 247.023 118.741 250.029 118.741C253.061 118.741 254.313 120.194 254.313 122.849C254.313 125.479 253.061 126.907 250.029 126.907ZM261.638 129.062V122.899C261.638 120.194 262.865 118.791 265.596 118.791C268.176 118.791 269.228 119.968 269.228 122.298V129.062H271.934V121.571C271.934 118.691 270.23 116.361 266.773 116.361C263.617 116.361 261.963 118.365 261.588 120.469H261.412V116.611H258.932V129.062H261.638Z" fill="#121419"/>
<g opacity="0.8">
<path d="M29 517.351C29 512.739 32.7387 509 37.3505 509H425.65C430.261 509 434 512.739 434 517.351V564.67C434 569.282 430.261 573.021 425.65 573.021H37.3505C32.7387 573.021 29 569.282 29 564.67V517.351Z" fill="#FCFBF7"/>
<path d="M201.275 548.701C204.732 548.701 206.661 546.947 206.661 544.066C206.661 541.862 205.258 540.309 202.402 539.983V539.808C204.957 539.507 206.06 538.029 206.06 536.05C206.06 533.395 204.131 531.916 200.924 531.916H191.53V548.701H201.275ZM194.21 534.346H200.624C202.502 534.346 203.379 535.073 203.379 536.651C203.379 538.229 202.427 538.956 200.548 538.956H194.21V534.346ZM194.21 541.186H200.974C202.953 541.186 203.955 541.937 203.955 543.691C203.955 545.519 202.978 546.271 200.974 546.271H194.21V541.186ZM213.599 548.952C216.805 548.952 218.459 546.947 218.86 544.843H219.01V548.701H221.49V536.25H218.81V542.413C218.81 545.119 217.532 546.522 214.776 546.522C212.146 546.522 211.069 545.344 211.069 543.014V536.25H208.388V543.741C208.388 546.622 210.092 548.952 213.599 548.952ZM232.115 548.701V546.271H229.86C228.307 546.271 227.606 545.87 227.606 544.342V538.505H232.115V536.25H227.606V533.52H224.925V536.25H222.821V538.505H224.925V544.492C224.925 547.524 226.578 548.701 229.259 548.701H232.115ZM241.974 548.701V546.271H239.719C238.166 546.271 237.465 545.87 237.465 544.342V538.505H241.974V536.25H237.465V533.52H234.784V536.25H232.68V538.505H234.784V544.492C234.784 547.524 236.438 548.701 239.118 548.701H241.974ZM250.029 548.952C254.188 548.952 256.969 546.321 256.969 542.488C256.969 538.605 254.188 536 250.029 536C245.896 536 243.115 538.605 243.115 542.488C243.115 546.321 245.896 548.952 250.029 548.952ZM250.029 546.547C247.023 546.547 245.771 545.119 245.771 542.488C245.771 539.833 247.023 538.38 250.029 538.38C253.061 538.38 254.313 539.833 254.313 542.488C254.313 545.119 253.061 546.547 250.029 546.547ZM261.638 548.701V542.538C261.638 539.833 262.865 538.43 265.596 538.43C268.176 538.43 269.228 539.607 269.228 541.937V548.701H271.934V541.211C271.934 538.33 270.23 536 266.773 536C263.617 536 261.963 538.004 261.588 540.108H261.412V536.25H258.932V548.701H261.638Z" fill="#121419"/>
</g>
<path d="M29 189.567C29 184.955 32.7387 181.217 37.3505 181.217H425.65C430.261 181.217 434 184.955 434 189.567V236.887C434 241.498 430.261 245.237 425.65 245.237H37.3505C32.7387 245.237 29 241.498 29 236.887V189.567Z" fill="#FE450A"/>
<path d="M201.275 220.918C204.732 220.918 206.661 219.164 206.661 216.283C206.661 214.078 205.258 212.525 202.402 212.2V212.024C204.957 211.724 206.06 210.246 206.06 208.267C206.06 205.611 204.131 204.133 200.924 204.133H191.53V220.918H201.275ZM194.21 206.563H200.624C202.502 206.563 203.379 207.289 203.379 208.868C203.379 210.446 202.427 211.172 200.548 211.172H194.21V206.563ZM194.21 213.402H200.974C202.953 213.402 203.955 214.154 203.955 215.907C203.955 217.736 202.978 218.488 200.974 218.488H194.21V213.402ZM213.599 221.168C216.805 221.168 218.459 219.164 218.86 217.06H219.01V220.918H221.49V208.467H218.81V214.63C218.81 217.335 217.532 218.738 214.776 218.738C212.146 218.738 211.069 217.561 211.069 215.231V208.467H208.388V215.957C208.388 218.838 210.092 221.168 213.599 221.168ZM232.115 220.918V218.488H229.86C228.307 218.488 227.606 218.087 227.606 216.559V210.722H232.115V208.467H227.606V205.736H224.925V208.467H222.821V210.722H224.925V216.709C224.925 219.74 226.578 220.918 229.259 220.918H232.115ZM241.974 220.918V218.488H239.719C238.166 218.488 237.465 218.087 237.465 216.559V210.722H241.974V208.467H237.465V205.736H234.784V208.467H232.68V210.722H234.784V216.709C234.784 219.74 236.438 220.918 239.118 220.918H241.974ZM250.029 221.168C254.188 221.168 256.969 218.538 256.969 214.705C256.969 210.822 254.188 208.216 250.029 208.216C245.896 208.216 243.115 210.822 243.115 214.705C243.115 218.538 245.896 221.168 250.029 221.168ZM250.029 218.763C247.023 218.763 245.771 217.335 245.771 214.705C245.771 212.049 247.023 210.596 250.029 210.596C253.061 210.596 254.313 212.049 254.313 214.705C254.313 217.335 253.061 218.763 250.029 218.763ZM261.638 220.918V214.755C261.638 212.049 262.865 210.646 265.596 210.646C268.176 210.646 269.228 211.824 269.228 214.154V220.918H271.934V213.427C271.934 210.546 270.23 208.216 266.773 208.216C263.617 208.216 261.963 210.221 261.588 212.325H261.412V208.467H258.932V220.918H261.638Z" fill="#121419"/>
<g opacity="0.8">
<path d="M29 609.206C29 604.594 32.7387 600.856 37.3505 600.856H425.65C430.261 600.856 434 604.594 434 609.206V656.526C434 661.138 430.261 664.876 425.65 664.876H37.3505C32.7387 664.876 29 661.138 29 656.526V609.206Z" fill="#FE450A"/>
<path d="M201.275 640.557C204.732 640.557 206.661 638.803 206.661 635.922C206.661 633.718 205.258 632.164 202.402 631.839V631.663C204.957 631.363 206.06 629.885 206.06 627.906C206.06 625.25 204.131 623.772 200.924 623.772H191.53V640.557H201.275ZM194.21 626.202H200.624C202.502 626.202 203.379 626.929 203.379 628.507C203.379 630.085 202.427 630.812 200.548 630.812H194.21V626.202ZM194.21 633.041H200.974C202.953 633.041 203.955 633.793 203.955 635.546C203.955 637.375 202.978 638.127 200.974 638.127H194.21V633.041ZM213.599 640.807C216.805 640.807 218.459 638.803 218.86 636.699H219.01V640.557H221.49V628.106H218.81V634.269C218.81 636.974 217.532 638.377 214.776 638.377C212.146 638.377 211.069 637.2 211.069 634.87V628.106H208.388V635.597C208.388 638.477 210.092 640.807 213.599 640.807ZM232.115 640.557V638.127H229.86C228.307 638.127 227.606 637.726 227.606 636.198V630.361H232.115V628.106H227.606V625.375H224.925V628.106H222.821V630.361H224.925V636.348C224.925 639.379 226.578 640.557 229.259 640.557H232.115ZM241.974 640.557V638.127H239.719C238.166 638.127 237.465 637.726 237.465 636.198V630.361H241.974V628.106H237.465V625.375H234.784V628.106H232.68V630.361H234.784V636.348C234.784 639.379 236.438 640.557 239.118 640.557H241.974ZM250.029 640.807C254.188 640.807 256.969 638.177 256.969 634.344C256.969 630.461 254.188 627.856 250.029 627.856C245.896 627.856 243.115 630.461 243.115 634.344C243.115 638.177 245.896 640.807 250.029 640.807ZM250.029 638.402C247.023 638.402 245.771 636.974 245.771 634.344C245.771 631.688 247.023 630.235 250.029 630.235C253.061 630.235 254.313 631.688 254.313 634.344C254.313 636.974 253.061 638.402 250.029 638.402ZM261.638 640.557V634.394C261.638 631.688 262.865 630.286 265.596 630.286C268.176 630.286 269.228 631.463 269.228 633.793V640.557H271.934V633.066C271.934 630.185 270.23 627.856 266.773 627.856C263.617 627.856 261.963 629.86 261.588 631.964H261.412V628.106H258.932V640.557H261.638Z" fill="#121419"/>
</g>
<path d="M29 281.423C29 276.811 32.7387 273.072 37.3505 273.072H425.65C430.261 273.072 434 276.811 434 281.423V328.742C434 333.354 430.261 337.093 425.65 337.093H37.3505C32.7387 337.093 29 333.354 29 328.742V281.423Z" fill="#D6D9E1"/>
<path d="M201.275 312.773C204.732 312.773 206.661 311.02 206.661 308.139C206.661 305.934 205.258 304.381 202.402 304.055V303.88C204.957 303.579 206.06 302.101 206.06 300.122C206.06 297.467 204.131 295.989 200.924 295.989H191.53V312.773H201.275ZM194.21 298.419H200.624C202.502 298.419 203.379 299.145 203.379 300.723C203.379 302.302 202.427 303.028 200.548 303.028H194.21V298.419ZM194.21 305.258H200.974C202.953 305.258 203.955 306.009 203.955 307.763C203.955 309.592 202.978 310.343 200.974 310.343H194.21V305.258ZM213.599 313.024C216.805 313.024 218.459 311.02 218.86 308.915H219.01V312.773H221.49V300.323H218.81V306.485C218.81 309.191 217.532 310.594 214.776 310.594C212.146 310.594 211.069 309.416 211.069 307.087V300.323H208.388V307.813C208.388 310.694 210.092 313.024 213.599 313.024ZM232.115 312.773V310.343H229.86C228.307 310.343 227.606 309.942 227.606 308.414V302.577H232.115V300.323H227.606V297.592H224.925V300.323H222.821V302.577H224.925V308.565C224.925 311.596 226.578 312.773 229.259 312.773H232.115ZM241.974 312.773V310.343H239.719C238.166 310.343 237.465 309.942 237.465 308.414V302.577H241.974V300.323H237.465V297.592H234.784V300.323H232.68V302.577H234.784V308.565C234.784 311.596 236.438 312.773 239.118 312.773H241.974ZM250.029 313.024C254.188 313.024 256.969 310.393 256.969 306.56C256.969 302.677 254.188 300.072 250.029 300.072C245.896 300.072 243.115 302.677 243.115 306.56C243.115 310.393 245.896 313.024 250.029 313.024ZM250.029 310.619C247.023 310.619 245.771 309.191 245.771 306.56C245.771 303.905 247.023 302.452 250.029 302.452C253.061 302.452 254.313 303.905 254.313 306.56C254.313 309.191 253.061 310.619 250.029 310.619ZM261.638 312.773V306.611C261.638 303.905 262.865 302.502 265.596 302.502C268.176 302.502 269.228 303.679 269.228 306.009V312.773H271.934V305.283C271.934 302.402 270.23 300.072 266.773 300.072C263.617 300.072 261.963 302.076 261.588 304.181H261.412V300.323H258.932V312.773H261.638Z" fill="#232630"/>
<g opacity="0.7">
<path d="M29 701.062C29 696.45 32.7387 692.711 37.3505 692.711H425.65C430.261 692.711 434 696.45 434 701.062V748.381C434 752.993 430.261 756.732 425.65 756.732H37.3505C32.7387 756.732 29 752.993 29 748.381V701.062Z" fill="#D6D9E1"/>
<path d="M201.275 732.412C204.732 732.412 206.661 730.659 206.661 727.778C206.661 725.573 205.258 724.02 202.402 723.694V723.519C204.957 723.218 206.06 721.74 206.06 719.761C206.06 717.106 204.131 715.628 200.924 715.628H191.53V732.412H201.275ZM194.21 718.058H200.624C202.502 718.058 203.379 718.784 203.379 720.363C203.379 721.941 202.427 722.667 200.548 722.667H194.21V718.058ZM194.21 724.897H200.974C202.953 724.897 203.955 725.648 203.955 727.402C203.955 729.231 202.978 729.982 200.974 729.982H194.21V724.897ZM213.599 732.663C216.805 732.663 218.459 730.659 218.86 728.554H219.01V732.412H221.49V719.962H218.81V726.124C218.81 728.83 217.532 730.233 214.776 730.233C212.146 730.233 211.069 729.055 211.069 726.726V719.962H208.388V727.452C208.388 730.333 210.092 732.663 213.599 732.663ZM232.115 732.412V729.982H229.86C228.307 729.982 227.606 729.582 227.606 728.053V722.216H232.115V719.962H227.606V717.231H224.925V719.962H222.821V722.216H224.925V728.204C224.925 731.235 226.578 732.412 229.259 732.412H232.115ZM241.974 732.412V729.982H239.719C238.166 729.982 237.465 729.582 237.465 728.053V722.216H241.974V719.962H237.465V717.231H234.784V719.962H232.68V722.216H234.784V728.204C234.784 731.235 236.438 732.412 239.118 732.412H241.974ZM250.029 732.663C254.188 732.663 256.969 730.032 256.969 726.2C256.969 722.317 254.188 719.711 250.029 719.711C245.896 719.711 243.115 722.317 243.115 726.2C243.115 730.032 245.896 732.663 250.029 732.663ZM250.029 730.258C247.023 730.258 245.771 728.83 245.771 726.2C245.771 723.544 247.023 722.091 250.029 722.091C253.061 722.091 254.313 723.544 254.313 726.2C254.313 728.83 253.061 730.258 250.029 730.258ZM261.638 732.412V726.25C261.638 723.544 262.865 722.141 265.596 722.141C268.176 722.141 269.228 723.319 269.228 725.648V732.412H271.934V724.922C271.934 722.041 270.23 719.711 266.773 719.711C263.617 719.711 261.963 721.715 261.588 723.82H261.412V719.962H258.932V732.412H261.638Z" fill="#232630"/>
</g>
<path d="M124.929 390V388.372H114.282V373.215H112.503V390H124.929ZM133 390.251C137.058 390.251 139.738 387.57 139.738 383.812C139.738 380.055 137.058 377.374 133 377.374C128.966 377.374 126.286 380.055 126.286 383.812C126.286 387.57 128.966 390.251 133 390.251ZM133 388.647C129.593 388.647 128.039 386.818 128.039 383.812C128.039 380.831 129.593 378.977 133 378.977C136.407 378.977 137.985 380.831 137.985 383.812C137.985 386.818 136.407 388.647 133 388.647ZM147.015 390L150.272 381.908L151.249 379.153H151.374L152.351 381.908L155.558 390H157.787L161.796 377.625H159.967L157.311 385.816L156.71 388.422H156.56L155.708 385.666L152.476 377.625H150.197L146.94 385.666L146.088 388.447H145.938L145.312 385.816L142.681 377.625H140.852L144.811 390H147.015ZM169.914 390V384.188C169.914 381.107 171.191 379.002 174.498 379.002C177.279 379.002 178.607 380.205 178.607 383.036V390H180.385V382.81C180.385 379.679 178.657 377.374 175.2 377.374C172.043 377.374 170.44 379.328 170.039 381.407H169.914V373.215H168.135V390H169.914ZM185.106 376.046V373.215H183.328V376.046H185.106ZM185.106 390V377.625H183.328V390H185.106ZM193.985 390.251C197.442 390.251 199.998 388.472 199.998 385.892V385.716H198.219V385.892C198.219 387.695 196.866 388.772 193.96 388.772C190.678 388.772 189.25 387.094 189.15 384.313H200.048C200.123 383.988 200.173 383.612 200.173 383.161C200.173 379.478 197.593 377.374 193.96 377.374C189.977 377.374 187.472 380.055 187.472 383.812C187.472 387.745 190.002 390.251 193.985 390.251ZM193.935 378.852C196.841 378.852 198.494 380.23 198.494 382.835C198.494 382.961 198.494 383.086 198.494 383.211H189.15C189.276 380.505 190.729 378.852 193.935 378.852ZM204.311 390V383.286C204.311 380.505 205.413 378.927 207.918 378.927C210.073 378.927 210.949 379.954 210.949 382.059V383.011H212.728V381.783C212.728 379.478 211.475 377.374 208.62 377.374C206.039 377.374 204.636 379.027 204.261 381.006H204.135V377.625H202.532V390H204.311ZM218.221 390.251C221.102 390.251 223.281 388.948 224.008 386.668H224.133V390H225.736V382.259C225.736 379.528 224.133 377.374 220.375 377.374C216.567 377.374 214.413 379.503 214.413 382.109V382.209H216.192V382.109C216.192 379.929 217.595 378.977 220.25 378.977C222.956 378.977 224.008 379.929 224.008 382.334V383.286L218.121 383.938C215.816 384.188 214.137 385.065 214.137 387.094C214.137 389.098 215.791 390.251 218.221 390.251ZM215.916 386.969C215.916 385.691 216.818 385.24 218.672 385.065L224.008 384.464V384.564C224.008 387.545 221.628 388.873 218.622 388.873C216.743 388.873 215.916 388.221 215.916 386.969ZM230.439 390V383.286C230.439 380.505 231.541 378.927 234.046 378.927C236.201 378.927 237.077 379.954 237.077 382.059V383.011H238.856V381.783C238.856 379.478 237.603 377.374 234.748 377.374C232.167 377.374 230.764 379.027 230.389 381.006H230.263V377.625H228.66V390H230.439ZM246.829 390.251C250.286 390.251 252.992 388.196 252.992 385.215V385.015H251.238V385.165C251.238 387.37 249.635 388.622 246.804 388.622C243.497 388.622 242.069 386.844 242.069 383.812C242.069 380.781 243.497 379.002 246.804 379.002C249.635 379.002 251.238 380.255 251.238 382.459V382.61H252.992V382.409C252.992 379.428 250.286 377.374 246.829 377.374C242.871 377.374 240.29 380.055 240.29 383.812C240.29 387.57 242.871 390.251 246.829 390.251ZM257.154 390V384.188C257.154 381.107 258.431 379.002 261.738 379.002C264.519 379.002 265.847 380.205 265.847 383.036V390H267.625V382.81C267.625 379.679 265.897 377.374 262.44 377.374C259.283 377.374 257.68 379.328 257.279 381.407H257.154V373.215H255.375V390H257.154ZM272.196 394.259C274.25 394.259 275.403 393.632 276.304 391.729L283.018 377.625H281.064L277.632 384.965L276.304 388.021H276.154L274.776 384.99L271.144 377.625H269.19L275.327 389.975L274.726 391.228C274.25 392.255 273.774 392.63 272.522 392.63H270.643V394.259H272.196ZM291.11 376.046V373.215H289.332V376.046H291.11ZM291.11 390V377.625H289.332V390H291.11ZM295.881 390V384.013C295.881 380.831 297.459 379.002 300.465 379.002C303.296 379.002 304.524 380.48 304.524 383.036V390H306.302V382.785C306.302 379.854 304.574 377.374 301.092 377.374C298.01 377.374 296.257 379.403 295.831 381.508H295.706V377.625H294.102V390H295.881ZM310.976 394.259V386.368H311.001C311.577 388.747 313.556 390.251 316.286 390.251C320.22 390.251 322.399 387.57 322.399 383.812C322.399 380.055 320.195 377.374 316.337 377.374C313.406 377.374 311.552 378.877 311.001 381.107H310.8V377.625H309.197V394.259H310.976ZM310.976 384.038V383.812C310.976 380.756 312.779 379.027 315.861 379.027C318.666 379.027 320.595 380.23 320.595 383.812C320.595 387.395 318.691 388.622 315.81 388.622C312.905 388.622 310.976 386.969 310.976 384.038ZM329.771 390.251C332.852 390.251 334.631 388.246 335.057 386.142H335.182V390H336.785V377.625H335.006V383.637C335.006 386.818 333.428 388.647 330.397 388.647C327.541 388.647 326.289 387.169 326.289 384.589V377.625H324.51V384.864C324.51 387.795 326.238 390.251 329.771 390.251ZM347.368 390V388.372H345.113C343.31 388.372 342.458 387.896 342.458 386.167V379.153H347.368V377.625H342.458V374.668H340.654V377.625H338.45V379.153H340.654V386.067C340.654 388.973 342.232 390 344.687 390H347.368Z" fill="#D6D9E1"/>
<path d="M111 393.131H347.819V394.384H111V393.131Z" fill="#D6D9E1"/>
</svg>
