<svg width="345" height="25" viewBox="0 0 345 25" fill="none" xmlns="http://www.w3.org/2000/svg">
<g clip-path="url(#clip0_1069_1260)">
<rect width="345" height="34" fill="#292CE8"/>
<path d="M171.896 10.6551L171.896 -12.5876C171.896 -13.3717 172.821 -14 173.889 -14L177.876 -14C178.944 -14 179.87 -13.3717 179.87 -12.5876L179.87 10.6551C179.87 11.4912 178.944 12.1178 177.876 12.1178L173.889 12.1178C172.821 12.1178 171.896 11.4912 171.896 10.6551Z" fill="white"/>
<path d="M155.948 10.6551L155.948 -12.5876C155.948 -13.3717 156.872 -14 157.939 -14L161.929 -14C162.997 -14 163.922 -13.3717 163.922 -12.5876L163.922 10.6551C163.922 11.4912 162.997 12.1178 161.929 12.1178L157.939 12.1178C156.872 12.1178 155.948 11.4912 155.948 10.6551Z" fill="white"/>
<path d="M140 10.654L140 -12.5874C140 -13.3716 140.864 -14 142.012 -14L145.963 -14C147.114 -14 147.974 -13.3716 147.974 -12.5874L147.974 10.654C147.974 11.491 147.113 12.1178 145.963 12.1178L142.012 12.1178C140.864 12.1178 140 11.4902 140 10.654Z" fill="white"/>
<path d="M284.319 11.02H275.332C275.028 11.02 274.785 10.7577 274.785 10.455V9.32474C274.785 9.02204 275.028 8.75977 275.332 8.75977H284.319C284.642 8.75977 284.884 9.02204 284.884 9.32474V10.455C284.884 10.7577 284.642 11.02 284.319 11.02Z" fill="white"/>
<path d="M284.319 15.5037H275.332C275.028 15.5037 274.785 15.2418 274.785 14.9394V13.8088C274.785 13.5061 275.028 13.2441 275.332 13.2441H284.319C284.642 13.2441 284.884 13.5061 284.884 13.8088V14.9394C284.884 15.2418 284.642 15.5037 284.319 15.5037Z" fill="white"/>
<path d="M284.316 19.9803H275.332C275.028 19.9803 274.785 19.7377 274.785 19.4153V18.3054C274.785 17.9823 275.028 17.7407 275.332 17.7407H284.316C284.64 17.7407 284.882 17.9826 284.882 18.3054V19.4153C284.882 19.7377 284.64 19.9803 284.316 19.9803Z" fill="white"/>
<path d="M309.581 11.02H300.594C300.291 11.02 300.048 10.7577 300.048 10.455V9.32474C300.048 9.02204 300.291 8.75977 300.594 8.75977H309.581C309.904 8.75977 310.147 9.02204 310.147 9.32474V10.455C310.147 10.7577 309.904 11.02 309.581 11.02Z" fill="white"/>
<path d="M309.581 15.5037H300.594C300.291 15.5037 300.048 15.2418 300.048 14.9394V13.8088C300.048 13.5061 300.291 13.2441 300.594 13.2441H309.581C309.904 13.2441 310.147 13.5061 310.147 13.8088V14.9394C310.147 15.2418 309.904 15.5037 309.581 15.5037Z" fill="white"/>
<path d="M309.578 19.9803H300.594C300.291 19.9803 300.048 19.7377 300.048 19.4153V18.3054C300.048 17.9823 300.291 17.7407 300.594 17.7407H309.578C309.902 17.7407 310.144 17.9826 310.144 18.3054V19.4153C310.144 19.7377 309.902 19.9803 309.578 19.9803Z" fill="white"/>
<path d="M296.673 19.9802H294.995C292.529 19.9802 290.508 17.9619 290.508 15.5005V11.0204H287.69C287.387 11.0204 287.144 10.7581 287.144 10.4554V9.32515C287.144 9.02245 287.387 8.76017 287.69 8.76017H290.508V4.56498C290.508 4.24223 290.751 4 291.074 4H292.186C292.51 4 292.752 4.24223 292.752 4.56498V8.76017H296.673C296.996 8.76017 297.238 9.02245 297.238 9.32515V10.4554C297.238 10.7581 296.996 11.0204 296.673 11.0204H292.752V15.5005C292.752 16.7313 293.762 17.7404 294.995 17.7404H296.673C296.996 17.7404 297.238 17.9823 297.238 18.305V19.4149C297.238 19.7377 296.996 19.9802 296.673 19.9802Z" fill="white"/>
<path d="M322.511 19.9803H316.908C314.442 19.9803 312.42 17.962 312.42 15.5006V13.2604C312.42 10.7783 314.442 8.76025 316.908 8.76025H322.23C322.553 8.76025 322.796 9.02253 322.796 9.32523V10.4555C322.796 10.7582 322.553 11.0205 322.23 11.0205H316.908C315.675 11.0205 314.664 12.0295 314.664 13.2604V15.5006C314.664 16.7314 315.675 17.7404 316.908 17.7404H322.511C322.834 17.7404 323.076 17.9824 323.076 18.3051V19.415C323.077 19.7378 322.834 19.9803 322.511 19.9803Z" fill="white"/>
<path d="M336.551 19.9802H335.44C335.116 19.9802 334.874 19.7377 334.874 19.4153V13.2603C334.874 12.0294 333.864 11.0204 332.631 11.0204H328.144V19.4153C328.083 19.738 327.881 19.9802 327.578 19.9802H326.446C326.143 19.9802 325.9 19.7377 325.9 19.4153V4.56498C325.9 4.24223 326.143 4 326.446 4H327.578C327.881 4 328.144 4.24223 328.144 4.56498V8.76017H332.631C335.096 8.76017 337.118 10.7782 337.118 13.2603V19.4153C337.118 19.7377 336.875 19.9802 336.551 19.9802Z" fill="white"/>
<path d="M267.851 19.9999H261.556C261.247 19.9999 261 19.7532 261 19.4244V4.59324C261 4.26475 261.247 4.01807 261.556 4.01807H262.708C263.016 4.01807 263.284 4.26475 263.284 4.59324V8.57834H267.851C270.362 8.57834 272.419 10.6327 272.419 13.1596V15.4396C272.419 17.9456 270.362 19.9999 267.851 19.9999ZM270.135 13.1596C270.135 11.9062 269.107 10.8793 267.851 10.8793H263.284V17.7196H267.851C269.107 17.7196 270.135 16.6928 270.135 15.4396V13.1596Z" fill="white"/>
<path d="M12.08 13.4701L11.48 15.1351H12.905L11.9 18.0001H13.64L14.645 15.1351H16.565L15.56 18.0001H17.3L18.305 15.1351H19.97L20.555 13.4701H18.89L19.55 11.5801H21.035L21.65 9.91509H20.135L21.14 7.03509H19.385L18.38 9.91509H16.475L17.48 7.03509H15.74L14.735 9.91509H13.13L12.515 11.5801H14.15L13.49 13.4701H12.08ZM15.23 13.4701L15.89 11.5801H17.795L17.135 13.4701H15.23Z" fill="white"/>
<path d="M22.7162 10.2901C22.7162 11.6701 23.5562 12.6601 25.1462 13.1551L26.7512 13.6501C27.5762 13.9051 27.8912 14.2651 27.8912 14.9551C27.8912 15.9151 27.0812 16.5301 25.8212 16.5301C24.5912 16.5301 23.8412 15.9601 23.7512 14.9851H21.8912C22.0112 17.0101 23.4512 18.1951 25.7612 18.1951C28.1312 18.1951 29.7062 16.8301 29.7062 14.7901C29.7062 13.3951 28.9712 12.5101 27.4112 12.0151L25.8212 11.5201C24.9362 11.2351 24.5462 10.7851 24.5462 10.0501C24.5462 9.07509 25.2812 8.49009 26.4812 8.49009C27.5912 8.49009 28.3112 9.07509 28.4162 10.0501H30.2612C30.1712 8.17509 28.6262 6.84009 26.5562 6.84009C24.2612 6.84009 22.7162 8.20509 22.7162 10.2901Z" fill="white"/>
<path d="M32.872 18.1951C33.982 18.1951 34.987 17.6851 35.407 16.8901L35.362 18.0001H36.907L37.627 13.4851C37.927 11.5801 36.817 10.3801 34.747 10.3801C32.812 10.3801 31.567 11.3401 31.312 13.0201H32.887C33.007 12.1801 33.577 11.7601 34.567 11.7601C35.587 11.7601 36.082 12.2701 35.932 13.2001L35.917 13.3651L33.712 13.5601C31.747 13.7101 30.637 14.6401 30.637 16.1701C30.637 17.3701 31.537 18.1951 32.872 18.1951ZM33.547 16.8451C32.842 16.8451 32.422 16.5151 32.422 15.9751C32.422 15.2401 32.962 14.8051 34.177 14.7151L35.737 14.5801L35.677 14.9851C35.512 16.1251 34.687 16.8451 33.547 16.8451Z" fill="white"/>
<path d="M38.4683 15.7801C38.4683 17.2201 39.6233 18.1651 41.3483 18.1651C43.2983 18.1651 44.4983 17.2351 44.4983 15.7201C44.4983 14.8201 44.0033 14.2351 42.9383 13.8751L41.6933 13.4701C41.1233 13.2751 40.8533 12.9901 40.8533 12.5701C40.8533 12.0301 41.2733 11.7151 41.9933 11.7151C42.6983 11.7151 43.1033 12.0901 43.1183 12.7651H44.8133C44.8133 11.3401 43.7483 10.3951 42.1283 10.3951C40.3133 10.3951 39.1733 11.3101 39.1733 12.7501C39.1733 13.7251 39.7733 14.3551 40.8083 14.6851L42.0683 15.1051C42.6083 15.2851 42.8033 15.4951 42.8033 15.9151C42.8033 16.4701 42.2633 16.8301 41.4683 16.8301C40.6883 16.8301 40.1933 16.4401 40.1633 15.7801H38.4683Z" fill="white"/>
<path d="M47.2751 18.0001L47.8901 14.0251C48.1001 12.7201 48.8501 11.9551 49.9301 11.9551C50.9501 11.9551 51.4601 12.6601 51.2651 13.8751L50.6051 18.0001H52.3601L53.0801 13.4551C53.3651 11.7151 52.2851 10.3651 50.6201 10.3651C49.6451 10.3651 48.9401 10.7401 48.2951 11.5951L49.0451 6.84009H47.2901L45.5201 18.0001H47.2751Z" fill="white"/>
<path d="M56.4574 9.09009C57.1174 9.09009 57.7174 8.47509 57.7174 7.83009C57.7174 7.30509 57.3274 6.91509 56.8024 6.91509C56.1274 6.91509 55.5424 7.51509 55.5424 8.17509C55.5424 8.68509 55.9174 9.09009 56.4574 9.09009ZM54.1774 18.0001H55.9324L57.1024 10.5901H55.3474L54.1774 18.0001Z" fill="white"/>
</g>
<defs>
<clipPath id="clip0_1069_1260">
<path d="M0 3C0 1.34315 1.34315 0 3 0H342C343.657 0 345 1.34315 345 3V22C345 23.6569 343.657 25 342 25H3C1.34315 25 0 23.6569 0 22V3Z" fill="white"/>
</clipPath>
</defs>
</svg>
