<svg width="375" height="193" viewBox="0 0 375 193" fill="none" xmlns="http://www.w3.org/2000/svg">
<path d="M0 0H375V54C375 55.6569 373.657 57 372 57H3.00001C1.34315 57 0 55.6569 0 54V0Z" fill="#121419"/>
<path fill-rule="evenodd" clip-rule="evenodd" d="M32.9242 32.0202C34.0285 30.6155 34.6166 28.6015 34.6166 25.8302C34.6166 19.2213 31.3016 17 25.2787 17C19.2558 17 16 19.2213 16 25.8302C16 32.4941 19.5329 34.7704 25.3908 34.7704C27.9295 34.7704 29.9942 34.3473 31.5258 33.3171L36.6031 40L38.1178 38.8492L32.9242 32.0202ZM19.7466 31.3602C18.6952 30.4484 17.904 28.8469 17.904 25.8302C17.904 22.8135 18.6465 21.2416 19.6408 20.3658C20.688 19.4413 22.4354 18.904 25.2787 18.904C28.122 18.904 29.8905 19.4413 30.9547 20.37C31.9616 21.2501 32.7127 22.8177 32.7127 25.8302C32.7127 28.8427 31.949 30.4738 30.9335 31.3856C29.8757 32.3312 28.1304 32.8664 25.3908 32.8664C22.6512 32.8664 20.8657 32.3228 19.7466 31.3602Z" fill="#FCFBF7"/>
<path d="M69.5699 34.5C71.8739 34.5 73.3499 33.258 73.3499 31.17C73.3499 29.622 72.3959 28.524 70.5419 28.218V28.11C72.1979 27.858 72.9719 26.814 72.9719 25.428C72.9719 23.52 71.5499 22.44 69.3899 22.44H63.0539V34.5H69.5699ZM64.3319 23.61H69.2819C70.9199 23.61 71.6939 24.258 71.6939 25.662C71.6939 27.048 70.8119 27.696 69.1739 27.696H64.3319V23.61ZM64.3319 28.794H69.4619C71.1359 28.794 72.0539 29.496 72.0539 31.044C72.0539 32.628 71.1719 33.33 69.4619 33.33H64.3319V28.794ZM78.6134 34.68C80.8274 34.68 82.1054 33.24 82.4114 31.728H82.5014V34.5H83.6534V25.608H82.3754V29.928C82.3754 32.214 81.2414 33.528 79.0634 33.528C77.0114 33.528 76.1114 32.466 76.1114 30.612V25.608H74.8334V30.81C74.8334 32.916 76.0754 34.68 78.6134 34.68ZM89.7094 34.68C92.0134 34.68 93.6694 33.798 93.6694 32.124C93.6694 30.684 92.6434 30.036 90.7354 29.766L88.5574 29.46C87.0814 29.244 86.6134 28.92 86.6134 28.002C86.6134 26.94 87.3874 26.49 89.2594 26.49C91.5274 26.49 92.2294 27.21 92.2294 28.542V28.632H93.5074V28.596C93.5074 26.508 91.8514 25.428 89.2954 25.428C86.8474 25.428 85.3534 26.418 85.3534 27.984C85.3534 29.46 86.3794 30.09 87.9994 30.306L90.3754 30.648C91.8514 30.882 92.4094 31.188 92.4094 32.124C92.4094 33.15 91.7254 33.618 89.7274 33.618C87.5494 33.618 86.6674 33.096 86.6674 31.602V31.494H85.3894V31.53C85.3894 33.582 86.9734 34.68 89.7094 34.68ZM99.5963 34.68C102.08 34.68 104.024 33.204 104.024 31.062V30.918H102.764V31.026C102.764 32.61 101.612 33.51 99.5783 33.51C97.2023 33.51 96.1763 32.232 96.1763 30.054C96.1763 27.876 97.2023 26.598 99.5783 26.598C101.612 26.598 102.764 27.498 102.764 29.082V29.19H104.024V29.046C104.024 26.904 102.08 25.428 99.5963 25.428C96.7523 25.428 94.8983 27.354 94.8983 30.054C94.8983 32.754 96.7523 34.68 99.5963 34.68ZM108.203 34.68C110.273 34.68 111.839 33.744 112.361 32.106H112.451V34.5H113.603V28.938C113.603 26.976 112.451 25.428 109.751 25.428C107.015 25.428 105.467 26.958 105.467 28.83V28.902H106.745V28.83C106.745 27.264 107.753 26.58 109.661 26.58C111.605 26.58 112.361 27.264 112.361 28.992V29.676L108.131 30.144C106.475 30.324 105.269 30.954 105.269 32.412C105.269 33.852 106.457 34.68 108.203 34.68ZM106.547 32.322C106.547 31.404 107.195 31.08 108.527 30.954L112.361 30.522V30.594C112.361 32.736 110.651 33.69 108.491 33.69C107.141 33.69 106.547 33.222 106.547 32.322Z" fill="#D6D9E1"/>
<path d="M0 68H375V122C375 123.657 373.657 125 372 125H3.00001C1.34315 125 0 123.657 0 122V68Z" fill="#121419"/>
<path fill-rule="evenodd" clip-rule="evenodd" d="M32.9242 100.02C34.0285 98.6155 34.6166 96.6015 34.6166 93.8302C34.6166 87.2213 31.3016 85 25.2787 85C19.2558 85 16 87.2213 16 93.8302C16 100.494 19.5329 102.77 25.3908 102.77C27.9295 102.77 29.9942 102.347 31.5258 101.317L36.6031 108L38.1178 106.849L32.9242 100.02ZM19.7466 99.3602C18.6952 98.4484 17.904 96.8469 17.904 93.8302C17.904 90.8135 18.6465 89.2416 19.6408 88.3658C20.688 87.4413 22.4354 86.904 25.2787 86.904C28.122 86.904 29.8905 87.4413 30.9547 88.37C31.9616 89.2501 32.7127 90.8177 32.7127 93.8302C32.7127 96.8427 31.949 98.4738 30.9335 99.3856C29.8757 100.331 28.1304 100.866 25.3908 100.866C22.6512 100.866 20.8657 100.323 19.7466 99.3602Z" fill="#FCFBF7"/>
<line x1="62.6179" y1="84" x2="62.6179" y2="109" stroke="#FCFBF7"/>
<path d="M0 136H375V190C375 191.657 373.657 193 372 193H3.00001C1.34315 193 0 191.657 0 190V136Z" fill="#121419"/>
<path fill-rule="evenodd" clip-rule="evenodd" d="M32.9242 168.02C34.0285 166.616 34.6166 164.602 34.6166 161.83C34.6166 155.221 31.3016 153 25.2787 153C19.2558 153 16 155.221 16 161.83C16 168.494 19.5329 170.77 25.3908 170.77C27.9295 170.77 29.9942 170.347 31.5258 169.317L36.6031 176L38.1178 174.849L32.9242 168.02ZM19.7466 167.36C18.6952 166.448 17.904 164.847 17.904 161.83C17.904 158.813 18.6465 157.242 19.6408 156.366C20.688 155.441 22.4354 154.904 25.2787 154.904C28.122 154.904 29.8905 155.441 30.9547 156.37C31.9616 157.25 32.7127 158.818 32.7127 161.83C32.7127 164.843 31.949 166.474 30.9335 167.386C29.8757 168.331 28.1304 168.866 25.3908 168.866C22.6512 168.866 20.8657 168.323 19.7466 167.36Z" fill="#FCFBF7"/>
<path d="M68.8859 170.68C72.3059 170.68 74.6639 168.88 74.6639 165.982V165.748H72.5219V165.982C72.5219 167.836 71.3519 168.808 68.9039 168.808C66.0779 168.808 64.7099 167.476 64.7099 164.47C64.7099 161.464 66.0779 160.114 68.9039 160.114C71.3519 160.114 72.5219 161.104 72.5219 162.94V163.192H74.6639V162.94C74.6639 160.06 72.2879 158.26 68.8859 158.26C65.1419 158.26 62.6579 160.708 62.6579 164.47C62.6579 168.232 65.1419 170.68 68.8859 170.68ZM85.744 170.5V168.754H78.04V165.298H85.474V163.57H78.04V160.186H85.744V158.44H76.096V170.5H85.744ZM89.2022 170.5V165.82H91.4162C92.9282 165.82 93.4862 166.216 94.0262 167.17L95.9522 170.5H98.1842L96.1682 167.008C95.7362 166.252 95.3042 165.712 94.3682 165.46V165.334C96.6362 165.208 97.9502 163.984 97.9502 161.986C97.9502 159.736 96.2582 158.44 93.5222 158.44H87.2582V170.5H89.2022ZM89.2022 160.186H93.5042C95.1242 160.186 95.9342 160.78 95.9342 162.256C95.9342 163.768 95.1242 164.326 93.5042 164.326H89.2022V160.186ZM101.296 170.5V163.426L101.224 161.338H101.368L102.88 163.462L108.316 170.5H110.404V158.44H108.46V165.568L108.55 167.746H108.406L106.84 165.496L101.44 158.44H99.3519V170.5H101.296ZM117.222 170.5V166.072C117.222 164.128 118.104 163.12 120.066 163.12C121.92 163.12 122.676 163.966 122.676 165.64V170.5H124.62V165.118C124.62 163.048 123.396 161.374 120.912 161.374C118.644 161.374 117.456 162.814 117.186 164.326H117.06V161.554H115.278V170.5H117.222ZM130.924 170.68C133.912 170.68 135.91 168.79 135.91 166.036C135.91 163.246 133.912 161.374 130.924 161.374C127.954 161.374 125.956 163.246 125.956 166.036C125.956 168.79 127.954 170.68 130.924 170.68ZM130.924 168.952C128.764 168.952 127.864 167.926 127.864 166.036C127.864 164.128 128.764 163.084 130.924 163.084C133.102 163.084 134.002 164.128 134.002 166.036C134.002 167.926 133.102 168.952 130.924 168.952ZM143.189 170.5V168.754H141.569C140.453 168.754 139.949 168.466 139.949 167.368V163.174H143.189V161.554H139.949V159.592H138.023V161.554H136.511V163.174H138.023V167.476C138.023 169.654 139.211 170.5 141.137 170.5H143.189ZM146.349 160.51V158.44H144.405V160.51H146.349ZM146.349 170.5V161.554H144.405V170.5H146.349ZM152.667 170.68C155.349 170.68 157.311 169.168 157.311 166.936V166.738H155.385V166.864C155.385 168.25 154.377 168.934 152.631 168.934C150.615 168.934 149.715 167.962 149.715 166.036C149.715 164.074 150.615 163.12 152.631 163.12C154.377 163.12 155.385 163.804 155.385 165.19V165.298H157.311V165.118C157.311 162.886 155.349 161.374 152.667 161.374C149.715 161.374 147.789 163.246 147.789 166.036C147.789 168.79 149.715 170.68 152.667 170.68ZM160.692 160.51V158.44H158.748V160.51H160.692ZM160.692 170.5V161.554H158.748V170.5H160.692ZM165.121 170.68C167.155 170.68 168.577 169.78 169.045 168.268H169.171V170.5H170.953V165.064C170.953 162.922 169.675 161.374 166.831 161.374C163.987 161.374 162.295 162.904 162.295 164.938V165.01H164.221V164.938C164.221 163.624 165.031 163.084 166.687 163.084C168.397 163.084 169.045 163.606 169.045 165.082V165.604L164.977 166.036C163.213 166.234 162.097 166.954 162.097 168.34C162.097 169.816 163.267 170.68 165.121 170.68ZM164.041 168.214C164.041 167.512 164.527 167.278 165.535 167.152L169.045 166.756C169.045 168.52 167.677 169.276 165.643 169.276C164.527 169.276 164.041 168.934 164.041 168.214ZM176.918 170.68C179.438 170.68 181.094 169.69 181.094 168.016C181.094 166.54 180.122 165.82 177.998 165.55L175.928 165.262C174.578 165.082 174.218 164.83 174.218 164.128C174.218 163.282 174.794 162.922 176.432 162.922C178.412 162.922 178.952 163.48 178.952 164.542V164.65H180.878V164.596C180.878 162.472 179.222 161.374 176.486 161.374C173.732 161.374 172.31 162.49 172.31 164.056C172.31 165.55 173.336 166.27 175.028 166.486L177.476 166.81C178.754 166.99 179.186 167.224 179.186 167.962C179.186 168.754 178.664 169.114 176.918 169.114C175.046 169.114 174.344 168.736 174.344 167.566V167.422H172.4V167.476C172.4 169.546 174.038 170.68 176.918 170.68Z" fill="#FCFBF7"/>
<g clip-path="url(#clip0_1046_700)">
<path d="M347.547 153.832C347.887 153.378 348.531 153.299 348.967 153.659L360.443 163.142C361.605 164.102 361.605 165.898 360.443 166.858L348.967 176.341C348.531 176.701 347.887 176.622 347.547 176.168C347.226 175.738 347.299 175.128 347.711 174.787L357.308 166.858C358.47 165.898 358.47 164.102 357.308 163.142L347.711 155.213C347.299 154.872 347.226 154.262 347.547 153.832Z" fill="#FF8C1C"/>
<path fill-rule="evenodd" clip-rule="evenodd" d="M335 164.74C335 164.298 335.354 163.94 335.791 163.94L359.458 163.94C359.895 163.94 360.249 164.298 360.249 164.74L360.249 165.281C360.249 165.722 359.895 166.081 359.458 166.081L335.791 166.081C335.354 166.081 335 165.722 335 165.281L335 164.74Z" fill="#FF8C1C"/>
</g>
<defs>
<clipPath id="clip0_1046_700">
<rect width="27.6923" height="24" fill="white" transform="translate(362.692 177) rotate(-180)"/>
</clipPath>
</defs>
</svg>
