<svg width="375" height="108" viewBox="0 0 375 108" fill="none" xmlns="http://www.w3.org/2000/svg">
<path d="M0 0H375V105C375 106.657 373.657 108 372 108H3.00001C1.34315 108 0 106.657 0 105V0Z" fill="#121419"/>
<g clip-path="url(#clip0_1048_701)">
<rect width="375" height="48" fill="#232630"/>
<path d="M150.033 33.3029C155.71 33.3029 159.495 30.5968 159.495 26.7157V26.324H154.139V26.6801C154.139 28.2111 153.032 29.0301 149.855 29.0301C146.391 29.0301 145.106 27.8551 144.963 25.1134H159.531C159.602 24.5081 159.674 24.0452 159.674 23.4043C159.674 17.814 155.782 14.7518 149.926 14.7518C144.035 14.7518 140 18.3481 140 24.0452C140 30.3831 144.07 33.3029 150.033 33.3029ZM149.819 18.9178C152.961 18.9178 154.389 19.9504 154.532 22.3004H145.034C145.284 19.986 146.641 18.9178 149.819 18.9178Z" fill="#1D2029"/>
<path d="M150.033 33.3029C155.71 33.3029 159.495 30.5968 159.495 26.7157V26.324H154.139V26.6801C154.139 28.2111 153.032 29.0301 149.855 29.0301C146.391 29.0301 145.106 27.8551 144.963 25.1134H159.531C159.602 24.5081 159.674 24.0452 159.674 23.4043C159.674 17.814 155.782 14.7518 149.926 14.7518C144.035 14.7518 140 18.3481 140 24.0452C140 30.3831 144.07 33.3029 150.033 33.3029ZM149.819 18.9178C152.961 18.9178 154.389 19.9504 154.532 22.3004H145.034C145.284 19.986 146.641 18.9178 149.819 18.9178Z" fill="#FBF9F3"/>
<path d="M170.978 33.3029C176.513 33.3029 179.833 31.0953 179.833 27.7483C179.833 24.7929 178.048 23.1906 173.263 22.6565L169.443 22.1936C167.086 21.9088 166.587 21.5171 166.587 20.5913C166.587 19.4519 167.265 18.989 169.943 18.989C173.228 18.989 173.942 19.7368 173.942 21.1966V21.4103H179.298V21.3035C179.298 16.9595 175.977 14.7518 170.121 14.7518C163.98 14.7518 161.302 17.2443 161.302 20.3777C161.302 23.3686 163.302 24.9709 166.872 25.3626L171.907 25.9679C174.013 26.2528 174.549 26.5376 174.549 27.5346C174.549 28.6028 173.87 29.0657 171.014 29.0657C167.979 29.0657 166.979 28.6384 166.979 27.0361V26.7157H161.623V26.8225C161.623 30.9529 164.944 33.3029 170.978 33.3029Z" fill="#1D2029"/>
<path d="M170.978 33.3029C176.513 33.3029 179.833 31.0953 179.833 27.7483C179.833 24.7929 178.048 23.1906 173.263 22.6565L169.443 22.1936C167.086 21.9088 166.587 21.5171 166.587 20.5913C166.587 19.4519 167.265 18.989 169.943 18.989C173.228 18.989 173.942 19.7368 173.942 21.1966V21.4103H179.298V21.3035C179.298 16.9595 175.977 14.7518 170.121 14.7518C163.98 14.7518 161.302 17.2443 161.302 20.3777C161.302 23.3686 163.302 24.9709 166.872 25.3626L171.907 25.9679C174.013 26.2528 174.549 26.5376 174.549 27.5346C174.549 28.6028 173.87 29.0657 171.014 29.0657C167.979 29.0657 166.979 28.6384 166.979 27.0361V26.7157H161.623V26.8225C161.623 30.9529 164.944 33.3029 170.978 33.3029Z" fill="#FBF9F3"/>
<path d="M187.35 38.9999V28.1399H187.6C188.207 31.2733 190.492 33.3029 194.634 33.3029C200.025 33.3029 203.025 29.7066 203.025 24.0452C203.025 18.3837 199.954 14.7518 194.455 14.7518C190.242 14.7518 187.957 16.5678 187.314 19.986H186.957V15.1079H181.994V38.9999H187.35ZM187.35 24.2944V24.0096C187.35 20.8406 189.135 19.6656 192.599 19.6656C195.991 19.6656 197.597 20.7694 197.597 24.0452C197.597 27.2854 195.991 28.4248 192.563 28.4248C189.207 28.4248 187.35 27.3566 187.35 24.2944Z" fill="#1D2029"/>
<path d="M187.35 38.9999V28.1399H187.6C188.207 31.2733 190.492 33.3029 194.634 33.3029C200.025 33.3029 203.025 29.7066 203.025 24.0452C203.025 18.3837 199.954 14.7518 194.455 14.7518C190.242 14.7518 187.957 16.5678 187.314 19.986H186.957V15.1079H181.994V38.9999H187.35ZM187.35 24.2944V24.0096C187.35 20.8406 189.135 19.6656 192.599 19.6656C195.991 19.6656 197.597 20.7694 197.597 24.0452C197.597 27.2854 195.991 28.4248 192.563 28.4248C189.207 28.4248 187.35 27.3566 187.35 24.2944Z" fill="#FBF9F3"/>
<path d="M210.607 32.9468V15.1079H205.251V32.9468H210.607Z" fill="#1D2029"/>
<path d="M210.607 32.9468V15.1079H205.251V32.9468H210.607Z" fill="#FBF9F3"/>
<path d="M218.767 32.9468V23.9383C218.767 20.9118 219.981 19.5587 223.373 19.5587C226.657 19.5587 227.836 20.7694 227.836 23.6179V32.9468H233.191V21.8376C233.191 17.8852 230.871 14.7518 225.979 14.7518C221.302 14.7518 219.159 17.6004 218.695 20.5913H218.374V15.1079H213.411V32.9468H218.767Z" fill="#1D2029"/>
<path d="M218.767 32.9468V23.9383C218.767 20.9118 219.981 19.5587 223.373 19.5587C226.657 19.5587 227.836 20.7694 227.836 23.6179V32.9468H233.191V21.8376C233.191 17.8852 230.871 14.7518 225.979 14.7518C221.302 14.7518 219.159 17.6004 218.695 20.5913H218.374V15.1079H213.411V32.9468H218.767Z" fill="#FBF9F3"/>
<path d="M217.992 13.2016C217.992 13.2016 228.582 9.43272 233.192 9.43272V9L204.87 9V13.2016H217.992Z" fill="#FF6F1E"/>
<path d="M217.992 13.2016C217.992 13.2016 228.582 9.43272 233.192 9.43272V9L204.87 9V13.2016H217.992Z" fill="url(#paint0_linear_1048_701)" fill-opacity="0.3"/>
<path d="M217.992 13.2016C217.992 13.2016 228.582 9.43272 233.192 9.43272V9L204.87 9V13.2016H217.992Z" fill="url(#paint1_linear_1048_701)" fill-opacity="0.7"/>
<rect width="47.1178" height="48" transform="translate(328)" fill="#DE5000"/>
<path fill-rule="evenodd" clip-rule="evenodd" d="M357.424 27.5202C358.529 26.1155 359.117 24.1015 359.117 21.3302C359.117 14.7213 355.802 12.5 349.779 12.5C343.756 12.5 340.5 14.7213 340.5 21.3302C340.5 27.9941 344.033 30.2704 349.891 30.2704C352.429 30.2704 354.494 29.8473 356.026 28.8171L361.103 35.5L362.618 34.3492L357.424 27.5202ZM344.247 26.8602C343.195 25.9484 342.404 24.3469 342.404 21.3302C342.404 18.3135 343.147 16.7416 344.141 15.8658C345.188 14.9413 346.935 14.404 349.779 14.404C352.622 14.404 354.391 14.9413 355.455 15.87C356.462 16.7501 357.213 18.3177 357.213 21.3302C357.213 24.3427 356.449 25.9738 355.433 26.8856C354.376 27.8312 352.63 28.3664 349.891 28.3664C347.151 28.3664 345.366 27.8228 344.247 26.8602Z" fill="#FCFBF7"/>
</g>
<line x1="1.31134e-07" y1="49.5" x2="375" y2="49.5" stroke="#FF6F1E" stroke-width="3"/>
<line x1="1.31134e-07" y1="49.5" x2="375" y2="49.5" stroke="url(#paint2_linear_1048_701)" stroke-opacity="0.3" stroke-width="3"/>
<line x1="1.31134e-07" y1="49.5" x2="375" y2="49.5" stroke="url(#paint3_linear_1048_701)" stroke-opacity="0.7" stroke-width="3"/>
<path d="M0 51H375V105C375 106.657 373.657 108 372 108H3.00001C1.34315 108 0 106.657 0 105V51Z" fill="#121419"/>
<path fill-rule="evenodd" clip-rule="evenodd" d="M32.9242 83.0202C34.0285 81.6155 34.6166 79.6015 34.6166 76.8302C34.6166 70.2213 31.3016 68 25.2787 68C19.2558 68 16 70.2213 16 76.8302C16 83.4941 19.5329 85.7704 25.3908 85.7704C27.9295 85.7704 29.9942 85.3473 31.5258 84.3171L36.6031 91L38.1178 89.8492L32.9242 83.0202ZM19.7466 82.3602C18.6952 81.4484 17.904 79.8469 17.904 76.8302C17.904 73.8135 18.6465 72.2416 19.6408 71.3658C20.688 70.4413 22.4354 69.904 25.2787 69.904C28.122 69.904 29.8905 70.4413 30.9547 71.37C31.9616 72.2501 32.7127 73.8177 32.7127 76.8302C32.7127 79.8427 31.949 81.4738 30.9335 82.3856C29.8757 83.3312 28.1304 83.8664 25.3908 83.8664C22.6512 83.8664 20.8657 83.3228 19.7466 82.3602Z" fill="#FCFBF7"/>
<path d="M69.5699 85.5C71.8739 85.5 73.3499 84.258 73.3499 82.17C73.3499 80.622 72.3959 79.524 70.5419 79.218V79.11C72.1979 78.858 72.9719 77.814 72.9719 76.428C72.9719 74.52 71.5499 73.44 69.3899 73.44H63.0539V85.5H69.5699ZM64.3319 74.61H69.2819C70.9199 74.61 71.6939 75.258 71.6939 76.662C71.6939 78.048 70.8119 78.696 69.1739 78.696H64.3319V74.61ZM64.3319 79.794H69.4619C71.1359 79.794 72.0539 80.496 72.0539 82.044C72.0539 83.628 71.1719 84.33 69.4619 84.33H64.3319V79.794ZM78.6134 85.68C80.8274 85.68 82.1054 84.24 82.4114 82.728H82.5014V85.5H83.6534V76.608H82.3754V80.928C82.3754 83.214 81.2414 84.528 79.0634 84.528C77.0114 84.528 76.1114 83.466 76.1114 81.612V76.608H74.8334V81.81C74.8334 83.916 76.0754 85.68 78.6134 85.68ZM89.7094 85.68C92.0134 85.68 93.6694 84.798 93.6694 83.124C93.6694 81.684 92.6434 81.036 90.7354 80.766L88.5574 80.46C87.0814 80.244 86.6134 79.92 86.6134 79.002C86.6134 77.94 87.3874 77.49 89.2594 77.49C91.5274 77.49 92.2294 78.21 92.2294 79.542V79.632H93.5074V79.596C93.5074 77.508 91.8514 76.428 89.2954 76.428C86.8474 76.428 85.3534 77.418 85.3534 78.984C85.3534 80.46 86.3794 81.09 87.9994 81.306L90.3754 81.648C91.8514 81.882 92.4094 82.188 92.4094 83.124C92.4094 84.15 91.7254 84.618 89.7274 84.618C87.5494 84.618 86.6674 84.096 86.6674 82.602V82.494H85.3894V82.53C85.3894 84.582 86.9734 85.68 89.7094 85.68ZM99.5963 85.68C102.08 85.68 104.024 84.204 104.024 82.062V81.918H102.764V82.026C102.764 83.61 101.612 84.51 99.5783 84.51C97.2023 84.51 96.1763 83.232 96.1763 81.054C96.1763 78.876 97.2023 77.598 99.5783 77.598C101.612 77.598 102.764 78.498 102.764 80.082V80.19H104.024V80.046C104.024 77.904 102.08 76.428 99.5963 76.428C96.7523 76.428 94.8983 78.354 94.8983 81.054C94.8983 83.754 96.7523 85.68 99.5963 85.68ZM108.203 85.68C110.273 85.68 111.839 84.744 112.361 83.106H112.451V85.5H113.603V79.938C113.603 77.976 112.451 76.428 109.751 76.428C107.015 76.428 105.467 77.958 105.467 79.83V79.902H106.745V79.83C106.745 78.264 107.753 77.58 109.661 77.58C111.605 77.58 112.361 78.264 112.361 79.992V80.676L108.131 81.144C106.475 81.324 105.269 81.954 105.269 83.412C105.269 84.852 106.457 85.68 108.203 85.68ZM106.547 83.322C106.547 82.404 107.195 82.08 108.527 81.954L112.361 81.522V81.594C112.361 83.736 110.651 84.69 108.491 84.69C107.141 84.69 106.547 84.222 106.547 83.322Z" fill="#D6D9E1"/>
<defs>
<linearGradient id="paint0_linear_1048_701" x1="228.44" y1="10.3826" x2="211.411" y2="13.2102" gradientUnits="userSpaceOnUse">
<stop stop-color="#FF1919"/>
<stop offset="1" stop-color="#FF0000" stop-opacity="0"/>
</linearGradient>
<linearGradient id="paint1_linear_1048_701" x1="205.814" y1="13.1897" x2="216.241" y2="11.0798" gradientUnits="userSpaceOnUse">
<stop stop-color="#FFA800"/>
<stop offset="1" stop-color="#FFA800" stop-opacity="0"/>
</linearGradient>
<linearGradient id="paint2_linear_1048_701" x1="312.078" y1="51.3291" x2="309.395" y2="76.1189" gradientUnits="userSpaceOnUse">
<stop stop-color="#FF1919"/>
<stop offset="1" stop-color="#FF0000" stop-opacity="0"/>
</linearGradient>
<linearGradient id="paint3_linear_1048_701" x1="12.5043" y1="51.9972" x2="13.6293" y2="39.3324" gradientUnits="userSpaceOnUse">
<stop stop-color="#FFA800"/>
<stop offset="1" stop-color="#FFA800" stop-opacity="0"/>
</linearGradient>
<clipPath id="clip0_1048_701">
<rect width="375" height="48" fill="white"/>
</clipPath>
</defs>
</svg>
