<svg width="375" height="54" viewBox="0 0 375 54" fill="none" xmlns="http://www.w3.org/2000/svg">
<rect width="375" height="54" fill="#121419"/>
<g clip-path="url(#clip0_1048_701)">
<rect width="375" height="48" fill="#232630"/>
<path d="M150.033 33.3029C155.71 33.3029 159.495 30.5968 159.495 26.7157V26.324H154.139V26.6801C154.139 28.2111 153.032 29.0301 149.855 29.0301C146.391 29.0301 145.106 27.8551 144.963 25.1134H159.531C159.602 24.5081 159.674 24.0452 159.674 23.4043C159.674 17.814 155.782 14.7518 149.926 14.7518C144.035 14.7518 140 18.3481 140 24.0452C140 30.3831 144.07 33.3029 150.033 33.3029ZM149.819 18.9178C152.961 18.9178 154.389 19.9504 154.532 22.3004H145.034C145.284 19.986 146.641 18.9178 149.819 18.9178Z" fill="#1D2029"/>
<path d="M150.033 33.3029C155.71 33.3029 159.495 30.5968 159.495 26.7157V26.324H154.139V26.6801C154.139 28.2111 153.032 29.0301 149.855 29.0301C146.391 29.0301 145.106 27.8551 144.963 25.1134H159.531C159.602 24.5081 159.674 24.0452 159.674 23.4043C159.674 17.814 155.782 14.7518 149.926 14.7518C144.035 14.7518 140 18.3481 140 24.0452C140 30.3831 144.07 33.3029 150.033 33.3029ZM149.819 18.9178C152.961 18.9178 154.389 19.9504 154.532 22.3004H145.034C145.284 19.986 146.641 18.9178 149.819 18.9178Z" fill="#FBF9F3"/>
<path d="M170.978 33.3029C176.513 33.3029 179.833 31.0953 179.833 27.7483C179.833 24.7929 178.048 23.1906 173.263 22.6565L169.443 22.1936C167.086 21.9088 166.587 21.5171 166.587 20.5913C166.587 19.4519 167.265 18.989 169.943 18.989C173.228 18.989 173.942 19.7368 173.942 21.1966V21.4103H179.298V21.3035C179.298 16.9595 175.977 14.7518 170.121 14.7518C163.98 14.7518 161.302 17.2443 161.302 20.3777C161.302 23.3686 163.302 24.9709 166.872 25.3626L171.907 25.9679C174.013 26.2528 174.549 26.5376 174.549 27.5346C174.549 28.6028 173.87 29.0657 171.014 29.0657C167.979 29.0657 166.979 28.6384 166.979 27.0361V26.7157H161.623V26.8225C161.623 30.9529 164.944 33.3029 170.978 33.3029Z" fill="#1D2029"/>
<path d="M170.978 33.3029C176.513 33.3029 179.833 31.0953 179.833 27.7483C179.833 24.7929 178.048 23.1906 173.263 22.6565L169.443 22.1936C167.086 21.9088 166.587 21.5171 166.587 20.5913C166.587 19.4519 167.265 18.989 169.943 18.989C173.228 18.989 173.942 19.7368 173.942 21.1966V21.4103H179.298V21.3035C179.298 16.9595 175.977 14.7518 170.121 14.7518C163.98 14.7518 161.302 17.2443 161.302 20.3777C161.302 23.3686 163.302 24.9709 166.872 25.3626L171.907 25.9679C174.013 26.2528 174.549 26.5376 174.549 27.5346C174.549 28.6028 173.87 29.0657 171.014 29.0657C167.979 29.0657 166.979 28.6384 166.979 27.0361V26.7157H161.623V26.8225C161.623 30.9529 164.944 33.3029 170.978 33.3029Z" fill="#FBF9F3"/>
<path d="M187.35 38.9999V28.1399H187.6C188.207 31.2733 190.492 33.3029 194.634 33.3029C200.025 33.3029 203.025 29.7066 203.025 24.0452C203.025 18.3837 199.954 14.7518 194.455 14.7518C190.242 14.7518 187.957 16.5678 187.314 19.986H186.957V15.1079H181.994V38.9999H187.35ZM187.35 24.2944V24.0096C187.35 20.8406 189.135 19.6656 192.599 19.6656C195.991 19.6656 197.597 20.7694 197.597 24.0452C197.597 27.2854 195.991 28.4248 192.563 28.4248C189.207 28.4248 187.35 27.3566 187.35 24.2944Z" fill="#1D2029"/>
<path d="M187.35 38.9999V28.1399H187.6C188.207 31.2733 190.492 33.3029 194.634 33.3029C200.025 33.3029 203.025 29.7066 203.025 24.0452C203.025 18.3837 199.954 14.7518 194.455 14.7518C190.242 14.7518 187.957 16.5678 187.314 19.986H186.957V15.1079H181.994V38.9999H187.35ZM187.35 24.2944V24.0096C187.35 20.8406 189.135 19.6656 192.599 19.6656C195.991 19.6656 197.597 20.7694 197.597 24.0452C197.597 27.2854 195.991 28.4248 192.563 28.4248C189.207 28.4248 187.35 27.3566 187.35 24.2944Z" fill="#FBF9F3"/>
<path d="M210.607 32.9468V15.1079H205.251V32.9468H210.607Z" fill="#1D2029"/>
<path d="M210.607 32.9468V15.1079H205.251V32.9468H210.607Z" fill="#FBF9F3"/>
<path d="M218.767 32.9468V23.9383C218.767 20.9118 219.981 19.5587 223.373 19.5587C226.657 19.5587 227.836 20.7694 227.836 23.6179V32.9468H233.191V21.8376C233.191 17.8852 230.871 14.7518 225.979 14.7518C221.302 14.7518 219.159 17.6004 218.695 20.5913H218.374V15.1079H213.411V32.9468H218.767Z" fill="#1D2029"/>
<path d="M218.767 32.9468V23.9383C218.767 20.9118 219.981 19.5587 223.373 19.5587C226.657 19.5587 227.836 20.7694 227.836 23.6179V32.9468H233.191V21.8376C233.191 17.8852 230.871 14.7518 225.979 14.7518C221.302 14.7518 219.159 17.6004 218.695 20.5913H218.374V15.1079H213.411V32.9468H218.767Z" fill="#FBF9F3"/>
<path d="M217.992 13.2016C217.992 13.2016 228.582 9.43272 233.192 9.43272V9L204.87 9V13.2016H217.992Z" fill="#FF6F1E"/>
<path d="M217.992 13.2016C217.992 13.2016 228.582 9.43272 233.192 9.43272V9L204.87 9V13.2016H217.992Z" fill="url(#paint0_linear_1048_701)" fill-opacity="0.3"/>
<path d="M217.992 13.2016C217.992 13.2016 228.582 9.43272 233.192 9.43272V9L204.87 9V13.2016H217.992Z" fill="url(#paint1_linear_1048_701)" fill-opacity="0.7"/>
<path fill-rule="evenodd" clip-rule="evenodd" d="M357.424 27.5202C358.529 26.1155 359.117 24.1015 359.117 21.3302C359.117 14.7213 355.802 12.5 349.779 12.5C343.756 12.5 340.5 14.7213 340.5 21.3302C340.5 27.9941 344.033 30.2704 349.891 30.2704C352.429 30.2704 354.494 29.8473 356.026 28.8171L361.103 35.5L362.618 34.3492L357.424 27.5202ZM344.247 26.8602C343.195 25.9484 342.404 24.3469 342.404 21.3302C342.404 18.3135 343.147 16.7416 344.141 15.8658C345.188 14.9413 346.935 14.404 349.779 14.404C352.622 14.404 354.391 14.9413 355.455 15.87C356.462 16.7501 357.213 18.3177 357.213 21.3302C357.213 24.3427 356.449 25.9738 355.433 26.8856C354.376 27.8312 352.63 28.3664 349.891 28.3664C347.151 28.3664 345.366 27.8228 344.247 26.8602Z" fill="#FCFBF7"/>
</g>
<line x1="1.31134e-07" y1="49.5" x2="375" y2="49.5" stroke="#FF6F1E" stroke-width="3"/>
<line x1="1.31134e-07" y1="49.5" x2="375" y2="49.5" stroke="url(#paint2_linear_1048_701)" stroke-opacity="0.3" stroke-width="3"/>
<line x1="1.31134e-07" y1="49.5" x2="375" y2="49.5" stroke="url(#paint3_linear_1048_701)" stroke-opacity="0.7" stroke-width="3"/>
<defs>
<linearGradient id="paint0_linear_1048_701" x1="228.44" y1="10.3826" x2="211.411" y2="13.2102" gradientUnits="userSpaceOnUse">
<stop stop-color="#FF1919"/>
<stop offset="1" stop-color="#FF0000" stop-opacity="0"/>
</linearGradient>
<linearGradient id="paint1_linear_1048_701" x1="205.814" y1="13.1897" x2="216.241" y2="11.0798" gradientUnits="userSpaceOnUse">
<stop stop-color="#FFA800"/>
<stop offset="1" stop-color="#FFA800" stop-opacity="0"/>
</linearGradient>
<linearGradient id="paint2_linear_1048_701" x1="312.078" y1="51.3291" x2="309.395" y2="76.1189" gradientUnits="userSpaceOnUse">
<stop stop-color="#FF1919"/>
<stop offset="1" stop-color="#FF0000" stop-opacity="0"/>
</linearGradient>
<linearGradient id="paint3_linear_1048_701" x1="12.5043" y1="51.9972" x2="13.6293" y2="39.3324" gradientUnits="userSpaceOnUse">
<stop stop-color="#FFA800"/>
<stop offset="1" stop-color="#FFA800" stop-opacity="0"/>
</linearGradient>
<clipPath id="clip0_1048_701">
<rect width="375" height="48" fill="white"/>
</clipPath>
</defs>
</svg>
