<svg width="390" height="111" viewBox="0 0 390 111" fill="none" xmlns="http://www.w3.org/2000/svg">
<rect width="389.565" height="111" fill="#FCFBF7"/>
<path d="M13.908 38V34.04H18.552V38H19.404V29.408H18.552V33.236H13.908V29.408H13.044V38H13.908ZM23.7609 38.144C25.1289 38.144 26.0289 37.484 26.3409 36.26H25.5489C25.3329 37.028 24.7209 37.436 23.7729 37.436C22.5249 37.436 21.7809 36.62 21.7209 35.204H26.3409V34.796C26.3409 33.152 25.2729 32.036 23.7009 32.036C22.0449 32.036 20.9169 33.284 20.9169 35.096C20.9169 36.92 22.0569 38.144 23.7609 38.144ZM23.7009 32.744C24.7929 32.744 25.5129 33.488 25.5129 34.604H21.7449C21.8889 33.464 22.6089 32.744 23.7009 32.744ZM31.8569 38V29.252H31.0289V38H31.8569ZM36.0539 38.144C37.4219 38.144 38.3219 37.484 38.6339 36.26H37.8419C37.6259 37.028 37.0139 37.436 36.0659 37.436C34.8179 37.436 34.0739 36.62 34.0139 35.204H38.6339V34.796C38.6339 33.152 37.5659 32.036 35.9939 32.036C34.3379 32.036 33.2099 33.284 33.2099 35.096C33.2099 36.92 34.3499 38.144 36.0539 38.144ZM35.9939 32.744C37.0859 32.744 37.8059 33.488 37.8059 34.604H34.0379C34.1819 33.464 34.9019 32.744 35.9939 32.744ZM41.6618 30.092H40.7858L40.0658 31.52H40.7378L41.6618 30.092ZM39.9578 38H40.7858V32.192H39.9578V38ZM44.7924 38.144C45.7644 38.144 46.5804 37.712 46.9884 36.812L47.0724 38H47.7924V29.252H46.9644V33.296C46.5564 32.456 45.7884 32.036 44.8284 32.036C43.1004 32.036 42.1044 33.356 42.1044 35.108C42.1044 36.848 43.1004 38.144 44.7924 38.144ZM44.9364 37.388C43.6764 37.388 42.9444 36.428 42.9444 35.084C42.9444 33.752 43.6764 32.78 44.9364 32.78C46.2084 32.78 46.9524 33.752 46.9524 35.084C46.9524 36.428 46.2084 37.388 44.9364 37.388ZM49.1123 35.096C49.1123 36.86 50.3603 38.144 52.0643 38.144C53.7683 38.144 55.0163 36.86 55.0163 35.096C55.0163 33.32 53.7683 32.036 52.0643 32.036C50.3603 32.036 49.1123 33.32 49.1123 35.096ZM49.9523 35.084C49.9523 33.74 50.8163 32.78 52.0643 32.78C53.3003 32.78 54.1763 33.74 54.1763 35.084C54.1763 36.452 53.3003 37.4 52.0643 37.4C50.8163 37.4 49.9523 36.452 49.9523 35.084ZM59.0807 40.532C59.3447 40.592 59.6087 40.616 59.9567 40.616C60.7847 40.616 61.3487 40.244 61.6847 39.332L64.3487 32.192H63.4967L61.6607 37.256L59.7887 32.192H58.9127L61.2647 38.348L61.0127 39.032C60.7247 39.812 60.2207 39.848 59.7167 39.848H59.0807V40.532ZM70.3133 38.144C71.2973 38.144 72.0893 37.712 72.4493 36.98L72.5573 38H73.2533V34.244C73.2533 32.708 72.2693 32.036 70.9253 32.036C69.4973 32.036 68.5373 32.792 68.5373 33.968H69.2933C69.2933 33.188 69.8933 32.732 70.9013 32.732C71.7533 32.732 72.4373 33.092 72.4373 34.232V34.424L70.5173 34.58C69.1613 34.688 68.3453 35.36 68.3453 36.428C68.3453 37.448 69.0773 38.144 70.3133 38.144ZM70.5053 37.472C69.7133 37.472 69.1853 37.112 69.1853 36.404C69.1853 35.756 69.6293 35.276 70.7213 35.18L72.4373 35.048V35.36C72.4373 36.62 71.7293 37.472 70.5053 37.472ZM74.5068 35.108C74.5068 36.932 75.6228 38.144 77.2668 38.144C78.5868 38.144 79.6188 37.364 79.8948 36.176H79.0548C78.8268 36.92 78.1308 37.4 77.2668 37.4C76.0908 37.4 75.3228 36.476 75.3228 35.096C75.3228 33.668 76.1508 32.768 77.3268 32.768C78.1308 32.768 78.8268 33.212 79.0428 34.016H79.8708C79.6428 32.816 78.6588 32.036 77.3148 32.036C75.6228 32.036 74.5068 33.284 74.5068 35.108ZM83.5852 38.144C84.9532 38.144 85.8532 37.484 86.1652 36.26H85.3732C85.1572 37.028 84.5452 37.436 83.5972 37.436C82.3492 37.436 81.6052 36.62 81.5452 35.204H86.1652V34.796C86.1652 33.152 85.0972 32.036 83.5252 32.036C81.8692 32.036 80.7412 33.284 80.7412 35.096C80.7412 36.92 81.8812 38.144 83.5852 38.144ZM83.5252 32.744C84.6172 32.744 85.3372 33.488 85.3372 34.604H81.5692C81.7132 33.464 82.4332 32.744 83.5252 32.744ZM87.489 40.532H88.317V36.884C88.725 37.724 89.505 38.144 90.489 38.144C92.205 38.144 93.177 36.824 93.177 35.072C93.177 33.32 92.169 32.036 90.489 32.036C89.517 32.036 88.701 32.468 88.293 33.368L88.209 32.192H87.489V40.532ZM88.329 35.096C88.329 33.752 89.073 32.792 90.345 32.792C91.605 32.792 92.337 33.752 92.337 35.096C92.337 36.428 91.605 37.4 90.345 37.4C89.073 37.4 88.329 36.428 88.329 35.096ZM95.7702 38V32.888H96.9342V32.192H95.7702V30.356H94.9542V32.192H93.7902V32.888H94.9542V38H95.7702ZM97.5458 35.096C97.5458 36.86 98.7938 38.144 100.498 38.144C102.202 38.144 103.45 36.86 103.45 35.096C103.45 33.32 102.202 32.036 100.498 32.036C98.7938 32.036 97.5458 33.32 97.5458 35.096ZM98.3858 35.084C98.3858 33.74 99.2498 32.78 100.498 32.78C101.734 32.78 102.61 33.74 102.61 35.084C102.61 36.452 101.734 37.4 100.498 37.4C99.2498 37.4 98.3858 36.452 98.3858 35.084ZM108.966 38V29.252H108.138V38H108.966ZM112.395 38.144C113.379 38.144 114.171 37.712 114.531 36.98L114.639 38H115.335V34.244C115.335 32.708 114.351 32.036 113.007 32.036C111.579 32.036 110.619 32.792 110.619 33.968H111.375C111.375 33.188 111.975 32.732 112.983 32.732C113.835 32.732 114.519 33.092 114.519 34.232V34.424L112.599 34.58C111.243 34.688 110.427 35.36 110.427 36.428C110.427 37.448 111.159 38.144 112.395 38.144ZM112.587 37.472C111.795 37.472 111.267 37.112 111.267 36.404C111.267 35.756 111.711 35.276 112.803 35.18L114.519 35.048V35.36C114.519 36.62 113.811 37.472 112.587 37.472ZM116.505 36.368C116.505 37.448 117.321 38.144 118.629 38.144C119.949 38.144 120.837 37.46 120.837 36.416C120.837 35.576 120.381 35.108 119.373 34.856L118.377 34.604C117.741 34.448 117.429 34.136 117.429 33.692C117.429 33.068 117.885 32.72 118.701 32.72C119.481 32.72 119.949 33.116 119.973 33.788H120.777C120.741 32.708 119.949 32.036 118.725 32.036C117.477 32.036 116.625 32.684 116.625 33.704C116.625 34.496 117.117 35.024 118.125 35.276L119.121 35.528C119.805 35.696 120.045 35.972 120.045 36.452C120.045 37.076 119.517 37.46 118.617 37.46C117.801 37.46 117.297 37.04 117.297 36.368H116.505ZM125.12 35.108C125.12 36.932 126.236 38.144 127.88 38.144C129.2 38.144 130.232 37.364 130.508 36.176H129.668C129.44 36.92 128.744 37.4 127.88 37.4C126.704 37.4 125.936 36.476 125.936 35.096C125.936 33.668 126.764 32.768 127.94 32.768C128.744 32.768 129.44 33.212 129.656 34.016H130.484C130.256 32.816 129.272 32.036 127.928 32.036C126.236 32.036 125.12 33.284 125.12 35.108ZM131.354 35.096C131.354 36.86 132.602 38.144 134.306 38.144C136.01 38.144 137.258 36.86 137.258 35.096C137.258 33.32 136.01 32.036 134.306 32.036C132.602 32.036 131.354 33.32 131.354 35.096ZM132.194 35.084C132.194 33.74 133.058 32.78 134.306 32.78C135.542 32.78 136.418 33.74 136.418 35.084C136.418 36.452 135.542 37.4 134.306 37.4C133.058 37.4 132.194 36.452 132.194 35.084ZM139.411 38V34.964C139.411 33.656 140.083 32.792 141.271 32.792C142.231 32.792 142.843 33.272 142.843 34.628V38H143.671V34.448C143.671 32.984 143.011 32.036 141.415 32.036C140.575 32.036 139.807 32.456 139.423 33.2L139.303 32.192H138.583V38H139.411ZM147.601 38.144C148.573 38.144 149.389 37.712 149.797 36.812L149.881 38H150.601V29.252H149.773V33.296C149.365 32.456 148.597 32.036 147.637 32.036C145.909 32.036 144.913 33.356 144.913 35.108C144.913 36.848 145.909 38.144 147.601 38.144ZM147.745 37.388C146.485 37.388 145.753 36.428 145.753 35.084C145.753 33.752 146.485 32.78 147.745 32.78C149.017 32.78 149.761 33.752 149.761 35.084C149.761 36.428 149.017 37.388 147.745 37.388ZM152.737 30.596C153.073 30.596 153.361 30.32 153.361 29.984C153.361 29.648 153.073 29.36 152.737 29.36C152.401 29.36 152.125 29.648 152.125 29.984C152.125 30.32 152.401 30.596 152.737 30.596ZM152.329 38H153.157V32.192H152.329V38ZM154.476 35.108C154.476 36.932 155.592 38.144 157.236 38.144C158.556 38.144 159.588 37.364 159.864 36.176H159.024C158.796 36.92 158.1 37.4 157.236 37.4C156.06 37.4 155.292 36.476 155.292 35.096C155.292 33.668 156.12 32.768 157.296 32.768C158.1 32.768 158.796 33.212 159.012 34.016H159.84C159.612 32.816 158.628 32.036 157.284 32.036C155.592 32.036 154.476 33.284 154.476 35.108ZM161.526 30.596C161.862 30.596 162.15 30.32 162.15 29.984C162.15 29.648 161.862 29.36 161.526 29.36C161.19 29.36 160.914 29.648 160.914 29.984C160.914 30.32 161.19 30.596 161.526 30.596ZM161.118 38H161.946V32.192H161.118V38ZM163.265 35.096C163.265 36.86 164.513 38.144 166.217 38.144C167.921 38.144 169.169 36.86 169.169 35.096C169.169 33.32 167.921 32.036 166.217 32.036C164.513 32.036 163.265 33.32 163.265 35.096ZM164.105 35.084C164.105 33.74 164.969 32.78 166.217 32.78C167.453 32.78 168.329 33.74 168.329 35.084C168.329 36.452 167.453 37.4 166.217 37.4C164.969 37.4 164.105 36.452 164.105 35.084ZM171.321 38V34.964C171.321 33.656 171.993 32.792 173.181 32.792C174.141 32.792 174.753 33.272 174.753 34.628V38H175.581V34.448C175.581 32.984 174.921 32.036 173.325 32.036C172.485 32.036 171.717 32.456 171.333 33.2L171.213 32.192H170.493V38H171.321ZM179.667 38.144C181.035 38.144 181.935 37.484 182.247 36.26H181.455C181.239 37.028 180.627 37.436 179.679 37.436C178.431 37.436 177.687 36.62 177.627 35.204H182.247V34.796C182.247 33.152 181.179 32.036 179.607 32.036C177.951 32.036 176.823 33.284 176.823 35.096C176.823 36.92 177.963 38.144 179.667 38.144ZM179.607 32.744C180.699 32.744 181.419 33.488 181.419 34.604H177.651C177.795 33.464 178.515 32.744 179.607 32.744ZM183.079 36.368C183.079 37.448 183.895 38.144 185.203 38.144C186.523 38.144 187.411 37.46 187.411 36.416C187.411 35.576 186.955 35.108 185.947 34.856L184.951 34.604C184.315 34.448 184.003 34.136 184.003 33.692C184.003 33.068 184.459 32.72 185.275 32.72C186.055 32.72 186.523 33.116 186.547 33.788H187.351C187.315 32.708 186.523 32.036 185.299 32.036C184.051 32.036 183.199 32.684 183.199 33.704C183.199 34.496 183.691 35.024 184.699 35.276L185.695 35.528C186.379 35.696 186.619 35.972 186.619 36.452C186.619 37.076 186.091 37.46 185.191 37.46C184.375 37.46 183.871 37.04 183.871 36.368H183.079ZM194.382 38.144C195.354 38.144 196.17 37.712 196.578 36.812L196.662 38H197.382V29.252H196.554V33.296C196.146 32.456 195.378 32.036 194.418 32.036C192.69 32.036 191.694 33.356 191.694 35.108C191.694 36.848 192.69 38.144 194.382 38.144ZM194.526 37.388C193.266 37.388 192.534 36.428 192.534 35.084C192.534 33.752 193.266 32.78 194.526 32.78C195.798 32.78 196.542 33.752 196.542 35.084C196.542 36.428 195.798 37.388 194.526 37.388ZM201.546 38.144C202.914 38.144 203.814 37.484 204.126 36.26H203.334C203.118 37.028 202.506 37.436 201.558 37.436C200.31 37.436 199.566 36.62 199.506 35.204H204.126V34.796C204.126 33.152 203.058 32.036 201.486 32.036C199.83 32.036 198.702 33.284 198.702 35.096C198.702 36.92 199.842 38.144 201.546 38.144ZM201.486 32.744C202.578 32.744 203.298 33.488 203.298 34.604H199.53C199.674 33.464 200.394 32.744 201.486 32.744ZM208.286 36.368C208.286 37.448 209.102 38.144 210.41 38.144C211.73 38.144 212.618 37.46 212.618 36.416C212.618 35.576 212.162 35.108 211.154 34.856L210.158 34.604C209.522 34.448 209.21 34.136 209.21 33.692C209.21 33.068 209.666 32.72 210.482 32.72C211.262 32.72 211.73 33.116 211.754 33.788H212.558C212.522 32.708 211.73 32.036 210.506 32.036C209.258 32.036 208.406 32.684 208.406 33.704C208.406 34.496 208.898 35.024 209.906 35.276L210.902 35.528C211.586 35.696 211.826 35.972 211.826 36.452C211.826 37.076 211.298 37.46 210.398 37.46C209.582 37.46 209.078 37.04 209.078 36.368H208.286ZM218.061 32.192V35.276C218.061 36.656 217.401 37.4 216.285 37.4C215.361 37.4 214.749 36.908 214.749 35.528V32.18H213.909V35.792C213.909 37.208 214.653 38.144 216.021 38.144C216.933 38.144 217.737 37.688 218.061 37.016L218.169 38H218.889V32.192H218.061ZM220.005 36.368C220.005 37.448 220.821 38.144 222.129 38.144C223.449 38.144 224.337 37.46 224.337 36.416C224.337 35.576 223.881 35.108 222.873 34.856L221.877 34.604C221.241 34.448 220.929 34.136 220.929 33.692C220.929 33.068 221.385 32.72 222.201 32.72C222.981 32.72 223.449 33.116 223.473 33.788H224.277C224.241 32.708 223.449 32.036 222.225 32.036C220.977 32.036 220.125 32.684 220.125 33.704C220.125 34.496 220.617 35.024 221.625 35.276L222.621 35.528C223.305 35.696 223.545 35.972 223.545 36.452C223.545 37.076 223.017 37.46 222.117 37.46C221.301 37.46 220.797 37.04 220.797 36.368H220.005ZM225.292 35.108C225.292 36.932 226.408 38.144 228.052 38.144C229.372 38.144 230.404 37.364 230.68 36.176H229.84C229.612 36.92 228.916 37.4 228.052 37.4C226.876 37.4 226.108 36.476 226.108 35.096C226.108 33.668 226.936 32.768 228.112 32.768C228.916 32.768 229.612 33.212 229.828 34.016H230.656C230.428 32.816 229.444 32.036 228.1 32.036C226.408 32.036 225.292 33.284 225.292 35.108ZM234.97 32.12C234.766 32.072 234.61 32.06 234.43 32.06C233.614 32.06 233.002 32.468 232.774 33.092L232.714 32.192H231.934V38H232.762V34.688C232.762 33.584 233.446 32.864 234.514 32.864H234.97V32.12ZM236.479 30.596C236.815 30.596 237.103 30.32 237.103 29.984C237.103 29.648 236.815 29.36 236.479 29.36C236.143 29.36 235.867 29.648 235.867 29.984C235.867 30.32 236.143 30.596 236.479 30.596ZM236.071 38H236.899V32.192H236.071V38ZM238.626 40.532H239.454V36.884C239.862 37.724 240.642 38.144 241.626 38.144C243.342 38.144 244.314 36.824 244.314 35.072C244.314 33.32 243.306 32.036 241.626 32.036C240.654 32.036 239.838 32.468 239.43 33.368L239.346 32.192H238.626V40.532ZM239.466 35.096C239.466 33.752 240.21 32.792 241.482 32.792C242.742 32.792 243.474 33.752 243.474 35.096C243.474 36.428 242.742 37.4 241.482 37.4C240.21 37.4 239.466 36.428 239.466 35.096ZM245.226 35.108C245.226 36.932 246.342 38.144 247.986 38.144C249.306 38.144 250.338 37.364 250.614 36.176H249.774C249.546 36.92 248.85 37.4 247.986 37.4C246.81 37.4 246.042 36.476 246.042 35.096C246.042 33.668 246.87 32.768 248.046 32.768C248.85 32.768 249.546 33.212 249.762 34.016H250.59C250.362 32.816 249.378 32.036 248.034 32.036C246.342 32.036 245.226 33.284 245.226 35.108ZM252.276 30.596C252.612 30.596 252.9 30.32 252.9 29.984C252.9 29.648 252.612 29.36 252.276 29.36C251.94 29.36 251.664 29.648 251.664 29.984C251.664 30.32 251.94 30.596 252.276 30.596ZM251.868 38H252.696V32.192H251.868V38ZM258.251 30.092H257.375L256.655 31.52H257.339L258.251 30.092ZM254.015 35.096C254.015 36.86 255.263 38.144 256.967 38.144C258.671 38.144 259.919 36.86 259.919 35.096C259.919 33.32 258.671 32.036 256.967 32.036C255.263 32.036 254.015 33.32 254.015 35.096ZM254.855 35.084C254.855 33.74 255.719 32.78 256.967 32.78C258.203 32.78 259.079 33.74 259.079 35.084C259.079 36.452 258.203 37.4 256.967 37.4C255.719 37.4 254.855 36.452 254.855 35.084ZM262.071 38V34.964C262.071 33.656 262.743 32.792 263.931 32.792C264.891 32.792 265.503 33.272 265.503 34.628V38H266.331V34.448C266.331 32.984 265.671 32.036 264.075 32.036C263.235 32.036 262.467 32.456 262.083 33.2L261.963 32.192H261.243V38H262.071Z" fill="#4D546A"/>
<path d="M124.664 40.82H267.123V41.78H124.664V40.82Z" fill="#4D546A"/>
<rect x="346" y="24" width="19.5652" height="18" rx="3" fill="#D6D9E1"/>
<path d="M13.908 83V79.04H18.552V83H19.404V74.408H18.552V78.236H13.908V74.408H13.044V83H13.908ZM23.7609 83.144C25.1289 83.144 26.0289 82.484 26.3409 81.26H25.5489C25.3329 82.028 24.7209 82.436 23.7729 82.436C22.5249 82.436 21.7809 81.62 21.7209 80.204H26.3409V79.796C26.3409 78.152 25.2729 77.036 23.7009 77.036C22.0449 77.036 20.9169 78.284 20.9169 80.096C20.9169 81.92 22.0569 83.144 23.7609 83.144ZM23.7009 77.744C24.7929 77.744 25.5129 78.488 25.5129 79.604H21.7449C21.8889 78.464 22.6089 77.744 23.7009 77.744ZM31.8569 83V74.252H31.0289V83H31.8569ZM36.0539 83.144C37.4219 83.144 38.3219 82.484 38.6339 81.26H37.8419C37.6259 82.028 37.0139 82.436 36.0659 82.436C34.8179 82.436 34.0739 81.62 34.0139 80.204H38.6339V79.796C38.6339 78.152 37.5659 77.036 35.9939 77.036C34.3379 77.036 33.2099 78.284 33.2099 80.096C33.2099 81.92 34.3499 83.144 36.0539 83.144ZM35.9939 77.744C37.0859 77.744 37.8059 78.488 37.8059 79.604H34.0379C34.1819 78.464 34.9019 77.744 35.9939 77.744ZM41.6618 75.092H40.7858L40.0658 76.52H40.7378L41.6618 75.092ZM39.9578 83H40.7858V77.192H39.9578V83ZM44.7924 83.144C45.7644 83.144 46.5804 82.712 46.9884 81.812L47.0724 83H47.7924V74.252H46.9644V78.296C46.5564 77.456 45.7884 77.036 44.8284 77.036C43.1004 77.036 42.1044 78.356 42.1044 80.108C42.1044 81.848 43.1004 83.144 44.7924 83.144ZM44.9364 82.388C43.6764 82.388 42.9444 81.428 42.9444 80.084C42.9444 78.752 43.6764 77.78 44.9364 77.78C46.2084 77.78 46.9524 78.752 46.9524 80.084C46.9524 81.428 46.2084 82.388 44.9364 82.388ZM49.1123 80.096C49.1123 81.86 50.3603 83.144 52.0643 83.144C53.7683 83.144 55.0163 81.86 55.0163 80.096C55.0163 78.32 53.7683 77.036 52.0643 77.036C50.3603 77.036 49.1123 78.32 49.1123 80.096ZM49.9523 80.084C49.9523 78.74 50.8163 77.78 52.0643 77.78C53.3003 77.78 54.1763 78.74 54.1763 80.084C54.1763 81.452 53.3003 82.4 52.0643 82.4C50.8163 82.4 49.9523 81.452 49.9523 80.084ZM59.0807 85.532C59.3447 85.592 59.6087 85.616 59.9567 85.616C60.7847 85.616 61.3487 85.244 61.6847 84.332L64.3487 77.192H63.4967L61.6607 82.256L59.7887 77.192H58.9127L61.2647 83.348L61.0127 84.032C60.7247 84.812 60.2207 84.848 59.7167 84.848H59.0807V85.532ZM70.3133 83.144C71.2973 83.144 72.0893 82.712 72.4493 81.98L72.5573 83H73.2533V79.244C73.2533 77.708 72.2693 77.036 70.9253 77.036C69.4973 77.036 68.5373 77.792 68.5373 78.968H69.2933C69.2933 78.188 69.8933 77.732 70.9013 77.732C71.7533 77.732 72.4373 78.092 72.4373 79.232V79.424L70.5173 79.58C69.1613 79.688 68.3453 80.36 68.3453 81.428C68.3453 82.448 69.0773 83.144 70.3133 83.144ZM70.5053 82.472C69.7133 82.472 69.1853 82.112 69.1853 81.404C69.1853 80.756 69.6293 80.276 70.7213 80.18L72.4373 80.048V80.36C72.4373 81.62 71.7293 82.472 70.5053 82.472ZM74.5068 80.108C74.5068 81.932 75.6228 83.144 77.2668 83.144C78.5868 83.144 79.6188 82.364 79.8948 81.176H79.0548C78.8268 81.92 78.1308 82.4 77.2668 82.4C76.0908 82.4 75.3228 81.476 75.3228 80.096C75.3228 78.668 76.1508 77.768 77.3268 77.768C78.1308 77.768 78.8268 78.212 79.0428 79.016H79.8708C79.6428 77.816 78.6588 77.036 77.3148 77.036C75.6228 77.036 74.5068 78.284 74.5068 80.108ZM83.5852 83.144C84.9532 83.144 85.8532 82.484 86.1652 81.26H85.3732C85.1572 82.028 84.5452 82.436 83.5972 82.436C82.3492 82.436 81.6052 81.62 81.5452 80.204H86.1652V79.796C86.1652 78.152 85.0972 77.036 83.5252 77.036C81.8692 77.036 80.7412 78.284 80.7412 80.096C80.7412 81.92 81.8812 83.144 83.5852 83.144ZM83.5252 77.744C84.6172 77.744 85.3372 78.488 85.3372 79.604H81.5692C81.7132 78.464 82.4332 77.744 83.5252 77.744ZM87.489 85.532H88.317V81.884C88.725 82.724 89.505 83.144 90.489 83.144C92.205 83.144 93.177 81.824 93.177 80.072C93.177 78.32 92.169 77.036 90.489 77.036C89.517 77.036 88.701 77.468 88.293 78.368L88.209 77.192H87.489V85.532ZM88.329 80.096C88.329 78.752 89.073 77.792 90.345 77.792C91.605 77.792 92.337 78.752 92.337 80.096C92.337 81.428 91.605 82.4 90.345 82.4C89.073 82.4 88.329 81.428 88.329 80.096ZM95.7702 83V77.888H96.9342V77.192H95.7702V75.356H94.9542V77.192H93.7902V77.888H94.9542V83H95.7702ZM97.5458 80.096C97.5458 81.86 98.7938 83.144 100.498 83.144C102.202 83.144 103.45 81.86 103.45 80.096C103.45 78.32 102.202 77.036 100.498 77.036C98.7938 77.036 97.5458 78.32 97.5458 80.096ZM98.3858 80.084C98.3858 78.74 99.2498 77.78 100.498 77.78C101.734 77.78 102.61 78.74 102.61 80.084C102.61 81.452 101.734 82.4 100.498 82.4C99.2498 82.4 98.3858 81.452 98.3858 80.084ZM108.966 83V74.252H108.138V83H108.966ZM112.395 83.144C113.379 83.144 114.171 82.712 114.531 81.98L114.639 83H115.335V79.244C115.335 77.708 114.351 77.036 113.007 77.036C111.579 77.036 110.619 77.792 110.619 78.968H111.375C111.375 78.188 111.975 77.732 112.983 77.732C113.835 77.732 114.519 78.092 114.519 79.232V79.424L112.599 79.58C111.243 79.688 110.427 80.36 110.427 81.428C110.427 82.448 111.159 83.144 112.395 83.144ZM112.587 82.472C111.795 82.472 111.267 82.112 111.267 81.404C111.267 80.756 111.711 80.276 112.803 80.18L114.519 80.048V80.36C114.519 81.62 113.811 82.472 112.587 82.472ZM116.505 81.368C116.505 82.448 117.321 83.144 118.629 83.144C119.949 83.144 120.837 82.46 120.837 81.416C120.837 80.576 120.381 80.108 119.373 79.856L118.377 79.604C117.741 79.448 117.429 79.136 117.429 78.692C117.429 78.068 117.885 77.72 118.701 77.72C119.481 77.72 119.949 78.116 119.973 78.788H120.777C120.741 77.708 119.949 77.036 118.725 77.036C117.477 77.036 116.625 77.684 116.625 78.704C116.625 79.496 117.117 80.024 118.125 80.276L119.121 80.528C119.805 80.696 120.045 80.972 120.045 81.452C120.045 82.076 119.517 82.46 118.617 82.46C117.801 82.46 117.297 82.04 117.297 81.368H116.505ZM125.12 80.108C125.12 81.932 126.236 83.144 127.88 83.144C129.2 83.144 130.232 82.364 130.508 81.176H129.668C129.44 81.92 128.744 82.4 127.88 82.4C126.704 82.4 125.936 81.476 125.936 80.096C125.936 78.668 126.764 77.768 127.94 77.768C128.744 77.768 129.44 78.212 129.656 79.016H130.484C130.256 77.816 129.272 77.036 127.928 77.036C126.236 77.036 125.12 78.284 125.12 80.108ZM131.354 80.096C131.354 81.86 132.602 83.144 134.306 83.144C136.01 83.144 137.258 81.86 137.258 80.096C137.258 78.32 136.01 77.036 134.306 77.036C132.602 77.036 131.354 78.32 131.354 80.096ZM132.194 80.084C132.194 78.74 133.058 77.78 134.306 77.78C135.542 77.78 136.418 78.74 136.418 80.084C136.418 81.452 135.542 82.4 134.306 82.4C133.058 82.4 132.194 81.452 132.194 80.084ZM139.411 83V79.964C139.411 78.656 140.083 77.792 141.271 77.792C142.231 77.792 142.843 78.272 142.843 79.628V83H143.671V79.448C143.671 77.984 143.011 77.036 141.415 77.036C140.575 77.036 139.807 77.456 139.423 78.2L139.303 77.192H138.583V83H139.411ZM147.601 83.144C148.573 83.144 149.389 82.712 149.797 81.812L149.881 83H150.601V74.252H149.773V78.296C149.365 77.456 148.597 77.036 147.637 77.036C145.909 77.036 144.913 78.356 144.913 80.108C144.913 81.848 145.909 83.144 147.601 83.144ZM147.745 82.388C146.485 82.388 145.753 81.428 145.753 80.084C145.753 78.752 146.485 77.78 147.745 77.78C149.017 77.78 149.761 78.752 149.761 80.084C149.761 81.428 149.017 82.388 147.745 82.388ZM152.737 75.596C153.073 75.596 153.361 75.32 153.361 74.984C153.361 74.648 153.073 74.36 152.737 74.36C152.401 74.36 152.125 74.648 152.125 74.984C152.125 75.32 152.401 75.596 152.737 75.596ZM152.329 83H153.157V77.192H152.329V83ZM154.476 80.108C154.476 81.932 155.592 83.144 157.236 83.144C158.556 83.144 159.588 82.364 159.864 81.176H159.024C158.796 81.92 158.1 82.4 157.236 82.4C156.06 82.4 155.292 81.476 155.292 80.096C155.292 78.668 156.12 77.768 157.296 77.768C158.1 77.768 158.796 78.212 159.012 79.016H159.84C159.612 77.816 158.628 77.036 157.284 77.036C155.592 77.036 154.476 78.284 154.476 80.108ZM161.526 75.596C161.862 75.596 162.15 75.32 162.15 74.984C162.15 74.648 161.862 74.36 161.526 74.36C161.19 74.36 160.914 74.648 160.914 74.984C160.914 75.32 161.19 75.596 161.526 75.596ZM161.118 83H161.946V77.192H161.118V83ZM163.265 80.096C163.265 81.86 164.513 83.144 166.217 83.144C167.921 83.144 169.169 81.86 169.169 80.096C169.169 78.32 167.921 77.036 166.217 77.036C164.513 77.036 163.265 78.32 163.265 80.096ZM164.105 80.084C164.105 78.74 164.969 77.78 166.217 77.78C167.453 77.78 168.329 78.74 168.329 80.084C168.329 81.452 167.453 82.4 166.217 82.4C164.969 82.4 164.105 81.452 164.105 80.084ZM171.321 83V79.964C171.321 78.656 171.993 77.792 173.181 77.792C174.141 77.792 174.753 78.272 174.753 79.628V83H175.581V79.448C175.581 77.984 174.921 77.036 173.325 77.036C172.485 77.036 171.717 77.456 171.333 78.2L171.213 77.192H170.493V83H171.321ZM179.667 83.144C181.035 83.144 181.935 82.484 182.247 81.26H181.455C181.239 82.028 180.627 82.436 179.679 82.436C178.431 82.436 177.687 81.62 177.627 80.204H182.247V79.796C182.247 78.152 181.179 77.036 179.607 77.036C177.951 77.036 176.823 78.284 176.823 80.096C176.823 81.92 177.963 83.144 179.667 83.144ZM179.607 77.744C180.699 77.744 181.419 78.488 181.419 79.604H177.651C177.795 78.464 178.515 77.744 179.607 77.744ZM183.079 81.368C183.079 82.448 183.895 83.144 185.203 83.144C186.523 83.144 187.411 82.46 187.411 81.416C187.411 80.576 186.955 80.108 185.947 79.856L184.951 79.604C184.315 79.448 184.003 79.136 184.003 78.692C184.003 78.068 184.459 77.72 185.275 77.72C186.055 77.72 186.523 78.116 186.547 78.788H187.351C187.315 77.708 186.523 77.036 185.299 77.036C184.051 77.036 183.199 77.684 183.199 78.704C183.199 79.496 183.691 80.024 184.699 80.276L185.695 80.528C186.379 80.696 186.619 80.972 186.619 81.452C186.619 82.076 186.091 82.46 185.191 82.46C184.375 82.46 183.871 82.04 183.871 81.368H183.079ZM194.382 83.144C195.354 83.144 196.17 82.712 196.578 81.812L196.662 83H197.382V74.252H196.554V78.296C196.146 77.456 195.378 77.036 194.418 77.036C192.69 77.036 191.694 78.356 191.694 80.108C191.694 81.848 192.69 83.144 194.382 83.144ZM194.526 82.388C193.266 82.388 192.534 81.428 192.534 80.084C192.534 78.752 193.266 77.78 194.526 77.78C195.798 77.78 196.542 78.752 196.542 80.084C196.542 81.428 195.798 82.388 194.526 82.388ZM201.546 83.144C202.914 83.144 203.814 82.484 204.126 81.26H203.334C203.118 82.028 202.506 82.436 201.558 82.436C200.31 82.436 199.566 81.62 199.506 80.204H204.126V79.796C204.126 78.152 203.058 77.036 201.486 77.036C199.83 77.036 198.702 78.284 198.702 80.096C198.702 81.92 199.842 83.144 201.546 83.144ZM201.486 77.744C202.578 77.744 203.298 78.488 203.298 79.604H199.53C199.674 78.464 200.394 77.744 201.486 77.744ZM208.286 81.368C208.286 82.448 209.102 83.144 210.41 83.144C211.73 83.144 212.618 82.46 212.618 81.416C212.618 80.576 212.162 80.108 211.154 79.856L210.158 79.604C209.522 79.448 209.21 79.136 209.21 78.692C209.21 78.068 209.666 77.72 210.482 77.72C211.262 77.72 211.73 78.116 211.754 78.788H212.558C212.522 77.708 211.73 77.036 210.506 77.036C209.258 77.036 208.406 77.684 208.406 78.704C208.406 79.496 208.898 80.024 209.906 80.276L210.902 80.528C211.586 80.696 211.826 80.972 211.826 81.452C211.826 82.076 211.298 82.46 210.398 82.46C209.582 82.46 209.078 82.04 209.078 81.368H208.286ZM218.061 77.192V80.276C218.061 81.656 217.401 82.4 216.285 82.4C215.361 82.4 214.749 81.908 214.749 80.528V77.18H213.909V80.792C213.909 82.208 214.653 83.144 216.021 83.144C216.933 83.144 217.737 82.688 218.061 82.016L218.169 83H218.889V77.192H218.061ZM220.005 81.368C220.005 82.448 220.821 83.144 222.129 83.144C223.449 83.144 224.337 82.46 224.337 81.416C224.337 80.576 223.881 80.108 222.873 79.856L221.877 79.604C221.241 79.448 220.929 79.136 220.929 78.692C220.929 78.068 221.385 77.72 222.201 77.72C222.981 77.72 223.449 78.116 223.473 78.788H224.277C224.241 77.708 223.449 77.036 222.225 77.036C220.977 77.036 220.125 77.684 220.125 78.704C220.125 79.496 220.617 80.024 221.625 80.276L222.621 80.528C223.305 80.696 223.545 80.972 223.545 81.452C223.545 82.076 223.017 82.46 222.117 82.46C221.301 82.46 220.797 82.04 220.797 81.368H220.005ZM225.292 80.108C225.292 81.932 226.408 83.144 228.052 83.144C229.372 83.144 230.404 82.364 230.68 81.176H229.84C229.612 81.92 228.916 82.4 228.052 82.4C226.876 82.4 226.108 81.476 226.108 80.096C226.108 78.668 226.936 77.768 228.112 77.768C228.916 77.768 229.612 78.212 229.828 79.016H230.656C230.428 77.816 229.444 77.036 228.1 77.036C226.408 77.036 225.292 78.284 225.292 80.108ZM234.97 77.12C234.766 77.072 234.61 77.06 234.43 77.06C233.614 77.06 233.002 77.468 232.774 78.092L232.714 77.192H231.934V83H232.762V79.688C232.762 78.584 233.446 77.864 234.514 77.864H234.97V77.12ZM236.479 75.596C236.815 75.596 237.103 75.32 237.103 74.984C237.103 74.648 236.815 74.36 236.479 74.36C236.143 74.36 235.867 74.648 235.867 74.984C235.867 75.32 236.143 75.596 236.479 75.596ZM236.071 83H236.899V77.192H236.071V83ZM238.626 85.532H239.454V81.884C239.862 82.724 240.642 83.144 241.626 83.144C243.342 83.144 244.314 81.824 244.314 80.072C244.314 78.32 243.306 77.036 241.626 77.036C240.654 77.036 239.838 77.468 239.43 78.368L239.346 77.192H238.626V85.532ZM239.466 80.096C239.466 78.752 240.21 77.792 241.482 77.792C242.742 77.792 243.474 78.752 243.474 80.096C243.474 81.428 242.742 82.4 241.482 82.4C240.21 82.4 239.466 81.428 239.466 80.096ZM245.226 80.108C245.226 81.932 246.342 83.144 247.986 83.144C249.306 83.144 250.338 82.364 250.614 81.176H249.774C249.546 81.92 248.85 82.4 247.986 82.4C246.81 82.4 246.042 81.476 246.042 80.096C246.042 78.668 246.87 77.768 248.046 77.768C248.85 77.768 249.546 78.212 249.762 79.016H250.59C250.362 77.816 249.378 77.036 248.034 77.036C246.342 77.036 245.226 78.284 245.226 80.108ZM252.276 75.596C252.612 75.596 252.9 75.32 252.9 74.984C252.9 74.648 252.612 74.36 252.276 74.36C251.94 74.36 251.664 74.648 251.664 74.984C251.664 75.32 251.94 75.596 252.276 75.596ZM251.868 83H252.696V77.192H251.868V83ZM258.251 75.092H257.375L256.655 76.52H257.339L258.251 75.092ZM254.015 80.096C254.015 81.86 255.263 83.144 256.967 83.144C258.671 83.144 259.919 81.86 259.919 80.096C259.919 78.32 258.671 77.036 256.967 77.036C255.263 77.036 254.015 78.32 254.015 80.096ZM254.855 80.084C254.855 78.74 255.719 77.78 256.967 77.78C258.203 77.78 259.079 78.74 259.079 80.084C259.079 81.452 258.203 82.4 256.967 82.4C255.719 82.4 254.855 81.452 254.855 80.084ZM262.071 83V79.964C262.071 78.656 262.743 77.792 263.931 77.792C264.891 77.792 265.503 78.272 265.503 79.628V83H266.331V79.448C266.331 77.984 265.671 77.036 264.075 77.036C263.235 77.036 262.467 77.456 262.083 78.2L261.963 77.192H261.243V83H262.071Z" fill="#4D546A"/>
<path d="M124.664 85.82H267.123V86.78H124.664V85.82Z" fill="#4D546A"/>
<rect x="346" y="69" width="19.5652" height="18" rx="3" fill="#D6D9E1"/>
<g clip-path="url(#clip0_645_3756)">
<path d="M366.391 68.1C366.124 68.1 365.867 68.2072 365.679 68.3976L354.107 80.1245C353.715 80.5213 353.075 80.5213 352.683 80.1245L349.606 77.0068C349.42 76.818 349.166 76.711 348.901 76.7092L347.729 76.7014C346.838 76.6955 346.384 77.7697 347.01 78.4038L349.394 80.8192L352.709 84.1787C353.101 84.5755 353.741 84.5755 354.133 84.1787L357.422 80.8457L368.32 69.8024C368.944 69.1705 368.496 68.1 367.608 68.1L366.391 68.1Z" fill="black"/>
</g>
<defs>
<clipPath id="clip0_645_3756">
<rect width="24" height="21" fill="white" transform="translate(346 66)"/>
</clipPath>
</defs>
</svg>
