<svg width="435" height="78" viewBox="0 0 435 78" fill="none" xmlns="http://www.w3.org/2000/svg">
<rect width="435" height="78" fill="#FCFBF7"/>
<line x1="23" y1="46.5" x2="413" y2="46.5" stroke="#B8BDCB"/>
<path d="M29.822 35.18C33.638 35.18 36.122 32.732 36.122 28.97C36.122 25.208 33.638 22.76 29.822 22.76C26.042 22.76 23.54 25.208 23.54 28.97C23.54 32.732 26.042 35.18 29.822 35.18ZM29.822 33.308C26.96 33.308 25.592 31.976 25.592 28.97C25.592 25.964 26.96 24.614 29.822 24.614C32.684 24.614 34.07 25.964 34.07 28.97C34.07 31.976 32.684 33.308 29.822 33.308ZM39.5022 35V31.364H43.4622C46.1442 31.364 47.9802 29.816 47.9802 27.152C47.9802 24.47 46.1442 22.94 43.4622 22.94H37.5582V35H39.5022ZM43.2822 24.686C45.1002 24.686 46.0362 25.37 46.0362 27.152C46.0362 28.934 45.1002 29.618 43.2822 29.618H39.5022V24.686H43.2822ZM51.0862 35V22.94H49.1422V35H51.0862ZM54.8303 35V27.926L54.7583 25.838H54.9023L56.4143 27.962L61.8503 35H63.9383V22.94H61.9943V30.068L62.0843 32.246H61.9403L60.3743 29.996L54.9743 22.94H52.8863V35H54.8303ZM67.6799 35V22.94H65.7359V35H67.6799ZM76.4461 21.86L79.4161 19.574H76.6981L74.3941 21.86H76.4461ZM75.4021 35.18C79.2181 35.18 81.7021 32.732 81.7021 28.97C81.7021 25.208 79.2181 22.76 75.4021 22.76C71.6221 22.76 69.1201 25.208 69.1201 28.97C69.1201 32.732 71.6221 35.18 75.4021 35.18ZM75.4021 33.308C72.5401 33.308 71.1721 31.976 71.1721 28.97C71.1721 25.964 72.5401 24.614 75.4021 24.614C78.2641 24.614 79.6501 25.964 79.6501 28.97C79.6501 31.976 78.2641 33.308 75.4021 33.308ZM85.0823 35V27.926L85.0103 25.838H85.1543L86.6663 27.962L92.1023 35H94.1903V22.94H92.2463V30.068L92.3363 32.246H92.1923L90.6263 29.996L85.2263 22.94H83.1383V35H85.0823Z" fill="#232630"/>
<rect x="26" y="44" width="73" height="3" fill="#B8BDCB"/>
<rect x="23" y="44" width="73" height="3" fill="#E73A02"/>
</svg>
