<svg width="435" height="78" viewBox="0 0 435 78" fill="none" xmlns="http://www.w3.org/2000/svg">
<rect width="435" height="78" fill="#FCFBF7"/>
<line x1="23" y1="46.5" x2="413" y2="46.5" stroke="#B8BDCB"/>
<path fill-rule="evenodd" clip-rule="evenodd" d="M33.4193 36.3827C38.5834 36.3827 42.3846 32.8427 42.3846 28.9142C42.3846 24.9856 38.5834 21.4455 33.4193 21.4455C28.2551 21.4455 24.4538 24.9856 24.4538 28.9142C24.4538 32.8427 28.2551 36.3827 33.4193 36.3827ZM33.4193 37.8283C39.1736 37.8283 43.8384 33.8373 43.8384 28.9142C43.8384 23.991 39.1736 20 33.4193 20C27.6648 20 23 23.991 23 28.9142C23 33.8373 27.6648 37.8283 33.4193 37.8283Z" fill="#121419"/>
<path d="M37.054 29.0182C37.054 26.3664 35.6739 25.4609 33.3878 25.4609C31.1017 25.4609 29.7848 26.3664 29.7848 29.0182C29.7848 31.6452 31.0795 32.528 33.431 32.528C35.7824 32.528 37.054 31.6419 37.054 29.0182Z" fill="#121419"/>
<path d="M43.1923 23.1478C43.1923 21.4 42.2722 20.8032 40.7482 20.8032C39.2241 20.8032 38.3462 21.4 38.3462 23.1478C38.3462 24.8792 39.2094 25.4611 40.777 25.4611C42.3446 25.4611 43.1923 24.8771 43.1923 23.1478Z" fill="#121419"/>
<path d="M27.8462 33.909C27.8462 32.1612 26.9261 31.5645 25.402 31.5645C23.8779 31.5645 23 32.1612 23 33.909C23 35.6404 23.8632 36.2223 25.4308 36.2223C26.9984 36.2223 27.8462 35.6383 27.8462 33.909Z" fill="#121419"/>
<path d="M58.844 35V30.158H66.224V28.43H58.844V24.686H66.494V22.94H56.9V35H58.844ZM69.9731 24.92L72.9611 22.58H70.2431L67.9391 24.92H69.9731ZM69.9191 35V26H67.9931V35H69.9191ZM76.0011 35.18C78.5211 35.18 80.1771 34.19 80.1771 32.516C80.1771 31.04 79.2051 30.32 77.0811 30.05L75.0111 29.762C73.6611 29.582 73.3011 29.33 73.3011 28.628C73.3011 27.782 73.8771 27.422 75.5151 27.422C77.4951 27.422 78.0351 27.98 78.0351 29.042V29.15H79.9611V29.096C79.9611 26.972 78.3051 25.874 75.5691 25.874C72.8151 25.874 71.3931 26.99 71.3931 28.556C71.3931 30.05 72.4191 30.77 74.1111 30.986L76.5591 31.31C77.8371 31.49 78.2691 31.724 78.2691 32.462C78.2691 33.254 77.7471 33.614 76.0011 33.614C74.1291 33.614 73.4271 33.236 73.4271 32.066V31.922H71.4831V31.976C71.4831 34.046 73.1211 35.18 76.0011 35.18ZM83.5237 25.01V22.94H81.5797V25.01H83.5237ZM83.5237 35V26.054H81.5797V35H83.5237ZM89.8418 35.18C92.5238 35.18 94.4858 33.668 94.4858 31.436V31.238H92.5598V31.364C92.5598 32.75 91.5518 33.434 89.8058 33.434C87.7898 33.434 86.8898 32.462 86.8898 30.536C86.8898 28.574 87.7898 27.62 89.8058 27.62C91.5518 27.62 92.5598 28.304 92.5598 29.69V29.798H94.4858V29.618C94.4858 27.386 92.5238 25.874 89.8418 25.874C86.8898 25.874 84.9638 27.746 84.9638 30.536C84.9638 33.29 86.8898 35.18 89.8418 35.18ZM98.5514 35.18C100.585 35.18 102.007 34.28 102.475 32.768H102.601V35H104.383V29.564C104.383 27.422 103.105 25.874 100.261 25.874C97.4174 25.874 95.7254 27.404 95.7254 29.438V29.51H97.6514V29.438C97.6514 28.124 98.4614 27.584 100.117 27.584C101.827 27.584 102.475 28.106 102.475 29.582V30.104L98.4074 30.536C96.6434 30.734 95.5274 31.454 95.5274 32.84C95.5274 34.316 96.6974 35.18 98.5514 35.18ZM97.4714 32.714C97.4714 32.012 97.9574 31.778 98.9654 31.652L102.475 31.256C102.475 33.02 101.107 33.776 99.0734 33.776C97.9574 33.776 97.4714 33.434 97.4714 32.714Z" fill="#232630"/>
<rect x="26.5343" y="44" width="86" height="3" fill="#B8BDCB"/>
<rect x="23" y="44" width="86" height="3" fill="#E73A02"/>
<path d="M328.038 36L333.348 23.94H331.854L327.21 34.704H327.12L322.458 23.94H320.946L326.256 36H328.038ZM338.597 36.18C341.081 36.18 342.917 34.902 342.917 33.048V32.922H341.639V33.048C341.639 34.344 340.667 35.118 338.579 35.118C336.221 35.118 335.195 33.912 335.123 31.914H342.953C343.007 31.68 343.043 31.41 343.043 31.086C343.043 28.44 341.189 26.928 338.579 26.928C335.717 26.928 333.917 28.854 333.917 31.554C333.917 34.38 335.735 36.18 338.597 36.18ZM338.561 27.99C340.649 27.99 341.837 28.98 341.837 30.852C341.837 30.942 341.837 31.032 341.837 31.122H335.123C335.213 29.178 336.257 27.99 338.561 27.99ZM346.016 36V31.176C346.016 29.178 346.808 28.044 348.608 28.044C350.156 28.044 350.786 28.782 350.786 30.294V30.978H352.064V30.096C352.064 28.44 351.164 26.928 349.112 26.928C347.258 26.928 346.25 28.116 345.98 29.538H345.89V27.108H344.738V36H346.016ZM358.128 36V31.698C358.128 29.34 358.974 28.098 361.134 28.098C363.006 28.098 363.834 29.016 363.834 30.996V36H365.112V31.698C365.112 29.34 365.976 28.098 368.118 28.098C369.99 28.098 370.836 29.016 370.836 30.996V36H372.114V30.816C372.114 28.566 370.908 26.928 368.586 26.928C366.354 26.928 365.292 28.35 365.04 29.88H364.95C364.662 28.152 363.546 26.928 361.566 26.928C359.352 26.928 358.326 28.296 358.074 29.79H358.002V27.108H356.85V36H358.128ZM378.843 25.92L381.525 23.58H379.779L377.529 25.92H378.843ZM376.665 36.18C378.735 36.18 380.301 35.244 380.823 33.606H380.913V36H382.065V30.438C382.065 28.476 380.913 26.928 378.213 26.928C375.477 26.928 373.929 28.458 373.929 30.33V30.402H375.207V30.33C375.207 28.764 376.215 28.08 378.123 28.08C380.067 28.08 380.823 28.764 380.823 30.492V31.176L376.593 31.644C374.937 31.824 373.731 32.454 373.731 33.912C373.731 35.352 374.919 36.18 376.665 36.18ZM375.009 33.822C375.009 32.904 375.657 32.58 376.989 32.454L380.823 32.022V32.094C380.823 34.236 379.113 35.19 376.953 35.19C375.603 35.19 375.009 34.722 375.009 33.822ZM388.072 36.18C390.376 36.18 392.032 35.298 392.032 33.624C392.032 32.184 391.006 31.536 389.098 31.266L386.92 30.96C385.444 30.744 384.976 30.42 384.976 29.502C384.976 28.44 385.75 27.99 387.622 27.99C389.89 27.99 390.592 28.71 390.592 30.042V30.132H391.87V30.096C391.87 28.008 390.214 26.928 387.658 26.928C385.21 26.928 383.716 27.918 383.716 29.484C383.716 30.96 384.742 31.59 386.362 31.806L388.738 32.148C390.214 32.382 390.772 32.688 390.772 33.624C390.772 34.65 390.088 35.118 388.09 35.118C385.912 35.118 385.03 34.596 385.03 33.102V32.994H383.752V33.03C383.752 35.082 385.336 36.18 388.072 36.18Z" fill="#4D546A"/>
<path fill-rule="evenodd" clip-rule="evenodd" d="M410.621 28.9088C411.554 29.3366 411.554 30.6625 410.621 31.0904L400.183 35.877C400.018 35.9529 399.824 35.9327 399.678 35.8243V35.8243C399.373 35.5983 399.422 35.128 399.767 34.9698L408.225 31.0904C409.158 30.6624 409.158 29.3367 408.225 28.9088L399.767 25.0302C399.422 24.872 399.373 24.4017 399.678 24.1757V24.1757C399.824 24.0673 400.018 24.0471 400.183 24.123L410.621 28.9088Z" fill="#4D546A"/>
</svg>
