<svg width="435" height="171" viewBox="0 0 435 171" fill="none" xmlns="http://www.w3.org/2000/svg">
<rect width="435" height="171" fill="#FCFBF7"/>
<rect width="414" height="153" transform="translate(11 9)" fill="#FCFBF7"/>
<line x1="23" y1="49.5" x2="413" y2="49.5" stroke="#B8BDCB"/>
<path d="M26.634 39V23.59H24.15V39H26.634ZM31.4182 39V33.342C31.4182 30.858 32.5452 29.57 35.0522 29.57C37.4212 29.57 38.3872 30.651 38.3872 32.79V39H40.8712V32.123C40.8712 29.478 39.3072 27.339 36.1332 27.339C33.2352 27.339 31.7172 29.179 31.3722 31.111H31.2112V27.569H28.9342V39H31.4182ZM50.5826 39V36.769H48.5126C47.0866 36.769 46.4426 36.401 46.4426 34.998V29.639H50.5826V27.569H46.4426V25.062H43.9816V27.569H42.0496V29.639H43.9816V35.136C43.9816 37.919 45.4996 39 47.9606 39H50.5826ZM57.8863 39.23C61.2903 39.23 63.6823 37.551 63.6823 35.113V34.906H61.1983V35.09C61.1983 36.447 60.2093 37.229 57.8173 37.229C55.1723 37.229 54.0913 36.056 53.9993 33.848H63.7053C63.7743 33.503 63.7973 33.181 63.7973 32.767C63.7973 29.294 61.3823 27.339 57.8403 27.339C54.1143 27.339 51.6763 29.731 51.6763 33.296C51.6763 37.114 54.1373 39.23 57.8863 39.23ZM57.7943 29.294C60.2323 29.294 61.4513 30.306 61.4513 32.422V32.468H54.0223C54.1603 30.421 55.2643 29.294 57.7943 29.294ZM68.1418 39V23.59H65.6578V39H68.1418ZM72.926 26.235V23.59H70.442V26.235H72.926ZM72.926 39V27.569H70.442V39H72.926ZM80.1942 37.965C82.7932 37.965 84.3342 36.723 84.7482 34.998H84.9092V37.804C84.9092 40.357 83.9662 41.07 81.3672 41.07C78.9292 41.07 77.9632 40.449 77.9632 38.793H75.5022C75.5022 41.553 77.8482 43.14 81.2292 43.14C84.9782 43.14 87.3702 41.507 87.3702 37.666V27.569H85.0932V30.421H84.9552C84.5412 28.42 82.7472 27.339 80.3552 27.339C76.8822 27.339 74.7662 29.478 74.7662 32.652C74.7662 35.826 76.7902 37.965 80.1942 37.965ZM77.2732 32.652C77.2732 30.306 78.6762 29.501 81.0682 29.501C83.4832 29.501 84.9092 30.49 84.9092 32.422V32.744C84.9092 34.768 83.5292 35.826 80.9992 35.826C78.6532 35.826 77.2732 34.998 77.2732 32.652ZM95.4186 39.23C98.8226 39.23 101.215 37.551 101.215 35.113V34.906H98.7306V35.09C98.7306 36.447 97.7416 37.229 95.3496 37.229C92.7046 37.229 91.6236 36.056 91.5316 33.848H101.238C101.307 33.503 101.33 33.181 101.33 32.767C101.33 29.294 98.9146 27.339 95.3726 27.339C91.6466 27.339 89.2086 29.731 89.2086 33.296C89.2086 37.114 91.6696 39.23 95.4186 39.23ZM95.3266 29.294C97.7646 29.294 98.9836 30.306 98.9836 32.422V32.468H91.5546C91.6926 30.421 92.7966 29.294 95.3266 29.294ZM105.674 39V33.342C105.674 30.858 106.801 29.57 109.308 29.57C111.677 29.57 112.643 30.651 112.643 32.79V39H115.127V32.123C115.127 29.478 113.563 27.339 110.389 27.339C107.491 27.339 105.973 29.179 105.628 31.111H105.467V27.569H103.19V39H105.674ZM123.113 39.23C126.54 39.23 129.047 37.298 129.047 34.446V34.193H126.586V34.354C126.586 36.125 125.298 36.999 123.067 36.999C120.491 36.999 119.341 35.757 119.341 33.296C119.341 30.789 120.491 29.57 123.067 29.57C125.298 29.57 126.586 30.444 126.586 32.215V32.353H129.047V32.123C129.047 29.271 126.54 27.339 123.113 27.339C119.341 27.339 116.88 29.731 116.88 33.296C116.88 36.815 119.341 39.23 123.113 39.23ZM133.368 26.235V23.59H130.884V26.235H133.368ZM133.368 39V27.569H130.884V39H133.368ZM139.027 39.23C141.626 39.23 143.443 38.08 144.041 36.148H144.202V39H146.479V32.054C146.479 29.317 144.846 27.339 141.212 27.339C137.578 27.339 135.416 29.294 135.416 31.893V31.985H137.877V31.893C137.877 30.214 138.912 29.524 141.028 29.524C143.213 29.524 144.041 30.191 144.041 32.077V32.744L138.843 33.296C136.589 33.549 135.163 34.469 135.163 36.24C135.163 38.126 136.658 39.23 139.027 39.23ZM137.647 36.079C137.647 35.182 138.268 34.883 139.556 34.722L144.041 34.216C144.041 36.47 142.293 37.436 139.694 37.436C138.268 37.436 137.647 36.999 137.647 36.079ZM154.237 39L156.008 34.998H164.15L165.921 39H168.727L161.85 23.59H158.354L151.477 39H154.237ZM159.09 28.075L159.987 25.89H160.171L161.068 28.075L163.161 32.767H156.997L159.09 28.075ZM172.361 39V32.583C172.361 30.536 173.166 29.455 175.121 29.455C176.823 29.455 177.513 30.214 177.513 31.847V32.859H179.974V31.364C179.974 29.202 178.847 27.339 176.248 27.339C173.902 27.339 172.66 28.811 172.315 30.651H172.154V27.569H169.877V39H172.361ZM189.032 39V36.769H186.962C185.536 36.769 184.892 36.401 184.892 34.998V29.639H189.032V27.569H184.892V25.062H182.431V27.569H180.499V29.639H182.431V35.136C182.431 37.919 183.949 39 186.41 39H189.032ZM193.07 26.235V23.59H190.586V26.235H193.07ZM193.07 39V27.569H190.586V39H193.07ZM198.728 39V29.639H202.822V27.569H198.682C198.544 25.913 199.487 25.43 201.304 25.43H202.822V23.59H201.695C198.452 23.59 196.543 25.062 196.267 27.569H194.519V29.639H196.244V39H198.728ZM206.686 26.235V23.59H204.202V26.235H206.686ZM206.686 39V27.569H204.202V39H206.686ZM214.754 39.23C218.181 39.23 220.688 37.298 220.688 34.446V34.193H218.227V34.354C218.227 36.125 216.939 36.999 214.708 36.999C212.132 36.999 210.982 35.757 210.982 33.296C210.982 30.789 212.132 29.57 214.708 29.57C216.939 29.57 218.227 30.444 218.227 32.215V32.353H220.688V32.123C220.688 29.271 218.181 27.339 214.754 27.339C210.982 27.339 208.521 29.731 208.521 33.296C208.521 36.815 210.982 39.23 214.754 39.23ZM225.009 26.235V23.59H222.525V26.235H225.009ZM225.009 39V27.569H222.525V39H225.009ZM230.667 39.23C233.266 39.23 235.083 38.08 235.681 36.148H235.842V39H238.119V32.054C238.119 29.317 236.486 27.339 232.852 27.339C229.218 27.339 227.056 29.294 227.056 31.893V31.985H229.517V31.893C229.517 30.214 230.552 29.524 232.668 29.524C234.853 29.524 235.681 30.191 235.681 32.077V32.744L230.483 33.296C228.229 33.549 226.803 34.469 226.803 36.24C226.803 38.126 228.298 39.23 230.667 39.23ZM229.287 36.079C229.287 35.182 229.908 34.883 231.196 34.722L235.681 34.216C235.681 36.47 233.933 37.436 231.334 37.436C229.908 37.436 229.287 36.999 229.287 36.079ZM242.821 39V23.59H240.337V39H242.821Z" fill="#232630"/>
<rect x="33" y="47" width="222" height="3" fill="#B8BDCB"/>
<rect x="23" y="47" width="226" height="3" fill="#232630"/>
<path d="M27.575 88C30.8 88 32.945 85.84 32.945 82.63C32.945 79.42 30.785 77.26 27.545 77.26H24.305V88H27.575ZM27.5 78.25C30.155 78.25 31.835 79.945 31.835 82.63C31.835 85.3 30.155 87.01 27.53 87.01H25.385V78.25H27.5ZM37.7158 88.18C39.4258 88.18 40.5508 87.355 40.9408 85.825H39.9508C39.6808 86.785 38.9158 87.295 37.7308 87.295C36.1708 87.295 35.2408 86.275 35.1658 84.505H40.9408V83.995C40.9408 81.94 39.6058 80.545 37.6408 80.545C35.5708 80.545 34.1608 82.105 34.1608 84.37C34.1608 86.65 35.5858 88.18 37.7158 88.18ZM37.6408 81.43C39.0058 81.43 39.9058 82.36 39.9058 83.755H35.1958C35.3758 82.33 36.2758 81.43 37.6408 81.43ZM41.9806 85.96C41.9806 87.31 43.0006 88.18 44.6356 88.18C46.2856 88.18 47.3956 87.325 47.3956 86.02C47.3956 84.97 46.8256 84.385 45.5656 84.07L44.3206 83.755C43.5256 83.56 43.1356 83.17 43.1356 82.615C43.1356 81.835 43.7056 81.4 44.7256 81.4C45.7006 81.4 46.2856 81.895 46.3156 82.735H47.3206C47.2756 81.385 46.2856 80.545 44.7556 80.545C43.1956 80.545 42.1306 81.355 42.1306 82.63C42.1306 83.62 42.7456 84.28 44.0056 84.595L45.2506 84.91C46.1056 85.12 46.4056 85.465 46.4056 86.065C46.4056 86.845 45.7456 87.325 44.6206 87.325C43.6006 87.325 42.9706 86.8 42.9706 85.96H41.9806ZM48.5895 84.385C48.5895 86.665 49.9845 88.18 52.0395 88.18C53.6895 88.18 54.9795 87.205 55.3245 85.72H54.2745C53.9895 86.65 53.1195 87.25 52.0395 87.25C50.5695 87.25 49.6095 86.095 49.6095 84.37C49.6095 82.585 50.6445 81.46 52.1145 81.46C53.1195 81.46 53.9895 82.015 54.2595 83.02H55.2945C55.0095 81.52 53.7795 80.545 52.0995 80.545C49.9845 80.545 48.5895 82.105 48.5895 84.385ZM61.9925 80.74V84.595C61.9925 86.32 61.1675 87.25 59.7725 87.25C58.6175 87.25 57.8525 86.635 57.8525 84.91V80.725H56.8025V85.24C56.8025 87.01 57.7325 88.18 59.4425 88.18C60.5825 88.18 61.5875 87.61 61.9925 86.77L62.1275 88H63.0275V80.74H61.9925ZM66.0835 88L66.1885 86.515C66.6985 87.64 67.7035 88.18 68.9185 88.18C71.0335 88.18 72.2935 86.56 72.2935 84.385C72.2935 82.195 71.0635 80.545 68.9485 80.545C67.7185 80.545 66.7285 81.085 66.2185 82.15V77.065H65.1835V88H66.0835ZM66.2335 84.355C66.2335 82.69 67.1635 81.475 68.7535 81.475C70.3285 81.475 71.2435 82.69 71.2435 84.355C71.2435 86.035 70.3285 87.235 68.7535 87.235C67.1635 87.235 66.2335 86.035 66.2335 84.355ZM77.7383 80.65C77.4833 80.59 77.2883 80.575 77.0633 80.575C76.0433 80.575 75.2783 81.085 74.9933 81.865L74.9183 80.74H73.9433V88H74.9783V83.86C74.9783 82.48 75.8333 81.58 77.1683 81.58H77.7383V80.65ZM81.8809 88.18C83.5909 88.18 84.7159 87.355 85.1059 85.825H84.1159C83.8459 86.785 83.0809 87.295 81.8959 87.295C80.3359 87.295 79.4059 86.275 79.3309 84.505H85.1059V83.995C85.1059 81.94 83.7709 80.545 81.8059 80.545C79.7359 80.545 78.3259 82.105 78.3259 84.37C78.3259 86.65 79.7509 88.18 81.8809 88.18ZM81.8059 81.43C83.1709 81.43 84.0709 82.36 84.0709 83.755H79.3609C79.5409 82.33 80.4409 81.43 81.8059 81.43ZM93.9658 88.18C95.6758 88.18 96.8008 87.355 97.1908 85.825H96.2008C95.9308 86.785 95.1658 87.295 93.9808 87.295C92.4208 87.295 91.4908 86.275 91.4158 84.505H97.1908V83.995C97.1908 81.94 95.8558 80.545 93.8908 80.545C91.8208 80.545 90.4108 82.105 90.4108 84.37C90.4108 86.65 91.8358 88.18 93.9658 88.18ZM93.8908 81.43C95.2558 81.43 96.1558 82.36 96.1558 83.755H91.4458C91.6258 82.33 92.5258 81.43 93.8908 81.43ZM99.9256 88V77.065H98.8906V88H99.9256ZM107.322 88V83.5C107.322 82.39 108.057 81.49 109.272 81.49C110.367 81.49 111.072 82.21 111.072 83.44V88H112.092V83.515C112.092 82.39 112.812 81.475 114.027 81.475C115.137 81.475 115.827 82.21 115.827 83.455V88H116.832V83.245C116.832 81.565 115.797 80.545 114.222 80.545C113.052 80.545 112.167 81.145 111.837 82.09C111.492 81.145 110.637 80.545 109.497 80.545C108.477 80.545 107.667 81.01 107.307 81.775L107.187 80.74H106.287V88H107.322ZM124.014 80.74V84.595C124.014 86.32 123.189 87.25 121.794 87.25C120.639 87.25 119.874 86.635 119.874 84.91V80.725H118.824V85.24C118.824 87.01 119.754 88.18 121.464 88.18C122.604 88.18 123.609 87.61 124.014 86.77L124.149 88H125.049V80.74H124.014ZM128.24 88V84.205C128.24 82.57 129.08 81.49 130.565 81.49C131.765 81.49 132.53 82.09 132.53 83.785V88H133.565V83.56C133.565 81.73 132.74 80.545 130.745 80.545C129.695 80.545 128.735 81.07 128.255 82L128.105 80.74H127.205V88H128.24ZM138.478 88.18C139.693 88.18 140.713 87.64 141.223 86.515L141.328 88H142.228V77.065H141.193V82.12C140.683 81.07 139.723 80.545 138.523 80.545C136.363 80.545 135.118 82.195 135.118 84.385C135.118 86.56 136.363 88.18 138.478 88.18ZM138.658 87.235C137.083 87.235 136.168 86.035 136.168 84.355C136.168 82.69 137.083 81.475 138.658 81.475C140.248 81.475 141.178 82.69 141.178 84.355C141.178 86.035 140.248 87.235 138.658 87.235ZM143.878 84.37C143.878 86.575 145.438 88.18 147.568 88.18C149.698 88.18 151.258 86.575 151.258 84.37C151.258 82.15 149.698 80.545 147.568 80.545C145.438 80.545 143.878 82.15 143.878 84.37ZM144.928 84.355C144.928 82.675 146.008 81.475 147.568 81.475C149.113 81.475 150.208 82.675 150.208 84.355C150.208 86.065 149.113 87.25 147.568 87.25C146.008 87.25 144.928 86.065 144.928 84.355ZM159.923 88.18C161.138 88.18 162.158 87.64 162.668 86.515L162.773 88H163.673V77.065H162.638V82.12C162.128 81.07 161.168 80.545 159.968 80.545C157.808 80.545 156.563 82.195 156.563 84.385C156.563 86.56 157.808 88.18 159.923 88.18ZM160.103 87.235C158.528 87.235 157.613 86.035 157.613 84.355C157.613 82.69 158.528 81.475 160.103 81.475C161.693 81.475 162.623 82.69 162.623 84.355C162.623 86.035 161.693 87.235 160.103 87.235ZM168.878 88.18C170.588 88.18 171.713 87.355 172.103 85.825H171.113C170.843 86.785 170.078 87.295 168.893 87.295C167.333 87.295 166.403 86.275 166.328 84.505H172.103V83.995C172.103 81.94 170.768 80.545 168.803 80.545C166.733 80.545 165.323 82.105 165.323 84.37C165.323 86.65 166.748 88.18 168.878 88.18ZM168.803 81.43C170.168 81.43 171.068 82.36 171.068 83.755H166.358C166.538 82.33 167.438 81.43 168.803 81.43ZM178.998 88V77.065H177.963V88H178.998ZM183.284 88.18C184.514 88.18 185.504 87.64 185.954 86.725L186.089 88H186.959V83.305C186.959 81.385 185.729 80.545 184.049 80.545C182.264 80.545 181.064 81.49 181.064 82.96H182.009C182.009 81.985 182.759 81.415 184.019 81.415C185.084 81.415 185.939 81.865 185.939 83.29V83.53L183.539 83.725C181.844 83.86 180.824 84.7 180.824 86.035C180.824 87.31 181.739 88.18 183.284 88.18ZM183.524 87.34C182.534 87.34 181.874 86.89 181.874 86.005C181.874 85.195 182.429 84.595 183.794 84.475L185.939 84.31V84.7C185.939 86.275 185.054 87.34 183.524 87.34ZM193.706 78.745C194.126 78.745 194.486 78.4 194.486 77.98C194.486 77.56 194.126 77.2 193.706 77.2C193.286 77.2 192.941 77.56 192.941 77.98C192.941 78.4 193.286 78.745 193.706 78.745ZM193.196 88H194.231V80.74H193.196V88ZM197.425 88V84.205C197.425 82.57 198.265 81.49 199.75 81.49C200.95 81.49 201.715 82.09 201.715 83.785V88H202.75V83.56C202.75 81.73 201.925 80.545 199.93 80.545C198.88 80.545 197.92 81.07 197.44 82L197.29 80.74H196.39V88H197.425ZM206.477 88V81.61H207.932V80.74H206.477V78.445H205.457V80.74H204.002V81.61H205.457V88H206.477ZM212.252 88.18C213.962 88.18 215.087 87.355 215.477 85.825H214.487C214.217 86.785 213.452 87.295 212.267 87.295C210.707 87.295 209.777 86.275 209.702 84.505H215.477V83.995C215.477 81.94 214.142 80.545 212.177 80.545C210.107 80.545 208.697 82.105 208.697 84.37C208.697 86.65 210.122 88.18 212.252 88.18ZM212.177 81.43C213.542 81.43 214.442 82.36 214.442 83.755H209.732C209.912 82.33 210.812 81.43 212.177 81.43ZM218.212 88V77.065H217.177V88H218.212ZM220.923 78.745C221.343 78.745 221.703 78.4 221.703 77.98C221.703 77.56 221.343 77.2 220.923 77.2C220.503 77.2 220.158 77.56 220.158 77.98C220.158 78.4 220.503 78.745 220.923 78.745ZM220.413 88H221.448V80.74H220.413V88ZM223.111 84.16C223.111 86.14 224.371 87.775 226.441 87.775C227.686 87.775 228.691 87.175 229.186 86.155V87.88C229.186 89.395 228.196 90.4 226.711 90.4C225.406 90.4 224.506 89.71 224.281 88.54H223.246C223.531 90.295 224.836 91.345 226.696 91.345C228.826 91.345 230.206 89.935 230.206 87.775V80.74H229.306L229.201 82.195C228.736 81.13 227.776 80.545 226.516 80.545C224.386 80.545 223.111 82.18 223.111 84.16ZM224.146 84.145C224.146 82.675 225.046 81.46 226.606 81.46C228.196 81.46 229.096 82.6 229.096 84.145C229.096 85.705 228.166 86.845 226.591 86.845C225.061 86.845 224.146 85.63 224.146 84.145ZM235.411 88.18C237.121 88.18 238.246 87.355 238.636 85.825H237.646C237.376 86.785 236.611 87.295 235.426 87.295C233.866 87.295 232.936 86.275 232.861 84.505H238.636V83.995C238.636 81.94 237.301 80.545 235.336 80.545C233.266 80.545 231.856 82.105 231.856 84.37C231.856 86.65 233.281 88.18 235.411 88.18ZM235.336 81.43C236.701 81.43 237.601 82.36 237.601 83.755H232.891C233.071 82.33 233.971 81.43 235.336 81.43ZM241.326 88V84.205C241.326 82.57 242.166 81.49 243.651 81.49C244.851 81.49 245.616 82.09 245.616 83.785V88H246.651V83.56C246.651 81.73 245.826 80.545 243.831 80.545C242.781 80.545 241.821 81.07 241.341 82L241.191 80.74H240.291V88H241.326ZM248.204 84.385C248.204 86.665 249.599 88.18 251.654 88.18C253.304 88.18 254.594 87.205 254.939 85.72H253.889C253.604 86.65 252.734 87.25 251.654 87.25C250.184 87.25 249.224 86.095 249.224 84.37C249.224 82.585 250.259 81.46 251.729 81.46C252.734 81.46 253.604 82.015 253.874 83.02H254.909C254.624 81.52 253.394 80.545 251.714 80.545C249.599 80.545 248.204 82.105 248.204 84.385ZM257.017 78.745C257.437 78.745 257.797 78.4 257.797 77.98C257.797 77.56 257.437 77.2 257.017 77.2C256.597 77.2 256.252 77.56 256.252 77.98C256.252 78.4 256.597 78.745 257.017 78.745ZM256.507 88H257.542V80.74H256.507V88ZM261.785 88.18C263.015 88.18 264.005 87.64 264.455 86.725L264.59 88H265.46V83.305C265.46 81.385 264.23 80.545 262.55 80.545C260.765 80.545 259.565 81.49 259.565 82.96H260.51C260.51 81.985 261.26 81.415 262.52 81.415C263.585 81.415 264.44 81.865 264.44 83.29V83.53L262.04 83.725C260.345 83.86 259.325 84.7 259.325 86.035C259.325 87.31 260.24 88.18 261.785 88.18ZM262.025 87.34C261.035 87.34 260.375 86.89 260.375 86.005C260.375 85.195 260.93 84.595 262.295 84.475L264.44 84.31V84.7C264.44 86.275 263.555 87.34 262.025 87.34ZM273.782 88.18C275.012 88.18 276.002 87.64 276.452 86.725L276.587 88H277.457V83.305C277.457 81.385 276.227 80.545 274.547 80.545C272.762 80.545 271.562 81.49 271.562 82.96H272.507C272.507 81.985 273.257 81.415 274.517 81.415C275.582 81.415 276.437 81.865 276.437 83.29V83.53L274.037 83.725C272.342 83.86 271.322 84.7 271.322 86.035C271.322 87.31 272.237 88.18 273.782 88.18ZM274.022 87.34C273.032 87.34 272.372 86.89 272.372 86.005C272.372 85.195 272.927 84.595 274.292 84.475L276.437 84.31V84.7C276.437 86.275 275.552 87.34 274.022 87.34ZM283.329 80.65C283.074 80.59 282.879 80.575 282.654 80.575C281.634 80.575 280.869 81.085 280.584 81.865L280.509 80.74H279.534V88H280.569V83.86C280.569 82.48 281.424 81.58 282.759 81.58H283.329V80.65ZM286.663 88V81.61H288.118V80.74H286.663V78.445H285.643V80.74H284.188V81.61H285.643V88H286.663ZM289.976 78.745C290.396 78.745 290.756 78.4 290.756 77.98C290.756 77.56 290.396 77.2 289.976 77.2C289.556 77.2 289.211 77.56 289.211 77.98C289.211 78.4 289.556 78.745 289.976 78.745ZM289.466 88H290.501V80.74H289.466V88ZM297.444 88H298.479V80.74H293.994V79.33C293.994 78.475 294.234 78.025 295.104 78.025H295.734V77.125C295.494 77.08 295.179 77.065 294.924 77.065C293.844 77.065 292.959 77.695 292.959 79.33V80.74H291.849V81.61H292.959V88H293.994V81.61H297.444V88ZM297.954 78.67C298.359 78.67 298.674 78.37 298.674 77.95C298.674 77.53 298.359 77.215 297.954 77.215C297.534 77.215 297.234 77.53 297.234 77.95C297.234 78.37 297.534 78.67 297.954 78.67ZM300.089 84.385C300.089 86.665 301.484 88.18 303.539 88.18C305.189 88.18 306.479 87.205 306.824 85.72H305.774C305.489 86.65 304.619 87.25 303.539 87.25C302.069 87.25 301.109 86.095 301.109 84.37C301.109 82.585 302.144 81.46 303.614 81.46C304.619 81.46 305.489 82.015 305.759 83.02H306.794C306.509 81.52 305.279 80.545 303.599 80.545C301.484 80.545 300.089 82.105 300.089 84.385ZM308.902 78.745C309.322 78.745 309.682 78.4 309.682 77.98C309.682 77.56 309.322 77.2 308.902 77.2C308.482 77.2 308.137 77.56 308.137 77.98C308.137 78.4 308.482 78.745 308.902 78.745ZM308.392 88H309.427V80.74H308.392V88ZM313.67 88.18C314.9 88.18 315.89 87.64 316.34 86.725L316.475 88H317.345V83.305C317.345 81.385 316.115 80.545 314.435 80.545C312.65 80.545 311.45 81.49 311.45 82.96H312.395C312.395 81.985 313.145 81.415 314.405 81.415C315.47 81.415 316.325 81.865 316.325 83.29V83.53L313.925 83.725C312.23 83.86 311.21 84.7 311.21 86.035C311.21 87.31 312.125 88.18 313.67 88.18ZM313.91 87.34C312.92 87.34 312.26 86.89 312.26 86.005C312.26 85.195 312.815 84.595 314.18 84.475L316.325 84.31V84.7C316.325 86.275 315.44 87.34 313.91 87.34ZM320.502 88V77.065H319.467V88H320.502ZM323.588 88.165C324.098 88.165 324.533 87.745 324.533 87.25C324.533 86.74 324.098 86.305 323.588 86.305C323.078 86.305 322.643 86.74 322.643 87.25C322.643 87.745 323.078 88.165 323.588 88.165ZM336.519 74.665H335.424L334.524 76.45H335.364L336.519 74.665ZM330.939 84.265C330.939 86.71 332.439 88.18 334.929 88.18C337.374 88.18 338.874 86.695 338.874 84.265V77.26H337.794V84.22C337.794 86.08 336.759 87.13 334.929 87.13C333.054 87.13 332.019 86.11 332.019 84.22V77.26H330.939V84.265ZM342.269 88V77.065H341.234V88H342.269ZM346.136 88V81.61H347.591V80.74H346.136V78.445H345.116V80.74H343.661V81.61H345.116V88H346.136ZM349.448 78.745C349.868 78.745 350.228 78.4 350.228 77.98C350.228 77.56 349.868 77.2 349.448 77.2C349.028 77.2 348.683 77.56 348.683 77.98C348.683 78.4 349.028 78.745 349.448 78.745ZM348.938 88H349.973V80.74H348.938V88ZM353.167 88V83.5C353.167 82.39 353.902 81.49 355.117 81.49C356.212 81.49 356.917 82.21 356.917 83.44V88H357.937V83.515C357.937 82.39 358.657 81.475 359.872 81.475C360.982 81.475 361.672 82.21 361.672 83.455V88H362.677V83.245C362.677 81.565 361.642 80.545 360.067 80.545C358.897 80.545 358.012 81.145 357.682 82.09C357.337 81.145 356.482 80.545 355.342 80.545C354.322 80.545 353.512 81.01 353.152 81.775L353.032 80.74H352.132V88H353.167ZM364.249 84.37C364.249 86.575 365.809 88.18 367.939 88.18C370.069 88.18 371.629 86.575 371.629 84.37C371.629 82.15 370.069 80.545 367.939 80.545C365.809 80.545 364.249 82.15 364.249 84.37ZM365.299 84.355C365.299 82.675 366.379 81.475 367.939 81.475C369.484 81.475 370.579 82.675 370.579 84.355C370.579 86.065 369.484 87.25 367.939 87.25C366.379 87.25 365.299 86.065 365.299 84.355ZM372.669 85.96C372.669 87.31 373.689 88.18 375.324 88.18C376.974 88.18 378.084 87.325 378.084 86.02C378.084 84.97 377.514 84.385 376.254 84.07L375.009 83.755C374.214 83.56 373.824 83.17 373.824 82.615C373.824 81.835 374.394 81.4 375.414 81.4C376.389 81.4 376.974 81.895 377.004 82.735H378.009C377.964 81.385 376.974 80.545 375.444 80.545C373.884 80.545 372.819 81.355 372.819 82.63C372.819 83.62 373.434 84.28 374.694 84.595L375.939 84.91C376.794 85.12 377.094 85.465 377.094 86.065C377.094 86.845 376.434 87.325 375.309 87.325C374.289 87.325 373.659 86.8 373.659 85.96H372.669ZM26.165 108.18C27.395 108.18 28.385 107.64 28.835 106.725L28.97 108H29.84V103.305C29.84 101.385 28.61 100.545 26.93 100.545C25.145 100.545 23.945 101.49 23.945 102.96H24.89C24.89 101.985 25.64 101.415 26.9 101.415C27.965 101.415 28.82 101.865 28.82 103.29V103.53L26.42 103.725C24.725 103.86 23.705 104.7 23.705 106.035C23.705 107.31 24.62 108.18 26.165 108.18ZM26.405 107.34C25.415 107.34 24.755 106.89 24.755 106.005C24.755 105.195 25.31 104.595 26.675 104.475L28.82 104.31V104.7C28.82 106.275 27.935 107.34 26.405 107.34ZM33.6489 108H34.6839L37.6989 100.74H36.6339L34.7289 105.42C34.5189 105.945 34.3239 106.425 34.1889 106.92C34.0539 106.44 33.8589 105.945 33.6639 105.42L31.7889 100.74H30.6789L33.6489 108ZM40.6816 108.18C41.9116 108.18 42.9016 107.64 43.3516 106.725L43.4866 108H44.3566V103.305C44.3566 101.385 43.1266 100.545 41.4466 100.545C39.6616 100.545 38.4616 101.49 38.4616 102.96H39.4066C39.4066 101.985 40.1566 101.415 41.4166 101.415C42.4816 101.415 43.3366 101.865 43.3366 103.29V103.53L40.9366 103.725C39.2416 103.86 38.2216 104.7 38.2216 106.035C38.2216 107.31 39.1366 108.18 40.6816 108.18ZM40.9216 107.34C39.9316 107.34 39.2716 106.89 39.2716 106.005C39.2716 105.195 39.8266 104.595 41.1916 104.475L43.3366 104.31V104.7C43.3366 106.275 42.4516 107.34 40.9216 107.34ZM47.4685 108V104.205C47.4685 102.57 48.3085 101.49 49.7935 101.49C50.9935 101.49 51.7585 102.09 51.7585 103.785V108H52.7935V103.56C52.7935 101.73 51.9685 100.545 49.9735 100.545C48.9235 100.545 47.9635 101.07 47.4835 102L47.3335 100.74H46.4335V108H47.4685ZM54.3464 104.385C54.3464 106.665 55.7414 108.18 57.7964 108.18C59.4464 108.18 60.7364 107.205 61.0814 105.72H60.0314C59.7464 106.65 58.8764 107.25 57.7964 107.25C56.3264 107.25 55.3664 106.095 55.3664 104.37C55.3664 102.585 56.4014 101.46 57.8714 101.46C58.8764 101.46 59.7464 102.015 60.0164 103.02H61.0514C60.7664 101.52 59.5364 100.545 57.8564 100.545C55.7414 100.545 54.3464 102.105 54.3464 104.385ZM65.6943 108.18C67.4043 108.18 68.5293 107.355 68.9193 105.825H67.9293C67.6593 106.785 66.8943 107.295 65.7093 107.295C64.1493 107.295 63.2193 106.275 63.1443 104.505H68.9193V103.995C68.9193 101.94 67.5843 100.545 65.6193 100.545C63.5493 100.545 62.1393 102.105 62.1393 104.37C62.1393 106.65 63.5643 108.18 65.6943 108.18ZM65.6193 101.43C66.9843 101.43 67.8843 102.36 67.8843 103.755H63.1743C63.3543 102.33 64.2543 101.43 65.6193 101.43ZM69.9591 105.96C69.9591 107.31 70.9791 108.18 72.6141 108.18C74.2641 108.18 75.3741 107.325 75.3741 106.02C75.3741 104.97 74.8041 104.385 73.5441 104.07L72.2991 103.755C71.5041 103.56 71.1141 103.17 71.1141 102.615C71.1141 101.835 71.6841 101.4 72.7041 101.4C73.6791 101.4 74.2641 101.895 74.2941 102.735H75.2991C75.2541 101.385 74.2641 100.545 72.7341 100.545C71.1741 100.545 70.1091 101.355 70.1091 102.63C70.1091 103.62 70.7241 104.28 71.9841 104.595L73.2291 104.91C74.0841 105.12 74.3841 105.465 74.3841 106.065C74.3841 106.845 73.7241 107.325 72.5991 107.325C71.5791 107.325 70.9491 106.8 70.9491 105.96H69.9591ZM78.7909 107.49C78.7909 106.74 78.3259 106.305 77.7859 106.305C77.2609 106.305 76.9009 106.68 76.9009 107.205C76.9009 107.715 77.2609 108.015 77.6809 108.015C77.8609 108.015 77.9809 107.97 78.0709 107.91C78.0709 108.33 77.6809 108.72 77.1409 108.81V109.365C78.0709 109.23 78.7909 108.42 78.7909 107.49ZM88.0918 108.18C89.8018 108.18 90.9268 107.355 91.3168 105.825H90.3268C90.0568 106.785 89.2918 107.295 88.1068 107.295C86.5468 107.295 85.6168 106.275 85.5418 104.505H91.3168V103.995C91.3168 101.94 89.9818 100.545 88.0168 100.545C85.9468 100.545 84.5368 102.105 84.5368 104.37C84.5368 106.65 85.9618 108.18 88.0918 108.18ZM88.0168 101.43C89.3818 101.43 90.2818 102.36 90.2818 103.755H85.5718C85.7518 102.33 86.6518 101.43 88.0168 101.43ZM93.0076 108L95.0326 105.09L97.0726 108H98.3026L95.7376 104.385L98.3176 100.74H97.1176L95.0776 103.65L93.0226 100.74H91.8076L94.3876 104.37L91.7926 108H93.0076ZM99.5488 111.165H100.584V106.605C101.094 107.655 102.069 108.18 103.299 108.18C105.444 108.18 106.659 106.53 106.659 104.34C106.659 102.15 105.399 100.545 103.299 100.545C102.084 100.545 101.064 101.085 100.554 102.21L100.449 100.74H99.5488V111.165ZM100.599 104.37C100.599 102.69 101.529 101.49 103.119 101.49C104.694 101.49 105.609 102.69 105.609 104.37C105.609 106.035 104.694 107.25 103.119 107.25C101.529 107.25 100.599 106.035 100.599 104.37ZM109.389 108V97.065H108.354V108H109.389ZM112.1 98.745C112.52 98.745 112.88 98.4 112.88 97.98C112.88 97.56 112.52 97.2 112.1 97.2C111.68 97.2 111.335 97.56 111.335 97.98C111.335 98.4 111.68 98.745 112.1 98.745ZM111.59 108H112.625V100.74H111.59V108ZM114.273 104.385C114.273 106.665 115.668 108.18 117.723 108.18C119.373 108.18 120.663 107.205 121.008 105.72H119.958C119.673 106.65 118.803 107.25 117.723 107.25C116.253 107.25 115.293 106.095 115.293 104.37C115.293 102.585 116.328 101.46 117.798 101.46C118.803 101.46 119.673 102.015 119.943 103.02H120.978C120.693 101.52 119.463 100.545 117.783 100.545C115.668 100.545 114.273 102.105 114.273 104.385ZM124.661 108.18C125.891 108.18 126.881 107.64 127.331 106.725L127.466 108H128.336V103.305C128.336 101.385 127.106 100.545 125.426 100.545C123.641 100.545 122.441 101.49 122.441 102.96H123.386C123.386 101.985 124.136 101.415 125.396 101.415C126.461 101.415 127.316 101.865 127.316 103.29V103.53L124.916 103.725C123.221 103.86 122.201 104.7 122.201 106.035C122.201 107.31 123.116 108.18 124.661 108.18ZM124.901 107.34C123.911 107.34 123.251 106.89 123.251 106.005C123.251 105.195 123.806 104.595 125.171 104.475L127.316 104.31V104.7C127.316 106.275 126.431 107.34 124.901 107.34ZM129.903 104.385C129.903 106.665 131.298 108.18 133.353 108.18C135.003 108.18 136.293 107.205 136.638 105.72H135.588C135.303 106.65 134.433 107.25 133.353 107.25C131.883 107.25 130.923 106.095 130.923 104.37C130.923 102.585 131.958 101.46 133.428 101.46C134.433 101.46 135.303 102.015 135.573 103.02H136.608C136.323 101.52 135.093 100.545 133.413 100.545C131.298 100.545 129.903 102.105 129.903 104.385ZM138.716 98.745C139.136 98.745 139.496 98.4 139.496 97.98C139.496 97.56 139.136 97.2 138.716 97.2C138.296 97.2 137.951 97.56 137.951 97.98C137.951 98.4 138.296 98.745 138.716 98.745ZM138.206 108H139.241V100.74H138.206V108ZM140.889 104.37C140.889 106.575 142.449 108.18 144.579 108.18C146.709 108.18 148.269 106.575 148.269 104.37C148.269 102.15 146.709 100.545 144.579 100.545C142.449 100.545 140.889 102.15 140.889 104.37ZM141.939 104.355C141.939 102.675 143.019 101.475 144.579 101.475C146.124 101.475 147.219 102.675 147.219 104.355C147.219 106.065 146.124 107.25 144.579 107.25C143.019 107.25 141.939 106.065 141.939 104.355ZM150.96 108V104.205C150.96 102.57 151.8 101.49 153.285 101.49C154.485 101.49 155.25 102.09 155.25 103.785V108H156.285V103.56C156.285 101.73 155.46 100.545 153.465 100.545C152.415 100.545 151.455 101.07 150.975 102L150.825 100.74H149.925V108H150.96ZM161.393 108.18C163.103 108.18 164.228 107.355 164.618 105.825H163.628C163.358 106.785 162.593 107.295 161.408 107.295C159.848 107.295 158.918 106.275 158.843 104.505H164.618V103.995C164.618 101.94 163.283 100.545 161.318 100.545C159.248 100.545 157.838 102.105 157.838 104.37C157.838 106.65 159.263 108.18 161.393 108.18ZM161.318 101.43C162.683 101.43 163.583 102.36 163.583 103.755H158.873C159.053 102.33 159.953 101.43 161.318 101.43ZM165.657 105.96C165.657 107.31 166.677 108.18 168.312 108.18C169.962 108.18 171.072 107.325 171.072 106.02C171.072 104.97 170.502 104.385 169.242 104.07L167.997 103.755C167.202 103.56 166.812 103.17 166.812 102.615C166.812 101.835 167.382 101.4 168.402 101.4C169.377 101.4 169.962 101.895 169.992 102.735H170.997C170.952 101.385 169.962 100.545 168.432 100.545C166.872 100.545 165.807 101.355 165.807 102.63C165.807 103.62 166.422 104.28 167.682 104.595L168.927 104.91C169.782 105.12 170.082 105.465 170.082 106.065C170.082 106.845 169.422 107.325 168.297 107.325C167.277 107.325 166.647 106.8 166.647 105.96H165.657ZM174.489 107.49C174.489 106.74 174.024 106.305 173.484 106.305C172.959 106.305 172.599 106.68 172.599 107.205C172.599 107.715 172.959 108.015 173.379 108.015C173.559 108.015 173.679 107.97 173.769 107.91C173.769 108.33 173.379 108.72 172.839 108.81V109.365C173.769 109.23 174.489 108.42 174.489 107.49ZM182.83 108.18C184.06 108.18 185.05 107.64 185.5 106.725L185.635 108H186.505V103.305C186.505 101.385 185.275 100.545 183.595 100.545C181.81 100.545 180.61 101.49 180.61 102.96H181.555C181.555 101.985 182.305 101.415 183.565 101.415C184.63 101.415 185.485 101.865 185.485 103.29V103.53L183.085 103.725C181.39 103.86 180.37 104.7 180.37 106.035C180.37 107.31 181.285 108.18 182.83 108.18ZM183.07 107.34C182.08 107.34 181.42 106.89 181.42 106.005C181.42 105.195 181.975 104.595 183.34 104.475L185.485 104.31V104.7C185.485 106.275 184.6 107.34 183.07 107.34ZM192.377 100.65C192.122 100.59 191.927 100.575 191.702 100.575C190.682 100.575 189.917 101.085 189.632 101.865L189.557 100.74H188.582V108H189.617V103.86C189.617 102.48 190.472 101.58 191.807 101.58H192.377V100.65ZM195.711 108V101.61H197.166V100.74H195.711V98.445H194.691V100.74H193.236V101.61H194.691V108H195.711ZM200.644 98.115H199.549L198.649 99.9H199.489L200.644 98.115ZM198.514 108H199.549V100.74H198.514V108ZM201.197 104.385C201.197 106.665 202.592 108.18 204.647 108.18C206.297 108.18 207.587 107.205 207.932 105.72H206.882C206.597 106.65 205.727 107.25 204.647 107.25C203.177 107.25 202.217 106.095 202.217 104.37C202.217 102.585 203.252 101.46 204.722 101.46C205.727 101.46 206.597 102.015 206.867 103.02H207.902C207.617 101.52 206.387 100.545 204.707 100.545C202.592 100.545 201.197 102.105 201.197 104.385ZM214.6 100.74V104.595C214.6 106.32 213.775 107.25 212.38 107.25C211.225 107.25 210.46 106.635 210.46 104.91V100.725H209.41V105.24C209.41 107.01 210.34 108.18 212.05 108.18C213.19 108.18 214.195 107.61 214.6 106.77L214.735 108H215.635V100.74H214.6ZM218.871 108V97.065H217.836V108H218.871ZM220.562 104.37C220.562 106.575 222.122 108.18 224.252 108.18C226.382 108.18 227.942 106.575 227.942 104.37C227.942 102.15 226.382 100.545 224.252 100.545C222.122 100.545 220.562 102.15 220.562 104.37ZM221.612 104.355C221.612 102.675 222.692 101.475 224.252 101.475C225.797 101.475 226.892 102.675 226.892 104.355C226.892 106.065 225.797 107.25 224.252 107.25C222.692 107.25 221.612 106.065 221.612 104.355ZM228.983 105.96C228.983 107.31 230.003 108.18 231.638 108.18C233.288 108.18 234.398 107.325 234.398 106.02C234.398 104.97 233.828 104.385 232.568 104.07L231.323 103.755C230.528 103.56 230.138 103.17 230.138 102.615C230.138 101.835 230.708 101.4 231.728 101.4C232.703 101.4 233.288 101.895 233.318 102.735H234.323C234.278 101.385 233.288 100.545 231.758 100.545C230.198 100.545 229.133 101.355 229.133 102.63C229.133 103.62 229.748 104.28 231.008 104.595L232.253 104.91C233.108 105.12 233.408 105.465 233.408 106.065C233.408 106.845 232.748 107.325 231.623 107.325C230.603 107.325 229.973 106.8 229.973 105.96H228.983ZM243.112 108.18C244.327 108.18 245.347 107.64 245.857 106.515L245.962 108H246.862V97.065H245.827V102.12C245.317 101.07 244.357 100.545 243.157 100.545C240.997 100.545 239.752 102.195 239.752 104.385C239.752 106.56 240.997 108.18 243.112 108.18ZM243.292 107.235C241.717 107.235 240.802 106.035 240.802 104.355C240.802 102.69 241.717 101.475 243.292 101.475C244.882 101.475 245.812 102.69 245.812 104.355C245.812 106.035 244.882 107.235 243.292 107.235ZM252.066 108.18C253.776 108.18 254.901 107.355 255.291 105.825H254.301C254.031 106.785 253.266 107.295 252.081 107.295C250.521 107.295 249.591 106.275 249.516 104.505H255.291V103.995C255.291 101.94 253.956 100.545 251.991 100.545C249.921 100.545 248.511 102.105 248.511 104.37C248.511 106.65 249.936 108.18 252.066 108.18ZM251.991 101.43C253.356 101.43 254.256 102.36 254.256 103.755H249.546C249.726 102.33 250.626 101.43 251.991 101.43ZM260.596 104.37C260.596 106.575 262.156 108.18 264.286 108.18C266.416 108.18 267.976 106.575 267.976 104.37C267.976 102.15 266.416 100.545 264.286 100.545C262.156 100.545 260.596 102.15 260.596 104.37ZM261.646 104.355C261.646 102.675 262.726 101.475 264.286 101.475C265.831 101.475 266.926 102.675 266.926 104.355C266.926 106.065 265.831 107.25 264.286 107.25C262.726 107.25 261.646 106.065 261.646 104.355ZM269.632 111.165H270.667V106.605C271.177 107.655 272.152 108.18 273.382 108.18C275.527 108.18 276.742 106.53 276.742 104.34C276.742 102.15 275.482 100.545 273.382 100.545C272.167 100.545 271.147 101.085 270.637 102.21L270.532 100.74H269.632V111.165ZM270.682 104.37C270.682 102.69 271.612 101.49 273.202 101.49C274.777 101.49 275.692 102.69 275.692 104.37C275.692 106.035 274.777 107.25 273.202 107.25C271.612 107.25 270.682 106.035 270.682 104.37ZM278.902 98.745C279.322 98.745 279.682 98.4 279.682 97.98C279.682 97.56 279.322 97.2 278.902 97.2C278.482 97.2 278.137 97.56 278.137 97.98C278.137 98.4 278.482 98.745 278.902 98.745ZM278.392 108H279.427V100.74H278.392V108ZM282.62 108V104.205C282.62 102.57 283.46 101.49 284.945 101.49C286.145 101.49 286.91 102.09 286.91 103.785V108H287.945V103.56C287.945 101.73 287.12 100.545 285.125 100.545C284.075 100.545 283.115 101.07 282.635 102L282.485 100.74H281.585V108H282.62ZM290.518 98.745C290.938 98.745 291.298 98.4 291.298 97.98C291.298 97.56 290.938 97.2 290.518 97.2C290.098 97.2 289.753 97.56 289.753 97.98C289.753 98.4 290.098 98.745 290.518 98.745ZM290.008 108H291.043V100.74H290.008V108ZM297.986 98.115H296.891L295.991 99.9H296.846L297.986 98.115ZM292.691 104.37C292.691 106.575 294.251 108.18 296.381 108.18C298.511 108.18 300.071 106.575 300.071 104.37C300.071 102.15 298.511 100.545 296.381 100.545C294.251 100.545 292.691 102.15 292.691 104.37ZM293.741 104.355C293.741 102.675 294.821 101.475 296.381 101.475C297.926 101.475 299.021 102.675 299.021 104.355C299.021 106.065 297.926 107.25 296.381 107.25C294.821 107.25 293.741 106.065 293.741 104.355ZM302.761 108V104.205C302.761 102.57 303.601 101.49 305.086 101.49C306.286 101.49 307.051 102.09 307.051 103.785V108H308.086V103.56C308.086 101.73 307.261 100.545 305.266 100.545C304.216 100.545 303.256 101.07 302.776 102L302.626 100.74H301.726V108H302.761ZM311.034 108.165C311.544 108.165 311.979 107.745 311.979 107.25C311.979 106.74 311.544 106.305 311.034 106.305C310.524 106.305 310.089 106.74 310.089 107.25C310.089 107.745 310.524 108.165 311.034 108.165ZM314.96 108.165C315.47 108.165 315.905 107.745 315.905 107.25C315.905 106.74 315.47 106.305 314.96 106.305C314.45 106.305 314.015 106.74 314.015 107.25C314.015 107.745 314.45 108.165 314.96 108.165ZM318.886 108.165C319.396 108.165 319.831 107.745 319.831 107.25C319.831 106.74 319.396 106.305 318.886 106.305C318.376 106.305 317.941 106.74 317.941 107.25C317.941 107.745 318.376 108.165 318.886 108.165ZM327.047 97.05C326.522 97.05 326.102 97.47 326.102 97.98C326.102 98.49 326.522 98.925 327.047 98.925C327.542 98.925 327.977 98.49 327.977 97.98C327.977 97.47 327.542 97.05 327.047 97.05ZM326.657 100.47C326.537 101.55 326.477 103.515 326.477 105.465V108H327.602V105.465C327.602 103.5 327.527 101.535 327.407 100.47H326.657ZM329.424 111.165C329.754 111.24 330.084 111.27 330.519 111.27C331.554 111.27 332.259 110.805 332.679 109.665L336.009 100.74H334.944L332.649 107.07L330.309 100.74H329.214L332.154 108.435L331.839 109.29C331.479 110.265 330.849 110.31 330.219 110.31H329.424V111.165ZM342.415 108V103.5C342.415 102.39 343.15 101.49 344.365 101.49C345.46 101.49 346.165 102.21 346.165 103.44V108H347.185V103.515C347.185 102.39 347.905 101.475 349.12 101.475C350.23 101.475 350.92 102.21 350.92 103.455V108H351.925V103.245C351.925 101.565 350.89 100.545 349.315 100.545C348.145 100.545 347.26 101.145 346.93 102.09C346.585 101.145 345.73 100.545 344.59 100.545C343.57 100.545 342.76 101.01 342.4 101.775L342.28 100.74H341.38V108H342.415ZM359.107 100.74V104.595C359.107 106.32 358.282 107.25 356.887 107.25C355.732 107.25 354.967 106.635 354.967 104.91V100.725H353.917V105.24C353.917 107.01 354.847 108.18 356.557 108.18C357.697 108.18 358.702 107.61 359.107 106.77L359.242 108H360.142V100.74H359.107ZM361.641 104.385C361.641 106.665 363.036 108.18 365.091 108.18C366.741 108.18 368.031 107.205 368.376 105.72H367.326C367.041 106.65 366.171 107.25 365.091 107.25C363.621 107.25 362.661 106.095 362.661 104.37C362.661 102.585 363.696 101.46 365.166 101.46C366.171 101.46 367.041 102.015 367.311 103.02H368.346C368.061 101.52 366.831 100.545 365.151 100.545C363.036 100.545 361.641 102.105 361.641 104.385ZM370.979 107.985V104.04C370.979 102.645 371.789 101.49 373.349 101.49C374.474 101.49 375.269 102.09 375.269 103.785V108H376.304V103.56C376.304 101.73 375.449 100.545 373.544 100.545C372.329 100.545 371.444 101.13 370.979 102V97.065H369.944V107.985H370.979ZM377.857 104.37C377.857 106.575 379.417 108.18 381.547 108.18C383.677 108.18 385.237 106.575 385.237 104.37C385.237 102.15 383.677 100.545 381.547 100.545C379.417 100.545 377.857 102.15 377.857 104.37ZM378.907 104.355C378.907 102.675 379.987 101.475 381.547 101.475C383.092 101.475 384.187 102.675 384.187 104.355C384.187 106.065 383.092 107.25 381.547 107.25C379.987 107.25 378.907 106.065 378.907 104.355ZM25.115 128V123.5C25.115 122.39 25.85 121.49 27.065 121.49C28.16 121.49 28.865 122.21 28.865 123.44V128H29.885V123.515C29.885 122.39 30.605 121.475 31.82 121.475C32.93 121.475 33.62 122.21 33.62 123.455V128H34.625V123.245C34.625 121.565 33.59 120.545 32.015 120.545C30.845 120.545 29.96 121.145 29.63 122.09C29.285 121.145 28.43 120.545 27.29 120.545C26.27 120.545 25.46 121.01 25.1 121.775L24.98 120.74H24.08V128H25.115ZM41.207 118.115H40.127L39.227 119.9H40.067L41.207 118.115ZM38.792 128.18C40.022 128.18 41.012 127.64 41.462 126.725L41.597 128H42.467V123.305C42.467 121.385 41.237 120.545 39.557 120.545C37.772 120.545 36.572 121.49 36.572 122.96H37.517C37.517 121.985 38.267 121.415 39.527 121.415C40.592 121.415 41.447 121.865 41.447 123.29V123.53L39.047 123.725C37.352 123.86 36.332 124.7 36.332 126.035C36.332 127.31 37.247 128.18 38.792 128.18ZM39.032 127.34C38.042 127.34 37.382 126.89 37.382 126.005C37.382 125.195 37.937 124.595 39.302 124.475L41.447 124.31V124.7C41.447 126.275 40.562 127.34 39.032 127.34ZM43.9289 125.96C43.9289 127.31 44.9489 128.18 46.5839 128.18C48.2339 128.18 49.3439 127.325 49.3439 126.02C49.3439 124.97 48.7739 124.385 47.5139 124.07L46.2689 123.755C45.4739 123.56 45.0839 123.17 45.0839 122.615C45.0839 121.835 45.6539 121.4 46.6739 121.4C47.6489 121.4 48.2339 121.895 48.2639 122.735H49.2689C49.2239 121.385 48.2339 120.545 46.7039 120.545C45.1439 120.545 44.0789 121.355 44.0789 122.63C44.0789 123.62 44.6939 124.28 45.9539 124.595L47.1989 124.91C48.0539 125.12 48.3539 125.465 48.3539 126.065C48.3539 126.845 47.6939 127.325 46.5689 127.325C45.5489 127.325 44.9189 126.8 44.9189 125.96H43.9289ZM52.3678 124.775C52.4878 123.71 52.5628 121.745 52.5628 119.795V117.26H51.4378V119.795C51.4378 121.73 51.4978 123.71 51.6178 124.775H52.3678ZM52.0078 128.21C52.5028 128.21 52.9378 127.775 52.9378 127.265C52.9378 126.755 52.5028 126.335 52.0078 126.335C51.4828 126.335 51.0628 126.755 51.0628 127.265C51.0628 127.775 51.4828 128.21 52.0078 128.21Z" fill="#636D87"/>
</svg>
