<svg width="424" height="69" viewBox="0 0 424 69" fill="none" xmlns="http://www.w3.org/2000/svg">
<rect width="424" height="69" fill="#232630"/>
<line x1="17" y1="42.5" x2="407" y2="42.5" stroke="#636D87"/>
<path d="M23.768 31.18C27.188 31.18 29.546 29.38 29.546 26.482V26.248H27.404V26.482C27.404 28.336 26.234 29.308 23.786 29.308C20.96 29.308 19.592 27.976 19.592 24.97C19.592 21.964 20.96 20.614 23.786 20.614C26.234 20.614 27.404 21.604 27.404 23.44V23.692H29.546V23.44C29.546 20.56 27.17 18.76 23.768 18.76C20.024 18.76 17.54 21.208 17.54 24.97C17.54 28.732 20.024 31.18 23.768 31.18ZM32.2381 31L33.6241 27.868H39.9961L41.3821 31H43.5781L38.1961 18.94H35.4601L30.0781 31H32.2381ZM36.0361 22.45L36.7381 20.74H36.8821L37.5841 22.45L39.2221 26.122H34.3981L36.0361 22.45ZM50.4721 31V20.686H55.2061V18.94H43.7941V20.686H48.5461V31H50.4721ZM65.9914 31V29.254H58.2874V25.798H65.7214V24.07H58.2874V20.686H65.9914V18.94H56.3434V31H65.9914ZM73.0495 31.18C75.4075 31.18 76.9375 30.154 77.4415 28.39H77.5675V31H79.3315V24.844H72.9415V26.32H77.4055V26.482C77.4055 28.516 76.2715 29.308 73.3915 29.308C70.5655 29.308 69.1975 27.976 69.1975 24.97C69.1975 21.964 70.5835 20.614 73.4815 20.614C75.9835 20.614 77.1895 21.55 77.1895 23.278V23.422H79.3315V23.278C79.3315 20.488 76.9555 18.76 73.5355 18.76C69.6835 18.76 67.1455 21.208 67.1455 24.97C67.1455 28.732 69.5035 31.18 73.0495 31.18ZM86.8923 31.18C90.7083 31.18 93.1923 28.732 93.1923 24.97C93.1923 21.208 90.7083 18.76 86.8923 18.76C83.1123 18.76 80.6103 21.208 80.6103 24.97C80.6103 28.732 83.1123 31.18 86.8923 31.18ZM86.8923 29.308C84.0303 29.308 82.6623 27.976 82.6623 24.97C82.6623 21.964 84.0303 20.614 86.8923 20.614C89.7543 20.614 91.1403 21.964 91.1403 24.97C91.1403 27.976 89.7543 29.308 86.8923 29.308ZM96.5725 31V26.32H98.7865C100.299 26.32 100.857 26.716 101.397 27.67L103.323 31H105.555L103.539 27.508C103.107 26.752 102.675 26.212 101.739 25.96V25.834C104.007 25.708 105.321 24.484 105.321 22.486C105.321 20.236 103.629 18.94 100.893 18.94H94.6285V31H96.5725ZM96.5725 20.686H100.875C102.495 20.686 103.305 21.28 103.305 22.756C103.305 24.268 102.495 24.826 100.875 24.826H96.5725V20.686ZM108.738 17.86L111.708 15.574H108.972L106.686 17.86H108.738ZM108.666 31V18.94H106.722V31H108.666ZM111.726 31L113.112 27.868H119.484L120.87 31H123.066L117.684 18.94H114.948L109.566 31H111.726ZM115.524 22.45L116.226 20.74H116.37L117.072 22.45L118.71 26.122H113.886L115.524 22.45ZM129.024 31.18C132.588 31.18 134.082 29.488 134.082 27.652C134.082 25.888 132.894 24.79 130.482 24.358L127.548 23.854C126.126 23.548 125.514 23.206 125.514 22.162C125.514 21.082 126.378 20.542 128.574 20.542C131.076 20.542 131.958 21.28 131.958 22.756V22.99H133.884V22.882C133.884 20.524 132.282 18.76 128.754 18.76C125.01 18.76 123.57 20.524 123.57 22.27C123.57 24.25 125.01 25.186 127.044 25.546L129.996 26.032C131.526 26.32 132.138 26.716 132.138 27.76C132.138 28.894 131.328 29.398 129.024 29.398C126.378 29.398 125.532 28.678 125.532 27.238V26.95H123.588V27.058C123.588 29.596 125.424 31.18 129.024 31.18Z" fill="#FCFBF7"/>
<rect x="21.8494" y="40" width="118" height="3" fill="#D6D9E1"/>
<rect x="17" y="40" width="118" height="3" fill="#5CFF89"/>
</svg>
