<svg width="435" height="78" viewBox="0 0 435 78" fill="none" xmlns="http://www.w3.org/2000/svg">
<rect width="435" height="78" fill="#FCFBF7"/>
<line x1="23" y1="46.5" x2="413" y2="46.5" stroke="#B8BDCB"/>
<path d="M28.958 35.18C32.522 35.18 34.016 33.488 34.016 31.652C34.016 29.888 32.828 28.79 30.416 28.358L27.482 27.854C26.06 27.548 25.448 27.206 25.448 26.162C25.448 25.082 26.312 24.542 28.508 24.542C31.01 24.542 31.892 25.28 31.892 26.756V26.99H33.818V26.882C33.818 24.524 32.216 22.76 28.688 22.76C24.944 22.76 23.504 24.524 23.504 26.27C23.504 28.25 24.944 29.186 26.978 29.546L29.93 30.032C31.46 30.32 32.072 30.716 32.072 31.76C32.072 32.894 31.262 33.398 28.958 33.398C26.312 33.398 25.466 32.678 25.466 31.238V30.95H23.522V31.058C23.522 33.596 25.358 35.18 28.958 35.18ZM41.2641 35V33.254H39.6441C38.5281 33.254 38.0241 32.966 38.0241 31.868V27.674H41.2641V26.054H38.0241V24.092H36.0981V26.054H34.5861V27.674H36.0981V31.976C36.0981 34.154 37.2861 35 39.2121 35H41.2641ZM46.9801 35.18C49.6441 35.18 51.5161 33.866 51.5161 31.958V31.796H49.5721V31.94C49.5721 33.002 48.7981 33.614 46.9261 33.614C44.8561 33.614 44.0101 32.696 43.9381 30.968H51.5341C51.5881 30.698 51.6061 30.446 51.6061 30.122C51.6061 27.404 49.7161 25.874 46.9441 25.874C44.0281 25.874 42.1201 27.746 42.1201 30.536C42.1201 33.524 44.0461 35.18 46.9801 35.18ZM46.9081 27.404C48.8161 27.404 49.7701 28.196 49.7701 29.852V29.888H43.9561C44.0641 28.286 44.9281 27.404 46.9081 27.404ZM55.0061 38.06V32.48H55.0781C55.4381 34.118 56.7341 35.18 58.7501 35.18C61.5401 35.18 63.0701 33.308 63.0701 30.536C63.0701 27.764 61.5041 25.874 58.7321 25.874C56.6261 25.874 55.3661 26.882 55.0061 28.538H54.8441V26.054H53.0621V38.06H55.0061ZM55.0061 30.68V30.518C55.0061 28.592 56.1221 27.656 58.1201 27.656C59.9921 27.656 61.1261 28.376 61.1261 30.536C61.1261 32.678 60.0101 33.416 58.0841 33.416C56.1761 33.416 55.0061 32.516 55.0061 30.68ZM66.3616 35V30.662C66.3616 28.772 67.1176 27.62 69.2416 27.62C71.0956 27.62 71.9056 28.34 71.9056 30.14V35H73.8316V29.672C73.8316 27.494 72.6256 25.874 70.1596 25.874C67.8736 25.874 66.7756 27.278 66.4696 28.79H66.3616V22.94H64.4176V35H66.3616ZM80.0797 35.18C82.7437 35.18 84.6157 33.866 84.6157 31.958V31.796H82.6717V31.94C82.6717 33.002 81.8977 33.614 80.0257 33.614C77.9557 33.614 77.1097 32.696 77.0377 30.968H84.6337C84.6877 30.698 84.7057 30.446 84.7057 30.122C84.7057 27.404 82.8157 25.874 80.0437 25.874C77.1277 25.874 75.2197 27.746 75.2197 30.536C75.2197 33.524 77.1457 35.18 80.0797 35.18ZM80.0077 27.404C81.9157 27.404 82.8697 28.196 82.8697 29.852V29.888H77.0557C77.1637 28.286 78.0277 27.404 80.0077 27.404ZM88.1057 35V30.572C88.1057 28.628 88.9877 27.62 90.9497 27.62C92.8037 27.62 93.5597 28.466 93.5597 30.14V35H95.5037V29.618C95.5037 27.548 94.2797 25.874 91.7957 25.874C89.5277 25.874 88.3397 27.314 88.0697 28.826H87.9437V26.054H86.1617V35H88.1057ZM102.256 35V29.798H109.348V35H111.274V22.94H109.348V28.052H102.256V22.94H100.312V35H102.256ZM115.719 35.18C117.753 35.18 119.175 34.28 119.643 32.768H119.769V35H121.551V29.564C121.551 27.422 120.273 25.874 117.429 25.874C114.585 25.874 112.893 27.404 112.893 29.438V29.51H114.819V29.438C114.819 28.124 115.629 27.584 117.285 27.584C118.995 27.584 119.643 28.106 119.643 29.582V30.104L115.575 30.536C113.811 30.734 112.695 31.454 112.695 32.84C112.695 34.316 113.865 35.18 115.719 35.18ZM114.639 32.714C114.639 32.012 115.125 31.778 116.133 31.652L119.643 31.256C119.643 33.02 118.275 33.776 116.241 33.776C115.125 33.776 114.639 33.434 114.639 32.714ZM127.571 35L129.551 29.852L130.235 27.656H130.379L131.063 29.852L133.025 35H135.437L138.155 26.054H136.175L134.681 31.13L134.267 33.434H134.123L133.457 30.95L131.567 26.054H129.083L127.211 30.95L126.545 33.434H126.401L125.987 31.13L124.493 26.054H122.477L125.159 35H127.571ZM141.086 35V31.346H143.642L146.288 35H148.574L145.226 30.356L148.592 26.054H146.324L143.642 29.6H141.086V22.94H139.142V35H141.086ZM151.492 25.01V22.94H149.548V25.01H151.492ZM151.492 35V26.054H149.548V35H151.492ZM155.237 35V30.572C155.237 28.628 156.119 27.62 158.081 27.62C159.935 27.62 160.691 28.466 160.691 30.14V35H162.635V29.618C162.635 27.548 161.411 25.874 158.927 25.874C156.659 25.874 155.471 27.314 155.201 28.826H155.075V26.054H153.293V35H155.237ZM168.255 34.19C170.289 34.19 171.495 33.218 171.819 31.868H171.945V34.064C171.945 36.062 171.207 36.62 169.173 36.62C167.265 36.62 166.509 36.134 166.509 34.838H164.583C164.583 36.998 166.419 38.24 169.065 38.24C171.999 38.24 173.871 36.962 173.871 33.956V26.054H172.089V28.286H171.981C171.657 26.72 170.253 25.874 168.381 25.874C165.663 25.874 164.007 27.548 164.007 30.032C164.007 32.516 165.591 34.19 168.255 34.19ZM165.969 30.032C165.969 28.196 167.067 27.566 168.939 27.566C170.829 27.566 171.945 28.34 171.945 29.852V30.104C171.945 31.688 170.865 32.516 168.885 32.516C167.049 32.516 165.969 31.868 165.969 30.032ZM179.9 35.18C182.42 35.18 184.076 34.19 184.076 32.516C184.076 31.04 183.104 30.32 180.98 30.05L178.91 29.762C177.56 29.582 177.2 29.33 177.2 28.628C177.2 27.782 177.776 27.422 179.414 27.422C181.394 27.422 181.934 27.98 181.934 29.042V29.15H183.86V29.096C183.86 26.972 182.204 25.874 179.468 25.874C176.714 25.874 175.292 26.99 175.292 28.556C175.292 30.05 176.318 30.77 178.01 30.986L180.458 31.31C181.736 31.49 182.168 31.724 182.168 32.462C182.168 33.254 181.646 33.614 179.9 33.614C178.028 33.614 177.326 33.236 177.326 32.066V31.922H175.382V31.976C175.382 34.046 177.02 35.18 179.9 35.18Z" fill="#232630"/>
<rect x="29.6576" y="44" width="162" height="3" fill="#B8BDCB"/>
<rect x="23" y="44" width="162" height="3" fill="#232630"/>
<path d="M328.038 36L333.348 23.94H331.854L327.21 34.704H327.12L322.458 23.94H320.946L326.256 36H328.038ZM338.597 36.18C341.081 36.18 342.917 34.902 342.917 33.048V32.922H341.639V33.048C341.639 34.344 340.667 35.118 338.579 35.118C336.221 35.118 335.195 33.912 335.123 31.914H342.953C343.007 31.68 343.043 31.41 343.043 31.086C343.043 28.44 341.189 26.928 338.579 26.928C335.717 26.928 333.917 28.854 333.917 31.554C333.917 34.38 335.735 36.18 338.597 36.18ZM338.561 27.99C340.649 27.99 341.837 28.98 341.837 30.852C341.837 30.942 341.837 31.032 341.837 31.122H335.123C335.213 29.178 336.257 27.99 338.561 27.99ZM346.016 36V31.176C346.016 29.178 346.808 28.044 348.608 28.044C350.156 28.044 350.786 28.782 350.786 30.294V30.978H352.064V30.096C352.064 28.44 351.164 26.928 349.112 26.928C347.258 26.928 346.25 28.116 345.98 29.538H345.89V27.108H344.738V36H346.016ZM358.128 36V31.698C358.128 29.34 358.974 28.098 361.134 28.098C363.006 28.098 363.834 29.016 363.834 30.996V36H365.112V31.698C365.112 29.34 365.976 28.098 368.118 28.098C369.99 28.098 370.836 29.016 370.836 30.996V36H372.114V30.816C372.114 28.566 370.908 26.928 368.586 26.928C366.354 26.928 365.292 28.35 365.04 29.88H364.95C364.662 28.152 363.546 26.928 361.566 26.928C359.352 26.928 358.326 28.296 358.074 29.79H358.002V27.108H356.85V36H358.128ZM378.843 25.92L381.525 23.58H379.779L377.529 25.92H378.843ZM376.665 36.18C378.735 36.18 380.301 35.244 380.823 33.606H380.913V36H382.065V30.438C382.065 28.476 380.913 26.928 378.213 26.928C375.477 26.928 373.929 28.458 373.929 30.33V30.402H375.207V30.33C375.207 28.764 376.215 28.08 378.123 28.08C380.067 28.08 380.823 28.764 380.823 30.492V31.176L376.593 31.644C374.937 31.824 373.731 32.454 373.731 33.912C373.731 35.352 374.919 36.18 376.665 36.18ZM375.009 33.822C375.009 32.904 375.657 32.58 376.989 32.454L380.823 32.022V32.094C380.823 34.236 379.113 35.19 376.953 35.19C375.603 35.19 375.009 34.722 375.009 33.822ZM388.072 36.18C390.376 36.18 392.032 35.298 392.032 33.624C392.032 32.184 391.006 31.536 389.098 31.266L386.92 30.96C385.444 30.744 384.976 30.42 384.976 29.502C384.976 28.44 385.75 27.99 387.622 27.99C389.89 27.99 390.592 28.71 390.592 30.042V30.132H391.87V30.096C391.87 28.008 390.214 26.928 387.658 26.928C385.21 26.928 383.716 27.918 383.716 29.484C383.716 30.96 384.742 31.59 386.362 31.806L388.738 32.148C390.214 32.382 390.772 32.688 390.772 33.624C390.772 34.65 390.088 35.118 388.09 35.118C385.912 35.118 385.03 34.596 385.03 33.102V32.994H383.752V33.03C383.752 35.082 385.336 36.18 388.072 36.18Z" fill="#4D546A"/>
<path fill-rule="evenodd" clip-rule="evenodd" d="M410.621 28.9088C411.554 29.3366 411.554 30.6625 410.621 31.0904L400.183 35.877C400.018 35.9529 399.824 35.9327 399.678 35.8243V35.8243C399.373 35.5983 399.422 35.128 399.767 34.9698L408.225 31.0904C409.158 30.6624 409.158 29.3367 408.225 28.9088L399.767 25.0302C399.422 24.872 399.373 24.4017 399.678 24.1757V24.1757C399.824 24.0673 400.018 24.0471 400.183 24.123L410.621 28.9088Z" fill="#4D546A"/>
</svg>
