<svg width="444" height="84" viewBox="0 0 444 84" fill="none" xmlns="http://www.w3.org/2000/svg">
<g clip-path="url(#clip0_1048_860)" filter="url(#filter0_d_1048_860)">
<rect width="414" height="54" transform="translate(19 15)" fill="#FCFBF7"/>
<g clip-path="url(#clip1_1048_860)">
<path d="M55.7608 52.807C55.4751 53.1853 54.9322 53.2505 54.5651 52.9505L44.8951 45.0487C43.9158 44.2485 43.9158 42.7515 44.8951 41.9513L54.5651 34.0495C54.9322 33.7495 55.4751 33.8146 55.7608 34.193C56.0315 34.5514 55.9705 35.0596 55.6227 35.3438L47.5366 41.9513C46.5573 42.7515 46.5573 44.2485 47.5366 45.0487L55.6227 51.6562C55.9705 51.9404 56.0315 52.4486 55.7608 52.807Z" fill="#4D546A"/>
<path fill-rule="evenodd" clip-rule="evenodd" d="M66.3333 43.7169C66.3333 44.085 66.0349 44.3836 65.6667 44.3836H45.7255C45.3573 44.3836 45.0588 44.085 45.0588 43.7169V43.266C45.0588 42.8978 45.3573 42.5994 45.7255 42.5994H65.6667C66.0349 42.5994 66.3333 42.8978 66.3333 43.266V43.7169Z" fill="#4D546A"/>
</g>
<path d="M95.0132 52V41.627L94.9672 39.051H95.0822L97.0142 41.65L105.041 52H106.835V36.59H105.202V47.101L105.248 49.631H105.11L103.247 47.055L95.1742 36.59H93.3802V52H95.0132ZM115.141 52.23C118.867 52.23 121.328 49.769 121.328 46.319C121.328 42.869 118.867 40.408 115.141 40.408C111.438 40.408 108.977 42.869 108.977 46.319C108.977 49.769 111.438 52.23 115.141 52.23ZM115.141 50.758C112.013 50.758 110.587 49.079 110.587 46.319C110.587 43.582 112.013 41.88 115.141 41.88C118.269 41.88 119.718 43.582 119.718 46.319C119.718 49.079 118.269 50.758 115.141 50.758ZM130.469 52V50.505H128.399C126.743 50.505 125.961 50.068 125.961 48.481V42.041H130.469V40.638H125.961V37.924H124.305V40.638H122.281V42.041H124.305V48.389C124.305 51.057 125.754 52 128.008 52H130.469ZM133.893 39.189V36.59H132.26V39.189H133.893ZM133.893 52V40.638H132.26V52H133.893ZM139.078 52V42.041H143.655V40.638H139.078C138.986 38.568 140.113 37.878 142.183 37.878H143.655V36.59H142.413C139.469 36.59 137.652 37.947 137.468 40.638H135.628V42.041H137.445V52H139.078ZM146.875 39.189V36.59H145.242V39.189H146.875ZM146.875 52V40.638H145.242V52H146.875ZM155.073 52.23C158.247 52.23 160.731 50.344 160.731 47.607V47.423H159.121V47.561C159.121 49.585 157.649 50.735 155.05 50.735C152.014 50.735 150.703 49.102 150.703 46.319C150.703 43.536 152.014 41.903 155.05 41.903C157.649 41.903 159.121 43.053 159.121 45.077V45.215H160.731V45.031C160.731 42.294 158.247 40.408 155.073 40.408C151.439 40.408 149.07 42.869 149.07 46.319C149.07 49.769 151.439 52.23 155.073 52.23ZM166.07 52.23C168.715 52.23 170.716 51.034 171.383 48.941H171.498V52H172.97V44.893C172.97 42.386 171.498 40.408 168.048 40.408C164.552 40.408 162.574 42.363 162.574 44.755V44.847H164.207V44.755C164.207 42.754 165.495 41.88 167.933 41.88C170.417 41.88 171.383 42.754 171.383 44.962V45.836L165.978 46.434C163.862 46.664 162.321 47.469 162.321 49.332C162.321 51.172 163.839 52.23 166.07 52.23ZM163.954 49.217C163.954 48.044 164.782 47.63 166.484 47.469L171.383 46.917V47.009C171.383 49.746 169.198 50.965 166.438 50.965C164.713 50.965 163.954 50.367 163.954 49.217ZM181.083 52.23C184.257 52.23 186.741 50.344 186.741 47.607V47.423H185.131V47.561C185.131 49.585 183.659 50.735 181.06 50.735C178.024 50.735 176.713 49.102 176.713 46.319C176.713 43.536 178.024 41.903 181.06 41.903C183.659 41.903 185.131 43.053 185.131 45.077V45.215H186.741V45.031C186.741 42.294 184.257 40.408 181.083 40.408C177.449 40.408 175.08 42.869 175.08 46.319C175.08 49.769 177.449 52.23 181.083 52.23ZM190.562 39.189V36.59H188.929V39.189H190.562ZM190.562 52V40.638H188.929V52H190.562ZM198.875 52.23C202.601 52.23 205.062 49.769 205.062 46.319C205.062 42.869 202.601 40.408 198.875 40.408C195.172 40.408 192.711 42.869 192.711 46.319C192.711 49.769 195.172 52.23 198.875 52.23ZM198.875 50.758C195.747 50.758 194.321 49.079 194.321 46.319C194.321 43.582 195.747 41.88 198.875 41.88C202.003 41.88 203.452 43.582 203.452 46.319C203.452 49.079 202.003 50.758 198.875 50.758ZM208.868 52V46.503C208.868 43.582 210.317 41.903 213.077 41.903C215.676 41.903 216.803 43.26 216.803 45.606V52H218.436V45.376C218.436 42.685 216.849 40.408 213.652 40.408C210.823 40.408 209.213 42.271 208.822 44.203H208.707V40.638H207.235V52H208.868ZM226.498 52.23C229.672 52.23 232.018 50.597 232.018 48.228V48.067H230.385V48.228C230.385 49.884 229.143 50.873 226.475 50.873C223.462 50.873 222.151 49.332 222.059 46.779H232.064C232.133 46.48 232.179 46.135 232.179 45.721C232.179 42.34 229.81 40.408 226.475 40.408C222.818 40.408 220.518 42.869 220.518 46.319C220.518 49.93 222.841 52.23 226.498 52.23ZM226.452 41.765C229.12 41.765 230.638 43.03 230.638 45.422C230.638 45.537 230.638 45.652 230.638 45.767H222.059C222.174 43.283 223.508 41.765 226.452 41.765ZM239.336 52.23C242.28 52.23 244.396 51.103 244.396 48.964C244.396 47.124 243.085 46.296 240.647 45.951L237.864 45.56C235.978 45.284 235.38 44.87 235.38 43.697C235.38 42.34 236.369 41.765 238.761 41.765C241.659 41.765 242.556 42.685 242.556 44.387V44.502H244.189V44.456C244.189 41.788 242.073 40.408 238.807 40.408C235.679 40.408 233.77 41.673 233.77 43.674C233.77 45.56 235.081 46.365 237.151 46.641L240.187 47.078C242.073 47.377 242.786 47.768 242.786 48.964C242.786 50.275 241.912 50.873 239.359 50.873C236.576 50.873 235.449 50.206 235.449 48.297V48.159H233.816V48.205C233.816 50.827 235.84 52.23 239.336 52.23Z" fill="#121419"/>
</g>
<defs>
<filter id="filter0_d_1048_860" x="0" y="0" width="444" height="84" filterUnits="userSpaceOnUse" color-interpolation-filters="sRGB">
<feFlood flood-opacity="0" result="BackgroundImageFix"/>
<feColorMatrix in="SourceAlpha" type="matrix" values="0 0 0 0 0 0 0 0 0 0 0 0 0 0 0 0 0 0 127 0" result="hardAlpha"/>
<feOffset dx="-4"/>
<feGaussianBlur stdDeviation="7.5"/>
<feComposite in2="hardAlpha" operator="out"/>
<feColorMatrix type="matrix" values="0 0 0 0 0.137255 0 0 0 0 0.14902 0 0 0 0 0.188235 0 0 0 0.13 0"/>
<feBlend mode="normal" in2="BackgroundImageFix" result="effect1_dropShadow_1048_860"/>
<feBlend mode="normal" in="SourceGraphic" in2="effect1_dropShadow_1048_860" result="shape"/>
</filter>
<clipPath id="clip0_1048_860">
<rect width="414" height="54" fill="white" transform="translate(19 15)"/>
</clipPath>
<clipPath id="clip1_1048_860">
<rect width="23.3333" height="20" fill="white" transform="translate(43 33.5)"/>
</clipPath>
</defs>
</svg>
