<svg width="444" height="84" viewBox="0 0 444 84" fill="none" xmlns="http://www.w3.org/2000/svg">
<g clip-path="url(#clip0_1048_846)" filter="url(#filter0_d_1048_846)">
<rect width="414" height="54" transform="translate(19 15)" fill="#FCFBF7"/>
<g clip-path="url(#clip1_1048_846)">
<path d="M55.7608 52.807C55.4751 53.1853 54.9322 53.2505 54.5651 52.9505L44.8951 45.0487C43.9158 44.2485 43.9158 42.7515 44.8951 41.9513L54.5651 34.0495C54.9322 33.7495 55.4751 33.8146 55.7608 34.193C56.0315 34.5514 55.9705 35.0596 55.6227 35.3438L47.5366 41.9513C46.5573 42.7515 46.5573 44.2485 47.5366 45.0487L55.6227 51.6562C55.9705 51.9404 56.0315 52.4486 55.7608 52.807Z" fill="#4D546A"/>
<path fill-rule="evenodd" clip-rule="evenodd" d="M66.3333 43.717C66.3333 44.0852 66.0349 44.3837 65.6667 44.3837H45.7255C45.3573 44.3837 45.0588 44.0852 45.0588 43.717V43.2662C45.0588 42.898 45.3573 42.5995 45.7255 42.5995H65.6667C66.0349 42.5995 66.3333 42.898 66.3333 43.2662V43.717Z" fill="#4D546A"/>
</g>
<path d="M135.186 52V45.445H144.754V43.973H135.186V38.085H145.099V36.59H133.553V52H135.186ZM148.841 39.12L152.268 36.13H150.037L147.162 39.12H148.841ZM148.818 52V40.5H147.185V52H148.818ZM156.491 52.23C159.435 52.23 161.551 51.103 161.551 48.964C161.551 47.124 160.24 46.296 157.802 45.951L155.019 45.56C153.133 45.284 152.535 44.87 152.535 43.697C152.535 42.34 153.524 41.765 155.916 41.765C158.814 41.765 159.711 42.685 159.711 44.387V44.502H161.344V44.456C161.344 41.788 159.228 40.408 155.962 40.408C152.834 40.408 150.925 41.673 150.925 43.674C150.925 45.56 152.236 46.365 154.306 46.641L157.342 47.078C159.228 47.377 159.941 47.768 159.941 48.964C159.941 50.275 159.067 50.873 156.514 50.873C153.731 50.873 152.604 50.206 152.604 48.297V48.159H150.971V48.205C150.971 50.827 152.995 52.23 156.491 52.23ZM165.329 39.189V36.59H163.696V39.189H165.329ZM165.329 52V40.638H163.696V52H165.329ZM173.504 52.23C176.678 52.23 179.162 50.344 179.162 47.607V47.423H177.552V47.561C177.552 49.585 176.08 50.735 173.481 50.735C170.445 50.735 169.134 49.102 169.134 46.319C169.134 43.536 170.445 41.903 173.481 41.903C176.08 41.903 177.552 43.053 177.552 45.077V45.215H179.162V45.031C179.162 42.294 176.678 40.408 173.504 40.408C169.87 40.408 167.501 42.869 167.501 46.319C167.501 49.769 169.87 52.23 173.504 52.23ZM184.501 52.23C187.146 52.23 189.147 51.034 189.814 48.941H189.929V52H191.401V44.893C191.401 42.386 189.929 40.408 186.479 40.408C182.983 40.408 181.005 42.363 181.005 44.755V44.847H182.638V44.755C182.638 42.754 183.926 41.88 186.364 41.88C188.848 41.88 189.814 42.754 189.814 44.962V45.836L184.409 46.434C182.293 46.664 180.752 47.469 180.752 49.332C180.752 51.172 182.27 52.23 184.501 52.23ZM182.385 49.217C182.385 48.044 183.213 47.63 184.915 47.469L189.814 46.917V47.009C189.814 49.746 187.629 50.965 184.869 50.965C183.144 50.965 182.385 50.367 182.385 49.217Z" fill="#121419"/>
<g clip-path="url(#clip2_1048_846)">
<path fill-rule="evenodd" clip-rule="evenodd" d="M106.146 54.8436C112.992 54.8436 118.032 50.1236 118.032 44.8856C118.032 39.6474 112.992 34.9274 106.146 34.9274C99.3 34.9274 94.2606 39.6474 94.2606 44.8856C94.2606 50.1236 99.3 54.8436 106.146 54.8436ZM106.146 56.771C113.775 56.771 119.959 51.4498 119.959 44.8856C119.959 38.3213 113.775 33 106.146 33C98.5175 33 92.3333 38.3213 92.3333 44.8856C92.3333 51.4498 98.5175 56.771 106.146 56.771Z" fill="#121419"/>
<path d="M110.965 45.0243C110.965 41.4886 109.135 40.2812 106.104 40.2812C103.074 40.2812 101.328 41.4886 101.328 45.0243C101.328 48.5269 103.044 49.704 106.162 49.704C109.279 49.704 110.965 48.5226 110.965 45.0243Z" fill="#121419"/>
<path d="M119.103 37.1969C119.103 34.8665 117.883 34.0708 115.862 34.0708C113.842 34.0708 112.678 34.8665 112.678 37.1969C112.678 39.5054 113.822 40.2813 115.901 40.2813C117.979 40.2813 119.103 39.5026 119.103 37.1969Z" fill="#121419"/>
<path d="M98.7579 51.5452C98.7579 49.2148 97.5381 48.4192 95.5176 48.4192C93.4971 48.4192 92.3333 49.2148 92.3333 51.5452C92.3333 53.8537 93.4776 54.6296 95.5558 54.6296C97.634 54.6296 98.7579 53.851 98.7579 51.5452Z" fill="#121419"/>
</g>
</g>
<defs>
<filter id="filter0_d_1048_846" x="0" y="0" width="444" height="84" filterUnits="userSpaceOnUse" color-interpolation-filters="sRGB">
<feFlood flood-opacity="0" result="BackgroundImageFix"/>
<feColorMatrix in="SourceAlpha" type="matrix" values="0 0 0 0 0 0 0 0 0 0 0 0 0 0 0 0 0 0 127 0" result="hardAlpha"/>
<feOffset dx="-4"/>
<feGaussianBlur stdDeviation="7.5"/>
<feComposite in2="hardAlpha" operator="out"/>
<feColorMatrix type="matrix" values="0 0 0 0 0.137255 0 0 0 0 0.14902 0 0 0 0 0.188235 0 0 0 0.13 0"/>
<feBlend mode="normal" in2="BackgroundImageFix" result="effect1_dropShadow_1048_846"/>
<feBlend mode="normal" in="SourceGraphic" in2="effect1_dropShadow_1048_846" result="shape"/>
</filter>
<clipPath id="clip0_1048_846">
<rect width="414" height="54" fill="white" transform="translate(19 15)"/>
</clipPath>
<clipPath id="clip1_1048_846">
<rect width="23.3333" height="20" fill="white" transform="translate(43 33.5)"/>
</clipPath>
<clipPath id="clip2_1048_846">
<rect width="27.84" height="24" fill="white" transform="translate(92.3333 33)"/>
</clipPath>
</defs>
</svg>
