<svg width="444" height="84" viewBox="0 0 444 84" fill="none" xmlns="http://www.w3.org/2000/svg">
<g clip-path="url(#clip0_1048_835)" filter="url(#filter0_d_1048_835)">
<rect width="414" height="54" transform="translate(19 15)" fill="#FCFBF7"/>
<line x1="19" y1="68.5" x2="433" y2="68.5" stroke="#D6D9E1"/>
<g clip-path="url(#clip1_1048_835)">
<path d="M54.1568 30H44.5938C43.7136 30 43 30.7163 43 31.6V41.2C43 42.0837 43.7136 42.8 44.5938 42.8H54.1568C55.037 42.8 55.7506 42.0837 55.7506 41.2V31.6C55.7506 30.7163 55.037 30 54.1568 30Z" fill="#121419"/>
<path d="M54.1568 45.2H44.5938C43.7136 45.2 43 45.9163 43 46.8V52.4C43 53.2836 43.7136 54 44.5938 54H54.1568C55.037 54 55.7506 53.2836 55.7506 52.4V46.8C55.7506 45.9163 55.037 45.2 54.1568 45.2Z" fill="#121419"/>
<path d="M69.2981 30H59.7352C58.8549 30 58.1414 30.7163 58.1414 31.6V37.2C58.1414 38.0837 58.8549 38.8 59.7352 38.8H69.2981C70.1784 38.8 70.8919 38.0837 70.8919 37.2V31.6C70.8919 30.7163 70.1784 30 69.2981 30Z" fill="#121419"/>
<path d="M69.2981 41.2H59.7352C58.8549 41.2 58.1414 41.9163 58.1414 42.8V52.4C58.1414 53.2836 58.8549 54 59.7352 54H69.2981C70.1784 54 70.8919 53.2836 70.8919 52.4V42.8C70.8919 41.9163 70.1784 41.2 69.2981 41.2Z" fill="#121419"/>
</g>
<path d="M102.252 49.23C106.53 49.23 108.393 47.16 108.393 44.952C108.393 42.56 106.622 41.387 103.862 40.858L100.619 40.214C98.3418 39.731 97.3298 39.202 97.3298 37.454C97.3298 35.775 98.7098 34.901 101.769 34.901C105.127 34.901 106.507 36.097 106.507 38.328V38.604H108.163V38.466C108.163 35.66 106.231 33.36 101.884 33.36C97.4678 33.36 95.6738 35.476 95.6738 37.569C95.6738 40.122 97.6748 41.18 100.182 41.663L103.448 42.284C105.702 42.744 106.737 43.365 106.737 45.09C106.737 46.838 105.334 47.689 102.252 47.689C98.6408 47.689 97.2608 46.493 97.2608 44.285V43.986H95.6048V44.124C95.6048 47.068 97.7208 49.23 102.252 49.23ZM115.917 49.23C119.091 49.23 121.437 47.597 121.437 45.228V45.067H119.804V45.228C119.804 46.884 118.562 47.873 115.894 47.873C112.881 47.873 111.57 46.332 111.478 43.779H121.483C121.552 43.48 121.598 43.135 121.598 42.721C121.598 39.34 119.229 37.408 115.894 37.408C112.237 37.408 109.937 39.869 109.937 43.319C109.937 46.93 112.26 49.23 115.917 49.23ZM115.871 38.765C118.539 38.765 120.057 40.03 120.057 42.422C120.057 42.537 120.057 42.652 120.057 42.767H111.478C111.593 40.283 112.927 38.765 115.871 38.765ZM129.192 49.23C132.366 49.23 134.85 47.344 134.85 44.607V44.423H133.24V44.561C133.24 46.585 131.768 47.735 129.169 47.735C126.133 47.735 124.822 46.102 124.822 43.319C124.822 40.536 126.133 38.903 129.169 38.903C131.768 38.903 133.24 40.053 133.24 42.077V42.215H134.85V42.031C134.85 39.294 132.366 37.408 129.192 37.408C125.558 37.408 123.189 39.869 123.189 43.319C123.189 46.769 125.558 49.23 129.192 49.23ZM142.466 49.23C145.64 49.23 148.124 47.344 148.124 44.607V44.423H146.514V44.561C146.514 46.585 145.042 47.735 142.443 47.735C139.407 47.735 138.096 46.102 138.096 43.319C138.096 40.536 139.407 38.903 142.443 38.903C145.042 38.903 146.514 40.053 146.514 42.077V42.215H148.124V42.031C148.124 39.294 145.64 37.408 142.466 37.408C138.832 37.408 136.463 39.869 136.463 43.319C136.463 46.769 138.832 49.23 142.466 49.23ZM151.946 36.189V33.59H150.313V36.189H151.946ZM151.946 49V37.638H150.313V49H151.946ZM160.259 49.23C163.985 49.23 166.446 46.769 166.446 43.319C166.446 39.869 163.985 37.408 160.259 37.408C156.556 37.408 154.095 39.869 154.095 43.319C154.095 46.769 156.556 49.23 160.259 49.23ZM160.259 47.758C157.131 47.758 155.705 46.079 155.705 43.319C155.705 40.582 157.131 38.88 160.259 38.88C163.387 38.88 164.836 40.582 164.836 43.319C164.836 46.079 163.387 47.758 160.259 47.758ZM170.252 49V43.503C170.252 40.582 171.701 38.903 174.461 38.903C177.06 38.903 178.187 40.26 178.187 42.606V49H179.82V42.376C179.82 39.685 178.233 37.408 175.036 37.408C172.207 37.408 170.597 39.271 170.206 41.203H170.091V37.638H168.619V49H170.252ZM187.882 49.23C191.056 49.23 193.402 47.597 193.402 45.228V45.067H191.769V45.228C191.769 46.884 190.527 47.873 187.859 47.873C184.846 47.873 183.535 46.332 183.443 43.779H193.448C193.517 43.48 193.563 43.135 193.563 42.721C193.563 39.34 191.194 37.408 187.859 37.408C184.202 37.408 181.902 39.869 181.902 43.319C181.902 46.93 184.225 49.23 187.882 49.23ZM187.836 38.765C190.504 38.765 192.022 40.03 192.022 42.422C192.022 42.537 192.022 42.652 192.022 42.767H183.443C183.558 40.283 184.892 38.765 187.836 38.765ZM200.72 49.23C203.664 49.23 205.78 48.103 205.78 45.964C205.78 44.124 204.469 43.296 202.031 42.951L199.248 42.56C197.362 42.284 196.764 41.87 196.764 40.697C196.764 39.34 197.753 38.765 200.145 38.765C203.043 38.765 203.94 39.685 203.94 41.387V41.502H205.573V41.456C205.573 38.788 203.457 37.408 200.191 37.408C197.063 37.408 195.154 38.673 195.154 40.674C195.154 42.56 196.465 43.365 198.535 43.641L201.571 44.078C203.457 44.377 204.17 44.768 204.17 45.964C204.17 47.275 203.296 47.873 200.743 47.873C197.96 47.873 196.833 47.206 196.833 45.297V45.159H195.2V45.205C195.2 47.827 197.224 49.23 200.72 49.23Z" fill="#121419"/>
<path fill-rule="evenodd" clip-rule="evenodd" d="M402.988 50.0379C401.996 51.3206 400.074 51.3207 399.082 50.0381L387.221 34.6989C386.868 34.2434 386.946 33.5866 387.395 33.2277C387.848 32.8648 388.508 32.9443 388.864 33.4048L399.082 46.6161C400.074 47.8985 401.996 47.8984 402.988 46.6159L413.203 33.4049C413.559 32.9444 414.219 32.8648 414.673 33.2277C415.121 33.5866 415.199 34.2434 414.847 34.6989L402.988 50.0379Z" fill="#636D87"/>
</g>
<defs>
<filter id="filter0_d_1048_835" x="0" y="0" width="444" height="84" filterUnits="userSpaceOnUse" color-interpolation-filters="sRGB">
<feFlood flood-opacity="0" result="BackgroundImageFix"/>
<feColorMatrix in="SourceAlpha" type="matrix" values="0 0 0 0 0 0 0 0 0 0 0 0 0 0 0 0 0 0 127 0" result="hardAlpha"/>
<feOffset dx="-4"/>
<feGaussianBlur stdDeviation="7.5"/>
<feComposite in2="hardAlpha" operator="out"/>
<feColorMatrix type="matrix" values="0 0 0 0 0.137255 0 0 0 0 0.14902 0 0 0 0 0.188235 0 0 0 0.13 0"/>
<feBlend mode="normal" in2="BackgroundImageFix" result="effect1_dropShadow_1048_835"/>
<feBlend mode="normal" in="SourceGraphic" in2="effect1_dropShadow_1048_835" result="shape"/>
</filter>
<clipPath id="clip0_1048_835">
<rect width="414" height="54" fill="white" transform="translate(19 15)"/>
</clipPath>
<clipPath id="clip1_1048_835">
<rect width="27.8919" height="24" fill="white" transform="translate(43 30)"/>
</clipPath>
</defs>
</svg>
