<svg width="375" height="54" viewBox="0 0 375 54" fill="none" xmlns="http://www.w3.org/2000/svg">
<rect width="375" height="54" fill="#121419"/>
<rect width="375" height="48" fill="#121419"/>
<path d="M19.1478 38.9456V16.638H12.4753V38.9456H19.1478Z" fill="#FBF9F3"/>
<path d="M29.3129 38.9456V27.6805C29.3129 23.8958 30.8253 22.2038 35.0512 22.2038C39.1437 22.2038 40.6116 23.7177 40.6116 27.2798V38.9456H47.2841V25.0535C47.2841 20.1111 44.3927 16.1927 38.2985 16.1927C32.4712 16.1927 29.8022 19.7548 29.224 23.495H28.8236V16.638H22.6404V38.9456H29.3129Z" fill="#FBF9F3"/>
<path d="M59.1062 39V13.7727H50.5835V39H59.1062Z" fill="#79AFFF"/>
<path d="M59.1062 39V13.7727H50.5835V39H59.1062Z" fill="url(#paint0_linear_1048_701)" fill-opacity="0.7"/>
<path d="M72.1551 14.2541C72.1551 14.2541 85.3475 9.54112 91.0909 9.54112V9L12 9.00001V14.2541L72.1551 14.2541Z" fill="#79AFFF"/>
<path d="M72.1551 14.2541C72.1551 14.2541 85.3475 9.54112 91.0909 9.54112V9L12 9.00001V14.2541L72.1551 14.2541Z" fill="url(#paint1_linear_1048_701)" fill-opacity="0.7"/>
<path d="M79.142 39L88.0514 16.6705H80.5662L74.9688 32.6677H74.5383L68.8084 16.6705H61.2901L70.1995 39H79.142Z" fill="#79AFFF"/>
<path d="M79.142 39L88.0514 16.6705H80.5662L74.9688 32.6677H74.5383L68.8084 16.6705H61.2901L70.1995 39H79.142Z" fill="url(#paint2_linear_1048_701)" fill-opacity="0.7"/>
<path fill-rule="evenodd" clip-rule="evenodd" d="M306.424 27.5202C307.529 26.1155 308.117 24.1015 308.117 21.3302C308.117 14.7213 304.802 12.5 298.779 12.5C292.756 12.5 289.5 14.7213 289.5 21.3302C289.5 27.9941 293.033 30.2704 298.891 30.2704C301.429 30.2704 303.494 29.8473 305.026 28.8171L310.103 35.5L311.618 34.3492L306.424 27.5202ZM293.247 26.8602C292.195 25.9484 291.404 24.3469 291.404 21.3302C291.404 18.3135 292.147 16.7416 293.141 15.8658C294.188 14.9413 295.935 14.404 298.779 14.404C301.622 14.404 303.391 14.9413 304.455 15.87C305.462 16.7501 306.213 18.3177 306.213 21.3302C306.213 24.3427 305.449 25.9738 304.433 26.8856C303.376 27.8312 301.63 28.3664 298.891 28.3664C296.151 28.3664 294.366 27.8228 293.247 26.8602Z" fill="#FCFBF7"/>
<g clip-path="url(#clip0_1048_701)">
<path d="M346.692 12H337.527C336.684 12 336 12.6865 336 13.5333V22.7333C336 23.5802 336.684 24.2667 337.527 24.2667H346.692C347.535 24.2667 348.219 23.5802 348.219 22.7333V13.5333C348.219 12.6865 347.535 12 346.692 12Z" fill="#FCFBF7"/>
<path d="M346.692 26.5667H337.527C336.684 26.5667 336 27.2531 336 28.1V33.4667C336 34.3135 336.684 35 337.527 35H346.692C347.535 35 348.219 34.3135 348.219 33.4667V28.1C348.219 27.2531 347.535 26.5667 346.692 26.5667Z" fill="#FCFBF7"/>
<path d="M361.202 12H352.038C351.194 12 350.51 12.6865 350.51 13.5333V18.9C350.51 19.7468 351.194 20.4333 352.038 20.4333H361.202C362.046 20.4333 362.73 19.7468 362.73 18.9V13.5333C362.73 12.6865 362.046 12 361.202 12Z" fill="#FCFBF7"/>
<path d="M361.202 22.7333H352.038C351.194 22.7333 350.51 23.4198 350.51 24.2666V33.4666C350.51 34.3134 351.194 34.9999 352.038 34.9999H361.202C362.046 34.9999 362.73 34.3134 362.73 33.4666V24.2666C362.73 23.4198 362.046 22.7333 361.202 22.7333Z" fill="#FCFBF7"/>
</g>
<line x1="1.31134e-07" y1="49.5" x2="375" y2="49.5" stroke="#79AFFF" stroke-width="3"/>
<line x1="1.31134e-07" y1="49.5" x2="375" y2="49.5" stroke="url(#paint3_linear_1048_701)" stroke-opacity="0.7" stroke-width="3"/>
<defs>
<linearGradient id="paint0_linear_1048_701" x1="14.6373" y1="38.9153" x2="92.3287" y2="41.4321" gradientUnits="userSpaceOnUse">
<stop stop-color="#1CFF5B"/>
<stop offset="1" stop-color="#00FF47" stop-opacity="0"/>
</linearGradient>
<linearGradient id="paint1_linear_1048_701" x1="14.6373" y1="38.9153" x2="92.3287" y2="41.4321" gradientUnits="userSpaceOnUse">
<stop stop-color="#1CFF5B"/>
<stop offset="1" stop-color="#00FF47" stop-opacity="0"/>
</linearGradient>
<linearGradient id="paint2_linear_1048_701" x1="14.6373" y1="38.9153" x2="92.3287" y2="41.4321" gradientUnits="userSpaceOnUse">
<stop stop-color="#1CFF5B"/>
<stop offset="1" stop-color="#00FF47" stop-opacity="0"/>
</linearGradient>
<linearGradient id="paint3_linear_1048_701" x1="12.5043" y1="51.9972" x2="29.0909" y2="128.425" gradientUnits="userSpaceOnUse">
<stop stop-color="#1CFF5B"/>
<stop offset="1" stop-color="#00FF47" stop-opacity="0"/>
</linearGradient>
<clipPath id="clip0_1048_701">
<rect width="26.7297" height="23" fill="white" transform="translate(336 12)"/>
</clipPath>
</defs>
</svg>
