<svg width="375" height="107" viewBox="0 0 375 107" fill="none" xmlns="http://www.w3.org/2000/svg">
<path d="M0 0H375V104C375 105.657 373.657 107 372 107H3.00001C1.34315 107 0 105.657 0 104V0Z" fill="#121419"/>
<g clip-path="url(#clip0_1048_701)">
<rect width="375" height="48" fill="#121419"/>
<path d="M19.1478 38.9456V16.638H12.4753V38.9456H19.1478Z" fill="#FBF9F3"/>
<path d="M29.3129 38.9456V27.6805C29.3129 23.8958 30.8253 22.2038 35.0512 22.2038C39.1437 22.2038 40.6116 23.7177 40.6116 27.2798V38.9456H47.2841V25.0535C47.2841 20.1111 44.3927 16.1927 38.2985 16.1927C32.4712 16.1927 29.8022 19.7548 29.224 23.495H28.8236V16.638H22.6404V38.9456H29.3129Z" fill="#FBF9F3"/>
<path d="M59.1062 39V13.7727H50.5835V39H59.1062Z" fill="#79AFFF"/>
<path d="M59.1062 39V13.7727H50.5835V39H59.1062Z" fill="url(#paint0_linear_1048_701)" fill-opacity="0.7"/>
<path d="M72.1551 14.2541C72.1551 14.2541 85.3475 9.54112 91.0909 9.54112V9L12 9.00001V14.2541L72.1551 14.2541Z" fill="#79AFFF"/>
<path d="M72.1551 14.2541C72.1551 14.2541 85.3475 9.54112 91.0909 9.54112V9L12 9.00001V14.2541L72.1551 14.2541Z" fill="url(#paint1_linear_1048_701)" fill-opacity="0.7"/>
<path d="M79.142 39L88.0514 16.6705H80.5662L74.9688 32.6677H74.5383L68.8084 16.6705H61.2901L70.1995 39H79.142Z" fill="#79AFFF"/>
<path d="M79.142 39L88.0514 16.6705H80.5662L74.9688 32.6677H74.5383L68.8084 16.6705H61.2901L70.1995 39H79.142Z" fill="url(#paint2_linear_1048_701)" fill-opacity="0.7"/>
<rect width="47.1178" height="50" transform="translate(277)" fill="#5BC5CF"/>
<path fill-rule="evenodd" clip-rule="evenodd" d="M306.424 27.5202C307.529 26.1155 308.117 24.1015 308.117 21.3302C308.117 14.7213 304.802 12.5 298.779 12.5C292.756 12.5 289.5 14.7213 289.5 21.3302C289.5 27.9941 293.033 30.2704 298.891 30.2704C301.429 30.2704 303.494 29.8473 305.026 28.8171L310.103 35.5L311.618 34.3492L306.424 27.5202ZM293.247 26.8602C292.195 25.9484 291.404 24.3469 291.404 21.3302C291.404 18.3135 292.147 16.7416 293.141 15.8658C294.188 14.9413 295.935 14.404 298.779 14.404C301.622 14.404 303.391 14.9413 304.455 15.87C305.462 16.7501 306.213 18.3177 306.213 21.3302C306.213 24.3427 305.449 25.9738 304.433 26.8856C303.376 27.8312 301.63 28.3664 298.891 28.3664C296.151 28.3664 294.366 27.8228 293.247 26.8602Z" fill="#FCFBF7"/>
<g clip-path="url(#clip1_1048_701)">
<path d="M346.692 12H337.527C336.684 12 336 12.6865 336 13.5333V22.7333C336 23.5802 336.684 24.2667 337.527 24.2667H346.692C347.535 24.2667 348.219 23.5802 348.219 22.7333V13.5333C348.219 12.6865 347.535 12 346.692 12Z" fill="#FCFBF7"/>
<path d="M346.692 26.5667H337.527C336.684 26.5667 336 27.2531 336 28.1V33.4667C336 34.3135 336.684 35 337.527 35H346.692C347.535 35 348.219 34.3135 348.219 33.4667V28.1C348.219 27.2531 347.535 26.5667 346.692 26.5667Z" fill="#FCFBF7"/>
<path d="M361.202 12H352.038C351.194 12 350.51 12.6865 350.51 13.5333V18.9C350.51 19.7468 351.194 20.4333 352.038 20.4333H361.202C362.046 20.4333 362.73 19.7468 362.73 18.9V13.5333C362.73 12.6865 362.046 12 361.202 12Z" fill="#FCFBF7"/>
<path d="M361.202 22.7333H352.038C351.194 22.7333 350.51 23.4198 350.51 24.2666V33.4666C350.51 34.3134 351.194 34.9999 352.038 34.9999H361.202C362.046 34.9999 362.73 34.3134 362.73 33.4666V24.2666C362.73 23.4198 362.046 22.7333 361.202 22.7333Z" fill="#FCFBF7"/>
</g>
</g>
<line x1="1.31134e-07" y1="49.5" x2="375" y2="49.5" stroke="#79AFFF" stroke-width="3"/>
<line x1="1.31134e-07" y1="49.5" x2="375" y2="49.5" stroke="url(#paint3_linear_1048_701)" stroke-opacity="0.7" stroke-width="3"/>
<path d="M0 50H375V104C375 105.657 373.657 107 372 107H3.00001C1.34315 107 0 105.657 0 104V50Z" fill="#121419"/>
<path fill-rule="evenodd" clip-rule="evenodd" d="M32.9242 82.0202C34.0285 80.6155 34.6166 78.6015 34.6166 75.8302C34.6166 69.2213 31.3016 67 25.2787 67C19.2558 67 16 69.2213 16 75.8302C16 82.4941 19.5329 84.7704 25.3908 84.7704C27.9295 84.7704 29.9942 84.3473 31.5258 83.3171L36.6031 90L38.1178 88.8492L32.9242 82.0202ZM19.7466 81.3602C18.6952 80.4484 17.904 78.8469 17.904 75.8302C17.904 72.8135 18.6465 71.2416 19.6408 70.3658C20.688 69.4413 22.4354 68.904 25.2787 68.904C28.122 68.904 29.8905 69.4413 30.9547 70.37C31.9616 71.2501 32.7127 72.8177 32.7127 75.8302C32.7127 78.8427 31.949 80.4738 30.9335 81.3856C29.8757 82.3312 28.1304 82.8664 25.3908 82.8664C22.6512 82.8664 20.8657 82.3228 19.7466 81.3602Z" fill="#FCFBF7"/>
<path d="M69.5699 84.5C71.8739 84.5 73.3499 83.258 73.3499 81.17C73.3499 79.622 72.3959 78.524 70.5419 78.218V78.11C72.1979 77.858 72.9719 76.814 72.9719 75.428C72.9719 73.52 71.5499 72.44 69.3899 72.44H63.0539V84.5H69.5699ZM64.3319 73.61H69.2819C70.9199 73.61 71.6939 74.258 71.6939 75.662C71.6939 77.048 70.8119 77.696 69.1739 77.696H64.3319V73.61ZM64.3319 78.794H69.4619C71.1359 78.794 72.0539 79.496 72.0539 81.044C72.0539 82.628 71.1719 83.33 69.4619 83.33H64.3319V78.794ZM78.6134 84.68C80.8274 84.68 82.1054 83.24 82.4114 81.728H82.5014V84.5H83.6534V75.608H82.3754V79.928C82.3754 82.214 81.2414 83.528 79.0634 83.528C77.0114 83.528 76.1114 82.466 76.1114 80.612V75.608H74.8334V80.81C74.8334 82.916 76.0754 84.68 78.6134 84.68ZM89.7094 84.68C92.0134 84.68 93.6694 83.798 93.6694 82.124C93.6694 80.684 92.6434 80.036 90.7354 79.766L88.5574 79.46C87.0814 79.244 86.6134 78.92 86.6134 78.002C86.6134 76.94 87.3874 76.49 89.2594 76.49C91.5274 76.49 92.2294 77.21 92.2294 78.542V78.632H93.5074V78.596C93.5074 76.508 91.8514 75.428 89.2954 75.428C86.8474 75.428 85.3534 76.418 85.3534 77.984C85.3534 79.46 86.3794 80.09 87.9994 80.306L90.3754 80.648C91.8514 80.882 92.4094 81.188 92.4094 82.124C92.4094 83.15 91.7254 83.618 89.7274 83.618C87.5494 83.618 86.6674 83.096 86.6674 81.602V81.494H85.3894V81.53C85.3894 83.582 86.9734 84.68 89.7094 84.68ZM99.5963 84.68C102.08 84.68 104.024 83.204 104.024 81.062V80.918H102.764V81.026C102.764 82.61 101.612 83.51 99.5783 83.51C97.2023 83.51 96.1763 82.232 96.1763 80.054C96.1763 77.876 97.2023 76.598 99.5783 76.598C101.612 76.598 102.764 77.498 102.764 79.082V79.19H104.024V79.046C104.024 76.904 102.08 75.428 99.5963 75.428C96.7523 75.428 94.8983 77.354 94.8983 80.054C94.8983 82.754 96.7523 84.68 99.5963 84.68ZM108.203 84.68C110.273 84.68 111.839 83.744 112.361 82.106H112.451V84.5H113.603V78.938C113.603 76.976 112.451 75.428 109.751 75.428C107.015 75.428 105.467 76.958 105.467 78.83V78.902H106.745V78.83C106.745 77.264 107.753 76.58 109.661 76.58C111.605 76.58 112.361 77.264 112.361 78.992V79.676L108.131 80.144C106.475 80.324 105.269 80.954 105.269 82.412C105.269 83.852 106.457 84.68 108.203 84.68ZM106.547 82.322C106.547 81.404 107.195 81.08 108.527 80.954L112.361 80.522V80.594C112.361 82.736 110.651 83.69 108.491 83.69C107.141 83.69 106.547 83.222 106.547 82.322Z" fill="#D6D9E1"/>
<defs>
<linearGradient id="paint0_linear_1048_701" x1="14.6373" y1="38.9153" x2="92.3287" y2="41.4321" gradientUnits="userSpaceOnUse">
<stop stop-color="#1CFF5B"/>
<stop offset="1" stop-color="#00FF47" stop-opacity="0"/>
</linearGradient>
<linearGradient id="paint1_linear_1048_701" x1="14.6373" y1="38.9153" x2="92.3287" y2="41.4321" gradientUnits="userSpaceOnUse">
<stop stop-color="#1CFF5B"/>
<stop offset="1" stop-color="#00FF47" stop-opacity="0"/>
</linearGradient>
<linearGradient id="paint2_linear_1048_701" x1="14.6373" y1="38.9153" x2="92.3287" y2="41.4321" gradientUnits="userSpaceOnUse">
<stop stop-color="#1CFF5B"/>
<stop offset="1" stop-color="#00FF47" stop-opacity="0"/>
</linearGradient>
<linearGradient id="paint3_linear_1048_701" x1="12.5043" y1="51.9972" x2="29.0909" y2="128.425" gradientUnits="userSpaceOnUse">
<stop stop-color="#1CFF5B"/>
<stop offset="1" stop-color="#00FF47" stop-opacity="0"/>
</linearGradient>
<clipPath id="clip0_1048_701">
<rect width="375" height="48" fill="white"/>
</clipPath>
<clipPath id="clip1_1048_701">
<rect width="26.7297" height="23" fill="white" transform="translate(336 12)"/>
</clipPath>
</defs>
</svg>
