<svg width="658" height="293" viewBox="0 0 658 293" fill="none" xmlns="http://www.w3.org/2000/svg">
<g clip-path="url(#clip0_808_1227)">
<rect x="56.1841" y="34.1841" width="555.632" height="213.632" stroke="#636D87" stroke-width="1.63183"/>
<line x1="431.506" y1="246.68" x2="431.506" y2="34.5418" stroke="#B8BDCB" stroke-width="1.63183"/>
<rect x="81.1841" y="89.1841" width="506.632" height="103.632" stroke="#B8BDCB" stroke-width="1.63183"/>
<path d="M328.969 58.212L329.102 58.1645L329.102 58.1644L329.102 58.1644L329.103 58.164L329.108 58.1623L329.126 58.1558L329.2 58.1295C329.266 58.1062 329.363 58.0715 329.492 58.0259C329.75 57.9349 330.132 57.8004 330.628 57.6272L330.359 56.8569C331.126 56.5892 332.165 56.2293 333.437 55.7944L333.701 56.5664C334.62 56.2523 335.661 55.8988 336.811 55.5126L336.551 54.7392C337.513 54.4161 338.55 54.0702 339.654 53.7051L339.91 54.4798C340.9 54.1526 341.944 53.81 343.036 53.4547L342.784 52.6788C343.782 52.354 344.821 52.0187 345.896 51.6748L346.144 52.4519C347.152 52.1293 348.192 51.7992 349.259 51.4633L349.014 50.6851C350.032 50.3646 351.075 50.039 352.14 49.7095L352.381 50.489C353.405 50.1724 354.448 49.8523 355.51 49.5301L355.272 48.7493C356.303 48.4364 357.35 48.1214 358.411 47.8056L358.643 48.5876C359.677 48.2797 360.725 47.9709 361.782 47.6626L361.554 46.8793C362.594 46.576 363.645 46.2731 364.703 45.9715L364.926 46.7562C365.969 46.459 367.02 46.1633 368.076 45.8698L367.857 45.0837C368.906 44.7923 369.96 44.5033 371.017 44.2175L371.23 45.0052C372.28 44.7212 373.334 44.4405 374.389 44.1641L374.182 43.3749C375.239 43.0979 376.297 42.8252 377.353 42.5578L377.554 43.3487C378.613 43.0806 379.671 42.8178 380.726 42.5613L380.533 41.7685C381.6 41.5091 382.663 41.2561 383.721 41.0106L383.906 41.8053C384.975 41.5571 386.038 41.3166 387.092 41.0848L386.917 40.2879C387.995 40.0511 389.064 39.8233 390.123 39.6057L390.287 40.4049C391.367 40.1828 392.435 39.9714 393.489 39.7719L393.337 38.9702C394.428 38.7637 395.503 38.5698 396.561 38.3898L396.698 39.1942C397.791 39.0082 398.864 38.8373 399.914 38.6829L399.795 37.8756C400.902 37.7129 401.984 37.5682 403.038 37.4432L403.134 38.2535C404.243 38.1219 405.32 38.0126 406.359 37.9274L406.292 37.1142C407.432 37.0208 408.529 36.956 409.578 36.9224L409.604 37.7378C410.148 37.7204 410.679 37.7115 411.195 37.7115H412.01V36.8956V36.3071H411.195V36.0797V35.3577V35.1303H412.01V34.5418V33.7259L411.195 33.7259L409.596 33.7259V34.5418L406.398 34.5418V33.7259L403.201 33.7259V34.5418L400.003 34.5418V33.7259L396.806 33.7259V34.5418L393.608 34.5418V33.7259L390.411 33.7259V34.5418L387.213 34.5418V33.7259L384.016 33.7259V34.5418L380.818 34.5418V33.7259L377.621 33.7259V34.5418L374.423 34.5418V33.7259L371.226 33.7259V34.5418L368.029 34.5418V33.7259L364.831 33.7259V34.5418L361.634 34.5418V33.7259L358.436 33.7259V34.5418L355.239 34.5418V33.7259L352.041 33.7259V34.5418L348.844 34.5418V33.7259L345.646 33.7259V34.5418L342.449 34.5418V33.7259L339.251 33.7259V34.5418L336.054 34.5418V33.7259L332.856 33.7259V34.5418L329.659 34.5418V33.7259L326.461 33.7259V34.5418L323.264 34.5418V33.7259L320.066 33.7259V34.5418L316.869 34.5418V33.7259L313.671 33.7259V34.5418L310.474 34.5418V33.7259L307.276 33.7259V34.5418L304.079 34.5418V33.7259L300.881 33.7259V34.5418L297.684 34.5418V33.7259L294.486 33.7259V34.5418L291.289 34.5418V33.7259L288.092 33.7259V34.5418L284.894 34.5418V33.7259L281.697 33.7259L281.697 34.5418L278.499 34.5418V33.7259L275.302 33.7259V34.5418L272.104 34.5418V33.7259L268.907 33.7259V34.5418L265.709 34.5418V33.7259L262.512 33.7259V34.5418L259.314 34.5418V33.7259L257.715 33.7259H256.9V34.5418V35.9702H257.715V38.827H256.9V41.6838H257.715V44.5406H256.9V47.3974H257.715V50.2541H256.9V53.1109H257.715V55.9677H256.9V57.3961V58.212H257.715H259.332V57.3961H262.564V58.212H265.796V57.3961H269.029V58.212H272.261V57.3961H275.493V58.212H278.726V57.3961H281.958V58.212H285.191V57.3961H288.423V58.212H291.655V57.3961H294.888V58.212H298.12V57.3961H301.352V58.212H304.585V57.3961H307.817V58.212H311.049V57.3961H314.282V58.212H317.514V57.3961H320.746V58.212H323.979V57.3961H327.211V58.212H328.827H328.969Z" stroke="#B8BDCB" stroke-width="1.63183" stroke-dasharray="3.26 3.26"/>
<path d="M328.969 247.505L329.102 247.457L329.102 247.457L329.102 247.457L329.103 247.457L329.108 247.455L329.126 247.448L329.2 247.422C329.266 247.399 329.363 247.364 329.492 247.319C329.75 247.227 330.132 247.093 330.628 246.92L330.359 246.149C331.126 245.882 332.165 245.522 333.437 245.087L333.701 245.859C334.62 245.545 335.661 245.191 336.811 244.805L336.551 244.032C337.513 243.709 338.55 243.363 339.654 242.998L339.91 243.772C340.9 243.445 341.944 243.103 343.036 242.747L342.784 241.971C343.782 241.647 344.821 241.311 345.896 240.967L346.144 241.744C347.152 241.422 348.192 241.092 349.259 240.756L349.014 239.978C350.032 239.657 351.075 239.332 352.14 239.002L352.381 239.782C353.405 239.465 354.448 239.145 355.51 238.823L355.272 238.042C356.303 237.729 357.35 237.414 358.411 237.098L358.643 237.88C359.677 237.572 360.725 237.264 361.782 236.955L361.554 236.172C362.594 235.869 363.645 235.566 364.703 235.264L364.926 236.049C365.969 235.752 367.02 235.456 368.076 235.162L367.857 234.376C368.906 234.085 369.96 233.796 371.017 233.51L371.23 234.298C372.28 234.014 373.334 233.733 374.389 233.457L374.182 232.667C375.239 232.391 376.297 232.118 377.353 231.85L377.554 232.641C378.613 232.373 379.671 232.11 380.726 231.854L380.533 231.061C381.6 230.802 382.663 230.549 383.721 230.303L383.906 231.098C384.975 230.85 386.038 230.609 387.092 230.377L386.917 229.581C387.995 229.344 389.064 229.116 390.123 228.898L390.287 229.697C391.367 229.475 392.435 229.264 393.489 229.064L393.337 228.263C394.428 228.056 395.503 227.862 396.561 227.682L396.698 228.487C397.791 228.301 398.864 228.13 399.914 227.975L399.795 227.168C400.902 227.005 401.984 226.861 403.038 226.736L403.134 227.546C404.243 227.415 405.32 227.305 406.359 227.22L406.292 226.407C407.432 226.313 408.529 226.249 409.578 226.215L409.604 227.03C410.148 227.013 410.679 227.004 411.195 227.004H412.01V226.188V225.6H411.195V225.372V224.65V224.423H412.01V223.834V223.018L411.195 223.018L409.596 223.018V223.834L406.398 223.834V223.018L403.201 223.018V223.834L400.003 223.834V223.018L396.806 223.018V223.834L393.608 223.834V223.018L390.411 223.018V223.834L387.213 223.834V223.018L384.016 223.018V223.834L380.818 223.834V223.018L377.621 223.018V223.834L374.423 223.834V223.018L371.226 223.018V223.834L368.029 223.834V223.018L364.831 223.018V223.834L361.634 223.834V223.018L358.436 223.018V223.834L355.239 223.834V223.018L352.041 223.018V223.834L348.844 223.834V223.018L345.646 223.018V223.834L342.449 223.834V223.018L339.251 223.018V223.834L336.054 223.834V223.018L332.856 223.018V223.834L329.659 223.834V223.018L326.461 223.019V223.834L323.264 223.834V223.019L320.066 223.019V223.834L316.869 223.834V223.019L313.671 223.019V223.834L310.474 223.834V223.019L307.276 223.019V223.834L304.079 223.834V223.019L300.881 223.019V223.834L297.684 223.834V223.019L294.486 223.019V223.834L291.289 223.834V223.019L288.092 223.019V223.834L284.894 223.834V223.019L281.697 223.019L281.697 223.834L278.499 223.834V223.019L275.302 223.019V223.834L272.104 223.834V223.019L268.907 223.019V223.834L265.709 223.834V223.019L262.512 223.019V223.834L259.314 223.834V223.019L257.715 223.019H256.9V223.834V225.263H257.715V228.12H256.9V230.976H257.715V233.833H256.9V236.69H257.715V239.547H256.9V242.404H257.715V245.26H256.9V246.689V247.505H257.715H259.332V246.689H262.564V247.505H265.796V246.689H269.029V247.505H272.261V246.689H275.493V247.505H278.726V246.689H281.958V247.505H285.191V246.689H288.423V247.505H291.655V246.689H294.888V247.505H298.12V246.689H301.352V247.505H304.585V246.689H307.817V247.505H311.049V246.689H314.282V247.505H317.514V246.689H320.746V247.505H323.979V246.689H327.211V247.505H328.827H328.969Z" stroke="#B8BDCB" stroke-width="1.63183" stroke-dasharray="3.26 3.26"/>
<rect x="80.6616" y="58.2034" width="506.653" height="164.815" stroke="#B8BDCB" stroke-width="1.63183"/>
<path d="M80.6702 146.102L80.6227 145.968L80.6227 145.968L80.6226 145.968L80.6222 145.967L80.6206 145.962L80.614 145.944L80.5877 145.87C80.5644 145.805 80.5297 145.707 80.4842 145.578C80.3931 145.32 80.2586 144.938 80.0854 144.442L79.3151 144.711C79.0474 143.944 78.6875 142.906 78.2526 141.633L79.0246 141.369C78.7105 140.45 78.357 139.409 77.9708 138.259L77.1974 138.519C76.8743 137.558 76.5284 136.521 76.1633 135.416L76.938 135.16C76.6108 134.17 76.2682 133.126 75.913 132.034L75.1371 132.286C74.8123 131.288 74.4769 130.249 74.133 129.175L74.9101 128.926C74.5875 127.918 74.2574 126.879 73.9216 125.812L73.1433 126.057C72.8229 125.039 72.4972 123.995 72.1677 122.93L72.9472 122.689C72.6306 121.666 72.3105 120.622 71.9883 119.561L71.2076 119.798C70.8946 118.767 70.5796 117.72 70.2638 116.66L71.0458 116.427C70.7379 115.393 70.4292 114.346 70.1208 113.288L69.3375 113.516C69.0342 112.476 68.7313 111.426 68.4297 110.367L69.2144 110.144C68.9173 109.101 68.6215 108.05 68.3281 106.995L67.5419 107.213C67.2505 106.165 66.9615 105.111 66.6757 104.053L67.4634 103.84C67.1794 102.79 66.8988 101.736 66.6224 100.682L65.8331 100.888C65.5561 99.8316 65.2834 98.7736 65.016 97.7168L65.8069 97.5167C65.5388 96.4573 65.276 95.3991 65.0195 94.3444L64.2267 94.5372C63.9673 93.4704 63.7143 92.407 63.4688 91.3493L64.2635 91.1647C64.0154 90.0957 63.7748 89.0326 63.543 87.9778L62.7461 88.1529C62.5093 87.0753 62.2815 86.006 62.0639 84.9477L62.8631 84.7833C62.641 83.7034 62.4296 82.6353 62.2301 81.5814L61.4284 81.7331C61.2219 80.6425 61.028 79.5668 60.848 78.5088L61.6524 78.372C61.4664 77.2792 61.2955 76.2062 61.1411 75.1561L60.3339 75.2748C60.1711 74.1681 60.0264 73.0861 59.9014 72.0323L60.7117 71.9363C60.5801 70.8268 60.4708 69.7503 60.3856 68.7112L59.5724 68.7778C59.479 67.6381 59.4142 66.5412 59.3806 65.4927L60.1961 65.4666C60.1786 64.9219 60.1697 64.3913 60.1697 63.8757L60.1697 63.0598L59.3538 63.0598L58.7653 63.0598L58.7653 63.8757L58.5379 63.8757L57.8159 63.8757L57.5885 63.8757L57.5885 63.0598L57 63.0598L56.1841 63.0598L56.1841 63.8757L56.1841 65.4745L57 65.4745L57 68.672L56.1841 68.672L56.1841 71.8695L57 71.8695L57 75.0669L56.1841 75.0669L56.1841 78.2644L57 78.2644L57 81.4619L56.1841 81.4619L56.1841 84.6594L57 84.6594L57 87.8569L56.1841 87.8569L56.1841 91.0543L57 91.0543L57 94.2518L56.1841 94.2518L56.1841 97.4493L57 97.4493L57 100.647L56.1841 100.647L56.1841 103.844L57 103.844L57 107.042L56.1841 107.042L56.1841 110.239L57 110.239L57 113.437L56.1841 113.437L56.1841 116.634L57 116.634L57 119.832L56.1841 119.832L56.1841 123.029L57 123.029L57 126.227L56.1841 126.227L56.1841 129.424L57 129.424L57 132.622L56.1841 132.622L56.1841 135.819L57 135.819L57 139.017L56.1841 139.017L56.1841 142.214L57 142.214L57 145.411L56.1841 145.411L56.1841 148.609L57 148.609L57 151.806L56.1841 151.806L56.1841 155.004L57 155.004L57 158.201L56.1841 158.201L56.1841 161.399L57 161.399L57 164.596L56.1841 164.596L56.1841 167.794L57 167.794L57 170.991L56.1841 170.991L56.1841 174.189L57 174.189L57 177.386L56.1841 177.386L56.1841 180.584L57 180.584L57 183.781L56.1841 183.781L56.1841 186.979L57 186.979L57 190.176L56.1841 190.176L56.1841 193.374L57 193.374L57 196.571L56.1841 196.571L56.1841 199.769L57 199.769L57 202.966L56.1841 202.966L56.1841 206.164L57 206.164L57 209.361L56.1841 209.361L56.1841 212.559L57 212.559L57 215.756L56.1841 215.756L56.1841 217.355L56.1841 218.171L57 218.171L58.4284 218.171L58.4284 217.355L61.2852 217.355L61.2852 218.171L64.142 218.171L64.142 217.355L66.9988 217.355L66.9988 218.171L69.8556 218.171L69.8556 217.355L72.7124 217.355L72.7124 218.171L75.5691 218.171L75.5691 217.355L78.4259 217.355L78.4259 218.171L79.8543 218.171L80.6702 218.171L80.6702 217.355L80.6702 215.739L79.8543 215.739L79.8543 212.506L80.6702 212.506L80.6702 209.274L79.8543 209.274L79.8543 206.042L80.6702 206.042L80.6702 202.809L79.8543 202.809L79.8543 199.577L80.6702 199.577L80.6702 196.344L79.8543 196.344L79.8543 193.112L80.6702 193.112L80.6702 189.88L79.8543 189.88L79.8543 186.647L80.6702 186.647L80.6702 183.415L79.8543 183.415L79.8543 180.183L80.6702 180.183L80.6702 176.95L79.8543 176.95L79.8543 173.718L80.6702 173.718L80.6702 170.486L79.8543 170.486L79.8543 167.253L80.6702 167.253L80.6702 164.021L79.8543 164.021L79.8543 160.789L80.6702 160.789L80.6702 157.556L79.8543 157.556L79.8543 154.324L80.6702 154.324L80.6702 151.091L79.8543 151.091L79.8543 147.859L80.6702 147.859L80.6702 146.243L80.6702 146.102Z" stroke="#B8BDCB" stroke-width="1.63183" stroke-dasharray="3.26 3.26"/>
<path d="M587.184 135.129L587.232 135.262L587.232 135.262L587.232 135.262L587.232 135.264L587.234 135.268L587.24 135.287L587.267 135.36C587.29 135.426 587.325 135.524 587.37 135.653C587.461 135.911 587.596 136.293 587.769 136.789L588.539 136.52C588.807 137.287 589.167 138.325 589.602 139.597L588.83 139.861C589.144 140.78 589.497 141.822 589.883 142.971L590.657 142.711C590.98 143.673 591.326 144.71 591.691 145.814L590.916 146.071C591.243 147.06 591.586 148.104 591.941 149.197L592.717 148.944C593.042 149.943 593.377 150.981 593.721 152.056L592.944 152.305C593.267 153.313 593.597 154.352 593.933 155.419L594.711 155.174C595.031 156.192 595.357 157.235 595.687 158.3L594.907 158.541C595.224 159.565 595.544 160.609 595.866 161.67L596.647 161.433C596.96 162.463 597.275 163.51 597.59 164.571L596.808 164.804C597.116 165.838 597.425 166.885 597.733 167.943L598.517 167.714C598.82 168.754 599.123 169.805 599.425 170.863L598.64 171.087C598.937 172.13 599.233 173.18 599.526 174.236L600.312 174.017C600.604 175.066 600.893 176.12 601.179 177.177L600.391 177.39C600.675 178.441 600.956 179.494 601.232 180.549L602.021 180.342C602.298 181.399 602.571 182.457 602.838 183.514L602.047 183.714C602.315 184.773 602.578 185.831 602.835 186.886L603.628 186.693C603.887 187.76 604.14 188.823 604.386 189.881L603.591 190.066C603.839 191.135 604.079 192.198 604.311 193.253L605.108 193.078C605.345 194.155 605.573 195.224 605.79 196.283L604.991 196.447C605.213 197.527 605.425 198.595 605.624 199.649L606.426 199.497C606.632 200.588 606.826 201.664 607.006 202.722L606.202 202.859C606.388 203.951 606.559 205.024 606.713 206.074L607.52 205.956C607.683 207.062 607.828 208.144 607.953 209.198L607.143 209.294C607.274 210.404 607.383 211.48 607.469 212.519L608.282 212.453C608.375 213.592 608.44 214.689 608.474 215.738L607.658 215.764C607.676 216.309 607.685 216.839 607.685 217.355L607.685 218.171L608.5 218.171L609.089 218.171L609.089 217.355L609.316 217.355L610.038 217.355L610.266 217.355L610.266 218.171L610.854 218.171L611.67 218.171L611.67 217.355L611.67 215.756L610.854 215.756L610.854 212.559L611.67 212.559L611.67 209.361L610.854 209.361L610.854 206.164L611.67 206.164L611.67 202.966L610.854 202.966L610.854 199.769L611.67 199.769L611.67 196.571L610.854 196.571L610.854 193.374L611.67 193.374L611.67 190.176L610.854 190.176L610.854 186.979L611.67 186.979L611.67 183.781L610.854 183.781L610.854 180.584L611.67 180.584L611.67 177.386L610.854 177.386L610.854 174.189L611.67 174.189L611.67 170.991L610.854 170.991L610.854 167.794L611.67 167.794L611.67 164.596L610.854 164.596L610.854 161.399L611.67 161.399L611.67 158.201L610.854 158.201L610.854 155.004L611.67 155.004L611.67 151.806L610.854 151.806L610.854 148.609L611.67 148.609L611.67 145.411L610.854 145.411L610.854 142.214L611.67 142.214L611.67 139.017L610.854 139.017L610.854 135.819L611.67 135.819L611.67 132.622L610.854 132.622L610.854 129.424L611.67 129.424L611.67 126.227L610.854 126.227L610.854 123.029L611.67 123.029L611.67 119.832L610.854 119.832L610.854 116.634L611.67 116.634L611.67 113.437L610.854 113.437L610.854 110.239L611.67 110.239L611.67 107.042L610.854 107.042L610.854 103.844L611.67 103.844L611.67 100.647L610.854 100.647L610.854 97.4493L611.67 97.4493L611.67 94.2518L610.854 94.2518L610.854 91.0543L611.67 91.0543L611.67 87.8568L610.854 87.8568L610.854 84.6594L611.67 84.6594L611.67 81.4619L610.854 81.4619L610.854 78.2644L611.67 78.2644L611.67 75.0669L610.854 75.0669L610.854 71.8694L611.67 71.8694L611.67 68.672L610.854 68.672L610.854 65.4745L611.67 65.4745L611.67 63.8757L611.67 63.0598L610.854 63.0598L609.426 63.0598L609.426 63.8757L606.569 63.8757L606.569 63.0598L603.712 63.0598L603.712 63.8757L600.855 63.8757L600.855 63.0598L597.999 63.0598L597.999 63.8757L595.142 63.8757L595.142 63.0598L592.285 63.0598L592.285 63.8757L589.428 63.8757L589.428 63.0598L588 63.0598L587.184 63.0598L587.184 63.8757L587.184 65.4919L588 65.4919L588 68.7243L587.184 68.7243L587.184 71.9566L588 71.9566L588 75.189L587.184 75.189L587.184 78.4213L588 78.4213L588 81.6537L587.184 81.6537L587.184 84.8861L588 84.8861L588 88.1184L587.184 88.1184L587.184 91.3508L588 91.3508L588 94.5831L587.184 94.5831L587.184 97.8155L588 97.8155L588 101.048L587.184 101.048L587.184 104.28L588 104.28L588 107.513L587.184 107.513L587.184 110.745L588 110.745L588 113.977L587.184 113.977L587.184 117.21L588 117.21L588 120.442L587.184 120.442L587.184 123.674L588 123.674L588 126.907L587.184 126.907L587.184 130.139L588 130.139L588 133.371L587.184 133.371L587.184 134.988L587.184 135.129Z" stroke="#B8BDCB" stroke-width="1.63183" stroke-dasharray="3.26 3.26"/>
<path d="M504.273 82.6895L504.406 82.6419L504.131 81.8736C504.406 82.6419 504.406 82.6419 504.406 82.6417L504.408 82.6411L504.416 82.6384L504.447 82.6274L504.57 82.5837C504.678 82.5452 504.84 82.4878 505.053 82.4129C505.478 82.2632 506.106 82.0435 506.913 81.7637C508.528 81.204 510.864 80.4043 513.746 79.4445C519.51 77.5247 527.454 74.9653 536.176 72.4062C553.663 67.276 574.143 62.189 586.499 62.189H587.315V61.3731V59.0193V58.2034L586.499 58.2034L433.02 58.2034H432.204V59.0193V81.8736V82.6895H433.02H504.131H504.273Z" stroke="#636D87" stroke-width="1.63183"/>
<path d="M187.941 153.252V152.437H187.125H158.101H157.285V153.252V155.189C157.285 157.174 156.928 158.877 156.172 160.322C155.419 161.761 154.245 162.992 152.535 164.001C149.078 166.041 143.457 167.156 134.882 167.156C125.557 167.156 119.362 165.562 115.399 162.284C111.622 159.158 109.722 154.371 109.24 147.483H187.318H188.044L188.129 146.763C188.189 146.25 188.25 145.753 188.309 145.268C188.627 142.662 188.908 140.36 188.908 137.371C188.908 121.965 183.558 109.96 174.113 101.818C164.685 93.6899 151.27 89.4904 135.269 89.4904C119.14 89.4904 105.481 94.4334 95.8461 103.362C86.2045 112.298 80.6616 125.161 80.6616 140.857C80.6616 158.278 86.2421 171.113 96.0115 179.58C105.762 188.03 119.571 192.03 135.849 192.03C151.352 192.03 164.348 188.322 173.494 181.882C182.657 175.429 187.941 166.235 187.941 155.383V153.252ZM241.133 129.976L241.132 129.976C234.737 129.2 231.031 128.291 228.923 127.034C227.899 126.424 227.284 125.747 226.911 124.981C226.532 124.202 226.371 123.262 226.371 122.07C226.371 120.594 226.59 119.418 227.081 118.468C227.564 117.532 228.342 116.75 229.58 116.114C232.119 114.809 236.484 114.17 243.743 114.17C252.632 114.17 257.84 115.196 260.82 117.071C262.28 117.99 263.208 119.116 263.781 120.457C264.362 121.815 264.598 123.436 264.598 125.362V126.525V127.341H265.414H294.438H295.254V126.525V125.944C295.254 113.892 290.649 104.721 281.944 98.5968C273.284 92.5045 260.659 89.4904 244.71 89.4904C227.975 89.4904 215.838 92.897 207.862 98.55C199.855 104.225 196.102 112.125 196.102 120.908C196.102 129.243 198.887 135.726 204.217 140.382C209.518 145.012 217.248 147.758 227.009 148.834C227.01 148.834 227.012 148.834 227.013 148.834L254.275 152.124C254.277 152.124 254.28 152.125 254.282 152.125C260.013 152.903 263.425 153.665 265.414 154.828C266.374 155.39 266.968 156.028 267.337 156.791C267.714 157.57 267.888 158.547 267.888 159.838C267.888 161.21 267.67 162.304 267.175 163.193C266.686 164.07 265.885 164.824 264.58 165.444C261.91 166.712 257.291 167.35 249.548 167.35C241.309 167.35 236.025 166.758 232.807 165.182C231.232 164.41 230.18 163.415 229.508 162.146C228.827 160.861 228.499 159.227 228.499 157.126V155.383V154.567H227.683H198.659H197.843V155.383V155.964C197.843 167.447 202.459 176.517 211.276 182.683C220.053 188.82 232.916 192.03 249.354 192.03C264.444 192.03 276.611 189.011 285.034 183.621C293.486 178.213 298.157 170.415 298.157 161C298.157 152.777 295.67 146.318 289.774 141.577C283.933 136.879 274.845 133.951 261.833 132.493C261.831 132.493 261.83 132.493 261.829 132.493L241.133 129.976ZM338.076 223.018H338.892V222.203V164.548C340.702 172.667 344.629 179.423 350.806 184.208C357.296 189.236 366.194 192.03 377.548 192.03C392.349 192.03 403.956 187.068 411.852 178.124C419.736 169.193 423.835 156.39 423.835 140.857C423.835 125.319 419.636 112.466 411.582 103.489C403.516 94.4986 391.669 89.4904 376.581 89.4904C365.055 89.4904 356.057 91.9832 349.486 96.9169C343.057 101.743 339.043 108.834 337.209 117.961H336.763V92.2431V91.4272H335.947H309.052H308.236V92.2431V222.203V223.018H309.052H338.076ZM464.111 190.093H464.927V189.277V92.2431V91.4272H464.111H435.087H434.271V92.2431V189.277V190.093H435.087H464.111ZM508.327 190.093H509.143V189.277V140.276C509.143 132.126 510.776 126.441 514.488 122.771C518.203 119.098 524.177 117.269 533.288 117.269C542.122 117.269 547.907 118.91 551.499 122.278C555.076 125.632 556.659 130.872 556.659 138.533V189.277V190.093H557.475H586.499H587.315V189.277V128.849C587.315 117.946 584.124 108.094 577.494 100.96C570.854 93.8161 560.85 89.4904 547.413 89.4904C534.563 89.4904 525.117 93.4228 518.56 99.4883C512.196 105.376 508.617 113.216 507.246 121.254H507.015V92.2431V91.4272H506.199H479.303H478.487V92.2431V189.277V190.093H479.303H508.327ZM134.688 113.783C143.14 113.783 149.123 115.182 153.076 118.035C156.799 120.721 158.841 124.787 159.351 130.551H109.681C110.446 124.878 112.532 120.813 116.254 118.106C120.209 115.229 126.145 113.783 134.688 113.783ZM338.892 142.213V140.663C338.892 132.198 341.26 126.572 345.764 123.026C350.312 119.444 357.196 117.85 366.519 117.85C375.658 117.85 382.186 119.351 386.435 122.89C390.646 126.4 392.792 132.067 392.792 140.857C392.792 149.547 390.648 155.216 386.41 158.751C382.136 162.316 375.558 163.864 366.326 163.864C357.286 163.864 350.44 162.413 345.865 159.036C341.344 155.699 338.892 150.367 338.892 142.213Z" stroke="#636D87" stroke-width="1.63183"/>
</g>
<rect x="56" y="34" width="556" height="214" stroke="#B8BDCB" stroke-width="2"/>
<defs>
<clipPath id="clip0_808_1227">
<rect x="57" y="35" width="554" height="212" fill="white"/>
</clipPath>
</defs>
</svg>
