<svg width="474" height="426" viewBox="0 0 474 426" fill="none" xmlns="http://www.w3.org/2000/svg">
<rect width="473.333" height="426" fill="#FCFBF7"/>
<path d="M29.2354 137.824C29.2354 133.21 32.9751 129.471 37.5883 129.471H426C430.613 129.471 434.353 133.21 434.353 137.824V185.157C434.353 189.77 430.613 193.51 426 193.51H37.5883C32.9751 193.51 29.2354 189.77 29.2354 185.157V137.824Z" fill="#121419"/>
<path d="M201.489 169.177C204.948 169.177 206.877 167.422 206.877 164.541C206.877 162.335 205.474 160.782 202.617 160.456V160.281C205.173 159.98 206.276 158.501 206.276 156.522C206.276 153.866 204.346 152.387 201.139 152.387H191.742V169.177H201.489ZM194.423 154.818H200.838C202.717 154.818 203.594 155.545 203.594 157.123C203.594 158.702 202.642 159.429 200.763 159.429H194.423V154.818ZM194.423 161.659H201.189C203.168 161.659 204.171 162.411 204.171 164.165C204.171 165.994 203.193 166.746 201.189 166.746H194.423V161.659ZM213.817 169.427C217.024 169.427 218.678 167.422 219.079 165.317H219.23V169.177H221.71V156.722H219.029V162.887C219.029 165.593 217.751 166.996 214.995 166.996C212.364 166.996 211.286 165.819 211.286 163.488V156.722H208.605V164.215C208.605 167.097 210.309 169.427 213.817 169.427ZM232.338 169.177V166.746H230.083C228.529 166.746 227.828 166.345 227.828 164.816V158.978H232.338V156.722H227.828V153.991H225.146V156.722H223.042V158.978H225.146V164.967C225.146 167.999 226.8 169.177 229.482 169.177H232.338ZM242.2 169.177V166.746H239.945C238.391 166.746 237.69 166.345 237.69 164.816V158.978H242.2V156.722H237.69V153.991H235.008V156.722H232.904V158.978H235.008V164.967C235.008 167.999 236.662 169.177 239.344 169.177H242.2ZM250.258 169.427C254.418 169.427 257.199 166.796 257.199 162.962C257.199 159.078 254.418 156.472 250.258 156.472C246.123 156.472 243.342 159.078 243.342 162.962C243.342 166.796 246.123 169.427 250.258 169.427ZM250.258 167.021C247.251 167.021 245.998 165.593 245.998 162.962C245.998 160.306 247.251 158.852 250.258 158.852C253.29 158.852 254.543 160.306 254.543 162.962C254.543 165.593 253.29 167.021 250.258 167.021ZM261.87 169.177V163.012C261.87 160.306 263.098 158.902 265.829 158.902C268.41 158.902 269.463 160.08 269.463 162.411V169.177H272.169V161.684C272.169 158.802 270.465 156.472 267.007 156.472C263.849 156.472 262.196 158.476 261.82 160.581H261.644V156.722H259.163V169.177H261.87Z" fill="#FCFBF7"/>
<path d="M29.2354 45.9412C29.2354 41.328 32.9751 37.5883 37.5883 37.5883H426C430.613 37.5883 434.353 41.328 434.353 45.9412V93.2745C434.353 97.8877 430.613 101.627 426 101.627H37.5883C32.9751 101.627 29.2354 97.8877 29.2354 93.2745V45.9412Z" fill="#E73A02"/>
<path d="M201.489 77.2942C204.948 77.2942 206.877 75.5401 206.877 72.6583C206.877 70.4531 205.474 68.8995 202.617 68.5737V68.3983C205.173 68.0976 206.276 66.6191 206.276 64.6395C206.276 61.9832 204.346 60.5048 201.139 60.5048H191.742V77.2942H201.489ZM194.423 62.9355H200.838C202.717 62.9355 203.594 63.6622 203.594 65.2409C203.594 66.8196 202.642 67.5463 200.763 67.5463H194.423V62.9355ZM194.423 69.7765H201.189C203.168 69.7765 204.171 70.5283 204.171 72.2824C204.171 74.1117 203.193 74.8635 201.189 74.8635H194.423V69.7765ZM213.817 77.5448C217.024 77.5448 218.678 75.5401 219.079 73.4351H219.23V77.2942H221.71V64.84H219.029V71.0044C219.029 73.7108 217.751 75.1141 214.995 75.1141C212.364 75.1141 211.286 73.9363 211.286 71.6058V64.84H208.605V72.3325C208.605 75.2143 210.309 77.5448 213.817 77.5448ZM232.338 77.2942V74.8635H230.083C228.529 74.8635 227.828 74.4625 227.828 72.934V67.0952H232.338V64.84H227.828V62.1085H225.146V64.84H223.042V67.0952H225.146V73.0843C225.146 76.1164 226.8 77.2942 229.482 77.2942H232.338ZM242.2 77.2942V74.8635H239.945C238.391 74.8635 237.69 74.4625 237.69 72.934V67.0952H242.2V64.84H237.69V62.1085H235.008V64.84H232.904V67.0952H235.008V73.0843C235.008 76.1164 236.662 77.2942 239.344 77.2942H242.2ZM250.258 77.5448C254.418 77.5448 257.199 74.9136 257.199 71.0796C257.199 67.1955 254.418 64.5894 250.258 64.5894C246.123 64.5894 243.342 67.1955 243.342 71.0796C243.342 74.9136 246.123 77.5448 250.258 77.5448ZM250.258 75.1391C247.251 75.1391 245.998 73.7108 245.998 71.0796C245.998 68.4234 247.251 66.97 250.258 66.97C253.29 66.97 254.543 68.4234 254.543 71.0796C254.543 73.7108 253.29 75.1391 250.258 75.1391ZM261.87 77.2942V71.1297C261.87 68.4234 263.098 67.0201 265.829 67.0201C268.41 67.0201 269.463 68.1978 269.463 70.5283V77.2942H272.169V69.8016C272.169 66.9198 270.465 64.5894 267.007 64.5894C263.849 64.5894 262.196 66.5941 261.82 68.699H261.644V64.84H259.163V77.2942H261.87Z" fill="#FCFBF7"/>
<path d="M29.2354 229.706C29.2354 225.093 32.9751 221.353 37.5883 221.353H426C430.613 221.353 434.353 225.093 434.353 229.706V277.039C434.353 281.652 430.613 285.392 426 285.392H37.5883C32.9751 285.392 29.2354 281.652 29.2354 277.039V229.706Z" fill="#D6D9E1"/>
<path d="M201.489 261.059C204.948 261.059 206.877 259.305 206.877 256.423C206.877 254.218 205.474 252.664 202.617 252.338V252.163C205.173 251.862 206.276 250.384 206.276 248.404C206.276 245.748 204.346 244.269 201.139 244.269H191.742V261.059H201.489ZM194.423 246.7H200.838C202.717 246.7 203.594 247.427 203.594 249.006C203.594 250.584 202.642 251.311 200.763 251.311H194.423V246.7ZM194.423 253.541H201.189C203.168 253.541 204.171 254.293 204.171 256.047C204.171 257.876 203.193 258.628 201.189 258.628H194.423V253.541ZM213.817 261.309C217.024 261.309 218.678 259.305 219.079 257.2H219.23V261.059H221.71V248.605H219.029V254.769C219.029 257.475 217.751 258.879 214.995 258.879C212.364 258.879 211.286 257.701 211.286 255.37V248.605H208.605V256.097C208.605 258.979 210.309 261.309 213.817 261.309ZM232.338 261.059V258.628H230.083C228.529 258.628 227.828 258.227 227.828 256.699V250.86H232.338V248.605H227.828V245.873H225.146V248.605H223.042V250.86H225.146V256.849C225.146 259.881 226.8 261.059 229.482 261.059H232.338ZM242.2 261.059V258.628H239.945C238.391 258.628 237.69 258.227 237.69 256.699V250.86H242.2V248.605H237.69V245.873H235.008V248.605H232.904V250.86H235.008V256.849C235.008 259.881 236.662 261.059 239.344 261.059H242.2ZM250.258 261.309C254.418 261.309 257.199 258.678 257.199 254.844C257.199 250.96 254.418 248.354 250.258 248.354C246.123 248.354 243.342 250.96 243.342 254.844C243.342 258.678 246.123 261.309 250.258 261.309ZM250.258 258.904C247.251 258.904 245.998 257.475 245.998 254.844C245.998 252.188 247.251 250.735 250.258 250.735C253.29 250.735 254.543 252.188 254.543 254.844C254.543 257.475 253.29 258.904 250.258 258.904ZM261.87 261.059V254.894C261.87 252.188 263.098 250.785 265.829 250.785C268.41 250.785 269.463 251.962 269.463 254.293V261.059H272.169V253.566C272.169 250.684 270.465 248.354 267.007 248.354C263.849 248.354 262.196 250.359 261.82 252.464H261.644V248.605H259.163V261.059H261.87Z" fill="#232630"/>
<path d="M126.697 338.235V336.607H116.047V321.446H114.268V338.235H126.697ZM134.771 338.486C138.83 338.486 141.511 335.805 141.511 332.046C141.511 328.287 138.83 325.606 134.771 325.606C130.736 325.606 128.055 328.287 128.055 332.046C128.055 335.805 130.736 338.486 134.771 338.486ZM134.771 336.882C131.363 336.882 129.809 335.053 129.809 332.046C129.809 329.064 131.363 327.209 134.771 327.209C138.179 327.209 139.757 329.064 139.757 332.046C139.757 335.053 138.179 336.882 134.771 336.882ZM148.79 338.235L152.048 330.141L153.025 327.385H153.15L154.128 330.141L157.335 338.235H159.566L163.575 325.856H161.746L159.089 334.051L158.488 336.657H158.338L157.486 333.9L154.253 325.856H151.973L148.715 333.9L147.863 336.682H147.713L147.086 334.051L144.455 325.856H142.626L146.585 338.235H148.79ZM171.696 338.235V332.422C171.696 329.339 172.974 327.235 176.281 327.235C179.063 327.235 180.391 328.437 180.391 331.269V338.235H182.17V331.043C182.17 327.911 180.441 325.606 176.983 325.606C173.826 325.606 172.222 327.56 171.821 329.64H171.696V321.446H169.916V338.235H171.696ZM186.892 324.278V321.446H185.113V324.278H186.892ZM186.892 338.235V325.856H185.113V338.235H186.892ZM195.774 338.486C199.232 338.486 201.788 336.707 201.788 334.126V333.95H200.009V334.126C200.009 335.93 198.656 337.007 195.749 337.007C192.466 337.007 191.038 335.329 190.938 332.547H201.838C201.913 332.221 201.963 331.845 201.963 331.394C201.963 327.711 199.382 325.606 195.749 325.606C191.765 325.606 189.259 328.287 189.259 332.046C189.259 335.98 191.79 338.486 195.774 338.486ZM195.724 327.084C198.631 327.084 200.285 328.462 200.285 331.069C200.285 331.194 200.285 331.319 200.285 331.444H190.938C191.063 328.738 192.516 327.084 195.724 327.084ZM206.102 338.235V331.52C206.102 328.738 207.205 327.159 209.711 327.159C211.866 327.159 212.743 328.187 212.743 330.292V331.244H214.522V330.016C214.522 327.711 213.269 325.606 210.413 325.606C207.832 325.606 206.428 327.26 206.052 329.239H205.927V325.856H204.323V338.235H206.102ZM220.017 338.486C222.898 338.486 225.078 337.183 225.805 334.903H225.93V338.235H227.534V330.492C227.534 327.761 225.93 325.606 222.172 325.606C218.363 325.606 216.208 327.736 216.208 330.342V330.442H217.987V330.342C217.987 328.162 219.39 327.209 222.046 327.209C224.753 327.209 225.805 328.162 225.805 330.567V331.52L219.916 332.171C217.611 332.422 215.932 333.299 215.932 335.329C215.932 337.333 217.586 338.486 220.017 338.486ZM217.711 335.203C217.711 333.925 218.613 333.474 220.468 333.299L225.805 332.697V332.798C225.805 335.78 223.425 337.108 220.418 337.108C218.538 337.108 217.711 336.456 217.711 335.203ZM232.238 338.235V331.52C232.238 328.738 233.341 327.159 235.847 327.159C238.002 327.159 238.879 328.187 238.879 330.292V331.244H240.658V330.016C240.658 327.711 239.405 325.606 236.548 325.606C233.967 325.606 232.564 327.26 232.188 329.239H232.063V325.856H230.459V338.235H232.238ZM248.633 338.486C252.091 338.486 254.797 336.431 254.797 333.449V333.249H253.043V333.399C253.043 335.604 251.44 336.857 248.608 336.857C245.3 336.857 243.872 335.078 243.872 332.046C243.872 329.014 245.3 327.235 248.608 327.235C251.44 327.235 253.043 328.487 253.043 330.693V330.843H254.797V330.643C254.797 327.661 252.091 325.606 248.633 325.606C244.674 325.606 242.093 328.287 242.093 332.046C242.093 335.805 244.674 338.486 248.633 338.486ZM258.961 338.235V332.422C258.961 329.339 260.239 327.235 263.547 327.235C266.328 327.235 267.656 328.437 267.656 331.269V338.235H269.436V331.043C269.436 327.911 267.706 325.606 264.248 325.606C261.091 325.606 259.487 327.56 259.086 329.64H258.961V321.446H257.182V338.235H258.961ZM274.007 342.495C276.062 342.495 277.215 341.869 278.117 339.964L284.833 325.856H282.878L279.445 333.199L278.117 336.256H277.967L276.588 333.224L272.955 325.856H271L277.14 338.21L276.538 339.463C276.062 340.491 275.586 340.867 274.333 340.867H272.454V342.495H274.007ZM292.927 324.278V321.446H291.148V324.278H292.927ZM292.927 338.235V325.856H291.148V338.235H292.927ZM297.699 338.235V332.246C297.699 329.064 299.278 327.235 302.285 327.235C305.117 327.235 306.345 328.713 306.345 331.269V338.235H308.124V331.018C308.124 328.087 306.395 325.606 302.912 325.606C299.829 325.606 298.075 327.635 297.649 329.74H297.524V325.856H295.92V338.235H297.699ZM312.798 342.495V334.602H312.823C313.4 336.982 315.379 338.486 318.111 338.486C322.045 338.486 324.225 335.805 324.225 332.046C324.225 328.287 322.02 325.606 318.161 325.606C315.229 325.606 313.375 327.109 312.823 329.339H312.623V325.856H311.019V342.495H312.798ZM312.798 332.271V332.046C312.798 328.989 314.603 327.26 317.685 327.26C320.491 327.26 322.421 328.462 322.421 332.046C322.421 335.629 320.516 336.857 317.635 336.857C314.728 336.857 312.798 335.203 312.798 332.271ZM331.599 338.486C334.681 338.486 336.46 336.481 336.886 334.376H337.012V338.235H338.615V325.856H336.836V331.87C336.836 335.053 335.257 336.882 332.225 336.882C329.369 336.882 328.116 335.404 328.116 332.823V325.856H326.336V333.098C326.336 336.03 328.066 338.486 331.599 338.486ZM349.201 338.235V336.607H346.946C345.142 336.607 344.29 336.13 344.29 334.401V327.385H349.201V325.856H344.29V322.899H342.486V325.856H340.28V327.385H342.486V334.301C342.486 337.208 344.064 338.235 346.52 338.235H349.201Z" fill="#232630"/>
<path d="M112.765 341.368H349.652V342.621H112.765V341.368Z" fill="#232630"/>
</svg>
