<svg width="1163" height="1195" viewBox="0 0 1163 1195" fill="none" xmlns="http://www.w3.org/2000/svg">
<g clip-path="url(#clip0_1044_619)">
<rect x="162" y="143" width="1000" height="1051" rx="6" fill="#232630"/>
<g opacity="0.5">
<rect x="282" y="143" width="85" height="1051" fill="#FF8C1C"/>
<rect x="379" y="143" width="84" height="1051" fill="#FF8C1C"/>
<rect x="475" y="143" width="85" height="1051" fill="#FF8C1C"/>
<rect x="572" y="143" width="84" height="1051" fill="#FF8C1C"/>
<rect x="668" y="143" width="85" height="1051" fill="#FF8C1C"/>
<rect x="765" y="143" width="84" height="1051" fill="#FF8C1C"/>
<rect x="861" y="143" width="85" height="1051" fill="#FF8C1C"/>
<rect x="958" y="143" width="84" height="1051" fill="#FF8C1C"/>
</g>
<rect opacity="0.5" x="1182" y="263" width="811" height="1051" transform="rotate(90 1182 263)" fill="#FF8C1C"/>
</g>
<rect x="161.5" y="142.5" width="1001" height="1052" rx="6.5" stroke="#B8BDCB"/>
<path d="M6.486 211V195.59H4.301C3.634 197.062 2.668 197.499 0.966 197.499H0.23V199.27H4.002V211H6.486ZM21.3217 211V208.769H14.7207L10.9947 209.022C10.9947 207.274 11.7077 206.538 13.7777 205.825L17.0207 204.836C19.7347 204.008 21.3677 202.674 21.3677 200.144C21.3677 197.43 19.5277 195.36 15.1577 195.36C10.3507 195.36 8.39572 197.936 8.39572 200.788V201.018H10.8337V200.742C10.8337 198.718 11.9837 197.637 15.0657 197.637C17.8257 197.637 18.8837 198.465 18.8837 200.098C18.8837 201.455 18.2397 202.076 16.3997 202.743L12.7197 204.008C9.54572 205.089 8.41872 206.515 8.41872 209.367V211H21.3217ZM26.4726 202.996C29.0486 202.996 30.4286 201.317 30.4286 199.155C30.4286 197.039 29.0486 195.337 26.4726 195.337C23.9196 195.337 22.5166 197.039 22.5166 199.155C22.5166 201.317 23.9196 202.996 26.4726 202.996ZM25.9666 211L39.0536 195.59H36.6386L23.5516 211H25.9666ZM26.4726 201.317C24.9316 201.317 24.3566 200.581 24.3566 199.155C24.3566 197.752 24.9316 197.016 26.4726 197.016C28.0136 197.016 28.5886 197.752 28.5886 199.155C28.5886 200.581 28.0136 201.317 26.4726 201.317ZM36.1096 211.23C38.6856 211.23 40.0656 209.574 40.0656 207.412C40.0656 205.273 38.6856 203.594 36.1096 203.594C33.5566 203.594 32.1536 205.273 32.1536 207.412C32.1536 209.574 33.5566 211.23 36.1096 211.23ZM36.1096 209.551C34.5686 209.551 33.9936 208.838 33.9936 207.412C33.9936 205.986 34.5686 205.25 36.1096 205.25C37.6506 205.25 38.2256 205.986 38.2256 207.412C38.2256 208.838 37.6506 209.551 36.1096 209.551ZM51.0742 211L53.6042 204.422L54.4782 201.616H54.6622L55.5362 204.422L58.0432 211H61.1252L64.5982 199.569H62.0682L60.1592 206.055L59.6302 208.999H59.4462L58.5952 205.825L56.1802 199.569H53.0062L50.6142 205.825L49.7632 208.999H49.5792L49.0502 206.055L47.1412 199.569H44.5652L47.9922 211H51.0742ZM68.344 198.235V195.59H65.86V198.235H68.344ZM68.344 211V199.569H65.86V211H68.344ZM75.6811 211.23C78.2571 211.23 79.9361 209.988 80.4191 207.711H80.5801V211H82.8571V195.59H80.3731V202.674H80.2351C79.7751 200.742 78.2341 199.339 75.5201 199.339C72.0471 199.339 70.0691 201.731 70.0691 205.296C70.0691 208.815 72.0701 211.23 75.6811 211.23ZM72.5761 205.296C72.5761 202.536 74.0021 201.593 76.3941 201.593C78.9471 201.593 80.3731 202.789 80.3731 205.227V205.411C80.3731 207.803 78.8781 208.953 76.4401 208.953C73.9791 208.953 72.5761 208.033 72.5761 205.296ZM92.6519 211V208.769H90.5819C89.1559 208.769 88.5119 208.401 88.5119 206.998V201.639H92.6519V199.569H88.5119V197.062H86.0509V199.569H84.1189V201.639H86.0509V207.136C86.0509 209.919 87.5689 211 90.0299 211H92.6519ZM96.6897 211V205.457C96.6897 203.042 97.6557 201.57 100.37 201.57C102.739 201.57 103.774 202.49 103.774 204.79V211H106.235V204.192C106.235 201.409 104.694 199.339 101.543 199.339C98.6217 199.339 97.2187 201.133 96.8277 203.065H96.6897V195.59H94.2057V211H96.6897Z" fill="white"/>
<path d="M174.486 101V85.59H172.301C171.634 87.062 170.668 87.499 168.966 87.499H168.23V89.27H172.002V101H174.486ZM189.322 101V98.769H182.721L178.995 99.022C178.995 97.274 179.708 96.538 181.778 95.825L185.021 94.836C187.735 94.008 189.368 92.674 189.368 90.144C189.368 87.43 187.528 85.36 183.158 85.36C178.351 85.36 176.396 87.936 176.396 90.788V91.018H178.834V90.742C178.834 88.718 179.984 87.637 183.066 87.637C185.826 87.637 186.884 88.465 186.884 90.098C186.884 91.455 186.24 92.076 184.4 92.743L180.72 94.008C177.546 95.089 176.419 96.515 176.419 99.367V101H189.322ZM194.473 92.996C197.049 92.996 198.429 91.317 198.429 89.155C198.429 87.039 197.049 85.337 194.473 85.337C191.92 85.337 190.517 87.039 190.517 89.155C190.517 91.317 191.92 92.996 194.473 92.996ZM193.967 101L207.054 85.59H204.639L191.552 101H193.967ZM194.473 91.317C192.932 91.317 192.357 90.581 192.357 89.155C192.357 87.752 192.932 87.016 194.473 87.016C196.014 87.016 196.589 87.752 196.589 89.155C196.589 90.581 196.014 91.317 194.473 91.317ZM204.11 101.23C206.686 101.23 208.066 99.574 208.066 97.412C208.066 95.273 206.686 93.594 204.11 93.594C201.557 93.594 200.154 95.273 200.154 97.412C200.154 99.574 201.557 101.23 204.11 101.23ZM204.11 99.551C202.569 99.551 201.994 98.838 201.994 97.412C201.994 95.986 202.569 95.25 204.11 95.25C205.651 95.25 206.226 95.986 206.226 97.412C206.226 98.838 205.651 99.551 204.11 99.551ZM219.074 101L221.604 94.422L222.478 91.616H222.662L223.536 94.422L226.043 101H229.125L232.598 89.569H230.068L228.159 96.055L227.63 98.999H227.446L226.595 95.825L224.18 89.569H221.006L218.614 95.825L217.763 98.999H217.579L217.05 96.055L215.141 89.569H212.565L215.992 101H219.074ZM236.344 88.235V85.59H233.86V88.235H236.344ZM236.344 101V89.569H233.86V101H236.344ZM243.681 101.23C246.257 101.23 247.936 99.988 248.419 97.711H248.58V101H250.857V85.59H248.373V92.674H248.235C247.775 90.742 246.234 89.339 243.52 89.339C240.047 89.339 238.069 91.731 238.069 95.296C238.069 98.815 240.07 101.23 243.681 101.23ZM240.576 95.296C240.576 92.536 242.002 91.593 244.394 91.593C246.947 91.593 248.373 92.789 248.373 95.227V95.411C248.373 97.803 246.878 98.953 244.44 98.953C241.979 98.953 240.576 98.033 240.576 95.296ZM260.652 101V98.769H258.582C257.156 98.769 256.512 98.401 256.512 96.998V91.639H260.652V89.569H256.512V87.062H254.051V89.569H252.119V91.639H254.051V97.136C254.051 99.919 255.569 101 258.03 101H260.652ZM264.69 101V95.457C264.69 93.042 265.656 91.57 268.37 91.57C270.739 91.57 271.774 92.49 271.774 94.79V101H274.235V94.192C274.235 91.409 272.694 89.339 269.543 89.339C266.622 89.339 265.219 91.133 264.828 93.065H264.69V85.59H262.206V101H264.69Z" fill="white"/>
<path d="M488.571 27.29C493.994 27.29 497.474 25.463 497.474 21.693C497.474 19.025 495.734 17.43 492.718 16.821V16.589C495.444 16.183 496.923 14.588 496.923 12.355C496.923 9.31 494.081 7.28 488.571 7.28C483.061 7.28 480.219 9.31 480.219 12.355C480.219 14.588 481.727 16.183 484.395 16.589V16.821C481.524 17.43 479.668 19.025 479.668 21.693C479.668 25.463 483.09 27.29 488.571 27.29ZM488.571 15.835C484.83 15.835 483.351 14.936 483.351 13.051C483.351 11.253 484.54 10.238 488.571 10.238C492.631 10.238 493.82 11.253 493.82 13.051C493.82 14.936 492.341 15.835 488.571 15.835ZM488.571 24.332C484.337 24.332 482.829 23.375 482.829 21.113C482.829 18.996 484.366 17.981 488.571 17.981C492.776 17.981 494.313 18.996 494.313 21.113C494.313 23.375 492.776 24.332 488.571 24.332ZM511.803 27.29C516.124 27.29 519.285 24.854 519.285 21.258V20.939H516.182V21.142C516.182 23.375 514.558 24.477 511.745 24.477C508.497 24.477 507.047 22.911 507.047 19.808C507.047 16.647 508.497 15.11 511.745 15.11C514.558 15.11 516.182 16.212 516.182 18.445V18.619H519.285V18.329C519.285 14.733 516.124 12.297 511.803 12.297C507.047 12.297 503.944 15.313 503.944 19.808C503.944 24.245 507.047 27.29 511.803 27.29ZM528.967 27.29C533.781 27.29 537 24.245 537 19.808C537 15.313 533.781 12.297 528.967 12.297C524.182 12.297 520.963 15.313 520.963 19.808C520.963 24.245 524.182 27.29 528.967 27.29ZM528.967 24.506C525.487 24.506 524.037 22.853 524.037 19.808C524.037 16.734 525.487 15.052 528.967 15.052C532.476 15.052 533.926 16.734 533.926 19.808C533.926 22.853 532.476 24.506 528.967 24.506ZM542.405 27V7.57H539.273V27H542.405ZM551.308 27.29C555.02 27.29 556.934 24.97 557.398 22.534H557.572V27H560.443V12.587H557.34V19.721C557.34 22.853 555.861 24.477 552.671 24.477C549.626 24.477 548.379 23.114 548.379 20.417V12.587H545.276V21.258C545.276 24.593 547.248 27.29 551.308 27.29ZM566.42 27V19.866C566.42 16.676 567.493 15.11 570.596 15.11C573.38 15.11 574.482 16.328 574.482 19.17V27H577.585V19.866C577.585 16.676 578.687 15.11 581.761 15.11C584.545 15.11 585.676 16.328 585.676 19.17V27H588.779V18.329C588.779 14.849 586.894 12.297 583.153 12.297C579.499 12.297 577.875 14.588 577.498 17.053H577.324C576.918 14.298 575.149 12.297 571.872 12.297C568.276 12.297 566.71 14.53 566.333 16.937H566.159V12.587H563.288V27H566.42ZM594.712 27V19.866C594.712 16.734 596.133 15.11 599.294 15.11C602.281 15.11 603.499 16.473 603.499 19.17V27H606.631V18.329C606.631 14.994 604.659 12.297 600.657 12.297C597.003 12.297 595.089 14.617 594.654 17.053H594.451V12.587H591.58V27H594.712ZM616.237 27.29C620.297 27.29 622.965 25.695 622.965 22.998C622.965 20.62 621.399 19.46 617.977 19.025L614.642 18.561C612.467 18.271 611.887 17.865 611.887 16.734C611.887 15.371 612.815 14.791 615.454 14.791C618.644 14.791 619.514 15.69 619.514 17.401V17.575H622.617V17.488C622.617 14.066 619.949 12.297 615.541 12.297C611.104 12.297 608.813 14.095 608.813 16.618C608.813 19.025 610.466 20.185 613.192 20.533L617.136 21.055C619.195 21.345 619.891 21.722 619.891 22.911C619.891 24.187 619.05 24.767 616.237 24.767C613.221 24.767 612.09 24.158 612.09 22.273V22.041H608.958V22.128C608.958 25.463 611.597 27.29 616.237 27.29ZM631.486 27.58L641.926 6.99H638.591L628.151 27.58H631.486ZM654.354 27V7.57H651.599C650.758 9.426 649.54 9.977 647.394 9.977H646.466V12.21H651.222V27H654.354ZM666.013 27.29C671.871 27.29 675.351 23.462 675.351 17.285C675.351 11.137 671.871 7.28 666.013 7.28C660.155 7.28 656.675 11.137 656.675 17.285C656.675 23.462 660.155 27.29 666.013 27.29ZM666.013 24.274C661.866 24.274 659.981 22.128 659.981 17.285C659.981 12.442 661.866 10.296 666.013 10.296C670.16 10.296 672.016 12.442 672.016 17.285C672.016 22.128 670.16 24.274 666.013 24.274ZM686.432 27.29C692.29 27.29 695.77 23.462 695.77 17.285C695.77 11.137 692.29 7.28 686.432 7.28C680.574 7.28 677.094 11.137 677.094 17.285C677.094 23.462 680.574 27.29 686.432 27.29ZM686.432 24.274C682.285 24.274 680.4 22.128 680.4 17.285C680.4 12.442 682.285 10.296 686.432 10.296C690.579 10.296 692.435 12.442 692.435 17.285C692.435 22.128 690.579 24.274 686.432 24.274ZM706.851 27.29C712.709 27.29 716.189 23.462 716.189 17.285C716.189 11.137 712.709 7.28 706.851 7.28C700.993 7.28 697.513 11.137 697.513 17.285C697.513 23.462 700.993 27.29 706.851 27.29ZM706.851 24.274C702.704 24.274 700.819 22.128 700.819 17.285C700.819 12.442 702.704 10.296 706.851 10.296C710.998 10.296 712.854 12.442 712.854 17.285C712.854 22.128 710.998 24.274 706.851 24.274ZM721.644 31.93V22.94H721.76C722.34 25.579 724.428 27.29 727.676 27.29C732.171 27.29 734.636 24.274 734.636 19.808C734.636 15.342 732.113 12.297 727.647 12.297C724.254 12.297 722.224 13.921 721.644 16.589H721.383V12.587H718.512V31.93H721.644ZM721.644 20.04V19.779C721.644 16.676 723.442 15.168 726.661 15.168C729.677 15.168 731.504 16.328 731.504 19.808C731.504 23.259 729.706 24.448 726.603 24.448C723.529 24.448 721.644 22.998 721.644 20.04ZM739.185 27L743.912 21.49H744.115L748.9 27H752.699L746.493 19.808V19.634L752.699 12.587H748.929L744.202 18.039H744.028L739.243 12.587H735.444L741.65 19.692V19.866L735.444 27H739.185ZM766.082 27L769.272 18.706L770.374 15.168H770.606L771.708 18.706L774.869 27H778.755L783.134 12.587H779.944L777.537 20.765L776.87 24.477H776.638L775.565 20.475L772.52 12.587H768.518L765.502 20.475L764.429 24.477H764.197L763.53 20.765L761.123 12.587H757.875L762.196 27H766.082ZM787.857 10.905V7.57H784.725V10.905H787.857ZM787.857 27V12.587H784.725V27H787.857ZM797.108 27.29C800.356 27.29 802.473 25.724 803.082 22.853H803.285V27H806.156V7.57H803.024V16.502H802.85C802.27 14.066 800.327 12.297 796.905 12.297C792.526 12.297 790.032 15.313 790.032 19.808C790.032 24.245 792.555 27.29 797.108 27.29ZM793.193 19.808C793.193 16.328 794.991 15.139 798.007 15.139C801.226 15.139 803.024 16.647 803.024 19.721V19.953C803.024 22.969 801.139 24.419 798.065 24.419C794.962 24.419 793.193 23.259 793.193 19.808ZM818.506 27V24.187H815.896C814.098 24.187 813.286 23.723 813.286 21.954V15.197H818.506V12.587H813.286V9.426H810.183V12.587H807.747V15.197H810.183V22.128C810.183 25.637 812.097 27 815.2 27H818.506ZM823.597 27V20.011C823.597 16.966 824.815 15.11 828.237 15.11C831.224 15.11 832.529 16.27 832.529 19.17V27H835.632V18.416C835.632 14.907 833.689 12.297 829.716 12.297C826.033 12.297 824.264 14.559 823.771 16.995H823.597V7.57H820.465V27H823.597Z" fill="#FCFBF7"/>
<rect width="1000" height="2" transform="matrix(1 0 0 -1 158 50)" fill="#4D546A"/>
<defs>
<clipPath id="clip0_1044_619">
<rect x="162" y="143" width="1000" height="1051" rx="6" fill="white"/>
</clipPath>
</defs>
</svg>
