<svg width="254" height="220" viewBox="0 0 254 220" fill="none" xmlns="http://www.w3.org/2000/svg">
<rect width="254" height="220" fill="#FCFBF7"/>
<path d="M95 42.1142C95 29.3563 88.3549 25 77.3478 25C66.3406 25 60 29.3563 60 42.1142C60 54.7528 66.2339 59 77.5559 59C88.8776 59 95 54.7372 95 42.1142Z" fill="#D6D9E1"/>
<g clip-path="url(#clip0_1034_733)">
<path fill-rule="evenodd" clip-rule="evenodd" d="M82.6894 43.7827C82.4038 43.6399 81.0037 42.9519 80.743 42.856C80.4823 42.7611 80.2926 42.7142 80.1019 42.9998C79.9121 43.2834 79.3668 43.9255 79.201 44.1153C79.0343 44.306 78.8685 44.329 78.5839 44.1871C78.2992 44.0434 77.3812 43.7434 76.2935 42.7736C75.4472 42.0184 74.8751 41.086 74.7093 40.8004C74.5435 40.5158 74.6911 40.3615 74.8339 40.2196C74.9623 40.0922 75.1185 39.8871 75.2613 39.7213C75.4041 39.5546 75.4511 39.4357 75.546 39.245C75.6418 39.0553 75.5939 38.8895 75.522 38.7467C75.4511 38.6039 74.8818 37.2019 74.6442 36.6316C74.4132 36.0768 74.1784 36.1525 74.004 36.1429C73.8373 36.1352 73.6475 36.1333 73.4577 36.1333C73.268 36.1333 72.9594 36.2042 72.6987 36.4898C72.4371 36.7744 71.7021 37.4635 71.7021 38.8655C71.7021 40.2666 72.7217 41.6207 72.8645 41.8114C73.0073 42.0012 74.8723 44.8781 77.729 46.1115C78.4095 46.4047 78.9394 46.5801 79.3525 46.7104C80.0348 46.928 80.6558 46.8973 81.1465 46.8235C81.6927 46.7421 82.8312 46.1345 83.0689 45.4694C83.3056 44.8043 83.3056 44.2341 83.2347 44.1153C83.1637 43.9964 82.974 43.9255 82.6884 43.7827H82.6894ZM77.4933 50.8773H77.4895C75.7927 50.8776 74.127 50.4214 72.6671 49.5567L72.3221 49.3516L68.736 50.2927L69.6934 46.7967L69.4682 46.4383C68.5196 44.9283 68.0176 43.1807 68.0202 41.3974C68.0221 36.1745 72.2713 31.9253 77.4971 31.9253C80.0271 31.9253 82.4057 32.9124 84.194 34.7025C85.076 35.5809 85.7751 36.6255 86.2508 37.7758C86.7265 38.9261 86.9694 40.1593 86.9655 41.4041C86.9635 46.6271 82.7143 50.8773 77.4933 50.8773V50.8773ZM85.5548 33.3426C84.4989 32.2798 83.2426 31.437 81.8586 30.8632C80.4746 30.2895 78.9905 29.996 77.4923 30C71.2114 30 66.0977 35.1127 66.0958 41.3965C66.0929 43.3963 66.6175 45.3615 67.6167 47.0938L66 53L72.0413 51.4149C73.7125 52.3254 75.5853 52.8025 77.4885 52.8026H77.4933C83.7742 52.8026 88.8879 47.6899 88.8898 41.4051C88.8944 39.9075 88.6021 38.4238 88.0296 37.0399C87.4572 35.656 86.616 34.3994 85.5548 33.3426" fill="black"/>
</g>
<path d="M140 42.1142C140 29.3563 133.355 25 122.348 25C111.341 25 105 29.3563 105 42.1142C105 54.7528 111.234 59 122.556 59C133.878 59 140 54.7372 140 42.1142Z" fill="#D6D9E1"/>
<path fill-rule="evenodd" clip-rule="evenodd" d="M117.465 31.066C118.638 31.012 119.012 31 122 31C124.988 31 125.362 31.013 126.534 31.066C127.706 31.119 128.506 31.306 129.206 31.577C129.939 31.854 130.604 32.287 131.154 32.847C131.714 33.396 132.146 34.06 132.422 34.794C132.694 35.494 132.88 36.294 132.934 37.464C132.988 38.639 133 39.013 133 42C133 44.988 132.987 45.362 132.934 46.535C132.881 47.705 132.694 48.505 132.422 49.205C132.146 49.9391 131.713 50.6042 131.154 51.154C130.604 51.714 129.939 52.146 129.206 52.422C128.506 52.694 127.706 52.88 126.536 52.934C125.362 52.988 124.988 53 122 53C119.012 53 118.638 52.987 117.465 52.934C116.295 52.881 115.495 52.694 114.795 52.422C114.061 52.146 113.396 51.7133 112.846 51.154C112.286 50.6047 111.853 49.9399 111.577 49.206C111.306 48.506 111.12 47.706 111.066 46.536C111.012 45.361 111 44.987 111 42C111 39.012 111.013 38.638 111.066 37.466C111.119 36.294 111.306 35.494 111.577 34.794C111.854 34.0601 112.287 33.3953 112.847 32.846C113.396 32.2865 114.06 31.8534 114.794 31.577C115.494 31.306 116.294 31.12 117.464 31.066H117.465ZM126.445 33.046C125.285 32.993 124.937 32.982 122 32.982C119.063 32.982 118.715 32.993 117.555 33.046C116.482 33.095 115.9 33.274 115.512 33.425C114.999 33.625 114.632 33.862 114.247 34.247C113.882 34.6021 113.601 35.0343 113.425 35.512C113.274 35.9 113.095 36.482 113.046 37.555C112.993 38.715 112.982 39.063 112.982 42C112.982 44.937 112.993 45.285 113.046 46.445C113.095 47.518 113.274 48.1 113.425 48.488C113.601 48.965 113.882 49.398 114.247 49.753C114.602 50.118 115.035 50.399 115.512 50.575C115.9 50.726 116.482 50.905 117.555 50.954C118.715 51.007 119.062 51.018 122 51.018C124.938 51.018 125.285 51.007 126.445 50.954C127.518 50.905 128.1 50.726 128.488 50.575C129.001 50.375 129.368 50.138 129.753 49.753C130.118 49.398 130.399 48.965 130.575 48.488C130.726 48.1 130.905 47.518 130.954 46.445C131.007 45.285 131.018 44.937 131.018 42C131.018 39.063 131.007 38.715 130.954 37.555C130.905 36.482 130.726 35.9 130.575 35.512C130.375 34.999 130.138 34.632 129.753 34.247C129.398 33.8821 128.966 33.6012 128.488 33.425C128.1 33.274 127.518 33.095 126.445 33.046V33.046ZM120.595 45.391C121.38 45.7176 122.253 45.7617 123.067 45.5157C123.88 45.2697 124.583 44.7489 125.056 44.0422C125.528 43.3356 125.74 42.4869 125.656 41.6411C125.572 40.7953 125.197 40.005 124.595 39.405C124.211 39.0215 123.747 38.7278 123.236 38.5451C122.725 38.3625 122.18 38.2954 121.64 38.3486C121.101 38.4019 120.579 38.5742 120.114 38.8531C119.648 39.1321 119.251 39.5107 118.949 39.9619C118.648 40.413 118.45 40.9253 118.371 41.462C118.291 41.9986 118.331 42.5463 118.489 43.0655C118.646 43.5847 118.916 44.0626 119.281 44.4647C119.645 44.8668 120.094 45.1832 120.595 45.391ZM118.002 38.002C118.527 37.477 119.15 37.0605 119.836 36.7764C120.522 36.4922 121.258 36.346 122 36.346C122.742 36.346 123.478 36.4922 124.164 36.7764C124.85 37.0605 125.473 37.477 125.998 38.002C126.523 38.527 126.939 39.1503 127.224 39.8363C127.508 40.5223 127.654 41.2575 127.654 42C127.654 42.7425 127.508 43.4777 127.224 44.1637C126.939 44.8497 126.523 45.473 125.998 45.998C124.938 47.0583 123.5 47.654 122 47.654C120.5 47.654 119.062 47.0583 118.002 45.998C116.942 44.9377 116.346 43.4995 116.346 42C116.346 40.5005 116.942 39.0623 118.002 38.002V38.002ZM128.908 37.188C129.038 37.0653 129.142 36.9177 129.214 36.754C129.286 36.5903 129.325 36.4138 129.327 36.2349C129.33 36.0561 129.297 35.8785 129.229 35.7128C129.162 35.5471 129.062 35.3965 128.936 35.27C128.809 35.1436 128.659 35.0438 128.493 34.9765C128.327 34.9093 128.15 34.876 127.971 34.8786C127.792 34.8812 127.616 34.9197 127.452 34.9917C127.288 35.0637 127.141 35.1679 127.018 35.298C126.779 35.551 126.649 35.8871 126.654 36.2349C126.659 36.5827 126.799 36.9149 127.045 37.1608C127.291 37.4068 127.623 37.5472 127.971 37.5523C128.319 37.5574 128.655 37.4267 128.908 37.188V37.188Z" fill="black"/>
<path d="M185 42.1142C185 29.3563 178.355 25 167.348 25C156.341 25 150 29.3563 150 42.1142C150 54.7528 156.234 59 167.556 59C178.878 59 185 54.7372 185 42.1142Z" fill="#D6D9E1"/>
<path d="M168.544 40.456C167.725 39.6373 166.614 39.1773 165.456 39.1773C164.298 39.1773 163.187 39.6373 162.368 40.456L159.279 43.544C158.46 44.3631 158 45.4741 158 46.6325C158 47.7909 158.46 48.9019 159.279 49.721C160.098 50.5401 161.209 51.0003 162.368 51.0003C163.526 51.0003 164.637 50.5401 165.456 49.721L167 48.177" stroke="black" stroke-width="2" stroke-linecap="round" stroke-linejoin="round"/>
<path d="M165.456 43.544C166.275 44.3628 167.386 44.8227 168.544 44.8227C169.702 44.8227 170.813 44.3628 171.632 43.544L174.721 40.456C175.54 39.6369 176 38.5259 176 37.3675C176 36.2091 175.54 35.0981 174.721 34.279C173.902 33.4599 172.791 32.9997 171.633 32.9997C170.474 32.9997 169.363 33.4599 168.544 34.279L167 35.823" stroke="black" stroke-width="2" stroke-linecap="round" stroke-linejoin="round"/>
<path d="M95 86.1142C95 73.3563 88.3549 69 77.3478 69C66.3406 69 60 73.3563 60 86.1142C60 98.7528 66.2339 103 77.5559 103C88.8776 103 95 98.7372 95 86.1142Z" fill="#D6D9E1"/>
<rect x="75.5" y="69" width="44" height="34" fill="#D6D9E1"/>
<path d="M136 86.1142C136 73.3563 129.355 69 118.348 69C107.341 69 101 73.3563 101 86.1142C101 98.7528 107.234 103 118.556 103C129.878 103 136 98.7372 136 86.1142Z" fill="#D6D9E1"/>
<path d="M70.25 92C69.388 92 68.5614 91.6576 67.9519 91.0481C67.3424 90.4386 67 89.612 67 88.75V80.25C67 79.388 67.3424 78.5614 67.9519 77.9519C68.5614 77.3424 69.388 77 70.25 77H83.75C84.1768 77 84.5994 77.0841 84.9937 77.2474C85.388 77.4107 85.7463 77.6501 86.0481 77.9519C86.3499 78.2537 86.5893 78.612 86.7526 79.0063C86.9159 79.4006 87 79.8232 87 80.25V88.75C87 89.1768 86.9159 89.5994 86.7526 89.9937C86.5893 90.388 86.3499 90.7463 86.0481 91.0481C85.7463 91.3499 85.388 91.5893 84.9937 91.7526C84.5994 91.9159 84.1768 92 83.75 92H78.012L73 95.75C72.8143 95.889 72.5936 95.9736 72.3625 95.9943C72.1315 96.015 71.8992 95.971 71.6918 95.8672C71.4843 95.7634 71.3098 95.6039 71.1878 95.4066C71.0658 95.2093 71.0011 94.982 71.001 94.75V92H70.251H70.25ZM77.514 90.5H83.75C84.2141 90.5 84.6592 90.3156 84.9874 89.9874C85.3156 89.6592 85.5 89.2141 85.5 88.75V80.25C85.5 79.7859 85.3156 79.3408 84.9874 79.0126C84.6592 78.6844 84.2141 78.5 83.75 78.5H70.25C69.7859 78.5 69.3408 78.6844 69.0126 79.0126C68.6844 79.3408 68.5 79.7859 68.5 80.25V88.75C68.5 89.716 69.284 90.5 70.25 90.5H72.499V94.25L77.514 90.5Z" fill="black"/>
<path d="M102.244 83.38V91H103.372V82.324H100.42V83.38H102.244ZM110.779 90.988V89.896H106.771L108.571 88.336C110.107 87.004 110.719 86.128 110.719 84.892C110.719 83.224 109.603 82.168 107.863 82.168C106.099 82.168 104.923 83.38 104.887 85.24H106.063C106.087 84.004 106.783 83.224 107.851 83.224C108.895 83.224 109.519 83.872 109.519 84.964C109.519 85.888 109.123 86.476 107.719 87.688L104.923 90.1V91L110.779 90.988ZM114.392 86.512C115.772 86.512 116.492 87.208 116.492 88.252C116.492 89.368 115.76 90.088 114.632 90.088C113.54 90.088 112.844 89.428 112.844 88.3H111.68C111.68 90.1 112.904 91.144 114.608 91.144C116.372 91.144 117.692 90.028 117.692 88.276C117.692 86.716 116.576 85.72 115.1 85.54L117.476 83.272V82.324H112.088V83.368H115.988L113.528 85.732V86.512H114.392Z" fill="black"/>
<path d="M185 86.1142C185 73.3563 178.355 69 167.348 69C156.341 69 150 73.3563 150 86.1142C150 98.7528 156.234 103 167.556 103C178.878 103 185 98.7372 185 86.1142Z" fill="#D6D9E1"/>
<g clip-path="url(#clip1_1034_733)">
<path fill-rule="evenodd" clip-rule="evenodd" d="M172.751 90.4637C172.23 90.4637 171.797 90.863 171.754 91.3817L171.528 94.1275C171.486 94.6463 171.052 95.0455 170.532 95.0455H166.836C166.338 95.0455 165.915 94.6781 165.846 94.1842L165.212 89.6563C165.15 89.2143 164.803 88.8669 164.361 88.8047L163.301 88.6557C162.699 88.571 162.162 89.0382 162.162 89.6459V90.2274C162.162 90.7796 161.714 91.2274 161.162 91.2274H156.188C155.636 91.2274 155.188 90.7796 155.188 90.2274V76.0001C155.188 75.4478 155.636 75.0001 156.188 75.0001H161.162C161.714 75.0001 162.162 75.4478 162.162 76.0001V76.8637C162.162 77.416 162.609 77.8637 163.162 77.8637H176.32C176.825 77.8637 177.251 78.2404 177.312 78.7418L177.986 84.2258C178.021 84.5126 178.179 84.7702 178.418 84.9321L179.06 85.3668C179.335 85.5528 179.5 85.8631 179.5 86.195V89.4637C179.5 90.016 179.052 90.4637 178.5 90.4637H172.751ZM160.465 77.7183C160.465 77.166 160.018 76.7183 159.465 76.7183H157.885C157.332 76.7183 156.885 77.166 156.885 77.7183V88.5092C156.885 89.0615 157.332 89.5092 157.885 89.5092H159.465C160.018 89.5092 160.465 89.0615 160.465 88.5092V77.7183ZM177.804 87.1118C177.804 86.7796 177.639 86.4692 177.364 86.2832L176.827 85.9207C176.588 85.759 176.43 85.5017 176.395 85.2151L175.806 80.4589C175.743 79.958 175.318 79.5819 174.813 79.5819H163.162C162.609 79.5819 162.162 80.0296 162.162 80.5819V85.9549C162.162 86.4636 162.543 86.8912 163.049 86.9485L165.836 87.2645C166.29 87.3159 166.651 87.6681 166.714 88.1204L167.319 92.4651C167.387 92.9594 167.81 93.3274 168.309 93.3274H168.967C169.488 93.3274 169.921 92.9281 169.964 92.4093L170.19 89.6635C170.233 89.1448 170.666 88.7455 171.187 88.7455H176.804C177.356 88.7455 177.804 88.2978 177.804 87.7455V87.1118Z" fill="#121419"/>
</g>
<g filter="url(#filter0_d_1034_733)">
<path d="M140 174.114C140 161.356 133.355 157 122.348 157C111.341 157 105 161.356 105 174.114C105 186.753 111.234 191 122.556 191C133.878 191 140 186.737 140 174.114Z" fill="#FCFBF7"/>
</g>
<path d="M125.01 164.918L125.236 167.664C125.279 168.183 125.712 168.582 126.233 168.582H133.312C133.864 168.582 134.312 169.03 134.312 169.582V172.85C134.312 173.182 134.147 173.493 133.872 173.679L133.23 174.113C132.99 174.275 132.833 174.533 132.797 174.82L132.124 180.304C132.062 180.805 131.637 181.182 131.131 181.182H117.973C117.421 181.182 116.973 181.63 116.973 182.182V183.045C116.973 183.598 116.525 184.045 115.973 184.045H111C110.448 184.045 110 183.598 110 183.045V168.818C110 168.266 110.448 167.818 111 167.818H115.973C116.525 167.818 116.973 168.266 116.973 168.818V169.4C116.973 170.007 117.511 170.474 118.112 170.39L119.172 170.241C119.614 170.179 119.961 169.831 120.023 169.389L120.657 164.861C120.727 164.367 121.149 164 121.648 164H124.013C124.534 164 124.967 164.399 125.01 164.918Z" fill="#232630"/>
<g filter="url(#filter1_d_1034_733)">
<path d="M130 130.114C130 117.356 136.341 113 147.348 113H188.348C199.355 113 206 117.356 206 130.114C206 142.737 199.878 147 188.556 147H147.556C136.234 147 130 142.753 130 130.114Z" fill="#FCFBF7"/>
</g>
<path d="M172.244 127.38V135H173.372V126.324H170.42V127.38H172.244ZM180.779 134.988V133.896H176.771L178.571 132.336C180.107 131.004 180.719 130.128 180.719 128.892C180.719 127.224 179.603 126.168 177.863 126.168C176.099 126.168 174.923 127.38 174.887 129.24H176.063C176.087 128.004 176.783 127.224 177.851 127.224C178.895 127.224 179.519 127.872 179.519 128.964C179.519 129.888 179.123 130.476 177.719 131.688L174.923 134.1V135L180.779 134.988ZM188.095 133.248V132.204H187.063V126.324H185.539L181.447 132.204V133.248H185.935V135H187.063V133.248H188.095ZM182.719 132.204L185.935 127.572V132.204H182.719Z" fill="black"/>
<g clip-path="url(#clip2_1034_733)">
<path d="M151.699 119.872L151.924 122.618C151.967 123.137 152.401 123.536 152.921 123.536H160C160.552 123.536 161 123.984 161 124.536V127.805C161 128.137 160.835 128.447 160.56 128.633L159.918 129.068C159.679 129.23 159.521 129.487 159.486 129.774L158.812 135.258C158.751 135.76 158.325 136.136 157.82 136.136H144.662C144.109 136.136 143.662 136.584 143.662 137.136V138C143.662 138.552 143.214 139 142.662 139H137.688C137.136 139 136.688 138.552 136.688 138V123.773C136.688 123.22 137.136 122.773 137.688 122.773H142.662C143.214 122.773 143.662 123.22 143.662 123.773V124.354C143.662 124.962 144.199 125.429 144.801 125.344L145.861 125.195C146.303 125.133 146.65 124.786 146.712 124.344L147.346 119.816C147.415 119.322 147.838 118.954 148.336 118.954H150.702C151.222 118.954 151.656 119.354 151.699 119.872Z" fill="#232630"/>
</g>
<path d="M75 130.114C75 117.356 68.3549 113 57.3478 113C46.3406 113 40 117.356 40 130.114C40 142.753 46.2339 147 57.5559 147C68.8776 147 75 142.737 75 130.114Z" fill="#D6D9E1"/>
<rect x="56.5" y="113" width="43" height="34" fill="#D6D9E1"/>
<path d="M116 130.114C116 117.356 109.355 113 98.3478 113C87.3406 113 81 117.356 81 130.114C81 142.753 87.2339 147 98.5559 147C109.878 147 116 142.737 116 130.114Z" fill="#D6D9E1"/>
<path d="M82.244 127.38V135H83.372V126.324H80.42V127.38H82.244ZM90.7791 134.988V133.896H86.7711L88.5711 132.336C90.1071 131.004 90.7191 130.128 90.7191 128.892C90.7191 127.224 89.6031 126.168 87.8631 126.168C86.0991 126.168 84.9231 127.38 84.8871 129.24H86.0631C86.0871 128.004 86.7831 127.224 87.8511 127.224C88.8951 127.224 89.5191 127.872 89.5191 128.964C89.5191 129.888 89.1231 130.476 87.7191 131.688L84.9231 134.1V135L90.7791 134.988ZM94.3923 130.512C95.7723 130.512 96.4923 131.208 96.4923 132.252C96.4923 133.368 95.7603 134.088 94.6323 134.088C93.5403 134.088 92.8443 133.428 92.8443 132.3H91.6803C91.6803 134.1 92.9043 135.144 94.6083 135.144C96.3723 135.144 97.6923 134.028 97.6923 132.276C97.6923 130.716 96.5763 129.72 95.1003 129.54L97.4763 127.272V126.324H92.0883V127.368H95.9883L93.5283 129.732V130.512H94.3923Z" fill="black"/>
<g clip-path="url(#clip3_1034_733)">
<path fill-rule="evenodd" clip-rule="evenodd" d="M64.2507 123.536C63.7302 123.536 63.2968 123.137 63.2541 122.618L63.0282 119.872C62.9856 119.354 62.5521 118.954 62.0316 118.954H58.3363C57.8376 118.954 57.4151 119.322 57.346 119.816L56.7118 124.344C56.6499 124.786 56.3026 125.133 55.8607 125.195L54.8008 125.344C54.1991 125.429 53.6616 124.962 53.6616 124.354V123.773C53.6616 123.22 53.2138 122.773 52.6616 122.773H47.6885C47.1362 122.773 46.6885 123.22 46.6885 123.773V138C46.6885 138.552 47.1362 139 47.6885 139H52.6616C53.2138 139 53.6616 138.552 53.6616 138V137.136C53.6616 136.584 54.1093 136.136 54.6616 136.136H67.8198C68.325 136.136 68.7508 135.76 68.8124 135.258L69.4859 129.774C69.5211 129.487 69.6787 129.23 69.918 129.068L70.5604 128.633C70.8353 128.447 71 128.137 71 127.805V124.536C71 123.984 70.5523 123.536 70 123.536H64.2507ZM51.9654 136.282C51.9654 136.834 51.5177 137.282 50.9654 137.282H49.3846C48.8323 137.282 48.3846 136.834 48.3846 136.282V125.491C48.3846 124.939 48.8323 124.491 49.3846 124.491H50.9654C51.5177 124.491 51.9654 124.939 51.9654 125.491V136.282ZM69.3039 126.888C69.3039 127.22 69.139 127.531 68.8638 127.717L68.3273 128.079C68.088 128.241 67.9303 128.498 67.8948 128.785L67.3055 133.541C67.2435 134.042 66.8179 134.418 66.3131 134.418H54.6616C54.1093 134.418 53.6616 133.97 53.6616 133.418V128.045C53.6616 127.536 54.0434 127.109 54.5489 127.052L57.3364 126.736C57.7901 126.684 58.1513 126.332 58.2142 125.88L58.8185 121.535C58.8873 121.041 59.31 120.673 59.809 120.673H60.4674C60.9879 120.673 61.4213 121.072 61.464 121.591L61.6899 124.336C61.7326 124.855 62.166 125.254 62.6865 125.254H68.3039C68.8561 125.254 69.3039 125.702 69.3039 126.254V126.888Z" fill="#121419"/>
</g>
<defs>
<filter id="filter0_d_1034_733" x="86" y="142" width="65" height="64" filterUnits="userSpaceOnUse" color-interpolation-filters="sRGB">
<feFlood flood-opacity="0" result="BackgroundImageFix"/>
<feColorMatrix in="SourceAlpha" type="matrix" values="0 0 0 0 0 0 0 0 0 0 0 0 0 0 0 0 0 0 127 0" result="hardAlpha"/>
<feOffset dx="-4"/>
<feGaussianBlur stdDeviation="7.5"/>
<feComposite in2="hardAlpha" operator="out"/>
<feColorMatrix type="matrix" values="0 0 0 0 0.137255 0 0 0 0 0.14902 0 0 0 0 0.188235 0 0 0 0.13 0"/>
<feBlend mode="normal" in2="BackgroundImageFix" result="effect1_dropShadow_1034_733"/>
<feBlend mode="normal" in="SourceGraphic" in2="effect1_dropShadow_1034_733" result="shape"/>
</filter>
<filter id="filter1_d_1034_733" x="111" y="98" width="106" height="64" filterUnits="userSpaceOnUse" color-interpolation-filters="sRGB">
<feFlood flood-opacity="0" result="BackgroundImageFix"/>
<feColorMatrix in="SourceAlpha" type="matrix" values="0 0 0 0 0 0 0 0 0 0 0 0 0 0 0 0 0 0 127 0" result="hardAlpha"/>
<feOffset dx="-4"/>
<feGaussianBlur stdDeviation="7.5"/>
<feComposite in2="hardAlpha" operator="out"/>
<feColorMatrix type="matrix" values="0 0 0 0 0.137255 0 0 0 0 0.14902 0 0 0 0 0.188235 0 0 0 0.13 0"/>
<feBlend mode="normal" in2="BackgroundImageFix" result="effect1_dropShadow_1034_733"/>
<feBlend mode="normal" in="SourceGraphic" in2="effect1_dropShadow_1034_733" result="shape"/>
</filter>
<clipPath id="clip0_1034_733">
<rect width="23" height="23" fill="white" transform="translate(66 30)"/>
</clipPath>
<clipPath id="clip1_1034_733">
<rect width="24.5" height="21" fill="white" transform="matrix(1 0 0 -1 155 96)"/>
</clipPath>
<clipPath id="clip2_1034_733">
<rect width="24.5" height="21" fill="white" transform="translate(136.5 118)"/>
</clipPath>
<clipPath id="clip3_1034_733">
<rect width="24.5" height="21" fill="white" transform="translate(46.5 118)"/>
</clipPath>
</defs>
</svg>
