<svg width="414" height="92" viewBox="0 0 414 92" fill="none" xmlns="http://www.w3.org/2000/svg">
<g filter="url(#filter0_bd_1055_1050)">
<rect width="414" height="91" transform="translate(0 1)" fill="#FCFBF7"/>
<rect x="141" y="79" width="134" height="5" rx="2.5" fill="#121419"/>
</g>
<rect x="28.5" y="8.5" width="358" height="47" rx="2.5" fill="#FCFBF7" stroke="#B8BDCB"/>
<path d="M45.685 38.165C47.995 38.165 49.87 36.8 50.365 34.775H49.21C48.745 36.215 47.395 37.13 45.7 37.13C43.345 37.13 41.77 35.33 41.77 32.63C41.77 29.915 43.345 28.115 45.7 28.115C47.38 28.115 48.7 29.06 49.15 30.605H50.305C49.87 28.475 48.055 27.08 45.745 27.08C42.715 27.08 40.645 29.33 40.645 32.63C40.645 35.93 42.685 38.165 45.685 38.165ZM51.4977 34.37C51.4977 36.575 53.0577 38.18 55.1877 38.18C57.3177 38.18 58.8777 36.575 58.8777 34.37C58.8777 32.15 57.3177 30.545 55.1877 30.545C53.0577 30.545 51.4977 32.15 51.4977 34.37ZM52.5477 34.355C52.5477 32.675 53.6277 31.475 55.1877 31.475C56.7327 31.475 57.8277 32.675 57.8277 34.355C57.8277 36.065 56.7327 37.25 55.1877 37.25C53.6277 37.25 52.5477 36.065 52.5477 34.355ZM61.5681 38V33.5C61.5681 32.39 62.3031 31.49 63.5181 31.49C64.6131 31.49 65.3181 32.21 65.3181 33.44V38H66.3381V33.515C66.3381 32.39 67.0581 31.475 68.2731 31.475C69.3831 31.475 70.0731 32.21 70.0731 33.455V38H71.0781V33.245C71.0781 31.565 70.0431 30.545 68.4681 30.545C67.2981 30.545 66.4131 31.145 66.0831 32.09C65.7381 31.145 64.8831 30.545 63.7431 30.545C62.7231 30.545 61.9131 31.01 61.5531 31.775L61.4331 30.74H60.5331V38H61.5681ZM76.2051 38.18C77.9151 38.18 79.0401 37.355 79.4301 35.825H78.4401C78.1701 36.785 77.4051 37.295 76.2201 37.295C74.6601 37.295 73.7301 36.275 73.6551 34.505H79.4301V33.995C79.4301 31.94 78.0951 30.545 76.1301 30.545C74.0601 30.545 72.6501 32.105 72.6501 34.37C72.6501 36.65 74.0751 38.18 76.2051 38.18ZM76.1301 31.43C77.4951 31.43 78.3951 32.36 78.3951 33.755H73.6851C73.8651 32.33 74.7651 31.43 76.1301 31.43ZM82.1199 38V34.205C82.1199 32.57 82.9599 31.49 84.4449 31.49C85.6449 31.49 86.4099 32.09 86.4099 33.785V38H87.4449V33.56C87.4449 31.73 86.6199 30.545 84.6249 30.545C83.5749 30.545 82.6149 31.07 82.1349 32L81.9849 30.74H81.0849V38H82.1199ZM91.1727 38V31.61H92.6277V30.74H91.1727V28.445H90.1527V30.74H88.6977V31.61H90.1527V38H91.1727ZM95.9433 38.18C97.1733 38.18 98.1633 37.64 98.6133 36.725L98.7483 38H99.6183V33.305C99.6183 31.385 98.3883 30.545 96.7083 30.545C94.9233 30.545 93.7233 31.49 93.7233 32.96H94.6683C94.6683 31.985 95.4183 31.415 96.6783 31.415C97.7433 31.415 98.5983 31.865 98.5983 33.29V33.53L96.1983 33.725C94.5033 33.86 93.4833 34.7 93.4833 36.035C93.4833 37.31 94.3983 38.18 95.9433 38.18ZM96.1833 37.34C95.1933 37.34 94.5333 36.89 94.5333 36.005C94.5333 35.195 95.0883 34.595 96.4533 34.475L98.5983 34.31V34.7C98.5983 36.275 97.7133 37.34 96.1833 37.34Z" fill="#636D87"/>
<path d="M356.329 38C355.468 38 354.641 37.6576 354.031 37.0481C353.422 36.4386 353.079 35.612 353.079 34.75V26.25C353.079 25.388 353.422 24.5614 354.031 23.9519C354.641 23.3424 355.468 23 356.329 23H369.829C370.256 23 370.679 23.0841 371.073 23.2474C371.467 23.4107 371.826 23.6501 372.128 23.9519C372.429 24.2537 372.669 24.612 372.832 25.0063C372.995 25.4006 373.079 25.8232 373.079 26.25V34.75C373.079 35.1768 372.995 35.5994 372.832 35.9937C372.669 36.388 372.429 36.7463 372.128 37.0481C371.826 37.3499 371.467 37.5893 371.073 37.7526C370.679 37.9159 370.256 38 369.829 38H364.091L359.079 41.75C358.894 41.889 358.673 41.9736 358.442 41.9943C358.211 42.015 357.979 41.971 357.771 41.8672C357.564 41.7634 357.389 41.6039 357.267 41.4066C357.145 41.2093 357.081 40.982 357.08 40.75V38H356.33H356.329ZM363.593 36.5H369.829C370.294 36.5 370.739 36.3156 371.067 35.9874C371.395 35.6592 371.579 35.2141 371.579 34.75V26.25C371.579 25.7859 371.395 25.3408 371.067 25.0126C370.739 24.6844 370.294 24.5 369.829 24.5H356.329C355.865 24.5 355.42 24.6844 355.092 25.0126C354.764 25.3408 354.579 25.7859 354.579 26.25V34.75C354.579 35.716 355.363 36.5 356.329 36.5H358.578V40.25L363.593 36.5Z" fill="#4D546A"/>
<line x1="338.5" y1="9" x2="338.5" y2="55" stroke="#B8BDCB"/>
<defs>
<filter id="filter0_bd_1055_1050" x="-20" y="-19" width="454" height="131" filterUnits="userSpaceOnUse" color-interpolation-filters="sRGB">
<feFlood flood-opacity="0" result="BackgroundImageFix"/>
<feGaussianBlur in="BackgroundImage" stdDeviation="10"/>
<feComposite in2="SourceAlpha" operator="in" result="effect1_backgroundBlur_1055_1050"/>
<feColorMatrix in="SourceAlpha" type="matrix" values="0 0 0 0 0 0 0 0 0 0 0 0 0 0 0 0 0 0 127 0" result="hardAlpha"/>
<feOffset dy="-0.5"/>
<feColorMatrix type="matrix" values="0 0 0 0 0 0 0 0 0 0 0 0 0 0 0 0 0 0 0.3 0"/>
<feBlend mode="normal" in2="effect1_backgroundBlur_1055_1050" result="effect2_dropShadow_1055_1050"/>
<feBlend mode="normal" in="SourceGraphic" in2="effect2_dropShadow_1055_1050" result="shape"/>
</filter>
</defs>
</svg>
