<svg width="414" height="84" viewBox="0 0 414 84" fill="none" xmlns="http://www.w3.org/2000/svg">
<g filter="url(#filter0_bd_1055_896)">
<rect width="414" height="83" transform="translate(0 1)" fill="#121419"/>
<g clip-path="url(#clip0_1055_896)">
<path d="M32.5002 36.6827C32.1431 37.1556 31.4645 37.2371 31.0056 36.8621L18.9181 26.9848C17.694 25.9845 17.694 24.1133 18.9181 23.1131L31.0056 13.2358C31.4645 12.8608 32.1431 12.9422 32.5002 13.4152C32.8386 13.8632 32.7623 14.4984 32.3276 14.8536L22.22 23.1131C20.9959 24.1133 20.9959 25.9845 22.22 26.9848L32.3276 35.2442C32.7623 35.5994 32.8386 36.2347 32.5002 36.6827Z" fill="#636D87"/>
<path fill-rule="evenodd" clip-rule="evenodd" d="M45.7157 25.3203C45.7157 25.7804 45.3426 26.1536 44.8823 26.1536H19.9559C19.4957 26.1536 19.1226 25.7804 19.1226 25.3203V24.7567C19.1226 24.2964 19.4957 23.9233 19.9559 23.9233H44.8823C45.3426 23.9233 45.7157 24.2964 45.7157 24.7567V25.3203Z" fill="#636D87"/>
</g>
<g clip-path="url(#clip1_1055_896)">
<path d="M348.167 34.7841C348.167 37.9403 346.625 39 343.774 39C340.922 39 339.352 37.9403 339.352 34.7841V34.7386L327.656 27.9985C327.207 29.9678 325.744 30.6705 323.422 30.6705C320.571 30.6705 319 29.6108 319 26.4545C319 23.2983 320.597 22.1863 323.368 22.1863C325.693 22.1863 327.243 22.9503 327.685 25.0697L339.352 18.3456C339.352 18.3205 339.352 18.2933 339.352 18.2682C339.352 15.087 340.949 14 343.722 14C346.495 14 348.167 15.087 348.167 18.2682C348.167 21.4495 346.625 22.4842 343.774 22.4842C341.737 22.4842 340.354 21.943 339.735 20.4831L329.217 26.5432L339.715 32.5942C340.33 31.082 341.721 30.5158 343.722 30.5158C346.495 30.5158 348.167 31.6028 348.167 34.7841Z" fill="#636D87"/>
</g>
<g clip-path="url(#clip2_1055_896)">
<path fill-rule="evenodd" clip-rule="evenodd" d="M251.833 13.9996C251.373 13.9996 251 14.3727 251 14.833V32.9485C251 33.4087 251.373 33.7818 251.833 33.7818H261.404C261.669 33.7818 261.918 33.9078 262.075 34.1213L264.993 38.087C265.326 38.5398 266.002 38.5396 266.335 38.0868L269.251 34.1215C269.408 33.9079 269.657 33.7818 269.922 33.7818H279.333C279.794 33.7818 280.167 33.4087 280.167 32.9485V14.833C280.167 14.3727 279.794 13.9996 279.333 13.9996H251.833ZM266.193 34.827C265.93 35.1837 265.398 35.1839 265.135 34.8274C264.816 34.394 265.125 33.7818 265.664 33.7818C266.202 33.7818 266.511 34.3935 266.193 34.827ZM278.147 30.8539C278.147 31.3141 277.774 31.6873 277.314 31.6873H253.853C253.392 31.6873 253.019 31.3141 253.019 30.8539V16.9275C253.019 16.4673 253.392 16.0942 253.853 16.0942H277.314C277.774 16.0942 278.147 16.4673 278.147 16.9275V30.8539Z" fill="#636D87"/>
</g>
<path d="M382.933 20.2134C385.146 20.2134 385.905 19.0338 385.905 17.0793C385.905 15.1247 385.146 14 382.933 14C380.72 14 380 15.1064 380 17.1159C380 19.1253 380.738 20.2134 382.933 20.2134Z" fill="#636D87"/>
<path d="M382.933 29.5222C385.146 29.5222 385.905 28.3426 385.905 26.388C385.905 24.4335 385.146 23.3179 382.933 23.3179C380.72 23.3179 380 24.4152 380 26.4246C380 28.434 380.738 29.5222 382.933 29.5222Z" fill="#636D87"/>
<path d="M382.933 39C385.146 39 385.905 37.8205 385.905 35.8659C385.905 33.9113 385.15 32.7866 382.933 32.7866C380.716 32.7866 380 33.8931 380 35.9025C380 37.9119 380.738 39 382.933 39Z" fill="#636D87"/>
<rect x="141" y="71" width="134" height="5" rx="2.5" fill="#D6D9E1"/>
</g>
<defs>
<filter id="filter0_bd_1055_896" x="-20" y="-19" width="454" height="123" filterUnits="userSpaceOnUse" color-interpolation-filters="sRGB">
<feFlood flood-opacity="0" result="BackgroundImageFix"/>
<feGaussianBlur in="BackgroundImage" stdDeviation="10"/>
<feComposite in2="SourceAlpha" operator="in" result="effect1_backgroundBlur_1055_896"/>
<feColorMatrix in="SourceAlpha" type="matrix" values="0 0 0 0 0 0 0 0 0 0 0 0 0 0 0 0 0 0 127 0" result="hardAlpha"/>
<feOffset dy="-0.5"/>
<feColorMatrix type="matrix" values="0 0 0 0 0 0 0 0 0 0 0 0 0 0 0 0 0 0 0.3 0"/>
<feBlend mode="normal" in2="effect1_backgroundBlur_1055_896" result="effect2_dropShadow_1055_896"/>
<feBlend mode="normal" in="SourceGraphic" in2="effect2_dropShadow_1055_896" result="shape"/>
</filter>
<clipPath id="clip0_1055_896">
<rect width="57.7157" height="36.0979" fill="white" transform="translate(0 1)"/>
</clipPath>
<clipPath id="clip1_1055_896">
<rect width="29.1667" height="25" fill="white" transform="translate(319 14)"/>
</clipPath>
<clipPath id="clip2_1055_896">
<rect width="29.1667" height="25" fill="white" transform="translate(251 14)"/>
</clipPath>
</defs>
</svg>
