<svg width="414" height="84" viewBox="0 0 414 84" fill="none" xmlns="http://www.w3.org/2000/svg">
<g filter="url(#filter0_bd_1055_896)">
<rect width="414" height="83" transform="translate(0 1)" fill="#FCFBF7"/>
<path d="M52.0614 42.2365C53.4314 42.2365 54.3114 41.2565 54.3114 39.9565C54.3114 38.6065 53.4414 37.7065 52.0614 37.7065H49.3314V44.8665H50.0514V42.2365H52.0614ZM51.9614 38.3565C52.9514 38.3565 53.5614 38.9565 53.5614 39.9465C53.5614 40.9265 52.9614 41.5865 51.9214 41.5865H50.0514V38.3565H51.9614ZM57.854 39.9665C57.684 39.9265 57.554 39.9165 57.404 39.9165C56.724 39.9165 56.214 40.2565 56.024 40.7765L55.974 40.0265H55.324V44.8665H56.014V42.1065C56.014 41.1865 56.584 40.5865 57.474 40.5865H57.854V39.9665ZM59.1113 38.6965C59.3913 38.6965 59.6313 38.4665 59.6313 38.1865C59.6313 37.9065 59.3913 37.6665 59.1113 37.6665C58.8313 37.6665 58.6013 37.9065 58.6013 38.1865C58.6013 38.4665 58.8313 38.6965 59.1113 38.6965ZM58.7713 44.8665H59.4613V40.0265H58.7713V44.8665ZM61.5902 44.8665V42.3365C61.5902 41.2465 62.1502 40.5265 63.1402 40.5265C63.9402 40.5265 64.4502 40.9265 64.4502 42.0565V44.8665H65.1402V41.9065C65.1402 40.6865 64.5902 39.8965 63.2602 39.8965C62.5602 39.8965 61.9202 40.2465 61.6002 40.8665L61.5002 40.0265H60.9002V44.8665H61.5902ZM66.1754 42.4565C66.1754 43.9765 67.1054 44.9865 68.4754 44.9865C69.5754 44.9865 70.4354 44.3365 70.6654 43.3465H69.9654C69.7754 43.9665 69.1954 44.3665 68.4754 44.3665C67.4954 44.3665 66.8554 43.5965 66.8554 42.4465C66.8554 41.2565 67.5454 40.5065 68.5254 40.5065C69.1954 40.5065 69.7754 40.8765 69.9554 41.5465H70.6454C70.4554 40.5465 69.6354 39.8965 68.5154 39.8965C67.1054 39.8965 66.1754 40.9365 66.1754 42.4565ZM72.0507 38.6965C72.3307 38.6965 72.5707 38.4665 72.5707 38.1865C72.5707 37.9065 72.3307 37.6665 72.0507 37.6665C71.7707 37.6665 71.5407 37.9065 71.5407 38.1865C71.5407 38.4665 71.7707 38.6965 72.0507 38.6965ZM71.7107 44.8665H72.4007V40.0265H71.7107V44.8665ZM73.8396 46.9765H74.5296V43.9365C74.8696 44.6365 75.5196 44.9865 76.3396 44.9865C77.7696 44.9865 78.5796 43.8865 78.5796 42.4265C78.5796 40.9665 77.7396 39.8965 76.3396 39.8965C75.5296 39.8965 74.8496 40.2565 74.5096 41.0065L74.4396 40.0265H73.8396V46.9765ZM74.5396 42.4465C74.5396 41.3265 75.1596 40.5265 76.2196 40.5265C77.2696 40.5265 77.8796 41.3265 77.8796 42.4465C77.8796 43.5565 77.2696 44.3665 76.2196 44.3665C75.1596 44.3665 74.5396 43.5565 74.5396 42.4465ZM81.0695 44.9865C81.8895 44.9865 82.5495 44.6265 82.8495 44.0165L82.9395 44.8665H83.5195V41.7365C83.5195 40.4565 82.6995 39.8965 81.5795 39.8965C80.3895 39.8965 79.5895 40.5265 79.5895 41.5065H80.2195C80.2195 40.8565 80.7195 40.4765 81.5595 40.4765C82.2695 40.4765 82.8395 40.7765 82.8395 41.7265V41.8865L81.2395 42.0165C80.1095 42.1065 79.4295 42.6665 79.4295 43.5565C79.4295 44.4065 80.0395 44.9865 81.0695 44.9865ZM81.2295 44.4265C80.5695 44.4265 80.1295 44.1265 80.1295 43.5365C80.1295 42.9965 80.4995 42.5965 81.4095 42.5165L82.8395 42.4065V42.6665C82.8395 43.7165 82.2495 44.4265 81.2295 44.4265ZM85.6241 44.8665V37.5765H84.9341V44.8665H85.6241Z" fill="#232630"/>
<path d="M61.0125 31V15.3563H56.3333V31H61.0125Z" fill="#232630"/>
<path d="M68.141 31V23.1001C68.141 20.446 69.2016 19.2594 72.1651 19.2594C75.035 19.2594 76.0645 20.3211 76.0645 22.8191V31H80.7437V21.2578C80.7437 17.7919 78.716 15.0441 74.4423 15.0441C70.3558 15.0441 68.4841 17.5421 68.0786 20.165H67.7978V15.3563H63.4618V31H68.141Z" fill="#232630"/>
<path d="M67.4646 13.6845C67.4646 13.6845 76.7161 10.3795 80.7437 10.3795V10L56 10V13.6845H67.4646Z" fill="#232630"/>
<path d="M152.806 44.8665V43.6865H149.546V41.7465H152.466V40.6165H149.546V38.7365H152.806V37.5565H148.266V44.8665H152.806ZM154.873 44.8665L155.913 43.2365L156.963 44.8665H158.363L156.733 42.4265L158.413 39.9265H157.043L155.993 41.6065L154.903 39.9265H153.483L155.183 42.4465L153.483 44.8665H154.873ZM159.14 47.1565H160.36V44.2065C160.67 44.7065 161.31 44.9965 162.05 44.9965C163.52 44.9965 164.36 43.8765 164.36 42.3365C164.36 40.7865 163.44 39.7765 162.05 39.7765C161.3 39.7765 160.65 40.1065 160.35 40.6765L160.27 39.9265H159.14V47.1565ZM160.37 42.3965C160.37 41.5065 160.92 40.8865 161.76 40.8865C162.62 40.8865 163.13 41.5165 163.13 42.3965C163.13 43.2765 162.62 43.8965 161.76 43.8965C160.92 43.8965 160.37 43.2865 160.37 42.3965ZM166.562 44.8665V37.4265H165.352V44.8665H166.562ZM167.551 42.3865C167.551 43.9265 168.661 44.9865 170.191 44.9865C171.721 44.9865 172.831 43.9265 172.831 42.3865C172.831 40.8465 171.721 39.7865 170.191 39.7865C168.661 39.7865 167.551 40.8465 167.551 42.3865ZM168.771 42.3865C168.771 41.4865 169.351 40.8765 170.191 40.8765C171.031 40.8765 171.611 41.4865 171.611 42.3865C171.611 43.2865 171.031 43.8965 170.191 43.8965C169.351 43.8965 168.771 43.2865 168.771 42.3865ZM176.898 39.9065C176.698 39.8565 176.528 39.8365 176.358 39.8365C175.698 39.8365 175.228 40.1665 175.018 40.6565L174.948 39.9365H173.798V44.8665H175.018V42.4665C175.018 41.5065 175.568 41.0365 176.448 41.0365H176.898V39.9065ZM178.999 44.9965C179.769 44.9965 180.439 44.6465 180.649 44.1365L180.739 44.8665H181.809V41.8665C181.809 40.4965 180.989 39.7765 179.659 39.7765C178.319 39.7765 177.439 40.4765 177.439 41.5465H178.479C178.479 41.0265 178.879 40.7265 179.599 40.7265C180.219 40.7265 180.619 40.9965 180.619 41.6665V41.7765L179.139 41.8865C177.969 41.9765 177.309 42.5465 177.309 43.4565C177.309 44.3865 177.949 44.9965 178.999 44.9965ZM179.399 44.0765C178.849 44.0765 178.549 43.8565 178.549 43.4065C178.549 43.0065 178.839 42.7565 179.599 42.6865L180.629 42.6065V42.8665C180.629 43.6265 180.149 44.0765 179.399 44.0765Z" fill="#121419"/>
<g clip-path="url(#clip0_1055_896)">
<path fill-rule="evenodd" clip-rule="evenodd" d="M170.188 23.3672C171.245 22.0235 171.807 20.0971 171.807 17.4463C171.807 11.1247 168.636 9 162.875 9C157.114 9 154 11.1247 154 17.4463C154 23.8205 157.379 25.9978 162.983 25.9978C165.411 25.9978 167.386 25.5931 168.851 24.6076L173.707 31L175.156 29.8992L170.188 23.3672ZM157.584 22.7358C156.578 21.8637 155.821 20.3319 155.821 17.4463C155.821 14.5607 156.531 13.0572 157.483 12.2195C158.484 11.3352 160.156 10.8212 162.875 10.8212C165.595 10.8212 167.287 11.3352 168.304 12.2235C169.268 13.0653 169.986 14.5648 169.986 17.4463C169.986 20.3278 169.256 21.888 168.284 22.7601C167.272 23.6646 165.603 24.1766 162.983 24.1766C160.362 24.1766 158.654 23.6565 157.584 22.7358Z" fill="#121419"/>
</g>
<path d="M127 1H203V1C203 2.65685 201.657 4 200 4H130C128.343 4 127 2.65685 127 1V1Z" fill="#E73A02"/>
<path d="M219.093 44.8665V38.9065L223.043 44.8665H223.753V37.7065H223.043V43.6665L219.103 37.7065H218.373V44.8665H219.093ZM225.012 42.4465C225.012 43.9165 226.052 44.9865 227.472 44.9865C228.892 44.9865 229.932 43.9165 229.932 42.4465C229.932 40.9665 228.892 39.8965 227.472 39.8965C226.052 39.8965 225.012 40.9665 225.012 42.4465ZM225.712 42.4365C225.712 41.3165 226.432 40.5165 227.472 40.5165C228.502 40.5165 229.232 41.3165 229.232 42.4365C229.232 43.5765 228.502 44.3665 227.472 44.3665C226.432 44.3665 225.712 43.5765 225.712 42.4365ZM232.097 44.8665V40.6065H233.067V40.0265H232.097V38.4965H231.417V40.0265H230.447V40.6065H231.417V44.8665H232.097ZM234.306 38.6965C234.586 38.6965 234.826 38.4665 234.826 38.1865C234.826 37.9065 234.586 37.6665 234.306 37.6665C234.026 37.6665 233.796 37.9065 233.796 38.1865C233.796 38.4665 234.026 38.6965 234.306 38.6965ZM233.966 44.8665H234.656V40.0265H233.966V44.8665ZM239.285 44.8665H239.975V40.0265H236.985V39.0865C236.985 38.5165 237.145 38.2165 237.725 38.2165H238.145V37.6165C237.985 37.5865 237.775 37.5765 237.605 37.5765C236.885 37.5765 236.295 37.9965 236.295 39.0865V40.0265H235.555V40.6065H236.295V44.8665H236.985V40.6065H239.285V44.8665ZM239.625 38.6465C239.895 38.6465 240.105 38.4465 240.105 38.1665C240.105 37.8865 239.895 37.6765 239.625 37.6765C239.345 37.6765 239.145 37.8865 239.145 38.1665C239.145 38.4465 239.345 38.6465 239.625 38.6465ZM241.047 42.4565C241.047 43.9765 241.977 44.9865 243.347 44.9865C244.447 44.9865 245.307 44.3365 245.537 43.3465H244.837C244.647 43.9665 244.067 44.3665 243.347 44.3665C242.367 44.3665 241.727 43.5965 241.727 42.4465C241.727 41.2565 242.417 40.5065 243.397 40.5065C244.067 40.5065 244.647 40.8765 244.827 41.5465H245.517C245.327 40.5465 244.507 39.8965 243.387 39.8965C241.977 39.8965 241.047 40.9365 241.047 42.4565ZM247.973 44.9865C248.793 44.9865 249.453 44.6265 249.753 44.0165L249.843 44.8665H250.423V41.7365C250.423 40.4565 249.603 39.8965 248.483 39.8965C247.293 39.8965 246.493 40.5265 246.493 41.5065H247.123C247.123 40.8565 247.623 40.4765 248.463 40.4765C249.173 40.4765 249.743 40.7765 249.743 41.7265V41.8865L248.143 42.0165C247.013 42.1065 246.333 42.6665 246.333 43.5565C246.333 44.4065 246.943 44.9865 247.973 44.9865ZM248.133 44.4265C247.473 44.4265 247.033 44.1265 247.033 43.5365C247.033 42.9965 247.403 42.5965 248.313 42.5165L249.743 42.4065V42.6665C249.743 43.7165 249.153 44.4265 248.133 44.4265ZM251.467 42.4565C251.467 43.9765 252.397 44.9865 253.767 44.9865C254.867 44.9865 255.727 44.3365 255.957 43.3465H255.257C255.067 43.9665 254.487 44.3665 253.767 44.3665C252.787 44.3665 252.147 43.5965 252.147 42.4465C252.147 41.2565 252.837 40.5065 253.817 40.5065C254.487 40.5065 255.067 40.8765 255.247 41.5465H255.937C255.747 40.5465 254.927 39.8965 253.807 39.8965C252.397 39.8965 251.467 40.9365 251.467 42.4565ZM257.343 38.6965C257.623 38.6965 257.863 38.4665 257.863 38.1865C257.863 37.9065 257.623 37.6665 257.343 37.6665C257.063 37.6665 256.833 37.9065 256.833 38.1865C256.833 38.4665 257.063 38.6965 257.343 38.6965ZM257.003 44.8665H257.693V40.0265H257.003V44.8665ZM258.792 42.4465C258.792 43.9165 259.832 44.9865 261.252 44.9865C262.672 44.9865 263.712 43.9165 263.712 42.4465C263.712 40.9665 262.672 39.8965 261.252 39.8965C259.832 39.8965 258.792 40.9665 258.792 42.4465ZM259.492 42.4365C259.492 41.3165 260.212 40.5165 261.252 40.5165C262.282 40.5165 263.012 41.3165 263.012 42.4365C263.012 43.5765 262.282 44.3665 261.252 44.3665C260.212 44.3665 259.492 43.5765 259.492 42.4365ZM265.505 44.8665V42.3365C265.505 41.2465 266.065 40.5265 267.055 40.5265C267.855 40.5265 268.365 40.9265 268.365 42.0565V44.8665H269.055V41.9065C269.055 40.6865 268.505 39.8965 267.175 39.8965C266.475 39.8965 265.835 40.2465 265.515 40.8665L265.415 40.0265H264.815V44.8665H265.505ZM272.46 44.9865C273.6 44.9865 274.35 44.4365 274.61 43.4165H273.95C273.77 44.0565 273.26 44.3965 272.47 44.3965C271.43 44.3965 270.81 43.7165 270.76 42.5365H274.61V42.1965C274.61 40.8265 273.72 39.8965 272.41 39.8965C271.03 39.8965 270.09 40.9365 270.09 42.4465C270.09 43.9665 271.04 44.9865 272.46 44.9865ZM272.41 40.4865C273.32 40.4865 273.92 41.1065 273.92 42.0365H270.78C270.9 41.0865 271.5 40.4865 272.41 40.4865ZM275.304 43.5065C275.304 44.4065 275.984 44.9865 277.074 44.9865C278.174 44.9865 278.914 44.4165 278.914 43.5465C278.914 42.8465 278.534 42.4565 277.694 42.2465L276.864 42.0365C276.334 41.9065 276.074 41.6465 276.074 41.2765C276.074 40.7565 276.454 40.4665 277.134 40.4665C277.784 40.4665 278.174 40.7965 278.194 41.3565H278.864C278.834 40.4565 278.174 39.8965 277.154 39.8965C276.114 39.8965 275.404 40.4365 275.404 41.2865C275.404 41.9465 275.814 42.3865 276.654 42.5965L277.484 42.8065C278.054 42.9465 278.254 43.1765 278.254 43.5765C278.254 44.0965 277.814 44.4165 277.064 44.4165C276.384 44.4165 275.964 44.0665 275.964 43.5065H275.304Z" fill="#232630"/>
<mask id="path-8-inside-1_1055_896" fill="white">
<path d="M252.6 27.6C252.6 27.6 251.239 27.6 248.912 27.6C246.585 27.6 245.2 27.6 245.2 27.6C245.2 30.1448 246.518 31 248.912 31C251.305 31 252.6 30.1416 252.6 27.6Z"/>
</mask>
<path d="M252.6 27.6H261.6V18.5999L252.6 18.6L252.6 27.6ZM245.2 27.6L245.2 18.6L236.2 18.5999V27.6H245.2ZM252.6 27.6C252.6 18.6 252.6 18.6 252.6 18.6C252.6 18.6 252.6 18.6 252.6 18.6C252.6 18.6 252.6 18.6 252.6 18.6C252.599 18.6 252.599 18.6 252.599 18.6C252.598 18.6 252.597 18.6 252.596 18.6C252.593 18.6 252.589 18.6 252.584 18.6C252.573 18.6 252.558 18.6 252.537 18.6C252.495 18.6 252.433 18.6 252.351 18.6C252.187 18.6 251.944 18.6 251.629 18.6C250.997 18.6 250.075 18.6 248.912 18.6V36.6C250.075 36.6 250.997 36.6 251.629 36.6C251.944 36.6 252.187 36.6 252.351 36.6C252.433 36.6 252.495 36.6 252.537 36.6C252.558 36.6 252.574 36.6 252.584 36.6C252.589 36.6 252.593 36.6 252.596 36.6C252.597 36.6 252.598 36.6 252.599 36.6C252.599 36.6 252.6 36.6 252.6 36.6C252.6 36.6 252.6 36.6 252.6 36.6C252.6 36.6 252.6 36.6 252.6 36.6C252.6 36.6 252.6 36.6 252.6 27.6ZM248.912 18.6C247.748 18.6 246.82 18.6 246.183 18.6C245.865 18.6 245.619 18.6 245.453 18.6C245.37 18.6 245.306 18.6 245.264 18.6C245.243 18.6 245.227 18.6 245.216 18.6C245.211 18.6 245.207 18.6 245.204 18.6C245.203 18.6 245.202 18.6 245.201 18.6C245.201 18.6 245.2 18.6 245.2 18.6C245.2 18.6 245.2 18.6 245.2 18.6C245.2 18.6 245.2 18.6 245.2 18.6C245.2 18.6 245.2 18.6 245.2 27.6C245.2 36.6 245.2 36.6 245.2 36.6C245.2 36.6 245.2 36.6 245.2 36.6C245.2 36.6 245.2 36.6 245.2 36.6C245.2 36.6 245.201 36.6 245.201 36.6C245.202 36.6 245.203 36.6 245.204 36.6C245.207 36.6 245.211 36.6 245.216 36.6C245.227 36.6 245.243 36.6 245.264 36.6C245.306 36.6 245.369 36.6 245.453 36.6C245.619 36.6 245.865 36.6 246.183 36.6C246.82 36.6 247.748 36.6 248.912 36.6V18.6ZM236.2 27.6C236.2 30.3383 236.94 34.2444 240.345 37.1253C243.412 39.72 246.974 40 248.912 40V22C248.456 22 250.161 21.8523 251.971 23.3832C254.119 25.2004 254.2 27.4064 254.2 27.6H236.2ZM248.912 40C250.852 40 254.431 39.7188 257.501 37.0949C260.89 34.1982 261.6 30.2931 261.6 27.6H243.6C243.6 27.4485 243.663 25.2434 245.806 23.4113C247.631 21.852 249.366 22 248.912 22V40Z" fill="#232630" mask="url(#path-8-inside-1_1055_896)"/>
<path d="M241.416 20.2917V16.4111C241.43 14.2097 243.433 12.0779 246.637 11.3657C247.296 11.2191 247.841 10.6919 247.968 10H249.631C249.758 10.6919 250.304 11.2191 250.963 11.3657C254.167 12.0779 256.169 14.2097 256.184 16.4111V20.2917C256.184 21.6454 256.868 22.9072 258.003 23.6451L260.702 25.4H236.898L239.597 23.6451C240.732 22.9072 241.416 21.6454 241.416 20.2917Z" stroke="#232630" stroke-width="2"/>
<path d="M333.418 44.8665H334.168L336.888 37.7065H336.148L334.248 42.6765C334.138 42.9465 333.958 43.4465 333.808 43.9665C333.648 43.4665 333.508 43.0765 333.358 42.6865L331.448 37.7065H330.678L333.418 44.8665ZM339.124 38.2765H338.394L337.794 39.4665H338.354L339.124 38.2765ZM337.704 44.8665H338.394V40.0265H337.704V44.8665ZM341.733 44.9865C342.543 44.9865 343.223 44.6265 343.563 43.8765L343.633 44.8665H344.233V37.5765H343.543V40.9465C343.203 40.2465 342.563 39.8965 341.763 39.8965C340.323 39.8965 339.493 40.9965 339.493 42.4565C339.493 43.9065 340.323 44.9865 341.733 44.9865ZM341.853 44.3565C340.803 44.3565 340.193 43.5565 340.193 42.4365C340.193 41.3265 340.803 40.5165 341.853 40.5165C342.913 40.5165 343.533 41.3265 343.533 42.4365C343.533 43.5565 342.913 44.3565 341.853 44.3565ZM347.703 44.9865C348.843 44.9865 349.593 44.4365 349.853 43.4165H349.193C349.013 44.0565 348.503 44.3965 347.713 44.3965C346.673 44.3965 346.053 43.7165 346.003 42.5365H349.853V42.1965C349.853 40.8265 348.963 39.8965 347.653 39.8965C346.273 39.8965 345.333 40.9365 345.333 42.4465C345.333 43.9665 346.283 44.9865 347.703 44.9865ZM347.653 40.4865C348.563 40.4865 349.163 41.1065 349.163 42.0365H346.023C346.143 41.0865 346.743 40.4865 347.653 40.4865ZM350.616 42.4465C350.616 43.9165 351.656 44.9865 353.076 44.9865C354.496 44.9865 355.536 43.9165 355.536 42.4465C355.536 40.9665 354.496 39.8965 353.076 39.8965C351.656 39.8965 350.616 40.9665 350.616 42.4465ZM351.316 42.4365C351.316 41.3165 352.036 40.5165 353.076 40.5165C354.106 40.5165 354.836 41.3165 354.836 42.4365C354.836 43.5765 354.106 44.3665 353.076 44.3665C352.036 44.3665 351.316 43.5765 351.316 42.4365ZM356.229 43.5065C356.229 44.4065 356.909 44.9865 357.999 44.9865C359.099 44.9865 359.839 44.4165 359.839 43.5465C359.839 42.8465 359.459 42.4565 358.619 42.2465L357.789 42.0365C357.259 41.9065 356.999 41.6465 356.999 41.2765C356.999 40.7565 357.379 40.4665 358.059 40.4665C358.709 40.4665 359.099 40.7965 359.119 41.3565H359.789C359.759 40.4565 359.099 39.8965 358.079 39.8965C357.039 39.8965 356.329 40.4365 356.329 41.2865C356.329 41.9465 356.739 42.3865 357.579 42.5965L358.409 42.8065C358.979 42.9465 359.179 43.1765 359.179 43.5765C359.179 44.0965 358.739 44.4165 357.989 44.4165C357.309 44.4165 356.889 44.0665 356.889 43.5065H356.229Z" fill="#232630"/>
<path d="M342.194 31V13.3409H336.228V31H342.194Z" fill="#232630"/>
<path d="M351.328 13.6779C351.328 13.6779 360.563 10.3788 364.583 10.3788V10L328 10V13.6779L351.328 13.6779Z" fill="#232630"/>
<path d="M356.219 31L362.456 15.3693H357.216L353.298 26.5674H352.997L348.986 15.3693H343.723L349.959 31H356.219Z" fill="#232630"/>
<rect x="141" y="71" width="134" height="5" rx="2.5" fill="#121419"/>
</g>
<defs>
<filter id="filter0_bd_1055_896" x="-20" y="-19" width="454" height="123" filterUnits="userSpaceOnUse" color-interpolation-filters="sRGB">
<feFlood flood-opacity="0" result="BackgroundImageFix"/>
<feGaussianBlur in="BackgroundImage" stdDeviation="10"/>
<feComposite in2="SourceAlpha" operator="in" result="effect1_backgroundBlur_1055_896"/>
<feColorMatrix in="SourceAlpha" type="matrix" values="0 0 0 0 0 0 0 0 0 0 0 0 0 0 0 0 0 0 127 0" result="hardAlpha"/>
<feOffset dy="-0.5"/>
<feColorMatrix type="matrix" values="0 0 0 0 0 0 0 0 0 0 0 0 0 0 0 0 0 0 0.3 0"/>
<feBlend mode="normal" in2="effect1_backgroundBlur_1055_896" result="effect2_dropShadow_1055_896"/>
<feBlend mode="normal" in="SourceGraphic" in2="effect2_dropShadow_1055_896" result="shape"/>
</filter>
<clipPath id="clip0_1055_896">
<rect width="21.1623" height="22" fill="white" transform="translate(154 9)"/>
</clipPath>
</defs>
</svg>
