<svg width="414" height="84" viewBox="0 0 414 84" fill="none" xmlns="http://www.w3.org/2000/svg">
<g filter="url(#filter0_bd_1056_1078)">
<rect width="414" height="83" transform="translate(0 1)" fill="#FCFBF7"/>
<g clip-path="url(#clip0_1056_1078)">
<path d="M32.5002 36.6827C32.1431 37.1556 31.4645 37.2371 31.0056 36.8621L18.9181 26.9848C17.694 25.9845 17.694 24.1133 18.9181 23.1131L31.0056 13.2358C31.4645 12.8608 32.1431 12.9422 32.5002 13.4152C32.8386 13.8632 32.7623 14.4984 32.3276 14.8536L22.22 23.1131C20.9959 24.1133 20.9959 25.9845 22.22 26.9848L32.3276 35.2442C32.7623 35.5994 32.8386 36.2347 32.5002 36.6827Z" fill="#4D546A"/>
<path fill-rule="evenodd" clip-rule="evenodd" d="M45.7157 25.3203C45.7157 25.7804 45.3426 26.1536 44.8823 26.1536H19.9559C19.4957 26.1536 19.1226 25.7804 19.1226 25.3203V24.7567C19.1226 24.2964 19.4957 23.9233 19.9559 23.9233H44.8823C45.3426 23.9233 45.7157 24.2964 45.7157 24.7567V25.3203Z" fill="#4D546A"/>
</g>
<path d="M382.933 20.2134C385.146 20.2134 385.905 19.0338 385.905 17.0793C385.905 15.1247 385.146 14 382.933 14C380.72 14 380 15.1064 380 17.1159C380 19.1253 380.738 20.2134 382.933 20.2134Z" fill="#4D546A"/>
<path d="M382.933 29.5222C385.146 29.5222 385.905 28.3426 385.905 26.388C385.905 24.4335 385.146 23.3179 382.933 23.3179C380.72 23.3179 380 24.4152 380 26.4246C380 28.434 380.738 29.5222 382.933 29.5222Z" fill="#4D546A"/>
<path d="M382.933 39C385.146 39 385.905 37.8205 385.905 35.8659C385.905 33.9113 385.15 32.7866 382.933 32.7866C380.716 32.7866 380 33.8931 380 35.9025C380 37.9119 380.738 39 382.933 39Z" fill="#4D546A"/>
<rect x="141" y="71" width="134" height="5" rx="2.5" fill="#121419"/>
</g>
<defs>
<filter id="filter0_bd_1056_1078" x="-20" y="-19" width="454" height="123" filterUnits="userSpaceOnUse" color-interpolation-filters="sRGB">
<feFlood flood-opacity="0" result="BackgroundImageFix"/>
<feGaussianBlur in="BackgroundImage" stdDeviation="10"/>
<feComposite in2="SourceAlpha" operator="in" result="effect1_backgroundBlur_1056_1078"/>
<feColorMatrix in="SourceAlpha" type="matrix" values="0 0 0 0 0 0 0 0 0 0 0 0 0 0 0 0 0 0 127 0" result="hardAlpha"/>
<feOffset dy="-0.5"/>
<feColorMatrix type="matrix" values="0 0 0 0 0 0 0 0 0 0 0 0 0 0 0 0 0 0 0.3 0"/>
<feBlend mode="normal" in2="effect1_backgroundBlur_1056_1078" result="effect2_dropShadow_1056_1078"/>
<feBlend mode="normal" in="SourceGraphic" in2="effect2_dropShadow_1056_1078" result="shape"/>
</filter>
<clipPath id="clip0_1056_1078">
<rect width="57.7157" height="36.0979" fill="white" transform="translate(0 1)"/>
</clipPath>
</defs>
</svg>
