<svg width="414" height="84" viewBox="0 0 414 84" fill="none" xmlns="http://www.w3.org/2000/svg">
<g filter="url(#filter0_bd_1055_896)">
<rect width="414" height="83" transform="translate(0 1)" fill="#FCFBF7"/>
<path d="M52.0614 42.2365C53.4314 42.2365 54.3114 41.2565 54.3114 39.9565C54.3114 38.6065 53.4414 37.7065 52.0614 37.7065H49.3314V44.8665H50.0514V42.2365H52.0614ZM51.9614 38.3565C52.9514 38.3565 53.5614 38.9565 53.5614 39.9465C53.5614 40.9265 52.9614 41.5865 51.9214 41.5865H50.0514V38.3565H51.9614ZM57.854 39.9665C57.684 39.9265 57.554 39.9165 57.404 39.9165C56.724 39.9165 56.214 40.2565 56.024 40.7765L55.974 40.0265H55.324V44.8665H56.014V42.1065C56.014 41.1865 56.584 40.5865 57.474 40.5865H57.854V39.9665ZM59.1113 38.6965C59.3913 38.6965 59.6313 38.4665 59.6313 38.1865C59.6313 37.9065 59.3913 37.6665 59.1113 37.6665C58.8313 37.6665 58.6013 37.9065 58.6013 38.1865C58.6013 38.4665 58.8313 38.6965 59.1113 38.6965ZM58.7713 44.8665H59.4613V40.0265H58.7713V44.8665ZM61.5902 44.8665V42.3365C61.5902 41.2465 62.1502 40.5265 63.1402 40.5265C63.9402 40.5265 64.4502 40.9265 64.4502 42.0565V44.8665H65.1402V41.9065C65.1402 40.6865 64.5902 39.8965 63.2602 39.8965C62.5602 39.8965 61.9202 40.2465 61.6002 40.8665L61.5002 40.0265H60.9002V44.8665H61.5902ZM66.1754 42.4565C66.1754 43.9765 67.1054 44.9865 68.4754 44.9865C69.5754 44.9865 70.4354 44.3365 70.6654 43.3465H69.9654C69.7754 43.9665 69.1954 44.3665 68.4754 44.3665C67.4954 44.3665 66.8554 43.5965 66.8554 42.4465C66.8554 41.2565 67.5454 40.5065 68.5254 40.5065C69.1954 40.5065 69.7754 40.8765 69.9554 41.5465H70.6454C70.4554 40.5465 69.6354 39.8965 68.5154 39.8965C67.1054 39.8965 66.1754 40.9365 66.1754 42.4565ZM72.0507 38.6965C72.3307 38.6965 72.5707 38.4665 72.5707 38.1865C72.5707 37.9065 72.3307 37.6665 72.0507 37.6665C71.7707 37.6665 71.5407 37.9065 71.5407 38.1865C71.5407 38.4665 71.7707 38.6965 72.0507 38.6965ZM71.7107 44.8665H72.4007V40.0265H71.7107V44.8665ZM73.8396 46.9765H74.5296V43.9365C74.8696 44.6365 75.5196 44.9865 76.3396 44.9865C77.7696 44.9865 78.5796 43.8865 78.5796 42.4265C78.5796 40.9665 77.7396 39.8965 76.3396 39.8965C75.5296 39.8965 74.8496 40.2565 74.5096 41.0065L74.4396 40.0265H73.8396V46.9765ZM74.5396 42.4465C74.5396 41.3265 75.1596 40.5265 76.2196 40.5265C77.2696 40.5265 77.8796 41.3265 77.8796 42.4465C77.8796 43.5565 77.2696 44.3665 76.2196 44.3665C75.1596 44.3665 74.5396 43.5565 74.5396 42.4465ZM81.0695 44.9865C81.8895 44.9865 82.5495 44.6265 82.8495 44.0165L82.9395 44.8665H83.5195V41.7365C83.5195 40.4565 82.6995 39.8965 81.5795 39.8965C80.3895 39.8965 79.5895 40.5265 79.5895 41.5065H80.2195C80.2195 40.8565 80.7195 40.4765 81.5595 40.4765C82.2695 40.4765 82.8395 40.7765 82.8395 41.7265V41.8865L81.2395 42.0165C80.1095 42.1065 79.4295 42.6665 79.4295 43.5565C79.4295 44.4065 80.0395 44.9865 81.0695 44.9865ZM81.2295 44.4265C80.5695 44.4265 80.1295 44.1265 80.1295 43.5365C80.1295 42.9965 80.4995 42.5965 81.4095 42.5165L82.8395 42.4065V42.6665C82.8395 43.7165 82.2495 44.4265 81.2295 44.4265ZM85.6241 44.8665V37.5765H84.9341V44.8665H85.6241Z" fill="#232630"/>
<path d="M61.0125 31V15.3563H56.3333V31H61.0125Z" fill="#232630"/>
<path d="M68.141 31V23.1001C68.141 20.446 69.2016 19.2594 72.1651 19.2594C75.035 19.2594 76.0645 20.3211 76.0645 22.8191V31H80.7437V21.2578C80.7437 17.7919 78.716 15.0441 74.4423 15.0441C70.3558 15.0441 68.4841 17.5421 68.0786 20.165H67.7978V15.3563H63.4618V31H68.141Z" fill="#232630"/>
<path d="M67.4646 13.6845C67.4646 13.6845 76.7161 10.3795 80.7437 10.3795V10L56 10V13.6845H67.4646Z" fill="#232630"/>
<path d="M153.831 44.8665V44.2065H150.261V41.5965H153.491V40.9465H150.261V38.3665H153.821V37.7065H149.541V44.8665H153.831ZM155.333 44.8665L156.683 42.9265L158.043 44.8665H158.863L157.153 42.4565L158.873 40.0265H158.073L156.713 41.9665L155.343 40.0265H154.533L156.253 42.4465L154.523 44.8665H155.333ZM159.694 46.9765H160.384V43.9365C160.724 44.6365 161.374 44.9865 162.194 44.9865C163.624 44.9865 164.434 43.8865 164.434 42.4265C164.434 40.9665 163.594 39.8965 162.194 39.8965C161.384 39.8965 160.704 40.2565 160.364 41.0065L160.294 40.0265H159.694V46.9765ZM160.394 42.4465C160.394 41.3265 161.014 40.5265 162.074 40.5265C163.124 40.5265 163.734 41.3265 163.734 42.4465C163.734 43.5565 163.124 44.3665 162.074 44.3665C161.014 44.3665 160.394 43.5565 160.394 42.4465ZM166.254 44.8665V37.5765H165.564V44.8665H166.254ZM167.381 42.4465C167.381 43.9165 168.421 44.9865 169.841 44.9865C171.261 44.9865 172.301 43.9165 172.301 42.4465C172.301 40.9665 171.261 39.8965 169.841 39.8965C168.421 39.8965 167.381 40.9665 167.381 42.4465ZM168.081 42.4365C168.081 41.3165 168.801 40.5165 169.841 40.5165C170.871 40.5165 171.601 41.3165 171.601 42.4365C171.601 43.5765 170.871 44.3665 169.841 44.3665C168.801 44.3665 168.081 43.5765 168.081 42.4365ZM175.935 39.9665C175.765 39.9265 175.635 39.9165 175.485 39.9165C174.805 39.9165 174.295 40.2565 174.105 40.7765L174.055 40.0265H173.405V44.8665H174.095V42.1065C174.095 41.1865 174.665 40.5865 175.555 40.5865H175.935V39.9665ZM178.047 44.9865C178.867 44.9865 179.527 44.6265 179.827 44.0165L179.917 44.8665H180.497V41.7365C180.497 40.4565 179.677 39.8965 178.557 39.8965C177.367 39.8965 176.567 40.5265 176.567 41.5065H177.197C177.197 40.8565 177.697 40.4765 178.537 40.4765C179.247 40.4765 179.817 40.7765 179.817 41.7265V41.8865L178.217 42.0165C177.087 42.1065 176.407 42.6665 176.407 43.5565C176.407 44.4065 177.017 44.9865 178.047 44.9865ZM178.207 44.4265C177.547 44.4265 177.107 44.1265 177.107 43.5365C177.107 42.9965 177.477 42.5965 178.387 42.5165L179.817 42.4065V42.6665C179.817 43.7165 179.227 44.4265 178.207 44.4265Z" fill="#232630"/>
<g clip-path="url(#clip0_1055_896)">
<path fill-rule="evenodd" clip-rule="evenodd" d="M170.188 23.3672C171.245 22.0235 171.807 20.0971 171.807 17.4463C171.807 11.1247 168.636 9 162.875 9C157.114 9 154 11.1247 154 17.4463C154 23.8205 157.379 25.9978 162.983 25.9978C165.411 25.9978 167.386 25.5931 168.851 24.6076L173.707 31L175.156 29.8992L170.188 23.3672ZM157.584 22.7358C156.578 21.8637 155.821 20.3319 155.821 17.4463C155.821 14.5607 156.531 13.0572 157.483 12.2195C158.484 11.3352 160.156 10.8212 162.875 10.8212C165.595 10.8212 167.287 11.3352 168.304 12.2235C169.268 13.0653 169.986 14.5648 169.986 17.4463C169.986 20.3278 169.256 21.888 168.284 22.7601C167.272 23.6646 165.603 24.1766 162.983 24.1766C160.362 24.1766 158.654 23.6565 157.584 22.7358Z" fill="#232630"/>
</g>
<path d="M217.842 44.8665V39.6865L221.282 44.8665H222.542V37.5565H221.282V42.7365L217.852 37.5565H216.582V44.8665H217.842ZM223.69 42.3865C223.69 43.9265 224.8 44.9865 226.33 44.9865C227.86 44.9865 228.97 43.9265 228.97 42.3865C228.97 40.8465 227.86 39.7865 226.33 39.7865C224.8 39.7865 223.69 40.8465 223.69 42.3865ZM224.91 42.3865C224.91 41.4865 225.49 40.8765 226.33 40.8765C227.17 40.8765 227.75 41.4865 227.75 42.3865C227.75 43.2865 227.17 43.8965 226.33 43.8965C225.49 43.8965 224.91 43.2865 224.91 42.3865ZM231.568 44.8665V40.9465H232.528V39.9265H231.568V38.3865H230.348V39.9265H229.398V40.9465H230.348V44.8665H231.568ZM233.897 38.9365C234.297 38.9365 234.627 38.6065 234.627 38.1965C234.627 37.7865 234.297 37.4665 233.897 37.4665C233.477 37.4665 233.147 37.7865 233.147 38.1965C233.147 38.6065 233.477 38.9365 233.897 38.9365ZM233.287 44.8665H234.507V39.9265H233.287V44.8665ZM239.217 44.8665H240.437V39.9265H237.197V39.3265C237.197 38.8365 237.337 38.5165 237.887 38.5165H238.317V37.4765C238.107 37.4365 237.877 37.4265 237.687 37.4265C236.687 37.4265 235.987 37.9865 235.987 39.3265V39.9265H235.277V40.9465H235.987V44.8665H237.197V40.9465H239.217V44.8665ZM239.827 38.9165C240.227 38.9165 240.547 38.5965 240.547 38.1865C240.547 37.7865 240.227 37.4665 239.827 37.4665C239.417 37.4665 239.097 37.7865 239.097 38.1865C239.097 38.5965 239.417 38.9165 239.827 38.9165ZM241.405 42.3865C241.405 43.9565 242.385 44.9965 243.885 44.9965C245.175 44.9965 246.135 44.2065 246.285 43.0565H245.055C244.925 43.5965 244.495 43.8965 243.885 43.8965C243.105 43.8965 242.625 43.3165 242.625 42.3865C242.625 41.4565 243.145 40.8665 243.925 40.8665C244.505 40.8665 244.915 41.1565 245.055 41.7165H246.275C246.145 40.5265 245.225 39.7765 243.875 39.7765C242.415 39.7765 241.405 40.8565 241.405 42.3865ZM248.663 44.9965C249.433 44.9965 250.103 44.6465 250.313 44.1365L250.403 44.8665H251.473V41.8665C251.473 40.4965 250.653 39.7765 249.323 39.7765C247.983 39.7765 247.103 40.4765 247.103 41.5465H248.143C248.143 41.0265 248.543 40.7265 249.263 40.7265C249.883 40.7265 250.283 40.9965 250.283 41.6665V41.7765L248.803 41.8865C247.633 41.9765 246.973 42.5465 246.973 43.4565C246.973 44.3865 247.613 44.9965 248.663 44.9965ZM249.063 44.0765C248.513 44.0765 248.213 43.8565 248.213 43.4065C248.213 43.0065 248.503 42.7565 249.263 42.6865L250.293 42.6065V42.8665C250.293 43.6265 249.813 44.0765 249.063 44.0765ZM252.382 42.3865C252.382 43.9565 253.362 44.9965 254.862 44.9965C256.152 44.9965 257.112 44.2065 257.262 43.0565H256.032C255.902 43.5965 255.472 43.8965 254.862 43.8965C254.082 43.8965 253.602 43.3165 253.602 42.3865C253.602 41.4565 254.122 40.8665 254.902 40.8665C255.482 40.8665 255.892 41.1565 256.032 41.7165H257.252C257.122 40.5265 256.202 39.7765 254.852 39.7765C253.392 39.7765 252.382 40.8565 252.382 42.3865ZM258.78 38.9365C259.18 38.9365 259.51 38.6065 259.51 38.1965C259.51 37.7865 259.18 37.4665 258.78 37.4665C258.36 37.4665 258.03 37.7865 258.03 38.1965C258.03 38.6065 258.36 38.9365 258.78 38.9365ZM258.17 44.8665H259.39V39.9265H258.17V44.8665ZM260.36 42.3865C260.36 43.9265 261.47 44.9865 263 44.9865C264.53 44.9865 265.64 43.9265 265.64 42.3865C265.64 40.8465 264.53 39.7865 263 39.7865C261.47 39.7865 260.36 40.8465 260.36 42.3865ZM261.58 42.3865C261.58 41.4865 262.16 40.8765 263 40.8765C263.84 40.8765 264.42 41.4865 264.42 42.3865C264.42 43.2865 263.84 43.8965 263 43.8965C262.16 43.8965 261.58 43.2865 261.58 42.3865ZM267.827 44.8665V42.2065C267.827 41.4065 268.287 40.8865 269.037 40.8865C269.667 40.8865 270.077 41.2865 270.077 42.1165V44.8665H271.297V41.8265C271.297 40.5465 270.657 39.7765 269.417 39.7765C268.747 39.7765 268.147 40.0665 267.837 40.5665L267.737 39.9265H266.607V44.8665H267.827ZM274.706 44.9965C275.996 44.9965 276.896 44.3465 277.106 43.2665H275.976C275.836 43.7365 275.396 43.9965 274.726 43.9965C273.916 43.9965 273.456 43.5565 273.366 42.6865L277.086 42.6765V42.3065C277.086 40.7665 276.146 39.7765 274.666 39.7765C273.216 39.7765 272.206 40.8465 272.206 42.3965C272.206 43.9265 273.236 44.9965 274.706 44.9965ZM274.676 40.7765C275.406 40.7765 275.876 41.2265 275.876 41.9065H273.396C273.516 41.1665 273.956 40.7765 274.676 40.7765ZM277.682 43.3665C277.682 44.3365 278.462 44.9965 279.692 44.9965C280.912 44.9965 281.762 44.3765 281.762 43.3765C281.762 42.6165 281.342 42.2365 280.512 42.0465L279.622 41.8365C279.202 41.7365 278.982 41.5565 278.982 41.2765C278.982 40.9065 279.262 40.6865 279.742 40.6865C280.212 40.6865 280.492 40.9565 280.502 41.3765H281.662C281.652 40.4165 280.902 39.7765 279.792 39.7765C278.652 39.7765 277.832 40.3565 277.832 41.3265C277.832 42.1165 278.262 42.5365 279.152 42.7365L280.042 42.9465C280.482 43.0465 280.612 43.2265 280.612 43.4765C280.612 43.8365 280.302 44.0665 279.732 44.0665C279.172 44.0665 278.852 43.7965 278.842 43.3665H277.682Z" fill="#121419"/>
<path d="M252.6 27.6C252.6 27.6 251.239 27.6 248.912 27.6C246.585 27.6 245.2 27.6 245.2 27.6C245.2 30.1448 246.518 31 248.912 31C251.305 31 252.6 30.1416 252.6 27.6Z" fill="#121419"/>
<path d="M247.687 9C247.306 9 246.996 9.30954 246.996 9.69138V9.69138C246.996 10.0298 246.75 10.3161 246.42 10.3895C242.96 11.1586 240.433 13.5605 240.416 16.4081V20.2917C240.416 21.307 239.903 22.2533 239.052 22.8067L235.283 25.2577C235.106 25.3723 235 25.5683 235 25.7786V25.7786C235 26.1218 235.278 26.4 235.621 26.4H261.979C262.322 26.4 262.6 26.1218 262.6 25.7786V25.7786C262.6 25.5683 262.494 25.3723 262.317 25.2577L258.548 22.8067C257.697 22.2533 257.184 21.307 257.184 20.2917V16.4081C257.167 13.5605 254.639 11.1586 251.18 10.3895C250.85 10.316 250.604 10.0298 250.604 9.69137V9.69137C250.604 9.30954 250.294 9 249.912 9H247.687Z" fill="#121419"/>
<path d="M211 1H287V1C287 2.65685 285.657 4 284 4H214C212.343 4 211 2.65685 211 1V1Z" fill="#E73A02"/>
<path d="M333.418 44.8665H334.168L336.888 37.7065H336.148L334.248 42.6765C334.138 42.9465 333.958 43.4465 333.808 43.9665C333.648 43.4665 333.508 43.0765 333.358 42.6865L331.448 37.7065H330.678L333.418 44.8665ZM339.124 38.2765H338.394L337.794 39.4665H338.354L339.124 38.2765ZM337.704 44.8665H338.394V40.0265H337.704V44.8665ZM341.733 44.9865C342.543 44.9865 343.223 44.6265 343.563 43.8765L343.633 44.8665H344.233V37.5765H343.543V40.9465C343.203 40.2465 342.563 39.8965 341.763 39.8965C340.323 39.8965 339.493 40.9965 339.493 42.4565C339.493 43.9065 340.323 44.9865 341.733 44.9865ZM341.853 44.3565C340.803 44.3565 340.193 43.5565 340.193 42.4365C340.193 41.3265 340.803 40.5165 341.853 40.5165C342.913 40.5165 343.533 41.3265 343.533 42.4365C343.533 43.5565 342.913 44.3565 341.853 44.3565ZM347.703 44.9865C348.843 44.9865 349.593 44.4365 349.853 43.4165H349.193C349.013 44.0565 348.503 44.3965 347.713 44.3965C346.673 44.3965 346.053 43.7165 346.003 42.5365H349.853V42.1965C349.853 40.8265 348.963 39.8965 347.653 39.8965C346.273 39.8965 345.333 40.9365 345.333 42.4465C345.333 43.9665 346.283 44.9865 347.703 44.9865ZM347.653 40.4865C348.563 40.4865 349.163 41.1065 349.163 42.0365H346.023C346.143 41.0865 346.743 40.4865 347.653 40.4865ZM350.616 42.4465C350.616 43.9165 351.656 44.9865 353.076 44.9865C354.496 44.9865 355.536 43.9165 355.536 42.4465C355.536 40.9665 354.496 39.8965 353.076 39.8965C351.656 39.8965 350.616 40.9665 350.616 42.4465ZM351.316 42.4365C351.316 41.3165 352.036 40.5165 353.076 40.5165C354.106 40.5165 354.836 41.3165 354.836 42.4365C354.836 43.5765 354.106 44.3665 353.076 44.3665C352.036 44.3665 351.316 43.5765 351.316 42.4365ZM356.229 43.5065C356.229 44.4065 356.909 44.9865 357.999 44.9865C359.099 44.9865 359.839 44.4165 359.839 43.5465C359.839 42.8465 359.459 42.4565 358.619 42.2465L357.789 42.0365C357.259 41.9065 356.999 41.6465 356.999 41.2765C356.999 40.7565 357.379 40.4665 358.059 40.4665C358.709 40.4665 359.099 40.7965 359.119 41.3565H359.789C359.759 40.4565 359.099 39.8965 358.079 39.8965C357.039 39.8965 356.329 40.4365 356.329 41.2865C356.329 41.9465 356.739 42.3865 357.579 42.5965L358.409 42.8065C358.979 42.9465 359.179 43.1765 359.179 43.5765C359.179 44.0965 358.739 44.4165 357.989 44.4165C357.309 44.4165 356.889 44.0665 356.889 43.5065H356.229Z" fill="#232630"/>
<path d="M342.194 31V13.3409H336.228V31H342.194Z" fill="#232630"/>
<path d="M351.328 13.6779C351.328 13.6779 360.563 10.3788 364.583 10.3788V10L328 10V13.6779L351.328 13.6779Z" fill="#232630"/>
<path d="M356.219 31L362.456 15.3693H357.216L353.298 26.5674H352.997L348.986 15.3693H343.723L349.959 31H356.219Z" fill="#232630"/>
<rect x="141" y="71" width="134" height="5" rx="2.5" fill="#121419"/>
</g>
<defs>
<filter id="filter0_bd_1055_896" x="-20" y="-19" width="454" height="123" filterUnits="userSpaceOnUse" color-interpolation-filters="sRGB">
<feFlood flood-opacity="0" result="BackgroundImageFix"/>
<feGaussianBlur in="BackgroundImage" stdDeviation="10"/>
<feComposite in2="SourceAlpha" operator="in" result="effect1_backgroundBlur_1055_896"/>
<feColorMatrix in="SourceAlpha" type="matrix" values="0 0 0 0 0 0 0 0 0 0 0 0 0 0 0 0 0 0 127 0" result="hardAlpha"/>
<feOffset dy="-0.5"/>
<feColorMatrix type="matrix" values="0 0 0 0 0 0 0 0 0 0 0 0 0 0 0 0 0 0 0.3 0"/>
<feBlend mode="normal" in2="effect1_backgroundBlur_1055_896" result="effect2_dropShadow_1055_896"/>
<feBlend mode="normal" in="SourceGraphic" in2="effect2_dropShadow_1055_896" result="shape"/>
</filter>
<clipPath id="clip0_1055_896">
<rect width="21.1623" height="22" fill="white" transform="translate(154 9)"/>
</clipPath>
</defs>
</svg>
