<svg width="414" height="84" viewBox="0 0 414 84" fill="none" xmlns="http://www.w3.org/2000/svg">
<g filter="url(#filter0_bd_1055_868)">
<rect width="414" height="83" transform="translate(0 1)" fill="#FCFBF7"/>
<path d="M51.1966 42.3465C52.6566 42.3465 53.6166 41.3565 53.6166 39.9465C53.6166 38.5165 52.6666 37.5565 51.1966 37.5565H48.3066V44.8665H49.5866V42.3465H51.1966ZM50.9466 38.6965C51.7966 38.6965 52.2766 39.1365 52.2766 39.9365C52.2766 40.7365 51.8066 41.2065 50.9266 41.2065H49.5866V38.6965H50.9466ZM57.6133 39.9065C57.4133 39.8565 57.2433 39.8365 57.0733 39.8365C56.4133 39.8365 55.9433 40.1665 55.7333 40.6565L55.6633 39.9365H54.5133V44.8665H55.7333V42.4665C55.7333 41.5065 56.2833 41.0365 57.1633 41.0365H57.6133V39.9065ZM59.0491 38.9365C59.4491 38.9365 59.7791 38.6065 59.7791 38.1965C59.7791 37.7865 59.4491 37.4665 59.0491 37.4665C58.6291 37.4665 58.2991 37.7865 58.2991 38.1965C58.2991 38.6065 58.6291 38.9365 59.0491 38.9365ZM58.4391 44.8665H59.6591V39.9265H58.4391V44.8665ZM62.1396 44.8665V42.2065C62.1396 41.4065 62.5996 40.8865 63.3496 40.8865C63.9796 40.8865 64.3896 41.2865 64.3896 42.1165V44.8665H65.6096V41.8265C65.6096 40.5465 64.9696 39.7765 63.7296 39.7765C63.0596 39.7765 62.4596 40.0665 62.1496 40.5665L62.0496 39.9265H60.9196V44.8665H62.1396ZM66.5182 42.3865C66.5182 43.9565 67.4982 44.9965 68.9982 44.9965C70.2882 44.9965 71.2482 44.2065 71.3982 43.0565H70.1682C70.0382 43.5965 69.6082 43.8965 68.9982 43.8965C68.2182 43.8965 67.7382 43.3165 67.7382 42.3865C67.7382 41.4565 68.2582 40.8665 69.0382 40.8665C69.6182 40.8665 70.0282 41.1565 70.1682 41.7165H71.3882C71.2582 40.5265 70.3382 39.7765 68.9882 39.7765C67.5282 39.7765 66.5182 40.8565 66.5182 42.3865ZM72.9163 38.9365C73.3163 38.9365 73.6463 38.6065 73.6463 38.1965C73.6463 37.7865 73.3163 37.4665 72.9163 37.4665C72.4963 37.4665 72.1663 37.7865 72.1663 38.1965C72.1663 38.6065 72.4963 38.9365 72.9163 38.9365ZM72.3063 44.8665H73.5263V39.9265H72.3063V44.8665ZM74.7867 47.1565H76.0067V44.2065C76.3167 44.7065 76.9567 44.9965 77.6967 44.9965C79.1667 44.9965 80.0067 43.8765 80.0067 42.3365C80.0067 40.7865 79.0867 39.7765 77.6967 39.7765C76.9467 39.7765 76.2967 40.1065 75.9967 40.6765L75.9167 39.9265H74.7867V47.1565ZM76.0167 42.3965C76.0167 41.5065 76.5667 40.8865 77.4067 40.8865C78.2667 40.8865 78.7767 41.5165 78.7767 42.3965C78.7767 43.2765 78.2667 43.8965 77.4067 43.8965C76.5667 43.8965 76.0167 43.2865 76.0167 42.3965ZM82.4481 44.9965C83.2181 44.9965 83.8881 44.6465 84.0981 44.1365L84.1881 44.8665H85.2581V41.8665C85.2581 40.4965 84.4381 39.7765 83.1081 39.7765C81.7681 39.7765 80.8881 40.4765 80.8881 41.5465H81.9281C81.9281 41.0265 82.3281 40.7265 83.0481 40.7265C83.6681 40.7265 84.0681 40.9965 84.0681 41.6665V41.7765L82.5881 41.8865C81.4181 41.9765 80.7581 42.5465 80.7581 43.4565C80.7581 44.3865 81.3981 44.9965 82.4481 44.9965ZM82.8481 44.0765C82.2981 44.0765 81.9981 43.8565 81.9981 43.4065C81.9981 43.0065 82.2881 42.7565 83.0481 42.6865L84.0781 42.6065V42.8665C84.0781 43.6265 83.5981 44.0765 82.8481 44.0765ZM87.6867 44.8665V37.4265H86.4767V44.8665H87.6867Z" fill="#121419"/>
<path d="M61.0125 31V15.3563H56.3333V31H61.0125Z" fill="#121419"/>
<path d="M68.141 31V23.1001C68.141 20.446 69.2016 19.2594 72.1651 19.2594C75.035 19.2594 76.0645 20.3211 76.0645 22.8191V31H80.7437V21.2578C80.7437 17.7919 78.716 15.0441 74.4423 15.0441C70.3558 15.0441 68.4841 17.5421 68.0786 20.165H67.7978V15.3563H63.4618V31H68.141Z" fill="#121419"/>
<path d="M67.4646 13.6845C67.4646 13.6845 76.7161 10.3795 80.7437 10.3795V10L56 10V13.6845H67.4646Z" fill="#121419"/>
<path d="M30 1H106V1C106 2.65685 104.657 4 103 4H33C31.3431 4 30 2.65685 30 1V1Z" fill="#E73A02"/>
<path d="M153.831 44.8665V44.2065H150.261V41.5965H153.491V40.9465H150.261V38.3665H153.821V37.7065H149.541V44.8665H153.831ZM155.333 44.8665L156.683 42.9265L158.043 44.8665H158.863L157.153 42.4565L158.873 40.0265H158.073L156.713 41.9665L155.343 40.0265H154.533L156.253 42.4465L154.523 44.8665H155.333ZM159.694 46.9765H160.384V43.9365C160.724 44.6365 161.374 44.9865 162.194 44.9865C163.624 44.9865 164.434 43.8865 164.434 42.4265C164.434 40.9665 163.594 39.8965 162.194 39.8965C161.384 39.8965 160.704 40.2565 160.364 41.0065L160.294 40.0265H159.694V46.9765ZM160.394 42.4465C160.394 41.3265 161.014 40.5265 162.074 40.5265C163.124 40.5265 163.734 41.3265 163.734 42.4465C163.734 43.5565 163.124 44.3665 162.074 44.3665C161.014 44.3665 160.394 43.5565 160.394 42.4465ZM166.254 44.8665V37.5765H165.564V44.8665H166.254ZM167.381 42.4465C167.381 43.9165 168.421 44.9865 169.841 44.9865C171.261 44.9865 172.301 43.9165 172.301 42.4465C172.301 40.9665 171.261 39.8965 169.841 39.8965C168.421 39.8965 167.381 40.9665 167.381 42.4465ZM168.081 42.4365C168.081 41.3165 168.801 40.5165 169.841 40.5165C170.871 40.5165 171.601 41.3165 171.601 42.4365C171.601 43.5765 170.871 44.3665 169.841 44.3665C168.801 44.3665 168.081 43.5765 168.081 42.4365ZM175.935 39.9665C175.765 39.9265 175.635 39.9165 175.485 39.9165C174.805 39.9165 174.295 40.2565 174.105 40.7765L174.055 40.0265H173.405V44.8665H174.095V42.1065C174.095 41.1865 174.665 40.5865 175.555 40.5865H175.935V39.9665ZM178.047 44.9865C178.867 44.9865 179.527 44.6265 179.827 44.0165L179.917 44.8665H180.497V41.7365C180.497 40.4565 179.677 39.8965 178.557 39.8965C177.367 39.8965 176.567 40.5265 176.567 41.5065H177.197C177.197 40.8565 177.697 40.4765 178.537 40.4765C179.247 40.4765 179.817 40.7765 179.817 41.7265V41.8865L178.217 42.0165C177.087 42.1065 176.407 42.6665 176.407 43.5565C176.407 44.4065 177.017 44.9865 178.047 44.9865ZM178.207 44.4265C177.547 44.4265 177.107 44.1265 177.107 43.5365C177.107 42.9965 177.477 42.5965 178.387 42.5165L179.817 42.4065V42.6665C179.817 43.7165 179.227 44.4265 178.207 44.4265Z" fill="#232630"/>
<g clip-path="url(#clip0_1055_868)">
<path fill-rule="evenodd" clip-rule="evenodd" d="M170.188 23.3672C171.245 22.0235 171.807 20.0971 171.807 17.4463C171.807 11.1247 168.636 9 162.875 9C157.114 9 154 11.1247 154 17.4463C154 23.8205 157.379 25.9978 162.983 25.9978C165.411 25.9978 167.386 25.5931 168.851 24.6076L173.707 31L175.156 29.8992L170.188 23.3672ZM157.584 22.7358C156.578 21.8637 155.821 20.3319 155.821 17.4463C155.821 14.5607 156.531 13.0572 157.483 12.2195C158.484 11.3352 160.156 10.8212 162.875 10.8212C165.595 10.8212 167.287 11.3352 168.304 12.2235C169.268 13.0653 169.986 14.5648 169.986 17.4463C169.986 20.3278 169.256 21.888 168.284 22.7601C167.272 23.6646 165.603 24.1766 162.983 24.1766C160.362 24.1766 158.654 23.6565 157.584 22.7358Z" fill="#232630"/>
</g>
<path d="M219.093 44.8665V38.9065L223.043 44.8665H223.753V37.7065H223.043V43.6665L219.103 37.7065H218.373V44.8665H219.093ZM225.012 42.4465C225.012 43.9165 226.052 44.9865 227.472 44.9865C228.892 44.9865 229.932 43.9165 229.932 42.4465C229.932 40.9665 228.892 39.8965 227.472 39.8965C226.052 39.8965 225.012 40.9665 225.012 42.4465ZM225.712 42.4365C225.712 41.3165 226.432 40.5165 227.472 40.5165C228.502 40.5165 229.232 41.3165 229.232 42.4365C229.232 43.5765 228.502 44.3665 227.472 44.3665C226.432 44.3665 225.712 43.5765 225.712 42.4365ZM232.097 44.8665V40.6065H233.067V40.0265H232.097V38.4965H231.417V40.0265H230.447V40.6065H231.417V44.8665H232.097ZM234.306 38.6965C234.586 38.6965 234.826 38.4665 234.826 38.1865C234.826 37.9065 234.586 37.6665 234.306 37.6665C234.026 37.6665 233.796 37.9065 233.796 38.1865C233.796 38.4665 234.026 38.6965 234.306 38.6965ZM233.966 44.8665H234.656V40.0265H233.966V44.8665ZM239.285 44.8665H239.975V40.0265H236.985V39.0865C236.985 38.5165 237.145 38.2165 237.725 38.2165H238.145V37.6165C237.985 37.5865 237.775 37.5765 237.605 37.5765C236.885 37.5765 236.295 37.9965 236.295 39.0865V40.0265H235.555V40.6065H236.295V44.8665H236.985V40.6065H239.285V44.8665ZM239.625 38.6465C239.895 38.6465 240.105 38.4465 240.105 38.1665C240.105 37.8865 239.895 37.6765 239.625 37.6765C239.345 37.6765 239.145 37.8865 239.145 38.1665C239.145 38.4465 239.345 38.6465 239.625 38.6465ZM241.047 42.4565C241.047 43.9765 241.977 44.9865 243.347 44.9865C244.447 44.9865 245.307 44.3365 245.537 43.3465H244.837C244.647 43.9665 244.067 44.3665 243.347 44.3665C242.367 44.3665 241.727 43.5965 241.727 42.4465C241.727 41.2565 242.417 40.5065 243.397 40.5065C244.067 40.5065 244.647 40.8765 244.827 41.5465H245.517C245.327 40.5465 244.507 39.8965 243.387 39.8965C241.977 39.8965 241.047 40.9365 241.047 42.4565ZM247.973 44.9865C248.793 44.9865 249.453 44.6265 249.753 44.0165L249.843 44.8665H250.423V41.7365C250.423 40.4565 249.603 39.8965 248.483 39.8965C247.293 39.8965 246.493 40.5265 246.493 41.5065H247.123C247.123 40.8565 247.623 40.4765 248.463 40.4765C249.173 40.4765 249.743 40.7765 249.743 41.7265V41.8865L248.143 42.0165C247.013 42.1065 246.333 42.6665 246.333 43.5565C246.333 44.4065 246.943 44.9865 247.973 44.9865ZM248.133 44.4265C247.473 44.4265 247.033 44.1265 247.033 43.5365C247.033 42.9965 247.403 42.5965 248.313 42.5165L249.743 42.4065V42.6665C249.743 43.7165 249.153 44.4265 248.133 44.4265ZM251.467 42.4565C251.467 43.9765 252.397 44.9865 253.767 44.9865C254.867 44.9865 255.727 44.3365 255.957 43.3465H255.257C255.067 43.9665 254.487 44.3665 253.767 44.3665C252.787 44.3665 252.147 43.5965 252.147 42.4465C252.147 41.2565 252.837 40.5065 253.817 40.5065C254.487 40.5065 255.067 40.8765 255.247 41.5465H255.937C255.747 40.5465 254.927 39.8965 253.807 39.8965C252.397 39.8965 251.467 40.9365 251.467 42.4565ZM257.343 38.6965C257.623 38.6965 257.863 38.4665 257.863 38.1865C257.863 37.9065 257.623 37.6665 257.343 37.6665C257.063 37.6665 256.833 37.9065 256.833 38.1865C256.833 38.4665 257.063 38.6965 257.343 38.6965ZM257.003 44.8665H257.693V40.0265H257.003V44.8665ZM258.792 42.4465C258.792 43.9165 259.832 44.9865 261.252 44.9865C262.672 44.9865 263.712 43.9165 263.712 42.4465C263.712 40.9665 262.672 39.8965 261.252 39.8965C259.832 39.8965 258.792 40.9665 258.792 42.4465ZM259.492 42.4365C259.492 41.3165 260.212 40.5165 261.252 40.5165C262.282 40.5165 263.012 41.3165 263.012 42.4365C263.012 43.5765 262.282 44.3665 261.252 44.3665C260.212 44.3665 259.492 43.5765 259.492 42.4365ZM265.505 44.8665V42.3365C265.505 41.2465 266.065 40.5265 267.055 40.5265C267.855 40.5265 268.365 40.9265 268.365 42.0565V44.8665H269.055V41.9065C269.055 40.6865 268.505 39.8965 267.175 39.8965C266.475 39.8965 265.835 40.2465 265.515 40.8665L265.415 40.0265H264.815V44.8665H265.505ZM272.46 44.9865C273.6 44.9865 274.35 44.4365 274.61 43.4165H273.95C273.77 44.0565 273.26 44.3965 272.47 44.3965C271.43 44.3965 270.81 43.7165 270.76 42.5365H274.61V42.1965C274.61 40.8265 273.72 39.8965 272.41 39.8965C271.03 39.8965 270.09 40.9365 270.09 42.4465C270.09 43.9665 271.04 44.9865 272.46 44.9865ZM272.41 40.4865C273.32 40.4865 273.92 41.1065 273.92 42.0365H270.78C270.9 41.0865 271.5 40.4865 272.41 40.4865ZM275.304 43.5065C275.304 44.4065 275.984 44.9865 277.074 44.9865C278.174 44.9865 278.914 44.4165 278.914 43.5465C278.914 42.8465 278.534 42.4565 277.694 42.2465L276.864 42.0365C276.334 41.9065 276.074 41.6465 276.074 41.2765C276.074 40.7565 276.454 40.4665 277.134 40.4665C277.784 40.4665 278.174 40.7965 278.194 41.3565H278.864C278.834 40.4565 278.174 39.8965 277.154 39.8965C276.114 39.8965 275.404 40.4365 275.404 41.2865C275.404 41.9465 275.814 42.3865 276.654 42.5965L277.484 42.8065C278.054 42.9465 278.254 43.1765 278.254 43.5765C278.254 44.0965 277.814 44.4165 277.064 44.4165C276.384 44.4165 275.964 44.0665 275.964 43.5065H275.304Z" fill="#232630"/>
<mask id="path-8-inside-1_1055_868" fill="white">
<path d="M252.6 27.6C252.6 27.6 251.239 27.6 248.912 27.6C246.585 27.6 245.2 27.6 245.2 27.6C245.2 30.1448 246.518 31 248.912 31C251.305 31 252.6 30.1416 252.6 27.6Z"/>
</mask>
<path d="M252.6 27.6H261.6V18.5999L252.6 18.6L252.6 27.6ZM245.2 27.6L245.2 18.6L236.2 18.5999V27.6H245.2ZM252.6 27.6C252.6 18.6 252.6 18.6 252.6 18.6C252.6 18.6 252.6 18.6 252.6 18.6C252.6 18.6 252.6 18.6 252.6 18.6C252.599 18.6 252.599 18.6 252.599 18.6C252.598 18.6 252.597 18.6 252.596 18.6C252.593 18.6 252.589 18.6 252.584 18.6C252.573 18.6 252.558 18.6 252.537 18.6C252.495 18.6 252.433 18.6 252.351 18.6C252.187 18.6 251.944 18.6 251.629 18.6C250.997 18.6 250.075 18.6 248.912 18.6V36.6C250.075 36.6 250.997 36.6 251.629 36.6C251.944 36.6 252.187 36.6 252.351 36.6C252.433 36.6 252.495 36.6 252.537 36.6C252.558 36.6 252.574 36.6 252.584 36.6C252.589 36.6 252.593 36.6 252.596 36.6C252.597 36.6 252.598 36.6 252.599 36.6C252.599 36.6 252.6 36.6 252.6 36.6C252.6 36.6 252.6 36.6 252.6 36.6C252.6 36.6 252.6 36.6 252.6 36.6C252.6 36.6 252.6 36.6 252.6 27.6ZM248.912 18.6C247.748 18.6 246.82 18.6 246.183 18.6C245.865 18.6 245.619 18.6 245.453 18.6C245.37 18.6 245.306 18.6 245.264 18.6C245.243 18.6 245.227 18.6 245.216 18.6C245.211 18.6 245.207 18.6 245.204 18.6C245.203 18.6 245.202 18.6 245.201 18.6C245.201 18.6 245.2 18.6 245.2 18.6C245.2 18.6 245.2 18.6 245.2 18.6C245.2 18.6 245.2 18.6 245.2 18.6C245.2 18.6 245.2 18.6 245.2 27.6C245.2 36.6 245.2 36.6 245.2 36.6C245.2 36.6 245.2 36.6 245.2 36.6C245.2 36.6 245.2 36.6 245.2 36.6C245.2 36.6 245.201 36.6 245.201 36.6C245.202 36.6 245.203 36.6 245.204 36.6C245.207 36.6 245.211 36.6 245.216 36.6C245.227 36.6 245.243 36.6 245.264 36.6C245.306 36.6 245.369 36.6 245.453 36.6C245.619 36.6 245.865 36.6 246.183 36.6C246.82 36.6 247.748 36.6 248.912 36.6V18.6ZM236.2 27.6C236.2 30.3383 236.94 34.2444 240.345 37.1253C243.412 39.72 246.974 40 248.912 40V22C248.456 22 250.161 21.8523 251.971 23.3832C254.119 25.2004 254.2 27.4064 254.2 27.6H236.2ZM248.912 40C250.852 40 254.431 39.7188 257.501 37.0949C260.89 34.1982 261.6 30.2931 261.6 27.6H243.6C243.6 27.4485 243.663 25.2434 245.806 23.4113C247.631 21.852 249.366 22 248.912 22V40Z" fill="#232630" mask="url(#path-8-inside-1_1055_868)"/>
<path d="M241.416 20.2917V16.4111C241.43 14.2097 243.433 12.0779 246.637 11.3657C247.296 11.2191 247.841 10.6919 247.968 10H249.631C249.758 10.6919 250.304 11.2191 250.963 11.3657C254.167 12.0779 256.169 14.2097 256.184 16.4111V20.2917C256.184 21.6454 256.868 22.9072 258.003 23.6451L260.702 25.4H236.898L239.597 23.6451C240.732 22.9072 241.416 21.6454 241.416 20.2917Z" stroke="#232630" stroke-width="2"/>
<path d="M333.418 44.8665H334.168L336.888 37.7065H336.148L334.248 42.6765C334.138 42.9465 333.958 43.4465 333.808 43.9665C333.648 43.4665 333.508 43.0765 333.358 42.6865L331.448 37.7065H330.678L333.418 44.8665ZM339.124 38.2765H338.394L337.794 39.4665H338.354L339.124 38.2765ZM337.704 44.8665H338.394V40.0265H337.704V44.8665ZM341.733 44.9865C342.543 44.9865 343.223 44.6265 343.563 43.8765L343.633 44.8665H344.233V37.5765H343.543V40.9465C343.203 40.2465 342.563 39.8965 341.763 39.8965C340.323 39.8965 339.493 40.9965 339.493 42.4565C339.493 43.9065 340.323 44.9865 341.733 44.9865ZM341.853 44.3565C340.803 44.3565 340.193 43.5565 340.193 42.4365C340.193 41.3265 340.803 40.5165 341.853 40.5165C342.913 40.5165 343.533 41.3265 343.533 42.4365C343.533 43.5565 342.913 44.3565 341.853 44.3565ZM347.703 44.9865C348.843 44.9865 349.593 44.4365 349.853 43.4165H349.193C349.013 44.0565 348.503 44.3965 347.713 44.3965C346.673 44.3965 346.053 43.7165 346.003 42.5365H349.853V42.1965C349.853 40.8265 348.963 39.8965 347.653 39.8965C346.273 39.8965 345.333 40.9365 345.333 42.4465C345.333 43.9665 346.283 44.9865 347.703 44.9865ZM347.653 40.4865C348.563 40.4865 349.163 41.1065 349.163 42.0365H346.023C346.143 41.0865 346.743 40.4865 347.653 40.4865ZM350.616 42.4465C350.616 43.9165 351.656 44.9865 353.076 44.9865C354.496 44.9865 355.536 43.9165 355.536 42.4465C355.536 40.9665 354.496 39.8965 353.076 39.8965C351.656 39.8965 350.616 40.9665 350.616 42.4465ZM351.316 42.4365C351.316 41.3165 352.036 40.5165 353.076 40.5165C354.106 40.5165 354.836 41.3165 354.836 42.4365C354.836 43.5765 354.106 44.3665 353.076 44.3665C352.036 44.3665 351.316 43.5765 351.316 42.4365ZM356.229 43.5065C356.229 44.4065 356.909 44.9865 357.999 44.9865C359.099 44.9865 359.839 44.4165 359.839 43.5465C359.839 42.8465 359.459 42.4565 358.619 42.2465L357.789 42.0365C357.259 41.9065 356.999 41.6465 356.999 41.2765C356.999 40.7565 357.379 40.4665 358.059 40.4665C358.709 40.4665 359.099 40.7965 359.119 41.3565H359.789C359.759 40.4565 359.099 39.8965 358.079 39.8965C357.039 39.8965 356.329 40.4365 356.329 41.2865C356.329 41.9465 356.739 42.3865 357.579 42.5965L358.409 42.8065C358.979 42.9465 359.179 43.1765 359.179 43.5765C359.179 44.0965 358.739 44.4165 357.989 44.4165C357.309 44.4165 356.889 44.0665 356.889 43.5065H356.229Z" fill="#232630"/>
<path d="M342.194 31V13.3409H336.228V31H342.194Z" fill="#232630"/>
<path d="M351.328 13.6779C351.328 13.6779 360.563 10.3788 364.583 10.3788V10L328 10V13.6779L351.328 13.6779Z" fill="#232630"/>
<path d="M356.219 31L362.456 15.3693H357.216L353.298 26.5674H352.997L348.986 15.3693H343.723L349.959 31H356.219Z" fill="#232630"/>
<rect x="141" y="71" width="134" height="5" rx="2.5" fill="#121419"/>
</g>
<defs>
<filter id="filter0_bd_1055_868" x="-20" y="-19" width="454" height="123" filterUnits="userSpaceOnUse" color-interpolation-filters="sRGB">
<feFlood flood-opacity="0" result="BackgroundImageFix"/>
<feGaussianBlur in="BackgroundImage" stdDeviation="10"/>
<feComposite in2="SourceAlpha" operator="in" result="effect1_backgroundBlur_1055_868"/>
<feColorMatrix in="SourceAlpha" type="matrix" values="0 0 0 0 0 0 0 0 0 0 0 0 0 0 0 0 0 0 127 0" result="hardAlpha"/>
<feOffset dy="-0.5"/>
<feColorMatrix type="matrix" values="0 0 0 0 0 0 0 0 0 0 0 0 0 0 0 0 0 0 0.3 0"/>
<feBlend mode="normal" in2="effect1_backgroundBlur_1055_868" result="effect2_dropShadow_1055_868"/>
<feBlend mode="normal" in="SourceGraphic" in2="effect2_dropShadow_1055_868" result="shape"/>
</filter>
<clipPath id="clip0_1055_868">
<rect width="21.1623" height="22" fill="white" transform="translate(154 9)"/>
</clipPath>
</defs>
</svg>
