<svg width="414" height="107" viewBox="0 0 414 107" fill="none" xmlns="http://www.w3.org/2000/svg">
<g filter="url(#filter0_bd_1055_896)">
<rect width="414" height="106" transform="translate(0 1)" fill="#121419"/>
<g clip-path="url(#clip0_1055_896)">
<path d="M32.5002 36.6827C32.1431 37.1556 31.4645 37.2371 31.0056 36.8621L18.9181 26.9848C17.694 25.9845 17.694 24.1133 18.9181 23.1131L31.0056 13.2358C31.4645 12.8608 32.1431 12.9422 32.5002 13.4152C32.8386 13.8632 32.7623 14.4984 32.3276 14.8536L22.22 23.1131C20.9959 24.1133 20.9959 25.9845 22.22 26.9848L32.3276 35.2442C32.7623 35.5994 32.8386 36.2347 32.5002 36.6827Z" fill="#4D546A"/>
<path fill-rule="evenodd" clip-rule="evenodd" d="M45.7157 25.3203C45.7157 25.7804 45.3426 26.1536 44.8823 26.1536H19.9559C19.4957 26.1536 19.1226 25.7804 19.1226 25.3203V24.7567C19.1226 24.2964 19.4957 23.9233 19.9559 23.9233H44.8823C45.3426 23.9233 45.7157 24.2964 45.7157 24.7567V25.3203Z" fill="#4D546A"/>
</g>
<rect x="71.156" y="9.5" width="322.382" height="47" rx="2.5" fill="#232630" stroke="#B8BDCB"/>
<path d="M88.341 39.165C90.651 39.165 92.526 37.8 93.021 35.775H91.866C91.401 37.215 90.051 38.13 88.356 38.13C86.001 38.13 84.426 36.33 84.426 33.63C84.426 30.915 86.001 29.115 88.356 29.115C90.036 29.115 91.356 30.06 91.806 31.605H92.961C92.526 29.475 90.711 28.08 88.401 28.08C85.371 28.08 83.301 30.33 83.301 33.63C83.301 36.93 85.341 39.165 88.341 39.165ZM95.6255 38.985V35.04C95.6255 33.645 96.4355 32.49 97.9955 32.49C99.1205 32.49 99.9155 33.09 99.9155 34.785V39H100.95V34.56C100.95 32.73 100.095 31.545 98.1905 31.545C96.9755 31.545 96.0905 32.13 95.6255 33V28.065H94.5905V38.985H95.6255ZM105.098 39.18C106.328 39.18 107.318 38.64 107.768 37.725L107.903 39H108.773V34.305C108.773 32.385 107.543 31.545 105.863 31.545C104.078 31.545 102.878 32.49 102.878 33.96H103.823C103.823 32.985 104.573 32.415 105.833 32.415C106.898 32.415 107.753 32.865 107.753 34.29V34.53L105.353 34.725C103.658 34.86 102.638 35.7 102.638 37.035C102.638 38.31 103.553 39.18 105.098 39.18ZM105.338 38.34C104.348 38.34 103.688 37.89 103.688 37.005C103.688 36.195 104.243 35.595 105.608 35.475L107.753 35.31V35.7C107.753 37.275 106.868 38.34 105.338 38.34ZM112.383 39V32.61H113.838V31.74H112.383V29.445H111.363V31.74H109.908V32.61H111.363V39H112.383ZM118.158 39.18C119.868 39.18 120.993 38.355 121.383 36.825H120.393C120.123 37.785 119.358 38.295 118.173 38.295C116.613 38.295 115.683 37.275 115.608 35.505H121.383V34.995C121.383 32.94 120.048 31.545 118.083 31.545C116.013 31.545 114.603 33.105 114.603 35.37C114.603 37.65 116.028 39.18 118.158 39.18ZM118.083 32.43C119.448 32.43 120.348 33.36 120.348 34.755H115.638C115.818 33.33 116.718 32.43 118.083 32.43ZM125.05 39.18C126.28 39.18 127.27 38.64 127.72 37.725L127.855 39H128.725V34.305C128.725 32.385 127.495 31.545 125.815 31.545C124.03 31.545 122.83 32.49 122.83 33.96H123.775C123.775 32.985 124.525 32.415 125.785 32.415C126.85 32.415 127.705 32.865 127.705 34.29V34.53L125.305 34.725C123.61 34.86 122.59 35.7 122.59 37.035C122.59 38.31 123.505 39.18 125.05 39.18ZM125.29 38.34C124.3 38.34 123.64 37.89 123.64 37.005C123.64 36.195 124.195 35.595 125.56 35.475L127.705 35.31V35.7C127.705 37.275 126.82 38.34 125.29 38.34Z" fill="#B8BDCB"/>
<path d="M362.985 39C362.124 39 361.297 38.6576 360.687 38.0481C360.078 37.4386 359.735 36.612 359.735 35.75V27.25C359.735 26.388 360.078 25.5614 360.687 24.9519C361.297 24.3424 362.124 24 362.985 24H376.485C376.912 24 377.335 24.0841 377.729 24.2474C378.124 24.4107 378.482 24.6501 378.784 24.9519C379.085 25.2537 379.325 25.612 379.488 26.0063C379.651 26.4006 379.735 26.8232 379.735 27.25V35.75C379.735 36.1768 379.651 36.5994 379.488 36.9937C379.325 37.388 379.085 37.7463 378.784 38.0481C378.482 38.3499 378.124 38.5893 377.729 38.7526C377.335 38.9159 376.912 39 376.485 39H370.747L365.735 42.75C365.55 42.889 365.329 42.9736 365.098 42.9943C364.867 43.015 364.635 42.971 364.427 42.8672C364.22 42.7634 364.045 42.6039 363.923 42.4066C363.801 42.2093 363.737 41.982 363.736 41.75V39H362.986H362.985ZM370.249 37.5H376.485C376.95 37.5 377.395 37.3156 377.723 36.9874C378.051 36.6592 378.235 36.2141 378.235 35.75V27.25C378.235 26.7859 378.051 26.3408 377.723 26.0126C377.395 25.6844 376.95 25.5 376.485 25.5H362.985C362.521 25.5 362.076 25.6844 361.748 26.0126C361.42 26.3408 361.235 26.7859 361.235 27.25V35.75C361.235 36.716 362.019 37.5 362.985 37.5H365.234V41.25L370.249 37.5Z" fill="#B8BDCB"/>
<line x1="345.156" y1="10" x2="345.156" y2="56" stroke="#B8BDCB"/>
<rect x="141" y="94" width="134" height="5" rx="2.5" fill="#B8BDCB"/>
</g>
<defs>
<filter id="filter0_bd_1055_896" x="-20" y="-19" width="454" height="146" filterUnits="userSpaceOnUse" color-interpolation-filters="sRGB">
<feFlood flood-opacity="0" result="BackgroundImageFix"/>
<feGaussianBlur in="BackgroundImage" stdDeviation="10"/>
<feComposite in2="SourceAlpha" operator="in" result="effect1_backgroundBlur_1055_896"/>
<feColorMatrix in="SourceAlpha" type="matrix" values="0 0 0 0 0 0 0 0 0 0 0 0 0 0 0 0 0 0 127 0" result="hardAlpha"/>
<feOffset dy="-0.5"/>
<feColorMatrix type="matrix" values="0 0 0 0 0 0 0 0 0 0 0 0 0 0 0 0 0 0 0.3 0"/>
<feBlend mode="normal" in2="effect1_backgroundBlur_1055_896" result="effect2_dropShadow_1055_896"/>
<feBlend mode="normal" in="SourceGraphic" in2="effect2_dropShadow_1055_896" result="shape"/>
</filter>
<clipPath id="clip0_1055_896">
<rect width="57.7157" height="36.0979" fill="white" transform="translate(0 1)"/>
</clipPath>
</defs>
</svg>
