<svg width="414" height="84" viewBox="0 0 414 84" fill="none" xmlns="http://www.w3.org/2000/svg">
<g filter="url(#filter0_bd_1055_896)">
<rect width="414" height="83" transform="translate(0 1)" fill="#121419"/>
<path d="M52.0614 42.2365C53.4314 42.2365 54.3114 41.2565 54.3114 39.9565C54.3114 38.6065 53.4414 37.7065 52.0614 37.7065H49.3314V44.8665H50.0514V42.2365H52.0614ZM51.9614 38.3565C52.9514 38.3565 53.5614 38.9565 53.5614 39.9465C53.5614 40.9265 52.9614 41.5865 51.9214 41.5865H50.0514V38.3565H51.9614ZM57.854 39.9665C57.684 39.9265 57.554 39.9165 57.404 39.9165C56.724 39.9165 56.214 40.2565 56.024 40.7765L55.974 40.0265H55.324V44.8665H56.014V42.1065C56.014 41.1865 56.584 40.5865 57.474 40.5865H57.854V39.9665ZM59.1113 38.6965C59.3913 38.6965 59.6313 38.4665 59.6313 38.1865C59.6313 37.9065 59.3913 37.6665 59.1113 37.6665C58.8313 37.6665 58.6013 37.9065 58.6013 38.1865C58.6013 38.4665 58.8313 38.6965 59.1113 38.6965ZM58.7713 44.8665H59.4613V40.0265H58.7713V44.8665ZM61.5902 44.8665V42.3365C61.5902 41.2465 62.1502 40.5265 63.1402 40.5265C63.9402 40.5265 64.4502 40.9265 64.4502 42.0565V44.8665H65.1402V41.9065C65.1402 40.6865 64.5902 39.8965 63.2602 39.8965C62.5602 39.8965 61.9202 40.2465 61.6002 40.8665L61.5002 40.0265H60.9002V44.8665H61.5902ZM66.1754 42.4565C66.1754 43.9765 67.1054 44.9865 68.4754 44.9865C69.5754 44.9865 70.4354 44.3365 70.6654 43.3465H69.9654C69.7754 43.9665 69.1954 44.3665 68.4754 44.3665C67.4954 44.3665 66.8554 43.5965 66.8554 42.4465C66.8554 41.2565 67.5454 40.5065 68.5254 40.5065C69.1954 40.5065 69.7754 40.8765 69.9554 41.5465H70.6454C70.4554 40.5465 69.6354 39.8965 68.5154 39.8965C67.1054 39.8965 66.1754 40.9365 66.1754 42.4565ZM72.0507 38.6965C72.3307 38.6965 72.5707 38.4665 72.5707 38.1865C72.5707 37.9065 72.3307 37.6665 72.0507 37.6665C71.7707 37.6665 71.5407 37.9065 71.5407 38.1865C71.5407 38.4665 71.7707 38.6965 72.0507 38.6965ZM71.7107 44.8665H72.4007V40.0265H71.7107V44.8665ZM73.8396 46.9765H74.5296V43.9365C74.8696 44.6365 75.5196 44.9865 76.3396 44.9865C77.7696 44.9865 78.5796 43.8865 78.5796 42.4265C78.5796 40.9665 77.7396 39.8965 76.3396 39.8965C75.5296 39.8965 74.8496 40.2565 74.5096 41.0065L74.4396 40.0265H73.8396V46.9765ZM74.5396 42.4465C74.5396 41.3265 75.1596 40.5265 76.2196 40.5265C77.2696 40.5265 77.8796 41.3265 77.8796 42.4465C77.8796 43.5565 77.2696 44.3665 76.2196 44.3665C75.1596 44.3665 74.5396 43.5565 74.5396 42.4465ZM81.0695 44.9865C81.8895 44.9865 82.5495 44.6265 82.8495 44.0165L82.9395 44.8665H83.5195V41.7365C83.5195 40.4565 82.6995 39.8965 81.5795 39.8965C80.3895 39.8965 79.5895 40.5265 79.5895 41.5065H80.2195C80.2195 40.8565 80.7195 40.4765 81.5595 40.4765C82.2695 40.4765 82.8395 40.7765 82.8395 41.7265V41.8865L81.2395 42.0165C80.1095 42.1065 79.4295 42.6665 79.4295 43.5565C79.4295 44.4065 80.0395 44.9865 81.0695 44.9865ZM81.2295 44.4265C80.5695 44.4265 80.1295 44.1265 80.1295 43.5365C80.1295 42.9965 80.4995 42.5965 81.4095 42.5165L82.8395 42.4065V42.6665C82.8395 43.7165 82.2495 44.4265 81.2295 44.4265ZM85.6241 44.8665V37.5765H84.9341V44.8665H85.6241Z" fill="#B8BDCB"/>
<path d="M61.0125 31V15.3563H56.3333V31H61.0125Z" fill="#B8BDCB"/>
<path d="M68.141 31V23.1001C68.141 20.446 69.2016 19.2594 72.1651 19.2594C75.035 19.2594 76.0645 20.3211 76.0645 22.8191V31H80.7437V21.2578C80.7437 17.7919 78.716 15.0441 74.4423 15.0441C70.3558 15.0441 68.4841 17.5421 68.0786 20.165H67.7978V15.3563H63.4618V31H68.141Z" fill="#B8BDCB"/>
<path d="M67.4646 13.6845C67.4646 13.6845 76.7161 10.3795 80.7437 10.3795V10L56 10V13.6845H67.4646Z" fill="#B8BDCB"/>
<path d="M153.831 44.8665V44.2065H150.261V41.5965H153.491V40.9465H150.261V38.3665H153.821V37.7065H149.541V44.8665H153.831ZM155.333 44.8665L156.683 42.9265L158.043 44.8665H158.863L157.153 42.4565L158.873 40.0265H158.073L156.713 41.9665L155.343 40.0265H154.533L156.253 42.4465L154.523 44.8665H155.333ZM159.694 46.9765H160.384V43.9365C160.724 44.6365 161.374 44.9865 162.194 44.9865C163.624 44.9865 164.434 43.8865 164.434 42.4265C164.434 40.9665 163.594 39.8965 162.194 39.8965C161.384 39.8965 160.704 40.2565 160.364 41.0065L160.294 40.0265H159.694V46.9765ZM160.394 42.4465C160.394 41.3265 161.014 40.5265 162.074 40.5265C163.124 40.5265 163.734 41.3265 163.734 42.4465C163.734 43.5565 163.124 44.3665 162.074 44.3665C161.014 44.3665 160.394 43.5565 160.394 42.4465ZM166.254 44.8665V37.5765H165.564V44.8665H166.254ZM167.381 42.4465C167.381 43.9165 168.421 44.9865 169.841 44.9865C171.261 44.9865 172.301 43.9165 172.301 42.4465C172.301 40.9665 171.261 39.8965 169.841 39.8965C168.421 39.8965 167.381 40.9665 167.381 42.4465ZM168.081 42.4365C168.081 41.3165 168.801 40.5165 169.841 40.5165C170.871 40.5165 171.601 41.3165 171.601 42.4365C171.601 43.5765 170.871 44.3665 169.841 44.3665C168.801 44.3665 168.081 43.5765 168.081 42.4365ZM175.935 39.9665C175.765 39.9265 175.635 39.9165 175.485 39.9165C174.805 39.9165 174.295 40.2565 174.105 40.7765L174.055 40.0265H173.405V44.8665H174.095V42.1065C174.095 41.1865 174.665 40.5865 175.555 40.5865H175.935V39.9665ZM178.047 44.9865C178.867 44.9865 179.527 44.6265 179.827 44.0165L179.917 44.8665H180.497V41.7365C180.497 40.4565 179.677 39.8965 178.557 39.8965C177.367 39.8965 176.567 40.5265 176.567 41.5065H177.197C177.197 40.8565 177.697 40.4765 178.537 40.4765C179.247 40.4765 179.817 40.7765 179.817 41.7265V41.8865L178.217 42.0165C177.087 42.1065 176.407 42.6665 176.407 43.5565C176.407 44.4065 177.017 44.9865 178.047 44.9865ZM178.207 44.4265C177.547 44.4265 177.107 44.1265 177.107 43.5365C177.107 42.9965 177.477 42.5965 178.387 42.5165L179.817 42.4065V42.6665C179.817 43.7165 179.227 44.4265 178.207 44.4265Z" fill="#B8BDCB"/>
<g clip-path="url(#clip0_1055_896)">
<path fill-rule="evenodd" clip-rule="evenodd" d="M170.188 23.3672C171.245 22.0235 171.807 20.0971 171.807 17.4463C171.807 11.1247 168.636 9 162.875 9C157.114 9 154 11.1247 154 17.4463C154 23.8205 157.379 25.9978 162.983 25.9978C165.411 25.9978 167.386 25.5931 168.851 24.6076L173.707 31L175.156 29.8992L170.188 23.3672ZM157.584 22.7358C156.578 21.8637 155.821 20.3319 155.821 17.4463C155.821 14.5607 156.531 13.0572 157.483 12.2195C158.484 11.3352 160.156 10.8212 162.875 10.8212C165.595 10.8212 167.287 11.3352 168.304 12.2235C169.268 13.0653 169.986 14.5648 169.986 17.4463C169.986 20.3278 169.256 21.888 168.284 22.7601C167.272 23.6646 165.603 24.1766 162.983 24.1766C160.362 24.1766 158.654 23.6565 157.584 22.7358Z" fill="#B8BDCB"/>
</g>
<path d="M219.093 44.8665V38.9065L223.043 44.8665H223.753V37.7065H223.043V43.6665L219.103 37.7065H218.373V44.8665H219.093ZM225.012 42.4465C225.012 43.9165 226.052 44.9865 227.472 44.9865C228.892 44.9865 229.932 43.9165 229.932 42.4465C229.932 40.9665 228.892 39.8965 227.472 39.8965C226.052 39.8965 225.012 40.9665 225.012 42.4465ZM225.712 42.4365C225.712 41.3165 226.432 40.5165 227.472 40.5165C228.502 40.5165 229.232 41.3165 229.232 42.4365C229.232 43.5765 228.502 44.3665 227.472 44.3665C226.432 44.3665 225.712 43.5765 225.712 42.4365ZM232.097 44.8665V40.6065H233.067V40.0265H232.097V38.4965H231.417V40.0265H230.447V40.6065H231.417V44.8665H232.097ZM234.306 38.6965C234.586 38.6965 234.826 38.4665 234.826 38.1865C234.826 37.9065 234.586 37.6665 234.306 37.6665C234.026 37.6665 233.796 37.9065 233.796 38.1865C233.796 38.4665 234.026 38.6965 234.306 38.6965ZM233.966 44.8665H234.656V40.0265H233.966V44.8665ZM239.285 44.8665H239.975V40.0265H236.985V39.0865C236.985 38.5165 237.145 38.2165 237.725 38.2165H238.145V37.6165C237.985 37.5865 237.775 37.5765 237.605 37.5765C236.885 37.5765 236.295 37.9965 236.295 39.0865V40.0265H235.555V40.6065H236.295V44.8665H236.985V40.6065H239.285V44.8665ZM239.625 38.6465C239.895 38.6465 240.105 38.4465 240.105 38.1665C240.105 37.8865 239.895 37.6765 239.625 37.6765C239.345 37.6765 239.145 37.8865 239.145 38.1665C239.145 38.4465 239.345 38.6465 239.625 38.6465ZM241.047 42.4565C241.047 43.9765 241.977 44.9865 243.347 44.9865C244.447 44.9865 245.307 44.3365 245.537 43.3465H244.837C244.647 43.9665 244.067 44.3665 243.347 44.3665C242.367 44.3665 241.727 43.5965 241.727 42.4465C241.727 41.2565 242.417 40.5065 243.397 40.5065C244.067 40.5065 244.647 40.8765 244.827 41.5465H245.517C245.327 40.5465 244.507 39.8965 243.387 39.8965C241.977 39.8965 241.047 40.9365 241.047 42.4565ZM247.973 44.9865C248.793 44.9865 249.453 44.6265 249.753 44.0165L249.843 44.8665H250.423V41.7365C250.423 40.4565 249.603 39.8965 248.483 39.8965C247.293 39.8965 246.493 40.5265 246.493 41.5065H247.123C247.123 40.8565 247.623 40.4765 248.463 40.4765C249.173 40.4765 249.743 40.7765 249.743 41.7265V41.8865L248.143 42.0165C247.013 42.1065 246.333 42.6665 246.333 43.5565C246.333 44.4065 246.943 44.9865 247.973 44.9865ZM248.133 44.4265C247.473 44.4265 247.033 44.1265 247.033 43.5365C247.033 42.9965 247.403 42.5965 248.313 42.5165L249.743 42.4065V42.6665C249.743 43.7165 249.153 44.4265 248.133 44.4265ZM251.467 42.4565C251.467 43.9765 252.397 44.9865 253.767 44.9865C254.867 44.9865 255.727 44.3365 255.957 43.3465H255.257C255.067 43.9665 254.487 44.3665 253.767 44.3665C252.787 44.3665 252.147 43.5965 252.147 42.4465C252.147 41.2565 252.837 40.5065 253.817 40.5065C254.487 40.5065 255.067 40.8765 255.247 41.5465H255.937C255.747 40.5465 254.927 39.8965 253.807 39.8965C252.397 39.8965 251.467 40.9365 251.467 42.4565ZM257.343 38.6965C257.623 38.6965 257.863 38.4665 257.863 38.1865C257.863 37.9065 257.623 37.6665 257.343 37.6665C257.063 37.6665 256.833 37.9065 256.833 38.1865C256.833 38.4665 257.063 38.6965 257.343 38.6965ZM257.003 44.8665H257.693V40.0265H257.003V44.8665ZM258.792 42.4465C258.792 43.9165 259.832 44.9865 261.252 44.9865C262.672 44.9865 263.712 43.9165 263.712 42.4465C263.712 40.9665 262.672 39.8965 261.252 39.8965C259.832 39.8965 258.792 40.9665 258.792 42.4465ZM259.492 42.4365C259.492 41.3165 260.212 40.5165 261.252 40.5165C262.282 40.5165 263.012 41.3165 263.012 42.4365C263.012 43.5765 262.282 44.3665 261.252 44.3665C260.212 44.3665 259.492 43.5765 259.492 42.4365ZM265.505 44.8665V42.3365C265.505 41.2465 266.065 40.5265 267.055 40.5265C267.855 40.5265 268.365 40.9265 268.365 42.0565V44.8665H269.055V41.9065C269.055 40.6865 268.505 39.8965 267.175 39.8965C266.475 39.8965 265.835 40.2465 265.515 40.8665L265.415 40.0265H264.815V44.8665H265.505ZM272.46 44.9865C273.6 44.9865 274.35 44.4365 274.61 43.4165H273.95C273.77 44.0565 273.26 44.3965 272.47 44.3965C271.43 44.3965 270.81 43.7165 270.76 42.5365H274.61V42.1965C274.61 40.8265 273.72 39.8965 272.41 39.8965C271.03 39.8965 270.09 40.9365 270.09 42.4465C270.09 43.9665 271.04 44.9865 272.46 44.9865ZM272.41 40.4865C273.32 40.4865 273.92 41.1065 273.92 42.0365H270.78C270.9 41.0865 271.5 40.4865 272.41 40.4865ZM275.304 43.5065C275.304 44.4065 275.984 44.9865 277.074 44.9865C278.174 44.9865 278.914 44.4165 278.914 43.5465C278.914 42.8465 278.534 42.4565 277.694 42.2465L276.864 42.0365C276.334 41.9065 276.074 41.6465 276.074 41.2765C276.074 40.7565 276.454 40.4665 277.134 40.4665C277.784 40.4665 278.174 40.7965 278.194 41.3565H278.864C278.834 40.4565 278.174 39.8965 277.154 39.8965C276.114 39.8965 275.404 40.4365 275.404 41.2865C275.404 41.9465 275.814 42.3865 276.654 42.5965L277.484 42.8065C278.054 42.9465 278.254 43.1765 278.254 43.5765C278.254 44.0965 277.814 44.4165 277.064 44.4165C276.384 44.4165 275.964 44.0665 275.964 43.5065H275.304Z" fill="#B8BDCB"/>
<mask id="path-7-inside-1_1055_896" fill="white">
<path d="M252.6 27.6C252.6 27.6 251.239 27.6 248.912 27.6C246.585 27.6 245.2 27.6 245.2 27.6C245.2 30.1448 246.518 31 248.912 31C251.305 31 252.6 30.1416 252.6 27.6Z"/>
</mask>
<path d="M252.6 27.6H261.6V18.5999L252.6 18.6L252.6 27.6ZM245.2 27.6L245.2 18.6L236.2 18.5999V27.6H245.2ZM252.6 27.6C252.6 18.6 252.6 18.6 252.6 18.6C252.6 18.6 252.6 18.6 252.6 18.6C252.6 18.6 252.6 18.6 252.6 18.6C252.599 18.6 252.599 18.6 252.599 18.6C252.598 18.6 252.597 18.6 252.596 18.6C252.593 18.6 252.589 18.6 252.584 18.6C252.573 18.6 252.558 18.6 252.537 18.6C252.495 18.6 252.433 18.6 252.351 18.6C252.187 18.6 251.944 18.6 251.629 18.6C250.997 18.6 250.075 18.6 248.912 18.6V36.6C250.075 36.6 250.997 36.6 251.629 36.6C251.944 36.6 252.187 36.6 252.351 36.6C252.433 36.6 252.495 36.6 252.537 36.6C252.558 36.6 252.574 36.6 252.584 36.6C252.589 36.6 252.593 36.6 252.596 36.6C252.597 36.6 252.598 36.6 252.599 36.6C252.599 36.6 252.6 36.6 252.6 36.6C252.6 36.6 252.6 36.6 252.6 36.6C252.6 36.6 252.6 36.6 252.6 36.6C252.6 36.6 252.6 36.6 252.6 27.6ZM248.912 18.6C247.748 18.6 246.82 18.6 246.183 18.6C245.865 18.6 245.619 18.6 245.453 18.6C245.37 18.6 245.306 18.6 245.264 18.6C245.243 18.6 245.227 18.6 245.216 18.6C245.211 18.6 245.207 18.6 245.204 18.6C245.203 18.6 245.202 18.6 245.201 18.6C245.201 18.6 245.2 18.6 245.2 18.6C245.2 18.6 245.2 18.6 245.2 18.6C245.2 18.6 245.2 18.6 245.2 18.6C245.2 18.6 245.2 18.6 245.2 27.6C245.2 36.6 245.2 36.6 245.2 36.6C245.2 36.6 245.2 36.6 245.2 36.6C245.2 36.6 245.2 36.6 245.2 36.6C245.2 36.6 245.201 36.6 245.201 36.6C245.202 36.6 245.203 36.6 245.204 36.6C245.207 36.6 245.211 36.6 245.216 36.6C245.227 36.6 245.243 36.6 245.264 36.6C245.306 36.6 245.369 36.6 245.453 36.6C245.619 36.6 245.865 36.6 246.183 36.6C246.82 36.6 247.748 36.6 248.912 36.6V18.6ZM236.2 27.6C236.2 30.3383 236.94 34.2444 240.345 37.1253C243.412 39.72 246.974 40 248.912 40V22C248.456 22 250.161 21.8523 251.971 23.3832C254.119 25.2004 254.2 27.4064 254.2 27.6H236.2ZM248.912 40C250.852 40 254.431 39.7188 257.501 37.0949C260.89 34.1982 261.6 30.2931 261.6 27.6H243.6C243.6 27.4485 243.663 25.2434 245.806 23.4113C247.631 21.852 249.366 22 248.912 22V40Z" fill="#B8BDCB" mask="url(#path-7-inside-1_1055_896)"/>
<path d="M241.416 20.2917V16.4111C241.43 14.2097 243.433 12.0779 246.637 11.3657C247.296 11.2191 247.841 10.6919 247.968 10H249.631C249.758 10.6919 250.304 11.2191 250.963 11.3657C254.167 12.0779 256.169 14.2097 256.184 16.4111V20.2917C256.184 21.6454 256.868 22.9072 258.003 23.6451L260.702 25.4H236.898L239.597 23.6451C240.732 22.9072 241.416 21.6454 241.416 20.2917Z" stroke="#B8BDCB" stroke-width="2"/>
<path d="M332.363 44.8665H333.683L336.403 37.5565H335.073L333.493 41.7665C333.353 42.1365 333.203 42.5865 333.023 43.2265C332.863 42.6365 332.723 42.2065 332.563 41.7665L330.963 37.5565H329.603L332.363 44.8665ZM339.185 37.8565H338.055L337.305 39.3365H338.215L339.185 37.8565ZM337.135 44.8665H338.355V39.9265H337.135V44.8665ZM341.646 44.9965C342.396 44.9965 343.036 44.6665 343.336 44.0965L343.416 44.8665H344.536V37.4265H343.326V40.5565C343.016 40.0665 342.406 39.7765 341.716 39.7765C340.226 39.7765 339.326 40.8765 339.326 42.4165C339.326 43.9465 340.216 44.9965 341.646 44.9965ZM341.916 43.8765C341.066 43.8765 340.546 43.2565 340.546 42.3765C340.546 41.4965 341.066 40.8665 341.916 40.8665C342.766 40.8665 343.316 41.4865 343.316 42.3765C343.316 43.2665 342.766 43.8765 341.916 43.8765ZM348.017 44.9965C349.307 44.9965 350.207 44.3465 350.417 43.2665H349.287C349.147 43.7365 348.707 43.9965 348.037 43.9965C347.227 43.9965 346.767 43.5565 346.677 42.6865L350.397 42.6765V42.3065C350.397 40.7665 349.457 39.7765 347.977 39.7765C346.527 39.7765 345.517 40.8465 345.517 42.3965C345.517 43.9265 346.547 44.9965 348.017 44.9965ZM347.987 40.7765C348.717 40.7765 349.187 41.2265 349.187 41.9065H346.707C346.827 41.1665 347.267 40.7765 347.987 40.7765ZM351.084 42.3865C351.084 43.9265 352.194 44.9865 353.724 44.9865C355.254 44.9865 356.364 43.9265 356.364 42.3865C356.364 40.8465 355.254 39.7865 353.724 39.7865C352.194 39.7865 351.084 40.8465 351.084 42.3865ZM352.304 42.3865C352.304 41.4865 352.884 40.8765 353.724 40.8765C354.564 40.8765 355.144 41.4865 355.144 42.3865C355.144 43.2865 354.564 43.8965 353.724 43.8965C352.884 43.8965 352.304 43.2865 352.304 42.3865ZM356.951 43.3665C356.951 44.3365 357.731 44.9965 358.961 44.9965C360.181 44.9965 361.031 44.3765 361.031 43.3765C361.031 42.6165 360.611 42.2365 359.781 42.0465L358.891 41.8365C358.471 41.7365 358.251 41.5565 358.251 41.2765C358.251 40.9065 358.531 40.6865 359.011 40.6865C359.481 40.6865 359.761 40.9565 359.771 41.3765H360.931C360.921 40.4165 360.171 39.7765 359.061 39.7765C357.921 39.7765 357.101 40.3565 357.101 41.3265C357.101 42.1165 357.531 42.5365 358.421 42.7365L359.311 42.9465C359.751 43.0465 359.881 43.2265 359.881 43.4765C359.881 43.8365 359.571 44.0665 359.001 44.0665C358.441 44.0665 358.121 43.7965 358.111 43.3665H356.951Z" fill="#FCFBF7"/>
<path d="M342.194 31V13.3409H336.228V31H342.194Z" fill="#FCFBF7"/>
<path d="M351.328 13.6779C351.328 13.6779 360.563 10.3788 364.583 10.3788V10L328 10V13.6779L351.328 13.6779Z" fill="#FCFBF7"/>
<path d="M356.219 31L362.456 15.3693H357.216L353.298 26.5674H352.997L348.986 15.3693H343.723L349.959 31H356.219Z" fill="#FCFBF7"/>
<path d="M308 1H384V1C384 2.65685 382.657 4 381 4H311C309.343 4 308 2.65685 308 1V1Z" fill="#5CFF89"/>
<rect x="141" y="71" width="134" height="5" rx="2.5" fill="#B8BDCB"/>
</g>
<defs>
<filter id="filter0_bd_1055_896" x="-20" y="-19" width="454" height="123" filterUnits="userSpaceOnUse" color-interpolation-filters="sRGB">
<feFlood flood-opacity="0" result="BackgroundImageFix"/>
<feGaussianBlur in="BackgroundImage" stdDeviation="10"/>
<feComposite in2="SourceAlpha" operator="in" result="effect1_backgroundBlur_1055_896"/>
<feColorMatrix in="SourceAlpha" type="matrix" values="0 0 0 0 0 0 0 0 0 0 0 0 0 0 0 0 0 0 127 0" result="hardAlpha"/>
<feOffset dy="-0.5"/>
<feColorMatrix type="matrix" values="0 0 0 0 0 0 0 0 0 0 0 0 0 0 0 0 0 0 0.3 0"/>
<feBlend mode="normal" in2="effect1_backgroundBlur_1055_896" result="effect2_dropShadow_1055_896"/>
<feBlend mode="normal" in="SourceGraphic" in2="effect2_dropShadow_1055_896" result="shape"/>
</filter>
<clipPath id="clip0_1055_896">
<rect width="21.1623" height="22" fill="white" transform="translate(154 9)"/>
</clipPath>
</defs>
</svg>
