<svg width="414" height="168" viewBox="0 0 414 168" fill="none" xmlns="http://www.w3.org/2000/svg">
<rect width="414" height="168" fill="#121419"/>
<path d="M16.844 41V33.926L16.772 31.838H16.916L18.428 33.962L23.864 41H25.952V28.94H24.008V36.068L24.098 38.246H23.954L22.388 35.996L16.988 28.94H14.9V41H16.844ZM32.3216 41.18C35.3096 41.18 37.3076 39.29 37.3076 36.536C37.3076 33.746 35.3096 31.874 32.3216 31.874C29.3516 31.874 27.3536 33.746 27.3536 36.536C27.3536 39.29 29.3516 41.18 32.3216 41.18ZM32.3216 39.452C30.1616 39.452 29.2616 38.426 29.2616 36.536C29.2616 34.628 30.1616 33.584 32.3216 33.584C34.4996 33.584 35.3996 34.628 35.3996 36.536C35.3996 38.426 34.4996 39.452 32.3216 39.452ZM47.6625 41V39.254H46.0425C44.9265 39.254 44.4225 38.966 44.4225 37.868V33.674H47.6625V32.054H44.4225V30.092H42.4965V32.054H40.9845V33.674H42.4965V37.976C42.4965 40.154 43.6845 41 45.6105 41H47.6625ZM53.3785 41.18C56.0425 41.18 57.9145 39.866 57.9145 37.958V37.796H55.9705V37.94C55.9705 39.002 55.1965 39.614 53.3245 39.614C51.2545 39.614 50.4085 38.696 50.3365 36.968H57.9325C57.9865 36.698 58.0045 36.446 58.0045 36.122C58.0045 33.404 56.1145 31.874 53.3425 31.874C50.4265 31.874 48.5185 33.746 48.5185 36.536C48.5185 39.524 50.4445 41.18 53.3785 41.18ZM53.3065 33.404C55.2145 33.404 56.1685 34.196 56.1685 35.852V35.888H50.3545C50.4625 34.286 51.3265 33.404 53.3065 33.404ZM64.4807 44.06V38.48H64.5527C64.9127 40.118 66.2087 41.18 68.2247 41.18C71.0147 41.18 72.5447 39.308 72.5447 36.536C72.5447 33.764 70.9787 31.874 68.2067 31.874C66.1007 31.874 64.8407 32.882 64.4807 34.538H64.3187V32.054H62.5367V44.06H64.4807ZM64.4807 36.68V36.518C64.4807 34.592 65.5967 33.656 67.5947 33.656C69.4667 33.656 70.6007 34.376 70.6007 36.536C70.6007 38.678 69.4847 39.416 67.5587 39.416C65.6507 39.416 64.4807 38.516 64.4807 36.68ZM75.8362 31.01V28.94H73.8922V31.01H75.8362ZM75.8362 41V32.054H73.8922V41H75.8362ZM82.1363 41.18C84.8003 41.18 86.6723 39.866 86.6723 37.958V37.796H84.7283V37.94C84.7283 39.002 83.9543 39.614 82.0823 39.614C80.0123 39.614 79.1663 38.696 79.0943 36.968H86.6903C86.7443 36.698 86.7623 36.446 86.7623 36.122C86.7623 33.404 84.8723 31.874 82.1003 31.874C79.1843 31.874 77.2763 33.746 77.2763 36.536C77.2763 39.524 79.2023 41.18 82.1363 41.18ZM82.0643 33.404C83.9723 33.404 84.9263 34.196 84.9263 35.852V35.888H79.1123C79.2203 34.286 80.0843 33.404 82.0643 33.404ZM90.1624 41V35.978C90.1624 34.376 90.7924 33.53 92.3224 33.53C93.6544 33.53 94.1944 34.124 94.1944 35.402V36.194H96.1204V35.024C96.1204 33.332 95.2384 31.874 93.2044 31.874C91.3684 31.874 90.3964 33.026 90.1264 34.466H90.0004V32.054H88.2184V41H90.1624ZM101.283 41.18C103.299 41.18 104.613 40.208 104.991 38.426H105.117V41H106.899V28.94H104.955V34.484H104.847C104.487 32.972 103.281 31.874 101.157 31.874C98.4394 31.874 96.8914 33.746 96.8914 36.536C96.8914 39.29 98.4574 41.18 101.283 41.18ZM98.8534 36.536C98.8534 34.376 99.9694 33.638 101.841 33.638C103.839 33.638 104.955 34.574 104.955 36.482V36.626C104.955 38.498 103.785 39.398 101.877 39.398C99.9514 39.398 98.8534 38.678 98.8534 36.536ZM111.325 41.18C113.359 41.18 114.781 40.28 115.249 38.768H115.375V41H117.157V35.564C117.157 33.422 115.879 31.874 113.035 31.874C110.191 31.874 108.499 33.404 108.499 35.438V35.51H110.425V35.438C110.425 34.124 111.235 33.584 112.891 33.584C114.601 33.584 115.249 34.106 115.249 35.582V36.104L111.181 36.536C109.417 36.734 108.301 37.454 108.301 38.84C108.301 40.316 109.471 41.18 111.325 41.18ZM110.245 38.714C110.245 38.012 110.731 37.778 111.739 37.652L115.249 37.256C115.249 39.02 113.881 39.776 111.847 39.776C110.731 39.776 110.245 39.434 110.245 38.714ZM123.122 41.18C125.642 41.18 127.298 40.19 127.298 38.516C127.298 37.04 126.326 36.32 124.202 36.05L122.132 35.762C120.782 35.582 120.422 35.33 120.422 34.628C120.422 33.782 120.998 33.422 122.636 33.422C124.616 33.422 125.156 33.98 125.156 35.042V35.15H127.082V35.096C127.082 32.972 125.426 31.874 122.69 31.874C119.936 31.874 118.514 32.99 118.514 34.556C118.514 36.05 119.54 36.77 121.232 36.986L123.68 37.31C124.958 37.49 125.39 37.724 125.39 38.462C125.39 39.254 124.868 39.614 123.122 39.614C121.25 39.614 120.548 39.236 120.548 38.066V37.922H118.604V37.976C118.604 40.046 120.242 41.18 123.122 41.18ZM135.503 41.18C137.807 41.18 138.995 39.74 139.283 38.228H139.391V41H141.173V32.054H139.247V36.482C139.247 38.426 138.329 39.434 136.349 39.434C134.459 39.434 133.685 38.588 133.685 36.914V32.054H131.759V37.436C131.759 39.506 132.983 41.18 135.503 41.18ZM144.883 41V36.572C144.883 34.628 145.765 33.62 147.727 33.62C149.581 33.62 150.337 34.466 150.337 36.14V41H152.281V35.618C152.281 33.548 151.057 31.874 148.573 31.874C146.305 31.874 145.117 33.314 144.847 34.826H144.721V32.054H142.939V41H144.883ZM159.033 41V36.572C159.033 34.592 159.699 33.62 161.625 33.62C163.353 33.62 164.037 34.376 164.037 36.14V41H165.963V36.572C165.963 34.592 166.647 33.62 168.555 33.62C170.283 33.62 170.985 34.376 170.985 36.14V41H172.911V35.618C172.911 33.458 171.741 31.874 169.419 31.874C167.151 31.874 166.143 33.296 165.909 34.826H165.801C165.549 33.116 164.451 31.874 162.417 31.874C160.185 31.874 159.213 33.26 158.979 34.754H158.871V32.054H157.089V41H159.033ZM179.222 41.18C182.21 41.18 184.208 39.29 184.208 36.536C184.208 33.746 182.21 31.874 179.222 31.874C176.252 31.874 174.254 33.746 174.254 36.536C174.254 39.29 176.252 41.18 179.222 41.18ZM179.222 39.452C177.062 39.452 176.162 38.426 176.162 36.536C176.162 34.628 177.062 33.584 179.222 33.584C181.4 33.584 182.3 34.628 182.3 36.536C182.3 38.426 181.4 39.452 179.222 39.452ZM187.563 41V36.572C187.563 34.592 188.229 33.62 190.155 33.62C191.883 33.62 192.567 34.376 192.567 36.14V41H194.493V36.572C194.493 34.592 195.177 33.62 197.085 33.62C198.813 33.62 199.515 34.376 199.515 36.14V41H201.441V35.618C201.441 33.458 200.271 31.874 197.949 31.874C195.681 31.874 194.673 33.296 194.439 34.826H194.331C194.079 33.116 192.981 31.874 190.947 31.874C188.715 31.874 187.743 33.26 187.509 34.754H187.401V32.054H185.619V41H187.563ZM207.679 41.18C210.343 41.18 212.215 39.866 212.215 37.958V37.796H210.271V37.94C210.271 39.002 209.497 39.614 207.625 39.614C205.555 39.614 204.709 38.696 204.637 36.968H212.233C212.287 36.698 212.305 36.446 212.305 36.122C212.305 33.404 210.415 31.874 207.643 31.874C204.727 31.874 202.819 33.746 202.819 36.536C202.819 39.524 204.745 41.18 207.679 41.18ZM207.607 33.404C209.515 33.404 210.469 34.196 210.469 35.852V35.888H204.655C204.763 34.286 205.627 33.404 207.607 33.404ZM215.705 41V36.572C215.705 34.628 216.587 33.62 218.549 33.62C220.403 33.62 221.159 34.466 221.159 36.14V41H223.103V35.618C223.103 33.548 221.879 31.874 219.395 31.874C217.127 31.874 215.939 33.314 215.669 34.826H215.543V32.054H213.761V41H215.705ZM230.704 41V39.254H229.084C227.968 39.254 227.464 38.966 227.464 37.868V33.674H230.704V32.054H227.464V30.092H225.538V32.054H224.026V33.674H225.538V37.976C225.538 40.154 226.726 41 228.652 41H230.704ZM236.492 41.18C239.48 41.18 241.478 39.29 241.478 36.536C241.478 33.746 239.48 31.874 236.492 31.874C233.522 31.874 231.524 33.746 231.524 36.536C231.524 39.29 233.522 41.18 236.492 41.18ZM236.492 39.452C234.332 39.452 233.432 38.426 233.432 36.536C233.432 34.628 234.332 33.584 236.492 33.584C238.67 33.584 239.57 34.628 239.57 36.536C239.57 38.426 238.67 39.452 236.492 39.452ZM249.906 41.18C251.922 41.18 253.236 40.208 253.614 38.426H253.74V41H255.522V28.94H253.578V34.484H253.47C253.11 32.972 251.904 31.874 249.78 31.874C247.062 31.874 245.514 33.746 245.514 36.536C245.514 39.29 247.08 41.18 249.906 41.18ZM247.476 36.536C247.476 34.376 248.592 33.638 250.464 33.638C252.462 33.638 253.578 34.574 253.578 36.482V36.626C253.578 38.498 252.408 39.398 250.5 39.398C248.574 39.398 247.476 38.678 247.476 36.536ZM261.82 41.18C264.484 41.18 266.356 39.866 266.356 37.958V37.796H264.412V37.94C264.412 39.002 263.638 39.614 261.766 39.614C259.696 39.614 258.85 38.696 258.778 36.968H266.374C266.428 36.698 266.446 36.446 266.446 36.122C266.446 33.404 264.556 31.874 261.784 31.874C258.868 31.874 256.96 33.746 256.96 36.536C256.96 39.524 258.886 41.18 261.82 41.18ZM261.748 33.404C263.656 33.404 264.61 34.196 264.61 35.852V35.888H258.796C258.904 34.286 259.768 33.404 261.748 33.404ZM272.922 41V28.94H270.978V41H272.922ZM277.35 41.18C279.384 41.18 280.806 40.28 281.274 38.768H281.4V41H283.182V35.564C283.182 33.422 281.904 31.874 279.06 31.874C276.216 31.874 274.524 33.404 274.524 35.438V35.51H276.45V35.438C276.45 34.124 277.26 33.584 278.916 33.584C280.626 33.584 281.274 34.106 281.274 35.582V36.104L277.206 36.536C275.442 36.734 274.326 37.454 274.326 38.84C274.326 40.316 275.496 41.18 277.35 41.18ZM276.27 38.714C276.27 38.012 276.756 37.778 277.764 37.652L281.274 37.256C281.274 39.02 279.906 39.776 277.872 39.776C276.756 39.776 276.27 39.434 276.27 38.714ZM292.512 41.18C295.194 41.18 297.156 39.668 297.156 37.436V37.238H295.23V37.364C295.23 38.75 294.222 39.434 292.476 39.434C290.46 39.434 289.56 38.462 289.56 36.536C289.56 34.574 290.46 33.62 292.476 33.62C294.222 33.62 295.23 34.304 295.23 35.69V35.798H297.156V35.618C297.156 33.386 295.194 31.874 292.512 31.874C289.56 31.874 287.634 33.746 287.634 36.536C287.634 39.29 289.56 41.18 292.512 41.18ZM302.319 41.18C304.623 41.18 305.811 39.74 306.099 38.228H306.207V41H307.989V32.054H306.063V36.482C306.063 38.426 305.145 39.434 303.165 39.434C301.275 39.434 300.501 38.588 300.501 36.914V32.054H298.575V37.436C298.575 39.506 299.799 41.18 302.319 41.18ZM311.699 41V36.572C311.699 34.592 312.365 33.62 314.291 33.62C316.019 33.62 316.703 34.376 316.703 36.14V41H318.629V36.572C318.629 34.592 319.313 33.62 321.221 33.62C322.949 33.62 323.651 34.376 323.651 36.14V41H325.577V35.618C325.577 33.458 324.407 31.874 322.085 31.874C319.817 31.874 318.809 33.296 318.575 34.826H318.467C318.215 33.116 317.117 31.874 315.083 31.874C312.851 31.874 311.879 33.26 311.645 34.754H311.537V32.054H309.755V41H311.699ZM329.098 41V38.426H329.224C329.602 40.208 330.916 41.18 332.95 41.18C335.794 41.18 337.324 39.29 337.324 36.536C337.324 33.746 335.812 31.874 333.058 31.874C330.916 31.874 329.728 32.972 329.368 34.484H329.26V28.94H327.316V41H329.098ZM329.26 36.626V36.482C329.26 34.574 330.358 33.638 332.374 33.638C334.282 33.638 335.38 34.376 335.38 36.536C335.38 38.678 334.3 39.398 332.338 39.398C330.412 39.398 329.26 38.498 329.26 36.626ZM340.615 41V35.978C340.615 34.376 341.245 33.53 342.775 33.53C344.107 33.53 344.647 34.124 344.647 35.402V36.194H346.573V35.024C346.573 33.332 345.691 31.874 343.657 31.874C341.821 31.874 340.849 33.026 340.579 34.466H340.453V32.054H338.671V41H340.615ZM352.295 41.18C354.959 41.18 356.831 39.866 356.831 37.958V37.796H354.887V37.94C354.887 39.002 354.113 39.614 352.241 39.614C350.171 39.614 349.325 38.696 349.253 36.968H356.849C356.903 36.698 356.921 36.446 356.921 36.122C356.921 33.404 355.031 31.874 352.259 31.874C349.343 31.874 347.435 33.746 347.435 36.536C347.435 39.524 349.361 41.18 352.295 41.18ZM352.223 33.404C354.131 33.404 355.085 34.196 355.085 35.852V35.888H349.271C349.379 34.286 350.243 33.404 352.223 33.404ZM365.395 41.18C367.411 41.18 368.725 40.208 369.103 38.426H369.229V41H371.011V28.94H369.067V34.484H368.959C368.599 32.972 367.393 31.874 365.269 31.874C362.551 31.874 361.003 33.746 361.003 36.536C361.003 39.29 362.569 41.18 365.395 41.18ZM362.965 36.536C362.965 34.376 364.081 33.638 365.953 33.638C367.951 33.638 369.067 34.574 369.067 36.482V36.626C369.067 38.498 367.897 39.398 365.989 39.398C364.063 39.398 362.965 38.678 362.965 36.536ZM377.308 41.18C379.972 41.18 381.844 39.866 381.844 37.958V37.796H379.9V37.94C379.9 39.002 379.126 39.614 377.254 39.614C375.184 39.614 374.338 38.696 374.266 36.968H381.862C381.916 36.698 381.934 36.446 381.934 36.122C381.934 33.404 380.044 31.874 377.272 31.874C374.356 31.874 372.448 33.746 372.448 36.536C372.448 39.524 374.374 41.18 377.308 41.18ZM377.236 33.404C379.144 33.404 380.098 34.196 380.098 35.852V35.888H374.284C374.392 34.286 375.256 33.404 377.236 33.404ZM385.334 41V28.94H383.39V41H385.334ZM19.418 63.18C22.1 63.18 24.062 61.668 24.062 59.436V59.238H22.136V59.364C22.136 60.75 21.128 61.434 19.382 61.434C17.366 61.434 16.466 60.462 16.466 58.536C16.466 56.574 17.366 55.62 19.382 55.62C21.128 55.62 22.136 56.304 22.136 57.69V57.798H24.062V57.618C24.062 55.386 22.1 53.874 19.418 53.874C16.466 53.874 14.54 55.746 14.54 58.536C14.54 61.29 16.466 63.18 19.418 63.18ZM27.4436 63V50.94H25.4996V63H27.4436ZM31.1878 53.01V50.94H29.2438V53.01H31.1878ZM31.1878 63V54.054H29.2438V63H31.1878ZM34.9319 63V58.572C34.9319 56.592 35.5979 55.62 37.5239 55.62C39.2519 55.62 39.9359 56.376 39.9359 58.14V63H41.8619V58.572C41.8619 56.592 42.5459 55.62 44.4539 55.62C46.1819 55.62 46.8839 56.376 46.8839 58.14V63H48.8099V57.618C48.8099 55.458 47.6399 53.874 45.3179 53.874C43.0499 53.874 42.0419 55.296 41.8079 56.826H41.6999C41.4479 55.116 40.3499 53.874 38.3159 53.874C36.0839 53.874 35.1119 55.26 34.8779 56.754H34.7699V54.054H32.9879V63H34.9319ZM53.1764 63.18C55.2104 63.18 56.6324 62.28 57.1004 60.768H57.2264V63H59.0084V57.564C59.0084 55.422 57.7304 53.874 54.8864 53.874C52.0424 53.874 50.3504 55.404 50.3504 57.438V57.51H52.2764V57.438C52.2764 56.124 53.0864 55.584 54.7424 55.584C56.4524 55.584 57.1004 56.106 57.1004 57.582V58.104L53.0324 58.536C51.2684 58.734 50.1524 59.454 50.1524 60.84C50.1524 62.316 51.3224 63.18 53.1764 63.18ZM52.0964 60.714C52.0964 60.012 52.5824 59.778 53.5904 59.652L57.1004 59.256C57.1004 61.02 55.7324 61.776 53.6984 61.776C52.5824 61.776 52.0964 61.434 52.0964 60.714ZM62.8318 63V60.21H60.3838V63H62.8318Z" fill="white"/>
<path d="M15.305 90L16.355 87.15H21.305L22.355 90H23.48L19.49 79.26H18.155L14.21 90H15.305ZM18.68 80.775C18.74 80.625 18.8 80.43 18.815 80.34C18.83 80.445 18.905 80.625 18.95 80.775L20.96 86.205H16.685L18.68 80.775ZM23.9889 86.385C23.9889 88.665 25.3839 90.18 27.4389 90.18C29.0889 90.18 30.3789 89.205 30.7239 87.72H29.6739C29.3889 88.65 28.5189 89.25 27.4389 89.25C25.9689 89.25 25.0089 88.095 25.0089 86.37C25.0089 84.585 26.0439 83.46 27.5139 83.46C28.5189 83.46 29.3889 84.015 29.6589 85.02H30.6939C30.4089 83.52 29.1789 82.545 27.4989 82.545C25.3839 82.545 23.9889 84.105 23.9889 86.385ZM33.9569 90V83.61H35.4119V82.74H33.9569V80.445H32.9369V82.74H31.4819V83.61H32.9369V90H33.9569ZM37.2697 80.745C37.6897 80.745 38.0497 80.4 38.0497 79.98C38.0497 79.56 37.6897 79.2 37.2697 79.2C36.8497 79.2 36.5047 79.56 36.5047 79.98C36.5047 80.4 36.8497 80.745 37.2697 80.745ZM36.7597 90H37.7947V82.74H36.7597V90ZM41.978 90H43.013L46.028 82.74H44.963L43.058 87.42C42.848 87.945 42.653 88.425 42.518 88.92C42.383 88.44 42.188 87.945 41.993 87.42L40.118 82.74H39.008L41.978 90ZM49.0107 90.18C50.2407 90.18 51.2307 89.64 51.6807 88.725L51.8157 90H52.6857V85.305C52.6857 83.385 51.4557 82.545 49.7757 82.545C47.9907 82.545 46.7907 83.49 46.7907 84.96H47.7357C47.7357 83.985 48.4857 83.415 49.7457 83.415C50.8107 83.415 51.6657 83.865 51.6657 85.29V85.53L49.2657 85.725C47.5707 85.86 46.5507 86.7 46.5507 88.035C46.5507 89.31 47.4657 90.18 49.0107 90.18ZM49.2507 89.34C48.2607 89.34 47.6007 88.89 47.6007 88.005C47.6007 87.195 48.1557 86.595 49.5207 86.475L51.6657 86.31V86.7C51.6657 88.275 50.7807 89.34 49.2507 89.34ZM59.9578 90V86.205C59.9578 84.57 60.7978 83.49 62.2828 83.49C63.4828 83.49 64.2478 84.09 64.2478 85.785V90H65.2828V85.56C65.2828 83.73 64.4578 82.545 62.4628 82.545C61.4128 82.545 60.4528 83.07 59.9728 84L59.8228 82.74H58.9228V90H59.9578ZM66.8356 86.37C66.8356 88.575 68.3956 90.18 70.5256 90.18C72.6556 90.18 74.2156 88.575 74.2156 86.37C74.2156 84.15 72.6556 82.545 70.5256 82.545C68.3956 82.545 66.8356 84.15 66.8356 86.37ZM67.8856 86.355C67.8856 84.675 68.9656 83.475 70.5256 83.475C72.0706 83.475 73.1656 84.675 73.1656 86.355C73.1656 88.065 72.0706 89.25 70.5256 89.25C68.9656 89.25 67.8856 88.065 67.8856 86.355ZM77.4628 90V83.61H78.9178V82.74H77.4628V80.445H76.4428V82.74H74.9878V83.61H76.4428V90H77.4628ZM80.7755 80.745C81.1955 80.745 81.5555 80.4 81.5555 79.98C81.5555 79.56 81.1955 79.2 80.7755 79.2C80.3555 79.2 80.0105 79.56 80.0105 79.98C80.0105 80.4 80.3555 80.745 80.7755 80.745ZM80.2655 90H81.3005V82.74H80.2655V90ZM88.2439 90H89.2789V82.74H84.7939V81.33C84.7939 80.475 85.0339 80.025 85.9039 80.025H86.5339V79.125C86.2939 79.08 85.9789 79.065 85.7239 79.065C84.6439 79.065 83.7589 79.695 83.7589 81.33V82.74H82.6489V83.61H83.7589V90H84.7939V83.61H88.2439V90ZM88.7539 80.67C89.1589 80.67 89.4739 80.37 89.4739 79.95C89.4739 79.53 89.1589 79.215 88.7539 79.215C88.3339 79.215 88.0339 79.53 88.0339 79.95C88.0339 80.37 88.3339 80.67 88.7539 80.67ZM90.8884 86.385C90.8884 88.665 92.2834 90.18 94.3384 90.18C95.9884 90.18 97.2784 89.205 97.6234 87.72H96.5734C96.2884 88.65 95.4184 89.25 94.3384 89.25C92.8684 89.25 91.9084 88.095 91.9084 86.37C91.9084 84.585 92.9434 83.46 94.4134 83.46C95.4184 83.46 96.2884 84.015 96.5584 85.02H97.5934C97.3084 83.52 96.0784 82.545 94.3984 82.545C92.2834 82.545 90.8884 84.105 90.8884 86.385ZM101.276 90.18C102.506 90.18 103.496 89.64 103.946 88.725L104.081 90H104.951V85.305C104.951 83.385 103.721 82.545 102.041 82.545C100.256 82.545 99.0563 83.49 99.0563 84.96H100.001C100.001 83.985 100.751 83.415 102.011 83.415C103.076 83.415 103.931 83.865 103.931 85.29V85.53L101.531 85.725C99.8363 85.86 98.8163 86.7 98.8163 88.035C98.8163 89.31 99.7313 90.18 101.276 90.18ZM101.516 89.34C100.526 89.34 99.8663 88.89 99.8663 88.005C99.8663 87.195 100.421 86.595 101.786 86.475L103.931 86.31V86.7C103.931 88.275 103.046 89.34 101.516 89.34ZM106.518 86.385C106.518 88.665 107.913 90.18 109.968 90.18C111.618 90.18 112.908 89.205 113.253 87.72H112.203C111.918 88.65 111.048 89.25 109.968 89.25C108.498 89.25 107.538 88.095 107.538 86.37C107.538 84.585 108.573 83.46 110.043 83.46C111.048 83.46 111.918 84.015 112.188 85.02H113.223C112.938 83.52 111.708 82.545 110.028 82.545C107.913 82.545 106.518 84.105 106.518 86.385ZM115.331 80.745C115.751 80.745 116.111 80.4 116.111 79.98C116.111 79.56 115.751 79.2 115.331 79.2C114.911 79.2 114.566 79.56 114.566 79.98C114.566 80.4 114.911 80.745 115.331 80.745ZM114.821 90H115.856V82.74H114.821V90ZM117.505 86.37C117.505 88.575 119.065 90.18 121.195 90.18C123.325 90.18 124.885 88.575 124.885 86.37C124.885 84.15 123.325 82.545 121.195 82.545C119.065 82.545 117.505 84.15 117.505 86.37ZM118.555 86.355C118.555 84.675 119.635 83.475 121.195 83.475C122.74 83.475 123.835 84.675 123.835 86.355C123.835 88.065 122.74 89.25 121.195 89.25C119.635 89.25 118.555 88.065 118.555 86.355ZM127.575 90V86.205C127.575 84.57 128.415 83.49 129.9 83.49C131.1 83.49 131.865 84.09 131.865 85.785V90H132.9V85.56C132.9 83.73 132.075 82.545 130.08 82.545C129.03 82.545 128.07 83.07 127.59 84L127.44 82.74H126.54V90H127.575ZM138.008 90.18C139.718 90.18 140.843 89.355 141.233 87.825H140.243C139.973 88.785 139.208 89.295 138.023 89.295C136.463 89.295 135.533 88.275 135.458 86.505H141.233V85.995C141.233 83.94 139.898 82.545 137.933 82.545C135.863 82.545 134.453 84.105 134.453 86.37C134.453 88.65 135.878 90.18 138.008 90.18ZM137.933 83.43C139.298 83.43 140.198 84.36 140.198 85.755H135.488C135.668 84.33 136.568 83.43 137.933 83.43ZM142.273 87.96C142.273 89.31 143.293 90.18 144.928 90.18C146.578 90.18 147.688 89.325 147.688 88.02C147.688 86.97 147.118 86.385 145.858 86.07L144.613 85.755C143.818 85.56 143.428 85.17 143.428 84.615C143.428 83.835 143.998 83.4 145.018 83.4C145.993 83.4 146.578 83.895 146.608 84.735H147.613C147.568 83.385 146.578 82.545 145.048 82.545C143.488 82.545 142.423 83.355 142.423 84.63C142.423 85.62 143.038 86.28 144.298 86.595L145.543 86.91C146.398 87.12 146.698 87.465 146.698 88.065C146.698 88.845 146.038 89.325 144.913 89.325C143.893 89.325 143.263 88.8 143.263 87.96H142.273ZM156.597 90.18C158.307 90.18 159.432 89.355 159.822 87.825H158.832C158.562 88.785 157.797 89.295 156.612 89.295C155.052 89.295 154.122 88.275 154.047 86.505H159.822V85.995C159.822 83.94 158.487 82.545 156.522 82.545C154.452 82.545 153.042 84.105 153.042 86.37C153.042 88.65 154.467 90.18 156.597 90.18ZM156.522 83.43C157.887 83.43 158.787 84.36 158.787 85.755H154.077C154.257 84.33 155.157 83.43 156.522 83.43ZM162.511 90V86.205C162.511 84.57 163.351 83.49 164.836 83.49C166.036 83.49 166.801 84.09 166.801 85.785V90H167.836V85.56C167.836 83.73 167.011 82.545 165.016 82.545C163.966 82.545 163.006 83.07 162.526 84L162.376 82.74H161.476V90H162.511ZM175.739 81.225C175.739 80.7 175.394 80.415 175.004 80.415C174.809 80.415 174.689 80.46 174.599 80.52C174.599 80.085 174.989 79.71 175.514 79.605V79.05C174.599 79.2 173.894 79.995 173.894 80.925C173.894 81.675 174.344 82.095 174.869 82.095C175.394 82.095 175.739 81.72 175.739 81.225ZM181.799 90.165C184.109 90.165 185.984 88.8 186.479 86.775H185.324C184.859 88.215 183.509 89.13 181.814 89.13C179.459 89.13 177.884 87.33 177.884 84.63C177.884 81.915 179.459 80.115 181.814 80.115C183.494 80.115 184.814 81.06 185.264 82.605H186.419C185.984 80.475 184.169 79.08 181.859 79.08C178.829 79.08 176.759 81.33 176.759 84.63C176.759 87.93 178.799 90.165 181.799 90.165ZM193.222 82.74V86.595C193.222 88.32 192.397 89.25 191.002 89.25C189.847 89.25 189.082 88.635 189.082 86.91V82.725H188.032V87.24C188.032 89.01 188.962 90.18 190.672 90.18C191.812 90.18 192.817 89.61 193.222 88.77L193.357 90H194.257V82.74H193.222ZM197.448 90V85.5C197.448 84.39 198.183 83.49 199.398 83.49C200.493 83.49 201.198 84.21 201.198 85.44V90H202.218V85.515C202.218 84.39 202.938 83.475 204.153 83.475C205.263 83.475 205.953 84.21 205.953 85.455V90H206.958V85.245C206.958 83.565 205.923 82.545 204.348 82.545C203.178 82.545 202.293 83.145 201.963 84.09C201.618 83.145 200.763 82.545 199.623 82.545C198.603 82.545 197.793 83.01 197.433 83.775L197.313 82.74H196.413V90H197.448ZM209.94 90L210.045 88.515C210.555 89.64 211.56 90.18 212.775 90.18C214.89 90.18 216.15 88.56 216.15 86.385C216.15 84.195 214.92 82.545 212.805 82.545C211.575 82.545 210.585 83.085 210.075 84.15V79.065H209.04V90H209.94ZM210.09 86.355C210.09 84.69 211.02 83.475 212.61 83.475C214.185 83.475 215.1 84.69 215.1 86.355C215.1 88.035 214.185 89.235 212.61 89.235C211.02 89.235 210.09 88.035 210.09 86.355ZM221.595 82.65C221.34 82.59 221.145 82.575 220.92 82.575C219.9 82.575 219.135 83.085 218.85 83.865L218.775 82.74H217.8V90H218.835V85.86C218.835 84.48 219.69 83.58 221.025 83.58H221.595V82.65ZM225.737 90.18C227.447 90.18 228.572 89.355 228.962 87.825H227.972C227.702 88.785 226.937 89.295 225.752 89.295C224.192 89.295 223.262 88.275 223.187 86.505H228.962V85.995C228.962 83.94 227.627 82.545 225.662 82.545C223.592 82.545 222.182 84.105 222.182 86.37C222.182 88.65 223.607 90.18 225.737 90.18ZM225.662 83.43C227.027 83.43 227.927 84.36 227.927 85.755H223.217C223.397 84.33 224.297 83.43 225.662 83.43ZM237.627 90.18C238.842 90.18 239.862 89.64 240.372 88.515L240.477 90H241.377V79.065H240.342V84.12C239.832 83.07 238.872 82.545 237.672 82.545C235.512 82.545 234.267 84.195 234.267 86.385C234.267 88.56 235.512 90.18 237.627 90.18ZM237.807 89.235C236.232 89.235 235.317 88.035 235.317 86.355C235.317 84.69 236.232 83.475 237.807 83.475C239.397 83.475 240.327 84.69 240.327 86.355C240.327 88.035 239.397 89.235 237.807 89.235ZM246.582 90.18C248.292 90.18 249.417 89.355 249.807 87.825H248.817C248.547 88.785 247.782 89.295 246.597 89.295C245.037 89.295 244.107 88.275 244.032 86.505H249.807V85.995C249.807 83.94 248.472 82.545 246.507 82.545C244.437 82.545 243.027 84.105 243.027 86.37C243.027 88.65 244.452 90.18 246.582 90.18ZM246.507 83.43C247.872 83.43 248.772 84.36 248.772 85.755H244.062C244.242 84.33 245.142 83.43 246.507 83.43ZM252.542 90V79.065H251.507V90H252.542ZM258.393 86.385C258.393 88.665 259.788 90.18 261.843 90.18C263.493 90.18 264.783 89.205 265.128 87.72H264.078C263.793 88.65 262.923 89.25 261.843 89.25C260.373 89.25 259.413 88.095 259.413 86.37C259.413 84.585 260.448 83.46 261.918 83.46C262.923 83.46 263.793 84.015 264.063 85.02H265.098C264.813 83.52 263.583 82.545 261.903 82.545C259.788 82.545 258.393 84.105 258.393 86.385ZM267.776 90V79.065H266.741V90H267.776ZM270.487 80.745C270.907 80.745 271.267 80.4 271.267 79.98C271.267 79.56 270.907 79.2 270.487 79.2C270.067 79.2 269.722 79.56 269.722 79.98C269.722 80.4 270.067 80.745 270.487 80.745ZM269.977 90H271.012V82.74H269.977V90ZM274.206 90V85.5C274.206 84.39 274.941 83.49 276.156 83.49C277.251 83.49 277.956 84.21 277.956 85.44V90H278.976V85.515C278.976 84.39 279.696 83.475 280.911 83.475C282.021 83.475 282.711 84.21 282.711 85.455V90H283.716V85.245C283.716 83.565 282.681 82.545 281.106 82.545C279.936 82.545 279.051 83.145 278.721 84.09C278.376 83.145 277.521 82.545 276.381 82.545C275.361 82.545 274.551 83.01 274.191 83.775L274.071 82.74H273.171V90H274.206ZM287.883 90.18C289.113 90.18 290.103 89.64 290.553 88.725L290.688 90H291.558V85.305C291.558 83.385 290.328 82.545 288.648 82.545C286.863 82.545 285.663 83.49 285.663 84.96H286.608C286.608 83.985 287.358 83.415 288.618 83.415C289.683 83.415 290.538 83.865 290.538 85.29V85.53L288.138 85.725C286.443 85.86 285.423 86.7 285.423 88.035C285.423 89.31 286.338 90.18 287.883 90.18ZM288.123 89.34C287.133 89.34 286.473 88.89 286.473 88.005C286.473 87.195 287.028 86.595 288.393 86.475L290.538 86.31V86.7C290.538 88.275 289.653 89.34 288.123 89.34ZM294.978 80.22C294.978 79.485 294.528 79.05 294.018 79.05C293.493 79.05 293.133 79.425 293.133 79.935C293.133 80.445 293.478 80.73 293.868 80.73C294.048 80.73 294.183 80.7 294.273 80.64C294.273 81.06 293.883 81.435 293.358 81.54V82.095C294.288 81.96 294.978 81.165 294.978 80.22ZM296.6 90.165C297.11 90.165 297.545 89.745 297.545 89.25C297.545 88.74 297.11 88.305 296.6 88.305C296.09 88.305 295.655 88.74 295.655 89.25C295.655 89.745 296.09 90.165 296.6 90.165Z" fill="white"/>
<path d="M36.71 152L37.67 149.3H42.23L43.205 152H44.75L40.775 141.155H39.14L35.18 152H36.71ZM39.77 143.495C39.845 143.27 39.92 143.015 39.95 142.865C39.98 143.03 40.055 143.285 40.13 143.495L41.795 148.025H38.12L39.77 143.495ZM47.6616 152V147.185H53.0316V152H54.5016V141.155H53.0316V145.82H47.6616V141.155H46.1916V152H47.6616ZM66.7968 146.57C66.7968 143.27 64.6518 140.96 61.5768 140.96C58.5168 140.96 56.3718 143.285 56.3718 146.57C56.3718 149.87 58.5018 152.18 61.5618 152.18C64.6368 152.18 66.7968 149.87 66.7968 146.57ZM65.2518 146.57C65.2518 149.075 63.7818 150.77 61.5768 150.77C59.3718 150.77 57.9168 149.09 57.9168 146.57C57.9168 144.05 59.3718 142.385 61.5768 142.385C63.7818 142.385 65.2518 144.05 65.2518 146.57ZM70.147 152V147.71H72.922L74.947 152H76.582L74.377 147.425C75.727 146.99 76.477 145.91 76.477 144.41C76.477 142.385 75.097 141.155 72.772 141.155H68.677V152H70.147ZM70.147 142.475H72.772C74.122 142.475 74.932 143.165 74.932 144.425C74.932 145.67 74.152 146.405 72.787 146.405H70.147V142.475ZM78.9414 152L79.9014 149.3H84.4614L85.4364 152H86.9814L83.0064 141.155H81.3714L77.4114 152H78.9414ZM82.0014 143.495C82.0764 143.27 82.1514 143.015 82.1814 142.865C82.2114 143.03 82.2864 143.285 82.3614 143.495L84.0264 148.025H80.3514L82.0014 143.495ZM93.9946 152V143.615L99.5446 152H101.015V141.155H99.5446V149.54L93.9946 141.155H92.5246V152H93.9946ZM113.32 146.57C113.32 143.27 111.175 140.96 108.1 140.96C105.04 140.96 102.895 143.285 102.895 146.57C102.895 149.87 105.025 152.18 108.085 152.18C111.16 152.18 113.32 149.87 113.32 146.57ZM111.775 146.57C111.775 149.075 110.305 150.77 108.1 150.77C105.895 150.77 104.44 149.09 104.44 146.57C104.44 144.05 105.895 142.385 108.1 142.385C110.305 142.385 111.775 144.05 111.775 146.57Z" fill="white"/>
<path d="M162.585 144.095C162.585 145.775 163.56 146.84 165.42 147.245L167.16 147.635C168.06 147.83 168.435 148.265 168.435 149C168.435 149.915 167.625 150.47 166.35 150.47C165.12 150.47 164.37 149.915 164.355 148.985H162.435C162.48 150.95 164.01 152.195 166.35 152.195C168.765 152.195 170.355 150.875 170.355 148.835C170.355 147.2 169.44 146.24 167.565 145.835L165.84 145.46C164.925 145.25 164.505 144.815 164.505 144.035C164.505 143.12 165.27 142.55 166.455 142.55C167.535 142.55 168.21 143.105 168.255 144.05H170.175C170.115 142.07 168.705 140.84 166.485 140.84C164.175 140.84 162.585 142.175 162.585 144.095ZM174.012 141.035H172.092V152H174.012V141.035ZM178.618 151.34C178.618 150.41 178.078 149.795 177.328 149.795C176.653 149.795 176.188 150.275 176.188 150.995C176.188 151.595 176.668 152.03 177.253 152.03C177.433 152.03 177.568 152 177.688 151.94C177.688 152.465 177.178 152.87 176.503 152.99V153.725C177.718 153.575 178.618 152.585 178.618 151.34ZM186.711 152V148.07C186.711 146.705 186.696 145.67 186.591 145.01L189.366 152H191.136L193.926 144.995C193.821 145.775 193.821 146.42 193.821 148.625V152H195.681V141.035H193.791L190.251 149.765L186.711 141.035H184.851V152H186.711ZM199.053 152L199.938 149.465H204.033L204.918 152H206.943L202.983 141.035H201.018L197.058 152H199.053ZM201.753 144.305C201.858 144.005 201.948 143.675 201.993 143.465C202.023 143.69 202.128 144.02 202.218 144.305L203.478 147.845H200.508L201.753 144.305ZM210.208 152V144.23L215.368 152H217.258V141.035H215.368V148.805L210.223 141.035H208.318V152H210.208ZM218.725 142.805H221.935V152H223.855V142.805H227.065V141.035H218.725V142.805ZM235.342 152V150.23H230.452V147.32H234.832V145.625H230.452V142.805H235.342V141.035H228.532V152H235.342ZM239.314 152V144.23L244.474 152H246.364V141.035H244.474V148.805L239.329 141.035H237.424V152H239.314ZM250.651 152V148.07C250.651 146.705 250.636 145.67 250.531 145.01L253.306 152H255.076L257.866 144.995C257.761 145.775 257.761 146.42 257.761 148.625V152H259.621V141.035H257.731L254.191 149.765L250.651 141.035H248.791V152H250.651ZM268.858 152V150.23H263.968V147.32H268.348V145.625H263.968V142.805H268.858V141.035H262.048V152H268.858ZM275.928 152L276.813 149.465H280.908L281.793 152H283.818L279.858 141.035H277.893L273.933 152H275.928ZM278.628 144.305C278.733 144.005 278.823 143.675 278.868 143.465C278.898 143.69 279.003 144.02 279.093 144.305L280.353 147.845H277.383L278.628 144.305ZM289.286 152.18C291.881 152.18 293.891 150.65 294.311 148.34H292.316C291.956 149.555 290.816 150.335 289.331 150.335C287.321 150.335 286.031 148.835 286.031 146.51C286.031 144.17 287.306 142.7 289.331 142.7C290.786 142.7 291.881 143.45 292.256 144.725H294.281C293.906 142.37 291.971 140.855 289.376 140.855C286.166 140.855 284.021 143.12 284.021 146.525C284.021 149.96 286.091 152.18 289.286 152.18ZM294.472 142.805H297.682V152H299.602V142.805H302.812V141.035H294.472V142.805ZM304.204 147.995C304.204 150.575 305.884 152.18 308.539 152.18C311.209 152.18 312.889 150.56 312.889 147.995V141.035H310.969V147.875C310.969 149.435 310.099 150.32 308.539 150.32C306.979 150.32 306.124 149.45 306.124 147.875V141.035H304.204V147.995ZM315.742 152L316.627 149.465H320.722L321.607 152H323.632L319.672 141.035H317.707L313.747 152H315.742ZM318.442 144.305C318.547 144.005 318.637 143.675 318.682 143.465C318.712 143.69 318.817 144.02 318.907 144.305L320.167 147.845H317.197L318.442 144.305ZM326.927 141.035H325.007V152H331.517V150.23H326.927V141.035ZM334.998 141.035H333.078V152H334.998V141.035ZM344.569 152V150.23H339.019L344.479 142.745V141.035H336.799V142.805H342.094L336.679 150.215V152H344.569ZM347.192 152L348.077 149.465H352.172L353.057 152H355.082L351.122 141.035H349.157L345.197 152H347.192ZM349.892 144.305C349.997 144.005 350.087 143.675 350.132 143.465C350.162 143.69 350.267 144.02 350.357 144.305L351.617 147.845H348.647L349.892 144.305ZM360.402 152C363.582 152 365.772 149.765 365.772 146.54C365.772 143.27 363.537 141.035 360.297 141.035H356.457V152H360.402ZM360.117 142.805C362.382 142.805 363.747 144.215 363.747 146.54C363.747 148.82 362.412 150.23 360.222 150.23H358.377V142.805H360.117ZM377.566 146.51C377.566 143.165 375.376 140.84 372.241 140.84C369.106 140.84 366.931 143.18 366.931 146.51C366.931 149.855 369.091 152.18 372.226 152.18C375.376 152.18 377.566 149.84 377.566 146.51ZM375.541 146.51C375.541 148.82 374.251 150.335 372.241 150.335C370.231 150.335 368.941 148.85 368.941 146.51C368.941 144.17 370.231 142.685 372.241 142.685C374.251 142.685 375.541 144.17 375.541 146.51Z" fill="#FF8C1C"/>
</svg>
