<svg width="414" height="88" viewBox="0 0 414 88" fill="none" xmlns="http://www.w3.org/2000/svg">
<rect width="414" height="88" fill="#121419"/>
<path d="M16.385 40V35.05H22.19V40H23.255V29.26H22.19V34.045H16.385V29.26H15.305V40H16.385ZM27.7412 40.18C28.9712 40.18 29.9612 39.64 30.4112 38.725L30.5462 40H31.4162V35.305C31.4162 33.385 30.1862 32.545 28.5062 32.545C26.7212 32.545 25.5212 33.49 25.5212 34.96H26.4662C26.4662 33.985 27.2162 33.415 28.4762 33.415C29.5412 33.415 30.3962 33.865 30.3962 35.29V35.53L27.9962 35.725C26.3012 35.86 25.2812 36.7 25.2812 38.035C25.2812 39.31 26.1962 40.18 27.7412 40.18ZM27.9812 39.34C26.9912 39.34 26.3312 38.89 26.3312 38.005C26.3312 37.195 26.8862 36.595 28.2512 36.475L30.3962 36.31V36.7C30.3962 38.275 29.5112 39.34 27.9812 39.34ZM32.8781 37.96C32.8781 39.31 33.8981 40.18 35.5331 40.18C37.1831 40.18 38.2931 39.325 38.2931 38.02C38.2931 36.97 37.7231 36.385 36.4631 36.07L35.2181 35.755C34.4231 35.56 34.0331 35.17 34.0331 34.615C34.0331 33.835 34.6031 33.4 35.6231 33.4C36.5981 33.4 37.1831 33.895 37.2131 34.735H38.2181C38.1731 33.385 37.1831 32.545 35.6531 32.545C34.0931 32.545 33.0281 33.355 33.0281 34.63C33.0281 35.62 33.6431 36.28 34.9031 36.595L36.1481 36.91C37.0031 37.12 37.3031 37.465 37.3031 38.065C37.3031 38.845 36.6431 39.325 35.5181 39.325C34.4981 39.325 33.8681 38.8 33.8681 37.96H32.8781ZM46.2421 40.18C47.4721 40.18 48.4621 39.64 48.9121 38.725L49.0471 40H49.9171V35.305C49.9171 33.385 48.6871 32.545 47.0071 32.545C45.2221 32.545 44.0221 33.49 44.0221 34.96H44.9671C44.9671 33.985 45.7171 33.415 46.9771 33.415C48.0421 33.415 48.8971 33.865 48.8971 35.29V35.53L46.4971 35.725C44.8021 35.86 43.7821 36.7 43.7821 38.035C43.7821 39.31 44.6971 40.18 46.2421 40.18ZM46.4821 39.34C45.4921 39.34 44.8321 38.89 44.8321 38.005C44.8321 37.195 45.3871 36.595 46.7521 36.475L48.8971 36.31V36.7C48.8971 38.275 48.0121 39.34 46.4821 39.34ZM51.4841 36.385C51.4841 38.665 52.8791 40.18 54.9341 40.18C56.5841 40.18 57.8741 39.205 58.2191 37.72H57.1691C56.8841 38.65 56.0141 39.25 54.9341 39.25C53.4641 39.25 52.5041 38.095 52.5041 36.37C52.5041 34.585 53.5391 33.46 55.0091 33.46C56.0141 33.46 56.8841 34.015 57.1541 35.02H58.1891C57.9041 33.52 56.6741 32.545 54.9941 32.545C52.8791 32.545 51.4841 34.105 51.4841 36.385ZM62.832 40.18C64.542 40.18 65.667 39.355 66.057 37.825H65.067C64.797 38.785 64.032 39.295 62.847 39.295C61.287 39.295 60.357 38.275 60.282 36.505H66.057V35.995C66.057 33.94 64.722 32.545 62.757 32.545C60.687 32.545 59.277 34.105 59.277 36.37C59.277 38.65 60.702 40.18 62.832 40.18ZM62.757 33.43C64.122 33.43 65.022 34.36 65.022 35.755H60.312C60.492 34.33 61.392 33.43 62.757 33.43ZM67.7118 43.165H68.7468V38.605C69.2568 39.655 70.2318 40.18 71.4618 40.18C73.6068 40.18 74.8218 38.53 74.8218 36.34C74.8218 34.15 73.5618 32.545 71.4618 32.545C70.2468 32.545 69.2268 33.085 68.7168 34.21L68.6118 32.74H67.7118V43.165ZM68.7618 36.37C68.7618 34.69 69.6918 33.49 71.2818 33.49C72.8568 33.49 73.7718 34.69 73.7718 36.37C73.7718 38.035 72.8568 39.25 71.2818 39.25C69.6918 39.25 68.7618 38.035 68.7618 36.37ZM78.0634 40V33.61H79.5184V32.74H78.0634V30.445H77.0434V32.74H75.5884V33.61H77.0434V40H78.0634ZM82.8339 40.18C84.0639 40.18 85.0539 39.64 85.5039 38.725L85.6389 40H86.5089V35.305C86.5089 33.385 85.2789 32.545 83.5989 32.545C81.8139 32.545 80.6139 33.49 80.6139 34.96H81.5589C81.5589 33.985 82.3089 33.415 83.5689 33.415C84.6339 33.415 85.4889 33.865 85.4889 35.29V35.53L83.0889 35.725C81.3939 35.86 80.3739 36.7 80.3739 38.035C80.3739 39.31 81.2889 40.18 82.8339 40.18ZM83.0739 39.34C82.0839 39.34 81.4239 38.89 81.4239 38.005C81.4239 37.195 81.9789 36.595 83.3439 36.475L85.4889 36.31V36.7C85.4889 38.275 84.6039 39.34 83.0739 39.34ZM91.4359 40.18C92.6509 40.18 93.6709 39.64 94.1809 38.515L94.2859 40H95.1859V29.065H94.1509V34.12C93.6409 33.07 92.6809 32.545 91.4809 32.545C89.3209 32.545 88.0759 34.195 88.0759 36.385C88.0759 38.56 89.3209 40.18 91.4359 40.18ZM91.6159 39.235C90.0409 39.235 89.1259 38.035 89.1259 36.355C89.1259 34.69 90.0409 33.475 91.6159 33.475C93.2059 33.475 94.1359 34.69 94.1359 36.355C94.1359 38.035 93.2059 39.235 91.6159 39.235ZM96.8356 36.37C96.8356 38.575 98.3956 40.18 100.526 40.18C102.656 40.18 104.216 38.575 104.216 36.37C104.216 34.15 102.656 32.545 100.526 32.545C98.3956 32.545 96.8356 34.15 96.8356 36.37ZM97.8856 36.355C97.8856 34.675 98.9656 33.475 100.526 33.475C102.071 33.475 103.166 34.675 103.166 36.355C103.166 38.065 102.071 39.25 100.526 39.25C98.9656 39.25 97.8856 38.065 97.8856 36.355ZM111.111 40V29.065H110.076V40H111.111ZM115.397 40.18C116.627 40.18 117.617 39.64 118.067 38.725L118.202 40H119.072V35.305C119.072 33.385 117.842 32.545 116.162 32.545C114.377 32.545 113.177 33.49 113.177 34.96H114.122C114.122 33.985 114.872 33.415 116.132 33.415C117.197 33.415 118.052 33.865 118.052 35.29V35.53L115.652 35.725C113.957 35.86 112.937 36.7 112.937 38.035C112.937 39.31 113.852 40.18 115.397 40.18ZM115.637 39.34C114.647 39.34 113.987 38.89 113.987 38.005C113.987 37.195 114.542 36.595 115.907 36.475L118.052 36.31V36.7C118.052 38.275 117.167 39.34 115.637 39.34ZM120.534 37.96C120.534 39.31 121.554 40.18 123.189 40.18C124.839 40.18 125.949 39.325 125.949 38.02C125.949 36.97 125.379 36.385 124.119 36.07L122.874 35.755C122.079 35.56 121.689 35.17 121.689 34.615C121.689 33.835 122.259 33.4 123.279 33.4C124.254 33.4 124.839 33.895 124.869 34.735H125.874C125.829 33.385 124.839 32.545 123.309 32.545C121.749 32.545 120.684 33.355 120.684 34.63C120.684 35.62 121.299 36.28 122.559 36.595L123.804 36.91C124.659 37.12 124.959 37.465 124.959 38.065C124.959 38.845 124.299 39.325 123.174 39.325C122.154 39.325 121.524 38.8 121.524 37.96H120.534ZM133.898 40.18C135.128 40.18 136.118 39.64 136.568 38.725L136.703 40H137.573V35.305C137.573 33.385 136.343 32.545 134.663 32.545C132.878 32.545 131.678 33.49 131.678 34.96H132.623C132.623 33.985 133.373 33.415 134.633 33.415C135.698 33.415 136.553 33.865 136.553 35.29V35.53L134.153 35.725C132.458 35.86 131.438 36.7 131.438 38.035C131.438 39.31 132.353 40.18 133.898 40.18ZM134.138 39.34C133.148 39.34 132.488 38.89 132.488 38.005C132.488 37.195 133.043 36.595 134.408 36.475L136.553 36.31V36.7C136.553 38.275 135.668 39.34 134.138 39.34ZM140.73 40V29.065H139.695V40H140.73ZM145.977 40.18C147.687 40.18 148.812 39.355 149.202 37.825H148.212C147.942 38.785 147.177 39.295 145.992 39.295C144.432 39.295 143.502 38.275 143.427 36.505H149.202V35.995C149.202 33.94 147.867 32.545 145.902 32.545C143.832 32.545 142.422 34.105 142.422 36.37C142.422 38.65 143.847 40.18 145.977 40.18ZM145.902 33.43C147.267 33.43 148.167 34.36 148.167 35.755H143.457C143.637 34.33 144.537 33.43 145.902 33.43ZM154.651 32.65C154.396 32.59 154.201 32.575 153.976 32.575C152.956 32.575 152.191 33.085 151.906 33.865L151.831 32.74H150.856V40H151.891V35.86C151.891 34.48 152.746 33.58 154.081 33.58H154.651V32.65ZM157.985 40V33.61H159.44V32.74H157.985V30.445H156.965V32.74H155.51V33.61H156.965V40H157.985ZM162.756 40.18C163.986 40.18 164.976 39.64 165.426 38.725L165.561 40H166.431V35.305C166.431 33.385 165.201 32.545 163.521 32.545C161.736 32.545 160.536 33.49 160.536 34.96H161.481C161.481 33.985 162.231 33.415 163.491 33.415C164.556 33.415 165.411 33.865 165.411 35.29V35.53L163.011 35.725C161.316 35.86 160.296 36.7 160.296 38.035C160.296 39.31 161.211 40.18 162.756 40.18ZM162.996 39.34C162.006 39.34 161.346 38.89 161.346 38.005C161.346 37.195 161.901 36.595 163.266 36.475L165.411 36.31V36.7C165.411 38.275 164.526 39.34 162.996 39.34ZM167.893 37.96C167.893 39.31 168.913 40.18 170.548 40.18C172.198 40.18 173.308 39.325 173.308 38.02C173.308 36.97 172.738 36.385 171.478 36.07L170.233 35.755C169.438 35.56 169.048 35.17 169.048 34.615C169.048 33.835 169.618 33.4 170.638 33.4C171.613 33.4 172.198 33.895 172.228 34.735H173.233C173.188 33.385 172.198 32.545 170.668 32.545C169.108 32.545 168.043 33.355 168.043 34.63C168.043 35.62 168.658 36.28 169.918 36.595L171.163 36.91C172.018 37.12 172.318 37.465 172.318 38.065C172.318 38.845 171.658 39.325 170.533 39.325C169.513 39.325 168.883 38.8 168.883 37.96H167.893ZM182.022 40.18C183.237 40.18 184.257 39.64 184.767 38.515L184.872 40H185.772V29.065H184.737V34.12C184.227 33.07 183.267 32.545 182.067 32.545C179.907 32.545 178.662 34.195 178.662 36.385C178.662 38.56 179.907 40.18 182.022 40.18ZM182.202 39.235C180.627 39.235 179.712 38.035 179.712 36.355C179.712 34.69 180.627 33.475 182.202 33.475C183.792 33.475 184.722 34.69 184.722 36.355C184.722 38.035 183.792 39.235 182.202 39.235ZM190.977 40.18C192.687 40.18 193.812 39.355 194.202 37.825H193.212C192.942 38.785 192.177 39.295 190.992 39.295C189.432 39.295 188.502 38.275 188.427 36.505H194.202V35.995C194.202 33.94 192.867 32.545 190.902 32.545C188.832 32.545 187.422 34.105 187.422 36.37C187.422 38.65 188.847 40.18 190.977 40.18ZM190.902 33.43C192.267 33.43 193.167 34.36 193.167 35.755H188.457C188.637 34.33 189.537 33.43 190.902 33.43ZM201.097 40V29.065H200.062V40H201.097ZM205.383 40.18C206.613 40.18 207.603 39.64 208.053 38.725L208.188 40H209.058V35.305C209.058 33.385 207.828 32.545 206.148 32.545C204.363 32.545 203.163 33.49 203.163 34.96H204.108C204.108 33.985 204.858 33.415 206.118 33.415C207.183 33.415 208.038 33.865 208.038 35.29V35.53L205.638 35.725C203.943 35.86 202.923 36.7 202.923 38.035C202.923 39.31 203.838 40.18 205.383 40.18ZM205.623 39.34C204.633 39.34 203.973 38.89 203.973 38.005C203.973 37.195 204.528 36.595 205.893 36.475L208.038 36.31V36.7C208.038 38.275 207.153 39.34 205.623 39.34ZM214.785 36.385C214.785 38.665 216.18 40.18 218.235 40.18C219.885 40.18 221.175 39.205 221.52 37.72H220.47C220.185 38.65 219.315 39.25 218.235 39.25C216.765 39.25 215.805 38.095 215.805 36.37C215.805 34.585 216.84 33.46 218.31 33.46C219.315 33.46 220.185 34.015 220.455 35.02H221.49C221.205 33.52 219.975 32.545 218.295 32.545C216.18 32.545 214.785 34.105 214.785 36.385ZM228.188 32.74V36.595C228.188 38.32 227.363 39.25 225.968 39.25C224.813 39.25 224.048 38.635 224.048 36.91V32.725H222.998V37.24C222.998 39.01 223.928 40.18 225.638 40.18C226.778 40.18 227.783 39.61 228.188 38.77L228.323 40H229.223V32.74H228.188ZM232.414 40V35.5C232.414 34.39 233.149 33.49 234.364 33.49C235.459 33.49 236.164 34.21 236.164 35.44V40H237.184V35.515C237.184 34.39 237.904 33.475 239.119 33.475C240.229 33.475 240.919 34.21 240.919 35.455V40H241.924V35.245C241.924 33.565 240.889 32.545 239.314 32.545C238.144 32.545 237.259 33.145 236.929 34.09C236.584 33.145 235.729 32.545 234.589 32.545C233.569 32.545 232.759 33.01 232.399 33.775L232.279 32.74H231.379V40H232.414ZM244.906 40L245.011 38.515C245.521 39.64 246.526 40.18 247.741 40.18C249.856 40.18 251.116 38.56 251.116 36.385C251.116 34.195 249.886 32.545 247.771 32.545C246.541 32.545 245.551 33.085 245.041 34.15V29.065H244.006V40H244.906ZM245.056 36.355C245.056 34.69 245.986 33.475 247.576 33.475C249.151 33.475 250.066 34.69 250.066 36.355C250.066 38.035 249.151 39.235 247.576 39.235C245.986 39.235 245.056 38.035 245.056 36.355ZM256.561 32.65C256.306 32.59 256.111 32.575 255.886 32.575C254.866 32.575 254.101 33.085 253.816 33.865L253.741 32.74H252.766V40H253.801V35.86C253.801 34.48 254.656 33.58 255.991 33.58H256.561V32.65ZM260.703 40.18C262.413 40.18 263.538 39.355 263.928 37.825H262.938C262.668 38.785 261.903 39.295 260.718 39.295C259.158 39.295 258.228 38.275 258.153 36.505H263.928V35.995C263.928 33.94 262.593 32.545 260.628 32.545C258.558 32.545 257.148 34.105 257.148 36.37C257.148 38.65 258.573 40.18 260.703 40.18ZM260.628 33.43C261.993 33.43 262.893 34.36 262.893 35.755H258.183C258.363 34.33 259.263 33.43 260.628 33.43ZM272.593 40.18C273.808 40.18 274.828 39.64 275.338 38.515L275.443 40H276.343V29.065H275.308V34.12C274.798 33.07 273.838 32.545 272.638 32.545C270.478 32.545 269.233 34.195 269.233 36.385C269.233 38.56 270.478 40.18 272.593 40.18ZM272.773 39.235C271.198 39.235 270.283 38.035 270.283 36.355C270.283 34.69 271.198 33.475 272.773 33.475C274.363 33.475 275.293 34.69 275.293 36.355C275.293 38.035 274.363 39.235 272.773 39.235ZM281.548 40.18C283.258 40.18 284.383 39.355 284.773 37.825H283.783C283.513 38.785 282.748 39.295 281.563 39.295C280.003 39.295 279.073 38.275 278.998 36.505H284.773V35.995C284.773 33.94 283.438 32.545 281.473 32.545C279.403 32.545 277.993 34.105 277.993 36.37C277.993 38.65 279.418 40.18 281.548 40.18ZM281.473 33.43C282.838 33.43 283.738 34.36 283.738 35.755H279.028C279.208 34.33 280.108 33.43 281.473 33.43ZM287.508 40V29.065H286.473V40H287.508ZM293.359 36.385C293.359 38.665 294.754 40.18 296.809 40.18C298.459 40.18 299.749 39.205 300.094 37.72H299.044C298.759 38.65 297.889 39.25 296.809 39.25C295.339 39.25 294.379 38.095 294.379 36.37C294.379 34.585 295.414 33.46 296.884 33.46C297.889 33.46 298.759 34.015 299.029 35.02H300.064C299.779 33.52 298.549 32.545 296.869 32.545C294.754 32.545 293.359 34.105 293.359 36.385ZM302.742 40V29.065H301.707V40H302.742ZM305.453 30.745C305.873 30.745 306.233 30.4 306.233 29.98C306.233 29.56 305.873 29.2 305.453 29.2C305.033 29.2 304.688 29.56 304.688 29.98C304.688 30.4 305.033 30.745 305.453 30.745ZM304.943 40H305.978V32.74H304.943V40ZM309.172 40V35.5C309.172 34.39 309.907 33.49 311.122 33.49C312.217 33.49 312.922 34.21 312.922 35.44V40H313.942V35.515C313.942 34.39 314.662 33.475 315.877 33.475C316.987 33.475 317.677 34.21 317.677 35.455V40H318.682V35.245C318.682 33.565 317.647 32.545 316.072 32.545C314.902 32.545 314.017 33.145 313.687 34.09C313.342 33.145 312.487 32.545 311.347 32.545C310.327 32.545 309.517 33.01 309.157 33.775L309.037 32.74H308.137V40H309.172ZM322.849 40.18C324.079 40.18 325.069 39.64 325.519 38.725L325.654 40H326.524V35.305C326.524 33.385 325.294 32.545 323.614 32.545C321.829 32.545 320.629 33.49 320.629 34.96H321.574C321.574 33.985 322.324 33.415 323.584 33.415C324.649 33.415 325.504 33.865 325.504 35.29V35.53L323.104 35.725C321.409 35.86 320.389 36.7 320.389 38.035C320.389 39.31 321.304 40.18 322.849 40.18ZM323.089 39.34C322.099 39.34 321.439 38.89 321.439 38.005C321.439 37.195 321.994 36.595 323.359 36.475L325.504 36.31V36.7C325.504 38.275 324.619 39.34 323.089 39.34ZM329.486 40.165C329.996 40.165 330.431 39.745 330.431 39.25C330.431 38.74 329.996 38.305 329.486 38.305C328.976 38.305 328.541 38.74 328.541 39.25C328.541 39.745 328.976 40.165 329.486 40.165ZM341.291 40.165C343.601 40.165 345.476 38.8 345.971 36.775H344.816C344.351 38.215 343.001 39.13 341.306 39.13C338.951 39.13 337.376 37.33 337.376 34.63C337.376 31.915 338.951 30.115 341.306 30.115C342.986 30.115 344.306 31.06 344.756 32.605H345.911C345.476 30.475 343.661 29.08 341.351 29.08C338.321 29.08 336.251 31.33 336.251 34.63C336.251 37.93 338.291 40.165 341.291 40.165ZM351.968 30.115H350.888L349.988 31.9H350.828L351.968 30.115ZM349.553 40.18C350.783 40.18 351.773 39.64 352.223 38.725L352.358 40H353.228V35.305C353.228 33.385 351.998 32.545 350.318 32.545C348.533 32.545 347.333 33.49 347.333 34.96H348.278C348.278 33.985 349.028 33.415 350.288 33.415C351.353 33.415 352.208 33.865 352.208 35.29V35.53L349.808 35.725C348.113 35.86 347.093 36.7 347.093 38.035C347.093 39.31 348.008 40.18 349.553 40.18ZM349.793 39.34C348.803 39.34 348.143 38.89 348.143 38.005C348.143 37.195 348.698 36.595 350.063 36.475L352.208 36.31V36.7C352.208 38.275 351.323 39.34 349.793 39.34ZM356.34 40V35.5C356.34 34.39 357.075 33.49 358.29 33.49C359.385 33.49 360.09 34.21 360.09 35.44V40H361.11V35.515C361.11 34.39 361.83 33.475 363.045 33.475C364.155 33.475 364.845 34.21 364.845 35.455V40H365.85V35.245C365.85 33.565 364.815 32.545 363.24 32.545C362.07 32.545 361.185 33.145 360.855 34.09C360.51 33.145 359.655 32.545 358.515 32.545C357.495 32.545 356.685 33.01 356.325 33.775L356.205 32.74H355.305V40H356.34ZM368.832 40L368.937 38.515C369.447 39.64 370.452 40.18 371.667 40.18C373.782 40.18 375.042 38.56 375.042 36.385C375.042 34.195 373.812 32.545 371.697 32.545C370.467 32.545 369.477 33.085 368.967 34.15V29.065H367.932V40H368.832ZM368.982 36.355C368.982 34.69 369.912 33.475 371.502 33.475C373.077 33.475 373.992 34.69 373.992 36.355C373.992 38.035 373.077 39.235 371.502 39.235C369.912 39.235 368.982 38.035 368.982 36.355ZM377.201 30.745C377.621 30.745 377.981 30.4 377.981 29.98C377.981 29.56 377.621 29.2 377.201 29.2C376.781 29.2 376.436 29.56 376.436 29.98C376.436 30.4 376.781 30.745 377.201 30.745ZM376.691 40H377.726V32.74H376.691V40ZM381.97 40.18C383.2 40.18 384.19 39.64 384.64 38.725L384.775 40H385.645V35.305C385.645 33.385 384.415 32.545 382.735 32.545C380.95 32.545 379.75 33.49 379.75 34.96H380.695C380.695 33.985 381.445 33.415 382.705 33.415C383.77 33.415 384.625 33.865 384.625 35.29V35.53L382.225 35.725C380.53 35.86 379.51 36.7 379.51 38.035C379.51 39.31 380.425 40.18 381.97 40.18ZM382.21 39.34C381.22 39.34 380.56 38.89 380.56 38.005C380.56 37.195 381.115 36.595 382.48 36.475L384.625 36.31V36.7C384.625 38.275 383.74 39.34 382.21 39.34ZM388.802 40V29.065H387.767V40H388.802ZM390.493 36.37C390.493 38.575 392.053 40.18 394.183 40.18C396.313 40.18 397.873 38.575 397.873 36.37C397.873 34.15 396.313 32.545 394.183 32.545C392.053 32.545 390.493 34.15 390.493 36.37ZM391.543 36.355C391.543 34.675 392.623 33.475 394.183 33.475C395.728 33.475 396.823 34.675 396.823 36.355C396.823 38.065 395.728 39.25 394.183 39.25C392.623 39.25 391.543 38.065 391.543 36.355ZM18.125 60.18C19.835 60.18 20.96 59.355 21.35 57.825H20.36C20.09 58.785 19.325 59.295 18.14 59.295C16.58 59.295 15.65 58.275 15.575 56.505H21.35V55.995C21.35 53.94 20.015 52.545 18.05 52.545C15.98 52.545 14.57 54.105 14.57 56.37C14.57 58.65 15.995 60.18 18.125 60.18ZM18.05 53.43C19.415 53.43 20.315 54.36 20.315 55.755H15.605C15.785 54.33 16.685 53.43 18.05 53.43ZM24.0398 60V56.205C24.0398 54.57 24.8798 53.49 26.3648 53.49C27.5648 53.49 28.3298 54.09 28.3298 55.785V60H29.3648V55.56C29.3648 53.73 28.5398 52.545 26.5448 52.545C25.4948 52.545 24.5348 53.07 24.0548 54L23.9048 52.74H23.0048V60H24.0398ZM35.0778 56.385C35.0778 58.665 36.4728 60.18 38.5278 60.18C40.1778 60.18 41.4678 59.205 41.8128 57.72H40.7628C40.4778 58.65 39.6078 59.25 38.5278 59.25C37.0578 59.25 36.0978 58.095 36.0978 56.37C36.0978 54.585 37.1328 53.46 38.6028 53.46C39.6078 53.46 40.4778 54.015 40.7478 55.02H41.7828C41.4978 53.52 40.2678 52.545 38.5878 52.545C36.4728 52.545 35.0778 54.105 35.0778 56.385ZM42.8708 56.37C42.8708 58.575 44.4308 60.18 46.5608 60.18C48.6908 60.18 50.2508 58.575 50.2508 56.37C50.2508 54.15 48.6908 52.545 46.5608 52.545C44.4308 52.545 42.8708 54.15 42.8708 56.37ZM43.9208 56.355C43.9208 54.675 45.0008 53.475 46.5608 53.475C48.1058 53.475 49.2008 54.675 49.2008 56.355C49.2008 58.065 48.1058 59.25 46.5608 59.25C45.0008 59.25 43.9208 58.065 43.9208 56.355ZM52.9412 60V56.205C52.9412 54.57 53.7812 53.49 55.2662 53.49C56.4662 53.49 57.2312 54.09 57.2312 55.785V60H58.2662V55.56C58.2662 53.73 57.4412 52.545 55.4462 52.545C54.3962 52.545 53.4362 53.07 52.9562 54L52.8062 52.74H51.9062V60H52.9412ZM65.114 60H66.149V52.74H61.664V51.33C61.664 50.475 61.904 50.025 62.774 50.025H63.404V49.125C63.164 49.08 62.849 49.065 62.594 49.065C61.514 49.065 60.629 49.695 60.629 51.33V52.74H59.519V53.61H60.629V60H61.664V53.61H65.114V60ZM65.624 50.67C66.029 50.67 66.344 50.37 66.344 49.95C66.344 49.53 66.029 49.215 65.624 49.215C65.204 49.215 64.904 49.53 64.904 49.95C64.904 50.37 65.204 50.67 65.624 50.67ZM67.7735 56.16C67.7735 58.14 69.0335 59.775 71.1035 59.775C72.3485 59.775 73.3535 59.175 73.8485 58.155V59.88C73.8485 61.395 72.8585 62.4 71.3735 62.4C70.0685 62.4 69.1685 61.71 68.9435 60.54H67.9085C68.1935 62.295 69.4985 63.345 71.3585 63.345C73.4885 63.345 74.8685 61.935 74.8685 59.775V52.74H73.9685L73.8635 54.195C73.3985 53.13 72.4385 52.545 71.1785 52.545C69.0485 52.545 67.7735 54.18 67.7735 56.16ZM68.8085 56.145C68.8085 54.675 69.7085 53.46 71.2685 53.46C72.8585 53.46 73.7585 54.6 73.7585 56.145C73.7585 57.705 72.8285 58.845 71.2535 58.845C69.7235 58.845 68.8085 57.63 68.8085 56.145ZM82.1282 52.74V56.595C82.1282 58.32 81.3032 59.25 79.9082 59.25C78.7532 59.25 77.9882 58.635 77.9882 56.91V52.725H76.9382V57.24C76.9382 59.01 77.8682 60.18 79.5782 60.18C80.7182 60.18 81.7232 59.61 82.1282 58.77L82.2632 60H83.1632V52.74H82.1282ZM89.1143 52.65C88.8593 52.59 88.6643 52.575 88.4393 52.575C87.4193 52.575 86.6543 53.085 86.3693 53.865L86.2943 52.74H85.3193V60H86.3543V55.86C86.3543 54.48 87.2093 53.58 88.5443 53.58H89.1143V52.65ZM92.2822 60.18C93.5122 60.18 94.5022 59.64 94.9522 58.725L95.0872 60H95.9572V55.305C95.9572 53.385 94.7272 52.545 93.0472 52.545C91.2622 52.545 90.0622 53.49 90.0622 54.96H91.0072C91.0072 53.985 91.7572 53.415 93.0172 53.415C94.0822 53.415 94.9372 53.865 94.9372 55.29V55.53L92.5372 55.725C90.8422 55.86 89.8222 56.7 89.8222 58.035C89.8222 59.31 90.7372 60.18 92.2822 60.18ZM92.5222 59.34C91.5322 59.34 90.8722 58.89 90.8722 58.005C90.8722 57.195 91.4272 56.595 92.7922 56.475L94.9372 56.31V56.7C94.9372 58.275 94.0522 59.34 92.5222 59.34ZM97.5241 56.385C97.5241 58.665 98.9191 60.18 100.974 60.18C102.624 60.18 103.914 59.205 104.259 57.72H103.209C102.924 58.65 102.054 59.25 100.974 59.25C99.5041 59.25 98.5441 58.095 98.5441 56.37C98.5441 54.585 99.5791 53.46 101.049 53.46C102.054 53.46 102.924 54.015 103.194 55.02H104.229C103.944 53.52 102.714 52.545 101.034 52.545C98.9191 52.545 97.5241 54.105 97.5241 56.385ZM106.337 50.745C106.757 50.745 107.117 50.4 107.117 49.98C107.117 49.56 106.757 49.2 106.337 49.2C105.917 49.2 105.572 49.56 105.572 49.98C105.572 50.4 105.917 50.745 106.337 50.745ZM105.827 60H106.862V52.74H105.827V60ZM113.805 50.115H112.71L111.81 51.9H112.665L113.805 50.115ZM108.51 56.37C108.51 58.575 110.07 60.18 112.2 60.18C114.33 60.18 115.89 58.575 115.89 56.37C115.89 54.15 114.33 52.545 112.2 52.545C110.07 52.545 108.51 54.15 108.51 56.37ZM109.56 56.355C109.56 54.675 110.64 53.475 112.2 53.475C113.745 53.475 114.84 54.675 114.84 56.355C114.84 58.065 113.745 59.25 112.2 59.25C110.64 59.25 109.56 58.065 109.56 56.355ZM118.581 60V56.205C118.581 54.57 119.421 53.49 120.906 53.49C122.106 53.49 122.871 54.09 122.871 55.785V60H123.906V55.56C123.906 53.73 123.081 52.545 121.086 52.545C120.036 52.545 119.076 53.07 118.596 54L118.446 52.74H117.546V60H118.581ZM129.619 56.385C129.619 58.665 131.014 60.18 133.069 60.18C134.719 60.18 136.009 59.205 136.354 57.72H135.304C135.019 58.65 134.149 59.25 133.069 59.25C131.599 59.25 130.639 58.095 130.639 56.37C130.639 54.585 131.674 53.46 133.144 53.46C134.149 53.46 135.019 54.015 135.289 55.02H136.324C136.039 53.52 134.809 52.545 133.129 52.545C131.014 52.545 129.619 54.105 129.619 56.385ZM143.022 52.74V56.595C143.022 58.32 142.197 59.25 140.802 59.25C139.647 59.25 138.882 58.635 138.882 56.91V52.725H137.832V57.24C137.832 59.01 138.762 60.18 140.472 60.18C141.612 60.18 142.617 59.61 143.022 58.77L143.157 60H144.057V52.74H143.022ZM148.298 60.18C149.528 60.18 150.518 59.64 150.968 58.725L151.103 60H151.973V55.305C151.973 53.385 150.743 52.545 149.063 52.545C147.278 52.545 146.078 53.49 146.078 54.96H147.023C147.023 53.985 147.773 53.415 149.033 53.415C150.098 53.415 150.953 53.865 150.953 55.29V55.53L148.553 55.725C146.858 55.86 145.838 56.7 145.838 58.035C145.838 59.31 146.753 60.18 148.298 60.18ZM148.538 59.34C147.548 59.34 146.888 58.89 146.888 58.005C146.888 57.195 147.443 56.595 148.808 56.475L150.953 56.31V56.7C150.953 58.275 150.068 59.34 148.538 59.34ZM155.085 60V56.205C155.085 54.57 155.925 53.49 157.41 53.49C158.61 53.49 159.375 54.09 159.375 55.785V60H160.41V55.56C160.41 53.73 159.585 52.545 157.59 52.545C156.54 52.545 155.58 53.07 155.1 54L154.95 52.74H154.05V60H155.085ZM165.323 60.18C166.538 60.18 167.558 59.64 168.068 58.515L168.173 60H169.073V49.065H168.038V54.12C167.528 53.07 166.568 52.545 165.368 52.545C163.208 52.545 161.963 54.195 161.963 56.385C161.963 58.56 163.208 60.18 165.323 60.18ZM165.503 59.235C163.928 59.235 163.013 58.035 163.013 56.355C163.013 54.69 163.928 53.475 165.503 53.475C167.093 53.475 168.023 54.69 168.023 56.355C168.023 58.035 167.093 59.235 165.503 59.235ZM170.722 56.37C170.722 58.575 172.282 60.18 174.412 60.18C176.542 60.18 178.102 58.575 178.102 56.37C178.102 54.15 176.542 52.545 174.412 52.545C172.282 52.545 170.722 54.15 170.722 56.37ZM171.772 56.355C171.772 54.675 172.852 53.475 174.412 53.475C175.957 53.475 177.052 54.675 177.052 56.355C177.052 58.065 175.957 59.25 174.412 59.25C172.852 59.25 171.772 58.065 171.772 56.355ZM183.408 56.34C183.408 58.53 184.623 60.18 186.768 60.18C187.998 60.18 188.973 59.655 189.483 58.605V63.165H190.518V52.74H189.618L189.513 54.21C188.988 53.085 187.983 52.545 186.768 52.545C184.668 52.545 183.408 54.15 183.408 56.34ZM184.458 56.37C184.458 54.69 185.373 53.49 186.948 53.49C188.538 53.49 189.468 54.69 189.468 56.37C189.468 58.035 188.538 59.25 186.948 59.25C185.373 59.25 184.458 58.035 184.458 56.37ZM197.778 52.74V56.595C197.778 58.32 196.953 59.25 195.558 59.25C194.403 59.25 193.638 58.635 193.638 56.91V52.725H192.588V57.24C192.588 59.01 193.518 60.18 195.228 60.18C196.368 60.18 197.373 59.61 197.778 58.77L197.913 60H198.813V52.74H197.778ZM201.479 50.745C201.899 50.745 202.259 50.4 202.259 49.98C202.259 49.56 201.899 49.2 201.479 49.2C201.059 49.2 200.714 49.56 200.714 49.98C200.714 50.4 201.059 50.745 201.479 50.745ZM200.969 60H202.004V52.74H200.969V60ZM207.207 60.18C208.917 60.18 210.042 59.355 210.432 57.825H209.442C209.172 58.785 208.407 59.295 207.222 59.295C205.662 59.295 204.732 58.275 204.657 56.505H210.432V55.995C210.432 53.94 209.097 52.545 207.132 52.545C205.062 52.545 203.652 54.105 203.652 56.37C203.652 58.65 205.077 60.18 207.207 60.18ZM207.132 53.43C208.497 53.43 209.397 54.36 209.397 55.755H204.687C204.867 54.33 205.767 53.43 207.132 53.43ZM215.882 52.65C215.627 52.59 215.432 52.575 215.207 52.575C214.187 52.575 213.422 53.085 213.137 53.865L213.062 52.74H212.087V60H213.122V55.86C213.122 54.48 213.977 53.58 215.312 53.58H215.882V52.65ZM219.05 60.18C220.28 60.18 221.27 59.64 221.72 58.725L221.855 60H222.725V55.305C222.725 53.385 221.495 52.545 219.815 52.545C218.03 52.545 216.83 53.49 216.83 54.96H217.775C217.775 53.985 218.525 53.415 219.785 53.415C220.85 53.415 221.705 53.865 221.705 55.29V55.53L219.305 55.725C217.61 55.86 216.59 56.7 216.59 58.035C216.59 59.31 217.505 60.18 219.05 60.18ZM219.29 59.34C218.3 59.34 217.64 58.89 217.64 58.005C217.64 57.195 218.195 56.595 219.56 56.475L221.705 56.31V56.7C221.705 58.275 220.82 59.34 219.29 59.34ZM224.187 57.96C224.187 59.31 225.207 60.18 226.842 60.18C228.492 60.18 229.602 59.325 229.602 58.02C229.602 56.97 229.032 56.385 227.772 56.07L226.527 55.755C225.732 55.56 225.342 55.17 225.342 54.615C225.342 53.835 225.912 53.4 226.932 53.4C227.907 53.4 228.492 53.895 228.522 54.735H229.527C229.482 53.385 228.492 52.545 226.962 52.545C225.402 52.545 224.337 53.355 224.337 54.63C224.337 55.62 224.952 56.28 226.212 56.595L227.457 56.91C228.312 57.12 228.612 57.465 228.612 58.065C228.612 58.845 227.952 59.325 226.827 59.325C225.807 59.325 225.177 58.8 225.177 57.96H224.187ZM232.073 60.165C232.583 60.165 233.018 59.745 233.018 59.25C233.018 58.74 232.583 58.305 232.073 58.305C231.563 58.305 231.128 58.74 231.128 59.25C231.128 59.745 231.563 60.165 232.073 60.165Z" fill="white"/>
<path d="M34.5078 63.525H124.896V64.725H34.5078V63.525Z" fill="white"/>
</svg>
