<svg width="344" height="232" viewBox="0 0 344 232" fill="none" xmlns="http://www.w3.org/2000/svg">
<g filter="url(#filter0_d_1067_1180)">
<path d="M19 21C19 17.6863 21.6863 15 25 15H327C330.314 15 333 17.6863 333 21V211C333 214.314 330.314 217 327 217H25C21.6863 217 19 214.314 19 211V21Z" fill="#FCFBF7"/>
<path d="M140.005 51.303C145.666 51.303 149.44 48.5969 149.44 44.7158V44.3241H144.099V44.6802C144.099 46.2113 142.995 47.0302 139.827 47.0302C136.373 47.0302 135.091 45.8552 134.949 43.1135H149.475C149.547 42.5082 149.618 42.0453 149.618 41.4044C149.618 35.8141 145.737 32.752 139.898 32.752C134.023 32.752 130 36.3482 130 42.0453C130 48.3833 134.059 51.303 140.005 51.303ZM139.791 36.9179C142.924 36.9179 144.348 37.9505 144.491 40.3006H135.02C135.269 37.9861 136.622 36.9179 139.791 36.9179Z" fill="#232630"/>
<path d="M160.89 51.303C166.409 51.303 169.72 49.0954 169.72 45.7484C169.72 42.793 167.94 41.1907 163.169 40.6566L159.359 40.1937C157.009 39.9089 156.511 39.5172 156.511 38.5914C156.511 37.452 157.188 36.9892 159.858 36.9892C163.133 36.9892 163.845 37.7369 163.845 39.1968V39.4104H169.186V39.3036C169.186 34.9596 165.875 32.752 160.036 32.752C153.912 32.752 151.242 35.2444 151.242 38.3778C151.242 41.3688 153.235 42.9711 156.796 43.3627L161.816 43.9681C163.917 44.2529 164.451 44.5378 164.451 45.5347C164.451 46.6029 163.774 47.0658 160.926 47.0658C157.9 47.0658 156.903 46.6385 156.903 45.0362V44.7158H151.562V44.8226C151.562 48.953 154.873 51.303 160.89 51.303Z" fill="#232630"/>
<path d="M177.216 57.0001V46.1401H177.465C178.07 49.2734 180.349 51.303 184.479 51.303C189.855 51.303 192.846 47.7067 192.846 42.0453C192.846 36.3838 189.784 32.752 184.301 32.752C180.099 32.752 177.821 34.5679 177.18 37.9861H176.824V33.108H171.875V57.0001H177.216ZM177.216 42.2945V42.0097C177.216 38.8407 178.996 37.6657 182.449 37.6657C185.832 37.6657 187.434 38.7695 187.434 42.0453C187.434 45.2855 185.832 46.4249 182.414 46.4249C179.067 46.4249 177.216 45.3567 177.216 42.2945Z" fill="#232630"/>
<path d="M200.407 50.9469V33.108H195.066V50.9469H200.407Z" fill="#232630"/>
<path d="M208.543 50.9469V41.9385C208.543 38.9119 209.753 37.5589 213.136 37.5589C216.411 37.5589 217.586 38.7695 217.586 41.618V50.9469H222.927V39.8377C222.927 35.8853 220.613 32.752 215.735 32.752C211.071 32.752 208.934 35.6005 208.472 38.5914H208.151V33.108H203.202V50.9469H208.543Z" fill="#232630"/>
<path d="M207.771 31.2016C207.771 31.2016 218.33 27.4327 222.927 27.4327V27L194.686 27V31.2016H207.771Z" fill="#DD5203"/>
<path d="M207.771 31.2016C207.771 31.2016 218.33 27.4327 222.927 27.4327V27L194.686 27V31.2016H207.771Z" fill="url(#paint0_linear_1067_1180)" fill-opacity="0.3"/>
<path d="M207.771 31.2016C207.771 31.2016 218.33 27.4327 222.927 27.4327V27L194.686 27V31.2016H207.771Z" fill="url(#paint1_linear_1067_1180)" fill-opacity="0.4"/>
<path d="M72.935 97.165C75.245 97.165 77.12 95.8 77.615 93.775H76.46C75.995 95.215 74.645 96.13 72.95 96.13C70.595 96.13 69.02 94.33 69.02 91.63C69.02 88.915 70.595 87.115 72.95 87.115C74.63 87.115 75.95 88.06 76.4 89.605H77.555C77.12 87.475 75.305 86.08 72.995 86.08C69.965 86.08 67.895 88.33 67.895 91.63C67.895 94.93 69.935 97.165 72.935 97.165ZM83.0527 89.65C82.7977 89.59 82.6027 89.575 82.3777 89.575C81.3577 89.575 80.5927 90.085 80.3077 90.865L80.2327 89.74H79.2577V97H80.2927V92.86C80.2927 91.48 81.1477 90.58 82.4827 90.58H83.0527V89.65ZM87.1953 97.18C88.9053 97.18 90.0303 96.355 90.4203 94.825H89.4303C89.1603 95.785 88.3953 96.295 87.2103 96.295C85.6503 96.295 84.7203 95.275 84.6453 93.505H90.4203V92.995C90.4203 90.94 89.0853 89.545 87.1203 89.545C85.0503 89.545 83.6403 91.105 83.6403 93.37C83.6403 95.65 85.0653 97.18 87.1953 97.18ZM87.1203 90.43C88.4853 90.43 89.3853 91.36 89.3853 92.755H84.6753C84.8553 91.33 85.7553 90.43 87.1203 90.43ZM94.0869 97.18C95.3169 97.18 96.3069 96.64 96.7569 95.725L96.8919 97H97.7619V92.305C97.7619 90.385 96.5319 89.545 94.8519 89.545C93.0669 89.545 91.8669 90.49 91.8669 91.96H92.8119C92.8119 90.985 93.5619 90.415 94.8219 90.415C95.8869 90.415 96.7419 90.865 96.7419 92.29V92.53L94.3419 92.725C92.6469 92.86 91.6269 93.7 91.6269 95.035C91.6269 96.31 92.5419 97.18 94.0869 97.18ZM94.3269 96.34C93.3369 96.34 92.6769 95.89 92.6769 95.005C92.6769 94.195 93.2319 93.595 94.5969 93.475L96.7419 93.31V93.7C96.7419 95.275 95.8569 96.34 94.3269 96.34ZM109.099 89.74V93.595C109.099 95.32 108.274 96.25 106.879 96.25C105.724 96.25 104.959 95.635 104.959 93.91V89.725H103.909V94.24C103.909 96.01 104.839 97.18 106.549 97.18C107.689 97.18 108.694 96.61 109.099 95.77L109.234 97H110.134V89.74H109.099ZM113.325 97V93.205C113.325 91.57 114.165 90.49 115.65 90.49C116.85 90.49 117.615 91.09 117.615 92.785V97H118.65V92.56C118.65 90.73 117.825 89.545 115.83 89.545C114.78 89.545 113.82 90.07 113.34 91L113.19 89.74H112.29V97H113.325ZM122.798 97.18C124.028 97.18 125.018 96.64 125.468 95.725L125.603 97H126.473V92.305C126.473 90.385 125.243 89.545 123.563 89.545C121.778 89.545 120.578 90.49 120.578 91.96H121.523C121.523 90.985 122.273 90.415 123.533 90.415C124.598 90.415 125.453 90.865 125.453 92.29V92.53L123.053 92.725C121.358 92.86 120.338 93.7 120.338 95.035C120.338 96.31 121.253 97.18 122.798 97.18ZM123.038 96.34C122.048 96.34 121.388 95.89 121.388 95.005C121.388 94.195 121.943 93.595 123.308 93.475L125.453 93.31V93.7C125.453 95.275 124.568 96.34 123.038 96.34ZM132.2 93.385C132.2 95.665 133.595 97.18 135.65 97.18C137.3 97.18 138.59 96.205 138.935 94.72H137.885C137.6 95.65 136.73 96.25 135.65 96.25C134.18 96.25 133.22 95.095 133.22 93.37C133.22 91.585 134.255 90.46 135.725 90.46C136.73 90.46 137.6 91.015 137.87 92.02H138.905C138.62 90.52 137.39 89.545 135.71 89.545C133.595 89.545 132.2 91.105 132.2 93.385ZM145.603 89.74V93.595C145.603 95.32 144.778 96.25 143.383 96.25C142.228 96.25 141.463 95.635 141.463 93.91V89.725H140.413V94.24C140.413 96.01 141.343 97.18 143.053 97.18C144.193 97.18 145.198 96.61 145.603 95.77L145.738 97H146.638V89.74H145.603ZM151.692 97.18C153.402 97.18 154.527 96.355 154.917 94.825H153.927C153.657 95.785 152.892 96.295 151.707 96.295C150.147 96.295 149.217 95.275 149.142 93.505H154.917V92.995C154.917 90.94 153.582 89.545 151.617 89.545C149.547 89.545 148.137 91.105 148.137 93.37C148.137 95.65 149.562 97.18 151.692 97.18ZM151.617 90.43C152.982 90.43 153.882 91.36 153.882 92.755H149.172C149.352 91.33 150.252 90.43 151.617 90.43ZM157.607 97V93.205C157.607 91.57 158.447 90.49 159.932 90.49C161.132 90.49 161.897 91.09 161.897 92.785V97H162.932V92.56C162.932 90.73 162.107 89.545 160.112 89.545C159.062 89.545 158.102 90.07 157.622 91L157.472 89.74H156.572V97H157.607ZM166.66 97V90.61H168.115V89.74H166.66V87.445H165.64V89.74H164.185V90.61H165.64V97H166.66ZM171.431 97.18C172.661 97.18 173.651 96.64 174.101 95.725L174.236 97H175.106V92.305C175.106 90.385 173.876 89.545 172.196 89.545C170.411 89.545 169.211 90.49 169.211 91.96H170.156C170.156 90.985 170.906 90.415 172.166 90.415C173.231 90.415 174.086 90.865 174.086 92.29V92.53L171.686 92.725C169.991 92.86 168.971 93.7 168.971 95.035C168.971 96.31 169.886 97.18 171.431 97.18ZM171.671 96.34C170.681 96.34 170.021 95.89 170.021 95.005C170.021 94.195 170.576 93.595 171.941 93.475L174.086 93.31V93.7C174.086 95.275 173.201 96.34 171.671 96.34ZM181.343 100.165H182.378V95.605C182.888 96.655 183.863 97.18 185.093 97.18C187.238 97.18 188.453 95.53 188.453 93.34C188.453 91.15 187.193 89.545 185.093 89.545C183.878 89.545 182.858 90.085 182.348 91.21L182.243 89.74H181.343V100.165ZM182.393 93.37C182.393 91.69 183.323 90.49 184.913 90.49C186.488 90.49 187.403 91.69 187.403 93.37C187.403 95.035 186.488 96.25 184.913 96.25C183.323 96.25 182.393 95.035 182.393 93.37ZM192.187 97.18C193.417 97.18 194.407 96.64 194.857 95.725L194.992 97H195.862V92.305C195.862 90.385 194.632 89.545 192.952 89.545C191.167 89.545 189.967 90.49 189.967 91.96H190.912C190.912 90.985 191.662 90.415 192.922 90.415C193.987 90.415 194.842 90.865 194.842 92.29V92.53L192.442 92.725C190.747 92.86 189.727 93.7 189.727 95.035C189.727 96.31 190.642 97.18 192.187 97.18ZM192.427 96.34C191.437 96.34 190.777 95.89 190.777 95.005C190.777 94.195 191.332 93.595 192.697 93.475L194.842 93.31V93.7C194.842 95.275 193.957 96.34 192.427 96.34ZM201.734 89.65C201.479 89.59 201.284 89.575 201.059 89.575C200.039 89.575 199.274 90.085 198.989 90.865L198.914 89.74H197.939V97H198.974V92.86C198.974 91.48 199.829 90.58 201.164 90.58H201.734V89.65ZM204.902 97.18C206.132 97.18 207.122 96.64 207.572 95.725L207.707 97H208.577V92.305C208.577 90.385 207.347 89.545 205.667 89.545C203.882 89.545 202.682 90.49 202.682 91.96H203.627C203.627 90.985 204.377 90.415 205.637 90.415C206.702 90.415 207.557 90.865 207.557 92.29V92.53L205.157 92.725C203.462 92.86 202.442 93.7 202.442 95.035C202.442 96.31 203.357 97.18 204.902 97.18ZM205.142 96.34C204.152 96.34 203.492 95.89 203.492 95.005C203.492 94.195 204.047 93.595 205.412 93.475L207.557 93.31V93.7C207.557 95.275 206.672 96.34 205.142 96.34ZM217.859 97.18C219.569 97.18 220.694 96.355 221.084 94.825H220.094C219.824 95.785 219.059 96.295 217.874 96.295C216.314 96.295 215.384 95.275 215.309 93.505H221.084V92.995C221.084 90.94 219.749 89.545 217.784 89.545C215.714 89.545 214.304 91.105 214.304 93.37C214.304 95.65 215.729 97.18 217.859 97.18ZM217.784 90.43C219.149 90.43 220.049 91.36 220.049 92.755H215.339C215.519 91.33 216.419 90.43 217.784 90.43ZM222.124 94.96C222.124 96.31 223.144 97.18 224.779 97.18C226.429 97.18 227.539 96.325 227.539 95.02C227.539 93.97 226.969 93.385 225.709 93.07L224.464 92.755C223.669 92.56 223.279 92.17 223.279 91.615C223.279 90.835 223.849 90.4 224.869 90.4C225.844 90.4 226.429 90.895 226.459 91.735H227.464C227.419 90.385 226.429 89.545 224.899 89.545C223.339 89.545 222.274 90.355 222.274 91.63C222.274 92.62 222.889 93.28 224.149 93.595L225.394 93.91C226.249 94.12 226.549 94.465 226.549 95.065C226.549 95.845 225.889 96.325 224.764 96.325C223.744 96.325 223.114 95.8 223.114 94.96H222.124ZM230.908 97V90.61H232.363V89.74H230.908V87.445H229.888V89.74H228.433V90.61H229.888V97H230.908ZM235.679 97.18C236.909 97.18 237.899 96.64 238.349 95.725L238.484 97H239.354V92.305C239.354 90.385 238.124 89.545 236.444 89.545C234.659 89.545 233.459 90.49 233.459 91.96H234.404C234.404 90.985 235.154 90.415 236.414 90.415C237.479 90.415 238.334 90.865 238.334 92.29V92.53L235.934 92.725C234.239 92.86 233.219 93.7 233.219 95.035C233.219 96.31 234.134 97.18 235.679 97.18ZM235.919 96.34C234.929 96.34 234.269 95.89 234.269 95.005C234.269 94.195 234.824 93.595 236.189 93.475L238.334 93.31V93.7C238.334 95.275 237.449 96.34 235.919 96.34ZM245.226 89.65C244.971 89.59 244.776 89.575 244.551 89.575C243.531 89.575 242.766 90.085 242.481 90.865L242.406 89.74H241.431V97H242.466V92.86C242.466 91.48 243.321 90.58 244.656 90.58H245.226V89.65ZM252.847 97.18C254.077 97.18 255.067 96.64 255.517 95.725L255.652 97H256.522V92.305C256.522 90.385 255.292 89.545 253.612 89.545C251.827 89.545 250.627 90.49 250.627 91.96H251.572C251.572 90.985 252.322 90.415 253.582 90.415C254.647 90.415 255.502 90.865 255.502 92.29V92.53L253.102 92.725C251.407 92.86 250.387 93.7 250.387 95.035C250.387 96.31 251.302 97.18 252.847 97.18ZM253.087 96.34C252.097 96.34 251.437 95.89 251.437 95.005C251.437 94.195 251.992 93.595 253.357 93.475L255.502 93.31V93.7C255.502 95.275 254.617 96.34 253.087 96.34ZM259.679 97V86.065H258.644V97H259.679ZM268.89 97.18C270.105 97.18 271.125 96.64 271.635 95.515L271.74 97H272.64V86.065H271.605V91.12C271.095 90.07 270.135 89.545 268.935 89.545C266.775 89.545 265.53 91.195 265.53 93.385C265.53 95.56 266.775 97.18 268.89 97.18ZM269.07 96.235C267.495 96.235 266.58 95.035 266.58 93.355C266.58 91.69 267.495 90.475 269.07 90.475C270.66 90.475 271.59 91.69 271.59 93.355C271.59 95.035 270.66 96.235 269.07 96.235ZM276.93 87.115H275.835L274.935 88.9H275.775L276.93 87.115ZM274.8 97H275.835V89.74H274.8V97ZM280.078 97.18C281.308 97.18 282.298 96.64 282.748 95.725L282.883 97H283.753V92.305C283.753 90.385 282.523 89.545 280.843 89.545C279.058 89.545 277.858 90.49 277.858 91.96H278.803C278.803 90.985 279.553 90.415 280.813 90.415C281.878 90.415 282.733 90.865 282.733 92.29V92.53L280.333 92.725C278.638 92.86 277.618 93.7 277.618 95.035C277.618 96.31 278.533 97.18 280.078 97.18ZM280.318 96.34C279.328 96.34 278.668 95.89 278.668 95.005C278.668 94.195 279.223 93.595 280.588 93.475L282.733 93.31V93.7C282.733 95.275 281.848 96.34 280.318 96.34ZM106.563 117.18C107.778 117.18 108.798 116.64 109.308 115.515L109.413 117H110.313V106.065H109.278V111.12C108.768 110.07 107.808 109.545 106.608 109.545C104.448 109.545 103.203 111.195 103.203 113.385C103.203 115.56 104.448 117.18 106.563 117.18ZM106.743 116.235C105.168 116.235 104.253 115.035 104.253 113.355C104.253 111.69 105.168 110.475 106.743 110.475C108.333 110.475 109.263 111.69 109.263 113.355C109.263 115.035 108.333 116.235 106.743 116.235ZM115.518 117.18C117.228 117.18 118.353 116.355 118.743 114.825H117.753C117.483 115.785 116.718 116.295 115.533 116.295C113.973 116.295 113.043 115.275 112.968 113.505H118.743V112.995C118.743 110.94 117.408 109.545 115.443 109.545C113.373 109.545 111.963 111.105 111.963 113.37C111.963 115.65 113.388 117.18 115.518 117.18ZM115.443 110.43C116.808 110.43 117.708 111.36 117.708 112.755H112.998C113.178 111.33 114.078 110.43 115.443 110.43ZM125.638 117V106.065H124.603V117H125.638ZM129.924 117.18C131.154 117.18 132.144 116.64 132.594 115.725L132.729 117H133.599V112.305C133.599 110.385 132.369 109.545 130.689 109.545C128.904 109.545 127.704 110.49 127.704 111.96H128.649C128.649 110.985 129.399 110.415 130.659 110.415C131.724 110.415 132.579 110.865 132.579 112.29V112.53L130.179 112.725C128.484 112.86 127.464 113.7 127.464 115.035C127.464 116.31 128.379 117.18 129.924 117.18ZM130.164 116.34C129.174 116.34 128.514 115.89 128.514 115.005C128.514 114.195 129.069 113.595 130.434 113.475L132.579 113.31V113.7C132.579 115.275 131.694 116.34 130.164 116.34ZM135.061 114.96C135.061 116.31 136.081 117.18 137.716 117.18C139.366 117.18 140.476 116.325 140.476 115.02C140.476 113.97 139.906 113.385 138.646 113.07L137.401 112.755C136.606 112.56 136.216 112.17 136.216 111.615C136.216 110.835 136.786 110.4 137.806 110.4C138.781 110.4 139.366 110.895 139.396 111.735H140.401C140.356 110.385 139.366 109.545 137.836 109.545C136.276 109.545 135.211 110.355 135.211 111.63C135.211 112.62 135.826 113.28 137.086 113.595L138.331 113.91C139.186 114.12 139.486 114.465 139.486 115.065C139.486 115.845 138.826 116.325 137.701 116.325C136.681 116.325 136.051 115.8 136.051 114.96H135.061ZM150.93 107.115H149.835L148.935 108.9H149.79L150.93 107.115ZM151.44 109.74V113.595C151.44 115.32 150.615 116.25 149.22 116.25C148.065 116.25 147.3 115.635 147.3 113.91V109.725H146.25V114.24C146.25 116.01 147.18 117.18 148.89 117.18C150.03 117.18 151.035 116.61 151.44 115.77L151.575 117H152.475V109.74H151.44ZM155.711 117V106.065H154.676V117H155.711ZM159.578 117V110.61H161.033V109.74H159.578V107.445H158.558V109.74H157.103V110.61H158.558V117H159.578ZM162.89 107.745C163.31 107.745 163.67 107.4 163.67 106.98C163.67 106.56 163.31 106.2 162.89 106.2C162.47 106.2 162.125 106.56 162.125 106.98C162.125 107.4 162.47 107.745 162.89 107.745ZM162.38 117H163.415V109.74H162.38V117ZM166.609 117V112.5C166.609 111.39 167.344 110.49 168.559 110.49C169.654 110.49 170.359 111.21 170.359 112.44V117H171.379V112.515C171.379 111.39 172.099 110.475 173.314 110.475C174.424 110.475 175.114 111.21 175.114 112.455V117H176.119V112.245C176.119 110.565 175.084 109.545 173.509 109.545C172.339 109.545 171.454 110.145 171.124 111.09C170.779 110.145 169.924 109.545 168.784 109.545C167.764 109.545 166.954 110.01 166.594 110.775L166.474 109.74H165.574V117H166.609ZM180.286 117.18C181.516 117.18 182.506 116.64 182.956 115.725L183.091 117H183.961V112.305C183.961 110.385 182.731 109.545 181.051 109.545C179.266 109.545 178.066 110.49 178.066 111.96H179.011C179.011 110.985 179.761 110.415 181.021 110.415C182.086 110.415 182.941 110.865 182.941 112.29V112.53L180.541 112.725C178.846 112.86 177.826 113.7 177.826 115.035C177.826 116.31 178.741 117.18 180.286 117.18ZM180.526 116.34C179.536 116.34 178.876 115.89 178.876 115.005C178.876 114.195 179.431 113.595 180.796 113.475L182.941 113.31V113.7C182.941 115.275 182.056 116.34 180.526 116.34ZM185.423 114.96C185.423 116.31 186.443 117.18 188.078 117.18C189.728 117.18 190.838 116.325 190.838 115.02C190.838 113.97 190.268 113.385 189.008 113.07L187.763 112.755C186.968 112.56 186.578 112.17 186.578 111.615C186.578 110.835 187.148 110.4 188.168 110.4C189.143 110.4 189.728 110.895 189.758 111.735H190.763C190.718 110.385 189.728 109.545 188.198 109.545C186.638 109.545 185.573 110.355 185.573 111.63C185.573 112.62 186.188 113.28 187.448 113.595L188.693 113.91C189.548 114.12 189.848 114.465 189.848 115.065C189.848 115.845 189.188 116.325 188.063 116.325C187.043 116.325 186.413 115.8 186.413 114.96H185.423ZM197.737 116.985V113.04C197.737 111.645 198.547 110.49 200.107 110.49C201.232 110.49 202.027 111.09 202.027 112.785V117H203.062V112.56C203.062 110.73 202.207 109.545 200.302 109.545C199.087 109.545 198.202 110.13 197.737 111V106.065H196.702V116.985H197.737ZM205.634 107.745C206.054 107.745 206.414 107.4 206.414 106.98C206.414 106.56 206.054 106.2 205.634 106.2C205.214 106.2 204.869 106.56 204.869 106.98C204.869 107.4 205.214 107.745 205.634 107.745ZM205.124 117H206.159V109.74H205.124V117ZM207.703 114.96C207.703 116.31 208.723 117.18 210.358 117.18C212.008 117.18 213.118 116.325 213.118 115.02C213.118 113.97 212.548 113.385 211.288 113.07L210.043 112.755C209.248 112.56 208.858 112.17 208.858 111.615C208.858 110.835 209.428 110.4 210.448 110.4C211.423 110.4 212.008 110.895 212.038 111.735H213.043C212.998 110.385 212.008 109.545 210.478 109.545C208.918 109.545 207.853 110.355 207.853 111.63C207.853 112.62 208.468 113.28 209.728 113.595L210.973 113.91C211.828 114.12 212.128 114.465 212.128 115.065C212.128 115.845 211.468 116.325 210.343 116.325C209.323 116.325 208.693 115.8 208.693 114.96H207.703ZM216.487 117V110.61H217.942V109.74H216.487V107.445H215.467V109.74H214.012V110.61H215.467V117H216.487ZM218.706 113.37C218.706 115.575 220.266 117.18 222.396 117.18C224.526 117.18 226.086 115.575 226.086 113.37C226.086 111.15 224.526 109.545 222.396 109.545C220.266 109.545 218.706 111.15 218.706 113.37ZM219.756 113.355C219.756 111.675 220.836 110.475 222.396 110.475C223.941 110.475 225.036 111.675 225.036 113.355C225.036 115.065 223.941 116.25 222.396 116.25C220.836 116.25 219.756 115.065 219.756 113.355ZM231.537 109.65C231.282 109.59 231.087 109.575 230.862 109.575C229.842 109.575 229.077 110.085 228.792 110.865L228.717 109.74H227.742V117H228.777V112.86C228.777 111.48 229.632 110.58 230.967 110.58H231.537V109.65ZM233.423 107.745C233.843 107.745 234.203 107.4 234.203 106.98C234.203 106.56 233.843 106.2 233.423 106.2C233.003 106.2 232.658 106.56 232.658 106.98C232.658 107.4 233.003 107.745 233.423 107.745ZM232.913 117H233.948V109.74H232.913V117ZM238.191 117.18C239.421 117.18 240.411 116.64 240.861 115.725L240.996 117H241.866V112.305C241.866 110.385 240.636 109.545 238.956 109.545C237.171 109.545 235.971 110.49 235.971 111.96H236.916C236.916 110.985 237.666 110.415 238.926 110.415C239.991 110.415 240.846 110.865 240.846 112.29V112.53L238.446 112.725C236.751 112.86 235.731 113.7 235.731 115.035C235.731 116.31 236.646 117.18 238.191 117.18ZM238.431 116.34C237.441 116.34 236.781 115.89 236.781 115.005C236.781 114.195 237.336 113.595 238.701 113.475L240.846 113.31V113.7C240.846 115.275 239.961 116.34 238.431 116.34ZM243.328 114.96C243.328 116.31 244.348 117.18 245.983 117.18C247.633 117.18 248.743 116.325 248.743 115.02C248.743 113.97 248.173 113.385 246.913 113.07L245.668 112.755C244.873 112.56 244.483 112.17 244.483 111.615C244.483 110.835 245.053 110.4 246.073 110.4C247.048 110.4 247.633 110.895 247.663 111.735H248.668C248.623 110.385 247.633 109.545 246.103 109.545C244.543 109.545 243.478 110.355 243.478 111.63C243.478 112.62 244.093 113.28 245.353 113.595L246.598 113.91C247.453 114.12 247.753 114.465 247.753 115.065C247.753 115.845 247.093 116.325 245.968 116.325C244.948 116.325 244.318 115.8 244.318 114.96H243.328Z" fill="black"/>
<rect x="31" y="133" width="290" height="32" rx="6" fill="#E73A02"/>
<path d="M137.793 155.165C140.238 155.165 142.173 153.725 142.638 151.565H141.078C140.673 152.9 139.413 153.755 137.823 153.755C135.633 153.755 134.193 152.105 134.193 149.57C134.193 147.035 135.633 145.385 137.823 145.385C139.398 145.385 140.613 146.24 141.018 147.65H142.593C142.188 145.43 140.313 143.975 137.868 143.975C134.763 143.975 132.648 146.24 132.648 149.585C132.648 152.945 134.703 155.165 137.793 155.165ZM148.4 147.605C148.115 147.545 147.905 147.515 147.65 147.515C146.645 147.515 145.91 148.025 145.61 148.79L145.52 147.68H144.2V155H145.61V151.115C145.61 149.705 146.435 148.895 147.77 148.895H148.4V147.605ZM152.624 155.18C154.439 155.18 155.669 154.295 156.029 152.72H154.709C154.469 153.56 153.749 154.01 152.654 154.01C151.259 154.01 150.449 153.155 150.344 151.61L156.014 151.595V151.07C156.014 148.895 154.649 147.455 152.564 147.455C150.434 147.455 148.979 149.045 148.979 151.34C148.979 153.62 150.464 155.18 152.624 155.18ZM152.564 148.64C153.809 148.64 154.604 149.45 154.604 150.665H150.374C150.554 149.375 151.334 148.64 152.564 148.64ZM159.661 155.18C160.846 155.18 161.851 154.655 162.226 153.815L162.376 155H163.576V150.395C163.576 148.415 162.346 147.455 160.531 147.455C158.641 147.455 157.381 148.46 157.381 149.99H158.611C158.611 149.105 159.286 148.58 160.471 148.58C161.461 148.58 162.196 149.015 162.196 150.245V150.455L159.886 150.635C158.161 150.77 157.156 151.61 157.156 152.96C157.156 154.295 158.086 155.18 159.661 155.18ZM160.066 154.085C159.151 154.085 158.581 153.695 158.581 152.915C158.581 152.195 159.091 151.715 160.336 151.595L162.211 151.445V151.835C162.211 153.215 161.401 154.085 160.066 154.085ZM169.728 147.605C169.443 147.545 169.233 147.515 168.978 147.515C167.973 147.515 167.238 148.025 166.938 148.79L166.848 147.68H165.528V155H166.938V151.115C166.938 149.705 167.763 148.895 169.098 148.895H169.728V147.605ZM174.672 151.34C174.672 153.65 176.097 155.18 178.257 155.18C180.027 155.18 181.392 154.115 181.677 152.525H180.267C180.012 153.395 179.262 153.92 178.257 153.92C176.922 153.92 176.067 152.9 176.067 151.325C176.067 149.735 176.982 148.715 178.317 148.715C179.262 148.715 180.012 149.21 180.252 150.14H181.662C181.407 148.505 180.117 147.455 178.272 147.455C176.127 147.455 174.672 149.045 174.672 151.34ZM188.235 147.665V151.535C188.235 153.11 187.53 153.935 186.24 153.935C185.16 153.935 184.485 153.335 184.485 151.76V147.665H183.075V152.225C183.075 154.025 184.035 155.18 185.745 155.18C186.825 155.18 187.8 154.655 188.22 153.89L188.37 155H189.63V147.665H188.235ZM194.694 155.18C196.509 155.18 197.739 154.295 198.099 152.72H196.779C196.539 153.56 195.819 154.01 194.724 154.01C193.329 154.01 192.519 153.155 192.414 151.61L198.084 151.595V151.07C198.084 148.895 196.719 147.455 194.634 147.455C192.504 147.455 191.049 149.045 191.049 151.34C191.049 153.62 192.534 155.18 194.694 155.18ZM194.634 148.64C195.879 148.64 196.674 149.45 196.674 150.665H192.444C192.624 149.375 193.404 148.64 194.634 148.64ZM201.069 155V151.115C201.069 149.69 201.834 148.745 203.154 148.745C204.234 148.745 204.924 149.345 204.924 150.83V155H206.334V150.515C206.334 148.64 205.449 147.455 203.514 147.455C202.479 147.455 201.549 147.95 201.084 148.79L200.934 147.665H199.659V155H201.069ZM210.357 155V148.85H211.797V147.665H210.357V145.37H208.947V147.665H207.507V148.85H208.947V155H210.357ZM215.12 155.18C216.305 155.18 217.31 154.655 217.685 153.815L217.835 155H219.035V150.395C219.035 148.415 217.805 147.455 215.99 147.455C214.1 147.455 212.84 148.46 212.84 149.99H214.07C214.07 149.105 214.745 148.58 215.93 148.58C216.92 148.58 217.655 149.015 217.655 150.245V150.455L215.345 150.635C213.62 150.77 212.615 151.61 212.615 152.96C212.615 154.295 213.545 155.18 215.12 155.18ZM215.525 154.085C214.61 154.085 214.04 153.695 214.04 152.915C214.04 152.195 214.55 151.715 215.795 151.595L217.67 151.445V151.835C217.67 153.215 216.86 154.085 215.525 154.085Z" fill="#FCFBF7"/>
<path d="M119.336 181.24C118.94 181.24 118.592 181.588 118.592 181.996C118.592 182.404 118.94 182.74 119.336 182.74C119.756 182.74 120.104 182.404 120.104 181.996C120.104 181.588 119.756 181.24 119.336 181.24ZM119 183.376V183.7C119 184.336 118.58 184.72 117.92 185.2C117.2 185.728 116.408 186.34 116.408 187.588C116.408 189.052 117.428 190.156 119.072 190.156C120.584 190.156 121.772 189.004 121.772 187.492H120.932C120.932 188.548 120.116 189.364 119.084 189.364C117.968 189.364 117.26 188.572 117.26 187.552C117.26 186.676 117.86 186.196 118.484 185.716C119.156 185.2 119.78 184.672 119.78 183.7V183.376H119ZM121.605 182.2H124.245V190H125.109V182.2H127.761V181.408H121.605V182.2ZM129.178 182.596C129.514 182.596 129.802 182.32 129.802 181.984C129.802 181.648 129.514 181.36 129.178 181.36C128.842 181.36 128.566 181.648 128.566 181.984C128.566 182.32 128.842 182.596 129.178 182.596ZM128.77 190H129.598V184.192H128.77V190ZM133.761 190.144C135.129 190.144 136.029 189.484 136.341 188.26H135.549C135.333 189.028 134.721 189.436 133.773 189.436C132.525 189.436 131.781 188.62 131.721 187.204H136.341V186.796C136.341 185.152 135.273 184.036 133.701 184.036C132.045 184.036 130.917 185.284 130.917 187.096C130.917 188.92 132.057 190.144 133.761 190.144ZM133.701 184.744C134.793 184.744 135.513 185.488 135.513 186.604H131.745C131.889 185.464 132.609 184.744 133.701 184.744ZM138.493 190V186.964C138.493 185.656 139.165 184.792 140.353 184.792C141.313 184.792 141.925 185.272 141.925 186.628V190H142.753V186.448C142.753 184.984 142.093 184.036 140.497 184.036C139.657 184.036 138.889 184.456 138.505 185.2L138.385 184.192H137.665V190H138.493ZM146.839 190.144C148.207 190.144 149.107 189.484 149.419 188.26H148.627C148.411 189.028 147.799 189.436 146.851 189.436C145.603 189.436 144.859 188.62 144.799 187.204H149.419V186.796C149.419 185.152 148.351 184.036 146.779 184.036C145.123 184.036 143.995 185.284 143.995 187.096C143.995 188.92 145.135 190.144 146.839 190.144ZM146.779 184.744C147.871 184.744 148.591 185.488 148.591 186.604H144.823C144.967 185.464 145.687 184.744 146.779 184.744ZM150.251 188.368C150.251 189.448 151.067 190.144 152.375 190.144C153.695 190.144 154.583 189.46 154.583 188.416C154.583 187.576 154.127 187.108 153.119 186.856L152.123 186.604C151.487 186.448 151.175 186.136 151.175 185.692C151.175 185.068 151.631 184.72 152.447 184.72C153.227 184.72 153.695 185.116 153.719 185.788H154.523C154.487 184.708 153.695 184.036 152.471 184.036C151.223 184.036 150.371 184.684 150.371 185.704C150.371 186.496 150.863 187.024 151.871 187.276L152.867 187.528C153.551 187.696 153.791 187.972 153.791 188.452C153.791 189.076 153.263 189.46 152.363 189.46C151.547 189.46 151.043 189.04 151.043 188.368H150.251ZM158.866 187.108C158.866 188.932 159.982 190.144 161.626 190.144C162.946 190.144 163.978 189.364 164.254 188.176H163.414C163.186 188.92 162.49 189.4 161.626 189.4C160.45 189.4 159.682 188.476 159.682 187.096C159.682 185.668 160.51 184.768 161.686 184.768C162.49 184.768 163.186 185.212 163.402 186.016H164.23C164.002 184.816 163.018 184.036 161.674 184.036C159.982 184.036 158.866 185.284 158.866 187.108ZM169.589 184.192V187.276C169.589 188.656 168.929 189.4 167.813 189.4C166.889 189.4 166.277 188.908 166.277 187.528V184.18H165.437V187.792C165.437 189.208 166.181 190.144 167.549 190.144C168.461 190.144 169.265 189.688 169.589 189.016L169.697 190H170.417V184.192H169.589ZM174.46 190.144C175.828 190.144 176.728 189.484 177.04 188.26H176.248C176.032 189.028 175.42 189.436 174.472 189.436C173.224 189.436 172.48 188.62 172.42 187.204H177.04V186.796C177.04 185.152 175.972 184.036 174.4 184.036C172.744 184.036 171.616 185.284 171.616 187.096C171.616 188.92 172.756 190.144 174.46 190.144ZM174.4 184.744C175.492 184.744 176.212 185.488 176.212 186.604H172.444C172.588 185.464 173.308 184.744 174.4 184.744ZM179.192 190V186.964C179.192 185.656 179.864 184.792 181.052 184.792C182.012 184.792 182.624 185.272 182.624 186.628V190H183.452V186.448C183.452 184.984 182.792 184.036 181.196 184.036C180.356 184.036 179.588 184.456 179.204 185.2L179.084 184.192H178.364V190H179.192ZM186.434 190V184.888H187.598V184.192H186.434V182.356H185.618V184.192H184.454V184.888H185.618V190H186.434ZM190.251 190.144C191.235 190.144 192.027 189.712 192.387 188.98L192.495 190H193.191V186.244C193.191 184.708 192.207 184.036 190.863 184.036C189.435 184.036 188.475 184.792 188.475 185.968H189.231C189.231 185.188 189.831 184.732 190.839 184.732C191.691 184.732 192.375 185.092 192.375 186.232V186.424L190.455 186.58C189.099 186.688 188.283 187.36 188.283 188.428C188.283 189.448 189.015 190.144 190.251 190.144ZM190.443 189.472C189.651 189.472 189.123 189.112 189.123 188.404C189.123 187.756 189.567 187.276 190.659 187.18L192.375 187.048V187.36C192.375 188.62 191.667 189.472 190.443 189.472ZM197.168 188.032V187.72C197.168 187.084 197.588 186.688 198.26 186.208C198.968 185.68 199.76 185.068 199.76 183.832C199.76 182.368 198.74 181.252 197.096 181.252C195.584 181.252 194.396 182.416 194.396 183.916H195.236C195.236 182.872 196.052 182.044 197.096 182.044C198.2 182.044 198.908 182.836 198.908 183.856C198.908 184.732 198.32 185.224 197.696 185.704C197.024 186.208 196.388 186.736 196.388 187.72V188.032H197.168ZM196.832 190.168C197.24 190.168 197.576 189.82 197.576 189.412C197.576 189.004 197.24 188.668 196.832 188.668C196.412 188.668 196.076 189.004 196.076 189.412C196.076 189.82 196.412 190.168 196.832 190.168ZM205.4 181.408H204.536V190H209.348V189.208H205.4V181.408ZM209.936 187.096C209.936 188.86 211.184 190.144 212.888 190.144C214.592 190.144 215.84 188.86 215.84 187.096C215.84 185.32 214.592 184.036 212.888 184.036C211.184 184.036 209.936 185.32 209.936 187.096ZM210.776 187.084C210.776 185.74 211.64 184.78 212.888 184.78C214.124 184.78 215 185.74 215 187.084C215 188.452 214.124 189.4 212.888 189.4C211.64 189.4 210.776 188.452 210.776 187.084ZM216.769 186.928C216.769 188.512 217.777 189.82 219.433 189.82C220.429 189.82 221.233 189.34 221.629 188.524V189.904C221.629 191.116 220.837 191.92 219.649 191.92C218.605 191.92 217.885 191.368 217.705 190.432H216.877C217.105 191.836 218.149 192.676 219.637 192.676C221.341 192.676 222.445 191.548 222.445 189.82V184.192H221.725L221.641 185.356C221.269 184.504 220.501 184.036 219.493 184.036C217.789 184.036 216.769 185.344 216.769 186.928ZM217.597 186.916C217.597 185.74 218.317 184.768 219.565 184.768C220.837 184.768 221.557 185.68 221.557 186.916C221.557 188.164 220.813 189.076 219.553 189.076C218.329 189.076 217.597 188.104 217.597 186.916ZM227.909 182.596C228.245 182.596 228.533 182.32 228.533 181.984C228.533 181.648 228.245 181.36 227.909 181.36C227.573 181.36 227.297 181.648 227.297 181.984C227.297 182.32 227.573 182.596 227.909 182.596ZM227.501 190H228.329V184.192H227.501V190ZM230.883 190V186.964C230.883 185.656 231.555 184.792 232.743 184.792C233.703 184.792 234.315 185.272 234.315 186.628V190H235.143V186.448C235.143 184.984 234.483 184.036 232.887 184.036C232.047 184.036 231.279 184.456 230.895 185.2L230.775 184.192H230.055V190H230.883Z" fill="#232630"/>
<path d="M116 192.82H235.935V193.78H116V192.82Z" fill="#232630"/>
<line x1="19" y1="68.5" x2="333" y2="68.5" stroke="#D6D9E1"/>
</g>
<defs>
<filter id="filter0_d_1067_1180" x="0" y="0" width="344" height="232" filterUnits="userSpaceOnUse" color-interpolation-filters="sRGB">
<feFlood flood-opacity="0" result="BackgroundImageFix"/>
<feColorMatrix in="SourceAlpha" type="matrix" values="0 0 0 0 0 0 0 0 0 0 0 0 0 0 0 0 0 0 127 0" result="hardAlpha"/>
<feOffset dx="-4"/>
<feGaussianBlur stdDeviation="7.5"/>
<feComposite in2="hardAlpha" operator="out"/>
<feColorMatrix type="matrix" values="0 0 0 0 0.137255 0 0 0 0 0.14902 0 0 0 0 0.188235 0 0 0 0.13 0"/>
<feBlend mode="normal" in2="BackgroundImageFix" result="effect1_dropShadow_1067_1180"/>
<feBlend mode="normal" in="SourceGraphic" in2="effect1_dropShadow_1067_1180" result="shape"/>
</filter>
<linearGradient id="paint0_linear_1067_1180" x1="218.188" y1="28.3826" x2="201.206" y2="31.1946" gradientUnits="userSpaceOnUse">
<stop stop-color="#FF0000"/>
<stop offset="1" stop-color="#FF0000" stop-opacity="0"/>
</linearGradient>
<linearGradient id="paint1_linear_1067_1180" x1="195.627" y1="31.1897" x2="206.027" y2="29.0913" gradientUnits="userSpaceOnUse">
<stop stop-color="#FFA800"/>
<stop offset="1" stop-color="#FFA800" stop-opacity="0"/>
</linearGradient>
</defs>
</svg>
