<svg width="157" height="130" viewBox="0 0 157 130" fill="none" xmlns="http://www.w3.org/2000/svg">
<path opacity="0.9" d="M0 0H93V24C93 27.3137 90.3137 30 87 30H6C2.68629 30 0 27.3137 0 24V0Z" fill="#121419"/>
<g clip-path="url(#clip0_1067_1254)">
<path d="M26.7895 14.7934C26.7895 10.6334 24.6126 9.21289 21.0066 9.21289C17.4007 9.21289 15.3235 10.6334 15.3235 14.7934C15.3235 18.9146 17.3658 20.2996 21.0748 20.2996C24.7838 20.2996 26.7895 18.9095 26.7895 14.7934Z" fill="#5CFF89"/>
<path fill-rule="evenodd" clip-rule="evenodd" d="M27.4675 7.97856C29.214 9.51406 30 11.841 30 14.8207C30 17.7462 29.2871 20.063 27.5722 21.585C25.9005 23.0765 23.584 23.5432 21.0233 23.5432C18.4625 23.5432 16.1394 23.0799 14.4577 21.5951C12.7295 20.0681 12 17.753 12 14.8207C12 11.8613 12.7428 9.53435 14.4527 7.99209C16.1244 6.48534 18.4276 6 20.9352 6C23.4428 6 25.7675 6.48534 27.4675 7.97856ZM20.9352 7.52197C25.6562 7.52197 28.5044 9.38215 28.5044 14.8207C28.5044 20.2152 25.8789 22.028 21.0266 22.028C16.1743 22.028 13.4956 20.2152 13.4956 14.8207C13.4956 9.38215 16.2125 7.52197 20.9352 7.52197Z" fill="#5CFF89"/>
</g>
<path d="M48.788 22V20.505H39.013V6.59H37.38V22H48.788ZM52.265 9.189V6.59H50.632V9.189H52.265ZM52.265 22V10.638H50.632V22H52.265ZM61.2908 22L66.7188 10.638H64.9478L60.3708 20.39H60.2328L55.6328 10.638H53.8618L59.2898 22H61.2908ZM73.7362 22.23C76.9102 22.23 79.2562 20.597 79.2562 18.228V18.067H77.6232V18.228C77.6232 19.884 76.3812 20.873 73.7132 20.873C70.7002 20.873 69.3892 19.332 69.2972 16.779H79.3022C79.3712 16.48 79.4172 16.135 79.4172 15.721C79.4172 12.34 77.0482 10.408 73.7132 10.408C70.0562 10.408 67.7562 12.869 67.7562 16.319C67.7562 19.93 70.0792 22.23 73.7362 22.23ZM73.6902 11.765C76.3582 11.765 77.8762 13.03 77.8762 15.422C77.8762 15.537 77.8762 15.652 77.8762 15.767H69.2972C69.4122 13.283 70.7462 11.765 73.6902 11.765Z" fill="#5CFF89"/>
<path opacity="0.9" d="M0 50H157V74C157 77.3137 154.314 80 151 80H6C2.6863 80 0 77.3137 0 74V50Z" fill="#121419"/>
<g clip-path="url(#clip1_1067_1254)">
<path d="M26.7895 64.7934C26.7895 60.6334 24.6126 59.2129 21.0066 59.2129C17.4007 59.2129 15.3235 60.6334 15.3235 64.7934C15.3235 68.9146 17.3658 70.2996 21.0748 70.2996C24.7838 70.2996 26.7895 68.9095 26.7895 64.7934Z" fill="#5CFF89"/>
<path fill-rule="evenodd" clip-rule="evenodd" d="M27.4675 57.9786C29.214 59.5141 30 61.841 30 64.8207C30 67.7462 29.2871 70.063 27.5722 71.585C25.9005 73.0765 23.584 73.5432 21.0233 73.5432C18.4625 73.5432 16.1394 73.0799 14.4577 71.5951C12.7295 70.0681 12 67.753 12 64.8207C12 61.8613 12.7428 59.5344 14.4527 57.9921C16.1244 56.4853 18.4276 56 20.9352 56C23.4428 56 25.7675 56.4853 27.4675 57.9786ZM20.9352 57.522C25.6562 57.522 28.5044 59.3822 28.5044 64.8207C28.5044 70.2152 25.8789 72.028 21.0266 72.028C16.1743 72.028 13.4956 70.2152 13.4956 64.8207C13.4956 59.3822 16.2125 57.522 20.9352 57.522Z" fill="#5CFF89"/>
</g>
<path d="M49.087 72V70.505H39.013V64.985H48.742V63.513H39.013V58.085H49.087V56.59H37.38V72H49.087ZM53.0062 72V66.503C53.0062 63.582 54.4552 61.903 57.2152 61.903C59.8142 61.903 60.9412 63.26 60.9412 65.606V72H62.5742V65.376C62.5742 62.685 60.9872 60.408 57.7902 60.408C54.9612 60.408 53.3512 62.271 52.9602 64.203H52.8452V60.638H51.3732V72H53.0062ZM74.3532 72.23C76.8602 72.23 78.7002 70.919 79.2522 68.642H79.3442V72H80.8392V56.59H79.2062V63.812H79.0912C78.5852 61.857 76.9062 60.408 74.2152 60.408C70.7192 60.408 68.6952 62.869 68.6952 66.319C68.6952 69.769 70.7192 72.23 74.3532 72.23ZM70.3512 66.319C70.3512 63.03 72.1222 61.926 74.7212 61.926C77.5272 61.926 79.2062 63.49 79.2062 66.296V66.503C79.2062 69.194 77.4352 70.735 74.7672 70.735C72.0992 70.735 70.3512 69.608 70.3512 66.319ZM85.2151 59.189V56.59H83.5821V59.189H85.2151ZM85.2151 72V60.638H83.5821V72H85.2151ZM89.595 72V65.836C89.595 63.283 90.607 61.834 92.907 61.834C94.885 61.834 95.69 62.777 95.69 64.709V65.583H97.323V64.456C97.323 62.34 96.173 60.408 93.551 60.408C91.182 60.408 89.894 61.926 89.549 63.743H89.434V60.638H87.962V72H89.595ZM104.62 72.23C107.794 72.23 110.14 70.597 110.14 68.228V68.067H108.507V68.228C108.507 69.884 107.265 70.873 104.597 70.873C101.584 70.873 100.273 69.332 100.181 66.779H110.186C110.255 66.48 110.301 66.135 110.301 65.721C110.301 62.34 107.932 60.408 104.597 60.408C100.94 60.408 98.64 62.869 98.64 66.319C98.64 69.93 100.963 72.23 104.62 72.23ZM104.574 61.765C107.242 61.765 108.76 63.03 108.76 65.422C108.76 65.537 108.76 65.652 108.76 65.767H100.181C100.296 63.283 101.63 61.765 104.574 61.765ZM117.895 72.23C121.069 72.23 123.553 70.344 123.553 67.607V67.423H121.943V67.561C121.943 69.585 120.471 70.735 117.872 70.735C114.836 70.735 113.525 69.102 113.525 66.319C113.525 63.536 114.836 61.903 117.872 61.903C120.471 61.903 121.943 63.053 121.943 65.077V65.215H123.553V65.031C123.553 62.294 121.069 60.408 117.895 60.408C114.261 60.408 111.892 62.869 111.892 66.319C111.892 69.769 114.261 72.23 117.895 72.23ZM132.71 72V70.505H130.64C128.984 70.505 128.202 70.068 128.202 68.481V62.041H132.71V60.638H128.202V57.924H126.546V60.638H124.522V62.041H126.546V68.389C126.546 71.057 127.995 72 130.249 72H132.71ZM140.067 72.23C143.793 72.23 146.254 69.769 146.254 66.319C146.254 62.869 143.793 60.408 140.067 60.408C136.364 60.408 133.903 62.869 133.903 66.319C133.903 69.769 136.364 72.23 140.067 72.23ZM140.067 70.758C136.939 70.758 135.513 69.079 135.513 66.319C135.513 63.582 136.939 61.88 140.067 61.88C143.195 61.88 144.644 63.582 144.644 66.319C144.644 69.079 143.195 70.758 140.067 70.758Z" fill="#5CFF89"/>
<path opacity="0.5" d="M0 100H42V124C42 127.314 39.3137 130 36 130H6C2.68629 130 0 127.314 0 124V100Z" fill="#121419"/>
<g clip-path="url(#clip2_1067_1254)">
<path d="M26.7895 114.793C26.7895 110.633 24.6126 109.213 21.0066 109.213C17.4007 109.213 15.3235 110.633 15.3235 114.793C15.3235 118.915 17.3658 120.3 21.0748 120.3C24.7838 120.3 26.7895 118.91 26.7895 114.793Z" fill="#5CFF89"/>
<path fill-rule="evenodd" clip-rule="evenodd" d="M27.4675 107.979C29.214 109.514 30 111.841 30 114.821C30 117.746 29.2871 120.063 27.5722 121.585C25.9005 123.076 23.584 123.543 21.0233 123.543C18.4625 123.543 16.1394 123.08 14.4577 121.595C12.7295 120.068 12 117.753 12 114.821C12 111.861 12.7428 109.534 14.4527 107.992C16.1244 106.485 18.4276 106 20.9352 106C23.4428 106 25.7675 106.485 27.4675 107.979ZM20.9352 107.522C25.6562 107.522 28.5044 109.382 28.5044 114.821C28.5044 120.215 25.8789 122.028 21.0266 122.028C16.1743 122.028 13.4956 120.215 13.4956 114.821C13.4956 109.382 16.2125 107.522 20.9352 107.522Z" fill="#5CFF89"/>
</g>
<defs>
<clipPath id="clip0_1067_1254">
<rect width="18" height="17.55" fill="white" transform="translate(12 6)"/>
</clipPath>
<clipPath id="clip1_1067_1254">
<rect width="18" height="17.55" fill="white" transform="translate(12 56)"/>
</clipPath>
<clipPath id="clip2_1067_1254">
<rect width="18" height="17.55" fill="white" transform="translate(12 106)"/>
</clipPath>
</defs>
</svg>
