<svg width="413" height="120" viewBox="0 0 413 120" fill="none" xmlns="http://www.w3.org/2000/svg">
<rect width="414" height="120" transform="translate(-1)" fill="#FCFBF7"/>
<line x1="11" y1="40.5" x2="401" y2="40.5" stroke="#B8BDCB"/>
<path d="M13.844 29V21.926L13.772 19.838H13.916L15.428 21.962L20.864 29H22.952V16.94H21.008V24.068L21.098 26.246H20.954L19.388 23.996L13.988 16.94H11.9V29H13.844ZM26.6936 19.01V16.94H24.7496V19.01H26.6936ZM26.6936 29V20.054H24.7496V29H26.6936ZM30.4378 29V25.346H32.9938L35.6398 29H37.9258L34.5778 24.356L37.9438 20.054H35.6758L32.9938 23.6H30.4378V16.94H28.4938V29H30.4378ZM43.472 29.18C46.46 29.18 48.458 27.29 48.458 24.536C48.458 21.746 46.46 19.874 43.472 19.874C40.502 19.874 38.504 21.746 38.504 24.536C38.504 27.29 40.502 29.18 43.472 29.18ZM43.472 27.452C41.312 27.452 40.412 26.426 40.412 24.536C40.412 22.628 41.312 21.584 43.472 21.584C45.65 21.584 46.55 22.628 46.55 24.536C46.55 26.426 45.65 27.452 43.472 27.452ZM51.8128 29V16.94H49.8688V29H51.8128ZM56.2409 29.18C58.2749 29.18 59.6969 28.28 60.1649 26.768H60.2909V29H62.0729V23.564C62.0729 21.422 60.7949 19.874 57.9509 19.874C55.1069 19.874 53.4149 21.404 53.4149 23.438V23.51H55.3409V23.438C55.3409 22.124 56.1509 21.584 57.8069 21.584C59.5169 21.584 60.1649 22.106 60.1649 23.582V24.104L56.0969 24.536C54.3329 24.734 53.2169 25.454 53.2169 26.84C53.2169 28.316 54.3869 29.18 56.2409 29.18ZM55.1609 26.714C55.1609 26.012 55.6469 25.778 56.6549 25.652L60.1649 25.256C60.1649 27.02 58.7969 27.776 56.7629 27.776C55.6469 27.776 55.1609 27.434 55.1609 26.714ZM72.8784 29V18.686H77.6124V16.94H66.2004V18.686H70.9524V29H72.8784ZM83.2496 29.18C85.9136 29.18 87.7856 27.866 87.7856 25.958V25.796H85.8416V25.94C85.8416 27.002 85.0676 27.614 83.1956 27.614C81.1256 27.614 80.2796 26.696 80.2076 24.968H87.8036C87.8576 24.698 87.8756 24.446 87.8756 24.122C87.8756 21.404 85.9856 19.874 83.2136 19.874C80.2976 19.874 78.3896 21.746 78.3896 24.536C78.3896 27.524 80.3156 29.18 83.2496 29.18ZM83.1776 21.404C85.0856 21.404 86.0396 22.196 86.0396 23.852V23.888H80.2256C80.3336 22.286 81.1976 21.404 83.1776 21.404ZM93.5616 29.18C96.0816 29.18 97.7376 28.19 97.7376 26.516C97.7376 25.04 96.7656 24.32 94.6416 24.05L92.5716 23.762C91.2216 23.582 90.8616 23.33 90.8616 22.628C90.8616 21.782 91.4376 21.422 93.0756 21.422C95.0556 21.422 95.5956 21.98 95.5956 23.042V23.15H97.5216V23.096C97.5216 20.972 95.8656 19.874 93.1296 19.874C90.3756 19.874 88.9536 20.99 88.9536 22.556C88.9536 24.05 89.9796 24.77 91.6716 24.986L94.1196 25.31C95.3976 25.49 95.8296 25.724 95.8296 26.462C95.8296 27.254 95.3076 27.614 93.5616 27.614C91.6896 27.614 90.9876 27.236 90.9876 26.066V25.922H89.0436V25.976C89.0436 28.046 90.6816 29.18 93.5616 29.18ZM101.084 29V16.94H99.1402V29H101.084ZM105.512 29.18C107.546 29.18 108.968 28.28 109.436 26.768H109.562V29H111.344V23.564C111.344 21.422 110.066 19.874 107.222 19.874C104.378 19.874 102.686 21.404 102.686 23.438V23.51H104.612V23.438C104.612 22.124 105.422 21.584 107.078 21.584C108.788 21.584 109.436 22.106 109.436 23.582V24.104L105.368 24.536C103.604 24.734 102.488 25.454 102.488 26.84C102.488 28.316 103.658 29.18 105.512 29.18ZM104.432 26.714C104.432 26.012 104.918 25.778 105.926 25.652L109.436 25.256C109.436 27.02 108.068 27.776 106.034 27.776C104.918 27.776 104.432 27.434 104.432 26.714Z" fill="#232630"/>
<rect x="15.3562" y="38" width="106" height="3" fill="#B8BDCB"/>
<rect x="11" y="38" width="106" height="3" fill="#232630"/>
<path d="M316.038 30L321.348 17.94H319.854L315.21 28.704H315.12L310.458 17.94H308.946L314.256 30H316.038ZM326.597 30.18C329.081 30.18 330.917 28.902 330.917 27.048V26.922H329.639V27.048C329.639 28.344 328.667 29.118 326.579 29.118C324.221 29.118 323.195 27.912 323.123 25.914H330.953C331.007 25.68 331.043 25.41 331.043 25.086C331.043 22.44 329.189 20.928 326.579 20.928C323.717 20.928 321.917 22.854 321.917 25.554C321.917 28.38 323.735 30.18 326.597 30.18ZM326.561 21.99C328.649 21.99 329.837 22.98 329.837 24.852C329.837 24.942 329.837 25.032 329.837 25.122H323.123C323.213 23.178 324.257 21.99 326.561 21.99ZM334.016 30V25.176C334.016 23.178 334.808 22.044 336.608 22.044C338.156 22.044 338.786 22.782 338.786 24.294V24.978H340.064V24.096C340.064 22.44 339.164 20.928 337.112 20.928C335.258 20.928 334.25 22.116 333.98 23.538H333.89V21.108H332.738V30H334.016ZM346.128 30V25.698C346.128 23.34 346.974 22.098 349.134 22.098C351.006 22.098 351.834 23.016 351.834 24.996V30H353.112V25.698C353.112 23.34 353.976 22.098 356.118 22.098C357.99 22.098 358.836 23.016 358.836 24.996V30H360.114V24.816C360.114 22.566 358.908 20.928 356.586 20.928C354.354 20.928 353.292 22.35 353.04 23.88H352.95C352.662 22.152 351.546 20.928 349.566 20.928C347.352 20.928 346.326 22.296 346.074 23.79H346.002V21.108H344.85V30H346.128ZM366.843 19.92L369.525 17.58H367.779L365.529 19.92H366.843ZM364.665 30.18C366.735 30.18 368.301 29.244 368.823 27.606H368.913V30H370.065V24.438C370.065 22.476 368.913 20.928 366.213 20.928C363.477 20.928 361.929 22.458 361.929 24.33V24.402H363.207V24.33C363.207 22.764 364.215 22.08 366.123 22.08C368.067 22.08 368.823 22.764 368.823 24.492V25.176L364.593 25.644C362.937 25.824 361.731 26.454 361.731 27.912C361.731 29.352 362.919 30.18 364.665 30.18ZM363.009 27.822C363.009 26.904 363.657 26.58 364.989 26.454L368.823 26.022V26.094C368.823 28.236 367.113 29.19 364.953 29.19C363.603 29.19 363.009 28.722 363.009 27.822ZM376.072 30.18C378.376 30.18 380.032 29.298 380.032 27.624C380.032 26.184 379.006 25.536 377.098 25.266L374.92 24.96C373.444 24.744 372.976 24.42 372.976 23.502C372.976 22.44 373.75 21.99 375.622 21.99C377.89 21.99 378.592 22.71 378.592 24.042V24.132H379.87V24.096C379.87 22.008 378.214 20.928 375.658 20.928C373.21 20.928 371.716 21.918 371.716 23.484C371.716 24.96 372.742 25.59 374.362 25.806L376.738 26.148C378.214 26.382 378.772 26.688 378.772 27.624C378.772 28.65 378.088 29.118 376.09 29.118C373.912 29.118 373.03 28.596 373.03 27.102V26.994H371.752V27.03C371.752 29.082 373.336 30.18 376.072 30.18Z" fill="#4D546A"/>
<path fill-rule="evenodd" clip-rule="evenodd" d="M398.621 22.9088C399.554 23.3366 399.554 24.6625 398.621 25.0904L388.183 29.877C388.018 29.9529 387.824 29.9327 387.678 29.8243V29.8243C387.373 29.5983 387.422 29.128 387.767 28.9698L396.225 25.0904C397.158 24.6624 397.158 23.3367 396.225 22.9088L387.767 19.0302C387.422 18.872 387.373 18.4017 387.678 18.1757V18.1757C387.824 18.0673 388.018 18.0471 388.183 18.123L398.621 22.9088Z" fill="#4D546A"/>
<g clip-path="url(#clip0_674_3797)">
<path d="M385 66.7041L388.096 62.9203C388.096 62.9203 393.398 63.0328 398.682 65.4891C397.329 67.5347 394.644 68.5359 394.644 68.5359C394.463 66.7387 393.204 66.3 389.2 66.3L385.001 90.0009L380.773 66.2953C376.798 66.2953 375.539 66.735 375.358 68.5313C375.358 68.5313 372.672 67.5403 371.32 65.4938C376.603 63.0375 381.906 62.925 381.906 62.925L385.002 66.7041H384.997H385ZM385 61.8309C389.268 61.7916 394.156 62.49 399.16 64.6772C399.829 63.4659 400 62.9344 400 62.9344C394.532 60.7659 389.409 60.0197 385 60C380.591 60.0197 375.468 60.7622 370 62.9344C370 62.9344 370.244 63.5934 370.84 64.6828C375.845 62.4853 380.732 61.7925 385 61.8262V61.8309Z" fill="#121419"/>
</g>
<line x1="11" y1="95.75" x2="400" y2="95.75" stroke="#D6D9E1" stroke-width="0.5"/>
<defs>
<clipPath id="clip0_674_3797">
<rect width="30" height="30" fill="white" transform="translate(370 60)"/>
</clipPath>
</defs>
</svg>
