<svg width="426" height="84" viewBox="0 0 426 84" fill="none" xmlns="http://www.w3.org/2000/svg">
<g clip-path="url(#clip0_663_3763)">
<rect width="426" height="84" fill="#FCFBF7"/>
<path d="M318 34C318 32.3431 319.343 31 321 31H403C404.657 31 406 32.3431 406 34V46C406 47.6569 404.657 49 403 49H321C319.343 49 318 47.6569 318 46V34Z" fill="#E73A02"/>
<path d="M344.677 44L345.445 41.84H349.093L349.873 44H351.109L347.929 35.324H346.621L343.453 44H344.677ZM347.125 37.196C347.185 37.016 347.245 36.812 347.269 36.692C347.293 36.824 347.353 37.028 347.413 37.196L348.745 40.82H345.805L347.125 37.196ZM351.463 41.072C351.463 42.92 352.603 44.144 354.331 44.144C355.747 44.144 356.839 43.292 357.067 42.02H355.939C355.735 42.716 355.135 43.136 354.331 43.136C353.263 43.136 352.579 42.32 352.579 41.06C352.579 39.788 353.311 38.972 354.379 38.972C355.135 38.972 355.735 39.368 355.927 40.112H357.055C356.851 38.804 355.819 37.964 354.343 37.964C352.627 37.964 351.463 39.236 351.463 41.072ZM359.913 44V39.08H361.065V38.132H359.913V36.296H358.785V38.132H357.633V39.08H358.785V44H359.913ZM362.63 36.74C363.038 36.74 363.374 36.404 363.374 35.996C363.374 35.576 363.038 35.252 362.63 35.252C362.222 35.252 361.886 35.576 361.886 35.996C361.886 36.404 362.222 36.74 362.63 36.74ZM362.078 44H363.206V38.132H362.078V44ZM366.487 44H367.603L370.051 38.132H368.875L367.567 41.408C367.363 41.924 367.171 42.428 367.075 42.812C366.979 42.452 366.811 41.96 366.607 41.408L365.323 38.132H364.123L366.487 44ZM372.395 44.144C373.343 44.144 374.147 43.724 374.447 43.052L374.567 44H375.527V40.316C375.527 38.732 374.543 37.964 373.091 37.964C371.579 37.964 370.571 38.768 370.571 39.992H371.555C371.555 39.284 372.095 38.864 373.043 38.864C373.835 38.864 374.423 39.212 374.423 40.196V40.364L372.575 40.508C371.195 40.616 370.391 41.288 370.391 42.368C370.391 43.436 371.135 44.144 372.395 44.144ZM372.719 43.268C371.987 43.268 371.531 42.956 371.531 42.332C371.531 41.756 371.939 41.372 372.935 41.276L374.435 41.156V41.468C374.435 42.572 373.787 43.268 372.719 43.268ZM380.449 38.084C380.221 38.036 380.053 38.012 379.849 38.012C379.045 38.012 378.457 38.42 378.217 39.032L378.145 38.144H377.089V44H378.217V40.892C378.217 39.764 378.877 39.116 379.945 39.116H380.449V38.084Z" fill="#FCFBF7"/>
<path d="M19.5 41.9062C19.5 47.6094 20.9441 51.5446 23.6903 54.0418C26.4269 56.5303 30.3587 57.5 35.1314 57.5C39.9039 57.5 43.7736 56.5304 46.4459 54.0375C49.125 51.5381 50.5 47.6029 50.5 41.9063C50.5 36.2577 49.1478 32.3661 46.4535 29.9007C43.7685 27.4438 39.8538 26.5 34.9534 26.5C30.0531 26.5 26.1604 27.4437 23.4982 29.9022C20.8277 32.3684 19.5 36.26 19.5 41.9062Z" fill="#B8BDCB" stroke="#F9F5EC"/>
<mask id="path-4-inside-1_663_3763" fill="white">
<path d="M38.857 49.0713C38.857 49.0713 37.3989 49.0713 34.9054 49.0713C32.4119 49.0713 30.9285 49.0713 30.9285 49.0713C30.9285 51.7978 32.3407 52.7141 34.9054 52.7141C37.4701 52.7141 38.857 51.7945 38.857 49.0713Z"/>
</mask>
<path d="M38.857 49.0713H47.857V40.0712L38.8569 40.0713L38.857 49.0713ZM30.9285 49.0713L30.9286 40.0713L21.9285 40.0712V49.0713H30.9285ZM38.857 49.0713C38.8569 40.0713 38.8569 40.0713 38.8569 40.0713C38.8569 40.0713 38.8569 40.0713 38.8569 40.0713C38.8568 40.0713 38.8568 40.0713 38.8567 40.0713C38.8565 40.0713 38.8562 40.0713 38.8559 40.0713C38.8552 40.0713 38.8541 40.0713 38.8527 40.0713C38.8498 40.0713 38.8456 40.0713 38.84 40.0713C38.8287 40.0713 38.8118 40.0713 38.7894 40.0713C38.7447 40.0713 38.678 40.0713 38.5902 40.0713C38.4145 40.0713 38.1543 40.0713 37.8162 40.0713C37.14 40.0713 36.1521 40.0713 34.9054 40.0713V58.0713C36.1522 58.0713 37.1401 58.0713 37.8163 58.0713C38.1544 58.0713 38.4146 58.0713 38.5903 58.0713C38.6782 58.0713 38.7449 58.0713 38.7896 58.0713C38.812 58.0713 38.8289 58.0713 38.8401 58.0713C38.8458 58.0713 38.85 58.0713 38.8529 58.0713C38.8543 58.0713 38.8554 58.0713 38.8561 58.0713C38.8564 58.0713 38.8567 58.0713 38.8569 58.0713C38.857 58.0713 38.857 58.0713 38.8571 58.0713C38.8571 58.0713 38.8571 58.0713 38.8571 58.0713C38.8571 58.0713 38.8571 58.0713 38.857 49.0713ZM34.9054 40.0713C33.6587 40.0713 32.6645 40.0713 31.9819 40.0713C31.6407 40.0713 31.3773 40.0713 31.1993 40.0713C31.1103 40.0713 31.0426 40.0713 30.9972 40.0713C30.9745 40.0713 30.9573 40.0713 30.9458 40.0713C30.9401 40.0713 30.9358 40.0713 30.9329 40.0713C30.9315 40.0713 30.9304 40.0713 30.9296 40.0713C30.9293 40.0713 30.929 40.0713 30.9288 40.0713C30.9287 40.0713 30.9287 40.0713 30.9286 40.0713C30.9286 40.0713 30.9286 40.0713 30.9286 40.0713C30.9286 40.0713 30.9286 40.0713 30.9285 49.0713C30.9284 58.0713 30.9284 58.0713 30.9284 58.0713C30.9284 58.0713 30.9284 58.0713 30.9284 58.0713C30.9285 58.0713 30.9286 58.0713 30.9286 58.0713C30.9288 58.0713 30.9291 58.0713 30.9295 58.0713C30.9302 58.0713 30.9313 58.0713 30.9327 58.0713C30.9356 58.0713 30.9399 58.0713 30.9456 58.0713C30.9571 58.0713 30.9743 58.0713 30.997 58.0713C31.0424 58.0713 31.1101 58.0713 31.1991 58.0713C31.3772 58.0713 31.6405 58.0713 31.9818 58.0713C32.6644 58.0713 33.6586 58.0713 34.9054 58.0713V40.0713ZM21.9285 49.0713C21.9285 51.9005 22.692 55.8673 26.1423 58.7862C29.2543 61.4189 32.8822 61.7141 34.9054 61.7141V43.7141C34.3638 43.7141 36.0033 43.5512 37.768 45.0441C39.871 46.8233 39.9285 48.9686 39.9285 49.0713H21.9285ZM34.9054 61.7141C36.9307 61.7141 40.5755 61.4176 43.6902 58.7557C47.1241 55.821 47.857 51.8552 47.857 49.0713H29.857C29.857 49.0106 29.8965 46.8662 31.9958 45.0721C33.7758 43.5508 35.4448 43.7141 34.9054 43.7141V61.7141Z" fill="#FCFBF7" mask="url(#path-4-inside-1_663_3763)"/>
<path d="M26.8031 41.3571V37.0829C26.8185 34.6781 29.0016 32.3747 32.4524 31.6075C33.1507 31.4522 33.724 30.8832 33.8339 30.1426H35.7371C35.847 30.8832 36.4203 31.4523 37.1186 31.6075C40.5696 32.3747 42.7528 34.678 42.7683 37.0828V41.3571C42.7683 42.7108 43.4529 43.9725 44.5877 44.7105L47.7786 46.7854H21.7928L24.9837 44.7105C26.1185 43.9725 26.8031 42.7107 26.8031 41.3571Z" stroke="#FCFBF7" stroke-width="2"/>
<path d="M67.305 28L68.355 25.15H73.305L74.355 28H75.48L71.49 17.26H70.155L66.21 28H67.305ZM70.68 18.775C70.74 18.625 70.8 18.43 70.815 18.34C70.83 18.445 70.905 18.625 70.95 18.775L72.96 24.205H68.685L70.68 18.775ZM75.9889 24.385C75.9889 26.665 77.3839 28.18 79.4389 28.18C81.0889 28.18 82.3789 27.205 82.7239 25.72H81.6739C81.3889 26.65 80.5189 27.25 79.4389 27.25C77.9689 27.25 77.0089 26.095 77.0089 24.37C77.0089 22.585 78.0439 21.46 79.5139 21.46C80.5189 21.46 81.3889 22.015 81.6589 23.02H82.6939C82.4089 21.52 81.1789 20.545 79.4989 20.545C77.3839 20.545 75.9889 22.105 75.9889 24.385ZM85.9569 28V21.61H87.4119V20.74H85.9569V18.445H84.9369V20.74H83.4819V21.61H84.9369V28H85.9569ZM89.2697 18.745C89.6897 18.745 90.0497 18.4 90.0497 17.98C90.0497 17.56 89.6897 17.2 89.2697 17.2C88.8497 17.2 88.5047 17.56 88.5047 17.98C88.5047 18.4 88.8497 18.745 89.2697 18.745ZM88.7597 28H89.7947V20.74H88.7597V28ZM93.978 28H95.013L98.028 20.74H96.963L95.058 25.42C94.848 25.945 94.653 26.425 94.518 26.92C94.383 26.44 94.188 25.945 93.993 25.42L92.118 20.74H91.008L93.978 28ZM101.011 28.18C102.241 28.18 103.231 27.64 103.681 26.725L103.816 28H104.686V23.305C104.686 21.385 103.456 20.545 101.776 20.545C99.9907 20.545 98.7907 21.49 98.7907 22.96H99.7357C99.7357 21.985 100.486 21.415 101.746 21.415C102.811 21.415 103.666 21.865 103.666 23.29V23.53L101.266 23.725C99.5707 23.86 98.5507 24.7 98.5507 26.035C98.5507 27.31 99.4657 28.18 101.011 28.18ZM101.251 27.34C100.261 27.34 99.6007 26.89 99.6007 26.005C99.6007 25.195 100.156 24.595 101.521 24.475L103.666 24.31V24.7C103.666 26.275 102.781 27.34 101.251 27.34ZM112.003 28V17.065H110.968V28H112.003ZM116.289 28.18C117.519 28.18 118.509 27.64 118.959 26.725L119.094 28H119.964V23.305C119.964 21.385 118.734 20.545 117.054 20.545C115.269 20.545 114.069 21.49 114.069 22.96H115.014C115.014 21.985 115.764 21.415 117.024 21.415C118.089 21.415 118.944 21.865 118.944 23.29V23.53L116.544 23.725C114.849 23.86 113.829 24.7 113.829 26.035C113.829 27.31 114.744 28.18 116.289 28.18ZM116.529 27.34C115.539 27.34 114.879 26.89 114.879 26.005C114.879 25.195 115.434 24.595 116.799 24.475L118.944 24.31V24.7C118.944 26.275 118.059 27.34 116.529 27.34ZM121.426 25.96C121.426 27.31 122.446 28.18 124.081 28.18C125.731 28.18 126.841 27.325 126.841 26.02C126.841 24.97 126.271 24.385 125.011 24.07L123.766 23.755C122.971 23.56 122.581 23.17 122.581 22.615C122.581 21.835 123.151 21.4 124.171 21.4C125.146 21.4 125.731 21.895 125.761 22.735H126.766C126.721 21.385 125.731 20.545 124.201 20.545C122.641 20.545 121.576 21.355 121.576 22.63C121.576 23.62 122.191 24.28 123.451 24.595L124.696 24.91C125.551 25.12 125.851 25.465 125.851 26.065C125.851 26.845 125.191 27.325 124.066 27.325C123.046 27.325 122.416 26.8 122.416 25.96H121.426ZM133.74 28V24.205C133.74 22.57 134.58 21.49 136.065 21.49C137.265 21.49 138.03 22.09 138.03 23.785V28H139.065V23.56C139.065 21.73 138.24 20.545 136.245 20.545C135.195 20.545 134.235 21.07 133.755 22L133.605 20.74H132.705V28H133.74ZM140.618 24.37C140.618 26.575 142.178 28.18 144.308 28.18C146.438 28.18 147.998 26.575 147.998 24.37C147.998 22.15 146.438 20.545 144.308 20.545C142.178 20.545 140.618 22.15 140.618 24.37ZM141.668 24.355C141.668 22.675 142.748 21.475 144.308 21.475C145.853 21.475 146.948 22.675 146.948 24.355C146.948 26.065 145.853 27.25 144.308 27.25C142.748 27.25 141.668 26.065 141.668 24.355ZM151.245 28V21.61H152.7V20.74H151.245V18.445H150.225V20.74H148.77V21.61H150.225V28H151.245ZM154.558 18.745C154.978 18.745 155.338 18.4 155.338 17.98C155.338 17.56 154.978 17.2 154.558 17.2C154.138 17.2 153.793 17.56 153.793 17.98C153.793 18.4 154.138 18.745 154.558 18.745ZM154.048 28H155.083V20.74H154.048V28ZM162.026 28H163.061V20.74H158.576V19.33C158.576 18.475 158.816 18.025 159.686 18.025H160.316V17.125C160.076 17.08 159.761 17.065 159.506 17.065C158.426 17.065 157.541 17.695 157.541 19.33V20.74H156.431V21.61H157.541V28H158.576V21.61H162.026V28ZM162.536 18.67C162.941 18.67 163.256 18.37 163.256 17.95C163.256 17.53 162.941 17.215 162.536 17.215C162.116 17.215 161.816 17.53 161.816 17.95C161.816 18.37 162.116 18.67 162.536 18.67ZM164.671 24.385C164.671 26.665 166.066 28.18 168.121 28.18C169.771 28.18 171.061 27.205 171.406 25.72H170.356C170.071 26.65 169.201 27.25 168.121 27.25C166.651 27.25 165.691 26.095 165.691 24.37C165.691 22.585 166.726 21.46 168.196 21.46C169.201 21.46 170.071 22.015 170.341 23.02H171.376C171.091 21.52 169.861 20.545 168.181 20.545C166.066 20.545 164.671 22.105 164.671 24.385ZM175.059 28.18C176.289 28.18 177.279 27.64 177.729 26.725L177.864 28H178.734V23.305C178.734 21.385 177.504 20.545 175.824 20.545C174.039 20.545 172.839 21.49 172.839 22.96H173.784C173.784 21.985 174.534 21.415 175.794 21.415C176.859 21.415 177.714 21.865 177.714 23.29V23.53L175.314 23.725C173.619 23.86 172.599 24.7 172.599 26.035C172.599 27.31 173.514 28.18 175.059 28.18ZM175.299 27.34C174.309 27.34 173.649 26.89 173.649 26.005C173.649 25.195 174.204 24.595 175.569 24.475L177.714 24.31V24.7C177.714 26.275 176.829 27.34 175.299 27.34ZM180.3 24.385C180.3 26.665 181.695 28.18 183.75 28.18C185.4 28.18 186.69 27.205 187.035 25.72H185.985C185.7 26.65 184.83 27.25 183.75 27.25C182.28 27.25 181.32 26.095 181.32 24.37C181.32 22.585 182.355 21.46 183.825 21.46C184.83 21.46 185.7 22.015 185.97 23.02H187.005C186.72 21.52 185.49 20.545 183.81 20.545C181.695 20.545 180.3 22.105 180.3 24.385ZM189.113 18.745C189.533 18.745 189.893 18.4 189.893 17.98C189.893 17.56 189.533 17.2 189.113 17.2C188.693 17.2 188.348 17.56 188.348 17.98C188.348 18.4 188.693 18.745 189.113 18.745ZM188.603 28H189.638V20.74H188.603V28ZM191.287 24.37C191.287 26.575 192.847 28.18 194.977 28.18C197.107 28.18 198.667 26.575 198.667 24.37C198.667 22.15 197.107 20.545 194.977 20.545C192.847 20.545 191.287 22.15 191.287 24.37ZM192.337 24.355C192.337 22.675 193.417 21.475 194.977 21.475C196.522 21.475 197.617 22.675 197.617 24.355C197.617 26.065 196.522 27.25 194.977 27.25C193.417 27.25 192.337 26.065 192.337 24.355ZM201.357 28V24.205C201.357 22.57 202.197 21.49 203.682 21.49C204.882 21.49 205.647 22.09 205.647 23.785V28H206.682V23.56C206.682 21.73 205.857 20.545 203.862 20.545C202.812 20.545 201.852 21.07 201.372 22L201.222 20.74H200.322V28H201.357ZM211.79 28.18C213.5 28.18 214.625 27.355 215.015 25.825H214.025C213.755 26.785 212.99 27.295 211.805 27.295C210.245 27.295 209.315 26.275 209.24 24.505H215.015V23.995C215.015 21.94 213.68 20.545 211.715 20.545C209.645 20.545 208.235 22.105 208.235 24.37C208.235 26.65 209.66 28.18 211.79 28.18ZM211.715 21.43C213.08 21.43 213.98 22.36 213.98 23.755H209.27C209.45 22.33 210.35 21.43 211.715 21.43ZM216.055 25.96C216.055 27.31 217.075 28.18 218.71 28.18C220.36 28.18 221.47 27.325 221.47 26.02C221.47 24.97 220.9 24.385 219.64 24.07L218.395 23.755C217.6 23.56 217.21 23.17 217.21 22.615C217.21 21.835 217.78 21.4 218.8 21.4C219.775 21.4 220.36 21.895 220.39 22.735H221.395C221.35 21.385 220.36 20.545 218.83 20.545C217.27 20.545 216.205 21.355 216.205 22.63C216.205 23.62 216.82 24.28 218.08 24.595L219.325 24.91C220.18 25.12 220.48 25.465 220.48 26.065C220.48 26.845 219.82 27.325 218.695 27.325C217.675 27.325 217.045 26.8 217.045 25.96H216.055ZM230.184 28.18C231.399 28.18 232.419 27.64 232.929 26.515L233.034 28H233.934V17.065H232.899V22.12C232.389 21.07 231.429 20.545 230.229 20.545C228.069 20.545 226.824 22.195 226.824 24.385C226.824 26.56 228.069 28.18 230.184 28.18ZM230.364 27.235C228.789 27.235 227.874 26.035 227.874 24.355C227.874 22.69 228.789 21.475 230.364 21.475C231.954 21.475 232.884 22.69 232.884 24.355C232.884 26.035 231.954 27.235 230.364 27.235ZM239.139 28.18C240.849 28.18 241.974 27.355 242.364 25.825H241.374C241.104 26.785 240.339 27.295 239.154 27.295C237.594 27.295 236.664 26.275 236.589 24.505H242.364V23.995C242.364 21.94 241.029 20.545 239.064 20.545C236.994 20.545 235.584 22.105 235.584 24.37C235.584 26.65 237.009 28.18 239.139 28.18ZM239.064 21.43C240.429 21.43 241.329 22.36 241.329 23.755H236.619C236.799 22.33 237.699 21.43 239.064 21.43ZM245.098 28V17.065H244.063V28H245.098ZM68.16 48V37.065H67.125V48H68.16ZM72.4463 48.18C73.6763 48.18 74.6663 47.64 75.1163 46.725L75.2513 48H76.1213V43.305C76.1213 41.385 74.8913 40.545 73.2113 40.545C71.4263 40.545 70.2263 41.49 70.2263 42.96H71.1713C71.1713 41.985 71.9213 41.415 73.1813 41.415C74.2463 41.415 75.1013 41.865 75.1013 43.29V43.53L72.7013 43.725C71.0063 43.86 69.9863 44.7 69.9863 46.035C69.9863 47.31 70.9013 48.18 72.4463 48.18ZM72.6863 47.34C71.6963 47.34 71.0363 46.89 71.0363 46.005C71.0363 45.195 71.5913 44.595 72.9563 44.475L75.1013 44.31V44.7C75.1013 46.275 74.2163 47.34 72.6863 47.34ZM79.2332 48V44.205C79.2332 42.57 80.0732 41.49 81.5582 41.49C82.7582 41.49 83.5232 42.09 83.5232 43.785V48H84.5582V43.56C84.5582 41.73 83.7332 40.545 81.7382 40.545C80.6882 40.545 79.7282 41.07 79.2482 42L79.0982 40.74H78.1982V48H79.2332ZM91.601 48V47.13H87.386L91.601 41.58V40.74H86.126V41.61H90.326L86.126 47.175V48H91.601ZM95.3564 48.18C96.5864 48.18 97.5764 47.64 98.0264 46.725L98.1614 48H99.0314V43.305C99.0314 41.385 97.8014 40.545 96.1214 40.545C94.3364 40.545 93.1364 41.49 93.1364 42.96H94.0814C94.0814 41.985 94.8314 41.415 96.0914 41.415C97.1564 41.415 98.0114 41.865 98.0114 43.29V43.53L95.6114 43.725C93.9164 43.86 92.8964 44.7 92.8964 46.035C92.8964 47.31 93.8114 48.18 95.3564 48.18ZM95.5964 47.34C94.6064 47.34 93.9464 46.89 93.9464 46.005C93.9464 45.195 94.5014 44.595 95.8664 44.475L98.0114 44.31V44.7C98.0114 46.275 97.1264 47.34 95.5964 47.34ZM102.143 48V43.5C102.143 42.39 102.878 41.49 104.093 41.49C105.188 41.49 105.893 42.21 105.893 43.44V48H106.913V43.515C106.913 42.39 107.633 41.475 108.848 41.475C109.958 41.475 110.648 42.21 110.648 43.455V48H111.653V43.245C111.653 41.565 110.618 40.545 109.043 40.545C107.873 40.545 106.988 41.145 106.658 42.09C106.313 41.145 105.458 40.545 104.318 40.545C103.298 40.545 102.488 41.01 102.128 41.775L102.008 40.74H101.108V48H102.143ZM114.245 38.745C114.665 38.745 115.025 38.4 115.025 37.98C115.025 37.56 114.665 37.2 114.245 37.2C113.825 37.2 113.48 37.56 113.48 37.98C113.48 38.4 113.825 38.745 114.245 38.745ZM113.735 48H114.77V40.74H113.735V48ZM119.974 48.18C121.684 48.18 122.809 47.355 123.199 45.825H122.209C121.939 46.785 121.174 47.295 119.989 47.295C118.429 47.295 117.499 46.275 117.424 44.505H123.199V43.995C123.199 41.94 121.864 40.545 119.899 40.545C117.829 40.545 116.419 42.105 116.419 44.37C116.419 46.65 117.844 48.18 119.974 48.18ZM119.899 41.43C121.264 41.43 122.164 42.36 122.164 43.755H117.454C117.634 42.33 118.534 41.43 119.899 41.43ZM125.888 48V44.205C125.888 42.57 126.728 41.49 128.213 41.49C129.413 41.49 130.178 42.09 130.178 43.785V48H131.213V43.56C131.213 41.73 130.388 40.545 128.393 40.545C127.343 40.545 126.383 41.07 125.903 42L125.753 40.74H124.853V48H125.888ZM134.941 48V41.61H136.396V40.74H134.941V38.445H133.921V40.74H132.466V41.61H133.921V48H134.941ZM137.161 44.37C137.161 46.575 138.721 48.18 140.851 48.18C142.981 48.18 144.541 46.575 144.541 44.37C144.541 42.15 142.981 40.545 140.851 40.545C138.721 40.545 137.161 42.15 137.161 44.37ZM138.211 44.355C138.211 42.675 139.291 41.475 140.851 41.475C142.396 41.475 143.491 42.675 143.491 44.355C143.491 46.065 142.396 47.25 140.851 47.25C139.291 47.25 138.211 46.065 138.211 44.355ZM153.206 48.18C154.421 48.18 155.441 47.64 155.951 46.515L156.056 48H156.956V37.065H155.921V42.12C155.411 41.07 154.451 40.545 153.251 40.545C151.091 40.545 149.846 42.195 149.846 44.385C149.846 46.56 151.091 48.18 153.206 48.18ZM153.386 47.235C151.811 47.235 150.896 46.035 150.896 44.355C150.896 42.69 151.811 41.475 153.386 41.475C154.976 41.475 155.906 42.69 155.906 44.355C155.906 46.035 154.976 47.235 153.386 47.235ZM162.161 48.18C163.871 48.18 164.996 47.355 165.386 45.825H164.396C164.126 46.785 163.361 47.295 162.176 47.295C160.616 47.295 159.686 46.275 159.611 44.505H165.386V43.995C165.386 41.94 164.051 40.545 162.086 40.545C160.016 40.545 158.606 42.105 158.606 44.37C158.606 46.65 160.031 48.18 162.161 48.18ZM162.086 41.43C163.451 41.43 164.351 42.36 164.351 43.755H159.641C159.821 42.33 160.721 41.43 162.086 41.43ZM172.851 48V39.615L178.401 48H179.871V37.155H178.401V45.54L172.851 37.155H171.381V48H172.851ZM183.867 48V43.71H186.642L188.667 48H190.302L188.097 43.425C189.447 42.99 190.197 41.91 190.197 40.41C190.197 38.385 188.817 37.155 186.492 37.155H182.397V48H183.867ZM183.867 38.475H186.492C187.842 38.475 188.652 39.165 188.652 40.425C188.652 41.67 187.872 42.405 186.507 42.405H183.867V38.475ZM201.947 42.57C201.947 39.27 199.802 36.96 196.727 36.96C193.667 36.96 191.522 39.285 191.522 42.57C191.522 45.87 193.652 48.18 196.712 48.18C199.787 48.18 201.947 45.87 201.947 42.57ZM200.402 42.57C200.402 45.075 198.932 46.77 196.727 46.77C194.522 46.77 193.067 45.09 193.067 42.57C193.067 40.05 194.522 38.385 196.727 38.385C198.932 38.385 200.402 40.05 200.402 42.57ZM205.297 37.155H203.827V48H210.067V46.635H205.297V37.155ZM210.148 44.655H214.723V43.395H210.148V44.655ZM216.309 44.985C216.309 46.905 217.884 48.18 220.299 48.18C222.699 48.18 224.289 46.905 224.289 45C224.289 43.665 223.509 42.585 222.294 42.195C223.314 41.79 223.884 40.935 223.884 39.825C223.884 38.115 222.444 36.96 220.314 36.96C218.154 36.96 216.699 38.115 216.699 39.81C216.699 40.905 217.254 41.76 218.274 42.195C217.074 42.63 216.309 43.68 216.309 44.985ZM218.049 39.9C218.049 38.895 218.934 38.235 220.284 38.235C221.649 38.235 222.504 38.895 222.504 39.93C222.504 40.98 221.649 41.655 220.284 41.655C218.934 41.655 218.049 40.965 218.049 39.9ZM217.749 44.88C217.749 43.68 218.739 42.915 220.284 42.915C221.844 42.915 222.834 43.68 222.834 44.88C222.834 46.095 221.829 46.875 220.299 46.875C218.754 46.875 217.749 46.095 217.749 44.88ZM224.953 37.155V38.505H231.043L226.888 48H228.418L232.528 38.505V37.155H224.953ZM239.428 48V43.365C239.428 41.85 239.398 40.74 239.323 40.215L242.473 48H243.853L247.018 40.185C246.943 40.95 246.928 41.685 246.928 43.71V48H248.368V37.155H246.898L243.163 46.275L239.428 37.155H237.988V48H239.428ZM252.363 37.155H250.893V48H252.363V37.155ZM254.262 40.08C254.262 41.64 255.177 42.66 256.947 43.065L258.732 43.47C259.767 43.71 260.232 44.25 260.232 45.105C260.232 46.185 259.317 46.86 257.877 46.86C256.512 46.86 255.642 46.2 255.612 45.165H254.112C254.202 47.025 255.672 48.18 257.877 48.18C260.187 48.18 261.702 46.935 261.702 44.985C261.702 43.455 260.802 42.495 259.032 42.09L257.247 41.67C256.227 41.43 255.732 40.905 255.732 40.035C255.732 38.97 256.617 38.28 257.982 38.28C259.197 38.28 259.962 38.91 260.037 39.99H261.522C261.402 38.115 260.067 36.96 257.997 36.96C255.762 36.96 254.262 38.22 254.262 40.08ZM262.978 40.08C262.978 41.64 263.893 42.66 265.663 43.065L267.448 43.47C268.483 43.71 268.948 44.25 268.948 45.105C268.948 46.185 268.033 46.86 266.593 46.86C265.228 46.86 264.358 46.2 264.328 45.165H262.828C262.918 47.025 264.388 48.18 266.593 48.18C268.903 48.18 270.418 46.935 270.418 44.985C270.418 43.455 269.518 42.495 267.748 42.09L265.963 41.67C264.943 41.43 264.448 40.905 264.448 40.035C264.448 38.97 265.333 38.28 266.698 38.28C267.913 38.28 268.678 38.91 268.753 39.99H270.238C270.118 38.115 268.783 36.96 266.713 36.96C264.478 36.96 262.978 38.22 262.978 40.08ZM273.735 37.155H272.265V48H273.735V37.155ZM286.044 42.57C286.044 39.27 283.899 36.96 280.824 36.96C277.764 36.96 275.619 39.285 275.619 42.57C275.619 45.87 277.749 48.18 280.809 48.18C283.884 48.18 286.044 45.87 286.044 42.57ZM284.499 42.57C284.499 45.075 283.029 46.77 280.824 46.77C278.619 46.77 277.164 45.09 277.164 42.57C277.164 40.05 278.619 38.385 280.824 38.385C283.029 38.385 284.499 40.05 284.499 42.57ZM289.394 48V39.615L294.944 48H296.414V37.155H294.944V45.54L289.394 37.155H287.924V48H289.394ZM299.645 48.165C300.155 48.165 300.59 47.745 300.59 47.25C300.59 46.74 300.155 46.305 299.645 46.305C299.135 46.305 298.7 46.74 298.7 47.25C298.7 47.745 299.135 48.165 299.645 48.165Z" fill="#121419"/>
<path d="M68.715 58.235V68H69.75V57.26H66.525V58.235H68.715ZM78.7648 68V66.995H73.3498L75.8548 64.805C77.9998 62.93 78.7048 61.895 78.7048 60.335C78.7048 58.37 77.3548 57.065 75.3298 57.065C73.2148 57.065 71.7898 58.55 71.7298 60.8H72.8098C72.8548 59.135 73.8298 58.055 75.3148 58.055C76.7398 58.055 77.6098 58.94 77.6098 60.395C77.6098 61.67 77.0998 62.42 75.1198 64.145L71.6848 67.145V68H78.7648ZM81.5476 68V63.5C81.5476 62.39 82.2826 61.49 83.4976 61.49C84.5926 61.49 85.2976 62.21 85.2976 63.44V68H86.3176V63.515C86.3176 62.39 87.0376 61.475 88.2526 61.475C89.3626 61.475 90.0526 62.21 90.0526 63.455V68H91.0576V63.245C91.0576 61.565 90.0226 60.545 88.4476 60.545C87.2776 60.545 86.3926 61.145 86.0626 62.09C85.7176 61.145 84.8626 60.545 83.7226 60.545C82.7026 60.545 81.8926 61.01 81.5326 61.775L81.4126 60.74H80.5126V68H81.5476ZM93.6496 58.745C94.0696 58.745 94.4296 58.4 94.4296 57.98C94.4296 57.56 94.0696 57.2 93.6496 57.2C93.2296 57.2 92.8846 57.56 92.8846 57.98C92.8846 58.4 93.2296 58.745 93.6496 58.745ZM93.1396 68H94.1746V60.74H93.1396V68ZM97.3679 68V64.205C97.3679 62.57 98.2079 61.49 99.6929 61.49C100.893 61.49 101.658 62.09 101.658 63.785V68H102.693V63.56C102.693 61.73 101.868 60.545 99.8729 60.545C98.8229 60.545 97.8629 61.07 97.3829 62L97.2329 60.74H96.3329V68H97.3679Z" fill="#636D87"/>
</g>
<defs>
<clipPath id="clip0_663_3763">
<rect width="426" height="84" fill="white"/>
</clipPath>
</defs>
</svg>
