<svg width="414" height="120" viewBox="0 0 414 120" fill="none" xmlns="http://www.w3.org/2000/svg">
<rect width="414" height="120" fill="#FCFBF7"/>
<line x1="12" y1="40.5" x2="402" y2="40.5" stroke="#B8BDCB"/>
<path d="M14.844 29V21.926L14.772 19.838H14.916L16.428 21.962L21.864 29H23.952V16.94H22.008V24.068L22.098 26.246H21.954L20.388 23.996L14.988 16.94H12.9V29H14.844ZM27.6936 19.01V16.94H25.7496V19.01H27.6936ZM27.6936 29V20.054H25.7496V29H27.6936ZM31.4378 29V25.346H33.9938L36.6398 29H38.9258L35.5778 24.356L38.9438 20.054H36.6758L33.9938 23.6H31.4378V16.94H29.4938V29H31.4378ZM44.472 29.18C47.46 29.18 49.458 27.29 49.458 24.536C49.458 21.746 47.46 19.874 44.472 19.874C41.502 19.874 39.504 21.746 39.504 24.536C39.504 27.29 41.502 29.18 44.472 29.18ZM44.472 27.452C42.312 27.452 41.412 26.426 41.412 24.536C41.412 22.628 42.312 21.584 44.472 21.584C46.65 21.584 47.55 22.628 47.55 24.536C47.55 26.426 46.65 27.452 44.472 27.452ZM52.8128 29V16.94H50.8688V29H52.8128ZM57.2409 29.18C59.2749 29.18 60.6969 28.28 61.1649 26.768H61.2909V29H63.0729V23.564C63.0729 21.422 61.7949 19.874 58.9509 19.874C56.1069 19.874 54.4149 21.404 54.4149 23.438V23.51H56.3409V23.438C56.3409 22.124 57.1509 21.584 58.8069 21.584C60.5169 21.584 61.1649 22.106 61.1649 23.582V24.104L57.0969 24.536C55.3329 24.734 54.2169 25.454 54.2169 26.84C54.2169 28.316 55.3869 29.18 57.2409 29.18ZM56.1609 26.714C56.1609 26.012 56.6469 25.778 57.6549 25.652L61.1649 25.256C61.1649 27.02 59.7969 27.776 57.7629 27.776C56.6469 27.776 56.1609 27.434 56.1609 26.714ZM73.8784 29V18.686H78.6124V16.94H67.2004V18.686H71.9524V29H73.8784ZM84.2496 29.18C86.9136 29.18 88.7856 27.866 88.7856 25.958V25.796H86.8416V25.94C86.8416 27.002 86.0676 27.614 84.1956 27.614C82.1256 27.614 81.2796 26.696 81.2076 24.968H88.8036C88.8576 24.698 88.8756 24.446 88.8756 24.122C88.8756 21.404 86.9856 19.874 84.2136 19.874C81.2976 19.874 79.3896 21.746 79.3896 24.536C79.3896 27.524 81.3156 29.18 84.2496 29.18ZM84.1776 21.404C86.0856 21.404 87.0396 22.196 87.0396 23.852V23.888H81.2256C81.3336 22.286 82.1976 21.404 84.1776 21.404ZM94.5616 29.18C97.0816 29.18 98.7376 28.19 98.7376 26.516C98.7376 25.04 97.7656 24.32 95.6416 24.05L93.5716 23.762C92.2216 23.582 91.8616 23.33 91.8616 22.628C91.8616 21.782 92.4376 21.422 94.0756 21.422C96.0556 21.422 96.5956 21.98 96.5956 23.042V23.15H98.5216V23.096C98.5216 20.972 96.8656 19.874 94.1296 19.874C91.3756 19.874 89.9536 20.99 89.9536 22.556C89.9536 24.05 90.9796 24.77 92.6716 24.986L95.1196 25.31C96.3976 25.49 96.8296 25.724 96.8296 26.462C96.8296 27.254 96.3076 27.614 94.5616 27.614C92.6896 27.614 91.9876 27.236 91.9876 26.066V25.922H90.0436V25.976C90.0436 28.046 91.6816 29.18 94.5616 29.18ZM102.084 29V16.94H100.14V29H102.084ZM106.512 29.18C108.546 29.18 109.968 28.28 110.436 26.768H110.562V29H112.344V23.564C112.344 21.422 111.066 19.874 108.222 19.874C105.378 19.874 103.686 21.404 103.686 23.438V23.51H105.612V23.438C105.612 22.124 106.422 21.584 108.078 21.584C109.788 21.584 110.436 22.106 110.436 23.582V24.104L106.368 24.536C104.604 24.734 103.488 25.454 103.488 26.84C103.488 28.316 104.658 29.18 106.512 29.18ZM105.432 26.714C105.432 26.012 105.918 25.778 106.926 25.652L110.436 25.256C110.436 27.02 109.068 27.776 107.034 27.776C105.918 27.776 105.432 27.434 105.432 26.714Z" fill="#232630"/>
<rect x="16.3562" y="38" width="106" height="3" fill="#B8BDCB"/>
<rect x="12" y="38" width="106" height="3" fill="#232630"/>
<path d="M317.038 30L322.348 17.94H320.854L316.21 28.704H316.12L311.458 17.94H309.946L315.256 30H317.038ZM327.597 30.18C330.081 30.18 331.917 28.902 331.917 27.048V26.922H330.639V27.048C330.639 28.344 329.667 29.118 327.579 29.118C325.221 29.118 324.195 27.912 324.123 25.914H331.953C332.007 25.68 332.043 25.41 332.043 25.086C332.043 22.44 330.189 20.928 327.579 20.928C324.717 20.928 322.917 22.854 322.917 25.554C322.917 28.38 324.735 30.18 327.597 30.18ZM327.561 21.99C329.649 21.99 330.837 22.98 330.837 24.852C330.837 24.942 330.837 25.032 330.837 25.122H324.123C324.213 23.178 325.257 21.99 327.561 21.99ZM335.016 30V25.176C335.016 23.178 335.808 22.044 337.608 22.044C339.156 22.044 339.786 22.782 339.786 24.294V24.978H341.064V24.096C341.064 22.44 340.164 20.928 338.112 20.928C336.258 20.928 335.25 22.116 334.98 23.538H334.89V21.108H333.738V30H335.016ZM347.128 30V25.698C347.128 23.34 347.974 22.098 350.134 22.098C352.006 22.098 352.834 23.016 352.834 24.996V30H354.112V25.698C354.112 23.34 354.976 22.098 357.118 22.098C358.99 22.098 359.836 23.016 359.836 24.996V30H361.114V24.816C361.114 22.566 359.908 20.928 357.586 20.928C355.354 20.928 354.292 22.35 354.04 23.88H353.95C353.662 22.152 352.546 20.928 350.566 20.928C348.352 20.928 347.326 22.296 347.074 23.79H347.002V21.108H345.85V30H347.128ZM367.843 19.92L370.525 17.58H368.779L366.529 19.92H367.843ZM365.665 30.18C367.735 30.18 369.301 29.244 369.823 27.606H369.913V30H371.065V24.438C371.065 22.476 369.913 20.928 367.213 20.928C364.477 20.928 362.929 22.458 362.929 24.33V24.402H364.207V24.33C364.207 22.764 365.215 22.08 367.123 22.08C369.067 22.08 369.823 22.764 369.823 24.492V25.176L365.593 25.644C363.937 25.824 362.731 26.454 362.731 27.912C362.731 29.352 363.919 30.18 365.665 30.18ZM364.009 27.822C364.009 26.904 364.657 26.58 365.989 26.454L369.823 26.022V26.094C369.823 28.236 368.113 29.19 365.953 29.19C364.603 29.19 364.009 28.722 364.009 27.822ZM377.072 30.18C379.376 30.18 381.032 29.298 381.032 27.624C381.032 26.184 380.006 25.536 378.098 25.266L375.92 24.96C374.444 24.744 373.976 24.42 373.976 23.502C373.976 22.44 374.75 21.99 376.622 21.99C378.89 21.99 379.592 22.71 379.592 24.042V24.132H380.87V24.096C380.87 22.008 379.214 20.928 376.658 20.928C374.21 20.928 372.716 21.918 372.716 23.484C372.716 24.96 373.742 25.59 375.362 25.806L377.738 26.148C379.214 26.382 379.772 26.688 379.772 27.624C379.772 28.65 379.088 29.118 377.09 29.118C374.912 29.118 374.03 28.596 374.03 27.102V26.994H372.752V27.03C372.752 29.082 374.336 30.18 377.072 30.18Z" fill="#4D546A"/>
<path fill-rule="evenodd" clip-rule="evenodd" d="M399.621 22.9088C400.554 23.3366 400.554 24.6625 399.621 25.0904L389.183 29.877C389.018 29.9529 388.824 29.9327 388.678 29.8243V29.8243C388.373 29.5983 388.422 29.128 388.767 28.9698L397.225 25.0904C398.158 24.6624 398.158 23.3367 397.225 22.9088L388.767 19.0302C388.422 18.872 388.373 18.4017 388.678 18.1757V18.1757C388.824 18.0673 389.018 18.0471 389.183 18.123L399.621 22.9088Z" fill="#4D546A"/>
<g clip-path="url(#clip0_702_4340)">
<path d="M386 66.7041L389.096 62.9203C389.096 62.9203 394.398 63.0328 399.682 65.4891C398.329 67.5347 395.644 68.5359 395.644 68.5359C395.463 66.7387 394.204 66.3 390.2 66.3L386.001 90.0009L381.773 66.2953C377.798 66.2953 376.539 66.735 376.358 68.5313C376.358 68.5313 373.672 67.5403 372.32 65.4938C377.603 63.0375 382.906 62.925 382.906 62.925L386.002 66.7041H385.997H386ZM386 61.8309C390.268 61.7916 395.156 62.49 400.16 64.6772C400.829 63.4659 401 62.9344 401 62.9344C395.532 60.7659 390.409 60.0197 386 60C381.591 60.0197 376.468 60.7622 371 62.9344C371 62.9344 371.244 63.5934 371.84 64.6828C376.845 62.4853 381.732 61.7925 386 61.8262V61.8309Z" fill="#121419"/>
</g>
<line x1="12" y1="95.75" x2="401" y2="95.75" stroke="#D6D9E1" stroke-width="0.5"/>
<defs>
<clipPath id="clip0_702_4340">
<rect width="30" height="30" fill="white" transform="translate(371 60)"/>
</clipPath>
</defs>
</svg>
