<svg width="390" height="70" viewBox="0 0 390 70" fill="none" xmlns="http://www.w3.org/2000/svg">
<path d="M0 3C0 1.34315 1.34315 0 3 0H387C388.657 0 390 1.34315 390 3V67C390 68.6569 388.657 70 387 70H3.00001C1.34316 70 0 68.6569 0 67V3Z" fill="#232630"/>
<path d="M180.7 53C180.7 53 326.518 7.25249 390 7.25249V2L0 2.00002V53H180.7Z" fill="#2D303C"/>
<path d="M180.7 51C180.7 51 326.518 5.25249 390 5.25249V0L0 1.9885e-05V51H180.7Z" fill="#121419"/>
<g clip-path="url(#clip0_1067_1194)">
<path d="M40.433 11.5459H30.117L29.7347 11.8314V20.9975H32.5905V17.5602L32.8631 17.3163H40.4333C42.3448 17.3163 43.2409 16.8026 43.2409 15.4847V13.3801C43.2405 12.0599 42.3448 11.5459 40.433 11.5459ZM40.433 14.9346C40.433 15.5556 40.0217 15.6845 39.1256 15.6845H32.8943L32.5901 15.3891V13.4256L32.8627 13.1765H39.1256C40.0217 13.1765 40.433 13.304 40.433 13.9279V14.9346Z" fill="white"/>
<path d="M48.4486 13.2798L50.9059 16.8757L50.7698 17.2241H45.3353L43.9481 18.9285H52.0375L52.5981 19.2695L53.854 20.9997H57.1221L49.9587 11.4287" fill="white"/>
<path d="M80.9447 19.1377V16.5937L81.2386 16.3402H86.7058V14.7202H78.0408V20.9991H90.8226V19.3868H81.2515" fill="white"/>
<path d="M90.9576 11.5459H78.0408V13.3272H90.9576V11.5459Z" fill="white"/>
<path d="M63.6339 13.2327H74.0401C73.8797 11.9111 73.0586 11.5444 70.9758 11.5444H63.5232C61.1729 11.5444 60.4232 12.0026 60.4232 13.7791V18.7632C60.4232 20.5415 61.1729 20.9997 63.5232 20.9997H70.9758C73.0892 20.9997 73.8985 20.6032 73.9536 19.2324H63.6339L63.3279 18.9447V13.4253" fill="white"/>
<path d="M22.7907 15.2291H15.2204L14.9975 14.984V13.3666L15.2193 13.1954H25.4246L25.564 12.8548C25.2164 11.9616 24.3163 11.5449 22.6447 11.5449H15.5556C13.2067 11.5449 12.4559 12.0031 12.4559 13.7796V14.8245C12.4559 16.6032 13.2067 17.0607 15.5556 17.0607H23.1089L23.3462 17.2686V18.9595L23.1527 19.2233H14.5127V19.2152H12.2496C12.2496 19.2152 11.9906 19.3449 12.0005 19.4055C12.1937 20.6482 13.0412 21.0002 15.0704 21.0002H22.7907C25.1392 21.0002 25.9124 20.542 25.9124 18.7637V17.4619C25.9124 15.6865 25.1392 15.2291 22.7907 15.2291Z" fill="white"/>
<path d="M99.0828 11.5068H94.8336L94.6029 11.9452L99.3219 15.3809C100.216 14.864 101.188 14.34 102.246 13.8231" fill="white"/>
<path d="M102.89 17.9792L107.038 21.0001H111.339L111.517 20.6L105.323 16.0723C104.501 16.6752 103.688 17.3119 102.89 17.9792Z" fill="white"/>
<path d="M98.4504 20.993H94.6058L94.281 20.4849C96.895 17.964 108.587 7.15775 134 6C134 6 112.669 6.71868 98.4504 20.993Z" fill="#D3D4D6"/>
</g>
<path d="M22.278 40V38.254H14.844V27.94H12.9V40H22.278ZM26.1628 40.18C28.1968 40.18 29.6188 39.28 30.0868 37.768H30.2128V40H31.9948V34.564C31.9948 32.422 30.7168 30.874 27.8728 30.874C25.0288 30.874 23.3368 32.404 23.3368 34.438V34.51H25.2628V34.438C25.2628 33.124 26.0728 32.584 27.7288 32.584C29.4388 32.584 30.0868 33.106 30.0868 34.582V35.104L26.0188 35.536C24.2548 35.734 23.1388 36.454 23.1388 37.84C23.1388 39.316 24.3088 40.18 26.1628 40.18ZM25.0828 37.714C25.0828 37.012 25.5688 36.778 26.5768 36.652L30.0868 36.256C30.0868 38.02 28.7188 38.776 26.6848 38.776C25.5688 38.776 25.0828 38.434 25.0828 37.714ZM37.4561 40.18C39.7601 40.18 40.9481 38.74 41.2361 37.228H41.3441V40H43.1261V31.054H41.2001V35.482C41.2001 37.426 40.2821 38.434 38.3021 38.434C36.4121 38.434 35.6381 37.588 35.6381 35.914V31.054H33.7121V36.436C33.7121 38.506 34.9361 40.18 37.4561 40.18ZM46.8362 40V35.572C46.8362 33.628 47.7182 32.62 49.6802 32.62C51.5342 32.62 52.2902 33.466 52.2902 35.14V40H54.2342V34.618C54.2342 32.548 53.0102 30.874 50.5262 30.874C48.2582 30.874 47.0702 32.314 46.8002 33.826H46.6742V31.054H44.8922V40H46.8362ZM60.4844 40.18C63.1664 40.18 65.1284 38.668 65.1284 36.436V36.238H63.2024V36.364C63.2024 37.75 62.1944 38.434 60.4484 38.434C58.4324 38.434 57.5324 37.462 57.5324 35.536C57.5324 33.574 58.4324 32.62 60.4484 32.62C62.1944 32.62 63.2024 33.304 63.2024 34.69V34.798H65.1284V34.618C65.1284 32.386 63.1664 30.874 60.4844 30.874C57.5324 30.874 55.6064 32.746 55.6064 35.536C55.6064 38.29 57.5324 40.18 60.4844 40.18ZM68.51 40V35.662C68.51 33.772 69.266 32.62 71.39 32.62C73.244 32.62 74.054 33.34 74.054 35.14V40H75.98V34.672C75.98 32.494 74.774 30.874 72.308 30.874C70.022 30.874 68.924 32.278 68.618 33.79H68.51V27.94H66.566V40H68.51Z" fill="#D3D4D6"/>
<path d="M88.424 36.22V35.44H84.908V32.2H89.108V31.408H84.044V40H84.908V36.22H88.424ZM91.5672 40.144C92.5512 40.144 93.3432 39.712 93.7032 38.98L93.8112 40H94.5072V36.244C94.5072 34.708 93.5232 34.036 92.1792 34.036C90.7512 34.036 89.7912 34.792 89.7912 35.968H90.5472C90.5472 35.188 91.1472 34.732 92.1552 34.732C93.0072 34.732 93.6912 35.092 93.6912 36.232V36.424L91.7712 36.58C90.4152 36.688 89.5992 37.36 89.5992 38.428C89.5992 39.448 90.3312 40.144 91.5672 40.144ZM91.7592 39.472C90.9672 39.472 90.4392 39.112 90.4392 38.404C90.4392 37.756 90.8832 37.276 91.9752 37.18L93.6912 37.048V37.36C93.6912 38.62 92.9832 39.472 91.7592 39.472ZM97.0327 40V31.252H96.2047V40H97.0327ZM98.3857 37.108C98.3857 38.932 99.5017 40.144 101.146 40.144C102.466 40.144 103.498 39.364 103.774 38.176H102.934C102.706 38.92 102.01 39.4 101.146 39.4C99.9697 39.4 99.2017 38.476 99.2017 37.096C99.2017 35.668 100.03 34.768 101.206 34.768C102.01 34.768 102.706 35.212 102.922 36.016H103.75C103.522 34.816 102.538 34.036 101.194 34.036C99.5017 34.036 98.3857 35.284 98.3857 37.108ZM104.62 37.096C104.62 38.86 105.868 40.144 107.572 40.144C109.276 40.144 110.524 38.86 110.524 37.096C110.524 35.32 109.276 34.036 107.572 34.036C105.868 34.036 104.62 35.32 104.62 37.096ZM105.46 37.084C105.46 35.74 106.324 34.78 107.572 34.78C108.808 34.78 109.684 35.74 109.684 37.084C109.684 38.452 108.808 39.4 107.572 39.4C106.324 39.4 105.46 38.452 105.46 37.084ZM112.676 40V36.964C112.676 35.656 113.348 34.792 114.536 34.792C115.496 34.792 116.108 35.272 116.108 36.628V40H116.936V36.448C116.936 34.984 116.276 34.036 114.68 34.036C113.84 34.036 113.072 34.456 112.688 35.2L112.568 34.192H111.848V40H112.676ZM126.655 37.096C127.471 36.004 127.735 35.308 127.735 34.312C127.735 32.584 126.379 31.252 124.651 31.252C122.935 31.252 121.603 32.548 121.603 34.3C121.603 35.98 122.791 37.288 124.579 37.288C124.987 37.288 125.359 37.216 125.755 37L123.499 40H124.507L126.655 37.096ZM126.871 34.3C126.871 35.596 125.959 36.532 124.651 36.532C123.379 36.532 122.467 35.596 122.467 34.3C122.467 32.992 123.379 32.044 124.651 32.044C125.959 32.044 126.871 32.992 126.871 34.3Z" fill="#D3D4D6"/>
<path d="M261.76 62H262.912L265.036 55.136L267.136 62H268.264L270.88 53.324H269.68L268.084 58.64C267.964 59.024 267.844 59.468 267.7 60.2C267.568 59.552 267.448 59.096 267.304 58.628L265.672 53.324H264.4L262.756 58.628C262.624 59.084 262.492 59.504 262.348 60.2C262.228 59.54 262.108 59.084 261.988 58.628L260.404 53.324H259.18L261.76 62ZM272.759 62.144C273.707 62.144 274.511 61.724 274.811 61.052L274.931 62H275.891V58.316C275.891 56.732 274.907 55.964 273.455 55.964C271.943 55.964 270.935 56.768 270.935 57.992H271.919C271.919 57.284 272.459 56.864 273.407 56.864C274.199 56.864 274.787 57.212 274.787 58.196V58.364L272.939 58.508C271.559 58.616 270.755 59.288 270.755 60.368C270.755 61.436 271.499 62.144 272.759 62.144ZM273.083 61.268C272.351 61.268 271.895 60.956 271.895 60.332C271.895 59.756 272.303 59.372 273.299 59.276L274.799 59.156V59.468C274.799 60.572 274.151 61.268 273.083 61.268ZM279.015 62V57.08H280.167V56.132H279.015V54.296H277.887V56.132H276.735V57.08H277.887V62H279.015ZM280.737 59.072C280.737 60.92 281.877 62.144 283.605 62.144C285.021 62.144 286.113 61.292 286.341 60.02H285.213C285.009 60.716 284.409 61.136 283.605 61.136C282.537 61.136 281.853 60.32 281.853 59.06C281.853 57.788 282.585 56.972 283.653 56.972C284.409 56.972 285.009 57.368 285.201 58.112H286.329C286.125 56.804 285.093 55.964 283.617 55.964C281.901 55.964 280.737 57.236 280.737 59.072ZM288.659 61.988V58.796C288.659 57.788 289.247 56.996 290.339 56.996C291.179 56.996 291.743 57.476 291.743 58.664V62H292.871V58.412C292.871 56.912 292.151 55.964 290.651 55.964C289.739 55.964 289.031 56.396 288.659 57.032V53.168H287.531V61.988H288.659ZM298.866 62V53.168H297.738V62H298.866ZM301.079 54.74C301.487 54.74 301.823 54.404 301.823 53.996C301.823 53.576 301.487 53.252 301.079 53.252C300.671 53.252 300.335 53.576 300.335 53.996C300.335 54.404 300.671 54.74 301.079 54.74ZM300.527 62H301.655V56.132H300.527V62ZM304.937 62H306.053L308.501 56.132H307.325L306.017 59.408C305.813 59.924 305.621 60.428 305.525 60.812C305.429 60.452 305.261 59.96 305.057 59.408L303.773 56.132H302.573L304.937 62ZM311.661 62.144C313.113 62.144 314.097 61.436 314.385 60.176H313.329C313.137 60.848 312.561 61.208 311.685 61.208C310.569 61.208 309.921 60.524 309.837 59.288L314.372 59.276V58.856C314.372 57.116 313.281 55.964 311.613 55.964C309.909 55.964 308.745 57.236 308.745 59.072C308.745 60.896 309.933 62.144 311.661 62.144ZM311.613 56.912C312.609 56.912 313.245 57.56 313.245 58.532H309.861C310.005 57.5 310.629 56.912 311.613 56.912ZM318.53 59.06C318.53 60.872 319.826 62.144 321.59 62.144C323.342 62.144 324.638 60.872 324.638 59.06C324.638 57.248 323.342 55.976 321.59 55.976C319.826 55.976 318.53 57.248 318.53 59.06ZM319.67 59.06C319.67 57.836 320.45 56.984 321.59 56.984C322.718 56.984 323.51 57.836 323.51 59.06C323.51 60.284 322.718 61.136 321.59 61.136C320.45 61.136 319.67 60.284 319.67 59.06ZM327.014 62V58.892C327.014 57.752 327.626 56.996 328.682 56.996C329.546 56.996 330.098 57.476 330.098 58.664V62H331.226V58.412C331.226 56.912 330.518 55.964 328.97 55.964C328.142 55.964 327.398 56.36 327.026 57.032L326.906 56.132H325.886V62H327.014Z" fill="#D3D4D6"/>
<path d="M164.48 40.18C168.35 40.18 170.51 37.732 170.51 33.97C170.51 30.226 168.35 27.76 164.48 27.76C160.592 27.76 158.45 30.226 158.45 33.97C158.45 37.732 160.592 40.18 164.48 40.18ZM164.48 37.552C162.176 37.552 161.348 36.562 161.348 33.97C161.348 31.378 162.176 30.388 164.48 30.388C166.766 30.388 167.612 31.378 167.612 33.97C167.612 36.562 166.766 37.552 164.48 37.552ZM177.112 40.18C180.622 40.18 182.71 38.956 182.71 36.616C182.71 34.852 181.558 33.952 179.794 33.7V33.502C181.36 33.304 182.188 32.368 182.188 30.982C182.188 28.858 180.406 27.76 177.184 27.76C173.26 27.76 171.388 29.488 171.388 32.026V32.116H174.25V32.026C174.25 30.802 174.79 30.352 176.95 30.352C179.002 30.352 179.506 30.712 179.506 31.558C179.506 32.314 179.038 32.692 177.994 32.692H174.772V34.906H178.246C179.38 34.906 179.956 35.284 179.956 36.184C179.956 37.228 179.254 37.588 176.986 37.588C174.592 37.588 174.25 37.138 174.25 35.914V35.626H171.388V35.914C171.388 38.578 173.17 40.18 177.112 40.18ZM189.805 34.114V30.982H186.331V34.114H189.805ZM189.805 40V36.85H186.331V40H189.805ZM199.601 40.18C203.471 40.18 205.631 37.732 205.631 33.97C205.631 30.226 203.471 27.76 199.601 27.76C195.713 27.76 193.571 30.226 193.571 33.97C193.571 37.732 195.713 40.18 199.601 40.18ZM199.601 37.552C197.297 37.552 196.469 36.562 196.469 33.97C196.469 31.378 197.297 30.388 199.601 30.388C201.887 30.388 202.733 31.378 202.733 33.97C202.733 36.562 201.887 37.552 199.601 37.552ZM212.179 40.18C215.653 40.18 217.921 39.082 217.921 36.688C217.921 34.87 216.751 34.024 215.059 33.7V33.502C216.679 33.232 217.579 32.35 217.579 30.928C217.579 28.984 215.743 27.76 212.161 27.76C208.615 27.76 206.761 28.984 206.761 30.928C206.761 32.35 207.679 33.232 209.263 33.502V33.7C207.697 34.024 206.401 34.87 206.401 36.688C206.401 39.082 208.651 40.18 212.179 40.18ZM212.161 32.854C210.109 32.854 209.461 32.458 209.461 31.612C209.461 30.748 210.037 30.352 212.161 30.352C214.339 30.352 214.879 30.748 214.879 31.612C214.879 32.458 214.249 32.854 212.161 32.854ZM212.161 37.588C209.821 37.588 209.137 37.174 209.137 36.13C209.137 35.122 209.803 34.708 212.161 34.708C214.519 34.708 215.185 35.122 215.185 36.13C215.185 37.174 214.483 37.588 212.161 37.588ZM225.049 34.114V30.982H221.575V34.114H225.049ZM225.049 40V36.85H221.575V40H225.049ZM239.489 40V37.57H234.773L231.623 37.876C231.623 36.922 232.181 36.58 233.351 36.22L235.979 35.5C238.121 34.906 239.525 33.844 239.525 31.702C239.525 29.416 238.049 27.76 234.413 27.76C230.399 27.76 228.797 29.884 228.797 32.224V32.458H231.443V32.224C231.443 30.892 232.109 30.226 234.323 30.226C236.303 30.226 236.807 30.748 236.807 31.666C236.807 32.458 236.411 32.818 235.331 33.196L232.235 34.204C229.697 35.05 228.779 36.148 228.779 38.272V40H239.489ZM246.123 40.18C249.633 40.18 251.721 38.956 251.721 36.616C251.721 34.852 250.569 33.952 248.805 33.7V33.502C250.371 33.304 251.199 32.368 251.199 30.982C251.199 28.858 249.417 27.76 246.195 27.76C242.271 27.76 240.399 29.488 240.399 32.026V32.116H243.261V32.026C243.261 30.802 243.801 30.352 245.961 30.352C248.013 30.352 248.517 30.712 248.517 31.558C248.517 32.314 248.049 32.692 247.005 32.692H243.783V34.906H247.257C248.391 34.906 248.967 35.284 248.967 36.184C248.967 37.228 248.265 37.588 245.997 37.588C243.603 37.588 243.261 37.138 243.261 35.914V35.626H240.399V35.914C240.399 38.578 242.181 40.18 246.123 40.18Z" fill="#79AFFF"/>
<path d="M164.48 40.18C168.35 40.18 170.51 37.732 170.51 33.97C170.51 30.226 168.35 27.76 164.48 27.76C160.592 27.76 158.45 30.226 158.45 33.97C158.45 37.732 160.592 40.18 164.48 40.18ZM164.48 37.552C162.176 37.552 161.348 36.562 161.348 33.97C161.348 31.378 162.176 30.388 164.48 30.388C166.766 30.388 167.612 31.378 167.612 33.97C167.612 36.562 166.766 37.552 164.48 37.552ZM177.112 40.18C180.622 40.18 182.71 38.956 182.71 36.616C182.71 34.852 181.558 33.952 179.794 33.7V33.502C181.36 33.304 182.188 32.368 182.188 30.982C182.188 28.858 180.406 27.76 177.184 27.76C173.26 27.76 171.388 29.488 171.388 32.026V32.116H174.25V32.026C174.25 30.802 174.79 30.352 176.95 30.352C179.002 30.352 179.506 30.712 179.506 31.558C179.506 32.314 179.038 32.692 177.994 32.692H174.772V34.906H178.246C179.38 34.906 179.956 35.284 179.956 36.184C179.956 37.228 179.254 37.588 176.986 37.588C174.592 37.588 174.25 37.138 174.25 35.914V35.626H171.388V35.914C171.388 38.578 173.17 40.18 177.112 40.18ZM189.805 34.114V30.982H186.331V34.114H189.805ZM189.805 40V36.85H186.331V40H189.805ZM199.601 40.18C203.471 40.18 205.631 37.732 205.631 33.97C205.631 30.226 203.471 27.76 199.601 27.76C195.713 27.76 193.571 30.226 193.571 33.97C193.571 37.732 195.713 40.18 199.601 40.18ZM199.601 37.552C197.297 37.552 196.469 36.562 196.469 33.97C196.469 31.378 197.297 30.388 199.601 30.388C201.887 30.388 202.733 31.378 202.733 33.97C202.733 36.562 201.887 37.552 199.601 37.552ZM212.179 40.18C215.653 40.18 217.921 39.082 217.921 36.688C217.921 34.87 216.751 34.024 215.059 33.7V33.502C216.679 33.232 217.579 32.35 217.579 30.928C217.579 28.984 215.743 27.76 212.161 27.76C208.615 27.76 206.761 28.984 206.761 30.928C206.761 32.35 207.679 33.232 209.263 33.502V33.7C207.697 34.024 206.401 34.87 206.401 36.688C206.401 39.082 208.651 40.18 212.179 40.18ZM212.161 32.854C210.109 32.854 209.461 32.458 209.461 31.612C209.461 30.748 210.037 30.352 212.161 30.352C214.339 30.352 214.879 30.748 214.879 31.612C214.879 32.458 214.249 32.854 212.161 32.854ZM212.161 37.588C209.821 37.588 209.137 37.174 209.137 36.13C209.137 35.122 209.803 34.708 212.161 34.708C214.519 34.708 215.185 35.122 215.185 36.13C215.185 37.174 214.483 37.588 212.161 37.588ZM225.049 34.114V30.982H221.575V34.114H225.049ZM225.049 40V36.85H221.575V40H225.049ZM239.489 40V37.57H234.773L231.623 37.876C231.623 36.922 232.181 36.58 233.351 36.22L235.979 35.5C238.121 34.906 239.525 33.844 239.525 31.702C239.525 29.416 238.049 27.76 234.413 27.76C230.399 27.76 228.797 29.884 228.797 32.224V32.458H231.443V32.224C231.443 30.892 232.109 30.226 234.323 30.226C236.303 30.226 236.807 30.748 236.807 31.666C236.807 32.458 236.411 32.818 235.331 33.196L232.235 34.204C229.697 35.05 228.779 36.148 228.779 38.272V40H239.489ZM246.123 40.18C249.633 40.18 251.721 38.956 251.721 36.616C251.721 34.852 250.569 33.952 248.805 33.7V33.502C250.371 33.304 251.199 32.368 251.199 30.982C251.199 28.858 249.417 27.76 246.195 27.76C242.271 27.76 240.399 29.488 240.399 32.026V32.116H243.261V32.026C243.261 30.802 243.801 30.352 245.961 30.352C248.013 30.352 248.517 30.712 248.517 31.558C248.517 32.314 248.049 32.692 247.005 32.692H243.783V34.906H247.257C248.391 34.906 248.967 35.284 248.967 36.184C248.967 37.228 248.265 37.588 245.997 37.588C243.603 37.588 243.261 37.138 243.261 35.914V35.626H240.399V35.914C240.399 38.578 242.181 40.18 246.123 40.18Z" fill="url(#paint0_linear_1067_1194)" fill-opacity="0.7"/>
<path d="M170.236 20C172.648 20 174.184 18.44 174.184 15.98C174.184 13.52 172.648 11.96 170.236 11.96H166.744V20H170.236ZM170.236 12.74C172.276 12.74 173.284 13.796 173.284 15.98C173.284 18.164 172.276 19.22 170.236 19.22H167.608V12.74H170.236Z" fill="#D3D4D6"/>
<path d="M201.572 20V17.216C201.572 15.74 202.184 14.732 203.768 14.732C205.1 14.732 205.736 15.308 205.736 16.664V20H206.588V16.556C206.588 15.056 205.76 13.952 204.104 13.952C202.592 13.952 201.824 14.888 201.632 15.884H201.572V11.96H200.72V20H201.572Z" fill="#D3D4D6"/>
<path d="M234.572 20V17.132C234.572 15.56 235.136 14.732 236.576 14.732C237.824 14.732 238.376 15.344 238.376 16.664V20H239.228V17.132C239.228 15.56 239.804 14.732 241.232 14.732C242.48 14.732 243.044 15.344 243.044 16.664V20H243.896V16.544C243.896 15.044 243.092 13.952 241.544 13.952C240.056 13.952 239.348 14.9 239.18 15.92H239.12C238.928 14.768 238.184 13.952 236.864 13.952C235.388 13.952 234.704 14.864 234.536 15.86H234.488V14.072H233.72V20H234.572Z" fill="#D3D4D6"/>
<path d="M250 54.6423V54.4797C250 52.6707 250.871 52 252.561 52C254.216 52 255 52.6301 255 54.5C255 56.3496 254.216 57 252.544 57C250.906 57 250 56.3902 250 54.6423Z" fill="#38E78C"/>
<path d="M341.574 61.9726V50.8188H338.238V61.9726H341.574Z" fill="#FBF9F3"/>
<path d="M346.656 61.9726V56.3401C346.656 54.4477 347.413 53.6017 349.526 53.6017C351.572 53.6017 352.306 54.3587 352.306 56.1397V61.9726H355.642V55.0265C355.642 52.5553 354.196 50.5962 351.149 50.5962C348.236 50.5962 346.901 52.3772 346.612 54.2473H346.412V50.8188H343.32V61.9726H346.656Z" fill="#FBF9F3"/>
<path d="M361.553 62V49.3864H357.292V62H361.553Z" fill="#79AFFF"/>
<path d="M361.553 62V49.3864H357.292V62H361.553Z" fill="url(#paint1_linear_1067_1194)" fill-opacity="0.7"/>
<path d="M368.078 49.627C368.078 49.627 374.674 47.2706 377.545 47.2706V47L338 47V49.627L368.078 49.627Z" fill="#79AFFF"/>
<path d="M368.078 49.627C368.078 49.627 374.674 47.2706 377.545 47.2706V47L338 47V49.627L368.078 49.627Z" fill="url(#paint2_linear_1067_1194)" fill-opacity="0.7"/>
<path d="M371.571 62L376.026 50.8352H372.283L369.484 58.8339H369.269L366.404 50.8352H362.645L367.1 62H371.571Z" fill="#79AFFF"/>
<path d="M371.571 62L376.026 50.8352H372.283L369.484 58.8339H369.269L366.404 50.8352H362.645L367.1 62H371.571Z" fill="url(#paint3_linear_1067_1194)" fill-opacity="0.7"/>
<defs>
<linearGradient id="paint0_linear_1067_1194" x1="161.168" y1="45.9322" x2="254.364" y2="50.4651" gradientUnits="userSpaceOnUse">
<stop stop-color="#1CFF5B"/>
<stop offset="1" stop-color="#00FF47" stop-opacity="0"/>
</linearGradient>
<linearGradient id="paint1_linear_1067_1194" x1="339.319" y1="61.9577" x2="378.164" y2="63.216" gradientUnits="userSpaceOnUse">
<stop stop-color="#1CFF5B"/>
<stop offset="1" stop-color="#00FF47" stop-opacity="0"/>
</linearGradient>
<linearGradient id="paint2_linear_1067_1194" x1="339.319" y1="61.9577" x2="378.164" y2="63.216" gradientUnits="userSpaceOnUse">
<stop stop-color="#1CFF5B"/>
<stop offset="1" stop-color="#00FF47" stop-opacity="0"/>
</linearGradient>
<linearGradient id="paint3_linear_1067_1194" x1="339.319" y1="61.9577" x2="378.164" y2="63.216" gradientUnits="userSpaceOnUse">
<stop stop-color="#1CFF5B"/>
<stop offset="1" stop-color="#00FF47" stop-opacity="0"/>
</linearGradient>
<clipPath id="clip0_1067_1194">
<rect width="122" height="15" fill="white" transform="translate(12 6)"/>
</clipPath>
</defs>
</svg>
