<svg width="192" height="112" viewBox="0 0 192 112" fill="none" xmlns="http://www.w3.org/2000/svg">
<path d="M0 0H192V46H0V0Z" fill="#FCFBF7"/>
<path d="M18.78 23.275V22.3H14.385V18.25H19.635V17.26H13.305V28H14.385V23.275H18.78ZM23.3545 18.115H22.2595L21.3595 19.9H22.1995L23.3545 18.115ZM21.2245 28H22.2595V20.74H21.2245V28ZM23.8029 25.96C23.8029 27.31 24.8229 28.18 26.4579 28.18C28.1079 28.18 29.2179 27.325 29.2179 26.02C29.2179 24.97 28.6479 24.385 27.3879 24.07L26.1429 23.755C25.3479 23.56 24.9579 23.17 24.9579 22.615C24.9579 21.835 25.5279 21.4 26.5479 21.4C27.5229 21.4 28.1079 21.895 28.1379 22.735H29.1429C29.0979 21.385 28.1079 20.545 26.5779 20.545C25.0179 20.545 23.9529 21.355 23.9529 22.63C23.9529 23.62 24.5679 24.28 25.8279 24.595L27.0729 24.91C27.9279 25.12 28.2279 25.465 28.2279 26.065C28.2279 26.845 27.5679 27.325 26.4429 27.325C25.4229 27.325 24.7929 26.8 24.7929 25.96H23.8029ZM31.4318 18.745C31.8518 18.745 32.2118 18.4 32.2118 17.98C32.2118 17.56 31.8518 17.2 31.4318 17.2C31.0118 17.2 30.6668 17.56 30.6668 17.98C30.6668 18.4 31.0118 18.745 31.4318 18.745ZM30.9218 28H31.9568V20.74H30.9218V28ZM33.6052 24.385C33.6052 26.665 35.0002 28.18 37.0552 28.18C38.7052 28.18 39.9952 27.205 40.3402 25.72H39.2902C39.0052 26.65 38.1352 27.25 37.0552 27.25C35.5852 27.25 34.6252 26.095 34.6252 24.37C34.6252 22.585 35.6602 21.46 37.1302 21.46C38.1352 21.46 39.0052 22.015 39.2752 23.02H40.3102C40.0252 21.52 38.7952 20.545 37.1152 20.545C35.0002 20.545 33.6052 22.105 33.6052 24.385ZM43.9931 28.18C45.2231 28.18 46.2131 27.64 46.6631 26.725L46.7981 28H47.6681V23.305C47.6681 21.385 46.4381 20.545 44.7581 20.545C42.9731 20.545 41.7731 21.49 41.7731 22.96H42.7181C42.7181 21.985 43.4681 21.415 44.7281 21.415C45.7931 21.415 46.6481 21.865 46.6481 23.29V23.53L44.2481 23.725C42.5531 23.86 41.5331 24.7 41.5331 26.035C41.5331 27.31 42.4481 28.18 43.9931 28.18ZM44.2331 27.34C43.2431 27.34 42.5831 26.89 42.5831 26.005C42.5831 25.195 43.1381 24.595 44.5031 24.475L46.6481 24.31V24.7C46.6481 26.275 45.7631 27.34 44.2331 27.34Z" fill="#232630"/>
<path d="M149 22.935V23.4553C149 29.0488 151.738 31 156.687 31H164.111V15H156.74C151.633 15 149 17.1463 149 22.935Z" fill="#636D87"/>
<path d="M176.2 22.935V23.4553C176.2 29.0488 173.462 31 168.513 31H161.089V15H168.46C173.567 15 176.2 17.1463 176.2 22.935Z" fill="#636D87"/>
<path d="M150.067 23.3852V22.9449C150.067 18.0469 152.26 16.2307 156.517 16.2307C160.685 16.2307 162.659 17.9368 162.659 22.9999C162.659 28.0081 160.685 29.7692 156.473 29.7692C152.348 29.7692 150.067 28.1181 150.067 23.3852Z" fill="#FCFBF7"/>
<path d="M0 0V-1H-1V0H0ZM192 0H193V-1H192V0ZM192 46V47H193V46H192ZM0 46H-1V47H0V46ZM0 1H192V-1H0V1ZM191 0V46H193V0H191ZM192 45H0V47H192V45ZM1 46V0H-1V46H1Z" fill="#D6D9E1"/>
<path d="M0 66H192V112H0V66Z" fill="#FCFBF7"/>
<path d="M18.78 89.275V88.3H14.385V84.25H19.635V83.26H13.305V94H14.385V89.275H18.78ZM23.3545 84.115H22.2595L21.3595 85.9H22.1995L23.3545 84.115ZM21.2245 94H22.2595V86.74H21.2245V94ZM23.8029 91.96C23.8029 93.31 24.8229 94.18 26.4579 94.18C28.1079 94.18 29.2179 93.325 29.2179 92.02C29.2179 90.97 28.6479 90.385 27.3879 90.07L26.1429 89.755C25.3479 89.56 24.9579 89.17 24.9579 88.615C24.9579 87.835 25.5279 87.4 26.5479 87.4C27.5229 87.4 28.1079 87.895 28.1379 88.735H29.1429C29.0979 87.385 28.1079 86.545 26.5779 86.545C25.0179 86.545 23.9529 87.355 23.9529 88.63C23.9529 89.62 24.5679 90.28 25.8279 90.595L27.0729 90.91C27.9279 91.12 28.2279 91.465 28.2279 92.065C28.2279 92.845 27.5679 93.325 26.4429 93.325C25.4229 93.325 24.7929 92.8 24.7929 91.96H23.8029ZM31.4318 84.745C31.8518 84.745 32.2118 84.4 32.2118 83.98C32.2118 83.56 31.8518 83.2 31.4318 83.2C31.0118 83.2 30.6668 83.56 30.6668 83.98C30.6668 84.4 31.0118 84.745 31.4318 84.745ZM30.9218 94H31.9568V86.74H30.9218V94ZM33.6052 90.385C33.6052 92.665 35.0002 94.18 37.0552 94.18C38.7052 94.18 39.9952 93.205 40.3402 91.72H39.2902C39.0052 92.65 38.1352 93.25 37.0552 93.25C35.5852 93.25 34.6252 92.095 34.6252 90.37C34.6252 88.585 35.6602 87.46 37.1302 87.46C38.1352 87.46 39.0052 88.015 39.2752 89.02H40.3102C40.0252 87.52 38.7952 86.545 37.1152 86.545C35.0002 86.545 33.6052 88.105 33.6052 90.385ZM43.9931 94.18C45.2231 94.18 46.2131 93.64 46.6631 92.725L46.7981 94H47.6681V89.305C47.6681 87.385 46.4381 86.545 44.7581 86.545C42.9731 86.545 41.7731 87.49 41.7731 88.96H42.7181C42.7181 87.985 43.4681 87.415 44.7281 87.415C45.7931 87.415 46.6481 87.865 46.6481 89.29V89.53L44.2481 89.725C42.5531 89.86 41.5331 90.7 41.5331 92.035C41.5331 93.31 42.4481 94.18 43.9931 94.18ZM44.2331 93.34C43.2431 93.34 42.5831 92.89 42.5831 92.005C42.5831 91.195 43.1381 90.595 44.5031 90.475L46.6481 90.31V90.7C46.6481 92.275 45.7631 93.34 44.2331 93.34Z" fill="#232630"/>
<path d="M149 88.935V89.4553C149 95.0488 151.738 97 156.687 97H164.111V81H156.74C151.633 81 149 83.1463 149 88.935Z" fill="#121419"/>
<path d="M176.2 88.935V89.4553C176.2 95.0488 173.462 97 168.513 97H161.089V81H168.46C173.567 81 176.2 83.1463 176.2 88.935Z" fill="#121419"/>
<path d="M162.6 89.3852V88.9449C162.6 84.0469 164.794 82.2307 169.05 82.2307C173.218 82.2307 175.193 83.9368 175.193 88.9999C175.193 94.0081 173.218 95.7692 169.006 95.7692C164.882 95.7692 162.6 94.1181 162.6 89.3852Z" fill="#FCFBF7"/>
<path d="M0 66V65H-1V66H0ZM192 66H193V65H192V66ZM192 112V113H193V112H192ZM0 112H-1V113H0V112ZM0 67H192V65H0V67ZM191 66V112H193V66H191ZM192 111H0V113H192V111ZM1 112V66H-1V112H1Z" fill="#D6D9E1"/>
</svg>
